M48
;GenerationSoftware,Autodesk,EAGLE,9.6.2*%
;CreationDate,2024-02-26T03:27:23Z*%
FMAT,2
ICI,OFF
METRIC,TZ,000.000
T13C0.200
T12C0.250
T11C0.400
T10C0.813
T9C1.000
T8C1.016
T7C1.100
T6C1.194
T5C1.700
T4C2.200
T3C2.250
T2C2.800
T1C3.302
%
G90
M71
T1
X48190Y63992
X68510Y63992
T2
X11996Y63476
X118000Y63000
X11586Y8026
X118000Y9000
T3
X109593Y35654
X109593Y14314
X47613Y14314
X47613Y35654
T4
X36513Y19800
X20003Y19800
T5
X91000Y58500
X96000Y58500
T6
X119702Y36488
T7
X111540Y63500
X106460Y63500
T8
X59672Y41145
X62212Y41145
X54592Y41145
X57132Y41145
T9
X21908Y8370
X24448Y8370
X26988Y8370
X29528Y8370
X32068Y8370
X34608Y8370
X37148Y8370
X22996Y26431
X25536Y26431
X28076Y26431
X30616Y26431
X83000Y65500
X33156Y26431
X25536Y39131
X28076Y39131
X30616Y39131
X33156Y39131
X99000Y63500
X88000Y63500
X35696Y26431
X85000Y65500
X22930Y63624
X25470Y63624
X28010Y63624
X30550Y63624
X33090Y63624
X35630Y63624
X22930Y45844
X25470Y45844
X28010Y45844
X30550Y45844
X33090Y45844
X35630Y45844
X89550Y35119
X87010Y35119
X84470Y35119
X81930Y35119
X79390Y35119
X76850Y35119
X74310Y35119
X71770Y35119
X69230Y35119
X66690Y35119
X64150Y35119
X61610Y35119
X59070Y35119
X56530Y35119
X89550Y14849
X87010Y14849
X84470Y14849
X81930Y14849
X79390Y14849
X76850Y14849
X74310Y14849
X71770Y14849
X69230Y14849
X66690Y14849
X64150Y14849
X61610Y14849
X59070Y14849
X56530Y14849
X19368Y8370
T10
X118000Y42000
X118000Y39993
X118000Y38012
T11
X83000Y61200
T12
X87000Y26500
X87000Y23500
T13
X111727Y46276
X111727Y45514
X110965Y45514
X110965Y46276
X110965Y47038
X109568Y47038
X109568Y46276
X109568Y45514
X109314Y47927
X109314Y48689
X109314Y49451
X110457Y55420
X106520Y43863
X106520Y43101
X105758Y43863
X105758Y43101
X105758Y44879
X104361Y47292
X104361Y48435
X111092Y53896
X107282Y53896
X104361Y46149
X111727Y47038
M30