G04 #@! TF.GenerationSoftware,KiCad,Pcbnew,8.0.1*
G04 #@! TF.CreationDate,2024-04-16T23:47:22-05:00*
G04 #@! TF.ProjectId,RP2040_minimal_r2,52503230-3430-45f6-9d69-6e696d616c5f,REV2*
G04 #@! TF.SameCoordinates,Original*
G04 #@! TF.FileFunction,Copper,L2,Bot*
G04 #@! TF.FilePolarity,Positive*
%FSLAX46Y46*%
G04 Gerber Fmt 4.6, Leading zero omitted, Abs format (unit mm)*
G04 Created by KiCad (PCBNEW 8.0.1) date 2024-04-16 23:47:22*
%MOMM*%
%LPD*%
G01*
G04 APERTURE LIST*
G04 #@! TA.AperFunction,ComponentPad*
%ADD10O,1.300000X1.800000*%
G04 #@! TD*
G04 #@! TA.AperFunction,ComponentPad*
%ADD11O,1.050000X1.450000*%
G04 #@! TD*
G04 #@! TA.AperFunction,ComponentPad*
%ADD12R,1.700000X1.700000*%
G04 #@! TD*
G04 #@! TA.AperFunction,ComponentPad*
%ADD13O,1.700000X1.700000*%
G04 #@! TD*
G04 #@! TA.AperFunction,ComponentPad*
%ADD14C,0.600000*%
G04 #@! TD*
G04 #@! TA.AperFunction,ViaPad*
%ADD15C,0.600000*%
G04 #@! TD*
G04 #@! TA.AperFunction,Conductor*
%ADD16C,0.150000*%
G04 #@! TD*
G04 #@! TA.AperFunction,Conductor*
%ADD17C,0.200000*%
G04 #@! TD*
G04 #@! TA.AperFunction,Conductor*
%ADD18C,0.600000*%
G04 #@! TD*
G04 #@! TA.AperFunction,Conductor*
%ADD19C,0.400000*%
G04 #@! TD*
G04 APERTURE END LIST*
D10*
X102725000Y-71700000D03*
D11*
X102425000Y-74730000D03*
X97575000Y-74730000D03*
D10*
X97275000Y-71700000D03*
D12*
X91110000Y-76540000D03*
D13*
X91110000Y-74000000D03*
D12*
X75870000Y-74000000D03*
D13*
X78410000Y-74000000D03*
X75870000Y-76540000D03*
X78410000Y-76540000D03*
X75870000Y-79080000D03*
X78410000Y-79080000D03*
X75870000Y-81620000D03*
X78410000Y-81620000D03*
X75870000Y-84160000D03*
X78410000Y-84160000D03*
X75870000Y-86700000D03*
X78410000Y-86700000D03*
X75870000Y-89240000D03*
X78410000Y-89240000D03*
X75870000Y-91780000D03*
X78410000Y-91780000D03*
X75870000Y-94320000D03*
X78410000Y-94320000D03*
X75870000Y-96860000D03*
X78410000Y-96860000D03*
X75870000Y-99400000D03*
X78410000Y-99400000D03*
X75870000Y-101940000D03*
X78410000Y-101940000D03*
X75870000Y-104480000D03*
X78410000Y-104480000D03*
X75870000Y-107020000D03*
X78410000Y-107020000D03*
X75870000Y-109560000D03*
X78410000Y-109560000D03*
X75870000Y-112100000D03*
X78410000Y-112100000D03*
X75870000Y-114640000D03*
X78410000Y-114640000D03*
X75870000Y-117180000D03*
X78410000Y-117180000D03*
D12*
X121590000Y-74000000D03*
D13*
X124130000Y-74000000D03*
X121590000Y-76540000D03*
X124130000Y-76540000D03*
X121590000Y-79080000D03*
X124130000Y-79080000D03*
X121590000Y-81620000D03*
X124130000Y-81620000D03*
X121590000Y-84160000D03*
X124130000Y-84160000D03*
X121590000Y-86700000D03*
X124130000Y-86700000D03*
X121590000Y-89240000D03*
X124130000Y-89240000D03*
X121590000Y-91780000D03*
X124130000Y-91780000D03*
X121590000Y-94320000D03*
X124130000Y-94320000D03*
X121590000Y-96860000D03*
X124130000Y-96860000D03*
X121590000Y-99400000D03*
X124130000Y-99400000D03*
X121590000Y-101940000D03*
X124130000Y-101940000D03*
X121590000Y-104480000D03*
X124130000Y-104480000D03*
X121590000Y-107020000D03*
X124130000Y-107020000D03*
X121590000Y-109560000D03*
X124130000Y-109560000D03*
X121590000Y-112100000D03*
X124130000Y-112100000D03*
X121590000Y-114640000D03*
X124130000Y-114640000D03*
X121590000Y-117180000D03*
X124130000Y-117180000D03*
D14*
X98725000Y-98725000D03*
X98725000Y-100000000D03*
X98725000Y-101275000D03*
X100000000Y-98725000D03*
X100000000Y-100000000D03*
X100000000Y-101275000D03*
X101275000Y-98725000D03*
X101275000Y-100000000D03*
X101275000Y-101275000D03*
D15*
X93500000Y-111000000D03*
X92500000Y-113000000D03*
X92000000Y-111000000D03*
X84500000Y-106000000D03*
X89000000Y-108500000D03*
X90500000Y-108500000D03*
X91500000Y-108500000D03*
X87000000Y-107500000D03*
X89500000Y-110500000D03*
X92500000Y-106500000D03*
X89500000Y-105000000D03*
X88000000Y-104500000D03*
X94000000Y-113500000D03*
X86000000Y-97500000D03*
X86500000Y-99000000D03*
X97100000Y-112300000D03*
X97100000Y-109500000D03*
X102900000Y-109500000D03*
X99000000Y-91200008D03*
X97300000Y-106600000D03*
X92000000Y-97000000D03*
X98700000Y-76000000D03*
X108000000Y-101305000D03*
X86190000Y-79400000D03*
X101500000Y-107782004D03*
X102900000Y-112300000D03*
X92000000Y-101200000D03*
X108000000Y-94600000D03*
X111500000Y-89000000D03*
X103000000Y-92200000D03*
X94700000Y-82800000D03*
X100380994Y-107781990D03*
X108000000Y-95600000D03*
X90800000Y-89200000D03*
X104000000Y-92200000D03*
X110000000Y-78000000D03*
X100000000Y-91200000D03*
X104600000Y-73300000D03*
X95400000Y-73300000D03*
X99800000Y-95199994D03*
X100700000Y-97900000D03*
X100800000Y-105200000D03*
X100599970Y-102100000D03*
D16*
X91257537Y-113000000D02*
X92500000Y-113000000D01*
X84500000Y-106242463D02*
X91257537Y-113000000D01*
X84500000Y-106000000D02*
X84500000Y-106242463D01*
X92000000Y-108742463D02*
X92000000Y-111000000D01*
X92500000Y-108242463D02*
X92000000Y-108742463D01*
X92500000Y-106500000D02*
X92500000Y-108242463D01*
X86500000Y-114000000D02*
X93500000Y-114000000D01*
X85500000Y-108000000D02*
X85500000Y-113000000D01*
X83500000Y-100000000D02*
X83500000Y-106000000D01*
X86000000Y-97500000D02*
X83500000Y-100000000D01*
X83500000Y-106000000D02*
X85500000Y-108000000D01*
X85500000Y-113000000D02*
X86500000Y-114000000D01*
X93500000Y-114000000D02*
X94000000Y-113500000D01*
X88500000Y-108500000D02*
X89000000Y-108500000D01*
X88000000Y-108000000D02*
X88500000Y-108500000D01*
X88000000Y-105000000D02*
X88000000Y-108000000D01*
X88000000Y-104500000D02*
X88000000Y-105000000D01*
X89500000Y-107500000D02*
X90500000Y-108500000D01*
X89500000Y-105000000D02*
X89500000Y-107500000D01*
X85500000Y-100000000D02*
X86500000Y-99000000D01*
X87000000Y-107500000D02*
X85500000Y-106000000D01*
X85500000Y-106000000D02*
X85500000Y-100000000D01*
D17*
X103299999Y-92499999D02*
X103000000Y-92200000D01*
X104000000Y-93000000D02*
X103800000Y-93000000D01*
X103800000Y-93000000D02*
X103299999Y-92499999D01*
D18*
X104600000Y-73300000D02*
X95400000Y-73300000D01*
D19*
X100800000Y-105200000D02*
X100590000Y-104990000D01*
X100590000Y-104990000D02*
X100590000Y-102109970D01*
X100590000Y-102109970D02*
X100599970Y-102100000D01*
X99800000Y-97010000D02*
X100690000Y-97900000D01*
X99800000Y-95199994D02*
X99800000Y-97010000D01*
X100690000Y-97900000D02*
X100700000Y-97900000D01*
G04 #@! TA.AperFunction,Conductor*
G36*
X96718653Y-70518907D02*
G01*
X96754617Y-70568407D01*
X96754617Y-70629593D01*
X96718653Y-70679093D01*
X96715464Y-70681315D01*
X96669410Y-70712087D01*
X96669406Y-70712090D01*
X96537090Y-70844406D01*
X96537087Y-70844410D01*
X96433124Y-70999998D01*
X96433118Y-71000010D01*
X96361508Y-71172893D01*
X96361508Y-71172895D01*
X96325000Y-71356430D01*
X96325000Y-71549999D01*
X96325001Y-71550000D01*
X96925000Y-71550000D01*
X96925000Y-71850000D01*
X96325001Y-71850000D01*
X96325000Y-71850001D01*
X96325000Y-72043569D01*
X96361508Y-72227104D01*
X96361508Y-72227106D01*
X96433118Y-72399989D01*
X96433124Y-72400001D01*
X96537087Y-72555589D01*
X96537090Y-72555593D01*
X96611993Y-72630496D01*
X96639770Y-72685013D01*
X96630199Y-72745445D01*
X96586934Y-72788710D01*
X96541989Y-72799500D01*
X95328035Y-72799500D01*
X95265845Y-72817761D01*
X95263579Y-72818397D01*
X95206815Y-72833607D01*
X95200818Y-72836091D01*
X95200589Y-72835539D01*
X95190245Y-72839958D01*
X95189954Y-72840043D01*
X95189944Y-72840048D01*
X95141410Y-72871238D01*
X95137391Y-72873688D01*
X95092684Y-72899500D01*
X95092682Y-72899502D01*
X95091658Y-72900527D01*
X95075200Y-72913789D01*
X95068872Y-72917856D01*
X95068871Y-72917857D01*
X95035768Y-72956059D01*
X95030956Y-72961227D01*
X94999500Y-72992685D01*
X94999499Y-72992686D01*
X94995172Y-73000180D01*
X94984266Y-73015496D01*
X94974622Y-73026627D01*
X94974621Y-73026628D01*
X94956591Y-73066107D01*
X94952277Y-73074475D01*
X94933608Y-73106813D01*
X94933607Y-73106813D01*
X94929507Y-73122117D01*
X94923938Y-73137608D01*
X94923933Y-73137621D01*
X94914835Y-73157543D01*
X94909674Y-73193430D01*
X94907310Y-73204953D01*
X94899500Y-73234104D01*
X94899500Y-73257122D01*
X94898492Y-73271211D01*
X94894353Y-73299998D01*
X94894353Y-73300001D01*
X94898492Y-73328786D01*
X94899500Y-73342876D01*
X94899500Y-73365893D01*
X94907310Y-73395042D01*
X94909675Y-73406572D01*
X94914835Y-73442457D01*
X94923937Y-73462388D01*
X94929506Y-73477881D01*
X94933608Y-73493186D01*
X94952277Y-73525523D01*
X94956592Y-73533893D01*
X94974622Y-73573373D01*
X94984259Y-73584494D01*
X94995172Y-73599820D01*
X94999497Y-73607310D01*
X94999498Y-73607311D01*
X94999500Y-73607314D01*
X95030958Y-73638772D01*
X95030961Y-73638775D01*
X95035764Y-73643934D01*
X95068872Y-73682143D01*
X95075186Y-73686201D01*
X95091662Y-73699476D01*
X95092686Y-73700500D01*
X95133256Y-73723923D01*
X95137392Y-73726311D01*
X95141414Y-73728763D01*
X95189947Y-73759953D01*
X95190046Y-73759982D01*
X95190215Y-73760032D01*
X95200584Y-73764474D01*
X95200819Y-73763909D01*
X95206809Y-73766389D01*
X95206814Y-73766392D01*
X95263579Y-73781601D01*
X95265813Y-73782228D01*
X95276814Y-73785458D01*
X95328033Y-73800499D01*
X95328038Y-73800499D01*
X95328039Y-73800500D01*
X95328040Y-73800500D01*
X96898766Y-73800500D01*
X96956957Y-73819407D01*
X96992921Y-73868907D01*
X96992921Y-73930093D01*
X96968770Y-73969504D01*
X96934180Y-74004093D01*
X96843892Y-74139217D01*
X96843892Y-74139218D01*
X96781704Y-74289354D01*
X96781704Y-74289356D01*
X96750000Y-74448742D01*
X96750000Y-74579999D01*
X96750001Y-74580000D01*
X97250000Y-74580000D01*
X97250000Y-74880000D01*
X96750001Y-74880000D01*
X96750000Y-74880001D01*
X96750000Y-75011257D01*
X96781704Y-75170643D01*
X96781704Y-75170645D01*
X96843892Y-75320781D01*
X96843892Y-75320782D01*
X96934180Y-75455906D01*
X97049093Y-75570819D01*
X97184218Y-75661107D01*
X97334349Y-75723293D01*
X97334360Y-75723296D01*
X97425000Y-75741324D01*
X97425000Y-75218674D01*
X97449555Y-75232851D01*
X97532213Y-75255000D01*
X97617787Y-75255000D01*
X97700445Y-75232851D01*
X97725000Y-75218674D01*
X97725000Y-75741323D01*
X97815639Y-75723296D01*
X97815650Y-75723293D01*
X97965781Y-75661107D01*
X97965782Y-75661107D01*
X98100906Y-75570819D01*
X98215819Y-75455906D01*
X98306107Y-75320782D01*
X98306107Y-75320781D01*
X98368295Y-75170645D01*
X98368295Y-75170643D01*
X98399999Y-75011257D01*
X98400000Y-75011254D01*
X98400000Y-74880001D01*
X98399999Y-74880000D01*
X97900000Y-74880000D01*
X97900000Y-74580000D01*
X98399999Y-74580000D01*
X98400000Y-74579999D01*
X98400000Y-74448745D01*
X98399999Y-74448742D01*
X98368295Y-74289356D01*
X98368295Y-74289354D01*
X98306107Y-74139218D01*
X98306107Y-74139217D01*
X98215819Y-74004093D01*
X98181230Y-73969504D01*
X98153453Y-73914987D01*
X98163024Y-73854555D01*
X98206289Y-73811290D01*
X98251234Y-73800500D01*
X101748766Y-73800500D01*
X101806957Y-73819407D01*
X101842921Y-73868907D01*
X101842921Y-73930093D01*
X101818770Y-73969504D01*
X101784180Y-74004093D01*
X101693892Y-74139217D01*
X101693892Y-74139218D01*
X101631704Y-74289354D01*
X101631704Y-74289356D01*
X101600000Y-74448742D01*
X101600000Y-74579999D01*
X101600001Y-74580000D01*
X102100000Y-74580000D01*
X102100000Y-74880000D01*
X101600001Y-74880000D01*
X101600000Y-74880001D01*
X101600000Y-75011257D01*
X101631704Y-75170643D01*
X101631704Y-75170645D01*
X101693892Y-75320781D01*
X101693892Y-75320782D01*
X101784180Y-75455906D01*
X101899093Y-75570819D01*
X102034218Y-75661107D01*
X102184349Y-75723293D01*
X102184360Y-75723296D01*
X102275000Y-75741324D01*
X102275000Y-75218674D01*
X102299555Y-75232851D01*
X102382213Y-75255000D01*
X102467787Y-75255000D01*
X102550445Y-75232851D01*
X102575000Y-75218674D01*
X102575000Y-75741323D01*
X102665639Y-75723296D01*
X102665650Y-75723293D01*
X102815781Y-75661107D01*
X102815782Y-75661107D01*
X102950906Y-75570819D01*
X103065819Y-75455906D01*
X103156107Y-75320782D01*
X103156107Y-75320781D01*
X103218295Y-75170645D01*
X103218295Y-75170643D01*
X103249999Y-75011257D01*
X103250000Y-75011254D01*
X103250000Y-74880001D01*
X103249999Y-74880000D01*
X102750000Y-74880000D01*
X102750000Y-74580000D01*
X103249999Y-74580000D01*
X103250000Y-74579999D01*
X103250000Y-74448745D01*
X103249999Y-74448742D01*
X103218295Y-74289356D01*
X103218295Y-74289354D01*
X103162255Y-74154060D01*
X111619500Y-74154060D01*
X111659717Y-74459536D01*
X111659717Y-74459541D01*
X111739464Y-74757163D01*
X111857375Y-75041825D01*
X112011440Y-75308673D01*
X112199003Y-75553110D01*
X112199005Y-75553112D01*
X112199009Y-75553117D01*
X112416883Y-75770991D01*
X112416887Y-75770994D01*
X112416889Y-75770996D01*
X112654794Y-75953547D01*
X112661330Y-75958562D01*
X112928170Y-76112622D01*
X112928171Y-76112622D01*
X112928174Y-76112624D01*
X113212836Y-76230535D01*
X113510456Y-76310282D01*
X113815940Y-76350500D01*
X113815941Y-76350500D01*
X114124059Y-76350500D01*
X114124060Y-76350500D01*
X114429544Y-76310282D01*
X114727164Y-76230535D01*
X115011830Y-76112622D01*
X115278670Y-75958562D01*
X115523117Y-75770991D01*
X115740991Y-75553117D01*
X115928562Y-75308670D01*
X116082622Y-75041830D01*
X116153902Y-74869746D01*
X120539500Y-74869746D01*
X120539501Y-74869758D01*
X120551132Y-74928227D01*
X120551134Y-74928233D01*
X120595445Y-74994548D01*
X120595448Y-74994552D01*
X120661769Y-75038867D01*
X120706231Y-75047711D01*
X120720241Y-75050498D01*
X120720246Y-75050498D01*
X120720252Y-75050500D01*
X120720253Y-75050500D01*
X122459747Y-75050500D01*
X122459748Y-75050500D01*
X122518231Y-75038867D01*
X122584552Y-74994552D01*
X122628867Y-74928231D01*
X122640500Y-74869748D01*
X122640500Y-74150000D01*
X122988973Y-74150000D01*
X122994738Y-74212216D01*
X123053064Y-74417210D01*
X123148057Y-74607983D01*
X123148062Y-74607992D01*
X123276496Y-74778064D01*
X123276506Y-74778075D01*
X123433995Y-74921647D01*
X123433994Y-74921647D01*
X123615206Y-75033847D01*
X123813941Y-75110838D01*
X123979999Y-75141880D01*
X123980000Y-75141880D01*
X123980000Y-74477445D01*
X124064174Y-74500000D01*
X124195826Y-74500000D01*
X124280000Y-74477445D01*
X124280000Y-75141880D01*
X124446058Y-75110838D01*
X124644793Y-75033847D01*
X124826004Y-74921647D01*
X124983493Y-74778075D01*
X124983503Y-74778064D01*
X125111937Y-74607992D01*
X125111942Y-74607983D01*
X125206935Y-74417210D01*
X125265261Y-74212216D01*
X125271027Y-74150000D01*
X124607445Y-74150000D01*
X124630000Y-74065826D01*
X124630000Y-73934174D01*
X124607445Y-73850000D01*
X125271026Y-73850000D01*
X125265261Y-73787783D01*
X125206935Y-73582789D01*
X125111942Y-73392016D01*
X125111937Y-73392007D01*
X124983503Y-73221935D01*
X124983493Y-73221924D01*
X124826004Y-73078352D01*
X124826005Y-73078352D01*
X124644793Y-72966152D01*
X124446061Y-72889162D01*
X124446055Y-72889160D01*
X124280000Y-72858118D01*
X124280000Y-73522554D01*
X124195826Y-73500000D01*
X124064174Y-73500000D01*
X123980000Y-73522554D01*
X123980000Y-72858119D01*
X123979999Y-72858118D01*
X123813944Y-72889160D01*
X123813938Y-72889162D01*
X123615206Y-72966152D01*
X123433995Y-73078352D01*
X123276506Y-73221924D01*
X123276496Y-73221935D01*
X123148062Y-73392007D01*
X123148057Y-73392016D01*
X123053064Y-73582789D01*
X122994738Y-73787783D01*
X122988973Y-73850000D01*
X123652555Y-73850000D01*
X123630000Y-73934174D01*
X123630000Y-74065826D01*
X123652555Y-74150000D01*
X122988973Y-74150000D01*
X122640500Y-74150000D01*
X122640500Y-73130252D01*
X122638921Y-73122316D01*
X122635517Y-73105202D01*
X122628867Y-73071769D01*
X122584552Y-73005448D01*
X122584548Y-73005445D01*
X122518233Y-72961134D01*
X122518231Y-72961133D01*
X122518228Y-72961132D01*
X122518227Y-72961132D01*
X122459758Y-72949501D01*
X122459748Y-72949500D01*
X120720252Y-72949500D01*
X120720251Y-72949500D01*
X120720241Y-72949501D01*
X120661772Y-72961132D01*
X120661766Y-72961134D01*
X120595451Y-73005445D01*
X120595445Y-73005451D01*
X120551134Y-73071766D01*
X120551132Y-73071772D01*
X120539501Y-73130241D01*
X120539500Y-73130253D01*
X120539500Y-74869746D01*
X116153902Y-74869746D01*
X116200535Y-74757164D01*
X116280282Y-74459544D01*
X116320500Y-74154060D01*
X116320500Y-73845940D01*
X116280282Y-73540456D01*
X116200535Y-73242836D01*
X116196918Y-73234104D01*
X116082624Y-72958174D01*
X116081403Y-72956059D01*
X115928562Y-72691330D01*
X115912124Y-72669907D01*
X115740996Y-72446889D01*
X115740994Y-72446887D01*
X115740991Y-72446883D01*
X115523117Y-72229009D01*
X115523112Y-72229005D01*
X115523110Y-72229003D01*
X115278673Y-72041440D01*
X115011825Y-71887375D01*
X114727163Y-71769464D01*
X114523881Y-71714995D01*
X114429544Y-71689718D01*
X114429541Y-71689717D01*
X114429539Y-71689717D01*
X114124060Y-71649500D01*
X113815940Y-71649500D01*
X113815939Y-71649500D01*
X113510463Y-71689717D01*
X113510458Y-71689717D01*
X113212836Y-71769464D01*
X112928174Y-71887375D01*
X112661326Y-72041440D01*
X112416889Y-72229003D01*
X112199003Y-72446889D01*
X112011440Y-72691326D01*
X111857375Y-72958174D01*
X111739464Y-73242836D01*
X111659717Y-73540458D01*
X111659717Y-73540463D01*
X111619500Y-73845939D01*
X111619500Y-74154060D01*
X103162255Y-74154060D01*
X103156107Y-74139218D01*
X103156107Y-74139217D01*
X103065819Y-74004093D01*
X103031230Y-73969504D01*
X103003453Y-73914987D01*
X103013024Y-73854555D01*
X103056289Y-73811290D01*
X103101234Y-73800500D01*
X104671958Y-73800500D01*
X104671961Y-73800500D01*
X104734190Y-73782227D01*
X104736393Y-73781608D01*
X104793186Y-73766392D01*
X104793192Y-73766388D01*
X104799188Y-73763906D01*
X104799424Y-73764476D01*
X104809792Y-73760029D01*
X104810053Y-73759953D01*
X104858605Y-73728749D01*
X104862580Y-73726326D01*
X104907314Y-73700500D01*
X104908326Y-73699487D01*
X104924808Y-73686203D01*
X104931128Y-73682143D01*
X104964236Y-73643932D01*
X104969025Y-73638787D01*
X105000500Y-73607314D01*
X105004818Y-73599833D01*
X105015744Y-73584489D01*
X105017217Y-73582789D01*
X105025377Y-73573373D01*
X105043412Y-73533880D01*
X105047713Y-73525537D01*
X105066392Y-73493186D01*
X105070491Y-73477885D01*
X105076064Y-73462383D01*
X105085165Y-73442457D01*
X105090326Y-73406557D01*
X105092683Y-73395061D01*
X105100500Y-73365892D01*
X105100500Y-73342876D01*
X105101508Y-73328786D01*
X105105647Y-73300001D01*
X105105647Y-73299998D01*
X105101508Y-73271211D01*
X105100500Y-73257122D01*
X105100500Y-73234109D01*
X105100500Y-73234108D01*
X105092688Y-73204953D01*
X105090324Y-73193431D01*
X105085165Y-73157543D01*
X105076058Y-73137603D01*
X105070489Y-73122106D01*
X105066394Y-73106819D01*
X105066391Y-73106813D01*
X105065464Y-73105208D01*
X105058492Y-73093131D01*
X105047720Y-73074472D01*
X105043404Y-73066099D01*
X105025377Y-73026627D01*
X105015742Y-73015508D01*
X105004823Y-73000174D01*
X105000500Y-72992686D01*
X104969041Y-72961227D01*
X104964230Y-72956058D01*
X104931129Y-72917858D01*
X104931127Y-72917856D01*
X104924807Y-72913794D01*
X104908338Y-72900523D01*
X104907318Y-72899503D01*
X104907309Y-72899496D01*
X104862613Y-72873691D01*
X104858589Y-72871239D01*
X104858587Y-72871238D01*
X104838174Y-72858119D01*
X104810054Y-72840047D01*
X104809770Y-72839964D01*
X104799408Y-72835528D01*
X104799176Y-72836089D01*
X104793187Y-72833608D01*
X104736421Y-72818398D01*
X104734153Y-72817761D01*
X104671964Y-72799500D01*
X104671961Y-72799500D01*
X104665892Y-72799500D01*
X103458011Y-72799500D01*
X103399820Y-72780593D01*
X103363856Y-72731093D01*
X103363856Y-72669907D01*
X103388007Y-72630496D01*
X103462909Y-72555593D01*
X103462912Y-72555589D01*
X103566875Y-72400001D01*
X103566881Y-72399989D01*
X103638491Y-72227106D01*
X103638491Y-72227104D01*
X103674999Y-72043569D01*
X103675000Y-72043565D01*
X103675000Y-71850001D01*
X103674999Y-71850000D01*
X103075000Y-71850000D01*
X103075000Y-71550000D01*
X103674999Y-71550000D01*
X103675000Y-71549999D01*
X103675000Y-71356434D01*
X103674999Y-71356430D01*
X103638491Y-71172895D01*
X103638491Y-71172893D01*
X103566881Y-71000010D01*
X103566875Y-70999998D01*
X103462912Y-70844410D01*
X103462909Y-70844406D01*
X103330593Y-70712090D01*
X103330589Y-70712087D01*
X103284536Y-70681315D01*
X103246657Y-70633265D01*
X103244255Y-70572127D01*
X103278248Y-70521253D01*
X103335652Y-70500076D01*
X103339538Y-70500000D01*
X123987808Y-70500000D01*
X124025694Y-70507536D01*
X124166134Y-70565708D01*
X124176136Y-70570525D01*
X124431354Y-70711578D01*
X124440755Y-70717485D01*
X124678575Y-70886228D01*
X124687254Y-70893149D01*
X124717388Y-70920078D01*
X124904697Y-71087467D01*
X124912532Y-71095302D01*
X125006053Y-71199952D01*
X125106850Y-71312745D01*
X125113771Y-71321424D01*
X125282514Y-71559244D01*
X125288421Y-71568645D01*
X125429474Y-71823863D01*
X125434291Y-71833865D01*
X125440975Y-71850001D01*
X125492464Y-71974306D01*
X125500000Y-72012190D01*
X125500000Y-118987808D01*
X125492464Y-119025694D01*
X125434291Y-119166134D01*
X125429474Y-119176136D01*
X125288421Y-119431354D01*
X125282514Y-119440755D01*
X125113771Y-119678575D01*
X125106850Y-119687254D01*
X124912540Y-119904689D01*
X124904689Y-119912540D01*
X124687254Y-120106850D01*
X124678575Y-120113771D01*
X124440755Y-120282514D01*
X124431354Y-120288421D01*
X124176136Y-120429474D01*
X124166134Y-120434291D01*
X124025694Y-120492464D01*
X123987808Y-120500000D01*
X76012192Y-120500000D01*
X75974306Y-120492464D01*
X75833865Y-120434291D01*
X75823863Y-120429474D01*
X75568645Y-120288421D01*
X75559244Y-120282514D01*
X75321424Y-120113771D01*
X75312745Y-120106850D01*
X75211695Y-120016547D01*
X75095302Y-119912532D01*
X75087467Y-119904697D01*
X74969745Y-119772966D01*
X74893149Y-119687254D01*
X74886228Y-119678575D01*
X74717485Y-119440755D01*
X74711578Y-119431354D01*
X74570525Y-119176136D01*
X74565708Y-119166134D01*
X74507536Y-119025694D01*
X74500000Y-118987808D01*
X74500000Y-117330000D01*
X74728973Y-117330000D01*
X74734738Y-117392216D01*
X74793064Y-117597210D01*
X74888057Y-117787983D01*
X74888062Y-117787992D01*
X75016496Y-117958064D01*
X75016506Y-117958075D01*
X75173995Y-118101647D01*
X75173994Y-118101647D01*
X75355206Y-118213847D01*
X75553941Y-118290838D01*
X75719999Y-118321880D01*
X75720000Y-118321880D01*
X75720000Y-117657445D01*
X75804174Y-117680000D01*
X75935826Y-117680000D01*
X76020000Y-117657445D01*
X76020000Y-118321880D01*
X76186058Y-118290838D01*
X76384793Y-118213847D01*
X76566004Y-118101647D01*
X76723493Y-117958075D01*
X76723503Y-117958064D01*
X76851937Y-117787992D01*
X76851942Y-117787983D01*
X76946935Y-117597210D01*
X77005261Y-117392216D01*
X77011027Y-117330000D01*
X77268973Y-117330000D01*
X77274738Y-117392216D01*
X77333064Y-117597210D01*
X77428057Y-117787983D01*
X77428062Y-117787992D01*
X77556496Y-117958064D01*
X77556506Y-117958075D01*
X77713995Y-118101647D01*
X77713994Y-118101647D01*
X77895206Y-118213847D01*
X78093941Y-118290838D01*
X78259999Y-118321880D01*
X78260000Y-118321880D01*
X78260000Y-117657445D01*
X78344174Y-117680000D01*
X78475826Y-117680000D01*
X78560000Y-117657445D01*
X78560000Y-118321880D01*
X78726058Y-118290838D01*
X78924793Y-118213847D01*
X79106004Y-118101647D01*
X79263493Y-117958075D01*
X79263503Y-117958064D01*
X79391937Y-117787992D01*
X79391942Y-117787983D01*
X79486935Y-117597210D01*
X79545261Y-117392216D01*
X79550651Y-117334060D01*
X83679500Y-117334060D01*
X83719717Y-117639536D01*
X83719717Y-117639541D01*
X83799464Y-117937163D01*
X83917375Y-118221825D01*
X84071440Y-118488673D01*
X84259003Y-118733110D01*
X84259005Y-118733112D01*
X84259009Y-118733117D01*
X84476883Y-118950991D01*
X84476887Y-118950994D01*
X84476889Y-118950996D01*
X84721326Y-119138559D01*
X84721330Y-119138562D01*
X84988170Y-119292622D01*
X84988171Y-119292622D01*
X84988174Y-119292624D01*
X85272836Y-119410535D01*
X85570456Y-119490282D01*
X85875940Y-119530500D01*
X85875941Y-119530500D01*
X86184059Y-119530500D01*
X86184060Y-119530500D01*
X86489544Y-119490282D01*
X86787164Y-119410535D01*
X87071830Y-119292622D01*
X87338670Y-119138562D01*
X87583117Y-118950991D01*
X87800991Y-118733117D01*
X87988562Y-118488670D01*
X88142622Y-118221830D01*
X88260535Y-117937164D01*
X88340282Y-117639544D01*
X88380500Y-117334060D01*
X111619500Y-117334060D01*
X111659717Y-117639536D01*
X111659717Y-117639541D01*
X111739464Y-117937163D01*
X111857375Y-118221825D01*
X112011440Y-118488673D01*
X112199003Y-118733110D01*
X112199005Y-118733112D01*
X112199009Y-118733117D01*
X112416883Y-118950991D01*
X112416887Y-118950994D01*
X112416889Y-118950996D01*
X112661326Y-119138559D01*
X112661330Y-119138562D01*
X112928170Y-119292622D01*
X112928171Y-119292622D01*
X112928174Y-119292624D01*
X113212836Y-119410535D01*
X113510456Y-119490282D01*
X113815940Y-119530500D01*
X113815941Y-119530500D01*
X114124059Y-119530500D01*
X114124060Y-119530500D01*
X114429544Y-119490282D01*
X114727164Y-119410535D01*
X115011830Y-119292622D01*
X115278670Y-119138562D01*
X115523117Y-118950991D01*
X115740991Y-118733117D01*
X115928562Y-118488670D01*
X116082622Y-118221830D01*
X116200535Y-117937164D01*
X116280282Y-117639544D01*
X116320500Y-117334060D01*
X116320500Y-117330000D01*
X120448973Y-117330000D01*
X120454738Y-117392216D01*
X120513064Y-117597210D01*
X120608057Y-117787983D01*
X120608062Y-117787992D01*
X120736496Y-117958064D01*
X120736506Y-117958075D01*
X120893995Y-118101647D01*
X120893994Y-118101647D01*
X121075206Y-118213847D01*
X121273941Y-118290838D01*
X121439999Y-118321880D01*
X121440000Y-118321880D01*
X121440000Y-117657445D01*
X121524174Y-117680000D01*
X121655826Y-117680000D01*
X121740000Y-117657445D01*
X121740000Y-118321880D01*
X121906058Y-118290838D01*
X122104793Y-118213847D01*
X122286004Y-118101647D01*
X122443493Y-117958075D01*
X122443503Y-117958064D01*
X122571937Y-117787992D01*
X122571942Y-117787983D01*
X122666935Y-117597210D01*
X122725261Y-117392216D01*
X122731027Y-117330000D01*
X122988973Y-117330000D01*
X122994738Y-117392216D01*
X123053064Y-117597210D01*
X123148057Y-117787983D01*
X123148062Y-117787992D01*
X123276496Y-117958064D01*
X123276506Y-117958075D01*
X123433995Y-118101647D01*
X123433994Y-118101647D01*
X123615206Y-118213847D01*
X123813941Y-118290838D01*
X123979999Y-118321880D01*
X123980000Y-118321880D01*
X123980000Y-117657445D01*
X124064174Y-117680000D01*
X124195826Y-117680000D01*
X124280000Y-117657445D01*
X124280000Y-118321880D01*
X124446058Y-118290838D01*
X124644793Y-118213847D01*
X124826004Y-118101647D01*
X124983493Y-117958075D01*
X124983503Y-117958064D01*
X125111937Y-117787992D01*
X125111942Y-117787983D01*
X125206935Y-117597210D01*
X125265261Y-117392216D01*
X125271027Y-117330000D01*
X124607445Y-117330000D01*
X124630000Y-117245826D01*
X124630000Y-117114174D01*
X124607445Y-117030000D01*
X125271026Y-117030000D01*
X125265261Y-116967783D01*
X125206935Y-116762789D01*
X125111942Y-116572016D01*
X125111937Y-116572007D01*
X124983503Y-116401935D01*
X124983493Y-116401924D01*
X124826004Y-116258352D01*
X124826005Y-116258352D01*
X124644793Y-116146152D01*
X124446061Y-116069162D01*
X124446055Y-116069160D01*
X124280000Y-116038118D01*
X124280000Y-116702554D01*
X124195826Y-116680000D01*
X124064174Y-116680000D01*
X123980000Y-116702554D01*
X123980000Y-116038119D01*
X123979999Y-116038118D01*
X123813944Y-116069160D01*
X123813938Y-116069162D01*
X123615206Y-116146152D01*
X123433995Y-116258352D01*
X123276506Y-116401924D01*
X123276496Y-116401935D01*
X123148062Y-116572007D01*
X123148057Y-116572016D01*
X123053064Y-116762789D01*
X122994738Y-116967783D01*
X122988973Y-117030000D01*
X123652555Y-117030000D01*
X123630000Y-117114174D01*
X123630000Y-117245826D01*
X123652555Y-117330000D01*
X122988973Y-117330000D01*
X122731027Y-117330000D01*
X122067445Y-117330000D01*
X122090000Y-117245826D01*
X122090000Y-117114174D01*
X122067445Y-117030000D01*
X122731026Y-117030000D01*
X122725261Y-116967783D01*
X122666935Y-116762789D01*
X122571942Y-116572016D01*
X122571937Y-116572007D01*
X122443503Y-116401935D01*
X122443493Y-116401924D01*
X122286004Y-116258352D01*
X122286005Y-116258352D01*
X122104793Y-116146152D01*
X121906061Y-116069162D01*
X121906055Y-116069160D01*
X121740000Y-116038118D01*
X121740000Y-116702554D01*
X121655826Y-116680000D01*
X121524174Y-116680000D01*
X121440000Y-116702554D01*
X121440000Y-116038119D01*
X121439999Y-116038118D01*
X121273944Y-116069160D01*
X121273938Y-116069162D01*
X121075206Y-116146152D01*
X120893995Y-116258352D01*
X120736506Y-116401924D01*
X120736496Y-116401935D01*
X120608062Y-116572007D01*
X120608057Y-116572016D01*
X120513064Y-116762789D01*
X120454738Y-116967783D01*
X120448973Y-117030000D01*
X121112555Y-117030000D01*
X121090000Y-117114174D01*
X121090000Y-117245826D01*
X121112555Y-117330000D01*
X120448973Y-117330000D01*
X116320500Y-117330000D01*
X116320500Y-117025940D01*
X116280282Y-116720456D01*
X116200535Y-116422836D01*
X116082624Y-116138174D01*
X116042779Y-116069160D01*
X115928562Y-115871330D01*
X115836105Y-115750838D01*
X115740996Y-115626889D01*
X115740994Y-115626887D01*
X115740991Y-115626883D01*
X115523117Y-115409009D01*
X115523112Y-115409005D01*
X115523110Y-115409003D01*
X115278673Y-115221440D01*
X115011825Y-115067375D01*
X114727163Y-114949464D01*
X114523881Y-114894995D01*
X114429544Y-114869718D01*
X114429541Y-114869717D01*
X114429539Y-114869717D01*
X114124060Y-114829500D01*
X113815940Y-114829500D01*
X113815939Y-114829500D01*
X113510463Y-114869717D01*
X113510458Y-114869717D01*
X113212836Y-114949464D01*
X112928174Y-115067375D01*
X112661326Y-115221440D01*
X112416889Y-115409003D01*
X112199003Y-115626889D01*
X112011440Y-115871326D01*
X111857375Y-116138174D01*
X111739464Y-116422836D01*
X111659717Y-116720458D01*
X111659717Y-116720463D01*
X111619500Y-117025939D01*
X111619500Y-117334060D01*
X88380500Y-117334060D01*
X88380500Y-117025940D01*
X88340282Y-116720456D01*
X88260535Y-116422836D01*
X88142624Y-116138174D01*
X88102779Y-116069160D01*
X87988562Y-115871330D01*
X87896105Y-115750838D01*
X87800996Y-115626889D01*
X87800994Y-115626887D01*
X87800991Y-115626883D01*
X87583117Y-115409009D01*
X87583112Y-115409005D01*
X87583110Y-115409003D01*
X87338673Y-115221440D01*
X87071825Y-115067375D01*
X86787163Y-114949464D01*
X86583881Y-114894995D01*
X86489544Y-114869718D01*
X86489541Y-114869717D01*
X86489539Y-114869717D01*
X86184060Y-114829500D01*
X85875940Y-114829500D01*
X85875939Y-114829500D01*
X85570463Y-114869717D01*
X85570458Y-114869717D01*
X85272836Y-114949464D01*
X84988174Y-115067375D01*
X84721326Y-115221440D01*
X84476889Y-115409003D01*
X84259003Y-115626889D01*
X84071440Y-115871326D01*
X83917375Y-116138174D01*
X83799464Y-116422836D01*
X83719717Y-116720458D01*
X83719717Y-116720463D01*
X83679500Y-117025939D01*
X83679500Y-117334060D01*
X79550651Y-117334060D01*
X79551027Y-117330000D01*
X78887445Y-117330000D01*
X78910000Y-117245826D01*
X78910000Y-117114174D01*
X78887445Y-117030000D01*
X79551026Y-117030000D01*
X79545261Y-116967783D01*
X79486935Y-116762789D01*
X79391942Y-116572016D01*
X79391937Y-116572007D01*
X79263503Y-116401935D01*
X79263493Y-116401924D01*
X79106004Y-116258352D01*
X79106005Y-116258352D01*
X78924793Y-116146152D01*
X78726061Y-116069162D01*
X78726055Y-116069160D01*
X78560000Y-116038118D01*
X78560000Y-116702554D01*
X78475826Y-116680000D01*
X78344174Y-116680000D01*
X78260000Y-116702554D01*
X78260000Y-116038119D01*
X78259999Y-116038118D01*
X78093944Y-116069160D01*
X78093938Y-116069162D01*
X77895206Y-116146152D01*
X77713995Y-116258352D01*
X77556506Y-116401924D01*
X77556496Y-116401935D01*
X77428062Y-116572007D01*
X77428057Y-116572016D01*
X77333064Y-116762789D01*
X77274738Y-116967783D01*
X77268973Y-117030000D01*
X77932555Y-117030000D01*
X77910000Y-117114174D01*
X77910000Y-117245826D01*
X77932555Y-117330000D01*
X77268973Y-117330000D01*
X77011027Y-117330000D01*
X76347445Y-117330000D01*
X76370000Y-117245826D01*
X76370000Y-117114174D01*
X76347445Y-117030000D01*
X77011026Y-117030000D01*
X77005261Y-116967783D01*
X76946935Y-116762789D01*
X76851942Y-116572016D01*
X76851937Y-116572007D01*
X76723503Y-116401935D01*
X76723493Y-116401924D01*
X76566004Y-116258352D01*
X76566005Y-116258352D01*
X76384793Y-116146152D01*
X76186061Y-116069162D01*
X76186055Y-116069160D01*
X76020000Y-116038118D01*
X76020000Y-116702554D01*
X75935826Y-116680000D01*
X75804174Y-116680000D01*
X75720000Y-116702554D01*
X75720000Y-116038119D01*
X75719999Y-116038118D01*
X75553944Y-116069160D01*
X75553938Y-116069162D01*
X75355206Y-116146152D01*
X75173995Y-116258352D01*
X75016506Y-116401924D01*
X75016496Y-116401935D01*
X74888062Y-116572007D01*
X74888057Y-116572016D01*
X74793064Y-116762789D01*
X74734738Y-116967783D01*
X74728973Y-117030000D01*
X75392555Y-117030000D01*
X75370000Y-117114174D01*
X75370000Y-117245826D01*
X75392555Y-117330000D01*
X74728973Y-117330000D01*
X74500000Y-117330000D01*
X74500000Y-114790000D01*
X74728973Y-114790000D01*
X74734738Y-114852216D01*
X74793064Y-115057210D01*
X74888057Y-115247983D01*
X74888062Y-115247992D01*
X75016496Y-115418064D01*
X75016506Y-115418075D01*
X75173995Y-115561647D01*
X75173994Y-115561647D01*
X75355206Y-115673847D01*
X75553941Y-115750838D01*
X75719999Y-115781880D01*
X75720000Y-115781880D01*
X75720000Y-115117445D01*
X75804174Y-115140000D01*
X75935826Y-115140000D01*
X76020000Y-115117445D01*
X76020000Y-115781880D01*
X76186058Y-115750838D01*
X76384793Y-115673847D01*
X76566004Y-115561647D01*
X76723493Y-115418075D01*
X76723503Y-115418064D01*
X76851937Y-115247992D01*
X76851942Y-115247983D01*
X76946935Y-115057210D01*
X77005261Y-114852216D01*
X77011027Y-114790000D01*
X76347445Y-114790000D01*
X76370000Y-114705826D01*
X76370000Y-114640003D01*
X77354417Y-114640003D01*
X77374698Y-114845929D01*
X77374699Y-114845934D01*
X77434768Y-115043954D01*
X77532316Y-115226452D01*
X77663585Y-115386404D01*
X77663590Y-115386410D01*
X77663595Y-115386414D01*
X77823547Y-115517683D01*
X77823548Y-115517683D01*
X77823550Y-115517685D01*
X78006046Y-115615232D01*
X78143997Y-115657078D01*
X78204065Y-115675300D01*
X78204070Y-115675301D01*
X78409997Y-115695583D01*
X78410000Y-115695583D01*
X78410003Y-115695583D01*
X78615929Y-115675301D01*
X78615934Y-115675300D01*
X78620724Y-115673847D01*
X78813954Y-115615232D01*
X78996450Y-115517685D01*
X79156410Y-115386410D01*
X79287685Y-115226450D01*
X79385232Y-115043954D01*
X79445300Y-114845934D01*
X79445301Y-114845929D01*
X79465583Y-114640003D01*
X120534417Y-114640003D01*
X120554698Y-114845929D01*
X120554699Y-114845934D01*
X120614768Y-115043954D01*
X120712316Y-115226452D01*
X120843585Y-115386404D01*
X120843590Y-115386410D01*
X120843595Y-115386414D01*
X121003547Y-115517683D01*
X121003548Y-115517683D01*
X121003550Y-115517685D01*
X121186046Y-115615232D01*
X121323997Y-115657078D01*
X121384065Y-115675300D01*
X121384070Y-115675301D01*
X121589997Y-115695583D01*
X121590000Y-115695583D01*
X121590003Y-115695583D01*
X121795929Y-115675301D01*
X121795934Y-115675300D01*
X121800724Y-115673847D01*
X121993954Y-115615232D01*
X122176450Y-115517685D01*
X122336410Y-115386410D01*
X122467685Y-115226450D01*
X122565232Y-115043954D01*
X122625300Y-114845934D01*
X122625301Y-114845929D01*
X122630810Y-114790000D01*
X122988973Y-114790000D01*
X122994738Y-114852216D01*
X123053064Y-115057210D01*
X123148057Y-115247983D01*
X123148062Y-115247992D01*
X123276496Y-115418064D01*
X123276506Y-115418075D01*
X123433995Y-115561647D01*
X123433994Y-115561647D01*
X123615206Y-115673847D01*
X123813941Y-115750838D01*
X123979999Y-115781880D01*
X123980000Y-115781880D01*
X123980000Y-115117445D01*
X124064174Y-115140000D01*
X124195826Y-115140000D01*
X124280000Y-115117445D01*
X124280000Y-115781880D01*
X124446058Y-115750838D01*
X124644793Y-115673847D01*
X124826004Y-115561647D01*
X124983493Y-115418075D01*
X124983503Y-115418064D01*
X125111937Y-115247992D01*
X125111942Y-115247983D01*
X125206935Y-115057210D01*
X125265261Y-114852216D01*
X125271027Y-114790000D01*
X124607445Y-114790000D01*
X124630000Y-114705826D01*
X124630000Y-114574174D01*
X124607445Y-114490000D01*
X125271026Y-114490000D01*
X125265261Y-114427783D01*
X125206935Y-114222789D01*
X125111942Y-114032016D01*
X125111937Y-114032007D01*
X124983503Y-113861935D01*
X124983493Y-113861924D01*
X124826004Y-113718352D01*
X124826005Y-113718352D01*
X124644793Y-113606152D01*
X124446061Y-113529162D01*
X124446055Y-113529160D01*
X124280000Y-113498118D01*
X124280000Y-114162554D01*
X124195826Y-114140000D01*
X124064174Y-114140000D01*
X123980000Y-114162554D01*
X123980000Y-113498119D01*
X123979999Y-113498118D01*
X123813944Y-113529160D01*
X123813938Y-113529162D01*
X123615206Y-113606152D01*
X123433995Y-113718352D01*
X123276506Y-113861924D01*
X123276496Y-113861935D01*
X123148062Y-114032007D01*
X123148057Y-114032016D01*
X123053064Y-114222789D01*
X122994738Y-114427783D01*
X122988973Y-114490000D01*
X123652555Y-114490000D01*
X123630000Y-114574174D01*
X123630000Y-114705826D01*
X123652555Y-114790000D01*
X122988973Y-114790000D01*
X122630810Y-114790000D01*
X122645583Y-114640003D01*
X122645583Y-114639996D01*
X122625301Y-114434070D01*
X122625300Y-114434065D01*
X122566401Y-114239901D01*
X122565232Y-114236046D01*
X122467685Y-114053550D01*
X122450005Y-114032007D01*
X122336414Y-113893595D01*
X122336410Y-113893590D01*
X122297825Y-113861924D01*
X122176452Y-113762316D01*
X121993954Y-113664768D01*
X121795934Y-113604699D01*
X121795929Y-113604698D01*
X121590003Y-113584417D01*
X121589997Y-113584417D01*
X121384070Y-113604698D01*
X121384065Y-113604699D01*
X121186045Y-113664768D01*
X121003547Y-113762316D01*
X120843595Y-113893585D01*
X120843585Y-113893595D01*
X120712316Y-114053547D01*
X120614768Y-114236045D01*
X120554699Y-114434065D01*
X120554698Y-114434070D01*
X120534417Y-114639996D01*
X120534417Y-114640003D01*
X79465583Y-114640003D01*
X79465583Y-114639996D01*
X79445301Y-114434070D01*
X79445300Y-114434065D01*
X79386401Y-114239901D01*
X79385232Y-114236046D01*
X79287685Y-114053550D01*
X79270005Y-114032007D01*
X79156414Y-113893595D01*
X79156410Y-113893590D01*
X79117825Y-113861924D01*
X78996452Y-113762316D01*
X78813954Y-113664768D01*
X78615934Y-113604699D01*
X78615929Y-113604698D01*
X78410003Y-113584417D01*
X78409997Y-113584417D01*
X78204070Y-113604698D01*
X78204065Y-113604699D01*
X78006045Y-113664768D01*
X77823547Y-113762316D01*
X77663595Y-113893585D01*
X77663585Y-113893595D01*
X77532316Y-114053547D01*
X77434768Y-114236045D01*
X77374699Y-114434065D01*
X77374698Y-114434070D01*
X77354417Y-114639996D01*
X77354417Y-114640003D01*
X76370000Y-114640003D01*
X76370000Y-114574174D01*
X76347445Y-114490000D01*
X77011026Y-114490000D01*
X77005261Y-114427783D01*
X76946935Y-114222789D01*
X76851942Y-114032016D01*
X76851937Y-114032007D01*
X76723503Y-113861935D01*
X76723493Y-113861924D01*
X76566004Y-113718352D01*
X76566005Y-113718352D01*
X76384793Y-113606152D01*
X76186061Y-113529162D01*
X76186055Y-113529160D01*
X76020000Y-113498118D01*
X76020000Y-114162554D01*
X75935826Y-114140000D01*
X75804174Y-114140000D01*
X75720000Y-114162554D01*
X75720000Y-113498119D01*
X75719999Y-113498118D01*
X75553944Y-113529160D01*
X75553938Y-113529162D01*
X75355206Y-113606152D01*
X75173995Y-113718352D01*
X75016506Y-113861924D01*
X75016496Y-113861935D01*
X74888062Y-114032007D01*
X74888057Y-114032016D01*
X74793064Y-114222789D01*
X74734738Y-114427783D01*
X74728973Y-114490000D01*
X75392555Y-114490000D01*
X75370000Y-114574174D01*
X75370000Y-114705826D01*
X75392555Y-114790000D01*
X74728973Y-114790000D01*
X74500000Y-114790000D01*
X74500000Y-112250000D01*
X74728973Y-112250000D01*
X74734738Y-112312216D01*
X74793064Y-112517210D01*
X74888057Y-112707983D01*
X74888062Y-112707992D01*
X75016496Y-112878064D01*
X75016506Y-112878075D01*
X75173995Y-113021647D01*
X75173994Y-113021647D01*
X75355206Y-113133847D01*
X75553941Y-113210838D01*
X75719999Y-113241880D01*
X75720000Y-113241880D01*
X75720000Y-112577445D01*
X75804174Y-112600000D01*
X75935826Y-112600000D01*
X76020000Y-112577445D01*
X76020000Y-113241880D01*
X76186058Y-113210838D01*
X76384793Y-113133847D01*
X76566004Y-113021647D01*
X76723493Y-112878075D01*
X76723503Y-112878064D01*
X76851937Y-112707992D01*
X76851942Y-112707983D01*
X76946935Y-112517210D01*
X77005261Y-112312216D01*
X77011027Y-112250000D01*
X76347445Y-112250000D01*
X76370000Y-112165826D01*
X76370000Y-112100003D01*
X77354417Y-112100003D01*
X77374698Y-112305929D01*
X77374699Y-112305934D01*
X77434768Y-112503954D01*
X77532316Y-112686452D01*
X77565287Y-112726627D01*
X77663590Y-112846410D01*
X77663595Y-112846414D01*
X77823547Y-112977683D01*
X77823548Y-112977683D01*
X77823550Y-112977685D01*
X78006046Y-113075232D01*
X78143997Y-113117078D01*
X78204065Y-113135300D01*
X78204070Y-113135301D01*
X78409997Y-113155583D01*
X78410000Y-113155583D01*
X78410003Y-113155583D01*
X78615929Y-113135301D01*
X78615934Y-113135300D01*
X78623104Y-113133125D01*
X78813954Y-113075232D01*
X78996450Y-112977685D01*
X79156410Y-112846410D01*
X79287685Y-112686450D01*
X79385232Y-112503954D01*
X79445300Y-112305934D01*
X79445301Y-112305929D01*
X79465583Y-112100003D01*
X79465583Y-112099996D01*
X79445301Y-111894070D01*
X79445300Y-111894065D01*
X79386401Y-111699901D01*
X79385232Y-111696046D01*
X79287685Y-111513550D01*
X79276975Y-111500500D01*
X79156414Y-111353595D01*
X79156410Y-111353590D01*
X79058665Y-111273373D01*
X78996452Y-111222316D01*
X78813954Y-111124768D01*
X78615934Y-111064699D01*
X78615929Y-111064698D01*
X78410003Y-111044417D01*
X78409997Y-111044417D01*
X78204070Y-111064698D01*
X78204065Y-111064699D01*
X78006045Y-111124768D01*
X77823547Y-111222316D01*
X77663595Y-111353585D01*
X77663585Y-111353595D01*
X77532316Y-111513547D01*
X77434768Y-111696045D01*
X77374699Y-111894065D01*
X77374698Y-111894070D01*
X77354417Y-112099996D01*
X77354417Y-112100003D01*
X76370000Y-112100003D01*
X76370000Y-112034174D01*
X76347445Y-111950000D01*
X77011026Y-111950000D01*
X77005261Y-111887783D01*
X76946935Y-111682789D01*
X76851942Y-111492016D01*
X76851937Y-111492007D01*
X76723503Y-111321935D01*
X76723493Y-111321924D01*
X76566004Y-111178352D01*
X76566005Y-111178352D01*
X76384793Y-111066152D01*
X76186061Y-110989162D01*
X76186055Y-110989160D01*
X76020000Y-110958118D01*
X76020000Y-111622554D01*
X75935826Y-111600000D01*
X75804174Y-111600000D01*
X75720000Y-111622554D01*
X75720000Y-110958119D01*
X75719999Y-110958118D01*
X75553944Y-110989160D01*
X75553938Y-110989162D01*
X75355206Y-111066152D01*
X75173995Y-111178352D01*
X75016506Y-111321924D01*
X75016496Y-111321935D01*
X74888062Y-111492007D01*
X74888057Y-111492016D01*
X74793064Y-111682789D01*
X74734738Y-111887783D01*
X74728973Y-111950000D01*
X75392555Y-111950000D01*
X75370000Y-112034174D01*
X75370000Y-112165826D01*
X75392555Y-112250000D01*
X74728973Y-112250000D01*
X74500000Y-112250000D01*
X74500000Y-109710000D01*
X74728973Y-109710000D01*
X74734738Y-109772216D01*
X74793064Y-109977210D01*
X74888057Y-110167983D01*
X74888062Y-110167992D01*
X75016496Y-110338064D01*
X75016506Y-110338075D01*
X75173995Y-110481647D01*
X75173994Y-110481647D01*
X75355206Y-110593847D01*
X75553941Y-110670838D01*
X75719999Y-110701880D01*
X75720000Y-110701880D01*
X75720000Y-110037445D01*
X75804174Y-110060000D01*
X75935826Y-110060000D01*
X76020000Y-110037445D01*
X76020000Y-110701880D01*
X76186058Y-110670838D01*
X76384793Y-110593847D01*
X76566004Y-110481647D01*
X76723493Y-110338075D01*
X76723503Y-110338064D01*
X76851937Y-110167992D01*
X76851942Y-110167983D01*
X76946935Y-109977210D01*
X77005261Y-109772216D01*
X77011027Y-109710000D01*
X76347445Y-109710000D01*
X76370000Y-109625826D01*
X76370000Y-109560003D01*
X77354417Y-109560003D01*
X77374698Y-109765929D01*
X77374699Y-109765934D01*
X77434768Y-109963954D01*
X77532316Y-110146452D01*
X77663585Y-110306404D01*
X77663590Y-110306410D01*
X77663595Y-110306414D01*
X77823547Y-110437683D01*
X77823548Y-110437683D01*
X77823550Y-110437685D01*
X78006046Y-110535232D01*
X78100774Y-110563967D01*
X78204065Y-110595300D01*
X78204070Y-110595301D01*
X78409997Y-110615583D01*
X78410000Y-110615583D01*
X78410003Y-110615583D01*
X78615929Y-110595301D01*
X78615934Y-110595300D01*
X78645801Y-110586240D01*
X78813954Y-110535232D01*
X78996450Y-110437685D01*
X79156410Y-110306410D01*
X79287685Y-110146450D01*
X79385232Y-109963954D01*
X79445300Y-109765934D01*
X79445301Y-109765929D01*
X79465583Y-109560003D01*
X79465583Y-109559996D01*
X79445301Y-109354070D01*
X79445300Y-109354065D01*
X79386401Y-109159901D01*
X79385232Y-109156046D01*
X79287685Y-108973550D01*
X79276526Y-108959953D01*
X79156414Y-108813595D01*
X79156410Y-108813590D01*
X79151632Y-108809669D01*
X78996452Y-108682316D01*
X78813954Y-108584768D01*
X78615934Y-108524699D01*
X78615929Y-108524698D01*
X78410003Y-108504417D01*
X78409997Y-108504417D01*
X78204070Y-108524698D01*
X78204065Y-108524699D01*
X78006045Y-108584768D01*
X77823547Y-108682316D01*
X77663595Y-108813585D01*
X77663585Y-108813595D01*
X77532316Y-108973547D01*
X77434768Y-109156045D01*
X77374699Y-109354065D01*
X77374698Y-109354070D01*
X77354417Y-109559996D01*
X77354417Y-109560003D01*
X76370000Y-109560003D01*
X76370000Y-109494174D01*
X76347445Y-109410000D01*
X77011026Y-109410000D01*
X77005261Y-109347783D01*
X76946935Y-109142789D01*
X76851942Y-108952016D01*
X76851937Y-108952007D01*
X76723503Y-108781935D01*
X76723493Y-108781924D01*
X76566004Y-108638352D01*
X76566005Y-108638352D01*
X76384793Y-108526152D01*
X76186061Y-108449162D01*
X76186055Y-108449160D01*
X76020000Y-108418118D01*
X76020000Y-109082554D01*
X75935826Y-109060000D01*
X75804174Y-109060000D01*
X75720000Y-109082554D01*
X75720000Y-108418119D01*
X75719999Y-108418118D01*
X75553944Y-108449160D01*
X75553938Y-108449162D01*
X75355206Y-108526152D01*
X75173995Y-108638352D01*
X75016506Y-108781924D01*
X75016496Y-108781935D01*
X74888062Y-108952007D01*
X74888057Y-108952016D01*
X74793064Y-109142789D01*
X74734738Y-109347783D01*
X74728973Y-109410000D01*
X75392555Y-109410000D01*
X75370000Y-109494174D01*
X75370000Y-109625826D01*
X75392555Y-109710000D01*
X74728973Y-109710000D01*
X74500000Y-109710000D01*
X74500000Y-107170000D01*
X74728973Y-107170000D01*
X74734738Y-107232216D01*
X74793064Y-107437210D01*
X74888057Y-107627983D01*
X74888062Y-107627992D01*
X75016496Y-107798064D01*
X75016506Y-107798075D01*
X75173995Y-107941647D01*
X75173994Y-107941647D01*
X75355206Y-108053847D01*
X75553941Y-108130838D01*
X75719999Y-108161880D01*
X75720000Y-108161880D01*
X75720000Y-107497445D01*
X75804174Y-107520000D01*
X75935826Y-107520000D01*
X76020000Y-107497445D01*
X76020000Y-108161880D01*
X76186058Y-108130838D01*
X76384793Y-108053847D01*
X76566004Y-107941647D01*
X76723493Y-107798075D01*
X76723503Y-107798064D01*
X76851937Y-107627992D01*
X76851942Y-107627983D01*
X76946935Y-107437210D01*
X77005261Y-107232216D01*
X77011027Y-107170000D01*
X76347445Y-107170000D01*
X76370000Y-107085826D01*
X76370000Y-107020003D01*
X77354417Y-107020003D01*
X77374698Y-107225929D01*
X77374699Y-107225934D01*
X77434768Y-107423954D01*
X77532316Y-107606452D01*
X77663585Y-107766404D01*
X77663590Y-107766410D01*
X77692838Y-107790413D01*
X77823547Y-107897683D01*
X77823548Y-107897683D01*
X77823550Y-107897685D01*
X78006046Y-107995232D01*
X78143997Y-108037078D01*
X78204065Y-108055300D01*
X78204070Y-108055301D01*
X78409997Y-108075583D01*
X78410000Y-108075583D01*
X78410003Y-108075583D01*
X78615929Y-108055301D01*
X78615934Y-108055300D01*
X78625392Y-108052431D01*
X78813954Y-107995232D01*
X78996450Y-107897685D01*
X79156410Y-107766410D01*
X79287685Y-107606450D01*
X79385232Y-107423954D01*
X79445300Y-107225934D01*
X79445301Y-107225929D01*
X79465583Y-107020003D01*
X79465583Y-107019996D01*
X79445301Y-106814070D01*
X79445300Y-106814065D01*
X79414640Y-106712993D01*
X79385232Y-106616046D01*
X79287685Y-106433550D01*
X79270005Y-106412007D01*
X79156414Y-106273595D01*
X79156410Y-106273590D01*
X79117825Y-106241924D01*
X78996452Y-106142316D01*
X78832721Y-106054799D01*
X83224500Y-106054799D01*
X83260807Y-106142455D01*
X83260808Y-106142455D01*
X83260809Y-106142457D01*
X83266443Y-106156058D01*
X85195505Y-108085120D01*
X85223281Y-108139635D01*
X85224500Y-108155122D01*
X85224500Y-113054799D01*
X85256943Y-113133125D01*
X85266441Y-113156055D01*
X85266442Y-113156056D01*
X85266443Y-113156058D01*
X86343942Y-114233558D01*
X86343943Y-114233558D01*
X86343944Y-114233559D01*
X86445198Y-114275500D01*
X86445200Y-114275500D01*
X93554799Y-114275500D01*
X93554800Y-114275500D01*
X93656058Y-114233557D01*
X93733557Y-114156058D01*
X93733556Y-114156058D01*
X93860119Y-114029496D01*
X93914636Y-114001719D01*
X93930122Y-114000500D01*
X94071959Y-114000500D01*
X94071961Y-114000500D01*
X94210053Y-113959953D01*
X94331128Y-113882143D01*
X94425377Y-113773373D01*
X94485165Y-113642457D01*
X94501454Y-113529162D01*
X94505647Y-113500002D01*
X94505647Y-113499997D01*
X94485165Y-113357543D01*
X94446725Y-113273373D01*
X94425377Y-113226627D01*
X94331128Y-113117857D01*
X94331127Y-113117856D01*
X94331126Y-113117855D01*
X94210057Y-113040049D01*
X94210054Y-113040047D01*
X94210053Y-113040047D01*
X94210050Y-113040046D01*
X94071964Y-112999500D01*
X94071961Y-112999500D01*
X93928039Y-112999500D01*
X93928035Y-112999500D01*
X93789949Y-113040046D01*
X93789942Y-113040049D01*
X93668873Y-113117855D01*
X93574622Y-113226628D01*
X93514834Y-113357543D01*
X93494353Y-113499996D01*
X93494353Y-113499997D01*
X93494353Y-113500000D01*
X93498546Y-113529162D01*
X93501886Y-113552395D01*
X93491451Y-113612684D01*
X93473898Y-113636485D01*
X93414883Y-113695502D01*
X93360367Y-113723281D01*
X93344878Y-113724500D01*
X86655124Y-113724500D01*
X86596933Y-113705593D01*
X86585120Y-113695504D01*
X85804496Y-112914880D01*
X85776719Y-112860363D01*
X85775500Y-112844876D01*
X85775500Y-108146586D01*
X85794407Y-108088395D01*
X85843907Y-108052431D01*
X85905093Y-108052431D01*
X85944503Y-108076581D01*
X91101478Y-113233557D01*
X91131132Y-113245839D01*
X91131134Y-113245841D01*
X91131135Y-113245841D01*
X91166936Y-113260670D01*
X91202737Y-113275500D01*
X92031254Y-113275500D01*
X92089445Y-113294407D01*
X92106071Y-113309666D01*
X92147556Y-113357543D01*
X92168873Y-113382144D01*
X92289942Y-113459950D01*
X92289947Y-113459953D01*
X92396403Y-113491211D01*
X92428035Y-113500499D01*
X92428036Y-113500499D01*
X92428039Y-113500500D01*
X92428041Y-113500500D01*
X92571959Y-113500500D01*
X92571961Y-113500500D01*
X92710053Y-113459953D01*
X92831128Y-113382143D01*
X92925377Y-113273373D01*
X92985165Y-113142457D01*
X93005647Y-113000000D01*
X93005575Y-112999500D01*
X92985165Y-112857543D01*
X92925377Y-112726628D01*
X92925377Y-112726627D01*
X92831128Y-112617857D01*
X92831127Y-112617856D01*
X92831126Y-112617855D01*
X92710057Y-112540049D01*
X92710054Y-112540047D01*
X92710053Y-112540047D01*
X92710050Y-112540046D01*
X92571964Y-112499500D01*
X92571961Y-112499500D01*
X92428039Y-112499500D01*
X92428035Y-112499500D01*
X92289949Y-112540046D01*
X92289942Y-112540049D01*
X92168873Y-112617855D01*
X92134664Y-112657335D01*
X92106072Y-112690331D01*
X92053678Y-112721927D01*
X92031254Y-112724500D01*
X91412661Y-112724500D01*
X91354470Y-112705593D01*
X91342657Y-112695504D01*
X90747156Y-112100003D01*
X120534417Y-112100003D01*
X120554698Y-112305929D01*
X120554699Y-112305934D01*
X120614768Y-112503954D01*
X120712316Y-112686452D01*
X120745287Y-112726627D01*
X120843590Y-112846410D01*
X120843595Y-112846414D01*
X121003547Y-112977683D01*
X121003548Y-112977683D01*
X121003550Y-112977685D01*
X121186046Y-113075232D01*
X121323997Y-113117078D01*
X121384065Y-113135300D01*
X121384070Y-113135301D01*
X121589997Y-113155583D01*
X121590000Y-113155583D01*
X121590003Y-113155583D01*
X121795929Y-113135301D01*
X121795934Y-113135300D01*
X121803104Y-113133125D01*
X121993954Y-113075232D01*
X122176450Y-112977685D01*
X122336410Y-112846410D01*
X122467685Y-112686450D01*
X122565232Y-112503954D01*
X122625300Y-112305934D01*
X122625301Y-112305929D01*
X122630810Y-112250000D01*
X122988973Y-112250000D01*
X122994738Y-112312216D01*
X123053064Y-112517210D01*
X123148057Y-112707983D01*
X123148062Y-112707992D01*
X123276496Y-112878064D01*
X123276506Y-112878075D01*
X123433995Y-113021647D01*
X123433994Y-113021647D01*
X123615206Y-113133847D01*
X123813941Y-113210838D01*
X123979999Y-113241880D01*
X123980000Y-113241880D01*
X123980000Y-112577445D01*
X124064174Y-112600000D01*
X124195826Y-112600000D01*
X124280000Y-112577445D01*
X124280000Y-113241880D01*
X124446058Y-113210838D01*
X124644793Y-113133847D01*
X124826004Y-113021647D01*
X124983493Y-112878075D01*
X124983503Y-112878064D01*
X125111937Y-112707992D01*
X125111942Y-112707983D01*
X125206935Y-112517210D01*
X125265261Y-112312216D01*
X125271027Y-112250000D01*
X124607445Y-112250000D01*
X124630000Y-112165826D01*
X124630000Y-112034174D01*
X124607445Y-111950000D01*
X125271026Y-111950000D01*
X125265261Y-111887783D01*
X125206935Y-111682789D01*
X125111942Y-111492016D01*
X125111937Y-111492007D01*
X124983503Y-111321935D01*
X124983493Y-111321924D01*
X124826004Y-111178352D01*
X124826005Y-111178352D01*
X124644793Y-111066152D01*
X124446061Y-110989162D01*
X124446055Y-110989160D01*
X124280000Y-110958118D01*
X124280000Y-111622554D01*
X124195826Y-111600000D01*
X124064174Y-111600000D01*
X123980000Y-111622554D01*
X123980000Y-110958119D01*
X123979999Y-110958118D01*
X123813944Y-110989160D01*
X123813938Y-110989162D01*
X123615206Y-111066152D01*
X123433995Y-111178352D01*
X123276506Y-111321924D01*
X123276496Y-111321935D01*
X123148062Y-111492007D01*
X123148057Y-111492016D01*
X123053064Y-111682789D01*
X122994738Y-111887783D01*
X122988973Y-111950000D01*
X123652555Y-111950000D01*
X123630000Y-112034174D01*
X123630000Y-112165826D01*
X123652555Y-112250000D01*
X122988973Y-112250000D01*
X122630810Y-112250000D01*
X122645583Y-112100003D01*
X122645583Y-112099996D01*
X122625301Y-111894070D01*
X122625300Y-111894065D01*
X122566401Y-111699901D01*
X122565232Y-111696046D01*
X122467685Y-111513550D01*
X122456975Y-111500500D01*
X122336414Y-111353595D01*
X122336410Y-111353590D01*
X122238665Y-111273373D01*
X122176452Y-111222316D01*
X121993954Y-111124768D01*
X121795934Y-111064699D01*
X121795929Y-111064698D01*
X121590003Y-111044417D01*
X121589997Y-111044417D01*
X121384070Y-111064698D01*
X121384065Y-111064699D01*
X121186045Y-111124768D01*
X121003547Y-111222316D01*
X120843595Y-111353585D01*
X120843585Y-111353595D01*
X120712316Y-111513547D01*
X120614768Y-111696045D01*
X120554699Y-111894065D01*
X120554698Y-111894070D01*
X120534417Y-112099996D01*
X120534417Y-112100003D01*
X90747156Y-112100003D01*
X89647155Y-111000002D01*
X91494353Y-111000002D01*
X91514834Y-111142456D01*
X91551305Y-111222315D01*
X91574623Y-111273373D01*
X91668872Y-111382143D01*
X91668873Y-111382144D01*
X91789942Y-111459950D01*
X91789947Y-111459953D01*
X91896403Y-111491211D01*
X91928035Y-111500499D01*
X91928036Y-111500499D01*
X91928039Y-111500500D01*
X91928041Y-111500500D01*
X92071959Y-111500500D01*
X92071961Y-111500500D01*
X92210053Y-111459953D01*
X92331128Y-111382143D01*
X92425377Y-111273373D01*
X92485165Y-111142457D01*
X92505647Y-111000000D01*
X92504088Y-110989160D01*
X92485165Y-110857543D01*
X92425377Y-110726628D01*
X92425377Y-110726627D01*
X92331128Y-110617857D01*
X92320975Y-110611332D01*
X92282245Y-110563967D01*
X92275500Y-110528049D01*
X92275500Y-109560003D01*
X120534417Y-109560003D01*
X120554698Y-109765929D01*
X120554699Y-109765934D01*
X120614768Y-109963954D01*
X120712316Y-110146452D01*
X120843585Y-110306404D01*
X120843590Y-110306410D01*
X120843595Y-110306414D01*
X121003547Y-110437683D01*
X121003548Y-110437683D01*
X121003550Y-110437685D01*
X121186046Y-110535232D01*
X121280774Y-110563967D01*
X121384065Y-110595300D01*
X121384070Y-110595301D01*
X121589997Y-110615583D01*
X121590000Y-110615583D01*
X121590003Y-110615583D01*
X121795929Y-110595301D01*
X121795934Y-110595300D01*
X121825801Y-110586240D01*
X121993954Y-110535232D01*
X122176450Y-110437685D01*
X122336410Y-110306410D01*
X122467685Y-110146450D01*
X122565232Y-109963954D01*
X122625300Y-109765934D01*
X122625301Y-109765929D01*
X122630810Y-109710000D01*
X122988973Y-109710000D01*
X122994738Y-109772216D01*
X123053064Y-109977210D01*
X123148057Y-110167983D01*
X123148062Y-110167992D01*
X123276496Y-110338064D01*
X123276506Y-110338075D01*
X123433995Y-110481647D01*
X123433994Y-110481647D01*
X123615206Y-110593847D01*
X123813941Y-110670838D01*
X123979999Y-110701880D01*
X123980000Y-110701880D01*
X123980000Y-110037445D01*
X124064174Y-110060000D01*
X124195826Y-110060000D01*
X124280000Y-110037445D01*
X124280000Y-110701880D01*
X124446058Y-110670838D01*
X124644793Y-110593847D01*
X124826004Y-110481647D01*
X124983493Y-110338075D01*
X124983503Y-110338064D01*
X125111937Y-110167992D01*
X125111942Y-110167983D01*
X125206935Y-109977210D01*
X125265261Y-109772216D01*
X125271027Y-109710000D01*
X124607445Y-109710000D01*
X124630000Y-109625826D01*
X124630000Y-109494174D01*
X124607445Y-109410000D01*
X125271026Y-109410000D01*
X125265261Y-109347783D01*
X125206935Y-109142789D01*
X125111942Y-108952016D01*
X125111937Y-108952007D01*
X124983503Y-108781935D01*
X124983493Y-108781924D01*
X124826004Y-108638352D01*
X124826005Y-108638352D01*
X124644793Y-108526152D01*
X124446061Y-108449162D01*
X124446055Y-108449160D01*
X124280000Y-108418118D01*
X124280000Y-109082554D01*
X124195826Y-109060000D01*
X124064174Y-109060000D01*
X123980000Y-109082554D01*
X123980000Y-108418119D01*
X123979999Y-108418118D01*
X123813944Y-108449160D01*
X123813938Y-108449162D01*
X123615206Y-108526152D01*
X123433995Y-108638352D01*
X123276506Y-108781924D01*
X123276496Y-108781935D01*
X123148062Y-108952007D01*
X123148057Y-108952016D01*
X123053064Y-109142789D01*
X122994738Y-109347783D01*
X122988973Y-109410000D01*
X123652555Y-109410000D01*
X123630000Y-109494174D01*
X123630000Y-109625826D01*
X123652555Y-109710000D01*
X122988973Y-109710000D01*
X122630810Y-109710000D01*
X122645583Y-109560003D01*
X122645583Y-109559996D01*
X122625301Y-109354070D01*
X122625300Y-109354065D01*
X122566401Y-109159901D01*
X122565232Y-109156046D01*
X122467685Y-108973550D01*
X122456526Y-108959953D01*
X122336414Y-108813595D01*
X122336410Y-108813590D01*
X122331632Y-108809669D01*
X122176452Y-108682316D01*
X121993954Y-108584768D01*
X121795934Y-108524699D01*
X121795929Y-108524698D01*
X121590003Y-108504417D01*
X121589997Y-108504417D01*
X121384070Y-108524698D01*
X121384065Y-108524699D01*
X121186045Y-108584768D01*
X121003547Y-108682316D01*
X120843595Y-108813585D01*
X120843585Y-108813595D01*
X120712316Y-108973547D01*
X120614768Y-109156045D01*
X120554699Y-109354065D01*
X120554698Y-109354070D01*
X120534417Y-109559996D01*
X120534417Y-109560003D01*
X92275500Y-109560003D01*
X92275500Y-108897585D01*
X92294407Y-108839394D01*
X92304497Y-108827581D01*
X92493726Y-108638352D01*
X92733558Y-108398521D01*
X92748058Y-108363514D01*
X92775500Y-108297264D01*
X92775500Y-107020003D01*
X120534417Y-107020003D01*
X120554698Y-107225929D01*
X120554699Y-107225934D01*
X120614768Y-107423954D01*
X120712316Y-107606452D01*
X120843585Y-107766404D01*
X120843590Y-107766410D01*
X120872838Y-107790413D01*
X121003547Y-107897683D01*
X121003548Y-107897683D01*
X121003550Y-107897685D01*
X121186046Y-107995232D01*
X121323997Y-108037078D01*
X121384065Y-108055300D01*
X121384070Y-108055301D01*
X121589997Y-108075583D01*
X121590000Y-108075583D01*
X121590003Y-108075583D01*
X121795929Y-108055301D01*
X121795934Y-108055300D01*
X121805392Y-108052431D01*
X121993954Y-107995232D01*
X122176450Y-107897685D01*
X122336410Y-107766410D01*
X122467685Y-107606450D01*
X122565232Y-107423954D01*
X122625300Y-107225934D01*
X122625301Y-107225929D01*
X122630810Y-107170000D01*
X122988973Y-107170000D01*
X122994738Y-107232216D01*
X123053064Y-107437210D01*
X123148057Y-107627983D01*
X123148062Y-107627992D01*
X123276496Y-107798064D01*
X123276506Y-107798075D01*
X123433995Y-107941647D01*
X123433994Y-107941647D01*
X123615206Y-108053847D01*
X123813941Y-108130838D01*
X123979999Y-108161880D01*
X123980000Y-108161880D01*
X123980000Y-107497445D01*
X124064174Y-107520000D01*
X124195826Y-107520000D01*
X124280000Y-107497445D01*
X124280000Y-108161880D01*
X124446058Y-108130838D01*
X124644793Y-108053847D01*
X124826004Y-107941647D01*
X124983493Y-107798075D01*
X124983503Y-107798064D01*
X125111937Y-107627992D01*
X125111942Y-107627983D01*
X125206935Y-107437210D01*
X125265261Y-107232216D01*
X125271027Y-107170000D01*
X124607445Y-107170000D01*
X124630000Y-107085826D01*
X124630000Y-106954174D01*
X124607445Y-106870000D01*
X125271026Y-106870000D01*
X125265261Y-106807783D01*
X125206935Y-106602789D01*
X125111942Y-106412016D01*
X125111937Y-106412007D01*
X124983503Y-106241935D01*
X124983493Y-106241924D01*
X124826004Y-106098352D01*
X124826005Y-106098352D01*
X124644793Y-105986152D01*
X124446061Y-105909162D01*
X124446055Y-105909160D01*
X124280000Y-105878118D01*
X124280000Y-106542554D01*
X124195826Y-106520000D01*
X124064174Y-106520000D01*
X123980000Y-106542554D01*
X123980000Y-105878119D01*
X123979999Y-105878118D01*
X123813944Y-105909160D01*
X123813938Y-105909162D01*
X123615206Y-105986152D01*
X123433995Y-106098352D01*
X123276506Y-106241924D01*
X123276496Y-106241935D01*
X123148062Y-106412007D01*
X123148057Y-106412016D01*
X123053064Y-106602789D01*
X122994738Y-106807783D01*
X122988973Y-106870000D01*
X123652555Y-106870000D01*
X123630000Y-106954174D01*
X123630000Y-107085826D01*
X123652555Y-107170000D01*
X122988973Y-107170000D01*
X122630810Y-107170000D01*
X122645583Y-107020003D01*
X122645583Y-107019996D01*
X122625301Y-106814070D01*
X122625300Y-106814065D01*
X122594640Y-106712993D01*
X122565232Y-106616046D01*
X122467685Y-106433550D01*
X122450005Y-106412007D01*
X122336414Y-106273595D01*
X122336410Y-106273590D01*
X122297825Y-106241924D01*
X122176452Y-106142316D01*
X121993954Y-106044768D01*
X121795934Y-105984699D01*
X121795929Y-105984698D01*
X121590003Y-105964417D01*
X121589997Y-105964417D01*
X121384070Y-105984698D01*
X121384065Y-105984699D01*
X121186045Y-106044768D01*
X121003547Y-106142316D01*
X120843595Y-106273585D01*
X120843585Y-106273595D01*
X120712316Y-106433547D01*
X120614768Y-106616045D01*
X120554699Y-106814065D01*
X120554698Y-106814070D01*
X120534417Y-107019996D01*
X120534417Y-107020003D01*
X92775500Y-107020003D01*
X92775500Y-106971951D01*
X92794407Y-106913760D01*
X92820978Y-106888666D01*
X92822123Y-106887929D01*
X92831128Y-106882143D01*
X92925377Y-106773373D01*
X92985165Y-106642457D01*
X92997872Y-106554075D01*
X93005647Y-106500002D01*
X93005647Y-106499997D01*
X92985165Y-106357543D01*
X92925377Y-106226627D01*
X92831128Y-106117857D01*
X92831127Y-106117856D01*
X92831126Y-106117855D01*
X92710057Y-106040049D01*
X92710054Y-106040047D01*
X92710053Y-106040047D01*
X92710050Y-106040046D01*
X92571964Y-105999500D01*
X92571961Y-105999500D01*
X92428039Y-105999500D01*
X92428035Y-105999500D01*
X92289949Y-106040046D01*
X92289942Y-106040049D01*
X92168873Y-106117855D01*
X92074622Y-106226628D01*
X92014834Y-106357543D01*
X91994353Y-106499997D01*
X91994353Y-106500002D01*
X92014834Y-106642456D01*
X92047048Y-106712993D01*
X92074623Y-106773373D01*
X92168872Y-106882143D01*
X92176963Y-106887343D01*
X92179022Y-106888666D01*
X92217754Y-106936032D01*
X92224500Y-106971951D01*
X92224500Y-108087340D01*
X92205593Y-108145531D01*
X92195509Y-108157337D01*
X91843942Y-108508906D01*
X91843941Y-108508905D01*
X91766446Y-108586401D01*
X91766444Y-108586403D01*
X91766443Y-108586405D01*
X91766443Y-108586406D01*
X91724500Y-108687663D01*
X91724500Y-110528049D01*
X91705593Y-110586240D01*
X91679025Y-110611332D01*
X91668872Y-110617857D01*
X91574622Y-110726628D01*
X91514834Y-110857543D01*
X91494353Y-110999997D01*
X91494353Y-111000002D01*
X89647155Y-111000002D01*
X86805373Y-108158220D01*
X86777596Y-108103703D01*
X86787167Y-108043271D01*
X86830432Y-108000006D01*
X86890864Y-107990435D01*
X86903266Y-107993226D01*
X86928039Y-108000500D01*
X86928041Y-108000500D01*
X87071959Y-108000500D01*
X87071961Y-108000500D01*
X87210053Y-107959953D01*
X87331128Y-107882143D01*
X87425377Y-107773373D01*
X87485165Y-107642457D01*
X87497768Y-107554799D01*
X87505647Y-107500002D01*
X87505647Y-107499997D01*
X87485165Y-107357543D01*
X87479380Y-107344876D01*
X87425377Y-107226627D01*
X87331128Y-107117857D01*
X87331127Y-107117856D01*
X87331126Y-107117855D01*
X87210057Y-107040049D01*
X87210054Y-107040047D01*
X87210053Y-107040047D01*
X87210050Y-107040046D01*
X87071964Y-106999500D01*
X87071961Y-106999500D01*
X86930124Y-106999500D01*
X86871933Y-106980593D01*
X86860120Y-106970504D01*
X85804496Y-105914880D01*
X85776719Y-105860363D01*
X85775500Y-105844876D01*
X85775500Y-104500002D01*
X87494353Y-104500002D01*
X87514834Y-104642456D01*
X87553275Y-104726628D01*
X87574623Y-104773373D01*
X87668872Y-104882143D01*
X87676963Y-104887343D01*
X87679022Y-104888666D01*
X87717754Y-104936032D01*
X87724500Y-104971951D01*
X87724500Y-108054800D01*
X87737058Y-108085118D01*
X87764066Y-108150322D01*
X87764543Y-108151472D01*
X87766443Y-108156058D01*
X88343942Y-108733558D01*
X88343943Y-108733558D01*
X88343944Y-108733559D01*
X88445198Y-108775500D01*
X88445200Y-108775500D01*
X88531254Y-108775500D01*
X88589445Y-108794407D01*
X88606071Y-108809666D01*
X88631830Y-108839394D01*
X88668873Y-108882144D01*
X88789942Y-108959950D01*
X88789947Y-108959953D01*
X88896403Y-108991211D01*
X88928035Y-109000499D01*
X88928036Y-109000499D01*
X88928039Y-109000500D01*
X88928041Y-109000500D01*
X89071959Y-109000500D01*
X89071961Y-109000500D01*
X89210053Y-108959953D01*
X89331128Y-108882143D01*
X89425377Y-108773373D01*
X89485165Y-108642457D01*
X89505647Y-108500000D01*
X89498337Y-108449160D01*
X89485165Y-108357543D01*
X89425377Y-108226628D01*
X89425377Y-108226627D01*
X89331128Y-108117857D01*
X89331127Y-108117856D01*
X89331126Y-108117855D01*
X89210057Y-108040049D01*
X89210054Y-108040047D01*
X89210053Y-108040047D01*
X89210050Y-108040046D01*
X89071964Y-107999500D01*
X89071961Y-107999500D01*
X88928039Y-107999500D01*
X88928035Y-107999500D01*
X88789949Y-108040046D01*
X88789942Y-108040049D01*
X88668871Y-108117856D01*
X88668867Y-108117860D01*
X88663571Y-108123972D01*
X88611172Y-108155563D01*
X88550212Y-108150322D01*
X88518754Y-108129138D01*
X88304496Y-107914880D01*
X88276719Y-107860363D01*
X88275500Y-107844876D01*
X88275500Y-105000002D01*
X88994353Y-105000002D01*
X89014834Y-105142456D01*
X89073515Y-105270946D01*
X89074623Y-105273373D01*
X89168872Y-105382143D01*
X89176963Y-105387343D01*
X89179022Y-105388666D01*
X89217754Y-105436032D01*
X89224500Y-105471951D01*
X89224500Y-107554799D01*
X89256943Y-107633125D01*
X89266441Y-107656056D01*
X89266443Y-107656058D01*
X89973897Y-108363514D01*
X90001674Y-108418030D01*
X90001885Y-108447604D01*
X89994354Y-108499997D01*
X89994353Y-108500003D01*
X90014834Y-108642456D01*
X90033038Y-108682316D01*
X90074623Y-108773373D01*
X90131830Y-108839394D01*
X90168873Y-108882144D01*
X90289942Y-108959950D01*
X90289947Y-108959953D01*
X90396403Y-108991211D01*
X90428035Y-109000499D01*
X90428036Y-109000499D01*
X90428039Y-109000500D01*
X90428041Y-109000500D01*
X90571959Y-109000500D01*
X90571961Y-109000500D01*
X90710053Y-108959953D01*
X90831128Y-108882143D01*
X90925377Y-108773373D01*
X90985165Y-108642457D01*
X91005647Y-108500000D01*
X90998337Y-108449160D01*
X90985165Y-108357543D01*
X90925377Y-108226628D01*
X90925377Y-108226627D01*
X90831128Y-108117857D01*
X90831127Y-108117856D01*
X90831126Y-108117855D01*
X90710057Y-108040049D01*
X90710054Y-108040047D01*
X90710053Y-108040047D01*
X90710050Y-108040046D01*
X90571964Y-107999500D01*
X90571961Y-107999500D01*
X90430124Y-107999500D01*
X90371933Y-107980593D01*
X90360120Y-107970504D01*
X89804496Y-107414880D01*
X89776719Y-107360363D01*
X89775500Y-107344876D01*
X89775500Y-105471951D01*
X89794407Y-105413760D01*
X89820978Y-105388666D01*
X89822123Y-105387929D01*
X89831128Y-105382143D01*
X89925377Y-105273373D01*
X89985165Y-105142457D01*
X90005647Y-105000000D01*
X90002771Y-104980000D01*
X89985165Y-104857543D01*
X89946725Y-104773373D01*
X89925377Y-104726627D01*
X89831128Y-104617857D01*
X89831127Y-104617856D01*
X89831126Y-104617855D01*
X89710057Y-104540049D01*
X89710054Y-104540047D01*
X89710053Y-104540047D01*
X89710050Y-104540046D01*
X89571964Y-104499500D01*
X89571961Y-104499500D01*
X89428039Y-104499500D01*
X89428035Y-104499500D01*
X89289949Y-104540046D01*
X89289942Y-104540049D01*
X89168873Y-104617855D01*
X89074622Y-104726628D01*
X89014834Y-104857543D01*
X88994353Y-104999997D01*
X88994353Y-105000002D01*
X88275500Y-105000002D01*
X88275500Y-104971951D01*
X88294407Y-104913760D01*
X88320978Y-104888666D01*
X88322123Y-104887929D01*
X88331128Y-104882143D01*
X88425377Y-104773373D01*
X88485165Y-104642457D01*
X88505647Y-104500000D01*
X88505575Y-104499500D01*
X88485165Y-104357543D01*
X88452952Y-104287007D01*
X88425377Y-104226627D01*
X88331128Y-104117857D01*
X88331127Y-104117856D01*
X88331126Y-104117855D01*
X88210057Y-104040049D01*
X88210054Y-104040047D01*
X88210053Y-104040047D01*
X88210050Y-104040046D01*
X88071964Y-103999500D01*
X88071961Y-103999500D01*
X87928039Y-103999500D01*
X87928035Y-103999500D01*
X87789949Y-104040046D01*
X87789942Y-104040049D01*
X87668873Y-104117855D01*
X87574622Y-104226628D01*
X87514834Y-104357543D01*
X87494353Y-104499997D01*
X87494353Y-104500002D01*
X85775500Y-104500002D01*
X85775500Y-102100002D01*
X100094323Y-102100002D01*
X100114804Y-102242456D01*
X100114804Y-102242458D01*
X100177534Y-102379815D01*
X100176220Y-102380415D01*
X100189500Y-102425638D01*
X100189500Y-104937273D01*
X100189500Y-105042727D01*
X100213570Y-105132559D01*
X100216794Y-105144592D01*
X100269516Y-105235908D01*
X100269518Y-105235910D01*
X100269520Y-105235913D01*
X100281255Y-105247648D01*
X100309031Y-105302163D01*
X100309242Y-105303561D01*
X100314834Y-105342456D01*
X100374622Y-105473371D01*
X100374623Y-105473373D01*
X100409694Y-105513847D01*
X100468873Y-105582144D01*
X100524441Y-105617855D01*
X100589947Y-105659953D01*
X100696403Y-105691211D01*
X100728035Y-105700499D01*
X100728036Y-105700499D01*
X100728039Y-105700500D01*
X100728041Y-105700500D01*
X100871959Y-105700500D01*
X100871961Y-105700500D01*
X101010053Y-105659953D01*
X101131128Y-105582143D01*
X101225377Y-105473373D01*
X101285165Y-105342457D01*
X101305647Y-105200000D01*
X101285165Y-105057543D01*
X101225377Y-104926627D01*
X101131128Y-104817857D01*
X101083124Y-104787007D01*
X101035976Y-104756706D01*
X100997245Y-104709339D01*
X100990500Y-104673422D01*
X100990500Y-104480003D01*
X120534417Y-104480003D01*
X120554698Y-104685929D01*
X120554699Y-104685934D01*
X120614768Y-104883954D01*
X120712316Y-105066452D01*
X120843585Y-105226404D01*
X120843590Y-105226410D01*
X120843595Y-105226414D01*
X121003547Y-105357683D01*
X121003548Y-105357683D01*
X121003550Y-105357685D01*
X121186046Y-105455232D01*
X121323997Y-105497078D01*
X121384065Y-105515300D01*
X121384070Y-105515301D01*
X121589997Y-105535583D01*
X121590000Y-105535583D01*
X121590003Y-105535583D01*
X121795929Y-105515301D01*
X121795934Y-105515300D01*
X121800724Y-105513847D01*
X121993954Y-105455232D01*
X122176450Y-105357685D01*
X122336410Y-105226410D01*
X122467685Y-105066450D01*
X122565232Y-104883954D01*
X122625300Y-104685934D01*
X122625301Y-104685929D01*
X122630810Y-104630000D01*
X122988973Y-104630000D01*
X122994738Y-104692216D01*
X123053064Y-104897210D01*
X123148057Y-105087983D01*
X123148062Y-105087992D01*
X123276496Y-105258064D01*
X123276506Y-105258075D01*
X123433995Y-105401647D01*
X123433994Y-105401647D01*
X123615206Y-105513847D01*
X123813941Y-105590838D01*
X123979999Y-105621880D01*
X123980000Y-105621880D01*
X123980000Y-104957445D01*
X124064174Y-104980000D01*
X124195826Y-104980000D01*
X124280000Y-104957445D01*
X124280000Y-105621880D01*
X124446058Y-105590838D01*
X124644793Y-105513847D01*
X124826004Y-105401647D01*
X124983493Y-105258075D01*
X124983503Y-105258064D01*
X125111937Y-105087992D01*
X125111942Y-105087983D01*
X125206935Y-104897210D01*
X125265261Y-104692216D01*
X125271027Y-104630000D01*
X124607445Y-104630000D01*
X124630000Y-104545826D01*
X124630000Y-104414174D01*
X124607445Y-104330000D01*
X125271026Y-104330000D01*
X125265261Y-104267783D01*
X125206935Y-104062789D01*
X125111942Y-103872016D01*
X125111937Y-103872007D01*
X124983503Y-103701935D01*
X124983493Y-103701924D01*
X124826004Y-103558352D01*
X124826005Y-103558352D01*
X124644793Y-103446152D01*
X124446061Y-103369162D01*
X124446055Y-103369160D01*
X124280000Y-103338118D01*
X124280000Y-104002554D01*
X124195826Y-103980000D01*
X124064174Y-103980000D01*
X123980000Y-104002554D01*
X123980000Y-103338119D01*
X123979999Y-103338118D01*
X123813944Y-103369160D01*
X123813938Y-103369162D01*
X123615206Y-103446152D01*
X123433995Y-103558352D01*
X123276506Y-103701924D01*
X123276496Y-103701935D01*
X123148062Y-103872007D01*
X123148057Y-103872016D01*
X123053064Y-104062789D01*
X122994738Y-104267783D01*
X122988973Y-104330000D01*
X123652555Y-104330000D01*
X123630000Y-104414174D01*
X123630000Y-104545826D01*
X123652555Y-104630000D01*
X122988973Y-104630000D01*
X122630810Y-104630000D01*
X122645583Y-104480003D01*
X122645583Y-104479996D01*
X122625301Y-104274070D01*
X122625300Y-104274065D01*
X122566401Y-104079901D01*
X122565232Y-104076046D01*
X122467685Y-103893550D01*
X122450005Y-103872007D01*
X122336414Y-103733595D01*
X122336410Y-103733590D01*
X122297825Y-103701924D01*
X122176452Y-103602316D01*
X121993954Y-103504768D01*
X121795934Y-103444699D01*
X121795929Y-103444698D01*
X121590003Y-103424417D01*
X121589997Y-103424417D01*
X121384070Y-103444698D01*
X121384065Y-103444699D01*
X121186045Y-103504768D01*
X121003547Y-103602316D01*
X120843595Y-103733585D01*
X120843585Y-103733595D01*
X120712316Y-103893547D01*
X120614768Y-104076045D01*
X120554699Y-104274065D01*
X120554698Y-104274070D01*
X120534417Y-104479996D01*
X120534417Y-104480003D01*
X100990500Y-104480003D01*
X100990500Y-102450514D01*
X101009407Y-102392323D01*
X101014682Y-102385682D01*
X101025345Y-102373375D01*
X101025344Y-102373375D01*
X101025347Y-102373373D01*
X101085135Y-102242457D01*
X101099013Y-102145934D01*
X101105617Y-102100002D01*
X101105617Y-102099997D01*
X101085135Y-101957543D01*
X101077125Y-101940003D01*
X120534417Y-101940003D01*
X120554698Y-102145929D01*
X120554699Y-102145934D01*
X120614768Y-102343954D01*
X120712316Y-102526452D01*
X120843585Y-102686404D01*
X120843590Y-102686410D01*
X120843595Y-102686414D01*
X121003547Y-102817683D01*
X121003548Y-102817683D01*
X121003550Y-102817685D01*
X121186046Y-102915232D01*
X121323997Y-102957078D01*
X121384065Y-102975300D01*
X121384070Y-102975301D01*
X121589997Y-102995583D01*
X121590000Y-102995583D01*
X121590003Y-102995583D01*
X121795929Y-102975301D01*
X121795934Y-102975300D01*
X121800724Y-102973847D01*
X121993954Y-102915232D01*
X122176450Y-102817685D01*
X122336410Y-102686410D01*
X122467685Y-102526450D01*
X122565232Y-102343954D01*
X122625300Y-102145934D01*
X122625301Y-102145929D01*
X122630810Y-102090000D01*
X122988973Y-102090000D01*
X122994738Y-102152216D01*
X123053064Y-102357210D01*
X123148057Y-102547983D01*
X123148062Y-102547992D01*
X123276496Y-102718064D01*
X123276506Y-102718075D01*
X123433995Y-102861647D01*
X123433994Y-102861647D01*
X123615206Y-102973847D01*
X123813941Y-103050838D01*
X123979999Y-103081880D01*
X123980000Y-103081880D01*
X123980000Y-102417445D01*
X124064174Y-102440000D01*
X124195826Y-102440000D01*
X124280000Y-102417445D01*
X124280000Y-103081880D01*
X124446058Y-103050838D01*
X124644793Y-102973847D01*
X124826004Y-102861647D01*
X124983493Y-102718075D01*
X124983503Y-102718064D01*
X125111937Y-102547992D01*
X125111942Y-102547983D01*
X125206935Y-102357210D01*
X125265261Y-102152216D01*
X125271027Y-102090000D01*
X124607445Y-102090000D01*
X124630000Y-102005826D01*
X124630000Y-101874174D01*
X124607445Y-101790000D01*
X125271026Y-101790000D01*
X125265261Y-101727783D01*
X125206935Y-101522789D01*
X125111942Y-101332016D01*
X125111937Y-101332007D01*
X124983503Y-101161935D01*
X124983493Y-101161924D01*
X124826004Y-101018352D01*
X124826005Y-101018352D01*
X124644793Y-100906152D01*
X124446061Y-100829162D01*
X124446055Y-100829160D01*
X124280000Y-100798118D01*
X124280000Y-101462554D01*
X124195826Y-101440000D01*
X124064174Y-101440000D01*
X123980000Y-101462554D01*
X123980000Y-100798119D01*
X123979999Y-100798118D01*
X123813944Y-100829160D01*
X123813938Y-100829162D01*
X123615206Y-100906152D01*
X123433995Y-101018352D01*
X123276506Y-101161924D01*
X123276496Y-101161935D01*
X123148062Y-101332007D01*
X123148057Y-101332016D01*
X123053064Y-101522789D01*
X122994738Y-101727783D01*
X122988973Y-101790000D01*
X123652555Y-101790000D01*
X123630000Y-101874174D01*
X123630000Y-102005826D01*
X123652555Y-102090000D01*
X122988973Y-102090000D01*
X122630810Y-102090000D01*
X122645583Y-101940003D01*
X122645583Y-101939996D01*
X122625301Y-101734070D01*
X122625300Y-101734065D01*
X122607078Y-101673997D01*
X122565232Y-101536046D01*
X122467685Y-101353550D01*
X122450005Y-101332007D01*
X122336414Y-101193595D01*
X122336410Y-101193590D01*
X122297825Y-101161924D01*
X122176452Y-101062316D01*
X121993954Y-100964768D01*
X121795934Y-100904699D01*
X121795929Y-100904698D01*
X121590003Y-100884417D01*
X121589997Y-100884417D01*
X121384070Y-100904698D01*
X121384065Y-100904699D01*
X121186045Y-100964768D01*
X121003547Y-101062316D01*
X120843595Y-101193585D01*
X120843585Y-101193595D01*
X120712316Y-101353547D01*
X120614768Y-101536045D01*
X120554699Y-101734065D01*
X120554698Y-101734070D01*
X120534417Y-101939996D01*
X120534417Y-101940003D01*
X101077125Y-101940003D01*
X101025347Y-101826628D01*
X101025347Y-101826627D01*
X100931098Y-101717857D01*
X100931097Y-101717856D01*
X100931096Y-101717855D01*
X100810027Y-101640049D01*
X100810024Y-101640047D01*
X100810023Y-101640047D01*
X100810020Y-101640046D01*
X100671934Y-101599500D01*
X100671931Y-101599500D01*
X100528009Y-101599500D01*
X100528005Y-101599500D01*
X100389919Y-101640046D01*
X100389912Y-101640049D01*
X100268843Y-101717855D01*
X100174592Y-101826628D01*
X100114804Y-101957543D01*
X100094323Y-102099997D01*
X100094323Y-102100002D01*
X85775500Y-102100002D01*
X85775500Y-100155123D01*
X85794407Y-100096932D01*
X85804496Y-100085119D01*
X86360119Y-99529496D01*
X86414636Y-99501719D01*
X86430123Y-99500500D01*
X86571959Y-99500500D01*
X86571961Y-99500500D01*
X86710053Y-99459953D01*
X86803337Y-99400003D01*
X120534417Y-99400003D01*
X120554698Y-99605929D01*
X120554699Y-99605934D01*
X120614768Y-99803954D01*
X120712316Y-99986452D01*
X120817086Y-100114115D01*
X120843590Y-100146410D01*
X120843595Y-100146414D01*
X121003547Y-100277683D01*
X121003548Y-100277683D01*
X121003550Y-100277685D01*
X121186046Y-100375232D01*
X121323997Y-100417078D01*
X121384065Y-100435300D01*
X121384070Y-100435301D01*
X121589997Y-100455583D01*
X121590000Y-100455583D01*
X121590003Y-100455583D01*
X121795929Y-100435301D01*
X121795934Y-100435300D01*
X121800724Y-100433847D01*
X121993954Y-100375232D01*
X122176450Y-100277685D01*
X122336410Y-100146410D01*
X122467685Y-99986450D01*
X122565232Y-99803954D01*
X122625300Y-99605934D01*
X122625301Y-99605929D01*
X122630810Y-99550000D01*
X122988973Y-99550000D01*
X122994738Y-99612216D01*
X123053064Y-99817210D01*
X123148057Y-100007983D01*
X123148062Y-100007992D01*
X123276496Y-100178064D01*
X123276506Y-100178075D01*
X123433995Y-100321647D01*
X123433994Y-100321647D01*
X123615206Y-100433847D01*
X123813941Y-100510838D01*
X123979999Y-100541880D01*
X123980000Y-100541880D01*
X123980000Y-99877445D01*
X124064174Y-99900000D01*
X124195826Y-99900000D01*
X124280000Y-99877445D01*
X124280000Y-100541880D01*
X124446058Y-100510838D01*
X124644793Y-100433847D01*
X124826004Y-100321647D01*
X124983493Y-100178075D01*
X124983503Y-100178064D01*
X125111937Y-100007992D01*
X125111942Y-100007983D01*
X125206935Y-99817210D01*
X125265261Y-99612216D01*
X125271027Y-99550000D01*
X124607445Y-99550000D01*
X124630000Y-99465826D01*
X124630000Y-99334174D01*
X124607445Y-99250000D01*
X125271026Y-99250000D01*
X125265261Y-99187783D01*
X125206935Y-98982789D01*
X125111942Y-98792016D01*
X125111937Y-98792007D01*
X124983503Y-98621935D01*
X124983493Y-98621924D01*
X124826004Y-98478352D01*
X124826005Y-98478352D01*
X124644793Y-98366152D01*
X124446061Y-98289162D01*
X124446055Y-98289160D01*
X124280000Y-98258118D01*
X124280000Y-98922554D01*
X124195826Y-98900000D01*
X124064174Y-98900000D01*
X123980000Y-98922554D01*
X123980000Y-98258119D01*
X123979999Y-98258118D01*
X123813944Y-98289160D01*
X123813938Y-98289162D01*
X123615206Y-98366152D01*
X123433995Y-98478352D01*
X123276506Y-98621924D01*
X123276496Y-98621935D01*
X123148062Y-98792007D01*
X123148057Y-98792016D01*
X123053064Y-98982789D01*
X122994738Y-99187783D01*
X122988973Y-99250000D01*
X123652555Y-99250000D01*
X123630000Y-99334174D01*
X123630000Y-99465826D01*
X123652555Y-99550000D01*
X122988973Y-99550000D01*
X122630810Y-99550000D01*
X122645583Y-99400003D01*
X122645583Y-99399996D01*
X122625301Y-99194070D01*
X122625300Y-99194065D01*
X122594640Y-99092993D01*
X122565232Y-98996046D01*
X122467685Y-98813550D01*
X122450005Y-98792007D01*
X122336414Y-98653595D01*
X122336410Y-98653590D01*
X122292867Y-98617855D01*
X122176452Y-98522316D01*
X121993954Y-98424768D01*
X121795934Y-98364699D01*
X121795929Y-98364698D01*
X121590003Y-98344417D01*
X121589997Y-98344417D01*
X121384070Y-98364698D01*
X121384065Y-98364699D01*
X121186045Y-98424768D01*
X121003547Y-98522316D01*
X120843595Y-98653585D01*
X120843585Y-98653595D01*
X120712316Y-98813547D01*
X120614768Y-98996045D01*
X120554699Y-99194065D01*
X120554698Y-99194070D01*
X120534417Y-99399996D01*
X120534417Y-99400003D01*
X86803337Y-99400003D01*
X86831128Y-99382143D01*
X86925377Y-99273373D01*
X86985165Y-99142457D01*
X87005647Y-99000000D01*
X87005078Y-98996045D01*
X86985165Y-98857543D01*
X86925377Y-98726628D01*
X86925377Y-98726627D01*
X86831128Y-98617857D01*
X86831127Y-98617856D01*
X86831126Y-98617855D01*
X86710057Y-98540049D01*
X86710054Y-98540047D01*
X86710053Y-98540047D01*
X86710050Y-98540046D01*
X86571964Y-98499500D01*
X86571961Y-98499500D01*
X86428039Y-98499500D01*
X86428035Y-98499500D01*
X86289949Y-98540046D01*
X86289942Y-98540049D01*
X86168873Y-98617855D01*
X86074622Y-98726628D01*
X86014834Y-98857543D01*
X85994353Y-98999997D01*
X85994353Y-99000003D01*
X86001885Y-99052394D01*
X85991451Y-99112683D01*
X85973897Y-99136485D01*
X85343942Y-99766442D01*
X85266446Y-99843938D01*
X85266444Y-99843940D01*
X85266443Y-99843942D01*
X85243223Y-99900000D01*
X85224500Y-99945200D01*
X85224500Y-106054799D01*
X85260807Y-106142455D01*
X85260808Y-106142455D01*
X85260809Y-106142457D01*
X85266443Y-106156058D01*
X86196210Y-107085826D01*
X86473897Y-107363513D01*
X86501674Y-107418030D01*
X86501885Y-107447604D01*
X86494354Y-107499997D01*
X86494353Y-107500003D01*
X86510323Y-107611082D01*
X86499890Y-107671372D01*
X86456011Y-107714014D01*
X86395449Y-107722721D01*
X86342327Y-107695175D01*
X84972460Y-106325308D01*
X84944683Y-106270791D01*
X84952411Y-106214177D01*
X84985166Y-106142455D01*
X85005647Y-106000002D01*
X85005647Y-105999997D01*
X84985165Y-105857543D01*
X84925377Y-105726628D01*
X84925377Y-105726627D01*
X84831128Y-105617857D01*
X84831127Y-105617856D01*
X84831126Y-105617855D01*
X84710057Y-105540049D01*
X84710054Y-105540047D01*
X84710053Y-105540047D01*
X84710050Y-105540046D01*
X84571964Y-105499500D01*
X84571961Y-105499500D01*
X84428039Y-105499500D01*
X84428035Y-105499500D01*
X84289949Y-105540046D01*
X84289942Y-105540049D01*
X84168873Y-105617855D01*
X84074622Y-105726628D01*
X84014834Y-105857543D01*
X84009332Y-105895809D01*
X83982335Y-105950716D01*
X83928220Y-105979268D01*
X83867658Y-105970560D01*
X83841341Y-105951725D01*
X83804494Y-105914878D01*
X83776719Y-105860363D01*
X83775500Y-105844877D01*
X83775500Y-100155122D01*
X83794407Y-100096931D01*
X83804490Y-100085124D01*
X85860118Y-98029495D01*
X85914635Y-98001719D01*
X85930122Y-98000500D01*
X86071959Y-98000500D01*
X86071961Y-98000500D01*
X86210053Y-97959953D01*
X86331128Y-97882143D01*
X86425377Y-97773373D01*
X86485165Y-97642457D01*
X86505647Y-97500000D01*
X86497027Y-97440049D01*
X86485165Y-97357543D01*
X86470725Y-97325925D01*
X86425377Y-97226627D01*
X86331128Y-97117857D01*
X86331127Y-97117856D01*
X86331126Y-97117855D01*
X86210057Y-97040049D01*
X86210054Y-97040047D01*
X86210053Y-97040047D01*
X86210050Y-97040046D01*
X86071964Y-96999500D01*
X86071961Y-96999500D01*
X85928039Y-96999500D01*
X85928035Y-96999500D01*
X85789949Y-97040046D01*
X85789942Y-97040049D01*
X85668873Y-97117855D01*
X85574622Y-97226628D01*
X85514834Y-97357543D01*
X85494353Y-97499997D01*
X85494353Y-97500003D01*
X85501885Y-97552394D01*
X85491451Y-97612683D01*
X85473897Y-97636486D01*
X83343942Y-99766443D01*
X83343941Y-99766442D01*
X83266446Y-99843938D01*
X83266444Y-99843940D01*
X83266443Y-99843942D01*
X83243223Y-99900000D01*
X83224500Y-99945200D01*
X83224500Y-106054799D01*
X78832721Y-106054799D01*
X78813954Y-106044768D01*
X78615934Y-105984699D01*
X78615929Y-105984698D01*
X78410003Y-105964417D01*
X78409997Y-105964417D01*
X78204070Y-105984698D01*
X78204065Y-105984699D01*
X78006045Y-106044768D01*
X77823547Y-106142316D01*
X77663595Y-106273585D01*
X77663585Y-106273595D01*
X77532316Y-106433547D01*
X77434768Y-106616045D01*
X77374699Y-106814065D01*
X77374698Y-106814070D01*
X77354417Y-107019996D01*
X77354417Y-107020003D01*
X76370000Y-107020003D01*
X76370000Y-106954174D01*
X76347445Y-106870000D01*
X77011026Y-106870000D01*
X77005261Y-106807783D01*
X76946935Y-106602789D01*
X76851942Y-106412016D01*
X76851937Y-106412007D01*
X76723503Y-106241935D01*
X76723493Y-106241924D01*
X76566004Y-106098352D01*
X76566005Y-106098352D01*
X76384793Y-105986152D01*
X76186061Y-105909162D01*
X76186055Y-105909160D01*
X76020000Y-105878118D01*
X76020000Y-106542554D01*
X75935826Y-106520000D01*
X75804174Y-106520000D01*
X75720000Y-106542554D01*
X75720000Y-105878119D01*
X75719999Y-105878118D01*
X75553944Y-105909160D01*
X75553938Y-105909162D01*
X75355206Y-105986152D01*
X75173995Y-106098352D01*
X75016506Y-106241924D01*
X75016496Y-106241935D01*
X74888062Y-106412007D01*
X74888057Y-106412016D01*
X74793064Y-106602789D01*
X74734738Y-106807783D01*
X74728973Y-106870000D01*
X75392555Y-106870000D01*
X75370000Y-106954174D01*
X75370000Y-107085826D01*
X75392555Y-107170000D01*
X74728973Y-107170000D01*
X74500000Y-107170000D01*
X74500000Y-104630000D01*
X74728973Y-104630000D01*
X74734738Y-104692216D01*
X74793064Y-104897210D01*
X74888057Y-105087983D01*
X74888062Y-105087992D01*
X75016496Y-105258064D01*
X75016506Y-105258075D01*
X75173995Y-105401647D01*
X75173994Y-105401647D01*
X75355206Y-105513847D01*
X75553941Y-105590838D01*
X75719999Y-105621880D01*
X75720000Y-105621880D01*
X75720000Y-104957445D01*
X75804174Y-104980000D01*
X75935826Y-104980000D01*
X76020000Y-104957445D01*
X76020000Y-105621880D01*
X76186058Y-105590838D01*
X76384793Y-105513847D01*
X76566004Y-105401647D01*
X76723493Y-105258075D01*
X76723503Y-105258064D01*
X76851937Y-105087992D01*
X76851942Y-105087983D01*
X76946935Y-104897210D01*
X77005261Y-104692216D01*
X77011027Y-104630000D01*
X76347445Y-104630000D01*
X76370000Y-104545826D01*
X76370000Y-104480003D01*
X77354417Y-104480003D01*
X77374698Y-104685929D01*
X77374699Y-104685934D01*
X77434768Y-104883954D01*
X77532316Y-105066452D01*
X77663585Y-105226404D01*
X77663590Y-105226410D01*
X77663595Y-105226414D01*
X77823547Y-105357683D01*
X77823548Y-105357683D01*
X77823550Y-105357685D01*
X78006046Y-105455232D01*
X78143997Y-105497078D01*
X78204065Y-105515300D01*
X78204070Y-105515301D01*
X78409997Y-105535583D01*
X78410000Y-105535583D01*
X78410003Y-105535583D01*
X78615929Y-105515301D01*
X78615934Y-105515300D01*
X78620724Y-105513847D01*
X78813954Y-105455232D01*
X78996450Y-105357685D01*
X79156410Y-105226410D01*
X79287685Y-105066450D01*
X79385232Y-104883954D01*
X79445300Y-104685934D01*
X79445301Y-104685929D01*
X79465583Y-104480003D01*
X79465583Y-104479996D01*
X79445301Y-104274070D01*
X79445300Y-104274065D01*
X79386401Y-104079901D01*
X79385232Y-104076046D01*
X79287685Y-103893550D01*
X79270005Y-103872007D01*
X79156414Y-103733595D01*
X79156410Y-103733590D01*
X79117825Y-103701924D01*
X78996452Y-103602316D01*
X78813954Y-103504768D01*
X78615934Y-103444699D01*
X78615929Y-103444698D01*
X78410003Y-103424417D01*
X78409997Y-103424417D01*
X78204070Y-103444698D01*
X78204065Y-103444699D01*
X78006045Y-103504768D01*
X77823547Y-103602316D01*
X77663595Y-103733585D01*
X77663585Y-103733595D01*
X77532316Y-103893547D01*
X77434768Y-104076045D01*
X77374699Y-104274065D01*
X77374698Y-104274070D01*
X77354417Y-104479996D01*
X77354417Y-104480003D01*
X76370000Y-104480003D01*
X76370000Y-104414174D01*
X76347445Y-104330000D01*
X77011026Y-104330000D01*
X77005261Y-104267783D01*
X76946935Y-104062789D01*
X76851942Y-103872016D01*
X76851937Y-103872007D01*
X76723503Y-103701935D01*
X76723493Y-103701924D01*
X76566004Y-103558352D01*
X76566005Y-103558352D01*
X76384793Y-103446152D01*
X76186061Y-103369162D01*
X76186055Y-103369160D01*
X76020000Y-103338118D01*
X76020000Y-104002554D01*
X75935826Y-103980000D01*
X75804174Y-103980000D01*
X75720000Y-104002554D01*
X75720000Y-103338119D01*
X75719999Y-103338118D01*
X75553944Y-103369160D01*
X75553938Y-103369162D01*
X75355206Y-103446152D01*
X75173995Y-103558352D01*
X75016506Y-103701924D01*
X75016496Y-103701935D01*
X74888062Y-103872007D01*
X74888057Y-103872016D01*
X74793064Y-104062789D01*
X74734738Y-104267783D01*
X74728973Y-104330000D01*
X75392555Y-104330000D01*
X75370000Y-104414174D01*
X75370000Y-104545826D01*
X75392555Y-104630000D01*
X74728973Y-104630000D01*
X74500000Y-104630000D01*
X74500000Y-102090000D01*
X74728973Y-102090000D01*
X74734738Y-102152216D01*
X74793064Y-102357210D01*
X74888057Y-102547983D01*
X74888062Y-102547992D01*
X75016496Y-102718064D01*
X75016506Y-102718075D01*
X75173995Y-102861647D01*
X75173994Y-102861647D01*
X75355206Y-102973847D01*
X75553941Y-103050838D01*
X75719999Y-103081880D01*
X75720000Y-103081880D01*
X75720000Y-102417445D01*
X75804174Y-102440000D01*
X75935826Y-102440000D01*
X76020000Y-102417445D01*
X76020000Y-103081880D01*
X76186058Y-103050838D01*
X76384793Y-102973847D01*
X76566004Y-102861647D01*
X76723493Y-102718075D01*
X76723503Y-102718064D01*
X76851937Y-102547992D01*
X76851942Y-102547983D01*
X76946935Y-102357210D01*
X77005261Y-102152216D01*
X77011027Y-102090000D01*
X76347445Y-102090000D01*
X76370000Y-102005826D01*
X76370000Y-101940003D01*
X77354417Y-101940003D01*
X77374698Y-102145929D01*
X77374699Y-102145934D01*
X77434768Y-102343954D01*
X77532316Y-102526452D01*
X77663585Y-102686404D01*
X77663590Y-102686410D01*
X77663595Y-102686414D01*
X77823547Y-102817683D01*
X77823548Y-102817683D01*
X77823550Y-102817685D01*
X78006046Y-102915232D01*
X78143997Y-102957078D01*
X78204065Y-102975300D01*
X78204070Y-102975301D01*
X78409997Y-102995583D01*
X78410000Y-102995583D01*
X78410003Y-102995583D01*
X78615929Y-102975301D01*
X78615934Y-102975300D01*
X78620724Y-102973847D01*
X78813954Y-102915232D01*
X78996450Y-102817685D01*
X79156410Y-102686410D01*
X79287685Y-102526450D01*
X79385232Y-102343954D01*
X79445300Y-102145934D01*
X79445301Y-102145929D01*
X79465583Y-101940003D01*
X79465583Y-101939996D01*
X79445301Y-101734070D01*
X79445300Y-101734065D01*
X79427078Y-101673997D01*
X79385232Y-101536046D01*
X79287685Y-101353550D01*
X79270005Y-101332007D01*
X79156414Y-101193595D01*
X79156410Y-101193590D01*
X79117825Y-101161924D01*
X78996452Y-101062316D01*
X78813954Y-100964768D01*
X78615934Y-100904699D01*
X78615929Y-100904698D01*
X78410003Y-100884417D01*
X78409997Y-100884417D01*
X78204070Y-100904698D01*
X78204065Y-100904699D01*
X78006045Y-100964768D01*
X77823547Y-101062316D01*
X77663595Y-101193585D01*
X77663585Y-101193595D01*
X77532316Y-101353547D01*
X77434768Y-101536045D01*
X77374699Y-101734065D01*
X77374698Y-101734070D01*
X77354417Y-101939996D01*
X77354417Y-101940003D01*
X76370000Y-101940003D01*
X76370000Y-101874174D01*
X76347445Y-101790000D01*
X77011026Y-101790000D01*
X77005261Y-101727783D01*
X76946935Y-101522789D01*
X76851942Y-101332016D01*
X76851937Y-101332007D01*
X76723503Y-101161935D01*
X76723493Y-101161924D01*
X76566004Y-101018352D01*
X76566005Y-101018352D01*
X76384793Y-100906152D01*
X76186061Y-100829162D01*
X76186055Y-100829160D01*
X76020000Y-100798118D01*
X76020000Y-101462554D01*
X75935826Y-101440000D01*
X75804174Y-101440000D01*
X75720000Y-101462554D01*
X75720000Y-100798119D01*
X75719999Y-100798118D01*
X75553944Y-100829160D01*
X75553938Y-100829162D01*
X75355206Y-100906152D01*
X75173995Y-101018352D01*
X75016506Y-101161924D01*
X75016496Y-101161935D01*
X74888062Y-101332007D01*
X74888057Y-101332016D01*
X74793064Y-101522789D01*
X74734738Y-101727783D01*
X74728973Y-101790000D01*
X75392555Y-101790000D01*
X75370000Y-101874174D01*
X75370000Y-102005826D01*
X75392555Y-102090000D01*
X74728973Y-102090000D01*
X74500000Y-102090000D01*
X74500000Y-99550000D01*
X74728973Y-99550000D01*
X74734738Y-99612216D01*
X74793064Y-99817210D01*
X74888057Y-100007983D01*
X74888062Y-100007992D01*
X75016496Y-100178064D01*
X75016506Y-100178075D01*
X75173995Y-100321647D01*
X75173994Y-100321647D01*
X75355206Y-100433847D01*
X75553941Y-100510838D01*
X75719999Y-100541880D01*
X75720000Y-100541880D01*
X75720000Y-99877445D01*
X75804174Y-99900000D01*
X75935826Y-99900000D01*
X76020000Y-99877445D01*
X76020000Y-100541880D01*
X76186058Y-100510838D01*
X76384793Y-100433847D01*
X76566004Y-100321647D01*
X76723493Y-100178075D01*
X76723503Y-100178064D01*
X76851937Y-100007992D01*
X76851942Y-100007983D01*
X76946935Y-99817210D01*
X77005261Y-99612216D01*
X77011027Y-99550000D01*
X76347445Y-99550000D01*
X76370000Y-99465826D01*
X76370000Y-99400003D01*
X77354417Y-99400003D01*
X77374698Y-99605929D01*
X77374699Y-99605934D01*
X77434768Y-99803954D01*
X77532316Y-99986452D01*
X77637086Y-100114115D01*
X77663590Y-100146410D01*
X77663595Y-100146414D01*
X77823547Y-100277683D01*
X77823548Y-100277683D01*
X77823550Y-100277685D01*
X78006046Y-100375232D01*
X78143997Y-100417078D01*
X78204065Y-100435300D01*
X78204070Y-100435301D01*
X78409997Y-100455583D01*
X78410000Y-100455583D01*
X78410003Y-100455583D01*
X78615929Y-100435301D01*
X78615934Y-100435300D01*
X78620724Y-100433847D01*
X78813954Y-100375232D01*
X78996450Y-100277685D01*
X79156410Y-100146410D01*
X79287685Y-99986450D01*
X79385232Y-99803954D01*
X79445300Y-99605934D01*
X79445301Y-99605929D01*
X79465583Y-99400003D01*
X79465583Y-99399996D01*
X79445301Y-99194070D01*
X79445300Y-99194065D01*
X79414640Y-99092993D01*
X79385232Y-98996046D01*
X79287685Y-98813550D01*
X79270005Y-98792007D01*
X79156414Y-98653595D01*
X79156410Y-98653590D01*
X79112867Y-98617855D01*
X78996452Y-98522316D01*
X78813954Y-98424768D01*
X78615934Y-98364699D01*
X78615929Y-98364698D01*
X78410003Y-98344417D01*
X78409997Y-98344417D01*
X78204070Y-98364698D01*
X78204065Y-98364699D01*
X78006045Y-98424768D01*
X77823547Y-98522316D01*
X77663595Y-98653585D01*
X77663585Y-98653595D01*
X77532316Y-98813547D01*
X77434768Y-98996045D01*
X77374699Y-99194065D01*
X77374698Y-99194070D01*
X77354417Y-99399996D01*
X77354417Y-99400003D01*
X76370000Y-99400003D01*
X76370000Y-99334174D01*
X76347445Y-99250000D01*
X77011026Y-99250000D01*
X77005261Y-99187783D01*
X76946935Y-98982789D01*
X76851942Y-98792016D01*
X76851937Y-98792007D01*
X76723503Y-98621935D01*
X76723493Y-98621924D01*
X76566004Y-98478352D01*
X76566005Y-98478352D01*
X76384793Y-98366152D01*
X76186061Y-98289162D01*
X76186055Y-98289160D01*
X76020000Y-98258118D01*
X76020000Y-98922554D01*
X75935826Y-98900000D01*
X75804174Y-98900000D01*
X75720000Y-98922554D01*
X75720000Y-98258119D01*
X75719999Y-98258118D01*
X75553944Y-98289160D01*
X75553938Y-98289162D01*
X75355206Y-98366152D01*
X75173995Y-98478352D01*
X75016506Y-98621924D01*
X75016496Y-98621935D01*
X74888062Y-98792007D01*
X74888057Y-98792016D01*
X74793064Y-98982789D01*
X74734738Y-99187783D01*
X74728973Y-99250000D01*
X75392555Y-99250000D01*
X75370000Y-99334174D01*
X75370000Y-99465826D01*
X75392555Y-99550000D01*
X74728973Y-99550000D01*
X74500000Y-99550000D01*
X74500000Y-97010000D01*
X74728973Y-97010000D01*
X74734738Y-97072216D01*
X74793064Y-97277210D01*
X74888057Y-97467983D01*
X74888062Y-97467992D01*
X75016496Y-97638064D01*
X75016506Y-97638075D01*
X75173995Y-97781647D01*
X75173994Y-97781647D01*
X75355206Y-97893847D01*
X75553941Y-97970838D01*
X75719999Y-98001880D01*
X75720000Y-98001880D01*
X75720000Y-97337445D01*
X75804174Y-97360000D01*
X75935826Y-97360000D01*
X76020000Y-97337445D01*
X76020000Y-98001880D01*
X76186058Y-97970838D01*
X76384793Y-97893847D01*
X76566004Y-97781647D01*
X76723493Y-97638075D01*
X76723503Y-97638064D01*
X76851937Y-97467992D01*
X76851942Y-97467983D01*
X76946935Y-97277210D01*
X77005261Y-97072216D01*
X77011027Y-97010000D01*
X76347445Y-97010000D01*
X76370000Y-96925826D01*
X76370000Y-96860003D01*
X77354417Y-96860003D01*
X77374698Y-97065929D01*
X77374699Y-97065934D01*
X77434768Y-97263954D01*
X77532316Y-97446452D01*
X77619260Y-97552394D01*
X77663590Y-97606410D01*
X77663595Y-97606414D01*
X77823547Y-97737683D01*
X77823548Y-97737683D01*
X77823550Y-97737685D01*
X78006046Y-97835232D01*
X78143997Y-97877078D01*
X78204065Y-97895300D01*
X78204070Y-97895301D01*
X78409997Y-97915583D01*
X78410000Y-97915583D01*
X78410003Y-97915583D01*
X78615929Y-97895301D01*
X78615934Y-97895300D01*
X78620724Y-97893847D01*
X78813954Y-97835232D01*
X78996450Y-97737685D01*
X79156410Y-97606410D01*
X79287685Y-97446450D01*
X79385232Y-97263954D01*
X79445300Y-97065934D01*
X79445301Y-97065929D01*
X79465583Y-96860003D01*
X79465583Y-96859996D01*
X79445301Y-96654070D01*
X79445300Y-96654065D01*
X79386401Y-96459901D01*
X79385232Y-96456046D01*
X79287685Y-96273550D01*
X79270005Y-96252007D01*
X79156414Y-96113595D01*
X79156410Y-96113590D01*
X79117825Y-96081924D01*
X78996452Y-95982316D01*
X78813954Y-95884768D01*
X78615934Y-95824699D01*
X78615929Y-95824698D01*
X78410003Y-95804417D01*
X78409997Y-95804417D01*
X78204070Y-95824698D01*
X78204065Y-95824699D01*
X78006045Y-95884768D01*
X77823547Y-95982316D01*
X77663595Y-96113585D01*
X77663585Y-96113595D01*
X77532316Y-96273547D01*
X77434768Y-96456045D01*
X77374699Y-96654065D01*
X77374698Y-96654070D01*
X77354417Y-96859996D01*
X77354417Y-96860003D01*
X76370000Y-96860003D01*
X76370000Y-96794174D01*
X76347445Y-96710000D01*
X77011026Y-96710000D01*
X77005261Y-96647783D01*
X76946935Y-96442789D01*
X76851942Y-96252016D01*
X76851937Y-96252007D01*
X76723503Y-96081935D01*
X76723493Y-96081924D01*
X76566004Y-95938352D01*
X76566005Y-95938352D01*
X76384793Y-95826152D01*
X76186061Y-95749162D01*
X76186055Y-95749160D01*
X76020000Y-95718118D01*
X76020000Y-96382554D01*
X75935826Y-96360000D01*
X75804174Y-96360000D01*
X75720000Y-96382554D01*
X75720000Y-95718119D01*
X75719999Y-95718118D01*
X75553944Y-95749160D01*
X75553938Y-95749162D01*
X75355206Y-95826152D01*
X75173995Y-95938352D01*
X75016506Y-96081924D01*
X75016496Y-96081935D01*
X74888062Y-96252007D01*
X74888057Y-96252016D01*
X74793064Y-96442789D01*
X74734738Y-96647783D01*
X74728973Y-96710000D01*
X75392555Y-96710000D01*
X75370000Y-96794174D01*
X75370000Y-96925826D01*
X75392555Y-97010000D01*
X74728973Y-97010000D01*
X74500000Y-97010000D01*
X74500000Y-94470000D01*
X74728973Y-94470000D01*
X74734738Y-94532216D01*
X74793064Y-94737210D01*
X74888057Y-94927983D01*
X74888062Y-94927992D01*
X75016496Y-95098064D01*
X75016506Y-95098075D01*
X75173995Y-95241647D01*
X75173994Y-95241647D01*
X75355206Y-95353847D01*
X75553941Y-95430838D01*
X75719999Y-95461880D01*
X75720000Y-95461880D01*
X75720000Y-94797445D01*
X75804174Y-94820000D01*
X75935826Y-94820000D01*
X76020000Y-94797445D01*
X76020000Y-95461880D01*
X76186058Y-95430838D01*
X76384793Y-95353847D01*
X76566004Y-95241647D01*
X76723493Y-95098075D01*
X76723503Y-95098064D01*
X76851937Y-94927992D01*
X76851942Y-94927983D01*
X76946935Y-94737210D01*
X77005261Y-94532216D01*
X77011027Y-94470000D01*
X76347445Y-94470000D01*
X76370000Y-94385826D01*
X76370000Y-94320003D01*
X77354417Y-94320003D01*
X77374698Y-94525929D01*
X77374699Y-94525934D01*
X77434768Y-94723954D01*
X77532316Y-94906452D01*
X77656308Y-95057537D01*
X77663590Y-95066410D01*
X77663595Y-95066414D01*
X77823547Y-95197683D01*
X77823548Y-95197683D01*
X77823550Y-95197685D01*
X78006046Y-95295232D01*
X78143997Y-95337078D01*
X78204065Y-95355300D01*
X78204070Y-95355301D01*
X78409997Y-95375583D01*
X78410000Y-95375583D01*
X78410003Y-95375583D01*
X78615929Y-95355301D01*
X78615934Y-95355300D01*
X78620724Y-95353847D01*
X78813954Y-95295232D01*
X78992126Y-95199996D01*
X99294353Y-95199996D01*
X99314834Y-95342450D01*
X99374623Y-95473367D01*
X99375316Y-95474167D01*
X99375660Y-95474983D01*
X99378453Y-95479328D01*
X99377701Y-95479810D01*
X99399136Y-95530525D01*
X99399500Y-95539002D01*
X99399500Y-96957273D01*
X99399500Y-97062727D01*
X99402043Y-97072216D01*
X99426794Y-97164592D01*
X99479516Y-97255908D01*
X99479517Y-97255909D01*
X99479518Y-97255910D01*
X99479520Y-97255913D01*
X99836290Y-97612683D01*
X100182933Y-97959326D01*
X100210710Y-98013843D01*
X100210921Y-98015237D01*
X100214835Y-98042457D01*
X100274623Y-98173373D01*
X100368872Y-98282143D01*
X100368873Y-98282144D01*
X100465772Y-98344417D01*
X100489947Y-98359953D01*
X100596403Y-98391211D01*
X100628035Y-98400499D01*
X100628036Y-98400499D01*
X100628039Y-98400500D01*
X100628041Y-98400500D01*
X100771959Y-98400500D01*
X100771961Y-98400500D01*
X100910053Y-98359953D01*
X101031128Y-98282143D01*
X101125377Y-98173373D01*
X101185165Y-98042457D01*
X101205647Y-97900000D01*
X101204971Y-97895301D01*
X101185165Y-97757543D01*
X101130600Y-97638064D01*
X101125377Y-97626627D01*
X101031128Y-97517857D01*
X101031127Y-97517856D01*
X101031126Y-97517855D01*
X100910057Y-97440049D01*
X100910054Y-97440047D01*
X100910053Y-97440047D01*
X100773460Y-97399940D01*
X100731347Y-97374954D01*
X100229496Y-96873103D01*
X100222821Y-96860003D01*
X120534417Y-96860003D01*
X120554698Y-97065929D01*
X120554699Y-97065934D01*
X120614768Y-97263954D01*
X120712316Y-97446452D01*
X120799260Y-97552394D01*
X120843590Y-97606410D01*
X120843595Y-97606414D01*
X121003547Y-97737683D01*
X121003548Y-97737683D01*
X121003550Y-97737685D01*
X121186046Y-97835232D01*
X121323997Y-97877078D01*
X121384065Y-97895300D01*
X121384070Y-97895301D01*
X121589997Y-97915583D01*
X121590000Y-97915583D01*
X121590003Y-97915583D01*
X121795929Y-97895301D01*
X121795934Y-97895300D01*
X121800724Y-97893847D01*
X121993954Y-97835232D01*
X122176450Y-97737685D01*
X122336410Y-97606410D01*
X122467685Y-97446450D01*
X122565232Y-97263954D01*
X122625300Y-97065934D01*
X122625301Y-97065929D01*
X122630810Y-97010000D01*
X122988973Y-97010000D01*
X122994738Y-97072216D01*
X123053064Y-97277210D01*
X123148057Y-97467983D01*
X123148062Y-97467992D01*
X123276496Y-97638064D01*
X123276506Y-97638075D01*
X123433995Y-97781647D01*
X123433994Y-97781647D01*
X123615206Y-97893847D01*
X123813941Y-97970838D01*
X123979999Y-98001880D01*
X123980000Y-98001880D01*
X123980000Y-97337445D01*
X124064174Y-97360000D01*
X124195826Y-97360000D01*
X124280000Y-97337445D01*
X124280000Y-98001880D01*
X124446058Y-97970838D01*
X124644793Y-97893847D01*
X124826004Y-97781647D01*
X124983493Y-97638075D01*
X124983503Y-97638064D01*
X125111937Y-97467992D01*
X125111942Y-97467983D01*
X125206935Y-97277210D01*
X125265261Y-97072216D01*
X125271027Y-97010000D01*
X124607445Y-97010000D01*
X124630000Y-96925826D01*
X124630000Y-96794174D01*
X124607445Y-96710000D01*
X125271026Y-96710000D01*
X125265261Y-96647783D01*
X125206935Y-96442789D01*
X125111942Y-96252016D01*
X125111937Y-96252007D01*
X124983503Y-96081935D01*
X124983493Y-96081924D01*
X124826004Y-95938352D01*
X124826005Y-95938352D01*
X124644793Y-95826152D01*
X124446061Y-95749162D01*
X124446055Y-95749160D01*
X124280000Y-95718118D01*
X124280000Y-96382554D01*
X124195826Y-96360000D01*
X124064174Y-96360000D01*
X123980000Y-96382554D01*
X123980000Y-95718119D01*
X123979999Y-95718118D01*
X123813944Y-95749160D01*
X123813938Y-95749162D01*
X123615206Y-95826152D01*
X123433995Y-95938352D01*
X123276506Y-96081924D01*
X123276496Y-96081935D01*
X123148062Y-96252007D01*
X123148057Y-96252016D01*
X123053064Y-96442789D01*
X122994738Y-96647783D01*
X122988973Y-96710000D01*
X123652555Y-96710000D01*
X123630000Y-96794174D01*
X123630000Y-96925826D01*
X123652555Y-97010000D01*
X122988973Y-97010000D01*
X122630810Y-97010000D01*
X122645583Y-96860003D01*
X122645583Y-96859996D01*
X122625301Y-96654070D01*
X122625300Y-96654065D01*
X122566401Y-96459901D01*
X122565232Y-96456046D01*
X122467685Y-96273550D01*
X122450005Y-96252007D01*
X122336414Y-96113595D01*
X122336410Y-96113590D01*
X122297825Y-96081924D01*
X122176452Y-95982316D01*
X121993954Y-95884768D01*
X121795934Y-95824699D01*
X121795929Y-95824698D01*
X121590003Y-95804417D01*
X121589997Y-95804417D01*
X121384070Y-95824698D01*
X121384065Y-95824699D01*
X121186045Y-95884768D01*
X121003547Y-95982316D01*
X120843595Y-96113585D01*
X120843585Y-96113595D01*
X120712316Y-96273547D01*
X120614768Y-96456045D01*
X120554699Y-96654065D01*
X120554698Y-96654070D01*
X120534417Y-96859996D01*
X120534417Y-96860003D01*
X100222821Y-96860003D01*
X100201719Y-96818586D01*
X100200500Y-96803099D01*
X100200500Y-95539002D01*
X100219407Y-95480811D01*
X100224684Y-95474167D01*
X100224807Y-95474023D01*
X100225377Y-95473367D01*
X100285165Y-95342451D01*
X100305647Y-95199994D01*
X100290993Y-95098075D01*
X100285165Y-95057537D01*
X100225377Y-94926622D01*
X100225377Y-94926621D01*
X100131128Y-94817851D01*
X100131127Y-94817850D01*
X100131126Y-94817849D01*
X100010057Y-94740043D01*
X100010054Y-94740041D01*
X100010053Y-94740041D01*
X100010050Y-94740040D01*
X99871964Y-94699494D01*
X99871961Y-94699494D01*
X99728039Y-94699494D01*
X99728035Y-94699494D01*
X99589949Y-94740040D01*
X99589942Y-94740043D01*
X99468873Y-94817849D01*
X99374622Y-94926622D01*
X99314834Y-95057537D01*
X99294353Y-95199991D01*
X99294353Y-95199996D01*
X78992126Y-95199996D01*
X78996450Y-95197685D01*
X79156410Y-95066410D01*
X79287685Y-94906450D01*
X79385232Y-94723954D01*
X79445300Y-94525934D01*
X79445301Y-94525929D01*
X79465583Y-94320003D01*
X120534417Y-94320003D01*
X120554698Y-94525929D01*
X120554699Y-94525934D01*
X120614768Y-94723954D01*
X120712316Y-94906452D01*
X120836308Y-95057537D01*
X120843590Y-95066410D01*
X120843595Y-95066414D01*
X121003547Y-95197683D01*
X121003548Y-95197683D01*
X121003550Y-95197685D01*
X121186046Y-95295232D01*
X121323997Y-95337078D01*
X121384065Y-95355300D01*
X121384070Y-95355301D01*
X121589997Y-95375583D01*
X121590000Y-95375583D01*
X121590003Y-95375583D01*
X121795929Y-95355301D01*
X121795934Y-95355300D01*
X121800724Y-95353847D01*
X121993954Y-95295232D01*
X122176450Y-95197685D01*
X122336410Y-95066410D01*
X122467685Y-94906450D01*
X122565232Y-94723954D01*
X122625300Y-94525934D01*
X122625301Y-94525929D01*
X122630810Y-94470000D01*
X122988973Y-94470000D01*
X122994738Y-94532216D01*
X123053064Y-94737210D01*
X123148057Y-94927983D01*
X123148062Y-94927992D01*
X123276496Y-95098064D01*
X123276506Y-95098075D01*
X123433995Y-95241647D01*
X123433994Y-95241647D01*
X123615206Y-95353847D01*
X123813941Y-95430838D01*
X123979999Y-95461880D01*
X123980000Y-95461880D01*
X123980000Y-94797445D01*
X124064174Y-94820000D01*
X124195826Y-94820000D01*
X124280000Y-94797445D01*
X124280000Y-95461880D01*
X124446058Y-95430838D01*
X124644793Y-95353847D01*
X124826004Y-95241647D01*
X124983493Y-95098075D01*
X124983503Y-95098064D01*
X125111937Y-94927992D01*
X125111942Y-94927983D01*
X125206935Y-94737210D01*
X125265261Y-94532216D01*
X125271027Y-94470000D01*
X124607445Y-94470000D01*
X124630000Y-94385826D01*
X124630000Y-94254174D01*
X124607445Y-94170000D01*
X125271026Y-94170000D01*
X125265261Y-94107783D01*
X125206935Y-93902789D01*
X125111942Y-93712016D01*
X125111937Y-93712007D01*
X124983503Y-93541935D01*
X124983493Y-93541924D01*
X124826004Y-93398352D01*
X124826005Y-93398352D01*
X124644793Y-93286152D01*
X124446061Y-93209162D01*
X124446055Y-93209160D01*
X124280000Y-93178118D01*
X124280000Y-93842554D01*
X124195826Y-93820000D01*
X124064174Y-93820000D01*
X123980000Y-93842554D01*
X123980000Y-93178119D01*
X123979999Y-93178118D01*
X123813944Y-93209160D01*
X123813938Y-93209162D01*
X123615206Y-93286152D01*
X123433995Y-93398352D01*
X123276506Y-93541924D01*
X123276496Y-93541935D01*
X123148062Y-93712007D01*
X123148057Y-93712016D01*
X123053064Y-93902789D01*
X122994738Y-94107783D01*
X122988973Y-94170000D01*
X123652555Y-94170000D01*
X123630000Y-94254174D01*
X123630000Y-94385826D01*
X123652555Y-94470000D01*
X122988973Y-94470000D01*
X122630810Y-94470000D01*
X122645583Y-94320003D01*
X122645583Y-94319996D01*
X122625301Y-94114070D01*
X122625300Y-94114065D01*
X122566401Y-93919901D01*
X122565232Y-93916046D01*
X122467685Y-93733550D01*
X122450005Y-93712007D01*
X122336414Y-93573595D01*
X122336410Y-93573590D01*
X122297825Y-93541924D01*
X122176452Y-93442316D01*
X121993954Y-93344768D01*
X121795934Y-93284699D01*
X121795929Y-93284698D01*
X121590003Y-93264417D01*
X121589997Y-93264417D01*
X121384070Y-93284698D01*
X121384065Y-93284699D01*
X121186045Y-93344768D01*
X121003547Y-93442316D01*
X120843595Y-93573585D01*
X120843585Y-93573595D01*
X120712316Y-93733547D01*
X120614768Y-93916045D01*
X120554699Y-94114065D01*
X120554698Y-94114070D01*
X120534417Y-94319996D01*
X120534417Y-94320003D01*
X79465583Y-94320003D01*
X79465583Y-94319996D01*
X79445301Y-94114070D01*
X79445300Y-94114065D01*
X79386401Y-93919901D01*
X79385232Y-93916046D01*
X79287685Y-93733550D01*
X79270005Y-93712007D01*
X79156414Y-93573595D01*
X79156410Y-93573590D01*
X79117825Y-93541924D01*
X78996452Y-93442316D01*
X78813954Y-93344768D01*
X78615934Y-93284699D01*
X78615929Y-93284698D01*
X78410003Y-93264417D01*
X78409997Y-93264417D01*
X78204070Y-93284698D01*
X78204065Y-93284699D01*
X78006045Y-93344768D01*
X77823547Y-93442316D01*
X77663595Y-93573585D01*
X77663585Y-93573595D01*
X77532316Y-93733547D01*
X77434768Y-93916045D01*
X77374699Y-94114065D01*
X77374698Y-94114070D01*
X77354417Y-94319996D01*
X77354417Y-94320003D01*
X76370000Y-94320003D01*
X76370000Y-94254174D01*
X76347445Y-94170000D01*
X77011026Y-94170000D01*
X77005261Y-94107783D01*
X76946935Y-93902789D01*
X76851942Y-93712016D01*
X76851937Y-93712007D01*
X76723503Y-93541935D01*
X76723493Y-93541924D01*
X76566004Y-93398352D01*
X76566005Y-93398352D01*
X76384793Y-93286152D01*
X76186061Y-93209162D01*
X76186055Y-93209160D01*
X76020000Y-93178118D01*
X76020000Y-93842554D01*
X75935826Y-93820000D01*
X75804174Y-93820000D01*
X75720000Y-93842554D01*
X75720000Y-93178119D01*
X75719999Y-93178118D01*
X75553944Y-93209160D01*
X75553938Y-93209162D01*
X75355206Y-93286152D01*
X75173995Y-93398352D01*
X75016506Y-93541924D01*
X75016496Y-93541935D01*
X74888062Y-93712007D01*
X74888057Y-93712016D01*
X74793064Y-93902789D01*
X74734738Y-94107783D01*
X74728973Y-94170000D01*
X75392555Y-94170000D01*
X75370000Y-94254174D01*
X75370000Y-94385826D01*
X75392555Y-94470000D01*
X74728973Y-94470000D01*
X74500000Y-94470000D01*
X74500000Y-91930000D01*
X74728973Y-91930000D01*
X74734738Y-91992216D01*
X74793064Y-92197210D01*
X74888057Y-92387983D01*
X74888062Y-92387992D01*
X75016496Y-92558064D01*
X75016506Y-92558075D01*
X75173995Y-92701647D01*
X75173994Y-92701647D01*
X75355206Y-92813847D01*
X75553941Y-92890838D01*
X75719999Y-92921880D01*
X75720000Y-92921880D01*
X75720000Y-92257445D01*
X75804174Y-92280000D01*
X75935826Y-92280000D01*
X76020000Y-92257445D01*
X76020000Y-92921880D01*
X76186058Y-92890838D01*
X76384793Y-92813847D01*
X76566004Y-92701647D01*
X76723493Y-92558075D01*
X76723503Y-92558064D01*
X76851937Y-92387992D01*
X76851942Y-92387983D01*
X76946935Y-92197210D01*
X77005261Y-91992216D01*
X77011027Y-91930000D01*
X76347445Y-91930000D01*
X76370000Y-91845826D01*
X76370000Y-91780003D01*
X77354417Y-91780003D01*
X77374698Y-91985929D01*
X77374699Y-91985934D01*
X77434768Y-92183954D01*
X77532316Y-92366452D01*
X77663585Y-92526404D01*
X77663590Y-92526410D01*
X77663595Y-92526414D01*
X77823547Y-92657683D01*
X77823548Y-92657683D01*
X77823550Y-92657685D01*
X78006046Y-92755232D01*
X78143997Y-92797078D01*
X78204065Y-92815300D01*
X78204070Y-92815301D01*
X78409997Y-92835583D01*
X78410000Y-92835583D01*
X78410003Y-92835583D01*
X78615929Y-92815301D01*
X78615934Y-92815300D01*
X78620724Y-92813847D01*
X78813954Y-92755232D01*
X78996450Y-92657685D01*
X79156410Y-92526410D01*
X79287685Y-92366450D01*
X79385232Y-92183954D01*
X79445300Y-91985934D01*
X79445301Y-91985929D01*
X79465583Y-91780003D01*
X120534417Y-91780003D01*
X120554698Y-91985929D01*
X120554699Y-91985934D01*
X120614768Y-92183954D01*
X120712316Y-92366452D01*
X120843585Y-92526404D01*
X120843590Y-92526410D01*
X120843595Y-92526414D01*
X121003547Y-92657683D01*
X121003548Y-92657683D01*
X121003550Y-92657685D01*
X121186046Y-92755232D01*
X121323997Y-92797078D01*
X121384065Y-92815300D01*
X121384070Y-92815301D01*
X121589997Y-92835583D01*
X121590000Y-92835583D01*
X121590003Y-92835583D01*
X121795929Y-92815301D01*
X121795934Y-92815300D01*
X121800724Y-92813847D01*
X121993954Y-92755232D01*
X122176450Y-92657685D01*
X122336410Y-92526410D01*
X122467685Y-92366450D01*
X122565232Y-92183954D01*
X122625300Y-91985934D01*
X122625301Y-91985929D01*
X122630810Y-91930000D01*
X122988973Y-91930000D01*
X122994738Y-91992216D01*
X123053064Y-92197210D01*
X123148057Y-92387983D01*
X123148062Y-92387992D01*
X123276496Y-92558064D01*
X123276506Y-92558075D01*
X123433995Y-92701647D01*
X123433994Y-92701647D01*
X123615206Y-92813847D01*
X123813941Y-92890838D01*
X123979999Y-92921880D01*
X123980000Y-92921880D01*
X123980000Y-92257445D01*
X124064174Y-92280000D01*
X124195826Y-92280000D01*
X124280000Y-92257445D01*
X124280000Y-92921880D01*
X124446058Y-92890838D01*
X124644793Y-92813847D01*
X124826004Y-92701647D01*
X124983493Y-92558075D01*
X124983503Y-92558064D01*
X125111937Y-92387992D01*
X125111942Y-92387983D01*
X125206935Y-92197210D01*
X125265261Y-91992216D01*
X125271027Y-91930000D01*
X124607445Y-91930000D01*
X124630000Y-91845826D01*
X124630000Y-91714174D01*
X124607445Y-91630000D01*
X125271026Y-91630000D01*
X125265261Y-91567783D01*
X125206935Y-91362789D01*
X125111942Y-91172016D01*
X125111937Y-91172007D01*
X124983503Y-91001935D01*
X124983493Y-91001924D01*
X124826004Y-90858352D01*
X124826005Y-90858352D01*
X124644793Y-90746152D01*
X124446061Y-90669162D01*
X124446055Y-90669160D01*
X124280000Y-90638118D01*
X124280000Y-91302554D01*
X124195826Y-91280000D01*
X124064174Y-91280000D01*
X123980000Y-91302554D01*
X123980000Y-90638119D01*
X123979999Y-90638118D01*
X123813944Y-90669160D01*
X123813938Y-90669162D01*
X123615206Y-90746152D01*
X123433995Y-90858352D01*
X123276506Y-91001924D01*
X123276496Y-91001935D01*
X123148062Y-91172007D01*
X123148057Y-91172016D01*
X123053064Y-91362789D01*
X122994738Y-91567783D01*
X122988973Y-91630000D01*
X123652555Y-91630000D01*
X123630000Y-91714174D01*
X123630000Y-91845826D01*
X123652555Y-91930000D01*
X122988973Y-91930000D01*
X122630810Y-91930000D01*
X122645583Y-91780003D01*
X122645583Y-91779996D01*
X122625301Y-91574070D01*
X122625300Y-91574065D01*
X122566401Y-91379901D01*
X122565232Y-91376046D01*
X122467685Y-91193550D01*
X122450005Y-91172007D01*
X122336414Y-91033595D01*
X122336410Y-91033590D01*
X122297825Y-91001924D01*
X122176452Y-90902316D01*
X121993954Y-90804768D01*
X121795934Y-90744699D01*
X121795929Y-90744698D01*
X121590003Y-90724417D01*
X121589997Y-90724417D01*
X121384070Y-90744698D01*
X121384065Y-90744699D01*
X121186045Y-90804768D01*
X121003547Y-90902316D01*
X120843595Y-91033585D01*
X120843585Y-91033595D01*
X120712316Y-91193547D01*
X120614768Y-91376045D01*
X120554699Y-91574065D01*
X120554698Y-91574070D01*
X120534417Y-91779996D01*
X120534417Y-91780003D01*
X79465583Y-91780003D01*
X79465583Y-91779996D01*
X79445301Y-91574070D01*
X79445300Y-91574065D01*
X79386401Y-91379901D01*
X79385232Y-91376046D01*
X79287685Y-91193550D01*
X79270005Y-91172007D01*
X79156414Y-91033595D01*
X79156410Y-91033590D01*
X79117825Y-91001924D01*
X78996452Y-90902316D01*
X78813954Y-90804768D01*
X78615934Y-90744699D01*
X78615929Y-90744698D01*
X78410003Y-90724417D01*
X78409997Y-90724417D01*
X78204070Y-90744698D01*
X78204065Y-90744699D01*
X78006045Y-90804768D01*
X77823547Y-90902316D01*
X77663595Y-91033585D01*
X77663585Y-91033595D01*
X77532316Y-91193547D01*
X77434768Y-91376045D01*
X77374699Y-91574065D01*
X77374698Y-91574070D01*
X77354417Y-91779996D01*
X77354417Y-91780003D01*
X76370000Y-91780003D01*
X76370000Y-91714174D01*
X76347445Y-91630000D01*
X77011026Y-91630000D01*
X77005261Y-91567783D01*
X76946935Y-91362789D01*
X76851942Y-91172016D01*
X76851937Y-91172007D01*
X76723503Y-91001935D01*
X76723493Y-91001924D01*
X76566004Y-90858352D01*
X76566005Y-90858352D01*
X76384793Y-90746152D01*
X76186061Y-90669162D01*
X76186055Y-90669160D01*
X76020000Y-90638118D01*
X76020000Y-91302554D01*
X75935826Y-91280000D01*
X75804174Y-91280000D01*
X75720000Y-91302554D01*
X75720000Y-90638119D01*
X75719999Y-90638118D01*
X75553944Y-90669160D01*
X75553938Y-90669162D01*
X75355206Y-90746152D01*
X75173995Y-90858352D01*
X75016506Y-91001924D01*
X75016496Y-91001935D01*
X74888062Y-91172007D01*
X74888057Y-91172016D01*
X74793064Y-91362789D01*
X74734738Y-91567783D01*
X74728973Y-91630000D01*
X75392555Y-91630000D01*
X75370000Y-91714174D01*
X75370000Y-91845826D01*
X75392555Y-91930000D01*
X74728973Y-91930000D01*
X74500000Y-91930000D01*
X74500000Y-89390000D01*
X74728973Y-89390000D01*
X74734738Y-89452216D01*
X74793064Y-89657210D01*
X74888057Y-89847983D01*
X74888062Y-89847992D01*
X75016496Y-90018064D01*
X75016506Y-90018075D01*
X75173995Y-90161647D01*
X75173994Y-90161647D01*
X75355206Y-90273847D01*
X75553941Y-90350838D01*
X75719999Y-90381880D01*
X75720000Y-90381880D01*
X75720000Y-89717445D01*
X75804174Y-89740000D01*
X75935826Y-89740000D01*
X76020000Y-89717445D01*
X76020000Y-90381880D01*
X76186058Y-90350838D01*
X76384793Y-90273847D01*
X76566004Y-90161647D01*
X76723493Y-90018075D01*
X76723503Y-90018064D01*
X76851937Y-89847992D01*
X76851942Y-89847983D01*
X76946935Y-89657210D01*
X77005261Y-89452216D01*
X77011027Y-89390000D01*
X76347445Y-89390000D01*
X76370000Y-89305826D01*
X76370000Y-89240003D01*
X77354417Y-89240003D01*
X77374698Y-89445929D01*
X77374699Y-89445934D01*
X77434768Y-89643954D01*
X77532316Y-89826452D01*
X77663585Y-89986404D01*
X77663590Y-89986410D01*
X77663595Y-89986414D01*
X77823547Y-90117683D01*
X77823548Y-90117683D01*
X77823550Y-90117685D01*
X78006046Y-90215232D01*
X78143997Y-90257078D01*
X78204065Y-90275300D01*
X78204070Y-90275301D01*
X78409997Y-90295583D01*
X78410000Y-90295583D01*
X78410003Y-90295583D01*
X78615929Y-90275301D01*
X78615934Y-90275300D01*
X78620724Y-90273847D01*
X78813954Y-90215232D01*
X78996450Y-90117685D01*
X79156410Y-89986410D01*
X79287685Y-89826450D01*
X79385232Y-89643954D01*
X79445300Y-89445934D01*
X79445301Y-89445929D01*
X79465583Y-89240003D01*
X120534417Y-89240003D01*
X120554698Y-89445929D01*
X120554699Y-89445934D01*
X120614768Y-89643954D01*
X120712316Y-89826452D01*
X120843585Y-89986404D01*
X120843590Y-89986410D01*
X120843595Y-89986414D01*
X121003547Y-90117683D01*
X121003548Y-90117683D01*
X121003550Y-90117685D01*
X121186046Y-90215232D01*
X121323997Y-90257078D01*
X121384065Y-90275300D01*
X121384070Y-90275301D01*
X121589997Y-90295583D01*
X121590000Y-90295583D01*
X121590003Y-90295583D01*
X121795929Y-90275301D01*
X121795934Y-90275300D01*
X121800724Y-90273847D01*
X121993954Y-90215232D01*
X122176450Y-90117685D01*
X122336410Y-89986410D01*
X122467685Y-89826450D01*
X122565232Y-89643954D01*
X122625300Y-89445934D01*
X122625301Y-89445929D01*
X122630810Y-89390000D01*
X122988973Y-89390000D01*
X122994738Y-89452216D01*
X123053064Y-89657210D01*
X123148057Y-89847983D01*
X123148062Y-89847992D01*
X123276496Y-90018064D01*
X123276506Y-90018075D01*
X123433995Y-90161647D01*
X123433994Y-90161647D01*
X123615206Y-90273847D01*
X123813941Y-90350838D01*
X123979999Y-90381880D01*
X123980000Y-90381880D01*
X123980000Y-89717445D01*
X124064174Y-89740000D01*
X124195826Y-89740000D01*
X124280000Y-89717445D01*
X124280000Y-90381880D01*
X124446058Y-90350838D01*
X124644793Y-90273847D01*
X124826004Y-90161647D01*
X124983493Y-90018075D01*
X124983503Y-90018064D01*
X125111937Y-89847992D01*
X125111942Y-89847983D01*
X125206935Y-89657210D01*
X125265261Y-89452216D01*
X125271027Y-89390000D01*
X124607445Y-89390000D01*
X124630000Y-89305826D01*
X124630000Y-89174174D01*
X124607445Y-89090000D01*
X125271026Y-89090000D01*
X125265261Y-89027783D01*
X125206935Y-88822789D01*
X125111942Y-88632016D01*
X125111937Y-88632007D01*
X124983503Y-88461935D01*
X124983493Y-88461924D01*
X124826004Y-88318352D01*
X124826005Y-88318352D01*
X124644793Y-88206152D01*
X124446061Y-88129162D01*
X124446055Y-88129160D01*
X124280000Y-88098118D01*
X124280000Y-88762554D01*
X124195826Y-88740000D01*
X124064174Y-88740000D01*
X123980000Y-88762554D01*
X123980000Y-88098119D01*
X123979999Y-88098118D01*
X123813944Y-88129160D01*
X123813938Y-88129162D01*
X123615206Y-88206152D01*
X123433995Y-88318352D01*
X123276506Y-88461924D01*
X123276496Y-88461935D01*
X123148062Y-88632007D01*
X123148057Y-88632016D01*
X123053064Y-88822789D01*
X122994738Y-89027783D01*
X122988973Y-89090000D01*
X123652555Y-89090000D01*
X123630000Y-89174174D01*
X123630000Y-89305826D01*
X123652555Y-89390000D01*
X122988973Y-89390000D01*
X122630810Y-89390000D01*
X122645583Y-89240003D01*
X122645583Y-89239996D01*
X122625301Y-89034070D01*
X122625300Y-89034065D01*
X122566401Y-88839901D01*
X122565232Y-88836046D01*
X122467685Y-88653550D01*
X122450005Y-88632007D01*
X122336414Y-88493595D01*
X122336410Y-88493590D01*
X122297825Y-88461924D01*
X122176452Y-88362316D01*
X121993954Y-88264768D01*
X121795934Y-88204699D01*
X121795929Y-88204698D01*
X121590003Y-88184417D01*
X121589997Y-88184417D01*
X121384070Y-88204698D01*
X121384065Y-88204699D01*
X121186045Y-88264768D01*
X121003547Y-88362316D01*
X120843595Y-88493585D01*
X120843585Y-88493595D01*
X120712316Y-88653547D01*
X120614768Y-88836045D01*
X120554699Y-89034065D01*
X120554698Y-89034070D01*
X120534417Y-89239996D01*
X120534417Y-89240003D01*
X79465583Y-89240003D01*
X79465583Y-89239996D01*
X79445301Y-89034070D01*
X79445300Y-89034065D01*
X79386401Y-88839901D01*
X79385232Y-88836046D01*
X79287685Y-88653550D01*
X79270005Y-88632007D01*
X79156414Y-88493595D01*
X79156410Y-88493590D01*
X79117825Y-88461924D01*
X78996452Y-88362316D01*
X78813954Y-88264768D01*
X78615934Y-88204699D01*
X78615929Y-88204698D01*
X78410003Y-88184417D01*
X78409997Y-88184417D01*
X78204070Y-88204698D01*
X78204065Y-88204699D01*
X78006045Y-88264768D01*
X77823547Y-88362316D01*
X77663595Y-88493585D01*
X77663585Y-88493595D01*
X77532316Y-88653547D01*
X77434768Y-88836045D01*
X77374699Y-89034065D01*
X77374698Y-89034070D01*
X77354417Y-89239996D01*
X77354417Y-89240003D01*
X76370000Y-89240003D01*
X76370000Y-89174174D01*
X76347445Y-89090000D01*
X77011026Y-89090000D01*
X77005261Y-89027783D01*
X76946935Y-88822789D01*
X76851942Y-88632016D01*
X76851937Y-88632007D01*
X76723503Y-88461935D01*
X76723493Y-88461924D01*
X76566004Y-88318352D01*
X76566005Y-88318352D01*
X76384793Y-88206152D01*
X76186061Y-88129162D01*
X76186055Y-88129160D01*
X76020000Y-88098118D01*
X76020000Y-88762554D01*
X75935826Y-88740000D01*
X75804174Y-88740000D01*
X75720000Y-88762554D01*
X75720000Y-88098119D01*
X75719999Y-88098118D01*
X75553944Y-88129160D01*
X75553938Y-88129162D01*
X75355206Y-88206152D01*
X75173995Y-88318352D01*
X75016506Y-88461924D01*
X75016496Y-88461935D01*
X74888062Y-88632007D01*
X74888057Y-88632016D01*
X74793064Y-88822789D01*
X74734738Y-89027783D01*
X74728973Y-89090000D01*
X75392555Y-89090000D01*
X75370000Y-89174174D01*
X75370000Y-89305826D01*
X75392555Y-89390000D01*
X74728973Y-89390000D01*
X74500000Y-89390000D01*
X74500000Y-86850000D01*
X74728973Y-86850000D01*
X74734738Y-86912216D01*
X74793064Y-87117210D01*
X74888057Y-87307983D01*
X74888062Y-87307992D01*
X75016496Y-87478064D01*
X75016506Y-87478075D01*
X75173995Y-87621647D01*
X75173994Y-87621647D01*
X75355206Y-87733847D01*
X75553941Y-87810838D01*
X75719999Y-87841880D01*
X75720000Y-87841880D01*
X75720000Y-87177445D01*
X75804174Y-87200000D01*
X75935826Y-87200000D01*
X76020000Y-87177445D01*
X76020000Y-87841880D01*
X76186058Y-87810838D01*
X76384793Y-87733847D01*
X76566004Y-87621647D01*
X76723493Y-87478075D01*
X76723503Y-87478064D01*
X76851937Y-87307992D01*
X76851942Y-87307983D01*
X76946935Y-87117210D01*
X77005261Y-86912216D01*
X77011027Y-86850000D01*
X76347445Y-86850000D01*
X76370000Y-86765826D01*
X76370000Y-86700003D01*
X77354417Y-86700003D01*
X77374698Y-86905929D01*
X77374699Y-86905934D01*
X77434768Y-87103954D01*
X77532316Y-87286452D01*
X77663585Y-87446404D01*
X77663590Y-87446410D01*
X77663595Y-87446414D01*
X77823547Y-87577683D01*
X77823548Y-87577683D01*
X77823550Y-87577685D01*
X78006046Y-87675232D01*
X78143997Y-87717078D01*
X78204065Y-87735300D01*
X78204070Y-87735301D01*
X78409997Y-87755583D01*
X78410000Y-87755583D01*
X78410003Y-87755583D01*
X78615929Y-87735301D01*
X78615934Y-87735300D01*
X78620724Y-87733847D01*
X78813954Y-87675232D01*
X78996450Y-87577685D01*
X79156410Y-87446410D01*
X79287685Y-87286450D01*
X79385232Y-87103954D01*
X79445300Y-86905934D01*
X79445301Y-86905929D01*
X79465583Y-86700003D01*
X120534417Y-86700003D01*
X120554698Y-86905929D01*
X120554699Y-86905934D01*
X120614768Y-87103954D01*
X120712316Y-87286452D01*
X120843585Y-87446404D01*
X120843590Y-87446410D01*
X120843595Y-87446414D01*
X121003547Y-87577683D01*
X121003548Y-87577683D01*
X121003550Y-87577685D01*
X121186046Y-87675232D01*
X121323997Y-87717078D01*
X121384065Y-87735300D01*
X121384070Y-87735301D01*
X121589997Y-87755583D01*
X121590000Y-87755583D01*
X121590003Y-87755583D01*
X121795929Y-87735301D01*
X121795934Y-87735300D01*
X121800724Y-87733847D01*
X121993954Y-87675232D01*
X122176450Y-87577685D01*
X122336410Y-87446410D01*
X122467685Y-87286450D01*
X122565232Y-87103954D01*
X122625300Y-86905934D01*
X122625301Y-86905929D01*
X122630810Y-86850000D01*
X122988973Y-86850000D01*
X122994738Y-86912216D01*
X123053064Y-87117210D01*
X123148057Y-87307983D01*
X123148062Y-87307992D01*
X123276496Y-87478064D01*
X123276506Y-87478075D01*
X123433995Y-87621647D01*
X123433994Y-87621647D01*
X123615206Y-87733847D01*
X123813941Y-87810838D01*
X123979999Y-87841880D01*
X123980000Y-87841880D01*
X123980000Y-87177445D01*
X124064174Y-87200000D01*
X124195826Y-87200000D01*
X124280000Y-87177445D01*
X124280000Y-87841880D01*
X124446058Y-87810838D01*
X124644793Y-87733847D01*
X124826004Y-87621647D01*
X124983493Y-87478075D01*
X124983503Y-87478064D01*
X125111937Y-87307992D01*
X125111942Y-87307983D01*
X125206935Y-87117210D01*
X125265261Y-86912216D01*
X125271027Y-86850000D01*
X124607445Y-86850000D01*
X124630000Y-86765826D01*
X124630000Y-86634174D01*
X124607445Y-86550000D01*
X125271026Y-86550000D01*
X125265261Y-86487783D01*
X125206935Y-86282789D01*
X125111942Y-86092016D01*
X125111937Y-86092007D01*
X124983503Y-85921935D01*
X124983493Y-85921924D01*
X124826004Y-85778352D01*
X124826005Y-85778352D01*
X124644793Y-85666152D01*
X124446061Y-85589162D01*
X124446055Y-85589160D01*
X124280000Y-85558118D01*
X124280000Y-86222554D01*
X124195826Y-86200000D01*
X124064174Y-86200000D01*
X123980000Y-86222554D01*
X123980000Y-85558119D01*
X123979999Y-85558118D01*
X123813944Y-85589160D01*
X123813938Y-85589162D01*
X123615206Y-85666152D01*
X123433995Y-85778352D01*
X123276506Y-85921924D01*
X123276496Y-85921935D01*
X123148062Y-86092007D01*
X123148057Y-86092016D01*
X123053064Y-86282789D01*
X122994738Y-86487783D01*
X122988973Y-86550000D01*
X123652555Y-86550000D01*
X123630000Y-86634174D01*
X123630000Y-86765826D01*
X123652555Y-86850000D01*
X122988973Y-86850000D01*
X122630810Y-86850000D01*
X122645583Y-86700003D01*
X122645583Y-86699996D01*
X122625301Y-86494070D01*
X122625300Y-86494065D01*
X122566401Y-86299901D01*
X122565232Y-86296046D01*
X122467685Y-86113550D01*
X122450005Y-86092007D01*
X122336414Y-85953595D01*
X122336410Y-85953590D01*
X122297825Y-85921924D01*
X122176452Y-85822316D01*
X121993954Y-85724768D01*
X121795934Y-85664699D01*
X121795929Y-85664698D01*
X121590003Y-85644417D01*
X121589997Y-85644417D01*
X121384070Y-85664698D01*
X121384065Y-85664699D01*
X121186045Y-85724768D01*
X121003547Y-85822316D01*
X120843595Y-85953585D01*
X120843585Y-85953595D01*
X120712316Y-86113547D01*
X120614768Y-86296045D01*
X120554699Y-86494065D01*
X120554698Y-86494070D01*
X120534417Y-86699996D01*
X120534417Y-86700003D01*
X79465583Y-86700003D01*
X79465583Y-86699996D01*
X79445301Y-86494070D01*
X79445300Y-86494065D01*
X79386401Y-86299901D01*
X79385232Y-86296046D01*
X79287685Y-86113550D01*
X79270005Y-86092007D01*
X79156414Y-85953595D01*
X79156410Y-85953590D01*
X79117825Y-85921924D01*
X78996452Y-85822316D01*
X78813954Y-85724768D01*
X78615934Y-85664699D01*
X78615929Y-85664698D01*
X78410003Y-85644417D01*
X78409997Y-85644417D01*
X78204070Y-85664698D01*
X78204065Y-85664699D01*
X78006045Y-85724768D01*
X77823547Y-85822316D01*
X77663595Y-85953585D01*
X77663585Y-85953595D01*
X77532316Y-86113547D01*
X77434768Y-86296045D01*
X77374699Y-86494065D01*
X77374698Y-86494070D01*
X77354417Y-86699996D01*
X77354417Y-86700003D01*
X76370000Y-86700003D01*
X76370000Y-86634174D01*
X76347445Y-86550000D01*
X77011026Y-86550000D01*
X77005261Y-86487783D01*
X76946935Y-86282789D01*
X76851942Y-86092016D01*
X76851937Y-86092007D01*
X76723503Y-85921935D01*
X76723493Y-85921924D01*
X76566004Y-85778352D01*
X76566005Y-85778352D01*
X76384793Y-85666152D01*
X76186061Y-85589162D01*
X76186055Y-85589160D01*
X76020000Y-85558118D01*
X76020000Y-86222554D01*
X75935826Y-86200000D01*
X75804174Y-86200000D01*
X75720000Y-86222554D01*
X75720000Y-85558119D01*
X75719999Y-85558118D01*
X75553944Y-85589160D01*
X75553938Y-85589162D01*
X75355206Y-85666152D01*
X75173995Y-85778352D01*
X75016506Y-85921924D01*
X75016496Y-85921935D01*
X74888062Y-86092007D01*
X74888057Y-86092016D01*
X74793064Y-86282789D01*
X74734738Y-86487783D01*
X74728973Y-86550000D01*
X75392555Y-86550000D01*
X75370000Y-86634174D01*
X75370000Y-86765826D01*
X75392555Y-86850000D01*
X74728973Y-86850000D01*
X74500000Y-86850000D01*
X74500000Y-84310000D01*
X74728973Y-84310000D01*
X74734738Y-84372216D01*
X74793064Y-84577210D01*
X74888057Y-84767983D01*
X74888062Y-84767992D01*
X75016496Y-84938064D01*
X75016506Y-84938075D01*
X75173995Y-85081647D01*
X75173994Y-85081647D01*
X75355206Y-85193847D01*
X75553941Y-85270838D01*
X75719999Y-85301880D01*
X75720000Y-85301880D01*
X75720000Y-84637445D01*
X75804174Y-84660000D01*
X75935826Y-84660000D01*
X76020000Y-84637445D01*
X76020000Y-85301880D01*
X76186058Y-85270838D01*
X76384793Y-85193847D01*
X76566004Y-85081647D01*
X76723493Y-84938075D01*
X76723503Y-84938064D01*
X76851937Y-84767992D01*
X76851942Y-84767983D01*
X76946935Y-84577210D01*
X77005261Y-84372216D01*
X77011027Y-84310000D01*
X76347445Y-84310000D01*
X76370000Y-84225826D01*
X76370000Y-84160003D01*
X77354417Y-84160003D01*
X77374698Y-84365929D01*
X77374699Y-84365934D01*
X77434768Y-84563954D01*
X77532316Y-84746452D01*
X77663585Y-84906404D01*
X77663590Y-84906410D01*
X77663595Y-84906414D01*
X77823547Y-85037683D01*
X77823548Y-85037683D01*
X77823550Y-85037685D01*
X78006046Y-85135232D01*
X78143997Y-85177078D01*
X78204065Y-85195300D01*
X78204070Y-85195301D01*
X78409997Y-85215583D01*
X78410000Y-85215583D01*
X78410003Y-85215583D01*
X78615929Y-85195301D01*
X78615934Y-85195300D01*
X78620724Y-85193847D01*
X78813954Y-85135232D01*
X78996450Y-85037685D01*
X79156410Y-84906410D01*
X79287685Y-84746450D01*
X79385232Y-84563954D01*
X79445300Y-84365934D01*
X79445301Y-84365929D01*
X79465583Y-84160003D01*
X120534417Y-84160003D01*
X120554698Y-84365929D01*
X120554699Y-84365934D01*
X120614768Y-84563954D01*
X120712316Y-84746452D01*
X120843585Y-84906404D01*
X120843590Y-84906410D01*
X120843595Y-84906414D01*
X121003547Y-85037683D01*
X121003548Y-85037683D01*
X121003550Y-85037685D01*
X121186046Y-85135232D01*
X121323997Y-85177078D01*
X121384065Y-85195300D01*
X121384070Y-85195301D01*
X121589997Y-85215583D01*
X121590000Y-85215583D01*
X121590003Y-85215583D01*
X121795929Y-85195301D01*
X121795934Y-85195300D01*
X121800724Y-85193847D01*
X121993954Y-85135232D01*
X122176450Y-85037685D01*
X122336410Y-84906410D01*
X122467685Y-84746450D01*
X122565232Y-84563954D01*
X122625300Y-84365934D01*
X122625301Y-84365929D01*
X122630810Y-84310000D01*
X122988973Y-84310000D01*
X122994738Y-84372216D01*
X123053064Y-84577210D01*
X123148057Y-84767983D01*
X123148062Y-84767992D01*
X123276496Y-84938064D01*
X123276506Y-84938075D01*
X123433995Y-85081647D01*
X123433994Y-85081647D01*
X123615206Y-85193847D01*
X123813941Y-85270838D01*
X123979999Y-85301880D01*
X123980000Y-85301880D01*
X123980000Y-84637445D01*
X124064174Y-84660000D01*
X124195826Y-84660000D01*
X124280000Y-84637445D01*
X124280000Y-85301880D01*
X124446058Y-85270838D01*
X124644793Y-85193847D01*
X124826004Y-85081647D01*
X124983493Y-84938075D01*
X124983503Y-84938064D01*
X125111937Y-84767992D01*
X125111942Y-84767983D01*
X125206935Y-84577210D01*
X125265261Y-84372216D01*
X125271027Y-84310000D01*
X124607445Y-84310000D01*
X124630000Y-84225826D01*
X124630000Y-84094174D01*
X124607445Y-84010000D01*
X125271026Y-84010000D01*
X125265261Y-83947783D01*
X125206935Y-83742789D01*
X125111942Y-83552016D01*
X125111937Y-83552007D01*
X124983503Y-83381935D01*
X124983493Y-83381924D01*
X124826004Y-83238352D01*
X124826005Y-83238352D01*
X124644793Y-83126152D01*
X124446061Y-83049162D01*
X124446055Y-83049160D01*
X124280000Y-83018118D01*
X124280000Y-83682554D01*
X124195826Y-83660000D01*
X124064174Y-83660000D01*
X123980000Y-83682554D01*
X123980000Y-83018119D01*
X123979999Y-83018118D01*
X123813944Y-83049160D01*
X123813938Y-83049162D01*
X123615206Y-83126152D01*
X123433995Y-83238352D01*
X123276506Y-83381924D01*
X123276496Y-83381935D01*
X123148062Y-83552007D01*
X123148057Y-83552016D01*
X123053064Y-83742789D01*
X122994738Y-83947783D01*
X122988973Y-84010000D01*
X123652555Y-84010000D01*
X123630000Y-84094174D01*
X123630000Y-84225826D01*
X123652555Y-84310000D01*
X122988973Y-84310000D01*
X122630810Y-84310000D01*
X122645583Y-84160003D01*
X122645583Y-84159996D01*
X122625301Y-83954070D01*
X122625300Y-83954065D01*
X122566401Y-83759901D01*
X122565232Y-83756046D01*
X122467685Y-83573550D01*
X122450005Y-83552007D01*
X122336414Y-83413595D01*
X122336410Y-83413590D01*
X122297825Y-83381924D01*
X122176452Y-83282316D01*
X121993954Y-83184768D01*
X121795934Y-83124699D01*
X121795929Y-83124698D01*
X121590003Y-83104417D01*
X121589997Y-83104417D01*
X121384070Y-83124698D01*
X121384065Y-83124699D01*
X121186045Y-83184768D01*
X121003547Y-83282316D01*
X120843595Y-83413585D01*
X120843585Y-83413595D01*
X120712316Y-83573547D01*
X120614768Y-83756045D01*
X120554699Y-83954065D01*
X120554698Y-83954070D01*
X120534417Y-84159996D01*
X120534417Y-84160003D01*
X79465583Y-84160003D01*
X79465583Y-84159996D01*
X79445301Y-83954070D01*
X79445300Y-83954065D01*
X79386401Y-83759901D01*
X79385232Y-83756046D01*
X79287685Y-83573550D01*
X79270005Y-83552007D01*
X79156414Y-83413595D01*
X79156410Y-83413590D01*
X79117825Y-83381924D01*
X78996452Y-83282316D01*
X78813954Y-83184768D01*
X78615934Y-83124699D01*
X78615929Y-83124698D01*
X78410003Y-83104417D01*
X78409997Y-83104417D01*
X78204070Y-83124698D01*
X78204065Y-83124699D01*
X78006045Y-83184768D01*
X77823547Y-83282316D01*
X77663595Y-83413585D01*
X77663585Y-83413595D01*
X77532316Y-83573547D01*
X77434768Y-83756045D01*
X77374699Y-83954065D01*
X77374698Y-83954070D01*
X77354417Y-84159996D01*
X77354417Y-84160003D01*
X76370000Y-84160003D01*
X76370000Y-84094174D01*
X76347445Y-84010000D01*
X77011026Y-84010000D01*
X77005261Y-83947783D01*
X76946935Y-83742789D01*
X76851942Y-83552016D01*
X76851937Y-83552007D01*
X76723503Y-83381935D01*
X76723493Y-83381924D01*
X76566004Y-83238352D01*
X76566005Y-83238352D01*
X76384793Y-83126152D01*
X76186061Y-83049162D01*
X76186055Y-83049160D01*
X76020000Y-83018118D01*
X76020000Y-83682554D01*
X75935826Y-83660000D01*
X75804174Y-83660000D01*
X75720000Y-83682554D01*
X75720000Y-83018119D01*
X75719999Y-83018118D01*
X75553944Y-83049160D01*
X75553938Y-83049162D01*
X75355206Y-83126152D01*
X75173995Y-83238352D01*
X75016506Y-83381924D01*
X75016496Y-83381935D01*
X74888062Y-83552007D01*
X74888057Y-83552016D01*
X74793064Y-83742789D01*
X74734738Y-83947783D01*
X74728973Y-84010000D01*
X75392555Y-84010000D01*
X75370000Y-84094174D01*
X75370000Y-84225826D01*
X75392555Y-84310000D01*
X74728973Y-84310000D01*
X74500000Y-84310000D01*
X74500000Y-81770000D01*
X74728973Y-81770000D01*
X74734738Y-81832216D01*
X74793064Y-82037210D01*
X74888057Y-82227983D01*
X74888062Y-82227992D01*
X75016496Y-82398064D01*
X75016506Y-82398075D01*
X75173995Y-82541647D01*
X75173994Y-82541647D01*
X75355206Y-82653847D01*
X75553941Y-82730838D01*
X75719999Y-82761880D01*
X75720000Y-82761880D01*
X75720000Y-82097445D01*
X75804174Y-82120000D01*
X75935826Y-82120000D01*
X76020000Y-82097445D01*
X76020000Y-82761880D01*
X76186058Y-82730838D01*
X76384793Y-82653847D01*
X76566004Y-82541647D01*
X76723493Y-82398075D01*
X76723503Y-82398064D01*
X76851937Y-82227992D01*
X76851942Y-82227983D01*
X76946935Y-82037210D01*
X77005261Y-81832216D01*
X77011027Y-81770000D01*
X76347445Y-81770000D01*
X76370000Y-81685826D01*
X76370000Y-81620003D01*
X77354417Y-81620003D01*
X77374698Y-81825929D01*
X77374699Y-81825934D01*
X77434768Y-82023954D01*
X77532316Y-82206452D01*
X77663585Y-82366404D01*
X77663590Y-82366410D01*
X77663595Y-82366414D01*
X77823547Y-82497683D01*
X77823548Y-82497683D01*
X77823550Y-82497685D01*
X78006046Y-82595232D01*
X78143997Y-82637078D01*
X78204065Y-82655300D01*
X78204070Y-82655301D01*
X78409997Y-82675583D01*
X78410000Y-82675583D01*
X78410003Y-82675583D01*
X78615929Y-82655301D01*
X78615934Y-82655300D01*
X78620724Y-82653847D01*
X78813954Y-82595232D01*
X78996450Y-82497685D01*
X79156410Y-82366410D01*
X79287685Y-82206450D01*
X79385232Y-82023954D01*
X79445300Y-81825934D01*
X79445301Y-81825929D01*
X79465583Y-81620003D01*
X120534417Y-81620003D01*
X120554698Y-81825929D01*
X120554699Y-81825934D01*
X120614768Y-82023954D01*
X120712316Y-82206452D01*
X120843585Y-82366404D01*
X120843590Y-82366410D01*
X120843595Y-82366414D01*
X121003547Y-82497683D01*
X121003548Y-82497683D01*
X121003550Y-82497685D01*
X121186046Y-82595232D01*
X121323997Y-82637078D01*
X121384065Y-82655300D01*
X121384070Y-82655301D01*
X121589997Y-82675583D01*
X121590000Y-82675583D01*
X121590003Y-82675583D01*
X121795929Y-82655301D01*
X121795934Y-82655300D01*
X121800724Y-82653847D01*
X121993954Y-82595232D01*
X122176450Y-82497685D01*
X122336410Y-82366410D01*
X122467685Y-82206450D01*
X122565232Y-82023954D01*
X122625300Y-81825934D01*
X122625301Y-81825929D01*
X122630810Y-81770000D01*
X122988973Y-81770000D01*
X122994738Y-81832216D01*
X123053064Y-82037210D01*
X123148057Y-82227983D01*
X123148062Y-82227992D01*
X123276496Y-82398064D01*
X123276506Y-82398075D01*
X123433995Y-82541647D01*
X123433994Y-82541647D01*
X123615206Y-82653847D01*
X123813941Y-82730838D01*
X123979999Y-82761880D01*
X123980000Y-82761880D01*
X123980000Y-82097445D01*
X124064174Y-82120000D01*
X124195826Y-82120000D01*
X124280000Y-82097445D01*
X124280000Y-82761880D01*
X124446058Y-82730838D01*
X124644793Y-82653847D01*
X124826004Y-82541647D01*
X124983493Y-82398075D01*
X124983503Y-82398064D01*
X125111937Y-82227992D01*
X125111942Y-82227983D01*
X125206935Y-82037210D01*
X125265261Y-81832216D01*
X125271027Y-81770000D01*
X124607445Y-81770000D01*
X124630000Y-81685826D01*
X124630000Y-81554174D01*
X124607445Y-81470000D01*
X125271026Y-81470000D01*
X125265261Y-81407783D01*
X125206935Y-81202789D01*
X125111942Y-81012016D01*
X125111937Y-81012007D01*
X124983503Y-80841935D01*
X124983493Y-80841924D01*
X124826004Y-80698352D01*
X124826005Y-80698352D01*
X124644793Y-80586152D01*
X124446061Y-80509162D01*
X124446055Y-80509160D01*
X124280000Y-80478118D01*
X124280000Y-81142554D01*
X124195826Y-81120000D01*
X124064174Y-81120000D01*
X123980000Y-81142554D01*
X123980000Y-80478119D01*
X123979999Y-80478118D01*
X123813944Y-80509160D01*
X123813938Y-80509162D01*
X123615206Y-80586152D01*
X123433995Y-80698352D01*
X123276506Y-80841924D01*
X123276496Y-80841935D01*
X123148062Y-81012007D01*
X123148057Y-81012016D01*
X123053064Y-81202789D01*
X122994738Y-81407783D01*
X122988973Y-81470000D01*
X123652555Y-81470000D01*
X123630000Y-81554174D01*
X123630000Y-81685826D01*
X123652555Y-81770000D01*
X122988973Y-81770000D01*
X122630810Y-81770000D01*
X122645583Y-81620003D01*
X122645583Y-81619996D01*
X122625301Y-81414070D01*
X122625300Y-81414065D01*
X122566401Y-81219901D01*
X122565232Y-81216046D01*
X122467685Y-81033550D01*
X122450005Y-81012007D01*
X122336414Y-80873595D01*
X122336410Y-80873590D01*
X122297825Y-80841924D01*
X122176452Y-80742316D01*
X121993954Y-80644768D01*
X121795934Y-80584699D01*
X121795929Y-80584698D01*
X121590003Y-80564417D01*
X121589997Y-80564417D01*
X121384070Y-80584698D01*
X121384065Y-80584699D01*
X121186045Y-80644768D01*
X121003547Y-80742316D01*
X120843595Y-80873585D01*
X120843585Y-80873595D01*
X120712316Y-81033547D01*
X120614768Y-81216045D01*
X120554699Y-81414065D01*
X120554698Y-81414070D01*
X120534417Y-81619996D01*
X120534417Y-81620003D01*
X79465583Y-81620003D01*
X79465583Y-81619996D01*
X79445301Y-81414070D01*
X79445300Y-81414065D01*
X79386401Y-81219901D01*
X79385232Y-81216046D01*
X79287685Y-81033550D01*
X79270005Y-81012007D01*
X79156414Y-80873595D01*
X79156410Y-80873590D01*
X79117825Y-80841924D01*
X78996452Y-80742316D01*
X78813954Y-80644768D01*
X78615934Y-80584699D01*
X78615929Y-80584698D01*
X78410003Y-80564417D01*
X78409997Y-80564417D01*
X78204070Y-80584698D01*
X78204065Y-80584699D01*
X78006045Y-80644768D01*
X77823547Y-80742316D01*
X77663595Y-80873585D01*
X77663585Y-80873595D01*
X77532316Y-81033547D01*
X77434768Y-81216045D01*
X77374699Y-81414065D01*
X77374698Y-81414070D01*
X77354417Y-81619996D01*
X77354417Y-81620003D01*
X76370000Y-81620003D01*
X76370000Y-81554174D01*
X76347445Y-81470000D01*
X77011026Y-81470000D01*
X77005261Y-81407783D01*
X76946935Y-81202789D01*
X76851942Y-81012016D01*
X76851937Y-81012007D01*
X76723503Y-80841935D01*
X76723493Y-80841924D01*
X76566004Y-80698352D01*
X76566005Y-80698352D01*
X76384793Y-80586152D01*
X76186061Y-80509162D01*
X76186055Y-80509160D01*
X76020000Y-80478118D01*
X76020000Y-81142554D01*
X75935826Y-81120000D01*
X75804174Y-81120000D01*
X75720000Y-81142554D01*
X75720000Y-80478119D01*
X75719999Y-80478118D01*
X75553944Y-80509160D01*
X75553938Y-80509162D01*
X75355206Y-80586152D01*
X75173995Y-80698352D01*
X75016506Y-80841924D01*
X75016496Y-80841935D01*
X74888062Y-81012007D01*
X74888057Y-81012016D01*
X74793064Y-81202789D01*
X74734738Y-81407783D01*
X74728973Y-81470000D01*
X75392555Y-81470000D01*
X75370000Y-81554174D01*
X75370000Y-81685826D01*
X75392555Y-81770000D01*
X74728973Y-81770000D01*
X74500000Y-81770000D01*
X74500000Y-79230000D01*
X74728973Y-79230000D01*
X74734738Y-79292216D01*
X74793064Y-79497210D01*
X74888057Y-79687983D01*
X74888062Y-79687992D01*
X75016496Y-79858064D01*
X75016506Y-79858075D01*
X75173995Y-80001647D01*
X75173994Y-80001647D01*
X75355206Y-80113847D01*
X75553941Y-80190838D01*
X75719999Y-80221880D01*
X75720000Y-80221880D01*
X75720000Y-79557445D01*
X75804174Y-79580000D01*
X75935826Y-79580000D01*
X76020000Y-79557445D01*
X76020000Y-80221880D01*
X76186058Y-80190838D01*
X76384793Y-80113847D01*
X76566004Y-80001647D01*
X76723493Y-79858075D01*
X76723503Y-79858064D01*
X76851937Y-79687992D01*
X76851942Y-79687983D01*
X76946935Y-79497210D01*
X77005261Y-79292216D01*
X77011027Y-79230000D01*
X76347445Y-79230000D01*
X76370000Y-79145826D01*
X76370000Y-79080003D01*
X77354417Y-79080003D01*
X77374698Y-79285929D01*
X77374699Y-79285934D01*
X77434768Y-79483954D01*
X77532316Y-79666452D01*
X77663585Y-79826404D01*
X77663590Y-79826410D01*
X77663595Y-79826414D01*
X77823547Y-79957683D01*
X77823548Y-79957683D01*
X77823550Y-79957685D01*
X78006046Y-80055232D01*
X78143997Y-80097078D01*
X78204065Y-80115300D01*
X78204070Y-80115301D01*
X78409997Y-80135583D01*
X78410000Y-80135583D01*
X78410003Y-80135583D01*
X78615929Y-80115301D01*
X78615934Y-80115300D01*
X78620724Y-80113847D01*
X78813954Y-80055232D01*
X78996450Y-79957685D01*
X79156410Y-79826410D01*
X79287685Y-79666450D01*
X79385232Y-79483954D01*
X79445300Y-79285934D01*
X79445301Y-79285929D01*
X79465583Y-79080003D01*
X120534417Y-79080003D01*
X120554698Y-79285929D01*
X120554699Y-79285934D01*
X120614768Y-79483954D01*
X120712316Y-79666452D01*
X120843585Y-79826404D01*
X120843590Y-79826410D01*
X120843595Y-79826414D01*
X121003547Y-79957683D01*
X121003548Y-79957683D01*
X121003550Y-79957685D01*
X121186046Y-80055232D01*
X121323997Y-80097078D01*
X121384065Y-80115300D01*
X121384070Y-80115301D01*
X121589997Y-80135583D01*
X121590000Y-80135583D01*
X121590003Y-80135583D01*
X121795929Y-80115301D01*
X121795934Y-80115300D01*
X121800724Y-80113847D01*
X121993954Y-80055232D01*
X122176450Y-79957685D01*
X122336410Y-79826410D01*
X122467685Y-79666450D01*
X122565232Y-79483954D01*
X122625300Y-79285934D01*
X122625301Y-79285929D01*
X122630810Y-79230000D01*
X122988973Y-79230000D01*
X122994738Y-79292216D01*
X123053064Y-79497210D01*
X123148057Y-79687983D01*
X123148062Y-79687992D01*
X123276496Y-79858064D01*
X123276506Y-79858075D01*
X123433995Y-80001647D01*
X123433994Y-80001647D01*
X123615206Y-80113847D01*
X123813941Y-80190838D01*
X123979999Y-80221880D01*
X123980000Y-80221880D01*
X123980000Y-79557445D01*
X124064174Y-79580000D01*
X124195826Y-79580000D01*
X124280000Y-79557445D01*
X124280000Y-80221880D01*
X124446058Y-80190838D01*
X124644793Y-80113847D01*
X124826004Y-80001647D01*
X124983493Y-79858075D01*
X124983503Y-79858064D01*
X125111937Y-79687992D01*
X125111942Y-79687983D01*
X125206935Y-79497210D01*
X125265261Y-79292216D01*
X125271027Y-79230000D01*
X124607445Y-79230000D01*
X124630000Y-79145826D01*
X124630000Y-79014174D01*
X124607445Y-78930000D01*
X125271026Y-78930000D01*
X125265261Y-78867783D01*
X125206935Y-78662789D01*
X125111942Y-78472016D01*
X125111937Y-78472007D01*
X124983503Y-78301935D01*
X124983493Y-78301924D01*
X124826004Y-78158352D01*
X124826005Y-78158352D01*
X124644793Y-78046152D01*
X124446061Y-77969162D01*
X124446055Y-77969160D01*
X124280000Y-77938118D01*
X124280000Y-78602554D01*
X124195826Y-78580000D01*
X124064174Y-78580000D01*
X123980000Y-78602554D01*
X123980000Y-77938119D01*
X123979999Y-77938118D01*
X123813944Y-77969160D01*
X123813938Y-77969162D01*
X123615206Y-78046152D01*
X123433995Y-78158352D01*
X123276506Y-78301924D01*
X123276496Y-78301935D01*
X123148062Y-78472007D01*
X123148057Y-78472016D01*
X123053064Y-78662789D01*
X122994738Y-78867783D01*
X122988973Y-78930000D01*
X123652555Y-78930000D01*
X123630000Y-79014174D01*
X123630000Y-79145826D01*
X123652555Y-79230000D01*
X122988973Y-79230000D01*
X122630810Y-79230000D01*
X122645583Y-79080003D01*
X122645583Y-79079996D01*
X122625301Y-78874070D01*
X122625300Y-78874065D01*
X122566401Y-78679901D01*
X122565232Y-78676046D01*
X122467685Y-78493550D01*
X122450005Y-78472007D01*
X122336414Y-78333595D01*
X122336410Y-78333590D01*
X122297825Y-78301924D01*
X122176452Y-78202316D01*
X121993954Y-78104768D01*
X121795934Y-78044699D01*
X121795929Y-78044698D01*
X121590003Y-78024417D01*
X121589997Y-78024417D01*
X121384070Y-78044698D01*
X121384065Y-78044699D01*
X121186045Y-78104768D01*
X121003547Y-78202316D01*
X120843595Y-78333585D01*
X120843585Y-78333595D01*
X120712316Y-78493547D01*
X120614768Y-78676045D01*
X120554699Y-78874065D01*
X120554698Y-78874070D01*
X120534417Y-79079996D01*
X120534417Y-79080003D01*
X79465583Y-79080003D01*
X79465583Y-79079996D01*
X79445301Y-78874070D01*
X79445300Y-78874065D01*
X79386401Y-78679901D01*
X79385232Y-78676046D01*
X79287685Y-78493550D01*
X79270005Y-78472007D01*
X79156414Y-78333595D01*
X79156410Y-78333590D01*
X79117825Y-78301924D01*
X78996452Y-78202316D01*
X78813954Y-78104768D01*
X78615934Y-78044699D01*
X78615929Y-78044698D01*
X78410003Y-78024417D01*
X78409997Y-78024417D01*
X78204070Y-78044698D01*
X78204065Y-78044699D01*
X78006045Y-78104768D01*
X77823547Y-78202316D01*
X77663595Y-78333585D01*
X77663585Y-78333595D01*
X77532316Y-78493547D01*
X77434768Y-78676045D01*
X77374699Y-78874065D01*
X77374698Y-78874070D01*
X77354417Y-79079996D01*
X77354417Y-79080003D01*
X76370000Y-79080003D01*
X76370000Y-79014174D01*
X76347445Y-78930000D01*
X77011026Y-78930000D01*
X77005261Y-78867783D01*
X76946935Y-78662789D01*
X76851942Y-78472016D01*
X76851937Y-78472007D01*
X76723503Y-78301935D01*
X76723493Y-78301924D01*
X76566004Y-78158352D01*
X76566005Y-78158352D01*
X76384793Y-78046152D01*
X76186061Y-77969162D01*
X76186055Y-77969160D01*
X76020000Y-77938118D01*
X76020000Y-78602554D01*
X75935826Y-78580000D01*
X75804174Y-78580000D01*
X75720000Y-78602554D01*
X75720000Y-77938119D01*
X75719999Y-77938118D01*
X75553944Y-77969160D01*
X75553938Y-77969162D01*
X75355206Y-78046152D01*
X75173995Y-78158352D01*
X75016506Y-78301924D01*
X75016496Y-78301935D01*
X74888062Y-78472007D01*
X74888057Y-78472016D01*
X74793064Y-78662789D01*
X74734738Y-78867783D01*
X74728973Y-78930000D01*
X75392555Y-78930000D01*
X75370000Y-79014174D01*
X75370000Y-79145826D01*
X75392555Y-79230000D01*
X74728973Y-79230000D01*
X74500000Y-79230000D01*
X74500000Y-76690000D01*
X74728973Y-76690000D01*
X74734738Y-76752216D01*
X74793064Y-76957210D01*
X74888057Y-77147983D01*
X74888062Y-77147992D01*
X75016496Y-77318064D01*
X75016506Y-77318075D01*
X75173995Y-77461647D01*
X75173994Y-77461647D01*
X75355206Y-77573847D01*
X75553941Y-77650838D01*
X75719999Y-77681880D01*
X75720000Y-77681880D01*
X75720000Y-77017445D01*
X75804174Y-77040000D01*
X75935826Y-77040000D01*
X76020000Y-77017445D01*
X76020000Y-77681880D01*
X76186058Y-77650838D01*
X76384793Y-77573847D01*
X76566004Y-77461647D01*
X76723493Y-77318075D01*
X76723503Y-77318064D01*
X76851937Y-77147992D01*
X76851942Y-77147983D01*
X76946935Y-76957210D01*
X77005261Y-76752216D01*
X77011027Y-76690000D01*
X76347445Y-76690000D01*
X76370000Y-76605826D01*
X76370000Y-76540003D01*
X77354417Y-76540003D01*
X77374698Y-76745929D01*
X77374699Y-76745934D01*
X77434768Y-76943954D01*
X77532316Y-77126452D01*
X77663585Y-77286404D01*
X77663590Y-77286410D01*
X77663595Y-77286414D01*
X77823547Y-77417683D01*
X77823548Y-77417683D01*
X77823550Y-77417685D01*
X78006046Y-77515232D01*
X78143997Y-77557078D01*
X78204065Y-77575300D01*
X78204070Y-77575301D01*
X78409997Y-77595583D01*
X78410000Y-77595583D01*
X78410003Y-77595583D01*
X78615929Y-77575301D01*
X78615934Y-77575300D01*
X78620724Y-77573847D01*
X78813954Y-77515232D01*
X78996450Y-77417685D01*
X79006124Y-77409746D01*
X90059500Y-77409746D01*
X90059501Y-77409758D01*
X90071132Y-77468227D01*
X90071134Y-77468233D01*
X90115445Y-77534548D01*
X90115448Y-77534552D01*
X90181769Y-77578867D01*
X90226231Y-77587711D01*
X90240241Y-77590498D01*
X90240246Y-77590498D01*
X90240252Y-77590500D01*
X90240253Y-77590500D01*
X91979747Y-77590500D01*
X91979748Y-77590500D01*
X92038231Y-77578867D01*
X92104552Y-77534552D01*
X92148867Y-77468231D01*
X92160500Y-77409748D01*
X92160500Y-76540003D01*
X120534417Y-76540003D01*
X120554698Y-76745929D01*
X120554699Y-76745934D01*
X120614768Y-76943954D01*
X120712316Y-77126452D01*
X120843585Y-77286404D01*
X120843590Y-77286410D01*
X120843595Y-77286414D01*
X121003547Y-77417683D01*
X121003548Y-77417683D01*
X121003550Y-77417685D01*
X121186046Y-77515232D01*
X121323997Y-77557078D01*
X121384065Y-77575300D01*
X121384070Y-77575301D01*
X121589997Y-77595583D01*
X121590000Y-77595583D01*
X121590003Y-77595583D01*
X121795929Y-77575301D01*
X121795934Y-77575300D01*
X121800724Y-77573847D01*
X121993954Y-77515232D01*
X122176450Y-77417685D01*
X122336410Y-77286410D01*
X122467685Y-77126450D01*
X122565232Y-76943954D01*
X122625300Y-76745934D01*
X122625301Y-76745929D01*
X122630810Y-76690000D01*
X122988973Y-76690000D01*
X122994738Y-76752216D01*
X123053064Y-76957210D01*
X123148057Y-77147983D01*
X123148062Y-77147992D01*
X123276496Y-77318064D01*
X123276506Y-77318075D01*
X123433995Y-77461647D01*
X123433994Y-77461647D01*
X123615206Y-77573847D01*
X123813941Y-77650838D01*
X123979999Y-77681880D01*
X123980000Y-77681880D01*
X123980000Y-77017445D01*
X124064174Y-77040000D01*
X124195826Y-77040000D01*
X124280000Y-77017445D01*
X124280000Y-77681880D01*
X124446058Y-77650838D01*
X124644793Y-77573847D01*
X124826004Y-77461647D01*
X124983493Y-77318075D01*
X124983503Y-77318064D01*
X125111937Y-77147992D01*
X125111942Y-77147983D01*
X125206935Y-76957210D01*
X125265261Y-76752216D01*
X125271027Y-76690000D01*
X124607445Y-76690000D01*
X124630000Y-76605826D01*
X124630000Y-76474174D01*
X124607445Y-76390000D01*
X125271026Y-76390000D01*
X125265261Y-76327783D01*
X125206935Y-76122789D01*
X125111942Y-75932016D01*
X125111937Y-75932007D01*
X124983503Y-75761935D01*
X124983493Y-75761924D01*
X124826004Y-75618352D01*
X124826005Y-75618352D01*
X124644793Y-75506152D01*
X124446061Y-75429162D01*
X124446055Y-75429160D01*
X124280000Y-75398118D01*
X124280000Y-76062554D01*
X124195826Y-76040000D01*
X124064174Y-76040000D01*
X123980000Y-76062554D01*
X123980000Y-75398119D01*
X123979999Y-75398118D01*
X123813944Y-75429160D01*
X123813938Y-75429162D01*
X123615206Y-75506152D01*
X123433995Y-75618352D01*
X123276506Y-75761924D01*
X123276496Y-75761935D01*
X123148062Y-75932007D01*
X123148057Y-75932016D01*
X123053064Y-76122789D01*
X122994738Y-76327783D01*
X122988973Y-76390000D01*
X123652555Y-76390000D01*
X123630000Y-76474174D01*
X123630000Y-76605826D01*
X123652555Y-76690000D01*
X122988973Y-76690000D01*
X122630810Y-76690000D01*
X122645583Y-76540003D01*
X122645583Y-76539996D01*
X122625301Y-76334070D01*
X122625300Y-76334065D01*
X122594640Y-76232993D01*
X122565232Y-76136046D01*
X122467685Y-75953550D01*
X122450005Y-75932007D01*
X122336414Y-75793595D01*
X122336410Y-75793590D01*
X122297825Y-75761924D01*
X122176452Y-75662316D01*
X121993954Y-75564768D01*
X121795934Y-75504699D01*
X121795929Y-75504698D01*
X121590003Y-75484417D01*
X121589997Y-75484417D01*
X121384070Y-75504698D01*
X121384065Y-75504699D01*
X121186045Y-75564768D01*
X121003547Y-75662316D01*
X120843595Y-75793585D01*
X120843585Y-75793595D01*
X120712316Y-75953547D01*
X120614768Y-76136045D01*
X120554699Y-76334065D01*
X120554698Y-76334070D01*
X120534417Y-76539996D01*
X120534417Y-76540003D01*
X92160500Y-76540003D01*
X92160500Y-75670252D01*
X92158921Y-75662316D01*
X92150176Y-75618352D01*
X92148867Y-75611769D01*
X92104552Y-75545448D01*
X92104548Y-75545445D01*
X92038233Y-75501134D01*
X92038231Y-75501133D01*
X92038228Y-75501132D01*
X92038227Y-75501132D01*
X91979758Y-75489501D01*
X91979748Y-75489500D01*
X90240252Y-75489500D01*
X90240251Y-75489500D01*
X90240241Y-75489501D01*
X90181772Y-75501132D01*
X90181766Y-75501134D01*
X90115451Y-75545445D01*
X90115445Y-75545451D01*
X90071134Y-75611766D01*
X90071132Y-75611772D01*
X90059501Y-75670241D01*
X90059500Y-75670253D01*
X90059500Y-77409746D01*
X79006124Y-77409746D01*
X79156410Y-77286410D01*
X79287685Y-77126450D01*
X79385232Y-76943954D01*
X79445300Y-76745934D01*
X79445301Y-76745929D01*
X79465583Y-76540003D01*
X79465583Y-76539996D01*
X79445301Y-76334070D01*
X79445300Y-76334065D01*
X79414640Y-76232993D01*
X79385232Y-76136046D01*
X79287685Y-75953550D01*
X79270005Y-75932007D01*
X79156414Y-75793595D01*
X79156410Y-75793590D01*
X79117825Y-75761924D01*
X78996452Y-75662316D01*
X78813954Y-75564768D01*
X78615934Y-75504699D01*
X78615929Y-75504698D01*
X78410003Y-75484417D01*
X78409997Y-75484417D01*
X78204070Y-75504698D01*
X78204065Y-75504699D01*
X78006045Y-75564768D01*
X77823547Y-75662316D01*
X77663595Y-75793585D01*
X77663585Y-75793595D01*
X77532316Y-75953547D01*
X77434768Y-76136045D01*
X77374699Y-76334065D01*
X77374698Y-76334070D01*
X77354417Y-76539996D01*
X77354417Y-76540003D01*
X76370000Y-76540003D01*
X76370000Y-76474174D01*
X76347445Y-76390000D01*
X77011026Y-76390000D01*
X77005261Y-76327783D01*
X76946935Y-76122789D01*
X76851942Y-75932016D01*
X76851937Y-75932007D01*
X76723503Y-75761935D01*
X76723493Y-75761924D01*
X76566004Y-75618352D01*
X76566005Y-75618352D01*
X76384793Y-75506152D01*
X76186061Y-75429162D01*
X76186055Y-75429160D01*
X76020000Y-75398118D01*
X76020000Y-76062554D01*
X75935826Y-76040000D01*
X75804174Y-76040000D01*
X75720000Y-76062554D01*
X75720000Y-75398119D01*
X75719999Y-75398118D01*
X75553944Y-75429160D01*
X75553938Y-75429162D01*
X75355206Y-75506152D01*
X75173995Y-75618352D01*
X75016506Y-75761924D01*
X75016496Y-75761935D01*
X74888062Y-75932007D01*
X74888057Y-75932016D01*
X74793064Y-76122789D01*
X74734738Y-76327783D01*
X74728973Y-76390000D01*
X75392555Y-76390000D01*
X75370000Y-76474174D01*
X75370000Y-76605826D01*
X75392555Y-76690000D01*
X74728973Y-76690000D01*
X74500000Y-76690000D01*
X74500000Y-73849999D01*
X74720000Y-73849999D01*
X74720001Y-73850000D01*
X75392555Y-73850000D01*
X75370000Y-73934174D01*
X75370000Y-74065826D01*
X75392555Y-74150000D01*
X74720002Y-74150000D01*
X74720001Y-74150001D01*
X74720001Y-74894791D01*
X74722909Y-74919874D01*
X74768213Y-75022477D01*
X74847522Y-75101786D01*
X74950127Y-75147090D01*
X74975203Y-75149999D01*
X75719998Y-75149999D01*
X75720000Y-75149998D01*
X75720000Y-74477445D01*
X75804174Y-74500000D01*
X75935826Y-74500000D01*
X76020000Y-74477445D01*
X76020000Y-75149998D01*
X76020001Y-75149999D01*
X76764790Y-75149999D01*
X76764791Y-75149998D01*
X76789874Y-75147090D01*
X76892477Y-75101786D01*
X76971786Y-75022477D01*
X77017090Y-74919872D01*
X77019999Y-74894797D01*
X77020000Y-74894795D01*
X77020000Y-74150001D01*
X77019999Y-74150000D01*
X76347445Y-74150000D01*
X76370000Y-74065826D01*
X76370000Y-74000003D01*
X77354417Y-74000003D01*
X77374698Y-74205929D01*
X77374699Y-74205934D01*
X77434768Y-74403954D01*
X77532316Y-74586452D01*
X77663585Y-74746404D01*
X77663590Y-74746410D01*
X77663595Y-74746414D01*
X77823547Y-74877683D01*
X77823548Y-74877683D01*
X77823550Y-74877685D01*
X78006046Y-74975232D01*
X78124796Y-75011254D01*
X78204065Y-75035300D01*
X78204070Y-75035301D01*
X78409997Y-75055583D01*
X78410000Y-75055583D01*
X78410003Y-75055583D01*
X78615929Y-75035301D01*
X78615934Y-75035300D01*
X78658206Y-75022477D01*
X78813954Y-74975232D01*
X78996450Y-74877685D01*
X79156410Y-74746410D01*
X79287685Y-74586450D01*
X79385232Y-74403954D01*
X79445300Y-74205934D01*
X79445301Y-74205929D01*
X79450410Y-74154060D01*
X83679500Y-74154060D01*
X83719717Y-74459536D01*
X83719717Y-74459541D01*
X83799464Y-74757163D01*
X83917375Y-75041825D01*
X84071440Y-75308673D01*
X84259003Y-75553110D01*
X84259005Y-75553112D01*
X84259009Y-75553117D01*
X84476883Y-75770991D01*
X84476887Y-75770994D01*
X84476889Y-75770996D01*
X84714794Y-75953547D01*
X84721330Y-75958562D01*
X84988170Y-76112622D01*
X84988171Y-76112622D01*
X84988174Y-76112624D01*
X85272836Y-76230535D01*
X85570456Y-76310282D01*
X85875940Y-76350500D01*
X85875941Y-76350500D01*
X86184059Y-76350500D01*
X86184060Y-76350500D01*
X86489544Y-76310282D01*
X86787164Y-76230535D01*
X87071830Y-76112622D01*
X87338670Y-75958562D01*
X87583117Y-75770991D01*
X87800991Y-75553117D01*
X87988562Y-75308670D01*
X88142622Y-75041830D01*
X88260535Y-74757164D01*
X88340282Y-74459544D01*
X88380500Y-74154060D01*
X88380500Y-74150000D01*
X89968973Y-74150000D01*
X89974738Y-74212216D01*
X90033064Y-74417210D01*
X90128057Y-74607983D01*
X90128062Y-74607992D01*
X90256496Y-74778064D01*
X90256506Y-74778075D01*
X90413995Y-74921647D01*
X90413994Y-74921647D01*
X90595206Y-75033847D01*
X90793941Y-75110838D01*
X90959999Y-75141880D01*
X90960000Y-75141880D01*
X90960000Y-74477445D01*
X91044174Y-74500000D01*
X91175826Y-74500000D01*
X91260000Y-74477445D01*
X91260000Y-75141880D01*
X91426058Y-75110838D01*
X91624793Y-75033847D01*
X91806004Y-74921647D01*
X91963493Y-74778075D01*
X91963503Y-74778064D01*
X92091937Y-74607992D01*
X92091942Y-74607983D01*
X92186935Y-74417210D01*
X92245261Y-74212216D01*
X92251027Y-74150000D01*
X91587445Y-74150000D01*
X91610000Y-74065826D01*
X91610000Y-73934174D01*
X91587445Y-73850000D01*
X92251026Y-73850000D01*
X92245261Y-73787783D01*
X92186935Y-73582789D01*
X92091942Y-73392016D01*
X92091937Y-73392007D01*
X91963503Y-73221935D01*
X91963493Y-73221924D01*
X91806004Y-73078352D01*
X91806005Y-73078352D01*
X91624793Y-72966152D01*
X91426061Y-72889162D01*
X91426055Y-72889160D01*
X91260000Y-72858118D01*
X91260000Y-73522554D01*
X91175826Y-73500000D01*
X91044174Y-73500000D01*
X90960000Y-73522554D01*
X90960000Y-72858119D01*
X90959999Y-72858118D01*
X90793944Y-72889160D01*
X90793938Y-72889162D01*
X90595206Y-72966152D01*
X90413995Y-73078352D01*
X90256506Y-73221924D01*
X90256496Y-73221935D01*
X90128062Y-73392007D01*
X90128057Y-73392016D01*
X90033064Y-73582789D01*
X89974738Y-73787783D01*
X89968973Y-73850000D01*
X90632555Y-73850000D01*
X90610000Y-73934174D01*
X90610000Y-74065826D01*
X90632555Y-74150000D01*
X89968973Y-74150000D01*
X88380500Y-74150000D01*
X88380500Y-73845940D01*
X88340282Y-73540456D01*
X88260535Y-73242836D01*
X88256918Y-73234104D01*
X88142624Y-72958174D01*
X88141403Y-72956059D01*
X87988562Y-72691330D01*
X87972124Y-72669907D01*
X87800996Y-72446889D01*
X87800994Y-72446887D01*
X87800991Y-72446883D01*
X87583117Y-72229009D01*
X87583112Y-72229005D01*
X87583110Y-72229003D01*
X87338673Y-72041440D01*
X87071825Y-71887375D01*
X86787163Y-71769464D01*
X86583881Y-71714995D01*
X86489544Y-71689718D01*
X86489541Y-71689717D01*
X86489539Y-71689717D01*
X86184060Y-71649500D01*
X85875940Y-71649500D01*
X85875939Y-71649500D01*
X85570463Y-71689717D01*
X85570458Y-71689717D01*
X85272836Y-71769464D01*
X84988174Y-71887375D01*
X84721326Y-72041440D01*
X84476889Y-72229003D01*
X84259003Y-72446889D01*
X84071440Y-72691326D01*
X83917375Y-72958174D01*
X83799464Y-73242836D01*
X83719717Y-73540458D01*
X83719717Y-73540463D01*
X83679500Y-73845939D01*
X83679500Y-74154060D01*
X79450410Y-74154060D01*
X79465583Y-74000003D01*
X79465583Y-73999996D01*
X79445301Y-73794070D01*
X79445300Y-73794065D01*
X79416917Y-73700500D01*
X79385232Y-73596046D01*
X79287685Y-73413550D01*
X79281963Y-73406578D01*
X79156414Y-73253595D01*
X79156410Y-73253590D01*
X79117825Y-73221924D01*
X78996452Y-73122316D01*
X78813954Y-73024768D01*
X78615934Y-72964699D01*
X78615929Y-72964698D01*
X78410003Y-72944417D01*
X78409997Y-72944417D01*
X78204070Y-72964698D01*
X78204065Y-72964699D01*
X78006045Y-73024768D01*
X77823547Y-73122316D01*
X77663595Y-73253585D01*
X77663585Y-73253595D01*
X77532316Y-73413547D01*
X77434768Y-73596045D01*
X77374699Y-73794065D01*
X77374698Y-73794070D01*
X77354417Y-73999996D01*
X77354417Y-74000003D01*
X76370000Y-74000003D01*
X76370000Y-73934174D01*
X76347445Y-73850000D01*
X77019998Y-73850000D01*
X77019999Y-73849999D01*
X77019999Y-73105210D01*
X77019998Y-73105208D01*
X77017090Y-73080125D01*
X76971786Y-72977522D01*
X76892477Y-72898213D01*
X76789872Y-72852909D01*
X76764797Y-72850000D01*
X76020001Y-72850000D01*
X76020000Y-72850001D01*
X76020000Y-73522554D01*
X75935826Y-73500000D01*
X75804174Y-73500000D01*
X75720000Y-73522554D01*
X75720000Y-72850001D01*
X75719999Y-72850000D01*
X74975210Y-72850000D01*
X74975207Y-72850001D01*
X74950125Y-72852909D01*
X74847522Y-72898213D01*
X74768213Y-72977522D01*
X74722909Y-73080127D01*
X74720000Y-73105202D01*
X74720000Y-73849999D01*
X74500000Y-73849999D01*
X74500000Y-72012190D01*
X74507535Y-71974306D01*
X74565711Y-71833858D01*
X74570525Y-71823863D01*
X74575101Y-71815584D01*
X74711583Y-71568636D01*
X74717479Y-71559253D01*
X74886230Y-71321421D01*
X74893149Y-71312745D01*
X74962541Y-71235095D01*
X75087475Y-71095293D01*
X75095293Y-71087475D01*
X75312748Y-70893146D01*
X75321424Y-70886228D01*
X75380361Y-70844410D01*
X75559253Y-70717479D01*
X75568636Y-70711583D01*
X75823869Y-70570522D01*
X75833866Y-70565708D01*
X75974307Y-70507536D01*
X76012192Y-70500000D01*
X96660462Y-70500000D01*
X96718653Y-70518907D01*
G37*
G04 #@! TD.AperFunction*
G04 #@! TA.AperFunction,Conductor*
G36*
X102168653Y-70518907D02*
G01*
X102204617Y-70568407D01*
X102204617Y-70629593D01*
X102168653Y-70679093D01*
X102165464Y-70681315D01*
X102119410Y-70712087D01*
X102119406Y-70712090D01*
X101987090Y-70844406D01*
X101987087Y-70844410D01*
X101883124Y-70999998D01*
X101883118Y-71000010D01*
X101811508Y-71172893D01*
X101811508Y-71172895D01*
X101775000Y-71356430D01*
X101775000Y-71549999D01*
X101775001Y-71550000D01*
X102375000Y-71550000D01*
X102375000Y-71850000D01*
X101775001Y-71850000D01*
X101775000Y-71850001D01*
X101775000Y-72043569D01*
X101811508Y-72227104D01*
X101811508Y-72227106D01*
X101883118Y-72399989D01*
X101883124Y-72400001D01*
X101987087Y-72555589D01*
X101987090Y-72555593D01*
X102061993Y-72630496D01*
X102089770Y-72685013D01*
X102080199Y-72745445D01*
X102036934Y-72788710D01*
X101991989Y-72799500D01*
X98008011Y-72799500D01*
X97949820Y-72780593D01*
X97913856Y-72731093D01*
X97913856Y-72669907D01*
X97938007Y-72630496D01*
X98012909Y-72555593D01*
X98012912Y-72555589D01*
X98116875Y-72400001D01*
X98116881Y-72399989D01*
X98188491Y-72227106D01*
X98188491Y-72227104D01*
X98224999Y-72043569D01*
X98225000Y-72043565D01*
X98225000Y-71850001D01*
X98224999Y-71850000D01*
X97625000Y-71850000D01*
X97625000Y-71550000D01*
X98224999Y-71550000D01*
X98225000Y-71549999D01*
X98225000Y-71356434D01*
X98224999Y-71356430D01*
X98188491Y-71172895D01*
X98188491Y-71172893D01*
X98116881Y-71000010D01*
X98116875Y-70999998D01*
X98012912Y-70844410D01*
X98012909Y-70844406D01*
X97880593Y-70712090D01*
X97880589Y-70712087D01*
X97834536Y-70681315D01*
X97796657Y-70633265D01*
X97794255Y-70572127D01*
X97828248Y-70521253D01*
X97885652Y-70500076D01*
X97889538Y-70500000D01*
X102110462Y-70500000D01*
X102168653Y-70518907D01*
G37*
G04 #@! TD.AperFunction*
M02*
