G04 #@! TF.GenerationSoftware,KiCad,Pcbnew,8.0.1*
G04 #@! TF.CreationDate,2024-04-16T23:47:22-05:00*
G04 #@! TF.ProjectId,RP2040_minimal_r2,52503230-3430-45f6-9d69-6e696d616c5f,REV2*
G04 #@! TF.SameCoordinates,Original*
G04 #@! TF.FileFunction,Legend,Top*
G04 #@! TF.FilePolarity,Positive*
%FSLAX46Y46*%
G04 Gerber Fmt 4.6, Leading zero omitted, Abs format (unit mm)*
G04 Created by KiCad (PCBNEW 8.0.1) date 2024-04-16 23:47:22*
%MOMM*%
%LPD*%
G01*
G04 APERTURE LIST*
%ADD10C,0.100000*%
%ADD11C,0.150000*%
%ADD12C,0.120000*%
%ADD13C,0.127000*%
%ADD14C,0.200000*%
G04 APERTURE END LIST*
D10*
X80942143Y-78634014D02*
X80856429Y-78591157D01*
X80856429Y-78591157D02*
X80727857Y-78591157D01*
X80727857Y-78591157D02*
X80599286Y-78634014D01*
X80599286Y-78634014D02*
X80513571Y-78719728D01*
X80513571Y-78719728D02*
X80470714Y-78805442D01*
X80470714Y-78805442D02*
X80427857Y-78976871D01*
X80427857Y-78976871D02*
X80427857Y-79105442D01*
X80427857Y-79105442D02*
X80470714Y-79276871D01*
X80470714Y-79276871D02*
X80513571Y-79362585D01*
X80513571Y-79362585D02*
X80599286Y-79448300D01*
X80599286Y-79448300D02*
X80727857Y-79491157D01*
X80727857Y-79491157D02*
X80813571Y-79491157D01*
X80813571Y-79491157D02*
X80942143Y-79448300D01*
X80942143Y-79448300D02*
X80985000Y-79405442D01*
X80985000Y-79405442D02*
X80985000Y-79105442D01*
X80985000Y-79105442D02*
X80813571Y-79105442D01*
X81370714Y-79491157D02*
X81370714Y-78591157D01*
X81370714Y-78591157D02*
X81713571Y-78591157D01*
X81713571Y-78591157D02*
X81799286Y-78634014D01*
X81799286Y-78634014D02*
X81842143Y-78676871D01*
X81842143Y-78676871D02*
X81885000Y-78762585D01*
X81885000Y-78762585D02*
X81885000Y-78891157D01*
X81885000Y-78891157D02*
X81842143Y-78976871D01*
X81842143Y-78976871D02*
X81799286Y-79019728D01*
X81799286Y-79019728D02*
X81713571Y-79062585D01*
X81713571Y-79062585D02*
X81370714Y-79062585D01*
X82742143Y-79491157D02*
X82227857Y-79491157D01*
X82485000Y-79491157D02*
X82485000Y-78591157D01*
X82485000Y-78591157D02*
X82399286Y-78719728D01*
X82399286Y-78719728D02*
X82313571Y-78805442D01*
X82313571Y-78805442D02*
X82227857Y-78848300D01*
X80942143Y-81174014D02*
X80856429Y-81131157D01*
X80856429Y-81131157D02*
X80727857Y-81131157D01*
X80727857Y-81131157D02*
X80599286Y-81174014D01*
X80599286Y-81174014D02*
X80513571Y-81259728D01*
X80513571Y-81259728D02*
X80470714Y-81345442D01*
X80470714Y-81345442D02*
X80427857Y-81516871D01*
X80427857Y-81516871D02*
X80427857Y-81645442D01*
X80427857Y-81645442D02*
X80470714Y-81816871D01*
X80470714Y-81816871D02*
X80513571Y-81902585D01*
X80513571Y-81902585D02*
X80599286Y-81988300D01*
X80599286Y-81988300D02*
X80727857Y-82031157D01*
X80727857Y-82031157D02*
X80813571Y-82031157D01*
X80813571Y-82031157D02*
X80942143Y-81988300D01*
X80942143Y-81988300D02*
X80985000Y-81945442D01*
X80985000Y-81945442D02*
X80985000Y-81645442D01*
X80985000Y-81645442D02*
X80813571Y-81645442D01*
X81370714Y-82031157D02*
X81370714Y-81131157D01*
X81370714Y-81131157D02*
X81713571Y-81131157D01*
X81713571Y-81131157D02*
X81799286Y-81174014D01*
X81799286Y-81174014D02*
X81842143Y-81216871D01*
X81842143Y-81216871D02*
X81885000Y-81302585D01*
X81885000Y-81302585D02*
X81885000Y-81431157D01*
X81885000Y-81431157D02*
X81842143Y-81516871D01*
X81842143Y-81516871D02*
X81799286Y-81559728D01*
X81799286Y-81559728D02*
X81713571Y-81602585D01*
X81713571Y-81602585D02*
X81370714Y-81602585D01*
X82227857Y-81216871D02*
X82270714Y-81174014D01*
X82270714Y-81174014D02*
X82356429Y-81131157D01*
X82356429Y-81131157D02*
X82570714Y-81131157D01*
X82570714Y-81131157D02*
X82656429Y-81174014D01*
X82656429Y-81174014D02*
X82699286Y-81216871D01*
X82699286Y-81216871D02*
X82742143Y-81302585D01*
X82742143Y-81302585D02*
X82742143Y-81388300D01*
X82742143Y-81388300D02*
X82699286Y-81516871D01*
X82699286Y-81516871D02*
X82185000Y-82031157D01*
X82185000Y-82031157D02*
X82742143Y-82031157D01*
X80942143Y-83714014D02*
X80856429Y-83671157D01*
X80856429Y-83671157D02*
X80727857Y-83671157D01*
X80727857Y-83671157D02*
X80599286Y-83714014D01*
X80599286Y-83714014D02*
X80513571Y-83799728D01*
X80513571Y-83799728D02*
X80470714Y-83885442D01*
X80470714Y-83885442D02*
X80427857Y-84056871D01*
X80427857Y-84056871D02*
X80427857Y-84185442D01*
X80427857Y-84185442D02*
X80470714Y-84356871D01*
X80470714Y-84356871D02*
X80513571Y-84442585D01*
X80513571Y-84442585D02*
X80599286Y-84528300D01*
X80599286Y-84528300D02*
X80727857Y-84571157D01*
X80727857Y-84571157D02*
X80813571Y-84571157D01*
X80813571Y-84571157D02*
X80942143Y-84528300D01*
X80942143Y-84528300D02*
X80985000Y-84485442D01*
X80985000Y-84485442D02*
X80985000Y-84185442D01*
X80985000Y-84185442D02*
X80813571Y-84185442D01*
X81370714Y-84571157D02*
X81370714Y-83671157D01*
X81370714Y-83671157D02*
X81713571Y-83671157D01*
X81713571Y-83671157D02*
X81799286Y-83714014D01*
X81799286Y-83714014D02*
X81842143Y-83756871D01*
X81842143Y-83756871D02*
X81885000Y-83842585D01*
X81885000Y-83842585D02*
X81885000Y-83971157D01*
X81885000Y-83971157D02*
X81842143Y-84056871D01*
X81842143Y-84056871D02*
X81799286Y-84099728D01*
X81799286Y-84099728D02*
X81713571Y-84142585D01*
X81713571Y-84142585D02*
X81370714Y-84142585D01*
X82185000Y-83671157D02*
X82742143Y-83671157D01*
X82742143Y-83671157D02*
X82442143Y-84014014D01*
X82442143Y-84014014D02*
X82570714Y-84014014D01*
X82570714Y-84014014D02*
X82656429Y-84056871D01*
X82656429Y-84056871D02*
X82699286Y-84099728D01*
X82699286Y-84099728D02*
X82742143Y-84185442D01*
X82742143Y-84185442D02*
X82742143Y-84399728D01*
X82742143Y-84399728D02*
X82699286Y-84485442D01*
X82699286Y-84485442D02*
X82656429Y-84528300D01*
X82656429Y-84528300D02*
X82570714Y-84571157D01*
X82570714Y-84571157D02*
X82313571Y-84571157D01*
X82313571Y-84571157D02*
X82227857Y-84528300D01*
X82227857Y-84528300D02*
X82185000Y-84485442D01*
X80942143Y-86254014D02*
X80856429Y-86211157D01*
X80856429Y-86211157D02*
X80727857Y-86211157D01*
X80727857Y-86211157D02*
X80599286Y-86254014D01*
X80599286Y-86254014D02*
X80513571Y-86339728D01*
X80513571Y-86339728D02*
X80470714Y-86425442D01*
X80470714Y-86425442D02*
X80427857Y-86596871D01*
X80427857Y-86596871D02*
X80427857Y-86725442D01*
X80427857Y-86725442D02*
X80470714Y-86896871D01*
X80470714Y-86896871D02*
X80513571Y-86982585D01*
X80513571Y-86982585D02*
X80599286Y-87068300D01*
X80599286Y-87068300D02*
X80727857Y-87111157D01*
X80727857Y-87111157D02*
X80813571Y-87111157D01*
X80813571Y-87111157D02*
X80942143Y-87068300D01*
X80942143Y-87068300D02*
X80985000Y-87025442D01*
X80985000Y-87025442D02*
X80985000Y-86725442D01*
X80985000Y-86725442D02*
X80813571Y-86725442D01*
X81370714Y-87111157D02*
X81370714Y-86211157D01*
X81370714Y-86211157D02*
X81713571Y-86211157D01*
X81713571Y-86211157D02*
X81799286Y-86254014D01*
X81799286Y-86254014D02*
X81842143Y-86296871D01*
X81842143Y-86296871D02*
X81885000Y-86382585D01*
X81885000Y-86382585D02*
X81885000Y-86511157D01*
X81885000Y-86511157D02*
X81842143Y-86596871D01*
X81842143Y-86596871D02*
X81799286Y-86639728D01*
X81799286Y-86639728D02*
X81713571Y-86682585D01*
X81713571Y-86682585D02*
X81370714Y-86682585D01*
X82656429Y-86511157D02*
X82656429Y-87111157D01*
X82442143Y-86168300D02*
X82227857Y-86811157D01*
X82227857Y-86811157D02*
X82785000Y-86811157D01*
X80942143Y-88794014D02*
X80856429Y-88751157D01*
X80856429Y-88751157D02*
X80727857Y-88751157D01*
X80727857Y-88751157D02*
X80599286Y-88794014D01*
X80599286Y-88794014D02*
X80513571Y-88879728D01*
X80513571Y-88879728D02*
X80470714Y-88965442D01*
X80470714Y-88965442D02*
X80427857Y-89136871D01*
X80427857Y-89136871D02*
X80427857Y-89265442D01*
X80427857Y-89265442D02*
X80470714Y-89436871D01*
X80470714Y-89436871D02*
X80513571Y-89522585D01*
X80513571Y-89522585D02*
X80599286Y-89608300D01*
X80599286Y-89608300D02*
X80727857Y-89651157D01*
X80727857Y-89651157D02*
X80813571Y-89651157D01*
X80813571Y-89651157D02*
X80942143Y-89608300D01*
X80942143Y-89608300D02*
X80985000Y-89565442D01*
X80985000Y-89565442D02*
X80985000Y-89265442D01*
X80985000Y-89265442D02*
X80813571Y-89265442D01*
X81370714Y-89651157D02*
X81370714Y-88751157D01*
X81370714Y-88751157D02*
X81713571Y-88751157D01*
X81713571Y-88751157D02*
X81799286Y-88794014D01*
X81799286Y-88794014D02*
X81842143Y-88836871D01*
X81842143Y-88836871D02*
X81885000Y-88922585D01*
X81885000Y-88922585D02*
X81885000Y-89051157D01*
X81885000Y-89051157D02*
X81842143Y-89136871D01*
X81842143Y-89136871D02*
X81799286Y-89179728D01*
X81799286Y-89179728D02*
X81713571Y-89222585D01*
X81713571Y-89222585D02*
X81370714Y-89222585D01*
X82699286Y-88751157D02*
X82270714Y-88751157D01*
X82270714Y-88751157D02*
X82227857Y-89179728D01*
X82227857Y-89179728D02*
X82270714Y-89136871D01*
X82270714Y-89136871D02*
X82356429Y-89094014D01*
X82356429Y-89094014D02*
X82570714Y-89094014D01*
X82570714Y-89094014D02*
X82656429Y-89136871D01*
X82656429Y-89136871D02*
X82699286Y-89179728D01*
X82699286Y-89179728D02*
X82742143Y-89265442D01*
X82742143Y-89265442D02*
X82742143Y-89479728D01*
X82742143Y-89479728D02*
X82699286Y-89565442D01*
X82699286Y-89565442D02*
X82656429Y-89608300D01*
X82656429Y-89608300D02*
X82570714Y-89651157D01*
X82570714Y-89651157D02*
X82356429Y-89651157D01*
X82356429Y-89651157D02*
X82270714Y-89608300D01*
X82270714Y-89608300D02*
X82227857Y-89565442D01*
X80942143Y-91334014D02*
X80856429Y-91291157D01*
X80856429Y-91291157D02*
X80727857Y-91291157D01*
X80727857Y-91291157D02*
X80599286Y-91334014D01*
X80599286Y-91334014D02*
X80513571Y-91419728D01*
X80513571Y-91419728D02*
X80470714Y-91505442D01*
X80470714Y-91505442D02*
X80427857Y-91676871D01*
X80427857Y-91676871D02*
X80427857Y-91805442D01*
X80427857Y-91805442D02*
X80470714Y-91976871D01*
X80470714Y-91976871D02*
X80513571Y-92062585D01*
X80513571Y-92062585D02*
X80599286Y-92148300D01*
X80599286Y-92148300D02*
X80727857Y-92191157D01*
X80727857Y-92191157D02*
X80813571Y-92191157D01*
X80813571Y-92191157D02*
X80942143Y-92148300D01*
X80942143Y-92148300D02*
X80985000Y-92105442D01*
X80985000Y-92105442D02*
X80985000Y-91805442D01*
X80985000Y-91805442D02*
X80813571Y-91805442D01*
X81370714Y-92191157D02*
X81370714Y-91291157D01*
X81370714Y-91291157D02*
X81713571Y-91291157D01*
X81713571Y-91291157D02*
X81799286Y-91334014D01*
X81799286Y-91334014D02*
X81842143Y-91376871D01*
X81842143Y-91376871D02*
X81885000Y-91462585D01*
X81885000Y-91462585D02*
X81885000Y-91591157D01*
X81885000Y-91591157D02*
X81842143Y-91676871D01*
X81842143Y-91676871D02*
X81799286Y-91719728D01*
X81799286Y-91719728D02*
X81713571Y-91762585D01*
X81713571Y-91762585D02*
X81370714Y-91762585D01*
X82656429Y-91291157D02*
X82485000Y-91291157D01*
X82485000Y-91291157D02*
X82399286Y-91334014D01*
X82399286Y-91334014D02*
X82356429Y-91376871D01*
X82356429Y-91376871D02*
X82270714Y-91505442D01*
X82270714Y-91505442D02*
X82227857Y-91676871D01*
X82227857Y-91676871D02*
X82227857Y-92019728D01*
X82227857Y-92019728D02*
X82270714Y-92105442D01*
X82270714Y-92105442D02*
X82313571Y-92148300D01*
X82313571Y-92148300D02*
X82399286Y-92191157D01*
X82399286Y-92191157D02*
X82570714Y-92191157D01*
X82570714Y-92191157D02*
X82656429Y-92148300D01*
X82656429Y-92148300D02*
X82699286Y-92105442D01*
X82699286Y-92105442D02*
X82742143Y-92019728D01*
X82742143Y-92019728D02*
X82742143Y-91805442D01*
X82742143Y-91805442D02*
X82699286Y-91719728D01*
X82699286Y-91719728D02*
X82656429Y-91676871D01*
X82656429Y-91676871D02*
X82570714Y-91634014D01*
X82570714Y-91634014D02*
X82399286Y-91634014D01*
X82399286Y-91634014D02*
X82313571Y-91676871D01*
X82313571Y-91676871D02*
X82270714Y-91719728D01*
X82270714Y-91719728D02*
X82227857Y-91805442D01*
X80942143Y-93874014D02*
X80856429Y-93831157D01*
X80856429Y-93831157D02*
X80727857Y-93831157D01*
X80727857Y-93831157D02*
X80599286Y-93874014D01*
X80599286Y-93874014D02*
X80513571Y-93959728D01*
X80513571Y-93959728D02*
X80470714Y-94045442D01*
X80470714Y-94045442D02*
X80427857Y-94216871D01*
X80427857Y-94216871D02*
X80427857Y-94345442D01*
X80427857Y-94345442D02*
X80470714Y-94516871D01*
X80470714Y-94516871D02*
X80513571Y-94602585D01*
X80513571Y-94602585D02*
X80599286Y-94688300D01*
X80599286Y-94688300D02*
X80727857Y-94731157D01*
X80727857Y-94731157D02*
X80813571Y-94731157D01*
X80813571Y-94731157D02*
X80942143Y-94688300D01*
X80942143Y-94688300D02*
X80985000Y-94645442D01*
X80985000Y-94645442D02*
X80985000Y-94345442D01*
X80985000Y-94345442D02*
X80813571Y-94345442D01*
X81370714Y-94731157D02*
X81370714Y-93831157D01*
X81370714Y-93831157D02*
X81713571Y-93831157D01*
X81713571Y-93831157D02*
X81799286Y-93874014D01*
X81799286Y-93874014D02*
X81842143Y-93916871D01*
X81842143Y-93916871D02*
X81885000Y-94002585D01*
X81885000Y-94002585D02*
X81885000Y-94131157D01*
X81885000Y-94131157D02*
X81842143Y-94216871D01*
X81842143Y-94216871D02*
X81799286Y-94259728D01*
X81799286Y-94259728D02*
X81713571Y-94302585D01*
X81713571Y-94302585D02*
X81370714Y-94302585D01*
X82185000Y-93831157D02*
X82785000Y-93831157D01*
X82785000Y-93831157D02*
X82399286Y-94731157D01*
X80942143Y-96414014D02*
X80856429Y-96371157D01*
X80856429Y-96371157D02*
X80727857Y-96371157D01*
X80727857Y-96371157D02*
X80599286Y-96414014D01*
X80599286Y-96414014D02*
X80513571Y-96499728D01*
X80513571Y-96499728D02*
X80470714Y-96585442D01*
X80470714Y-96585442D02*
X80427857Y-96756871D01*
X80427857Y-96756871D02*
X80427857Y-96885442D01*
X80427857Y-96885442D02*
X80470714Y-97056871D01*
X80470714Y-97056871D02*
X80513571Y-97142585D01*
X80513571Y-97142585D02*
X80599286Y-97228300D01*
X80599286Y-97228300D02*
X80727857Y-97271157D01*
X80727857Y-97271157D02*
X80813571Y-97271157D01*
X80813571Y-97271157D02*
X80942143Y-97228300D01*
X80942143Y-97228300D02*
X80985000Y-97185442D01*
X80985000Y-97185442D02*
X80985000Y-96885442D01*
X80985000Y-96885442D02*
X80813571Y-96885442D01*
X81370714Y-97271157D02*
X81370714Y-96371157D01*
X81370714Y-96371157D02*
X81713571Y-96371157D01*
X81713571Y-96371157D02*
X81799286Y-96414014D01*
X81799286Y-96414014D02*
X81842143Y-96456871D01*
X81842143Y-96456871D02*
X81885000Y-96542585D01*
X81885000Y-96542585D02*
X81885000Y-96671157D01*
X81885000Y-96671157D02*
X81842143Y-96756871D01*
X81842143Y-96756871D02*
X81799286Y-96799728D01*
X81799286Y-96799728D02*
X81713571Y-96842585D01*
X81713571Y-96842585D02*
X81370714Y-96842585D01*
X82399286Y-96756871D02*
X82313571Y-96714014D01*
X82313571Y-96714014D02*
X82270714Y-96671157D01*
X82270714Y-96671157D02*
X82227857Y-96585442D01*
X82227857Y-96585442D02*
X82227857Y-96542585D01*
X82227857Y-96542585D02*
X82270714Y-96456871D01*
X82270714Y-96456871D02*
X82313571Y-96414014D01*
X82313571Y-96414014D02*
X82399286Y-96371157D01*
X82399286Y-96371157D02*
X82570714Y-96371157D01*
X82570714Y-96371157D02*
X82656429Y-96414014D01*
X82656429Y-96414014D02*
X82699286Y-96456871D01*
X82699286Y-96456871D02*
X82742143Y-96542585D01*
X82742143Y-96542585D02*
X82742143Y-96585442D01*
X82742143Y-96585442D02*
X82699286Y-96671157D01*
X82699286Y-96671157D02*
X82656429Y-96714014D01*
X82656429Y-96714014D02*
X82570714Y-96756871D01*
X82570714Y-96756871D02*
X82399286Y-96756871D01*
X82399286Y-96756871D02*
X82313571Y-96799728D01*
X82313571Y-96799728D02*
X82270714Y-96842585D01*
X82270714Y-96842585D02*
X82227857Y-96928300D01*
X82227857Y-96928300D02*
X82227857Y-97099728D01*
X82227857Y-97099728D02*
X82270714Y-97185442D01*
X82270714Y-97185442D02*
X82313571Y-97228300D01*
X82313571Y-97228300D02*
X82399286Y-97271157D01*
X82399286Y-97271157D02*
X82570714Y-97271157D01*
X82570714Y-97271157D02*
X82656429Y-97228300D01*
X82656429Y-97228300D02*
X82699286Y-97185442D01*
X82699286Y-97185442D02*
X82742143Y-97099728D01*
X82742143Y-97099728D02*
X82742143Y-96928300D01*
X82742143Y-96928300D02*
X82699286Y-96842585D01*
X82699286Y-96842585D02*
X82656429Y-96799728D01*
X82656429Y-96799728D02*
X82570714Y-96756871D01*
X80942143Y-98954014D02*
X80856429Y-98911157D01*
X80856429Y-98911157D02*
X80727857Y-98911157D01*
X80727857Y-98911157D02*
X80599286Y-98954014D01*
X80599286Y-98954014D02*
X80513571Y-99039728D01*
X80513571Y-99039728D02*
X80470714Y-99125442D01*
X80470714Y-99125442D02*
X80427857Y-99296871D01*
X80427857Y-99296871D02*
X80427857Y-99425442D01*
X80427857Y-99425442D02*
X80470714Y-99596871D01*
X80470714Y-99596871D02*
X80513571Y-99682585D01*
X80513571Y-99682585D02*
X80599286Y-99768300D01*
X80599286Y-99768300D02*
X80727857Y-99811157D01*
X80727857Y-99811157D02*
X80813571Y-99811157D01*
X80813571Y-99811157D02*
X80942143Y-99768300D01*
X80942143Y-99768300D02*
X80985000Y-99725442D01*
X80985000Y-99725442D02*
X80985000Y-99425442D01*
X80985000Y-99425442D02*
X80813571Y-99425442D01*
X81370714Y-99811157D02*
X81370714Y-98911157D01*
X81370714Y-98911157D02*
X81713571Y-98911157D01*
X81713571Y-98911157D02*
X81799286Y-98954014D01*
X81799286Y-98954014D02*
X81842143Y-98996871D01*
X81842143Y-98996871D02*
X81885000Y-99082585D01*
X81885000Y-99082585D02*
X81885000Y-99211157D01*
X81885000Y-99211157D02*
X81842143Y-99296871D01*
X81842143Y-99296871D02*
X81799286Y-99339728D01*
X81799286Y-99339728D02*
X81713571Y-99382585D01*
X81713571Y-99382585D02*
X81370714Y-99382585D01*
X82313571Y-99811157D02*
X82485000Y-99811157D01*
X82485000Y-99811157D02*
X82570714Y-99768300D01*
X82570714Y-99768300D02*
X82613571Y-99725442D01*
X82613571Y-99725442D02*
X82699286Y-99596871D01*
X82699286Y-99596871D02*
X82742143Y-99425442D01*
X82742143Y-99425442D02*
X82742143Y-99082585D01*
X82742143Y-99082585D02*
X82699286Y-98996871D01*
X82699286Y-98996871D02*
X82656429Y-98954014D01*
X82656429Y-98954014D02*
X82570714Y-98911157D01*
X82570714Y-98911157D02*
X82399286Y-98911157D01*
X82399286Y-98911157D02*
X82313571Y-98954014D01*
X82313571Y-98954014D02*
X82270714Y-98996871D01*
X82270714Y-98996871D02*
X82227857Y-99082585D01*
X82227857Y-99082585D02*
X82227857Y-99296871D01*
X82227857Y-99296871D02*
X82270714Y-99382585D01*
X82270714Y-99382585D02*
X82313571Y-99425442D01*
X82313571Y-99425442D02*
X82399286Y-99468300D01*
X82399286Y-99468300D02*
X82570714Y-99468300D01*
X82570714Y-99468300D02*
X82656429Y-99425442D01*
X82656429Y-99425442D02*
X82699286Y-99382585D01*
X82699286Y-99382585D02*
X82742143Y-99296871D01*
X80513571Y-104034014D02*
X80427857Y-103991157D01*
X80427857Y-103991157D02*
X80299285Y-103991157D01*
X80299285Y-103991157D02*
X80170714Y-104034014D01*
X80170714Y-104034014D02*
X80084999Y-104119728D01*
X80084999Y-104119728D02*
X80042142Y-104205442D01*
X80042142Y-104205442D02*
X79999285Y-104376871D01*
X79999285Y-104376871D02*
X79999285Y-104505442D01*
X79999285Y-104505442D02*
X80042142Y-104676871D01*
X80042142Y-104676871D02*
X80084999Y-104762585D01*
X80084999Y-104762585D02*
X80170714Y-104848300D01*
X80170714Y-104848300D02*
X80299285Y-104891157D01*
X80299285Y-104891157D02*
X80384999Y-104891157D01*
X80384999Y-104891157D02*
X80513571Y-104848300D01*
X80513571Y-104848300D02*
X80556428Y-104805442D01*
X80556428Y-104805442D02*
X80556428Y-104505442D01*
X80556428Y-104505442D02*
X80384999Y-104505442D01*
X80942142Y-104891157D02*
X80942142Y-103991157D01*
X80942142Y-103991157D02*
X81284999Y-103991157D01*
X81284999Y-103991157D02*
X81370714Y-104034014D01*
X81370714Y-104034014D02*
X81413571Y-104076871D01*
X81413571Y-104076871D02*
X81456428Y-104162585D01*
X81456428Y-104162585D02*
X81456428Y-104291157D01*
X81456428Y-104291157D02*
X81413571Y-104376871D01*
X81413571Y-104376871D02*
X81370714Y-104419728D01*
X81370714Y-104419728D02*
X81284999Y-104462585D01*
X81284999Y-104462585D02*
X80942142Y-104462585D01*
X82313571Y-104891157D02*
X81799285Y-104891157D01*
X82056428Y-104891157D02*
X82056428Y-103991157D01*
X82056428Y-103991157D02*
X81970714Y-104119728D01*
X81970714Y-104119728D02*
X81884999Y-104205442D01*
X81884999Y-104205442D02*
X81799285Y-104248300D01*
X83170714Y-104891157D02*
X82656428Y-104891157D01*
X82913571Y-104891157D02*
X82913571Y-103991157D01*
X82913571Y-103991157D02*
X82827857Y-104119728D01*
X82827857Y-104119728D02*
X82742142Y-104205442D01*
X82742142Y-104205442D02*
X82656428Y-104248300D01*
X80513571Y-101494014D02*
X80427857Y-101451157D01*
X80427857Y-101451157D02*
X80299285Y-101451157D01*
X80299285Y-101451157D02*
X80170714Y-101494014D01*
X80170714Y-101494014D02*
X80084999Y-101579728D01*
X80084999Y-101579728D02*
X80042142Y-101665442D01*
X80042142Y-101665442D02*
X79999285Y-101836871D01*
X79999285Y-101836871D02*
X79999285Y-101965442D01*
X79999285Y-101965442D02*
X80042142Y-102136871D01*
X80042142Y-102136871D02*
X80084999Y-102222585D01*
X80084999Y-102222585D02*
X80170714Y-102308300D01*
X80170714Y-102308300D02*
X80299285Y-102351157D01*
X80299285Y-102351157D02*
X80384999Y-102351157D01*
X80384999Y-102351157D02*
X80513571Y-102308300D01*
X80513571Y-102308300D02*
X80556428Y-102265442D01*
X80556428Y-102265442D02*
X80556428Y-101965442D01*
X80556428Y-101965442D02*
X80384999Y-101965442D01*
X80942142Y-102351157D02*
X80942142Y-101451157D01*
X80942142Y-101451157D02*
X81284999Y-101451157D01*
X81284999Y-101451157D02*
X81370714Y-101494014D01*
X81370714Y-101494014D02*
X81413571Y-101536871D01*
X81413571Y-101536871D02*
X81456428Y-101622585D01*
X81456428Y-101622585D02*
X81456428Y-101751157D01*
X81456428Y-101751157D02*
X81413571Y-101836871D01*
X81413571Y-101836871D02*
X81370714Y-101879728D01*
X81370714Y-101879728D02*
X81284999Y-101922585D01*
X81284999Y-101922585D02*
X80942142Y-101922585D01*
X82313571Y-102351157D02*
X81799285Y-102351157D01*
X82056428Y-102351157D02*
X82056428Y-101451157D01*
X82056428Y-101451157D02*
X81970714Y-101579728D01*
X81970714Y-101579728D02*
X81884999Y-101665442D01*
X81884999Y-101665442D02*
X81799285Y-101708300D01*
X82870714Y-101451157D02*
X82956428Y-101451157D01*
X82956428Y-101451157D02*
X83042142Y-101494014D01*
X83042142Y-101494014D02*
X83085000Y-101536871D01*
X83085000Y-101536871D02*
X83127857Y-101622585D01*
X83127857Y-101622585D02*
X83170714Y-101794014D01*
X83170714Y-101794014D02*
X83170714Y-102008300D01*
X83170714Y-102008300D02*
X83127857Y-102179728D01*
X83127857Y-102179728D02*
X83085000Y-102265442D01*
X83085000Y-102265442D02*
X83042142Y-102308300D01*
X83042142Y-102308300D02*
X82956428Y-102351157D01*
X82956428Y-102351157D02*
X82870714Y-102351157D01*
X82870714Y-102351157D02*
X82785000Y-102308300D01*
X82785000Y-102308300D02*
X82742142Y-102265442D01*
X82742142Y-102265442D02*
X82699285Y-102179728D01*
X82699285Y-102179728D02*
X82656428Y-102008300D01*
X82656428Y-102008300D02*
X82656428Y-101794014D01*
X82656428Y-101794014D02*
X82699285Y-101622585D01*
X82699285Y-101622585D02*
X82742142Y-101536871D01*
X82742142Y-101536871D02*
X82785000Y-101494014D01*
X82785000Y-101494014D02*
X82870714Y-101451157D01*
X80513571Y-106574014D02*
X80427857Y-106531157D01*
X80427857Y-106531157D02*
X80299285Y-106531157D01*
X80299285Y-106531157D02*
X80170714Y-106574014D01*
X80170714Y-106574014D02*
X80084999Y-106659728D01*
X80084999Y-106659728D02*
X80042142Y-106745442D01*
X80042142Y-106745442D02*
X79999285Y-106916871D01*
X79999285Y-106916871D02*
X79999285Y-107045442D01*
X79999285Y-107045442D02*
X80042142Y-107216871D01*
X80042142Y-107216871D02*
X80084999Y-107302585D01*
X80084999Y-107302585D02*
X80170714Y-107388300D01*
X80170714Y-107388300D02*
X80299285Y-107431157D01*
X80299285Y-107431157D02*
X80384999Y-107431157D01*
X80384999Y-107431157D02*
X80513571Y-107388300D01*
X80513571Y-107388300D02*
X80556428Y-107345442D01*
X80556428Y-107345442D02*
X80556428Y-107045442D01*
X80556428Y-107045442D02*
X80384999Y-107045442D01*
X80942142Y-107431157D02*
X80942142Y-106531157D01*
X80942142Y-106531157D02*
X81284999Y-106531157D01*
X81284999Y-106531157D02*
X81370714Y-106574014D01*
X81370714Y-106574014D02*
X81413571Y-106616871D01*
X81413571Y-106616871D02*
X81456428Y-106702585D01*
X81456428Y-106702585D02*
X81456428Y-106831157D01*
X81456428Y-106831157D02*
X81413571Y-106916871D01*
X81413571Y-106916871D02*
X81370714Y-106959728D01*
X81370714Y-106959728D02*
X81284999Y-107002585D01*
X81284999Y-107002585D02*
X80942142Y-107002585D01*
X82313571Y-107431157D02*
X81799285Y-107431157D01*
X82056428Y-107431157D02*
X82056428Y-106531157D01*
X82056428Y-106531157D02*
X81970714Y-106659728D01*
X81970714Y-106659728D02*
X81884999Y-106745442D01*
X81884999Y-106745442D02*
X81799285Y-106788300D01*
X82656428Y-106616871D02*
X82699285Y-106574014D01*
X82699285Y-106574014D02*
X82785000Y-106531157D01*
X82785000Y-106531157D02*
X82999285Y-106531157D01*
X82999285Y-106531157D02*
X83085000Y-106574014D01*
X83085000Y-106574014D02*
X83127857Y-106616871D01*
X83127857Y-106616871D02*
X83170714Y-106702585D01*
X83170714Y-106702585D02*
X83170714Y-106788300D01*
X83170714Y-106788300D02*
X83127857Y-106916871D01*
X83127857Y-106916871D02*
X82613571Y-107431157D01*
X82613571Y-107431157D02*
X83170714Y-107431157D01*
X80513571Y-109114014D02*
X80427857Y-109071157D01*
X80427857Y-109071157D02*
X80299285Y-109071157D01*
X80299285Y-109071157D02*
X80170714Y-109114014D01*
X80170714Y-109114014D02*
X80084999Y-109199728D01*
X80084999Y-109199728D02*
X80042142Y-109285442D01*
X80042142Y-109285442D02*
X79999285Y-109456871D01*
X79999285Y-109456871D02*
X79999285Y-109585442D01*
X79999285Y-109585442D02*
X80042142Y-109756871D01*
X80042142Y-109756871D02*
X80084999Y-109842585D01*
X80084999Y-109842585D02*
X80170714Y-109928300D01*
X80170714Y-109928300D02*
X80299285Y-109971157D01*
X80299285Y-109971157D02*
X80384999Y-109971157D01*
X80384999Y-109971157D02*
X80513571Y-109928300D01*
X80513571Y-109928300D02*
X80556428Y-109885442D01*
X80556428Y-109885442D02*
X80556428Y-109585442D01*
X80556428Y-109585442D02*
X80384999Y-109585442D01*
X80942142Y-109971157D02*
X80942142Y-109071157D01*
X80942142Y-109071157D02*
X81284999Y-109071157D01*
X81284999Y-109071157D02*
X81370714Y-109114014D01*
X81370714Y-109114014D02*
X81413571Y-109156871D01*
X81413571Y-109156871D02*
X81456428Y-109242585D01*
X81456428Y-109242585D02*
X81456428Y-109371157D01*
X81456428Y-109371157D02*
X81413571Y-109456871D01*
X81413571Y-109456871D02*
X81370714Y-109499728D01*
X81370714Y-109499728D02*
X81284999Y-109542585D01*
X81284999Y-109542585D02*
X80942142Y-109542585D01*
X82313571Y-109971157D02*
X81799285Y-109971157D01*
X82056428Y-109971157D02*
X82056428Y-109071157D01*
X82056428Y-109071157D02*
X81970714Y-109199728D01*
X81970714Y-109199728D02*
X81884999Y-109285442D01*
X81884999Y-109285442D02*
X81799285Y-109328300D01*
X82613571Y-109071157D02*
X83170714Y-109071157D01*
X83170714Y-109071157D02*
X82870714Y-109414014D01*
X82870714Y-109414014D02*
X82999285Y-109414014D01*
X82999285Y-109414014D02*
X83085000Y-109456871D01*
X83085000Y-109456871D02*
X83127857Y-109499728D01*
X83127857Y-109499728D02*
X83170714Y-109585442D01*
X83170714Y-109585442D02*
X83170714Y-109799728D01*
X83170714Y-109799728D02*
X83127857Y-109885442D01*
X83127857Y-109885442D02*
X83085000Y-109928300D01*
X83085000Y-109928300D02*
X82999285Y-109971157D01*
X82999285Y-109971157D02*
X82742142Y-109971157D01*
X82742142Y-109971157D02*
X82656428Y-109928300D01*
X82656428Y-109928300D02*
X82613571Y-109885442D01*
X80513571Y-114194014D02*
X80427857Y-114151157D01*
X80427857Y-114151157D02*
X80299285Y-114151157D01*
X80299285Y-114151157D02*
X80170714Y-114194014D01*
X80170714Y-114194014D02*
X80084999Y-114279728D01*
X80084999Y-114279728D02*
X80042142Y-114365442D01*
X80042142Y-114365442D02*
X79999285Y-114536871D01*
X79999285Y-114536871D02*
X79999285Y-114665442D01*
X79999285Y-114665442D02*
X80042142Y-114836871D01*
X80042142Y-114836871D02*
X80084999Y-114922585D01*
X80084999Y-114922585D02*
X80170714Y-115008300D01*
X80170714Y-115008300D02*
X80299285Y-115051157D01*
X80299285Y-115051157D02*
X80384999Y-115051157D01*
X80384999Y-115051157D02*
X80513571Y-115008300D01*
X80513571Y-115008300D02*
X80556428Y-114965442D01*
X80556428Y-114965442D02*
X80556428Y-114665442D01*
X80556428Y-114665442D02*
X80384999Y-114665442D01*
X80942142Y-115051157D02*
X80942142Y-114151157D01*
X80942142Y-114151157D02*
X81284999Y-114151157D01*
X81284999Y-114151157D02*
X81370714Y-114194014D01*
X81370714Y-114194014D02*
X81413571Y-114236871D01*
X81413571Y-114236871D02*
X81456428Y-114322585D01*
X81456428Y-114322585D02*
X81456428Y-114451157D01*
X81456428Y-114451157D02*
X81413571Y-114536871D01*
X81413571Y-114536871D02*
X81370714Y-114579728D01*
X81370714Y-114579728D02*
X81284999Y-114622585D01*
X81284999Y-114622585D02*
X80942142Y-114622585D01*
X82313571Y-115051157D02*
X81799285Y-115051157D01*
X82056428Y-115051157D02*
X82056428Y-114151157D01*
X82056428Y-114151157D02*
X81970714Y-114279728D01*
X81970714Y-114279728D02*
X81884999Y-114365442D01*
X81884999Y-114365442D02*
X81799285Y-114408300D01*
X83127857Y-114151157D02*
X82699285Y-114151157D01*
X82699285Y-114151157D02*
X82656428Y-114579728D01*
X82656428Y-114579728D02*
X82699285Y-114536871D01*
X82699285Y-114536871D02*
X82785000Y-114494014D01*
X82785000Y-114494014D02*
X82999285Y-114494014D01*
X82999285Y-114494014D02*
X83085000Y-114536871D01*
X83085000Y-114536871D02*
X83127857Y-114579728D01*
X83127857Y-114579728D02*
X83170714Y-114665442D01*
X83170714Y-114665442D02*
X83170714Y-114879728D01*
X83170714Y-114879728D02*
X83127857Y-114965442D01*
X83127857Y-114965442D02*
X83085000Y-115008300D01*
X83085000Y-115008300D02*
X82999285Y-115051157D01*
X82999285Y-115051157D02*
X82785000Y-115051157D01*
X82785000Y-115051157D02*
X82699285Y-115008300D01*
X82699285Y-115008300D02*
X82656428Y-114965442D01*
X80513571Y-111654014D02*
X80427857Y-111611157D01*
X80427857Y-111611157D02*
X80299285Y-111611157D01*
X80299285Y-111611157D02*
X80170714Y-111654014D01*
X80170714Y-111654014D02*
X80084999Y-111739728D01*
X80084999Y-111739728D02*
X80042142Y-111825442D01*
X80042142Y-111825442D02*
X79999285Y-111996871D01*
X79999285Y-111996871D02*
X79999285Y-112125442D01*
X79999285Y-112125442D02*
X80042142Y-112296871D01*
X80042142Y-112296871D02*
X80084999Y-112382585D01*
X80084999Y-112382585D02*
X80170714Y-112468300D01*
X80170714Y-112468300D02*
X80299285Y-112511157D01*
X80299285Y-112511157D02*
X80384999Y-112511157D01*
X80384999Y-112511157D02*
X80513571Y-112468300D01*
X80513571Y-112468300D02*
X80556428Y-112425442D01*
X80556428Y-112425442D02*
X80556428Y-112125442D01*
X80556428Y-112125442D02*
X80384999Y-112125442D01*
X80942142Y-112511157D02*
X80942142Y-111611157D01*
X80942142Y-111611157D02*
X81284999Y-111611157D01*
X81284999Y-111611157D02*
X81370714Y-111654014D01*
X81370714Y-111654014D02*
X81413571Y-111696871D01*
X81413571Y-111696871D02*
X81456428Y-111782585D01*
X81456428Y-111782585D02*
X81456428Y-111911157D01*
X81456428Y-111911157D02*
X81413571Y-111996871D01*
X81413571Y-111996871D02*
X81370714Y-112039728D01*
X81370714Y-112039728D02*
X81284999Y-112082585D01*
X81284999Y-112082585D02*
X80942142Y-112082585D01*
X82313571Y-112511157D02*
X81799285Y-112511157D01*
X82056428Y-112511157D02*
X82056428Y-111611157D01*
X82056428Y-111611157D02*
X81970714Y-111739728D01*
X81970714Y-111739728D02*
X81884999Y-111825442D01*
X81884999Y-111825442D02*
X81799285Y-111868300D01*
X83085000Y-111911157D02*
X83085000Y-112511157D01*
X82870714Y-111568300D02*
X82656428Y-112211157D01*
X82656428Y-112211157D02*
X83213571Y-112211157D01*
X117343571Y-76094014D02*
X117257857Y-76051157D01*
X117257857Y-76051157D02*
X117129285Y-76051157D01*
X117129285Y-76051157D02*
X117000714Y-76094014D01*
X117000714Y-76094014D02*
X116914999Y-76179728D01*
X116914999Y-76179728D02*
X116872142Y-76265442D01*
X116872142Y-76265442D02*
X116829285Y-76436871D01*
X116829285Y-76436871D02*
X116829285Y-76565442D01*
X116829285Y-76565442D02*
X116872142Y-76736871D01*
X116872142Y-76736871D02*
X116914999Y-76822585D01*
X116914999Y-76822585D02*
X117000714Y-76908300D01*
X117000714Y-76908300D02*
X117129285Y-76951157D01*
X117129285Y-76951157D02*
X117214999Y-76951157D01*
X117214999Y-76951157D02*
X117343571Y-76908300D01*
X117343571Y-76908300D02*
X117386428Y-76865442D01*
X117386428Y-76865442D02*
X117386428Y-76565442D01*
X117386428Y-76565442D02*
X117214999Y-76565442D01*
X117772142Y-76951157D02*
X117772142Y-76051157D01*
X117772142Y-76051157D02*
X118114999Y-76051157D01*
X118114999Y-76051157D02*
X118200714Y-76094014D01*
X118200714Y-76094014D02*
X118243571Y-76136871D01*
X118243571Y-76136871D02*
X118286428Y-76222585D01*
X118286428Y-76222585D02*
X118286428Y-76351157D01*
X118286428Y-76351157D02*
X118243571Y-76436871D01*
X118243571Y-76436871D02*
X118200714Y-76479728D01*
X118200714Y-76479728D02*
X118114999Y-76522585D01*
X118114999Y-76522585D02*
X117772142Y-76522585D01*
X118629285Y-76136871D02*
X118672142Y-76094014D01*
X118672142Y-76094014D02*
X118757857Y-76051157D01*
X118757857Y-76051157D02*
X118972142Y-76051157D01*
X118972142Y-76051157D02*
X119057857Y-76094014D01*
X119057857Y-76094014D02*
X119100714Y-76136871D01*
X119100714Y-76136871D02*
X119143571Y-76222585D01*
X119143571Y-76222585D02*
X119143571Y-76308300D01*
X119143571Y-76308300D02*
X119100714Y-76436871D01*
X119100714Y-76436871D02*
X118586428Y-76951157D01*
X118586428Y-76951157D02*
X119143571Y-76951157D01*
X119657857Y-76436871D02*
X119572142Y-76394014D01*
X119572142Y-76394014D02*
X119529285Y-76351157D01*
X119529285Y-76351157D02*
X119486428Y-76265442D01*
X119486428Y-76265442D02*
X119486428Y-76222585D01*
X119486428Y-76222585D02*
X119529285Y-76136871D01*
X119529285Y-76136871D02*
X119572142Y-76094014D01*
X119572142Y-76094014D02*
X119657857Y-76051157D01*
X119657857Y-76051157D02*
X119829285Y-76051157D01*
X119829285Y-76051157D02*
X119915000Y-76094014D01*
X119915000Y-76094014D02*
X119957857Y-76136871D01*
X119957857Y-76136871D02*
X120000714Y-76222585D01*
X120000714Y-76222585D02*
X120000714Y-76265442D01*
X120000714Y-76265442D02*
X119957857Y-76351157D01*
X119957857Y-76351157D02*
X119915000Y-76394014D01*
X119915000Y-76394014D02*
X119829285Y-76436871D01*
X119829285Y-76436871D02*
X119657857Y-76436871D01*
X119657857Y-76436871D02*
X119572142Y-76479728D01*
X119572142Y-76479728D02*
X119529285Y-76522585D01*
X119529285Y-76522585D02*
X119486428Y-76608300D01*
X119486428Y-76608300D02*
X119486428Y-76779728D01*
X119486428Y-76779728D02*
X119529285Y-76865442D01*
X119529285Y-76865442D02*
X119572142Y-76908300D01*
X119572142Y-76908300D02*
X119657857Y-76951157D01*
X119657857Y-76951157D02*
X119829285Y-76951157D01*
X119829285Y-76951157D02*
X119915000Y-76908300D01*
X119915000Y-76908300D02*
X119957857Y-76865442D01*
X119957857Y-76865442D02*
X120000714Y-76779728D01*
X120000714Y-76779728D02*
X120000714Y-76608300D01*
X120000714Y-76608300D02*
X119957857Y-76522585D01*
X119957857Y-76522585D02*
X119915000Y-76479728D01*
X119915000Y-76479728D02*
X119829285Y-76436871D01*
X117343571Y-78634014D02*
X117257857Y-78591157D01*
X117257857Y-78591157D02*
X117129285Y-78591157D01*
X117129285Y-78591157D02*
X117000714Y-78634014D01*
X117000714Y-78634014D02*
X116914999Y-78719728D01*
X116914999Y-78719728D02*
X116872142Y-78805442D01*
X116872142Y-78805442D02*
X116829285Y-78976871D01*
X116829285Y-78976871D02*
X116829285Y-79105442D01*
X116829285Y-79105442D02*
X116872142Y-79276871D01*
X116872142Y-79276871D02*
X116914999Y-79362585D01*
X116914999Y-79362585D02*
X117000714Y-79448300D01*
X117000714Y-79448300D02*
X117129285Y-79491157D01*
X117129285Y-79491157D02*
X117214999Y-79491157D01*
X117214999Y-79491157D02*
X117343571Y-79448300D01*
X117343571Y-79448300D02*
X117386428Y-79405442D01*
X117386428Y-79405442D02*
X117386428Y-79105442D01*
X117386428Y-79105442D02*
X117214999Y-79105442D01*
X117772142Y-79491157D02*
X117772142Y-78591157D01*
X117772142Y-78591157D02*
X118114999Y-78591157D01*
X118114999Y-78591157D02*
X118200714Y-78634014D01*
X118200714Y-78634014D02*
X118243571Y-78676871D01*
X118243571Y-78676871D02*
X118286428Y-78762585D01*
X118286428Y-78762585D02*
X118286428Y-78891157D01*
X118286428Y-78891157D02*
X118243571Y-78976871D01*
X118243571Y-78976871D02*
X118200714Y-79019728D01*
X118200714Y-79019728D02*
X118114999Y-79062585D01*
X118114999Y-79062585D02*
X117772142Y-79062585D01*
X118629285Y-78676871D02*
X118672142Y-78634014D01*
X118672142Y-78634014D02*
X118757857Y-78591157D01*
X118757857Y-78591157D02*
X118972142Y-78591157D01*
X118972142Y-78591157D02*
X119057857Y-78634014D01*
X119057857Y-78634014D02*
X119100714Y-78676871D01*
X119100714Y-78676871D02*
X119143571Y-78762585D01*
X119143571Y-78762585D02*
X119143571Y-78848300D01*
X119143571Y-78848300D02*
X119100714Y-78976871D01*
X119100714Y-78976871D02*
X118586428Y-79491157D01*
X118586428Y-79491157D02*
X119143571Y-79491157D01*
X119443571Y-78591157D02*
X120043571Y-78591157D01*
X120043571Y-78591157D02*
X119657857Y-79491157D01*
X117343571Y-81174014D02*
X117257857Y-81131157D01*
X117257857Y-81131157D02*
X117129285Y-81131157D01*
X117129285Y-81131157D02*
X117000714Y-81174014D01*
X117000714Y-81174014D02*
X116914999Y-81259728D01*
X116914999Y-81259728D02*
X116872142Y-81345442D01*
X116872142Y-81345442D02*
X116829285Y-81516871D01*
X116829285Y-81516871D02*
X116829285Y-81645442D01*
X116829285Y-81645442D02*
X116872142Y-81816871D01*
X116872142Y-81816871D02*
X116914999Y-81902585D01*
X116914999Y-81902585D02*
X117000714Y-81988300D01*
X117000714Y-81988300D02*
X117129285Y-82031157D01*
X117129285Y-82031157D02*
X117214999Y-82031157D01*
X117214999Y-82031157D02*
X117343571Y-81988300D01*
X117343571Y-81988300D02*
X117386428Y-81945442D01*
X117386428Y-81945442D02*
X117386428Y-81645442D01*
X117386428Y-81645442D02*
X117214999Y-81645442D01*
X117772142Y-82031157D02*
X117772142Y-81131157D01*
X117772142Y-81131157D02*
X118114999Y-81131157D01*
X118114999Y-81131157D02*
X118200714Y-81174014D01*
X118200714Y-81174014D02*
X118243571Y-81216871D01*
X118243571Y-81216871D02*
X118286428Y-81302585D01*
X118286428Y-81302585D02*
X118286428Y-81431157D01*
X118286428Y-81431157D02*
X118243571Y-81516871D01*
X118243571Y-81516871D02*
X118200714Y-81559728D01*
X118200714Y-81559728D02*
X118114999Y-81602585D01*
X118114999Y-81602585D02*
X117772142Y-81602585D01*
X118629285Y-81216871D02*
X118672142Y-81174014D01*
X118672142Y-81174014D02*
X118757857Y-81131157D01*
X118757857Y-81131157D02*
X118972142Y-81131157D01*
X118972142Y-81131157D02*
X119057857Y-81174014D01*
X119057857Y-81174014D02*
X119100714Y-81216871D01*
X119100714Y-81216871D02*
X119143571Y-81302585D01*
X119143571Y-81302585D02*
X119143571Y-81388300D01*
X119143571Y-81388300D02*
X119100714Y-81516871D01*
X119100714Y-81516871D02*
X118586428Y-82031157D01*
X118586428Y-82031157D02*
X119143571Y-82031157D01*
X119915000Y-81131157D02*
X119743571Y-81131157D01*
X119743571Y-81131157D02*
X119657857Y-81174014D01*
X119657857Y-81174014D02*
X119615000Y-81216871D01*
X119615000Y-81216871D02*
X119529285Y-81345442D01*
X119529285Y-81345442D02*
X119486428Y-81516871D01*
X119486428Y-81516871D02*
X119486428Y-81859728D01*
X119486428Y-81859728D02*
X119529285Y-81945442D01*
X119529285Y-81945442D02*
X119572142Y-81988300D01*
X119572142Y-81988300D02*
X119657857Y-82031157D01*
X119657857Y-82031157D02*
X119829285Y-82031157D01*
X119829285Y-82031157D02*
X119915000Y-81988300D01*
X119915000Y-81988300D02*
X119957857Y-81945442D01*
X119957857Y-81945442D02*
X120000714Y-81859728D01*
X120000714Y-81859728D02*
X120000714Y-81645442D01*
X120000714Y-81645442D02*
X119957857Y-81559728D01*
X119957857Y-81559728D02*
X119915000Y-81516871D01*
X119915000Y-81516871D02*
X119829285Y-81474014D01*
X119829285Y-81474014D02*
X119657857Y-81474014D01*
X119657857Y-81474014D02*
X119572142Y-81516871D01*
X119572142Y-81516871D02*
X119529285Y-81559728D01*
X119529285Y-81559728D02*
X119486428Y-81645442D01*
X117343571Y-83714014D02*
X117257857Y-83671157D01*
X117257857Y-83671157D02*
X117129285Y-83671157D01*
X117129285Y-83671157D02*
X117000714Y-83714014D01*
X117000714Y-83714014D02*
X116914999Y-83799728D01*
X116914999Y-83799728D02*
X116872142Y-83885442D01*
X116872142Y-83885442D02*
X116829285Y-84056871D01*
X116829285Y-84056871D02*
X116829285Y-84185442D01*
X116829285Y-84185442D02*
X116872142Y-84356871D01*
X116872142Y-84356871D02*
X116914999Y-84442585D01*
X116914999Y-84442585D02*
X117000714Y-84528300D01*
X117000714Y-84528300D02*
X117129285Y-84571157D01*
X117129285Y-84571157D02*
X117214999Y-84571157D01*
X117214999Y-84571157D02*
X117343571Y-84528300D01*
X117343571Y-84528300D02*
X117386428Y-84485442D01*
X117386428Y-84485442D02*
X117386428Y-84185442D01*
X117386428Y-84185442D02*
X117214999Y-84185442D01*
X117772142Y-84571157D02*
X117772142Y-83671157D01*
X117772142Y-83671157D02*
X118114999Y-83671157D01*
X118114999Y-83671157D02*
X118200714Y-83714014D01*
X118200714Y-83714014D02*
X118243571Y-83756871D01*
X118243571Y-83756871D02*
X118286428Y-83842585D01*
X118286428Y-83842585D02*
X118286428Y-83971157D01*
X118286428Y-83971157D02*
X118243571Y-84056871D01*
X118243571Y-84056871D02*
X118200714Y-84099728D01*
X118200714Y-84099728D02*
X118114999Y-84142585D01*
X118114999Y-84142585D02*
X117772142Y-84142585D01*
X118629285Y-83756871D02*
X118672142Y-83714014D01*
X118672142Y-83714014D02*
X118757857Y-83671157D01*
X118757857Y-83671157D02*
X118972142Y-83671157D01*
X118972142Y-83671157D02*
X119057857Y-83714014D01*
X119057857Y-83714014D02*
X119100714Y-83756871D01*
X119100714Y-83756871D02*
X119143571Y-83842585D01*
X119143571Y-83842585D02*
X119143571Y-83928300D01*
X119143571Y-83928300D02*
X119100714Y-84056871D01*
X119100714Y-84056871D02*
X118586428Y-84571157D01*
X118586428Y-84571157D02*
X119143571Y-84571157D01*
X119957857Y-83671157D02*
X119529285Y-83671157D01*
X119529285Y-83671157D02*
X119486428Y-84099728D01*
X119486428Y-84099728D02*
X119529285Y-84056871D01*
X119529285Y-84056871D02*
X119615000Y-84014014D01*
X119615000Y-84014014D02*
X119829285Y-84014014D01*
X119829285Y-84014014D02*
X119915000Y-84056871D01*
X119915000Y-84056871D02*
X119957857Y-84099728D01*
X119957857Y-84099728D02*
X120000714Y-84185442D01*
X120000714Y-84185442D02*
X120000714Y-84399728D01*
X120000714Y-84399728D02*
X119957857Y-84485442D01*
X119957857Y-84485442D02*
X119915000Y-84528300D01*
X119915000Y-84528300D02*
X119829285Y-84571157D01*
X119829285Y-84571157D02*
X119615000Y-84571157D01*
X119615000Y-84571157D02*
X119529285Y-84528300D01*
X119529285Y-84528300D02*
X119486428Y-84485442D01*
X117343571Y-86254014D02*
X117257857Y-86211157D01*
X117257857Y-86211157D02*
X117129285Y-86211157D01*
X117129285Y-86211157D02*
X117000714Y-86254014D01*
X117000714Y-86254014D02*
X116914999Y-86339728D01*
X116914999Y-86339728D02*
X116872142Y-86425442D01*
X116872142Y-86425442D02*
X116829285Y-86596871D01*
X116829285Y-86596871D02*
X116829285Y-86725442D01*
X116829285Y-86725442D02*
X116872142Y-86896871D01*
X116872142Y-86896871D02*
X116914999Y-86982585D01*
X116914999Y-86982585D02*
X117000714Y-87068300D01*
X117000714Y-87068300D02*
X117129285Y-87111157D01*
X117129285Y-87111157D02*
X117214999Y-87111157D01*
X117214999Y-87111157D02*
X117343571Y-87068300D01*
X117343571Y-87068300D02*
X117386428Y-87025442D01*
X117386428Y-87025442D02*
X117386428Y-86725442D01*
X117386428Y-86725442D02*
X117214999Y-86725442D01*
X117772142Y-87111157D02*
X117772142Y-86211157D01*
X117772142Y-86211157D02*
X118114999Y-86211157D01*
X118114999Y-86211157D02*
X118200714Y-86254014D01*
X118200714Y-86254014D02*
X118243571Y-86296871D01*
X118243571Y-86296871D02*
X118286428Y-86382585D01*
X118286428Y-86382585D02*
X118286428Y-86511157D01*
X118286428Y-86511157D02*
X118243571Y-86596871D01*
X118243571Y-86596871D02*
X118200714Y-86639728D01*
X118200714Y-86639728D02*
X118114999Y-86682585D01*
X118114999Y-86682585D02*
X117772142Y-86682585D01*
X118629285Y-86296871D02*
X118672142Y-86254014D01*
X118672142Y-86254014D02*
X118757857Y-86211157D01*
X118757857Y-86211157D02*
X118972142Y-86211157D01*
X118972142Y-86211157D02*
X119057857Y-86254014D01*
X119057857Y-86254014D02*
X119100714Y-86296871D01*
X119100714Y-86296871D02*
X119143571Y-86382585D01*
X119143571Y-86382585D02*
X119143571Y-86468300D01*
X119143571Y-86468300D02*
X119100714Y-86596871D01*
X119100714Y-86596871D02*
X118586428Y-87111157D01*
X118586428Y-87111157D02*
X119143571Y-87111157D01*
X119915000Y-86511157D02*
X119915000Y-87111157D01*
X119700714Y-86168300D02*
X119486428Y-86811157D01*
X119486428Y-86811157D02*
X120043571Y-86811157D01*
X117343571Y-88794014D02*
X117257857Y-88751157D01*
X117257857Y-88751157D02*
X117129285Y-88751157D01*
X117129285Y-88751157D02*
X117000714Y-88794014D01*
X117000714Y-88794014D02*
X116914999Y-88879728D01*
X116914999Y-88879728D02*
X116872142Y-88965442D01*
X116872142Y-88965442D02*
X116829285Y-89136871D01*
X116829285Y-89136871D02*
X116829285Y-89265442D01*
X116829285Y-89265442D02*
X116872142Y-89436871D01*
X116872142Y-89436871D02*
X116914999Y-89522585D01*
X116914999Y-89522585D02*
X117000714Y-89608300D01*
X117000714Y-89608300D02*
X117129285Y-89651157D01*
X117129285Y-89651157D02*
X117214999Y-89651157D01*
X117214999Y-89651157D02*
X117343571Y-89608300D01*
X117343571Y-89608300D02*
X117386428Y-89565442D01*
X117386428Y-89565442D02*
X117386428Y-89265442D01*
X117386428Y-89265442D02*
X117214999Y-89265442D01*
X117772142Y-89651157D02*
X117772142Y-88751157D01*
X117772142Y-88751157D02*
X118114999Y-88751157D01*
X118114999Y-88751157D02*
X118200714Y-88794014D01*
X118200714Y-88794014D02*
X118243571Y-88836871D01*
X118243571Y-88836871D02*
X118286428Y-88922585D01*
X118286428Y-88922585D02*
X118286428Y-89051157D01*
X118286428Y-89051157D02*
X118243571Y-89136871D01*
X118243571Y-89136871D02*
X118200714Y-89179728D01*
X118200714Y-89179728D02*
X118114999Y-89222585D01*
X118114999Y-89222585D02*
X117772142Y-89222585D01*
X118629285Y-88836871D02*
X118672142Y-88794014D01*
X118672142Y-88794014D02*
X118757857Y-88751157D01*
X118757857Y-88751157D02*
X118972142Y-88751157D01*
X118972142Y-88751157D02*
X119057857Y-88794014D01*
X119057857Y-88794014D02*
X119100714Y-88836871D01*
X119100714Y-88836871D02*
X119143571Y-88922585D01*
X119143571Y-88922585D02*
X119143571Y-89008300D01*
X119143571Y-89008300D02*
X119100714Y-89136871D01*
X119100714Y-89136871D02*
X118586428Y-89651157D01*
X118586428Y-89651157D02*
X119143571Y-89651157D01*
X119443571Y-88751157D02*
X120000714Y-88751157D01*
X120000714Y-88751157D02*
X119700714Y-89094014D01*
X119700714Y-89094014D02*
X119829285Y-89094014D01*
X119829285Y-89094014D02*
X119915000Y-89136871D01*
X119915000Y-89136871D02*
X119957857Y-89179728D01*
X119957857Y-89179728D02*
X120000714Y-89265442D01*
X120000714Y-89265442D02*
X120000714Y-89479728D01*
X120000714Y-89479728D02*
X119957857Y-89565442D01*
X119957857Y-89565442D02*
X119915000Y-89608300D01*
X119915000Y-89608300D02*
X119829285Y-89651157D01*
X119829285Y-89651157D02*
X119572142Y-89651157D01*
X119572142Y-89651157D02*
X119486428Y-89608300D01*
X119486428Y-89608300D02*
X119443571Y-89565442D01*
X117343571Y-93874014D02*
X117257857Y-93831157D01*
X117257857Y-93831157D02*
X117129285Y-93831157D01*
X117129285Y-93831157D02*
X117000714Y-93874014D01*
X117000714Y-93874014D02*
X116914999Y-93959728D01*
X116914999Y-93959728D02*
X116872142Y-94045442D01*
X116872142Y-94045442D02*
X116829285Y-94216871D01*
X116829285Y-94216871D02*
X116829285Y-94345442D01*
X116829285Y-94345442D02*
X116872142Y-94516871D01*
X116872142Y-94516871D02*
X116914999Y-94602585D01*
X116914999Y-94602585D02*
X117000714Y-94688300D01*
X117000714Y-94688300D02*
X117129285Y-94731157D01*
X117129285Y-94731157D02*
X117214999Y-94731157D01*
X117214999Y-94731157D02*
X117343571Y-94688300D01*
X117343571Y-94688300D02*
X117386428Y-94645442D01*
X117386428Y-94645442D02*
X117386428Y-94345442D01*
X117386428Y-94345442D02*
X117214999Y-94345442D01*
X117772142Y-94731157D02*
X117772142Y-93831157D01*
X117772142Y-93831157D02*
X118114999Y-93831157D01*
X118114999Y-93831157D02*
X118200714Y-93874014D01*
X118200714Y-93874014D02*
X118243571Y-93916871D01*
X118243571Y-93916871D02*
X118286428Y-94002585D01*
X118286428Y-94002585D02*
X118286428Y-94131157D01*
X118286428Y-94131157D02*
X118243571Y-94216871D01*
X118243571Y-94216871D02*
X118200714Y-94259728D01*
X118200714Y-94259728D02*
X118114999Y-94302585D01*
X118114999Y-94302585D02*
X117772142Y-94302585D01*
X118629285Y-93916871D02*
X118672142Y-93874014D01*
X118672142Y-93874014D02*
X118757857Y-93831157D01*
X118757857Y-93831157D02*
X118972142Y-93831157D01*
X118972142Y-93831157D02*
X119057857Y-93874014D01*
X119057857Y-93874014D02*
X119100714Y-93916871D01*
X119100714Y-93916871D02*
X119143571Y-94002585D01*
X119143571Y-94002585D02*
X119143571Y-94088300D01*
X119143571Y-94088300D02*
X119100714Y-94216871D01*
X119100714Y-94216871D02*
X118586428Y-94731157D01*
X118586428Y-94731157D02*
X119143571Y-94731157D01*
X120000714Y-94731157D02*
X119486428Y-94731157D01*
X119743571Y-94731157D02*
X119743571Y-93831157D01*
X119743571Y-93831157D02*
X119657857Y-93959728D01*
X119657857Y-93959728D02*
X119572142Y-94045442D01*
X119572142Y-94045442D02*
X119486428Y-94088300D01*
X117343571Y-96414014D02*
X117257857Y-96371157D01*
X117257857Y-96371157D02*
X117129285Y-96371157D01*
X117129285Y-96371157D02*
X117000714Y-96414014D01*
X117000714Y-96414014D02*
X116914999Y-96499728D01*
X116914999Y-96499728D02*
X116872142Y-96585442D01*
X116872142Y-96585442D02*
X116829285Y-96756871D01*
X116829285Y-96756871D02*
X116829285Y-96885442D01*
X116829285Y-96885442D02*
X116872142Y-97056871D01*
X116872142Y-97056871D02*
X116914999Y-97142585D01*
X116914999Y-97142585D02*
X117000714Y-97228300D01*
X117000714Y-97228300D02*
X117129285Y-97271157D01*
X117129285Y-97271157D02*
X117214999Y-97271157D01*
X117214999Y-97271157D02*
X117343571Y-97228300D01*
X117343571Y-97228300D02*
X117386428Y-97185442D01*
X117386428Y-97185442D02*
X117386428Y-96885442D01*
X117386428Y-96885442D02*
X117214999Y-96885442D01*
X117772142Y-97271157D02*
X117772142Y-96371157D01*
X117772142Y-96371157D02*
X118114999Y-96371157D01*
X118114999Y-96371157D02*
X118200714Y-96414014D01*
X118200714Y-96414014D02*
X118243571Y-96456871D01*
X118243571Y-96456871D02*
X118286428Y-96542585D01*
X118286428Y-96542585D02*
X118286428Y-96671157D01*
X118286428Y-96671157D02*
X118243571Y-96756871D01*
X118243571Y-96756871D02*
X118200714Y-96799728D01*
X118200714Y-96799728D02*
X118114999Y-96842585D01*
X118114999Y-96842585D02*
X117772142Y-96842585D01*
X118629285Y-96456871D02*
X118672142Y-96414014D01*
X118672142Y-96414014D02*
X118757857Y-96371157D01*
X118757857Y-96371157D02*
X118972142Y-96371157D01*
X118972142Y-96371157D02*
X119057857Y-96414014D01*
X119057857Y-96414014D02*
X119100714Y-96456871D01*
X119100714Y-96456871D02*
X119143571Y-96542585D01*
X119143571Y-96542585D02*
X119143571Y-96628300D01*
X119143571Y-96628300D02*
X119100714Y-96756871D01*
X119100714Y-96756871D02*
X118586428Y-97271157D01*
X118586428Y-97271157D02*
X119143571Y-97271157D01*
X119700714Y-96371157D02*
X119786428Y-96371157D01*
X119786428Y-96371157D02*
X119872142Y-96414014D01*
X119872142Y-96414014D02*
X119915000Y-96456871D01*
X119915000Y-96456871D02*
X119957857Y-96542585D01*
X119957857Y-96542585D02*
X120000714Y-96714014D01*
X120000714Y-96714014D02*
X120000714Y-96928300D01*
X120000714Y-96928300D02*
X119957857Y-97099728D01*
X119957857Y-97099728D02*
X119915000Y-97185442D01*
X119915000Y-97185442D02*
X119872142Y-97228300D01*
X119872142Y-97228300D02*
X119786428Y-97271157D01*
X119786428Y-97271157D02*
X119700714Y-97271157D01*
X119700714Y-97271157D02*
X119615000Y-97228300D01*
X119615000Y-97228300D02*
X119572142Y-97185442D01*
X119572142Y-97185442D02*
X119529285Y-97099728D01*
X119529285Y-97099728D02*
X119486428Y-96928300D01*
X119486428Y-96928300D02*
X119486428Y-96714014D01*
X119486428Y-96714014D02*
X119529285Y-96542585D01*
X119529285Y-96542585D02*
X119572142Y-96456871D01*
X119572142Y-96456871D02*
X119615000Y-96414014D01*
X119615000Y-96414014D02*
X119700714Y-96371157D01*
X117343571Y-98954014D02*
X117257857Y-98911157D01*
X117257857Y-98911157D02*
X117129285Y-98911157D01*
X117129285Y-98911157D02*
X117000714Y-98954014D01*
X117000714Y-98954014D02*
X116914999Y-99039728D01*
X116914999Y-99039728D02*
X116872142Y-99125442D01*
X116872142Y-99125442D02*
X116829285Y-99296871D01*
X116829285Y-99296871D02*
X116829285Y-99425442D01*
X116829285Y-99425442D02*
X116872142Y-99596871D01*
X116872142Y-99596871D02*
X116914999Y-99682585D01*
X116914999Y-99682585D02*
X117000714Y-99768300D01*
X117000714Y-99768300D02*
X117129285Y-99811157D01*
X117129285Y-99811157D02*
X117214999Y-99811157D01*
X117214999Y-99811157D02*
X117343571Y-99768300D01*
X117343571Y-99768300D02*
X117386428Y-99725442D01*
X117386428Y-99725442D02*
X117386428Y-99425442D01*
X117386428Y-99425442D02*
X117214999Y-99425442D01*
X117772142Y-99811157D02*
X117772142Y-98911157D01*
X117772142Y-98911157D02*
X118114999Y-98911157D01*
X118114999Y-98911157D02*
X118200714Y-98954014D01*
X118200714Y-98954014D02*
X118243571Y-98996871D01*
X118243571Y-98996871D02*
X118286428Y-99082585D01*
X118286428Y-99082585D02*
X118286428Y-99211157D01*
X118286428Y-99211157D02*
X118243571Y-99296871D01*
X118243571Y-99296871D02*
X118200714Y-99339728D01*
X118200714Y-99339728D02*
X118114999Y-99382585D01*
X118114999Y-99382585D02*
X117772142Y-99382585D01*
X119143571Y-99811157D02*
X118629285Y-99811157D01*
X118886428Y-99811157D02*
X118886428Y-98911157D01*
X118886428Y-98911157D02*
X118800714Y-99039728D01*
X118800714Y-99039728D02*
X118714999Y-99125442D01*
X118714999Y-99125442D02*
X118629285Y-99168300D01*
X119572142Y-99811157D02*
X119743571Y-99811157D01*
X119743571Y-99811157D02*
X119829285Y-99768300D01*
X119829285Y-99768300D02*
X119872142Y-99725442D01*
X119872142Y-99725442D02*
X119957857Y-99596871D01*
X119957857Y-99596871D02*
X120000714Y-99425442D01*
X120000714Y-99425442D02*
X120000714Y-99082585D01*
X120000714Y-99082585D02*
X119957857Y-98996871D01*
X119957857Y-98996871D02*
X119915000Y-98954014D01*
X119915000Y-98954014D02*
X119829285Y-98911157D01*
X119829285Y-98911157D02*
X119657857Y-98911157D01*
X119657857Y-98911157D02*
X119572142Y-98954014D01*
X119572142Y-98954014D02*
X119529285Y-98996871D01*
X119529285Y-98996871D02*
X119486428Y-99082585D01*
X119486428Y-99082585D02*
X119486428Y-99296871D01*
X119486428Y-99296871D02*
X119529285Y-99382585D01*
X119529285Y-99382585D02*
X119572142Y-99425442D01*
X119572142Y-99425442D02*
X119657857Y-99468300D01*
X119657857Y-99468300D02*
X119829285Y-99468300D01*
X119829285Y-99468300D02*
X119915000Y-99425442D01*
X119915000Y-99425442D02*
X119957857Y-99382585D01*
X119957857Y-99382585D02*
X120000714Y-99296871D01*
X117343571Y-104034014D02*
X117257857Y-103991157D01*
X117257857Y-103991157D02*
X117129285Y-103991157D01*
X117129285Y-103991157D02*
X117000714Y-104034014D01*
X117000714Y-104034014D02*
X116914999Y-104119728D01*
X116914999Y-104119728D02*
X116872142Y-104205442D01*
X116872142Y-104205442D02*
X116829285Y-104376871D01*
X116829285Y-104376871D02*
X116829285Y-104505442D01*
X116829285Y-104505442D02*
X116872142Y-104676871D01*
X116872142Y-104676871D02*
X116914999Y-104762585D01*
X116914999Y-104762585D02*
X117000714Y-104848300D01*
X117000714Y-104848300D02*
X117129285Y-104891157D01*
X117129285Y-104891157D02*
X117214999Y-104891157D01*
X117214999Y-104891157D02*
X117343571Y-104848300D01*
X117343571Y-104848300D02*
X117386428Y-104805442D01*
X117386428Y-104805442D02*
X117386428Y-104505442D01*
X117386428Y-104505442D02*
X117214999Y-104505442D01*
X117772142Y-104891157D02*
X117772142Y-103991157D01*
X117772142Y-103991157D02*
X118114999Y-103991157D01*
X118114999Y-103991157D02*
X118200714Y-104034014D01*
X118200714Y-104034014D02*
X118243571Y-104076871D01*
X118243571Y-104076871D02*
X118286428Y-104162585D01*
X118286428Y-104162585D02*
X118286428Y-104291157D01*
X118286428Y-104291157D02*
X118243571Y-104376871D01*
X118243571Y-104376871D02*
X118200714Y-104419728D01*
X118200714Y-104419728D02*
X118114999Y-104462585D01*
X118114999Y-104462585D02*
X117772142Y-104462585D01*
X119143571Y-104891157D02*
X118629285Y-104891157D01*
X118886428Y-104891157D02*
X118886428Y-103991157D01*
X118886428Y-103991157D02*
X118800714Y-104119728D01*
X118800714Y-104119728D02*
X118714999Y-104205442D01*
X118714999Y-104205442D02*
X118629285Y-104248300D01*
X119443571Y-103991157D02*
X120043571Y-103991157D01*
X120043571Y-103991157D02*
X119657857Y-104891157D01*
X117343571Y-91334014D02*
X117257857Y-91291157D01*
X117257857Y-91291157D02*
X117129285Y-91291157D01*
X117129285Y-91291157D02*
X117000714Y-91334014D01*
X117000714Y-91334014D02*
X116914999Y-91419728D01*
X116914999Y-91419728D02*
X116872142Y-91505442D01*
X116872142Y-91505442D02*
X116829285Y-91676871D01*
X116829285Y-91676871D02*
X116829285Y-91805442D01*
X116829285Y-91805442D02*
X116872142Y-91976871D01*
X116872142Y-91976871D02*
X116914999Y-92062585D01*
X116914999Y-92062585D02*
X117000714Y-92148300D01*
X117000714Y-92148300D02*
X117129285Y-92191157D01*
X117129285Y-92191157D02*
X117214999Y-92191157D01*
X117214999Y-92191157D02*
X117343571Y-92148300D01*
X117343571Y-92148300D02*
X117386428Y-92105442D01*
X117386428Y-92105442D02*
X117386428Y-91805442D01*
X117386428Y-91805442D02*
X117214999Y-91805442D01*
X117772142Y-92191157D02*
X117772142Y-91291157D01*
X117772142Y-91291157D02*
X118114999Y-91291157D01*
X118114999Y-91291157D02*
X118200714Y-91334014D01*
X118200714Y-91334014D02*
X118243571Y-91376871D01*
X118243571Y-91376871D02*
X118286428Y-91462585D01*
X118286428Y-91462585D02*
X118286428Y-91591157D01*
X118286428Y-91591157D02*
X118243571Y-91676871D01*
X118243571Y-91676871D02*
X118200714Y-91719728D01*
X118200714Y-91719728D02*
X118114999Y-91762585D01*
X118114999Y-91762585D02*
X117772142Y-91762585D01*
X118629285Y-91376871D02*
X118672142Y-91334014D01*
X118672142Y-91334014D02*
X118757857Y-91291157D01*
X118757857Y-91291157D02*
X118972142Y-91291157D01*
X118972142Y-91291157D02*
X119057857Y-91334014D01*
X119057857Y-91334014D02*
X119100714Y-91376871D01*
X119100714Y-91376871D02*
X119143571Y-91462585D01*
X119143571Y-91462585D02*
X119143571Y-91548300D01*
X119143571Y-91548300D02*
X119100714Y-91676871D01*
X119100714Y-91676871D02*
X118586428Y-92191157D01*
X118586428Y-92191157D02*
X119143571Y-92191157D01*
X119486428Y-91376871D02*
X119529285Y-91334014D01*
X119529285Y-91334014D02*
X119615000Y-91291157D01*
X119615000Y-91291157D02*
X119829285Y-91291157D01*
X119829285Y-91291157D02*
X119915000Y-91334014D01*
X119915000Y-91334014D02*
X119957857Y-91376871D01*
X119957857Y-91376871D02*
X120000714Y-91462585D01*
X120000714Y-91462585D02*
X120000714Y-91548300D01*
X120000714Y-91548300D02*
X119957857Y-91676871D01*
X119957857Y-91676871D02*
X119443571Y-92191157D01*
X119443571Y-92191157D02*
X120000714Y-92191157D01*
X117343571Y-101494014D02*
X117257857Y-101451157D01*
X117257857Y-101451157D02*
X117129285Y-101451157D01*
X117129285Y-101451157D02*
X117000714Y-101494014D01*
X117000714Y-101494014D02*
X116914999Y-101579728D01*
X116914999Y-101579728D02*
X116872142Y-101665442D01*
X116872142Y-101665442D02*
X116829285Y-101836871D01*
X116829285Y-101836871D02*
X116829285Y-101965442D01*
X116829285Y-101965442D02*
X116872142Y-102136871D01*
X116872142Y-102136871D02*
X116914999Y-102222585D01*
X116914999Y-102222585D02*
X117000714Y-102308300D01*
X117000714Y-102308300D02*
X117129285Y-102351157D01*
X117129285Y-102351157D02*
X117214999Y-102351157D01*
X117214999Y-102351157D02*
X117343571Y-102308300D01*
X117343571Y-102308300D02*
X117386428Y-102265442D01*
X117386428Y-102265442D02*
X117386428Y-101965442D01*
X117386428Y-101965442D02*
X117214999Y-101965442D01*
X117772142Y-102351157D02*
X117772142Y-101451157D01*
X117772142Y-101451157D02*
X118114999Y-101451157D01*
X118114999Y-101451157D02*
X118200714Y-101494014D01*
X118200714Y-101494014D02*
X118243571Y-101536871D01*
X118243571Y-101536871D02*
X118286428Y-101622585D01*
X118286428Y-101622585D02*
X118286428Y-101751157D01*
X118286428Y-101751157D02*
X118243571Y-101836871D01*
X118243571Y-101836871D02*
X118200714Y-101879728D01*
X118200714Y-101879728D02*
X118114999Y-101922585D01*
X118114999Y-101922585D02*
X117772142Y-101922585D01*
X119143571Y-102351157D02*
X118629285Y-102351157D01*
X118886428Y-102351157D02*
X118886428Y-101451157D01*
X118886428Y-101451157D02*
X118800714Y-101579728D01*
X118800714Y-101579728D02*
X118714999Y-101665442D01*
X118714999Y-101665442D02*
X118629285Y-101708300D01*
X119657857Y-101836871D02*
X119572142Y-101794014D01*
X119572142Y-101794014D02*
X119529285Y-101751157D01*
X119529285Y-101751157D02*
X119486428Y-101665442D01*
X119486428Y-101665442D02*
X119486428Y-101622585D01*
X119486428Y-101622585D02*
X119529285Y-101536871D01*
X119529285Y-101536871D02*
X119572142Y-101494014D01*
X119572142Y-101494014D02*
X119657857Y-101451157D01*
X119657857Y-101451157D02*
X119829285Y-101451157D01*
X119829285Y-101451157D02*
X119915000Y-101494014D01*
X119915000Y-101494014D02*
X119957857Y-101536871D01*
X119957857Y-101536871D02*
X120000714Y-101622585D01*
X120000714Y-101622585D02*
X120000714Y-101665442D01*
X120000714Y-101665442D02*
X119957857Y-101751157D01*
X119957857Y-101751157D02*
X119915000Y-101794014D01*
X119915000Y-101794014D02*
X119829285Y-101836871D01*
X119829285Y-101836871D02*
X119657857Y-101836871D01*
X119657857Y-101836871D02*
X119572142Y-101879728D01*
X119572142Y-101879728D02*
X119529285Y-101922585D01*
X119529285Y-101922585D02*
X119486428Y-102008300D01*
X119486428Y-102008300D02*
X119486428Y-102179728D01*
X119486428Y-102179728D02*
X119529285Y-102265442D01*
X119529285Y-102265442D02*
X119572142Y-102308300D01*
X119572142Y-102308300D02*
X119657857Y-102351157D01*
X119657857Y-102351157D02*
X119829285Y-102351157D01*
X119829285Y-102351157D02*
X119915000Y-102308300D01*
X119915000Y-102308300D02*
X119957857Y-102265442D01*
X119957857Y-102265442D02*
X120000714Y-102179728D01*
X120000714Y-102179728D02*
X120000714Y-102008300D01*
X120000714Y-102008300D02*
X119957857Y-101922585D01*
X119957857Y-101922585D02*
X119915000Y-101879728D01*
X119915000Y-101879728D02*
X119829285Y-101836871D01*
X115934786Y-115008300D02*
X116063358Y-115051157D01*
X116063358Y-115051157D02*
X116277643Y-115051157D01*
X116277643Y-115051157D02*
X116363358Y-115008300D01*
X116363358Y-115008300D02*
X116406215Y-114965442D01*
X116406215Y-114965442D02*
X116449072Y-114879728D01*
X116449072Y-114879728D02*
X116449072Y-114794014D01*
X116449072Y-114794014D02*
X116406215Y-114708300D01*
X116406215Y-114708300D02*
X116363358Y-114665442D01*
X116363358Y-114665442D02*
X116277643Y-114622585D01*
X116277643Y-114622585D02*
X116106215Y-114579728D01*
X116106215Y-114579728D02*
X116020500Y-114536871D01*
X116020500Y-114536871D02*
X115977643Y-114494014D01*
X115977643Y-114494014D02*
X115934786Y-114408300D01*
X115934786Y-114408300D02*
X115934786Y-114322585D01*
X115934786Y-114322585D02*
X115977643Y-114236871D01*
X115977643Y-114236871D02*
X116020500Y-114194014D01*
X116020500Y-114194014D02*
X116106215Y-114151157D01*
X116106215Y-114151157D02*
X116320500Y-114151157D01*
X116320500Y-114151157D02*
X116449072Y-114194014D01*
X116749072Y-114151157D02*
X116963358Y-115051157D01*
X116963358Y-115051157D02*
X117134786Y-114408300D01*
X117134786Y-114408300D02*
X117306215Y-115051157D01*
X117306215Y-115051157D02*
X117520501Y-114151157D01*
X118377643Y-114965442D02*
X118334786Y-115008300D01*
X118334786Y-115008300D02*
X118206214Y-115051157D01*
X118206214Y-115051157D02*
X118120500Y-115051157D01*
X118120500Y-115051157D02*
X117991929Y-115008300D01*
X117991929Y-115008300D02*
X117906214Y-114922585D01*
X117906214Y-114922585D02*
X117863357Y-114836871D01*
X117863357Y-114836871D02*
X117820500Y-114665442D01*
X117820500Y-114665442D02*
X117820500Y-114536871D01*
X117820500Y-114536871D02*
X117863357Y-114365442D01*
X117863357Y-114365442D02*
X117906214Y-114279728D01*
X117906214Y-114279728D02*
X117991929Y-114194014D01*
X117991929Y-114194014D02*
X118120500Y-114151157D01*
X118120500Y-114151157D02*
X118206214Y-114151157D01*
X118206214Y-114151157D02*
X118334786Y-114194014D01*
X118334786Y-114194014D02*
X118377643Y-114236871D01*
X119191929Y-115051157D02*
X118763357Y-115051157D01*
X118763357Y-115051157D02*
X118763357Y-114151157D01*
X119491928Y-115051157D02*
X119491928Y-114151157D01*
X120006214Y-115051157D02*
X119620500Y-114536871D01*
X120006214Y-114151157D02*
X119491928Y-114665442D01*
X117193571Y-112468300D02*
X117322143Y-112511157D01*
X117322143Y-112511157D02*
X117536428Y-112511157D01*
X117536428Y-112511157D02*
X117622143Y-112468300D01*
X117622143Y-112468300D02*
X117665000Y-112425442D01*
X117665000Y-112425442D02*
X117707857Y-112339728D01*
X117707857Y-112339728D02*
X117707857Y-112254014D01*
X117707857Y-112254014D02*
X117665000Y-112168300D01*
X117665000Y-112168300D02*
X117622143Y-112125442D01*
X117622143Y-112125442D02*
X117536428Y-112082585D01*
X117536428Y-112082585D02*
X117365000Y-112039728D01*
X117365000Y-112039728D02*
X117279285Y-111996871D01*
X117279285Y-111996871D02*
X117236428Y-111954014D01*
X117236428Y-111954014D02*
X117193571Y-111868300D01*
X117193571Y-111868300D02*
X117193571Y-111782585D01*
X117193571Y-111782585D02*
X117236428Y-111696871D01*
X117236428Y-111696871D02*
X117279285Y-111654014D01*
X117279285Y-111654014D02*
X117365000Y-111611157D01*
X117365000Y-111611157D02*
X117579285Y-111611157D01*
X117579285Y-111611157D02*
X117707857Y-111654014D01*
X118007857Y-111611157D02*
X118222143Y-112511157D01*
X118222143Y-112511157D02*
X118393571Y-111868300D01*
X118393571Y-111868300D02*
X118565000Y-112511157D01*
X118565000Y-112511157D02*
X118779286Y-111611157D01*
X119122142Y-112511157D02*
X119122142Y-111611157D01*
X119122142Y-111611157D02*
X119336428Y-111611157D01*
X119336428Y-111611157D02*
X119464999Y-111654014D01*
X119464999Y-111654014D02*
X119550714Y-111739728D01*
X119550714Y-111739728D02*
X119593571Y-111825442D01*
X119593571Y-111825442D02*
X119636428Y-111996871D01*
X119636428Y-111996871D02*
X119636428Y-112125442D01*
X119636428Y-112125442D02*
X119593571Y-112296871D01*
X119593571Y-112296871D02*
X119550714Y-112382585D01*
X119550714Y-112382585D02*
X119464999Y-112468300D01*
X119464999Y-112468300D02*
X119336428Y-112511157D01*
X119336428Y-112511157D02*
X119122142Y-112511157D01*
X117343571Y-106574014D02*
X117257857Y-106531157D01*
X117257857Y-106531157D02*
X117129285Y-106531157D01*
X117129285Y-106531157D02*
X117000714Y-106574014D01*
X117000714Y-106574014D02*
X116914999Y-106659728D01*
X116914999Y-106659728D02*
X116872142Y-106745442D01*
X116872142Y-106745442D02*
X116829285Y-106916871D01*
X116829285Y-106916871D02*
X116829285Y-107045442D01*
X116829285Y-107045442D02*
X116872142Y-107216871D01*
X116872142Y-107216871D02*
X116914999Y-107302585D01*
X116914999Y-107302585D02*
X117000714Y-107388300D01*
X117000714Y-107388300D02*
X117129285Y-107431157D01*
X117129285Y-107431157D02*
X117214999Y-107431157D01*
X117214999Y-107431157D02*
X117343571Y-107388300D01*
X117343571Y-107388300D02*
X117386428Y-107345442D01*
X117386428Y-107345442D02*
X117386428Y-107045442D01*
X117386428Y-107045442D02*
X117214999Y-107045442D01*
X117772142Y-107431157D02*
X117772142Y-106531157D01*
X117772142Y-106531157D02*
X118114999Y-106531157D01*
X118114999Y-106531157D02*
X118200714Y-106574014D01*
X118200714Y-106574014D02*
X118243571Y-106616871D01*
X118243571Y-106616871D02*
X118286428Y-106702585D01*
X118286428Y-106702585D02*
X118286428Y-106831157D01*
X118286428Y-106831157D02*
X118243571Y-106916871D01*
X118243571Y-106916871D02*
X118200714Y-106959728D01*
X118200714Y-106959728D02*
X118114999Y-107002585D01*
X118114999Y-107002585D02*
X117772142Y-107002585D01*
X119143571Y-107431157D02*
X118629285Y-107431157D01*
X118886428Y-107431157D02*
X118886428Y-106531157D01*
X118886428Y-106531157D02*
X118800714Y-106659728D01*
X118800714Y-106659728D02*
X118714999Y-106745442D01*
X118714999Y-106745442D02*
X118629285Y-106788300D01*
X119915000Y-106531157D02*
X119743571Y-106531157D01*
X119743571Y-106531157D02*
X119657857Y-106574014D01*
X119657857Y-106574014D02*
X119615000Y-106616871D01*
X119615000Y-106616871D02*
X119529285Y-106745442D01*
X119529285Y-106745442D02*
X119486428Y-106916871D01*
X119486428Y-106916871D02*
X119486428Y-107259728D01*
X119486428Y-107259728D02*
X119529285Y-107345442D01*
X119529285Y-107345442D02*
X119572142Y-107388300D01*
X119572142Y-107388300D02*
X119657857Y-107431157D01*
X119657857Y-107431157D02*
X119829285Y-107431157D01*
X119829285Y-107431157D02*
X119915000Y-107388300D01*
X119915000Y-107388300D02*
X119957857Y-107345442D01*
X119957857Y-107345442D02*
X120000714Y-107259728D01*
X120000714Y-107259728D02*
X120000714Y-107045442D01*
X120000714Y-107045442D02*
X119957857Y-106959728D01*
X119957857Y-106959728D02*
X119915000Y-106916871D01*
X119915000Y-106916871D02*
X119829285Y-106874014D01*
X119829285Y-106874014D02*
X119657857Y-106874014D01*
X119657857Y-106874014D02*
X119572142Y-106916871D01*
X119572142Y-106916871D02*
X119529285Y-106959728D01*
X119529285Y-106959728D02*
X119486428Y-107045442D01*
X117750714Y-109971157D02*
X117450714Y-109542585D01*
X117236428Y-109971157D02*
X117236428Y-109071157D01*
X117236428Y-109071157D02*
X117579285Y-109071157D01*
X117579285Y-109071157D02*
X117665000Y-109114014D01*
X117665000Y-109114014D02*
X117707857Y-109156871D01*
X117707857Y-109156871D02*
X117750714Y-109242585D01*
X117750714Y-109242585D02*
X117750714Y-109371157D01*
X117750714Y-109371157D02*
X117707857Y-109456871D01*
X117707857Y-109456871D02*
X117665000Y-109499728D01*
X117665000Y-109499728D02*
X117579285Y-109542585D01*
X117579285Y-109542585D02*
X117236428Y-109542585D01*
X118136428Y-109071157D02*
X118136428Y-109799728D01*
X118136428Y-109799728D02*
X118179285Y-109885442D01*
X118179285Y-109885442D02*
X118222143Y-109928300D01*
X118222143Y-109928300D02*
X118307857Y-109971157D01*
X118307857Y-109971157D02*
X118479285Y-109971157D01*
X118479285Y-109971157D02*
X118565000Y-109928300D01*
X118565000Y-109928300D02*
X118607857Y-109885442D01*
X118607857Y-109885442D02*
X118650714Y-109799728D01*
X118650714Y-109799728D02*
X118650714Y-109071157D01*
X119079285Y-109971157D02*
X119079285Y-109071157D01*
X119079285Y-109071157D02*
X119593571Y-109971157D01*
X119593571Y-109971157D02*
X119593571Y-109071157D01*
X80899286Y-116734014D02*
X80813572Y-116691157D01*
X80813572Y-116691157D02*
X80685000Y-116691157D01*
X80685000Y-116691157D02*
X80556429Y-116734014D01*
X80556429Y-116734014D02*
X80470714Y-116819728D01*
X80470714Y-116819728D02*
X80427857Y-116905442D01*
X80427857Y-116905442D02*
X80385000Y-117076871D01*
X80385000Y-117076871D02*
X80385000Y-117205442D01*
X80385000Y-117205442D02*
X80427857Y-117376871D01*
X80427857Y-117376871D02*
X80470714Y-117462585D01*
X80470714Y-117462585D02*
X80556429Y-117548300D01*
X80556429Y-117548300D02*
X80685000Y-117591157D01*
X80685000Y-117591157D02*
X80770714Y-117591157D01*
X80770714Y-117591157D02*
X80899286Y-117548300D01*
X80899286Y-117548300D02*
X80942143Y-117505442D01*
X80942143Y-117505442D02*
X80942143Y-117205442D01*
X80942143Y-117205442D02*
X80770714Y-117205442D01*
X81327857Y-117591157D02*
X81327857Y-116691157D01*
X81327857Y-116691157D02*
X81842143Y-117591157D01*
X81842143Y-117591157D02*
X81842143Y-116691157D01*
X82270714Y-117591157D02*
X82270714Y-116691157D01*
X82270714Y-116691157D02*
X82485000Y-116691157D01*
X82485000Y-116691157D02*
X82613571Y-116734014D01*
X82613571Y-116734014D02*
X82699286Y-116819728D01*
X82699286Y-116819728D02*
X82742143Y-116905442D01*
X82742143Y-116905442D02*
X82785000Y-117076871D01*
X82785000Y-117076871D02*
X82785000Y-117205442D01*
X82785000Y-117205442D02*
X82742143Y-117376871D01*
X82742143Y-117376871D02*
X82699286Y-117462585D01*
X82699286Y-117462585D02*
X82613571Y-117548300D01*
X82613571Y-117548300D02*
X82485000Y-117591157D01*
X82485000Y-117591157D02*
X82270714Y-117591157D01*
X117729286Y-116734014D02*
X117643572Y-116691157D01*
X117643572Y-116691157D02*
X117515000Y-116691157D01*
X117515000Y-116691157D02*
X117386429Y-116734014D01*
X117386429Y-116734014D02*
X117300714Y-116819728D01*
X117300714Y-116819728D02*
X117257857Y-116905442D01*
X117257857Y-116905442D02*
X117215000Y-117076871D01*
X117215000Y-117076871D02*
X117215000Y-117205442D01*
X117215000Y-117205442D02*
X117257857Y-117376871D01*
X117257857Y-117376871D02*
X117300714Y-117462585D01*
X117300714Y-117462585D02*
X117386429Y-117548300D01*
X117386429Y-117548300D02*
X117515000Y-117591157D01*
X117515000Y-117591157D02*
X117600714Y-117591157D01*
X117600714Y-117591157D02*
X117729286Y-117548300D01*
X117729286Y-117548300D02*
X117772143Y-117505442D01*
X117772143Y-117505442D02*
X117772143Y-117205442D01*
X117772143Y-117205442D02*
X117600714Y-117205442D01*
X118157857Y-117591157D02*
X118157857Y-116691157D01*
X118157857Y-116691157D02*
X118672143Y-117591157D01*
X118672143Y-117591157D02*
X118672143Y-116691157D01*
X119100714Y-117591157D02*
X119100714Y-116691157D01*
X119100714Y-116691157D02*
X119315000Y-116691157D01*
X119315000Y-116691157D02*
X119443571Y-116734014D01*
X119443571Y-116734014D02*
X119529286Y-116819728D01*
X119529286Y-116819728D02*
X119572143Y-116905442D01*
X119572143Y-116905442D02*
X119615000Y-117076871D01*
X119615000Y-117076871D02*
X119615000Y-117205442D01*
X119615000Y-117205442D02*
X119572143Y-117376871D01*
X119572143Y-117376871D02*
X119529286Y-117462585D01*
X119529286Y-117462585D02*
X119443571Y-117548300D01*
X119443571Y-117548300D02*
X119315000Y-117591157D01*
X119315000Y-117591157D02*
X119100714Y-117591157D01*
X117343571Y-73554014D02*
X117257857Y-73511157D01*
X117257857Y-73511157D02*
X117129285Y-73511157D01*
X117129285Y-73511157D02*
X117000714Y-73554014D01*
X117000714Y-73554014D02*
X116914999Y-73639728D01*
X116914999Y-73639728D02*
X116872142Y-73725442D01*
X116872142Y-73725442D02*
X116829285Y-73896871D01*
X116829285Y-73896871D02*
X116829285Y-74025442D01*
X116829285Y-74025442D02*
X116872142Y-74196871D01*
X116872142Y-74196871D02*
X116914999Y-74282585D01*
X116914999Y-74282585D02*
X117000714Y-74368300D01*
X117000714Y-74368300D02*
X117129285Y-74411157D01*
X117129285Y-74411157D02*
X117214999Y-74411157D01*
X117214999Y-74411157D02*
X117343571Y-74368300D01*
X117343571Y-74368300D02*
X117386428Y-74325442D01*
X117386428Y-74325442D02*
X117386428Y-74025442D01*
X117386428Y-74025442D02*
X117214999Y-74025442D01*
X117772142Y-74411157D02*
X117772142Y-73511157D01*
X117772142Y-73511157D02*
X118114999Y-73511157D01*
X118114999Y-73511157D02*
X118200714Y-73554014D01*
X118200714Y-73554014D02*
X118243571Y-73596871D01*
X118243571Y-73596871D02*
X118286428Y-73682585D01*
X118286428Y-73682585D02*
X118286428Y-73811157D01*
X118286428Y-73811157D02*
X118243571Y-73896871D01*
X118243571Y-73896871D02*
X118200714Y-73939728D01*
X118200714Y-73939728D02*
X118114999Y-73982585D01*
X118114999Y-73982585D02*
X117772142Y-73982585D01*
X118629285Y-73596871D02*
X118672142Y-73554014D01*
X118672142Y-73554014D02*
X118757857Y-73511157D01*
X118757857Y-73511157D02*
X118972142Y-73511157D01*
X118972142Y-73511157D02*
X119057857Y-73554014D01*
X119057857Y-73554014D02*
X119100714Y-73596871D01*
X119100714Y-73596871D02*
X119143571Y-73682585D01*
X119143571Y-73682585D02*
X119143571Y-73768300D01*
X119143571Y-73768300D02*
X119100714Y-73896871D01*
X119100714Y-73896871D02*
X118586428Y-74411157D01*
X118586428Y-74411157D02*
X119143571Y-74411157D01*
X119572142Y-74411157D02*
X119743571Y-74411157D01*
X119743571Y-74411157D02*
X119829285Y-74368300D01*
X119829285Y-74368300D02*
X119872142Y-74325442D01*
X119872142Y-74325442D02*
X119957857Y-74196871D01*
X119957857Y-74196871D02*
X120000714Y-74025442D01*
X120000714Y-74025442D02*
X120000714Y-73682585D01*
X120000714Y-73682585D02*
X119957857Y-73596871D01*
X119957857Y-73596871D02*
X119915000Y-73554014D01*
X119915000Y-73554014D02*
X119829285Y-73511157D01*
X119829285Y-73511157D02*
X119657857Y-73511157D01*
X119657857Y-73511157D02*
X119572142Y-73554014D01*
X119572142Y-73554014D02*
X119529285Y-73596871D01*
X119529285Y-73596871D02*
X119486428Y-73682585D01*
X119486428Y-73682585D02*
X119486428Y-73896871D01*
X119486428Y-73896871D02*
X119529285Y-73982585D01*
X119529285Y-73982585D02*
X119572142Y-74025442D01*
X119572142Y-74025442D02*
X119657857Y-74068300D01*
X119657857Y-74068300D02*
X119829285Y-74068300D01*
X119829285Y-74068300D02*
X119915000Y-74025442D01*
X119915000Y-74025442D02*
X119957857Y-73982585D01*
X119957857Y-73982585D02*
X120000714Y-73896871D01*
D11*
X85305180Y-90256666D02*
X85305180Y-90447142D01*
X85305180Y-90447142D02*
X85257561Y-90542380D01*
X85257561Y-90542380D02*
X85162323Y-90637618D01*
X85162323Y-90637618D02*
X84971847Y-90685237D01*
X84971847Y-90685237D02*
X84638514Y-90685237D01*
X84638514Y-90685237D02*
X84448038Y-90637618D01*
X84448038Y-90637618D02*
X84352800Y-90542380D01*
X84352800Y-90542380D02*
X84305180Y-90447142D01*
X84305180Y-90447142D02*
X84305180Y-90256666D01*
X84305180Y-90256666D02*
X84352800Y-90161428D01*
X84352800Y-90161428D02*
X84448038Y-90066190D01*
X84448038Y-90066190D02*
X84638514Y-90018571D01*
X84638514Y-90018571D02*
X84971847Y-90018571D01*
X84971847Y-90018571D02*
X85162323Y-90066190D01*
X85162323Y-90066190D02*
X85257561Y-90161428D01*
X85257561Y-90161428D02*
X85305180Y-90256666D01*
X84971847Y-91542380D02*
X84305180Y-91542380D01*
X84971847Y-91113809D02*
X84448038Y-91113809D01*
X84448038Y-91113809D02*
X84352800Y-91161428D01*
X84352800Y-91161428D02*
X84305180Y-91256666D01*
X84305180Y-91256666D02*
X84305180Y-91399523D01*
X84305180Y-91399523D02*
X84352800Y-91494761D01*
X84352800Y-91494761D02*
X84400419Y-91542380D01*
X84971847Y-91875714D02*
X84971847Y-92256666D01*
X85305180Y-92018571D02*
X84448038Y-92018571D01*
X84448038Y-92018571D02*
X84352800Y-92066190D01*
X84352800Y-92066190D02*
X84305180Y-92161428D01*
X84305180Y-92161428D02*
X84305180Y-92256666D01*
X84352800Y-92970952D02*
X84305180Y-92875714D01*
X84305180Y-92875714D02*
X84305180Y-92685238D01*
X84305180Y-92685238D02*
X84352800Y-92590000D01*
X84352800Y-92590000D02*
X84448038Y-92542381D01*
X84448038Y-92542381D02*
X84828990Y-92542381D01*
X84828990Y-92542381D02*
X84924228Y-92590000D01*
X84924228Y-92590000D02*
X84971847Y-92685238D01*
X84971847Y-92685238D02*
X84971847Y-92875714D01*
X84971847Y-92875714D02*
X84924228Y-92970952D01*
X84924228Y-92970952D02*
X84828990Y-93018571D01*
X84828990Y-93018571D02*
X84733752Y-93018571D01*
X84733752Y-93018571D02*
X84638514Y-92542381D01*
X84305180Y-93447143D02*
X84971847Y-93447143D01*
X84781371Y-93447143D02*
X84876609Y-93494762D01*
X84876609Y-93494762D02*
X84924228Y-93542381D01*
X84924228Y-93542381D02*
X84971847Y-93637619D01*
X84971847Y-93637619D02*
X84971847Y-93732857D01*
X84305180Y-95399524D02*
X84781371Y-95066191D01*
X84305180Y-94828096D02*
X85305180Y-94828096D01*
X85305180Y-94828096D02*
X85305180Y-95209048D01*
X85305180Y-95209048D02*
X85257561Y-95304286D01*
X85257561Y-95304286D02*
X85209942Y-95351905D01*
X85209942Y-95351905D02*
X85114704Y-95399524D01*
X85114704Y-95399524D02*
X84971847Y-95399524D01*
X84971847Y-95399524D02*
X84876609Y-95351905D01*
X84876609Y-95351905D02*
X84828990Y-95304286D01*
X84828990Y-95304286D02*
X84781371Y-95209048D01*
X84781371Y-95209048D02*
X84781371Y-94828096D01*
X84305180Y-95970953D02*
X84352800Y-95875715D01*
X84352800Y-95875715D02*
X84400419Y-95828096D01*
X84400419Y-95828096D02*
X84495657Y-95780477D01*
X84495657Y-95780477D02*
X84781371Y-95780477D01*
X84781371Y-95780477D02*
X84876609Y-95828096D01*
X84876609Y-95828096D02*
X84924228Y-95875715D01*
X84924228Y-95875715D02*
X84971847Y-95970953D01*
X84971847Y-95970953D02*
X84971847Y-96113810D01*
X84971847Y-96113810D02*
X84924228Y-96209048D01*
X84924228Y-96209048D02*
X84876609Y-96256667D01*
X84876609Y-96256667D02*
X84781371Y-96304286D01*
X84781371Y-96304286D02*
X84495657Y-96304286D01*
X84495657Y-96304286D02*
X84400419Y-96256667D01*
X84400419Y-96256667D02*
X84352800Y-96209048D01*
X84352800Y-96209048D02*
X84305180Y-96113810D01*
X84305180Y-96113810D02*
X84305180Y-95970953D01*
X84971847Y-96637620D02*
X84305180Y-96828096D01*
X84305180Y-96828096D02*
X84781371Y-97018572D01*
X84781371Y-97018572D02*
X84305180Y-97209048D01*
X84305180Y-97209048D02*
X84971847Y-97399524D01*
X85257561Y-99066191D02*
X85305180Y-98970953D01*
X85305180Y-98970953D02*
X85305180Y-98828096D01*
X85305180Y-98828096D02*
X85257561Y-98685239D01*
X85257561Y-98685239D02*
X85162323Y-98590001D01*
X85162323Y-98590001D02*
X85067085Y-98542382D01*
X85067085Y-98542382D02*
X84876609Y-98494763D01*
X84876609Y-98494763D02*
X84733752Y-98494763D01*
X84733752Y-98494763D02*
X84543276Y-98542382D01*
X84543276Y-98542382D02*
X84448038Y-98590001D01*
X84448038Y-98590001D02*
X84352800Y-98685239D01*
X84352800Y-98685239D02*
X84305180Y-98828096D01*
X84305180Y-98828096D02*
X84305180Y-98923334D01*
X84305180Y-98923334D02*
X84352800Y-99066191D01*
X84352800Y-99066191D02*
X84400419Y-99113810D01*
X84400419Y-99113810D02*
X84733752Y-99113810D01*
X84733752Y-99113810D02*
X84733752Y-98923334D01*
X84305180Y-99542382D02*
X85305180Y-99542382D01*
X85305180Y-99542382D02*
X84305180Y-100113810D01*
X84305180Y-100113810D02*
X85305180Y-100113810D01*
X84305180Y-100590001D02*
X85305180Y-100590001D01*
X85305180Y-100590001D02*
X85305180Y-100828096D01*
X85305180Y-100828096D02*
X85257561Y-100970953D01*
X85257561Y-100970953D02*
X85162323Y-101066191D01*
X85162323Y-101066191D02*
X85067085Y-101113810D01*
X85067085Y-101113810D02*
X84876609Y-101161429D01*
X84876609Y-101161429D02*
X84733752Y-101161429D01*
X84733752Y-101161429D02*
X84543276Y-101113810D01*
X84543276Y-101113810D02*
X84448038Y-101066191D01*
X84448038Y-101066191D02*
X84352800Y-100970953D01*
X84352800Y-100970953D02*
X84305180Y-100828096D01*
X84305180Y-100828096D02*
X84305180Y-100590001D01*
X114694819Y-100923333D02*
X114694819Y-100732857D01*
X114694819Y-100732857D02*
X114742438Y-100637619D01*
X114742438Y-100637619D02*
X114837676Y-100542381D01*
X114837676Y-100542381D02*
X115028152Y-100494762D01*
X115028152Y-100494762D02*
X115361485Y-100494762D01*
X115361485Y-100494762D02*
X115551961Y-100542381D01*
X115551961Y-100542381D02*
X115647200Y-100637619D01*
X115647200Y-100637619D02*
X115694819Y-100732857D01*
X115694819Y-100732857D02*
X115694819Y-100923333D01*
X115694819Y-100923333D02*
X115647200Y-101018571D01*
X115647200Y-101018571D02*
X115551961Y-101113809D01*
X115551961Y-101113809D02*
X115361485Y-101161428D01*
X115361485Y-101161428D02*
X115028152Y-101161428D01*
X115028152Y-101161428D02*
X114837676Y-101113809D01*
X114837676Y-101113809D02*
X114742438Y-101018571D01*
X114742438Y-101018571D02*
X114694819Y-100923333D01*
X115028152Y-99637619D02*
X115694819Y-99637619D01*
X115028152Y-100066190D02*
X115551961Y-100066190D01*
X115551961Y-100066190D02*
X115647200Y-100018571D01*
X115647200Y-100018571D02*
X115694819Y-99923333D01*
X115694819Y-99923333D02*
X115694819Y-99780476D01*
X115694819Y-99780476D02*
X115647200Y-99685238D01*
X115647200Y-99685238D02*
X115599580Y-99637619D01*
X115028152Y-99304285D02*
X115028152Y-98923333D01*
X114694819Y-99161428D02*
X115551961Y-99161428D01*
X115551961Y-99161428D02*
X115647200Y-99113809D01*
X115647200Y-99113809D02*
X115694819Y-99018571D01*
X115694819Y-99018571D02*
X115694819Y-98923333D01*
X115647200Y-98209047D02*
X115694819Y-98304285D01*
X115694819Y-98304285D02*
X115694819Y-98494761D01*
X115694819Y-98494761D02*
X115647200Y-98589999D01*
X115647200Y-98589999D02*
X115551961Y-98637618D01*
X115551961Y-98637618D02*
X115171009Y-98637618D01*
X115171009Y-98637618D02*
X115075771Y-98589999D01*
X115075771Y-98589999D02*
X115028152Y-98494761D01*
X115028152Y-98494761D02*
X115028152Y-98304285D01*
X115028152Y-98304285D02*
X115075771Y-98209047D01*
X115075771Y-98209047D02*
X115171009Y-98161428D01*
X115171009Y-98161428D02*
X115266247Y-98161428D01*
X115266247Y-98161428D02*
X115361485Y-98637618D01*
X115694819Y-97732856D02*
X115028152Y-97732856D01*
X115218628Y-97732856D02*
X115123390Y-97685237D01*
X115123390Y-97685237D02*
X115075771Y-97637618D01*
X115075771Y-97637618D02*
X115028152Y-97542380D01*
X115028152Y-97542380D02*
X115028152Y-97447142D01*
X115694819Y-95780475D02*
X115218628Y-96113808D01*
X115694819Y-96351903D02*
X114694819Y-96351903D01*
X114694819Y-96351903D02*
X114694819Y-95970951D01*
X114694819Y-95970951D02*
X114742438Y-95875713D01*
X114742438Y-95875713D02*
X114790057Y-95828094D01*
X114790057Y-95828094D02*
X114885295Y-95780475D01*
X114885295Y-95780475D02*
X115028152Y-95780475D01*
X115028152Y-95780475D02*
X115123390Y-95828094D01*
X115123390Y-95828094D02*
X115171009Y-95875713D01*
X115171009Y-95875713D02*
X115218628Y-95970951D01*
X115218628Y-95970951D02*
X115218628Y-96351903D01*
X115694819Y-95209046D02*
X115647200Y-95304284D01*
X115647200Y-95304284D02*
X115599580Y-95351903D01*
X115599580Y-95351903D02*
X115504342Y-95399522D01*
X115504342Y-95399522D02*
X115218628Y-95399522D01*
X115218628Y-95399522D02*
X115123390Y-95351903D01*
X115123390Y-95351903D02*
X115075771Y-95304284D01*
X115075771Y-95304284D02*
X115028152Y-95209046D01*
X115028152Y-95209046D02*
X115028152Y-95066189D01*
X115028152Y-95066189D02*
X115075771Y-94970951D01*
X115075771Y-94970951D02*
X115123390Y-94923332D01*
X115123390Y-94923332D02*
X115218628Y-94875713D01*
X115218628Y-94875713D02*
X115504342Y-94875713D01*
X115504342Y-94875713D02*
X115599580Y-94923332D01*
X115599580Y-94923332D02*
X115647200Y-94970951D01*
X115647200Y-94970951D02*
X115694819Y-95066189D01*
X115694819Y-95066189D02*
X115694819Y-95209046D01*
X115028152Y-94542379D02*
X115694819Y-94351903D01*
X115694819Y-94351903D02*
X115218628Y-94161427D01*
X115218628Y-94161427D02*
X115694819Y-93970951D01*
X115694819Y-93970951D02*
X115028152Y-93780475D01*
X114742438Y-92113808D02*
X114694819Y-92209046D01*
X114694819Y-92209046D02*
X114694819Y-92351903D01*
X114694819Y-92351903D02*
X114742438Y-92494760D01*
X114742438Y-92494760D02*
X114837676Y-92589998D01*
X114837676Y-92589998D02*
X114932914Y-92637617D01*
X114932914Y-92637617D02*
X115123390Y-92685236D01*
X115123390Y-92685236D02*
X115266247Y-92685236D01*
X115266247Y-92685236D02*
X115456723Y-92637617D01*
X115456723Y-92637617D02*
X115551961Y-92589998D01*
X115551961Y-92589998D02*
X115647200Y-92494760D01*
X115647200Y-92494760D02*
X115694819Y-92351903D01*
X115694819Y-92351903D02*
X115694819Y-92256665D01*
X115694819Y-92256665D02*
X115647200Y-92113808D01*
X115647200Y-92113808D02*
X115599580Y-92066189D01*
X115599580Y-92066189D02*
X115266247Y-92066189D01*
X115266247Y-92066189D02*
X115266247Y-92256665D01*
X115694819Y-91637617D02*
X114694819Y-91637617D01*
X114694819Y-91637617D02*
X115694819Y-91066189D01*
X115694819Y-91066189D02*
X114694819Y-91066189D01*
X115694819Y-90589998D02*
X114694819Y-90589998D01*
X114694819Y-90589998D02*
X114694819Y-90351903D01*
X114694819Y-90351903D02*
X114742438Y-90209046D01*
X114742438Y-90209046D02*
X114837676Y-90113808D01*
X114837676Y-90113808D02*
X114932914Y-90066189D01*
X114932914Y-90066189D02*
X115123390Y-90018570D01*
X115123390Y-90018570D02*
X115266247Y-90018570D01*
X115266247Y-90018570D02*
X115456723Y-90066189D01*
X115456723Y-90066189D02*
X115551961Y-90113808D01*
X115551961Y-90113808D02*
X115647200Y-90209046D01*
X115647200Y-90209046D02*
X115694819Y-90351903D01*
X115694819Y-90351903D02*
X115694819Y-90589998D01*
X92714284Y-117354819D02*
X92380951Y-116878628D01*
X92142856Y-117354819D02*
X92142856Y-116354819D01*
X92142856Y-116354819D02*
X92523808Y-116354819D01*
X92523808Y-116354819D02*
X92619046Y-116402438D01*
X92619046Y-116402438D02*
X92666665Y-116450057D01*
X92666665Y-116450057D02*
X92714284Y-116545295D01*
X92714284Y-116545295D02*
X92714284Y-116688152D01*
X92714284Y-116688152D02*
X92666665Y-116783390D01*
X92666665Y-116783390D02*
X92619046Y-116831009D01*
X92619046Y-116831009D02*
X92523808Y-116878628D01*
X92523808Y-116878628D02*
X92142856Y-116878628D01*
X93571427Y-117354819D02*
X93571427Y-116831009D01*
X93571427Y-116831009D02*
X93523808Y-116735771D01*
X93523808Y-116735771D02*
X93428570Y-116688152D01*
X93428570Y-116688152D02*
X93238094Y-116688152D01*
X93238094Y-116688152D02*
X93142856Y-116735771D01*
X93571427Y-117307200D02*
X93476189Y-117354819D01*
X93476189Y-117354819D02*
X93238094Y-117354819D01*
X93238094Y-117354819D02*
X93142856Y-117307200D01*
X93142856Y-117307200D02*
X93095237Y-117211961D01*
X93095237Y-117211961D02*
X93095237Y-117116723D01*
X93095237Y-117116723D02*
X93142856Y-117021485D01*
X93142856Y-117021485D02*
X93238094Y-116973866D01*
X93238094Y-116973866D02*
X93476189Y-116973866D01*
X93476189Y-116973866D02*
X93571427Y-116926247D01*
X93999999Y-117307200D02*
X94095237Y-117354819D01*
X94095237Y-117354819D02*
X94285713Y-117354819D01*
X94285713Y-117354819D02*
X94380951Y-117307200D01*
X94380951Y-117307200D02*
X94428570Y-117211961D01*
X94428570Y-117211961D02*
X94428570Y-117164342D01*
X94428570Y-117164342D02*
X94380951Y-117069104D01*
X94380951Y-117069104D02*
X94285713Y-117021485D01*
X94285713Y-117021485D02*
X94142856Y-117021485D01*
X94142856Y-117021485D02*
X94047618Y-116973866D01*
X94047618Y-116973866D02*
X93999999Y-116878628D01*
X93999999Y-116878628D02*
X93999999Y-116831009D01*
X93999999Y-116831009D02*
X94047618Y-116735771D01*
X94047618Y-116735771D02*
X94142856Y-116688152D01*
X94142856Y-116688152D02*
X94285713Y-116688152D01*
X94285713Y-116688152D02*
X94380951Y-116735771D01*
X94857142Y-116688152D02*
X94857142Y-117688152D01*
X94857142Y-116735771D02*
X94952380Y-116688152D01*
X94952380Y-116688152D02*
X95142856Y-116688152D01*
X95142856Y-116688152D02*
X95238094Y-116735771D01*
X95238094Y-116735771D02*
X95285713Y-116783390D01*
X95285713Y-116783390D02*
X95333332Y-116878628D01*
X95333332Y-116878628D02*
X95333332Y-117164342D01*
X95333332Y-117164342D02*
X95285713Y-117259580D01*
X95285713Y-117259580D02*
X95238094Y-117307200D01*
X95238094Y-117307200D02*
X95142856Y-117354819D01*
X95142856Y-117354819D02*
X94952380Y-117354819D01*
X94952380Y-117354819D02*
X94857142Y-117307200D01*
X95761904Y-117354819D02*
X95761904Y-116354819D01*
X95761904Y-116735771D02*
X95857142Y-116688152D01*
X95857142Y-116688152D02*
X96047618Y-116688152D01*
X96047618Y-116688152D02*
X96142856Y-116735771D01*
X96142856Y-116735771D02*
X96190475Y-116783390D01*
X96190475Y-116783390D02*
X96238094Y-116878628D01*
X96238094Y-116878628D02*
X96238094Y-117164342D01*
X96238094Y-117164342D02*
X96190475Y-117259580D01*
X96190475Y-117259580D02*
X96142856Y-117307200D01*
X96142856Y-117307200D02*
X96047618Y-117354819D01*
X96047618Y-117354819D02*
X95857142Y-117354819D01*
X95857142Y-117354819D02*
X95761904Y-117307200D01*
X97047618Y-117307200D02*
X96952380Y-117354819D01*
X96952380Y-117354819D02*
X96761904Y-117354819D01*
X96761904Y-117354819D02*
X96666666Y-117307200D01*
X96666666Y-117307200D02*
X96619047Y-117211961D01*
X96619047Y-117211961D02*
X96619047Y-116831009D01*
X96619047Y-116831009D02*
X96666666Y-116735771D01*
X96666666Y-116735771D02*
X96761904Y-116688152D01*
X96761904Y-116688152D02*
X96952380Y-116688152D01*
X96952380Y-116688152D02*
X97047618Y-116735771D01*
X97047618Y-116735771D02*
X97095237Y-116831009D01*
X97095237Y-116831009D02*
X97095237Y-116926247D01*
X97095237Y-116926247D02*
X96619047Y-117021485D01*
X97523809Y-117354819D02*
X97523809Y-116688152D01*
X97523809Y-116878628D02*
X97571428Y-116783390D01*
X97571428Y-116783390D02*
X97619047Y-116735771D01*
X97619047Y-116735771D02*
X97714285Y-116688152D01*
X97714285Y-116688152D02*
X97809523Y-116688152D01*
X98142857Y-117354819D02*
X98142857Y-116688152D01*
X98142857Y-116878628D02*
X98190476Y-116783390D01*
X98190476Y-116783390D02*
X98238095Y-116735771D01*
X98238095Y-116735771D02*
X98333333Y-116688152D01*
X98333333Y-116688152D02*
X98428571Y-116688152D01*
X98666667Y-116688152D02*
X98904762Y-117354819D01*
X99142857Y-116688152D02*
X98904762Y-117354819D01*
X98904762Y-117354819D02*
X98809524Y-117592914D01*
X98809524Y-117592914D02*
X98761905Y-117640533D01*
X98761905Y-117640533D02*
X98666667Y-117688152D01*
X100285715Y-117354819D02*
X100285715Y-116354819D01*
X100285715Y-116354819D02*
X100666667Y-116354819D01*
X100666667Y-116354819D02*
X100761905Y-116402438D01*
X100761905Y-116402438D02*
X100809524Y-116450057D01*
X100809524Y-116450057D02*
X100857143Y-116545295D01*
X100857143Y-116545295D02*
X100857143Y-116688152D01*
X100857143Y-116688152D02*
X100809524Y-116783390D01*
X100809524Y-116783390D02*
X100761905Y-116831009D01*
X100761905Y-116831009D02*
X100666667Y-116878628D01*
X100666667Y-116878628D02*
X100285715Y-116878628D01*
X101285715Y-117354819D02*
X101285715Y-116688152D01*
X101285715Y-116354819D02*
X101238096Y-116402438D01*
X101238096Y-116402438D02*
X101285715Y-116450057D01*
X101285715Y-116450057D02*
X101333334Y-116402438D01*
X101333334Y-116402438D02*
X101285715Y-116354819D01*
X101285715Y-116354819D02*
X101285715Y-116450057D01*
X103095238Y-117354819D02*
X102761905Y-116878628D01*
X102523810Y-117354819D02*
X102523810Y-116354819D01*
X102523810Y-116354819D02*
X102904762Y-116354819D01*
X102904762Y-116354819D02*
X103000000Y-116402438D01*
X103000000Y-116402438D02*
X103047619Y-116450057D01*
X103047619Y-116450057D02*
X103095238Y-116545295D01*
X103095238Y-116545295D02*
X103095238Y-116688152D01*
X103095238Y-116688152D02*
X103047619Y-116783390D01*
X103047619Y-116783390D02*
X103000000Y-116831009D01*
X103000000Y-116831009D02*
X102904762Y-116878628D01*
X102904762Y-116878628D02*
X102523810Y-116878628D01*
X103523810Y-117354819D02*
X103523810Y-116354819D01*
X103523810Y-116354819D02*
X103904762Y-116354819D01*
X103904762Y-116354819D02*
X104000000Y-116402438D01*
X104000000Y-116402438D02*
X104047619Y-116450057D01*
X104047619Y-116450057D02*
X104095238Y-116545295D01*
X104095238Y-116545295D02*
X104095238Y-116688152D01*
X104095238Y-116688152D02*
X104047619Y-116783390D01*
X104047619Y-116783390D02*
X104000000Y-116831009D01*
X104000000Y-116831009D02*
X103904762Y-116878628D01*
X103904762Y-116878628D02*
X103523810Y-116878628D01*
X104476191Y-116450057D02*
X104523810Y-116402438D01*
X104523810Y-116402438D02*
X104619048Y-116354819D01*
X104619048Y-116354819D02*
X104857143Y-116354819D01*
X104857143Y-116354819D02*
X104952381Y-116402438D01*
X104952381Y-116402438D02*
X105000000Y-116450057D01*
X105000000Y-116450057D02*
X105047619Y-116545295D01*
X105047619Y-116545295D02*
X105047619Y-116640533D01*
X105047619Y-116640533D02*
X105000000Y-116783390D01*
X105000000Y-116783390D02*
X104428572Y-117354819D01*
X104428572Y-117354819D02*
X105047619Y-117354819D01*
X105666667Y-116354819D02*
X105761905Y-116354819D01*
X105761905Y-116354819D02*
X105857143Y-116402438D01*
X105857143Y-116402438D02*
X105904762Y-116450057D01*
X105904762Y-116450057D02*
X105952381Y-116545295D01*
X105952381Y-116545295D02*
X106000000Y-116735771D01*
X106000000Y-116735771D02*
X106000000Y-116973866D01*
X106000000Y-116973866D02*
X105952381Y-117164342D01*
X105952381Y-117164342D02*
X105904762Y-117259580D01*
X105904762Y-117259580D02*
X105857143Y-117307200D01*
X105857143Y-117307200D02*
X105761905Y-117354819D01*
X105761905Y-117354819D02*
X105666667Y-117354819D01*
X105666667Y-117354819D02*
X105571429Y-117307200D01*
X105571429Y-117307200D02*
X105523810Y-117259580D01*
X105523810Y-117259580D02*
X105476191Y-117164342D01*
X105476191Y-117164342D02*
X105428572Y-116973866D01*
X105428572Y-116973866D02*
X105428572Y-116735771D01*
X105428572Y-116735771D02*
X105476191Y-116545295D01*
X105476191Y-116545295D02*
X105523810Y-116450057D01*
X105523810Y-116450057D02*
X105571429Y-116402438D01*
X105571429Y-116402438D02*
X105666667Y-116354819D01*
X106857143Y-116688152D02*
X106857143Y-117354819D01*
X106619048Y-116307200D02*
X106380953Y-117021485D01*
X106380953Y-117021485D02*
X107000000Y-117021485D01*
X107571429Y-116354819D02*
X107666667Y-116354819D01*
X107666667Y-116354819D02*
X107761905Y-116402438D01*
X107761905Y-116402438D02*
X107809524Y-116450057D01*
X107809524Y-116450057D02*
X107857143Y-116545295D01*
X107857143Y-116545295D02*
X107904762Y-116735771D01*
X107904762Y-116735771D02*
X107904762Y-116973866D01*
X107904762Y-116973866D02*
X107857143Y-117164342D01*
X107857143Y-117164342D02*
X107809524Y-117259580D01*
X107809524Y-117259580D02*
X107761905Y-117307200D01*
X107761905Y-117307200D02*
X107666667Y-117354819D01*
X107666667Y-117354819D02*
X107571429Y-117354819D01*
X107571429Y-117354819D02*
X107476191Y-117307200D01*
X107476191Y-117307200D02*
X107428572Y-117259580D01*
X107428572Y-117259580D02*
X107380953Y-117164342D01*
X107380953Y-117164342D02*
X107333334Y-116973866D01*
X107333334Y-116973866D02*
X107333334Y-116735771D01*
X107333334Y-116735771D02*
X107380953Y-116545295D01*
X107380953Y-116545295D02*
X107428572Y-116450057D01*
X107428572Y-116450057D02*
X107476191Y-116402438D01*
X107476191Y-116402438D02*
X107571429Y-116354819D01*
X97238095Y-118969104D02*
X97714285Y-118969104D01*
X97142857Y-119254819D02*
X97476190Y-118254819D01*
X97476190Y-118254819D02*
X97809523Y-119254819D01*
X98714285Y-119159580D02*
X98666666Y-119207200D01*
X98666666Y-119207200D02*
X98523809Y-119254819D01*
X98523809Y-119254819D02*
X98428571Y-119254819D01*
X98428571Y-119254819D02*
X98285714Y-119207200D01*
X98285714Y-119207200D02*
X98190476Y-119111961D01*
X98190476Y-119111961D02*
X98142857Y-119016723D01*
X98142857Y-119016723D02*
X98095238Y-118826247D01*
X98095238Y-118826247D02*
X98095238Y-118683390D01*
X98095238Y-118683390D02*
X98142857Y-118492914D01*
X98142857Y-118492914D02*
X98190476Y-118397676D01*
X98190476Y-118397676D02*
X98285714Y-118302438D01*
X98285714Y-118302438D02*
X98428571Y-118254819D01*
X98428571Y-118254819D02*
X98523809Y-118254819D01*
X98523809Y-118254819D02*
X98666666Y-118302438D01*
X98666666Y-118302438D02*
X98714285Y-118350057D01*
X99142857Y-118731009D02*
X99476190Y-118731009D01*
X99619047Y-119254819D02*
X99142857Y-119254819D01*
X99142857Y-119254819D02*
X99142857Y-118254819D01*
X99142857Y-118254819D02*
X99619047Y-118254819D01*
X100714286Y-118254819D02*
X101333333Y-118254819D01*
X101333333Y-118254819D02*
X101000000Y-118635771D01*
X101000000Y-118635771D02*
X101142857Y-118635771D01*
X101142857Y-118635771D02*
X101238095Y-118683390D01*
X101238095Y-118683390D02*
X101285714Y-118731009D01*
X101285714Y-118731009D02*
X101333333Y-118826247D01*
X101333333Y-118826247D02*
X101333333Y-119064342D01*
X101333333Y-119064342D02*
X101285714Y-119159580D01*
X101285714Y-119159580D02*
X101238095Y-119207200D01*
X101238095Y-119207200D02*
X101142857Y-119254819D01*
X101142857Y-119254819D02*
X100857143Y-119254819D01*
X100857143Y-119254819D02*
X100761905Y-119207200D01*
X100761905Y-119207200D02*
X100714286Y-119159580D01*
X101761905Y-119159580D02*
X101809524Y-119207200D01*
X101809524Y-119207200D02*
X101761905Y-119254819D01*
X101761905Y-119254819D02*
X101714286Y-119207200D01*
X101714286Y-119207200D02*
X101761905Y-119159580D01*
X101761905Y-119159580D02*
X101761905Y-119254819D01*
X102428571Y-118254819D02*
X102523809Y-118254819D01*
X102523809Y-118254819D02*
X102619047Y-118302438D01*
X102619047Y-118302438D02*
X102666666Y-118350057D01*
X102666666Y-118350057D02*
X102714285Y-118445295D01*
X102714285Y-118445295D02*
X102761904Y-118635771D01*
X102761904Y-118635771D02*
X102761904Y-118873866D01*
X102761904Y-118873866D02*
X102714285Y-119064342D01*
X102714285Y-119064342D02*
X102666666Y-119159580D01*
X102666666Y-119159580D02*
X102619047Y-119207200D01*
X102619047Y-119207200D02*
X102523809Y-119254819D01*
X102523809Y-119254819D02*
X102428571Y-119254819D01*
X102428571Y-119254819D02*
X102333333Y-119207200D01*
X102333333Y-119207200D02*
X102285714Y-119159580D01*
X102285714Y-119159580D02*
X102238095Y-119064342D01*
X102238095Y-119064342D02*
X102190476Y-118873866D01*
X102190476Y-118873866D02*
X102190476Y-118635771D01*
X102190476Y-118635771D02*
X102238095Y-118445295D01*
X102238095Y-118445295D02*
X102285714Y-118350057D01*
X102285714Y-118350057D02*
X102333333Y-118302438D01*
X102333333Y-118302438D02*
X102428571Y-118254819D01*
X90338095Y-71202438D02*
X90242857Y-71154819D01*
X90242857Y-71154819D02*
X90100000Y-71154819D01*
X90100000Y-71154819D02*
X89957143Y-71202438D01*
X89957143Y-71202438D02*
X89861905Y-71297676D01*
X89861905Y-71297676D02*
X89814286Y-71392914D01*
X89814286Y-71392914D02*
X89766667Y-71583390D01*
X89766667Y-71583390D02*
X89766667Y-71726247D01*
X89766667Y-71726247D02*
X89814286Y-71916723D01*
X89814286Y-71916723D02*
X89861905Y-72011961D01*
X89861905Y-72011961D02*
X89957143Y-72107200D01*
X89957143Y-72107200D02*
X90100000Y-72154819D01*
X90100000Y-72154819D02*
X90195238Y-72154819D01*
X90195238Y-72154819D02*
X90338095Y-72107200D01*
X90338095Y-72107200D02*
X90385714Y-72059580D01*
X90385714Y-72059580D02*
X90385714Y-71726247D01*
X90385714Y-71726247D02*
X90195238Y-71726247D01*
X90814286Y-72154819D02*
X90814286Y-71154819D01*
X90814286Y-71154819D02*
X91385714Y-72154819D01*
X91385714Y-72154819D02*
X91385714Y-71154819D01*
X91861905Y-72154819D02*
X91861905Y-71154819D01*
X91861905Y-71154819D02*
X92100000Y-71154819D01*
X92100000Y-71154819D02*
X92242857Y-71202438D01*
X92242857Y-71202438D02*
X92338095Y-71297676D01*
X92338095Y-71297676D02*
X92385714Y-71392914D01*
X92385714Y-71392914D02*
X92433333Y-71583390D01*
X92433333Y-71583390D02*
X92433333Y-71726247D01*
X92433333Y-71726247D02*
X92385714Y-71916723D01*
X92385714Y-71916723D02*
X92338095Y-72011961D01*
X92338095Y-72011961D02*
X92242857Y-72107200D01*
X92242857Y-72107200D02*
X92100000Y-72154819D01*
X92100000Y-72154819D02*
X91861905Y-72154819D01*
D10*
X80942143Y-76094014D02*
X80856429Y-76051157D01*
X80856429Y-76051157D02*
X80727857Y-76051157D01*
X80727857Y-76051157D02*
X80599286Y-76094014D01*
X80599286Y-76094014D02*
X80513571Y-76179728D01*
X80513571Y-76179728D02*
X80470714Y-76265442D01*
X80470714Y-76265442D02*
X80427857Y-76436871D01*
X80427857Y-76436871D02*
X80427857Y-76565442D01*
X80427857Y-76565442D02*
X80470714Y-76736871D01*
X80470714Y-76736871D02*
X80513571Y-76822585D01*
X80513571Y-76822585D02*
X80599286Y-76908300D01*
X80599286Y-76908300D02*
X80727857Y-76951157D01*
X80727857Y-76951157D02*
X80813571Y-76951157D01*
X80813571Y-76951157D02*
X80942143Y-76908300D01*
X80942143Y-76908300D02*
X80985000Y-76865442D01*
X80985000Y-76865442D02*
X80985000Y-76565442D01*
X80985000Y-76565442D02*
X80813571Y-76565442D01*
X81370714Y-76951157D02*
X81370714Y-76051157D01*
X81370714Y-76051157D02*
X81713571Y-76051157D01*
X81713571Y-76051157D02*
X81799286Y-76094014D01*
X81799286Y-76094014D02*
X81842143Y-76136871D01*
X81842143Y-76136871D02*
X81885000Y-76222585D01*
X81885000Y-76222585D02*
X81885000Y-76351157D01*
X81885000Y-76351157D02*
X81842143Y-76436871D01*
X81842143Y-76436871D02*
X81799286Y-76479728D01*
X81799286Y-76479728D02*
X81713571Y-76522585D01*
X81713571Y-76522585D02*
X81370714Y-76522585D01*
X82442143Y-76051157D02*
X82527857Y-76051157D01*
X82527857Y-76051157D02*
X82613571Y-76094014D01*
X82613571Y-76094014D02*
X82656429Y-76136871D01*
X82656429Y-76136871D02*
X82699286Y-76222585D01*
X82699286Y-76222585D02*
X82742143Y-76394014D01*
X82742143Y-76394014D02*
X82742143Y-76608300D01*
X82742143Y-76608300D02*
X82699286Y-76779728D01*
X82699286Y-76779728D02*
X82656429Y-76865442D01*
X82656429Y-76865442D02*
X82613571Y-76908300D01*
X82613571Y-76908300D02*
X82527857Y-76951157D01*
X82527857Y-76951157D02*
X82442143Y-76951157D01*
X82442143Y-76951157D02*
X82356429Y-76908300D01*
X82356429Y-76908300D02*
X82313571Y-76865442D01*
X82313571Y-76865442D02*
X82270714Y-76779728D01*
X82270714Y-76779728D02*
X82227857Y-76608300D01*
X82227857Y-76608300D02*
X82227857Y-76394014D01*
X82227857Y-76394014D02*
X82270714Y-76222585D01*
X82270714Y-76222585D02*
X82313571Y-76136871D01*
X82313571Y-76136871D02*
X82356429Y-76094014D01*
X82356429Y-76094014D02*
X82442143Y-76051157D01*
X80470714Y-73511157D02*
X81027857Y-73511157D01*
X81027857Y-73511157D02*
X80727857Y-73854014D01*
X80727857Y-73854014D02*
X80856428Y-73854014D01*
X80856428Y-73854014D02*
X80942143Y-73896871D01*
X80942143Y-73896871D02*
X80985000Y-73939728D01*
X80985000Y-73939728D02*
X81027857Y-74025442D01*
X81027857Y-74025442D02*
X81027857Y-74239728D01*
X81027857Y-74239728D02*
X80985000Y-74325442D01*
X80985000Y-74325442D02*
X80942143Y-74368300D01*
X80942143Y-74368300D02*
X80856428Y-74411157D01*
X80856428Y-74411157D02*
X80599285Y-74411157D01*
X80599285Y-74411157D02*
X80513571Y-74368300D01*
X80513571Y-74368300D02*
X80470714Y-74325442D01*
X81285000Y-73511157D02*
X81585000Y-74411157D01*
X81585000Y-74411157D02*
X81885000Y-73511157D01*
X82099286Y-73511157D02*
X82656429Y-73511157D01*
X82656429Y-73511157D02*
X82356429Y-73854014D01*
X82356429Y-73854014D02*
X82485000Y-73854014D01*
X82485000Y-73854014D02*
X82570715Y-73896871D01*
X82570715Y-73896871D02*
X82613572Y-73939728D01*
X82613572Y-73939728D02*
X82656429Y-74025442D01*
X82656429Y-74025442D02*
X82656429Y-74239728D01*
X82656429Y-74239728D02*
X82613572Y-74325442D01*
X82613572Y-74325442D02*
X82570715Y-74368300D01*
X82570715Y-74368300D02*
X82485000Y-74411157D01*
X82485000Y-74411157D02*
X82227857Y-74411157D01*
X82227857Y-74411157D02*
X82142143Y-74368300D01*
X82142143Y-74368300D02*
X82099286Y-74325442D01*
D11*
X88808571Y-78359791D02*
X88808571Y-79169314D01*
X88808571Y-79169314D02*
X88856190Y-79264552D01*
X88856190Y-79264552D02*
X88903809Y-79312172D01*
X88903809Y-79312172D02*
X88999047Y-79359791D01*
X88999047Y-79359791D02*
X89189523Y-79359791D01*
X89189523Y-79359791D02*
X89284761Y-79312172D01*
X89284761Y-79312172D02*
X89332380Y-79264552D01*
X89332380Y-79264552D02*
X89379999Y-79169314D01*
X89379999Y-79169314D02*
X89379999Y-78359791D01*
X89808571Y-79312172D02*
X89951428Y-79359791D01*
X89951428Y-79359791D02*
X90189523Y-79359791D01*
X90189523Y-79359791D02*
X90284761Y-79312172D01*
X90284761Y-79312172D02*
X90332380Y-79264552D01*
X90332380Y-79264552D02*
X90379999Y-79169314D01*
X90379999Y-79169314D02*
X90379999Y-79074076D01*
X90379999Y-79074076D02*
X90332380Y-78978838D01*
X90332380Y-78978838D02*
X90284761Y-78931219D01*
X90284761Y-78931219D02*
X90189523Y-78883600D01*
X90189523Y-78883600D02*
X89999047Y-78835981D01*
X89999047Y-78835981D02*
X89903809Y-78788362D01*
X89903809Y-78788362D02*
X89856190Y-78740743D01*
X89856190Y-78740743D02*
X89808571Y-78645505D01*
X89808571Y-78645505D02*
X89808571Y-78550267D01*
X89808571Y-78550267D02*
X89856190Y-78455029D01*
X89856190Y-78455029D02*
X89903809Y-78407410D01*
X89903809Y-78407410D02*
X89999047Y-78359791D01*
X89999047Y-78359791D02*
X90237142Y-78359791D01*
X90237142Y-78359791D02*
X90379999Y-78407410D01*
X91141904Y-78835981D02*
X91284761Y-78883600D01*
X91284761Y-78883600D02*
X91332380Y-78931219D01*
X91332380Y-78931219D02*
X91379999Y-79026457D01*
X91379999Y-79026457D02*
X91379999Y-79169314D01*
X91379999Y-79169314D02*
X91332380Y-79264552D01*
X91332380Y-79264552D02*
X91284761Y-79312172D01*
X91284761Y-79312172D02*
X91189523Y-79359791D01*
X91189523Y-79359791D02*
X90808571Y-79359791D01*
X90808571Y-79359791D02*
X90808571Y-78359791D01*
X90808571Y-78359791D02*
X91141904Y-78359791D01*
X91141904Y-78359791D02*
X91237142Y-78407410D01*
X91237142Y-78407410D02*
X91284761Y-78455029D01*
X91284761Y-78455029D02*
X91332380Y-78550267D01*
X91332380Y-78550267D02*
X91332380Y-78645505D01*
X91332380Y-78645505D02*
X91284761Y-78740743D01*
X91284761Y-78740743D02*
X91237142Y-78788362D01*
X91237142Y-78788362D02*
X91141904Y-78835981D01*
X91141904Y-78835981D02*
X90808571Y-78835981D01*
X91570476Y-79455029D02*
X92332380Y-79455029D01*
X92903809Y-78835981D02*
X93046666Y-78883600D01*
X93046666Y-78883600D02*
X93094285Y-78931219D01*
X93094285Y-78931219D02*
X93141904Y-79026457D01*
X93141904Y-79026457D02*
X93141904Y-79169314D01*
X93141904Y-79169314D02*
X93094285Y-79264552D01*
X93094285Y-79264552D02*
X93046666Y-79312172D01*
X93046666Y-79312172D02*
X92951428Y-79359791D01*
X92951428Y-79359791D02*
X92570476Y-79359791D01*
X92570476Y-79359791D02*
X92570476Y-78359791D01*
X92570476Y-78359791D02*
X92903809Y-78359791D01*
X92903809Y-78359791D02*
X92999047Y-78407410D01*
X92999047Y-78407410D02*
X93046666Y-78455029D01*
X93046666Y-78455029D02*
X93094285Y-78550267D01*
X93094285Y-78550267D02*
X93094285Y-78645505D01*
X93094285Y-78645505D02*
X93046666Y-78740743D01*
X93046666Y-78740743D02*
X92999047Y-78788362D01*
X92999047Y-78788362D02*
X92903809Y-78835981D01*
X92903809Y-78835981D02*
X92570476Y-78835981D01*
X93760952Y-78359791D02*
X93951428Y-78359791D01*
X93951428Y-78359791D02*
X94046666Y-78407410D01*
X94046666Y-78407410D02*
X94141904Y-78502648D01*
X94141904Y-78502648D02*
X94189523Y-78693124D01*
X94189523Y-78693124D02*
X94189523Y-79026457D01*
X94189523Y-79026457D02*
X94141904Y-79216933D01*
X94141904Y-79216933D02*
X94046666Y-79312172D01*
X94046666Y-79312172D02*
X93951428Y-79359791D01*
X93951428Y-79359791D02*
X93760952Y-79359791D01*
X93760952Y-79359791D02*
X93665714Y-79312172D01*
X93665714Y-79312172D02*
X93570476Y-79216933D01*
X93570476Y-79216933D02*
X93522857Y-79026457D01*
X93522857Y-79026457D02*
X93522857Y-78693124D01*
X93522857Y-78693124D02*
X93570476Y-78502648D01*
X93570476Y-78502648D02*
X93665714Y-78407410D01*
X93665714Y-78407410D02*
X93760952Y-78359791D01*
X94808571Y-78359791D02*
X94999047Y-78359791D01*
X94999047Y-78359791D02*
X95094285Y-78407410D01*
X95094285Y-78407410D02*
X95189523Y-78502648D01*
X95189523Y-78502648D02*
X95237142Y-78693124D01*
X95237142Y-78693124D02*
X95237142Y-79026457D01*
X95237142Y-79026457D02*
X95189523Y-79216933D01*
X95189523Y-79216933D02*
X95094285Y-79312172D01*
X95094285Y-79312172D02*
X94999047Y-79359791D01*
X94999047Y-79359791D02*
X94808571Y-79359791D01*
X94808571Y-79359791D02*
X94713333Y-79312172D01*
X94713333Y-79312172D02*
X94618095Y-79216933D01*
X94618095Y-79216933D02*
X94570476Y-79026457D01*
X94570476Y-79026457D02*
X94570476Y-78693124D01*
X94570476Y-78693124D02*
X94618095Y-78502648D01*
X94618095Y-78502648D02*
X94713333Y-78407410D01*
X94713333Y-78407410D02*
X94808571Y-78359791D01*
X95522857Y-78359791D02*
X96094285Y-78359791D01*
X95808571Y-79359791D02*
X95808571Y-78359791D01*
X84897142Y-112359580D02*
X84849523Y-112407200D01*
X84849523Y-112407200D02*
X84706666Y-112454819D01*
X84706666Y-112454819D02*
X84611428Y-112454819D01*
X84611428Y-112454819D02*
X84468571Y-112407200D01*
X84468571Y-112407200D02*
X84373333Y-112311961D01*
X84373333Y-112311961D02*
X84325714Y-112216723D01*
X84325714Y-112216723D02*
X84278095Y-112026247D01*
X84278095Y-112026247D02*
X84278095Y-111883390D01*
X84278095Y-111883390D02*
X84325714Y-111692914D01*
X84325714Y-111692914D02*
X84373333Y-111597676D01*
X84373333Y-111597676D02*
X84468571Y-111502438D01*
X84468571Y-111502438D02*
X84611428Y-111454819D01*
X84611428Y-111454819D02*
X84706666Y-111454819D01*
X84706666Y-111454819D02*
X84849523Y-111502438D01*
X84849523Y-111502438D02*
X84897142Y-111550057D01*
X85849523Y-112454819D02*
X85278095Y-112454819D01*
X85563809Y-112454819D02*
X85563809Y-111454819D01*
X85563809Y-111454819D02*
X85468571Y-111597676D01*
X85468571Y-111597676D02*
X85373333Y-111692914D01*
X85373333Y-111692914D02*
X85278095Y-111740533D01*
X86325714Y-112454819D02*
X86516190Y-112454819D01*
X86516190Y-112454819D02*
X86611428Y-112407200D01*
X86611428Y-112407200D02*
X86659047Y-112359580D01*
X86659047Y-112359580D02*
X86754285Y-112216723D01*
X86754285Y-112216723D02*
X86801904Y-112026247D01*
X86801904Y-112026247D02*
X86801904Y-111645295D01*
X86801904Y-111645295D02*
X86754285Y-111550057D01*
X86754285Y-111550057D02*
X86706666Y-111502438D01*
X86706666Y-111502438D02*
X86611428Y-111454819D01*
X86611428Y-111454819D02*
X86420952Y-111454819D01*
X86420952Y-111454819D02*
X86325714Y-111502438D01*
X86325714Y-111502438D02*
X86278095Y-111550057D01*
X86278095Y-111550057D02*
X86230476Y-111645295D01*
X86230476Y-111645295D02*
X86230476Y-111883390D01*
X86230476Y-111883390D02*
X86278095Y-111978628D01*
X86278095Y-111978628D02*
X86325714Y-112026247D01*
X86325714Y-112026247D02*
X86420952Y-112073866D01*
X86420952Y-112073866D02*
X86611428Y-112073866D01*
X86611428Y-112073866D02*
X86706666Y-112026247D01*
X86706666Y-112026247D02*
X86754285Y-111978628D01*
X86754285Y-111978628D02*
X86801904Y-111883390D01*
X84857142Y-109859580D02*
X84809523Y-109907200D01*
X84809523Y-109907200D02*
X84666666Y-109954819D01*
X84666666Y-109954819D02*
X84571428Y-109954819D01*
X84571428Y-109954819D02*
X84428571Y-109907200D01*
X84428571Y-109907200D02*
X84333333Y-109811961D01*
X84333333Y-109811961D02*
X84285714Y-109716723D01*
X84285714Y-109716723D02*
X84238095Y-109526247D01*
X84238095Y-109526247D02*
X84238095Y-109383390D01*
X84238095Y-109383390D02*
X84285714Y-109192914D01*
X84285714Y-109192914D02*
X84333333Y-109097676D01*
X84333333Y-109097676D02*
X84428571Y-109002438D01*
X84428571Y-109002438D02*
X84571428Y-108954819D01*
X84571428Y-108954819D02*
X84666666Y-108954819D01*
X84666666Y-108954819D02*
X84809523Y-109002438D01*
X84809523Y-109002438D02*
X84857142Y-109050057D01*
X85809523Y-109954819D02*
X85238095Y-109954819D01*
X85523809Y-109954819D02*
X85523809Y-108954819D01*
X85523809Y-108954819D02*
X85428571Y-109097676D01*
X85428571Y-109097676D02*
X85333333Y-109192914D01*
X85333333Y-109192914D02*
X85238095Y-109240533D01*
X86380952Y-109383390D02*
X86285714Y-109335771D01*
X86285714Y-109335771D02*
X86238095Y-109288152D01*
X86238095Y-109288152D02*
X86190476Y-109192914D01*
X86190476Y-109192914D02*
X86190476Y-109145295D01*
X86190476Y-109145295D02*
X86238095Y-109050057D01*
X86238095Y-109050057D02*
X86285714Y-109002438D01*
X86285714Y-109002438D02*
X86380952Y-108954819D01*
X86380952Y-108954819D02*
X86571428Y-108954819D01*
X86571428Y-108954819D02*
X86666666Y-109002438D01*
X86666666Y-109002438D02*
X86714285Y-109050057D01*
X86714285Y-109050057D02*
X86761904Y-109145295D01*
X86761904Y-109145295D02*
X86761904Y-109192914D01*
X86761904Y-109192914D02*
X86714285Y-109288152D01*
X86714285Y-109288152D02*
X86666666Y-109335771D01*
X86666666Y-109335771D02*
X86571428Y-109383390D01*
X86571428Y-109383390D02*
X86380952Y-109383390D01*
X86380952Y-109383390D02*
X86285714Y-109431009D01*
X86285714Y-109431009D02*
X86238095Y-109478628D01*
X86238095Y-109478628D02*
X86190476Y-109573866D01*
X86190476Y-109573866D02*
X86190476Y-109764342D01*
X86190476Y-109764342D02*
X86238095Y-109859580D01*
X86238095Y-109859580D02*
X86285714Y-109907200D01*
X86285714Y-109907200D02*
X86380952Y-109954819D01*
X86380952Y-109954819D02*
X86571428Y-109954819D01*
X86571428Y-109954819D02*
X86666666Y-109907200D01*
X86666666Y-109907200D02*
X86714285Y-109859580D01*
X86714285Y-109859580D02*
X86761904Y-109764342D01*
X86761904Y-109764342D02*
X86761904Y-109573866D01*
X86761904Y-109573866D02*
X86714285Y-109478628D01*
X86714285Y-109478628D02*
X86666666Y-109431009D01*
X86666666Y-109431009D02*
X86571428Y-109383390D01*
X91916095Y-107168819D02*
X91916095Y-107978342D01*
X91916095Y-107978342D02*
X91963714Y-108073580D01*
X91963714Y-108073580D02*
X92011333Y-108121200D01*
X92011333Y-108121200D02*
X92106571Y-108168819D01*
X92106571Y-108168819D02*
X92297047Y-108168819D01*
X92297047Y-108168819D02*
X92392285Y-108121200D01*
X92392285Y-108121200D02*
X92439904Y-108073580D01*
X92439904Y-108073580D02*
X92487523Y-107978342D01*
X92487523Y-107978342D02*
X92487523Y-107168819D01*
X93392285Y-107502152D02*
X93392285Y-108168819D01*
X93154190Y-107121200D02*
X92916095Y-107835485D01*
X92916095Y-107835485D02*
X93535142Y-107835485D01*
X108858333Y-91059580D02*
X108810714Y-91107200D01*
X108810714Y-91107200D02*
X108667857Y-91154819D01*
X108667857Y-91154819D02*
X108572619Y-91154819D01*
X108572619Y-91154819D02*
X108429762Y-91107200D01*
X108429762Y-91107200D02*
X108334524Y-91011961D01*
X108334524Y-91011961D02*
X108286905Y-90916723D01*
X108286905Y-90916723D02*
X108239286Y-90726247D01*
X108239286Y-90726247D02*
X108239286Y-90583390D01*
X108239286Y-90583390D02*
X108286905Y-90392914D01*
X108286905Y-90392914D02*
X108334524Y-90297676D01*
X108334524Y-90297676D02*
X108429762Y-90202438D01*
X108429762Y-90202438D02*
X108572619Y-90154819D01*
X108572619Y-90154819D02*
X108667857Y-90154819D01*
X108667857Y-90154819D02*
X108810714Y-90202438D01*
X108810714Y-90202438D02*
X108858333Y-90250057D01*
X109715476Y-90488152D02*
X109715476Y-91154819D01*
X109477381Y-90107200D02*
X109239286Y-90821485D01*
X109239286Y-90821485D02*
X109858333Y-90821485D01*
X105031666Y-73734819D02*
X105031666Y-74449104D01*
X105031666Y-74449104D02*
X104984047Y-74591961D01*
X104984047Y-74591961D02*
X104888809Y-74687200D01*
X104888809Y-74687200D02*
X104745952Y-74734819D01*
X104745952Y-74734819D02*
X104650714Y-74734819D01*
X106031666Y-74734819D02*
X105460238Y-74734819D01*
X105745952Y-74734819D02*
X105745952Y-73734819D01*
X105745952Y-73734819D02*
X105650714Y-73877676D01*
X105650714Y-73877676D02*
X105555476Y-73972914D01*
X105555476Y-73972914D02*
X105460238Y-74020533D01*
X93366666Y-76154819D02*
X93366666Y-76869104D01*
X93366666Y-76869104D02*
X93319047Y-77011961D01*
X93319047Y-77011961D02*
X93223809Y-77107200D01*
X93223809Y-77107200D02*
X93080952Y-77154819D01*
X93080952Y-77154819D02*
X92985714Y-77154819D01*
X93795238Y-76250057D02*
X93842857Y-76202438D01*
X93842857Y-76202438D02*
X93938095Y-76154819D01*
X93938095Y-76154819D02*
X94176190Y-76154819D01*
X94176190Y-76154819D02*
X94271428Y-76202438D01*
X94271428Y-76202438D02*
X94319047Y-76250057D01*
X94319047Y-76250057D02*
X94366666Y-76345295D01*
X94366666Y-76345295D02*
X94366666Y-76440533D01*
X94366666Y-76440533D02*
X94319047Y-76583390D01*
X94319047Y-76583390D02*
X93747619Y-77154819D01*
X93747619Y-77154819D02*
X94366666Y-77154819D01*
X76806666Y-71124819D02*
X76806666Y-71839104D01*
X76806666Y-71839104D02*
X76759047Y-71981961D01*
X76759047Y-71981961D02*
X76663809Y-72077200D01*
X76663809Y-72077200D02*
X76520952Y-72124819D01*
X76520952Y-72124819D02*
X76425714Y-72124819D01*
X77187619Y-71124819D02*
X77806666Y-71124819D01*
X77806666Y-71124819D02*
X77473333Y-71505771D01*
X77473333Y-71505771D02*
X77616190Y-71505771D01*
X77616190Y-71505771D02*
X77711428Y-71553390D01*
X77711428Y-71553390D02*
X77759047Y-71601009D01*
X77759047Y-71601009D02*
X77806666Y-71696247D01*
X77806666Y-71696247D02*
X77806666Y-71934342D01*
X77806666Y-71934342D02*
X77759047Y-72029580D01*
X77759047Y-72029580D02*
X77711428Y-72077200D01*
X77711428Y-72077200D02*
X77616190Y-72124819D01*
X77616190Y-72124819D02*
X77330476Y-72124819D01*
X77330476Y-72124819D02*
X77235238Y-72077200D01*
X77235238Y-72077200D02*
X77187619Y-72029580D01*
X105349580Y-90142857D02*
X105397200Y-90190476D01*
X105397200Y-90190476D02*
X105444819Y-90333333D01*
X105444819Y-90333333D02*
X105444819Y-90428571D01*
X105444819Y-90428571D02*
X105397200Y-90571428D01*
X105397200Y-90571428D02*
X105301961Y-90666666D01*
X105301961Y-90666666D02*
X105206723Y-90714285D01*
X105206723Y-90714285D02*
X105016247Y-90761904D01*
X105016247Y-90761904D02*
X104873390Y-90761904D01*
X104873390Y-90761904D02*
X104682914Y-90714285D01*
X104682914Y-90714285D02*
X104587676Y-90666666D01*
X104587676Y-90666666D02*
X104492438Y-90571428D01*
X104492438Y-90571428D02*
X104444819Y-90428571D01*
X104444819Y-90428571D02*
X104444819Y-90333333D01*
X104444819Y-90333333D02*
X104492438Y-90190476D01*
X104492438Y-90190476D02*
X104540057Y-90142857D01*
X105444819Y-89190476D02*
X105444819Y-89761904D01*
X105444819Y-89476190D02*
X104444819Y-89476190D01*
X104444819Y-89476190D02*
X104587676Y-89571428D01*
X104587676Y-89571428D02*
X104682914Y-89666666D01*
X104682914Y-89666666D02*
X104730533Y-89761904D01*
X104444819Y-88571428D02*
X104444819Y-88476190D01*
X104444819Y-88476190D02*
X104492438Y-88380952D01*
X104492438Y-88380952D02*
X104540057Y-88333333D01*
X104540057Y-88333333D02*
X104635295Y-88285714D01*
X104635295Y-88285714D02*
X104825771Y-88238095D01*
X104825771Y-88238095D02*
X105063866Y-88238095D01*
X105063866Y-88238095D02*
X105254342Y-88285714D01*
X105254342Y-88285714D02*
X105349580Y-88333333D01*
X105349580Y-88333333D02*
X105397200Y-88380952D01*
X105397200Y-88380952D02*
X105444819Y-88476190D01*
X105444819Y-88476190D02*
X105444819Y-88571428D01*
X105444819Y-88571428D02*
X105397200Y-88666666D01*
X105397200Y-88666666D02*
X105349580Y-88714285D01*
X105349580Y-88714285D02*
X105254342Y-88761904D01*
X105254342Y-88761904D02*
X105063866Y-88809523D01*
X105063866Y-88809523D02*
X104825771Y-88809523D01*
X104825771Y-88809523D02*
X104635295Y-88761904D01*
X104635295Y-88761904D02*
X104540057Y-88714285D01*
X104540057Y-88714285D02*
X104492438Y-88666666D01*
X104492438Y-88666666D02*
X104444819Y-88571428D01*
X104049580Y-90166666D02*
X104097200Y-90214285D01*
X104097200Y-90214285D02*
X104144819Y-90357142D01*
X104144819Y-90357142D02*
X104144819Y-90452380D01*
X104144819Y-90452380D02*
X104097200Y-90595237D01*
X104097200Y-90595237D02*
X104001961Y-90690475D01*
X104001961Y-90690475D02*
X103906723Y-90738094D01*
X103906723Y-90738094D02*
X103716247Y-90785713D01*
X103716247Y-90785713D02*
X103573390Y-90785713D01*
X103573390Y-90785713D02*
X103382914Y-90738094D01*
X103382914Y-90738094D02*
X103287676Y-90690475D01*
X103287676Y-90690475D02*
X103192438Y-90595237D01*
X103192438Y-90595237D02*
X103144819Y-90452380D01*
X103144819Y-90452380D02*
X103144819Y-90357142D01*
X103144819Y-90357142D02*
X103192438Y-90214285D01*
X103192438Y-90214285D02*
X103240057Y-90166666D01*
X103573390Y-89595237D02*
X103525771Y-89690475D01*
X103525771Y-89690475D02*
X103478152Y-89738094D01*
X103478152Y-89738094D02*
X103382914Y-89785713D01*
X103382914Y-89785713D02*
X103335295Y-89785713D01*
X103335295Y-89785713D02*
X103240057Y-89738094D01*
X103240057Y-89738094D02*
X103192438Y-89690475D01*
X103192438Y-89690475D02*
X103144819Y-89595237D01*
X103144819Y-89595237D02*
X103144819Y-89404761D01*
X103144819Y-89404761D02*
X103192438Y-89309523D01*
X103192438Y-89309523D02*
X103240057Y-89261904D01*
X103240057Y-89261904D02*
X103335295Y-89214285D01*
X103335295Y-89214285D02*
X103382914Y-89214285D01*
X103382914Y-89214285D02*
X103478152Y-89261904D01*
X103478152Y-89261904D02*
X103525771Y-89309523D01*
X103525771Y-89309523D02*
X103573390Y-89404761D01*
X103573390Y-89404761D02*
X103573390Y-89595237D01*
X103573390Y-89595237D02*
X103621009Y-89690475D01*
X103621009Y-89690475D02*
X103668628Y-89738094D01*
X103668628Y-89738094D02*
X103763866Y-89785713D01*
X103763866Y-89785713D02*
X103954342Y-89785713D01*
X103954342Y-89785713D02*
X104049580Y-89738094D01*
X104049580Y-89738094D02*
X104097200Y-89690475D01*
X104097200Y-89690475D02*
X104144819Y-89595237D01*
X104144819Y-89595237D02*
X104144819Y-89404761D01*
X104144819Y-89404761D02*
X104097200Y-89309523D01*
X104097200Y-89309523D02*
X104049580Y-89261904D01*
X104049580Y-89261904D02*
X103954342Y-89214285D01*
X103954342Y-89214285D02*
X103763866Y-89214285D01*
X103763866Y-89214285D02*
X103668628Y-89261904D01*
X103668628Y-89261904D02*
X103621009Y-89309523D01*
X103621009Y-89309523D02*
X103573390Y-89404761D01*
X92872142Y-102729580D02*
X92824523Y-102777200D01*
X92824523Y-102777200D02*
X92681666Y-102824819D01*
X92681666Y-102824819D02*
X92586428Y-102824819D01*
X92586428Y-102824819D02*
X92443571Y-102777200D01*
X92443571Y-102777200D02*
X92348333Y-102681961D01*
X92348333Y-102681961D02*
X92300714Y-102586723D01*
X92300714Y-102586723D02*
X92253095Y-102396247D01*
X92253095Y-102396247D02*
X92253095Y-102253390D01*
X92253095Y-102253390D02*
X92300714Y-102062914D01*
X92300714Y-102062914D02*
X92348333Y-101967676D01*
X92348333Y-101967676D02*
X92443571Y-101872438D01*
X92443571Y-101872438D02*
X92586428Y-101824819D01*
X92586428Y-101824819D02*
X92681666Y-101824819D01*
X92681666Y-101824819D02*
X92824523Y-101872438D01*
X92824523Y-101872438D02*
X92872142Y-101920057D01*
X93824523Y-102824819D02*
X93253095Y-102824819D01*
X93538809Y-102824819D02*
X93538809Y-101824819D01*
X93538809Y-101824819D02*
X93443571Y-101967676D01*
X93443571Y-101967676D02*
X93348333Y-102062914D01*
X93348333Y-102062914D02*
X93253095Y-102110533D01*
X94157857Y-101824819D02*
X94776904Y-101824819D01*
X94776904Y-101824819D02*
X94443571Y-102205771D01*
X94443571Y-102205771D02*
X94586428Y-102205771D01*
X94586428Y-102205771D02*
X94681666Y-102253390D01*
X94681666Y-102253390D02*
X94729285Y-102301009D01*
X94729285Y-102301009D02*
X94776904Y-102396247D01*
X94776904Y-102396247D02*
X94776904Y-102634342D01*
X94776904Y-102634342D02*
X94729285Y-102729580D01*
X94729285Y-102729580D02*
X94681666Y-102777200D01*
X94681666Y-102777200D02*
X94586428Y-102824819D01*
X94586428Y-102824819D02*
X94300714Y-102824819D01*
X94300714Y-102824819D02*
X94205476Y-102777200D01*
X94205476Y-102777200D02*
X94157857Y-102729580D01*
X95833333Y-81859580D02*
X95785714Y-81907200D01*
X95785714Y-81907200D02*
X95642857Y-81954819D01*
X95642857Y-81954819D02*
X95547619Y-81954819D01*
X95547619Y-81954819D02*
X95404762Y-81907200D01*
X95404762Y-81907200D02*
X95309524Y-81811961D01*
X95309524Y-81811961D02*
X95261905Y-81716723D01*
X95261905Y-81716723D02*
X95214286Y-81526247D01*
X95214286Y-81526247D02*
X95214286Y-81383390D01*
X95214286Y-81383390D02*
X95261905Y-81192914D01*
X95261905Y-81192914D02*
X95309524Y-81097676D01*
X95309524Y-81097676D02*
X95404762Y-81002438D01*
X95404762Y-81002438D02*
X95547619Y-80954819D01*
X95547619Y-80954819D02*
X95642857Y-80954819D01*
X95642857Y-80954819D02*
X95785714Y-81002438D01*
X95785714Y-81002438D02*
X95833333Y-81050057D01*
X96738095Y-80954819D02*
X96261905Y-80954819D01*
X96261905Y-80954819D02*
X96214286Y-81431009D01*
X96214286Y-81431009D02*
X96261905Y-81383390D01*
X96261905Y-81383390D02*
X96357143Y-81335771D01*
X96357143Y-81335771D02*
X96595238Y-81335771D01*
X96595238Y-81335771D02*
X96690476Y-81383390D01*
X96690476Y-81383390D02*
X96738095Y-81431009D01*
X96738095Y-81431009D02*
X96785714Y-81526247D01*
X96785714Y-81526247D02*
X96785714Y-81764342D01*
X96785714Y-81764342D02*
X96738095Y-81859580D01*
X96738095Y-81859580D02*
X96690476Y-81907200D01*
X96690476Y-81907200D02*
X96595238Y-81954819D01*
X96595238Y-81954819D02*
X96357143Y-81954819D01*
X96357143Y-81954819D02*
X96261905Y-81907200D01*
X96261905Y-81907200D02*
X96214286Y-81859580D01*
X88854819Y-82466666D02*
X88378628Y-82799999D01*
X88854819Y-83038094D02*
X87854819Y-83038094D01*
X87854819Y-83038094D02*
X87854819Y-82657142D01*
X87854819Y-82657142D02*
X87902438Y-82561904D01*
X87902438Y-82561904D02*
X87950057Y-82514285D01*
X87950057Y-82514285D02*
X88045295Y-82466666D01*
X88045295Y-82466666D02*
X88188152Y-82466666D01*
X88188152Y-82466666D02*
X88283390Y-82514285D01*
X88283390Y-82514285D02*
X88331009Y-82561904D01*
X88331009Y-82561904D02*
X88378628Y-82657142D01*
X88378628Y-82657142D02*
X88378628Y-83038094D01*
X87950057Y-82085713D02*
X87902438Y-82038094D01*
X87902438Y-82038094D02*
X87854819Y-81942856D01*
X87854819Y-81942856D02*
X87854819Y-81704761D01*
X87854819Y-81704761D02*
X87902438Y-81609523D01*
X87902438Y-81609523D02*
X87950057Y-81561904D01*
X87950057Y-81561904D02*
X88045295Y-81514285D01*
X88045295Y-81514285D02*
X88140533Y-81514285D01*
X88140533Y-81514285D02*
X88283390Y-81561904D01*
X88283390Y-81561904D02*
X88854819Y-82133332D01*
X88854819Y-82133332D02*
X88854819Y-81514285D01*
X122526666Y-71124819D02*
X122526666Y-71839104D01*
X122526666Y-71839104D02*
X122479047Y-71981961D01*
X122479047Y-71981961D02*
X122383809Y-72077200D01*
X122383809Y-72077200D02*
X122240952Y-72124819D01*
X122240952Y-72124819D02*
X122145714Y-72124819D01*
X123431428Y-71458152D02*
X123431428Y-72124819D01*
X123193333Y-71077200D02*
X122955238Y-71791485D01*
X122955238Y-71791485D02*
X123574285Y-71791485D01*
X111738095Y-82304819D02*
X111738095Y-83114342D01*
X111738095Y-83114342D02*
X111785714Y-83209580D01*
X111785714Y-83209580D02*
X111833333Y-83257200D01*
X111833333Y-83257200D02*
X111928571Y-83304819D01*
X111928571Y-83304819D02*
X112119047Y-83304819D01*
X112119047Y-83304819D02*
X112214285Y-83257200D01*
X112214285Y-83257200D02*
X112261904Y-83209580D01*
X112261904Y-83209580D02*
X112309523Y-83114342D01*
X112309523Y-83114342D02*
X112309523Y-82304819D01*
X113309523Y-83304819D02*
X112738095Y-83304819D01*
X113023809Y-83304819D02*
X113023809Y-82304819D01*
X113023809Y-82304819D02*
X112928571Y-82447676D01*
X112928571Y-82447676D02*
X112833333Y-82542914D01*
X112833333Y-82542914D02*
X112738095Y-82590533D01*
X92288095Y-90454819D02*
X92288095Y-91264342D01*
X92288095Y-91264342D02*
X92335714Y-91359580D01*
X92335714Y-91359580D02*
X92383333Y-91407200D01*
X92383333Y-91407200D02*
X92478571Y-91454819D01*
X92478571Y-91454819D02*
X92669047Y-91454819D01*
X92669047Y-91454819D02*
X92764285Y-91407200D01*
X92764285Y-91407200D02*
X92811904Y-91359580D01*
X92811904Y-91359580D02*
X92859523Y-91264342D01*
X92859523Y-91264342D02*
X92859523Y-90454819D01*
X93288095Y-90550057D02*
X93335714Y-90502438D01*
X93335714Y-90502438D02*
X93430952Y-90454819D01*
X93430952Y-90454819D02*
X93669047Y-90454819D01*
X93669047Y-90454819D02*
X93764285Y-90502438D01*
X93764285Y-90502438D02*
X93811904Y-90550057D01*
X93811904Y-90550057D02*
X93859523Y-90645295D01*
X93859523Y-90645295D02*
X93859523Y-90740533D01*
X93859523Y-90740533D02*
X93811904Y-90883390D01*
X93811904Y-90883390D02*
X93240476Y-91454819D01*
X93240476Y-91454819D02*
X93859523Y-91454819D01*
X92654819Y-82466666D02*
X92178628Y-82799999D01*
X92654819Y-83038094D02*
X91654819Y-83038094D01*
X91654819Y-83038094D02*
X91654819Y-82657142D01*
X91654819Y-82657142D02*
X91702438Y-82561904D01*
X91702438Y-82561904D02*
X91750057Y-82514285D01*
X91750057Y-82514285D02*
X91845295Y-82466666D01*
X91845295Y-82466666D02*
X91988152Y-82466666D01*
X91988152Y-82466666D02*
X92083390Y-82514285D01*
X92083390Y-82514285D02*
X92131009Y-82561904D01*
X92131009Y-82561904D02*
X92178628Y-82657142D01*
X92178628Y-82657142D02*
X92178628Y-83038094D01*
X92654819Y-81514285D02*
X92654819Y-82085713D01*
X92654819Y-81799999D02*
X91654819Y-81799999D01*
X91654819Y-81799999D02*
X91797676Y-81895237D01*
X91797676Y-81895237D02*
X91892914Y-81990475D01*
X91892914Y-81990475D02*
X91940533Y-82085713D01*
X100159580Y-90166666D02*
X100207200Y-90214285D01*
X100207200Y-90214285D02*
X100254819Y-90357142D01*
X100254819Y-90357142D02*
X100254819Y-90452380D01*
X100254819Y-90452380D02*
X100207200Y-90595237D01*
X100207200Y-90595237D02*
X100111961Y-90690475D01*
X100111961Y-90690475D02*
X100016723Y-90738094D01*
X100016723Y-90738094D02*
X99826247Y-90785713D01*
X99826247Y-90785713D02*
X99683390Y-90785713D01*
X99683390Y-90785713D02*
X99492914Y-90738094D01*
X99492914Y-90738094D02*
X99397676Y-90690475D01*
X99397676Y-90690475D02*
X99302438Y-90595237D01*
X99302438Y-90595237D02*
X99254819Y-90452380D01*
X99254819Y-90452380D02*
X99254819Y-90357142D01*
X99254819Y-90357142D02*
X99302438Y-90214285D01*
X99302438Y-90214285D02*
X99350057Y-90166666D01*
X100254819Y-89690475D02*
X100254819Y-89499999D01*
X100254819Y-89499999D02*
X100207200Y-89404761D01*
X100207200Y-89404761D02*
X100159580Y-89357142D01*
X100159580Y-89357142D02*
X100016723Y-89261904D01*
X100016723Y-89261904D02*
X99826247Y-89214285D01*
X99826247Y-89214285D02*
X99445295Y-89214285D01*
X99445295Y-89214285D02*
X99350057Y-89261904D01*
X99350057Y-89261904D02*
X99302438Y-89309523D01*
X99302438Y-89309523D02*
X99254819Y-89404761D01*
X99254819Y-89404761D02*
X99254819Y-89595237D01*
X99254819Y-89595237D02*
X99302438Y-89690475D01*
X99302438Y-89690475D02*
X99350057Y-89738094D01*
X99350057Y-89738094D02*
X99445295Y-89785713D01*
X99445295Y-89785713D02*
X99683390Y-89785713D01*
X99683390Y-89785713D02*
X99778628Y-89738094D01*
X99778628Y-89738094D02*
X99826247Y-89690475D01*
X99826247Y-89690475D02*
X99873866Y-89595237D01*
X99873866Y-89595237D02*
X99873866Y-89404761D01*
X99873866Y-89404761D02*
X99826247Y-89309523D01*
X99826247Y-89309523D02*
X99778628Y-89261904D01*
X99778628Y-89261904D02*
X99683390Y-89214285D01*
X105842142Y-100389580D02*
X105794523Y-100437200D01*
X105794523Y-100437200D02*
X105651666Y-100484819D01*
X105651666Y-100484819D02*
X105556428Y-100484819D01*
X105556428Y-100484819D02*
X105413571Y-100437200D01*
X105413571Y-100437200D02*
X105318333Y-100341961D01*
X105318333Y-100341961D02*
X105270714Y-100246723D01*
X105270714Y-100246723D02*
X105223095Y-100056247D01*
X105223095Y-100056247D02*
X105223095Y-99913390D01*
X105223095Y-99913390D02*
X105270714Y-99722914D01*
X105270714Y-99722914D02*
X105318333Y-99627676D01*
X105318333Y-99627676D02*
X105413571Y-99532438D01*
X105413571Y-99532438D02*
X105556428Y-99484819D01*
X105556428Y-99484819D02*
X105651666Y-99484819D01*
X105651666Y-99484819D02*
X105794523Y-99532438D01*
X105794523Y-99532438D02*
X105842142Y-99580057D01*
X106794523Y-100484819D02*
X106223095Y-100484819D01*
X106508809Y-100484819D02*
X106508809Y-99484819D01*
X106508809Y-99484819D02*
X106413571Y-99627676D01*
X106413571Y-99627676D02*
X106318333Y-99722914D01*
X106318333Y-99722914D02*
X106223095Y-99770533D01*
X107175476Y-99580057D02*
X107223095Y-99532438D01*
X107223095Y-99532438D02*
X107318333Y-99484819D01*
X107318333Y-99484819D02*
X107556428Y-99484819D01*
X107556428Y-99484819D02*
X107651666Y-99532438D01*
X107651666Y-99532438D02*
X107699285Y-99580057D01*
X107699285Y-99580057D02*
X107746904Y-99675295D01*
X107746904Y-99675295D02*
X107746904Y-99770533D01*
X107746904Y-99770533D02*
X107699285Y-99913390D01*
X107699285Y-99913390D02*
X107127857Y-100484819D01*
X107127857Y-100484819D02*
X107746904Y-100484819D01*
X99657142Y-105259580D02*
X99609523Y-105307200D01*
X99609523Y-105307200D02*
X99466666Y-105354819D01*
X99466666Y-105354819D02*
X99371428Y-105354819D01*
X99371428Y-105354819D02*
X99228571Y-105307200D01*
X99228571Y-105307200D02*
X99133333Y-105211961D01*
X99133333Y-105211961D02*
X99085714Y-105116723D01*
X99085714Y-105116723D02*
X99038095Y-104926247D01*
X99038095Y-104926247D02*
X99038095Y-104783390D01*
X99038095Y-104783390D02*
X99085714Y-104592914D01*
X99085714Y-104592914D02*
X99133333Y-104497676D01*
X99133333Y-104497676D02*
X99228571Y-104402438D01*
X99228571Y-104402438D02*
X99371428Y-104354819D01*
X99371428Y-104354819D02*
X99466666Y-104354819D01*
X99466666Y-104354819D02*
X99609523Y-104402438D01*
X99609523Y-104402438D02*
X99657142Y-104450057D01*
X100609523Y-105354819D02*
X100038095Y-105354819D01*
X100323809Y-105354819D02*
X100323809Y-104354819D01*
X100323809Y-104354819D02*
X100228571Y-104497676D01*
X100228571Y-104497676D02*
X100133333Y-104592914D01*
X100133333Y-104592914D02*
X100038095Y-104640533D01*
X101466666Y-104688152D02*
X101466666Y-105354819D01*
X101228571Y-104307200D02*
X100990476Y-105021485D01*
X100990476Y-105021485D02*
X101609523Y-105021485D01*
X101554819Y-90166666D02*
X101078628Y-90499999D01*
X101554819Y-90738094D02*
X100554819Y-90738094D01*
X100554819Y-90738094D02*
X100554819Y-90357142D01*
X100554819Y-90357142D02*
X100602438Y-90261904D01*
X100602438Y-90261904D02*
X100650057Y-90214285D01*
X100650057Y-90214285D02*
X100745295Y-90166666D01*
X100745295Y-90166666D02*
X100888152Y-90166666D01*
X100888152Y-90166666D02*
X100983390Y-90214285D01*
X100983390Y-90214285D02*
X101031009Y-90261904D01*
X101031009Y-90261904D02*
X101078628Y-90357142D01*
X101078628Y-90357142D02*
X101078628Y-90738094D01*
X100554819Y-89833332D02*
X100554819Y-89214285D01*
X100554819Y-89214285D02*
X100935771Y-89547618D01*
X100935771Y-89547618D02*
X100935771Y-89404761D01*
X100935771Y-89404761D02*
X100983390Y-89309523D01*
X100983390Y-89309523D02*
X101031009Y-89261904D01*
X101031009Y-89261904D02*
X101126247Y-89214285D01*
X101126247Y-89214285D02*
X101364342Y-89214285D01*
X101364342Y-89214285D02*
X101459580Y-89261904D01*
X101459580Y-89261904D02*
X101507200Y-89309523D01*
X101507200Y-89309523D02*
X101554819Y-89404761D01*
X101554819Y-89404761D02*
X101554819Y-89690475D01*
X101554819Y-89690475D02*
X101507200Y-89785713D01*
X101507200Y-89785713D02*
X101459580Y-89833332D01*
X102933333Y-106859580D02*
X102885714Y-106907200D01*
X102885714Y-106907200D02*
X102742857Y-106954819D01*
X102742857Y-106954819D02*
X102647619Y-106954819D01*
X102647619Y-106954819D02*
X102504762Y-106907200D01*
X102504762Y-106907200D02*
X102409524Y-106811961D01*
X102409524Y-106811961D02*
X102361905Y-106716723D01*
X102361905Y-106716723D02*
X102314286Y-106526247D01*
X102314286Y-106526247D02*
X102314286Y-106383390D01*
X102314286Y-106383390D02*
X102361905Y-106192914D01*
X102361905Y-106192914D02*
X102409524Y-106097676D01*
X102409524Y-106097676D02*
X102504762Y-106002438D01*
X102504762Y-106002438D02*
X102647619Y-105954819D01*
X102647619Y-105954819D02*
X102742857Y-105954819D01*
X102742857Y-105954819D02*
X102885714Y-106002438D01*
X102885714Y-106002438D02*
X102933333Y-106050057D01*
X103266667Y-105954819D02*
X103933333Y-105954819D01*
X103933333Y-105954819D02*
X103504762Y-106954819D01*
X107770833Y-75209580D02*
X107723214Y-75257200D01*
X107723214Y-75257200D02*
X107580357Y-75304819D01*
X107580357Y-75304819D02*
X107485119Y-75304819D01*
X107485119Y-75304819D02*
X107342262Y-75257200D01*
X107342262Y-75257200D02*
X107247024Y-75161961D01*
X107247024Y-75161961D02*
X107199405Y-75066723D01*
X107199405Y-75066723D02*
X107151786Y-74876247D01*
X107151786Y-74876247D02*
X107151786Y-74733390D01*
X107151786Y-74733390D02*
X107199405Y-74542914D01*
X107199405Y-74542914D02*
X107247024Y-74447676D01*
X107247024Y-74447676D02*
X107342262Y-74352438D01*
X107342262Y-74352438D02*
X107485119Y-74304819D01*
X107485119Y-74304819D02*
X107580357Y-74304819D01*
X107580357Y-74304819D02*
X107723214Y-74352438D01*
X107723214Y-74352438D02*
X107770833Y-74400057D01*
X108723214Y-75304819D02*
X108151786Y-75304819D01*
X108437500Y-75304819D02*
X108437500Y-74304819D01*
X108437500Y-74304819D02*
X108342262Y-74447676D01*
X108342262Y-74447676D02*
X108247024Y-74542914D01*
X108247024Y-74542914D02*
X108151786Y-74590533D01*
X92872142Y-98529580D02*
X92824523Y-98577200D01*
X92824523Y-98577200D02*
X92681666Y-98624819D01*
X92681666Y-98624819D02*
X92586428Y-98624819D01*
X92586428Y-98624819D02*
X92443571Y-98577200D01*
X92443571Y-98577200D02*
X92348333Y-98481961D01*
X92348333Y-98481961D02*
X92300714Y-98386723D01*
X92300714Y-98386723D02*
X92253095Y-98196247D01*
X92253095Y-98196247D02*
X92253095Y-98053390D01*
X92253095Y-98053390D02*
X92300714Y-97862914D01*
X92300714Y-97862914D02*
X92348333Y-97767676D01*
X92348333Y-97767676D02*
X92443571Y-97672438D01*
X92443571Y-97672438D02*
X92586428Y-97624819D01*
X92586428Y-97624819D02*
X92681666Y-97624819D01*
X92681666Y-97624819D02*
X92824523Y-97672438D01*
X92824523Y-97672438D02*
X92872142Y-97720057D01*
X93824523Y-98624819D02*
X93253095Y-98624819D01*
X93538809Y-98624819D02*
X93538809Y-97624819D01*
X93538809Y-97624819D02*
X93443571Y-97767676D01*
X93443571Y-97767676D02*
X93348333Y-97862914D01*
X93348333Y-97862914D02*
X93253095Y-97910533D01*
X94776904Y-98624819D02*
X94205476Y-98624819D01*
X94491190Y-98624819D02*
X94491190Y-97624819D01*
X94491190Y-97624819D02*
X94395952Y-97767676D01*
X94395952Y-97767676D02*
X94300714Y-97862914D01*
X94300714Y-97862914D02*
X94205476Y-97910533D01*
X108857142Y-94959580D02*
X108809523Y-95007200D01*
X108809523Y-95007200D02*
X108666666Y-95054819D01*
X108666666Y-95054819D02*
X108571428Y-95054819D01*
X108571428Y-95054819D02*
X108428571Y-95007200D01*
X108428571Y-95007200D02*
X108333333Y-94911961D01*
X108333333Y-94911961D02*
X108285714Y-94816723D01*
X108285714Y-94816723D02*
X108238095Y-94626247D01*
X108238095Y-94626247D02*
X108238095Y-94483390D01*
X108238095Y-94483390D02*
X108285714Y-94292914D01*
X108285714Y-94292914D02*
X108333333Y-94197676D01*
X108333333Y-94197676D02*
X108428571Y-94102438D01*
X108428571Y-94102438D02*
X108571428Y-94054819D01*
X108571428Y-94054819D02*
X108666666Y-94054819D01*
X108666666Y-94054819D02*
X108809523Y-94102438D01*
X108809523Y-94102438D02*
X108857142Y-94150057D01*
X109809523Y-95054819D02*
X109238095Y-95054819D01*
X109523809Y-95054819D02*
X109523809Y-94054819D01*
X109523809Y-94054819D02*
X109428571Y-94197676D01*
X109428571Y-94197676D02*
X109333333Y-94292914D01*
X109333333Y-94292914D02*
X109238095Y-94340533D01*
X110666666Y-94054819D02*
X110476190Y-94054819D01*
X110476190Y-94054819D02*
X110380952Y-94102438D01*
X110380952Y-94102438D02*
X110333333Y-94150057D01*
X110333333Y-94150057D02*
X110238095Y-94292914D01*
X110238095Y-94292914D02*
X110190476Y-94483390D01*
X110190476Y-94483390D02*
X110190476Y-94864342D01*
X110190476Y-94864342D02*
X110238095Y-94959580D01*
X110238095Y-94959580D02*
X110285714Y-95007200D01*
X110285714Y-95007200D02*
X110380952Y-95054819D01*
X110380952Y-95054819D02*
X110571428Y-95054819D01*
X110571428Y-95054819D02*
X110666666Y-95007200D01*
X110666666Y-95007200D02*
X110714285Y-94959580D01*
X110714285Y-94959580D02*
X110761904Y-94864342D01*
X110761904Y-94864342D02*
X110761904Y-94626247D01*
X110761904Y-94626247D02*
X110714285Y-94531009D01*
X110714285Y-94531009D02*
X110666666Y-94483390D01*
X110666666Y-94483390D02*
X110571428Y-94435771D01*
X110571428Y-94435771D02*
X110380952Y-94435771D01*
X110380952Y-94435771D02*
X110285714Y-94483390D01*
X110285714Y-94483390D02*
X110238095Y-94531009D01*
X110238095Y-94531009D02*
X110190476Y-94626247D01*
X95528095Y-94854819D02*
X95528095Y-95664342D01*
X95528095Y-95664342D02*
X95575714Y-95759580D01*
X95575714Y-95759580D02*
X95623333Y-95807200D01*
X95623333Y-95807200D02*
X95718571Y-95854819D01*
X95718571Y-95854819D02*
X95909047Y-95854819D01*
X95909047Y-95854819D02*
X96004285Y-95807200D01*
X96004285Y-95807200D02*
X96051904Y-95759580D01*
X96051904Y-95759580D02*
X96099523Y-95664342D01*
X96099523Y-95664342D02*
X96099523Y-94854819D01*
X96480476Y-94854819D02*
X97099523Y-94854819D01*
X97099523Y-94854819D02*
X96766190Y-95235771D01*
X96766190Y-95235771D02*
X96909047Y-95235771D01*
X96909047Y-95235771D02*
X97004285Y-95283390D01*
X97004285Y-95283390D02*
X97051904Y-95331009D01*
X97051904Y-95331009D02*
X97099523Y-95426247D01*
X97099523Y-95426247D02*
X97099523Y-95664342D01*
X97099523Y-95664342D02*
X97051904Y-95759580D01*
X97051904Y-95759580D02*
X97004285Y-95807200D01*
X97004285Y-95807200D02*
X96909047Y-95854819D01*
X96909047Y-95854819D02*
X96623333Y-95854819D01*
X96623333Y-95854819D02*
X96528095Y-95807200D01*
X96528095Y-95807200D02*
X96480476Y-95759580D01*
X102854819Y-90166666D02*
X102378628Y-90499999D01*
X102854819Y-90738094D02*
X101854819Y-90738094D01*
X101854819Y-90738094D02*
X101854819Y-90357142D01*
X101854819Y-90357142D02*
X101902438Y-90261904D01*
X101902438Y-90261904D02*
X101950057Y-90214285D01*
X101950057Y-90214285D02*
X102045295Y-90166666D01*
X102045295Y-90166666D02*
X102188152Y-90166666D01*
X102188152Y-90166666D02*
X102283390Y-90214285D01*
X102283390Y-90214285D02*
X102331009Y-90261904D01*
X102331009Y-90261904D02*
X102378628Y-90357142D01*
X102378628Y-90357142D02*
X102378628Y-90738094D01*
X102188152Y-89309523D02*
X102854819Y-89309523D01*
X101807200Y-89547618D02*
X102521485Y-89785713D01*
X102521485Y-89785713D02*
X102521485Y-89166666D01*
X98849580Y-90166666D02*
X98897200Y-90214285D01*
X98897200Y-90214285D02*
X98944819Y-90357142D01*
X98944819Y-90357142D02*
X98944819Y-90452380D01*
X98944819Y-90452380D02*
X98897200Y-90595237D01*
X98897200Y-90595237D02*
X98801961Y-90690475D01*
X98801961Y-90690475D02*
X98706723Y-90738094D01*
X98706723Y-90738094D02*
X98516247Y-90785713D01*
X98516247Y-90785713D02*
X98373390Y-90785713D01*
X98373390Y-90785713D02*
X98182914Y-90738094D01*
X98182914Y-90738094D02*
X98087676Y-90690475D01*
X98087676Y-90690475D02*
X97992438Y-90595237D01*
X97992438Y-90595237D02*
X97944819Y-90452380D01*
X97944819Y-90452380D02*
X97944819Y-90357142D01*
X97944819Y-90357142D02*
X97992438Y-90214285D01*
X97992438Y-90214285D02*
X98040057Y-90166666D01*
X97944819Y-89309523D02*
X97944819Y-89499999D01*
X97944819Y-89499999D02*
X97992438Y-89595237D01*
X97992438Y-89595237D02*
X98040057Y-89642856D01*
X98040057Y-89642856D02*
X98182914Y-89738094D01*
X98182914Y-89738094D02*
X98373390Y-89785713D01*
X98373390Y-89785713D02*
X98754342Y-89785713D01*
X98754342Y-89785713D02*
X98849580Y-89738094D01*
X98849580Y-89738094D02*
X98897200Y-89690475D01*
X98897200Y-89690475D02*
X98944819Y-89595237D01*
X98944819Y-89595237D02*
X98944819Y-89404761D01*
X98944819Y-89404761D02*
X98897200Y-89309523D01*
X98897200Y-89309523D02*
X98849580Y-89261904D01*
X98849580Y-89261904D02*
X98754342Y-89214285D01*
X98754342Y-89214285D02*
X98516247Y-89214285D01*
X98516247Y-89214285D02*
X98421009Y-89261904D01*
X98421009Y-89261904D02*
X98373390Y-89309523D01*
X98373390Y-89309523D02*
X98325771Y-89404761D01*
X98325771Y-89404761D02*
X98325771Y-89595237D01*
X98325771Y-89595237D02*
X98373390Y-89690475D01*
X98373390Y-89690475D02*
X98421009Y-89738094D01*
X98421009Y-89738094D02*
X98516247Y-89785713D01*
X108857142Y-96459580D02*
X108809523Y-96507200D01*
X108809523Y-96507200D02*
X108666666Y-96554819D01*
X108666666Y-96554819D02*
X108571428Y-96554819D01*
X108571428Y-96554819D02*
X108428571Y-96507200D01*
X108428571Y-96507200D02*
X108333333Y-96411961D01*
X108333333Y-96411961D02*
X108285714Y-96316723D01*
X108285714Y-96316723D02*
X108238095Y-96126247D01*
X108238095Y-96126247D02*
X108238095Y-95983390D01*
X108238095Y-95983390D02*
X108285714Y-95792914D01*
X108285714Y-95792914D02*
X108333333Y-95697676D01*
X108333333Y-95697676D02*
X108428571Y-95602438D01*
X108428571Y-95602438D02*
X108571428Y-95554819D01*
X108571428Y-95554819D02*
X108666666Y-95554819D01*
X108666666Y-95554819D02*
X108809523Y-95602438D01*
X108809523Y-95602438D02*
X108857142Y-95650057D01*
X109809523Y-96554819D02*
X109238095Y-96554819D01*
X109523809Y-96554819D02*
X109523809Y-95554819D01*
X109523809Y-95554819D02*
X109428571Y-95697676D01*
X109428571Y-95697676D02*
X109333333Y-95792914D01*
X109333333Y-95792914D02*
X109238095Y-95840533D01*
X110714285Y-95554819D02*
X110238095Y-95554819D01*
X110238095Y-95554819D02*
X110190476Y-96031009D01*
X110190476Y-96031009D02*
X110238095Y-95983390D01*
X110238095Y-95983390D02*
X110333333Y-95935771D01*
X110333333Y-95935771D02*
X110571428Y-95935771D01*
X110571428Y-95935771D02*
X110666666Y-95983390D01*
X110666666Y-95983390D02*
X110714285Y-96031009D01*
X110714285Y-96031009D02*
X110761904Y-96126247D01*
X110761904Y-96126247D02*
X110761904Y-96364342D01*
X110761904Y-96364342D02*
X110714285Y-96459580D01*
X110714285Y-96459580D02*
X110666666Y-96507200D01*
X110666666Y-96507200D02*
X110571428Y-96554819D01*
X110571428Y-96554819D02*
X110333333Y-96554819D01*
X110333333Y-96554819D02*
X110238095Y-96507200D01*
X110238095Y-96507200D02*
X110190476Y-96459580D01*
X84557142Y-80059580D02*
X84509523Y-80107200D01*
X84509523Y-80107200D02*
X84366666Y-80154819D01*
X84366666Y-80154819D02*
X84271428Y-80154819D01*
X84271428Y-80154819D02*
X84128571Y-80107200D01*
X84128571Y-80107200D02*
X84033333Y-80011961D01*
X84033333Y-80011961D02*
X83985714Y-79916723D01*
X83985714Y-79916723D02*
X83938095Y-79726247D01*
X83938095Y-79726247D02*
X83938095Y-79583390D01*
X83938095Y-79583390D02*
X83985714Y-79392914D01*
X83985714Y-79392914D02*
X84033333Y-79297676D01*
X84033333Y-79297676D02*
X84128571Y-79202438D01*
X84128571Y-79202438D02*
X84271428Y-79154819D01*
X84271428Y-79154819D02*
X84366666Y-79154819D01*
X84366666Y-79154819D02*
X84509523Y-79202438D01*
X84509523Y-79202438D02*
X84557142Y-79250057D01*
X85509523Y-80154819D02*
X84938095Y-80154819D01*
X85223809Y-80154819D02*
X85223809Y-79154819D01*
X85223809Y-79154819D02*
X85128571Y-79297676D01*
X85128571Y-79297676D02*
X85033333Y-79392914D01*
X85033333Y-79392914D02*
X84938095Y-79440533D01*
X85842857Y-79154819D02*
X86509523Y-79154819D01*
X86509523Y-79154819D02*
X86080952Y-80154819D01*
X96633333Y-109859580D02*
X96585714Y-109907200D01*
X96585714Y-109907200D02*
X96442857Y-109954819D01*
X96442857Y-109954819D02*
X96347619Y-109954819D01*
X96347619Y-109954819D02*
X96204762Y-109907200D01*
X96204762Y-109907200D02*
X96109524Y-109811961D01*
X96109524Y-109811961D02*
X96061905Y-109716723D01*
X96061905Y-109716723D02*
X96014286Y-109526247D01*
X96014286Y-109526247D02*
X96014286Y-109383390D01*
X96014286Y-109383390D02*
X96061905Y-109192914D01*
X96061905Y-109192914D02*
X96109524Y-109097676D01*
X96109524Y-109097676D02*
X96204762Y-109002438D01*
X96204762Y-109002438D02*
X96347619Y-108954819D01*
X96347619Y-108954819D02*
X96442857Y-108954819D01*
X96442857Y-108954819D02*
X96585714Y-109002438D01*
X96585714Y-109002438D02*
X96633333Y-109050057D01*
X97014286Y-109050057D02*
X97061905Y-109002438D01*
X97061905Y-109002438D02*
X97157143Y-108954819D01*
X97157143Y-108954819D02*
X97395238Y-108954819D01*
X97395238Y-108954819D02*
X97490476Y-109002438D01*
X97490476Y-109002438D02*
X97538095Y-109050057D01*
X97538095Y-109050057D02*
X97585714Y-109145295D01*
X97585714Y-109145295D02*
X97585714Y-109240533D01*
X97585714Y-109240533D02*
X97538095Y-109383390D01*
X97538095Y-109383390D02*
X96966667Y-109954819D01*
X96966667Y-109954819D02*
X97585714Y-109954819D01*
X103033333Y-109859580D02*
X102985714Y-109907200D01*
X102985714Y-109907200D02*
X102842857Y-109954819D01*
X102842857Y-109954819D02*
X102747619Y-109954819D01*
X102747619Y-109954819D02*
X102604762Y-109907200D01*
X102604762Y-109907200D02*
X102509524Y-109811961D01*
X102509524Y-109811961D02*
X102461905Y-109716723D01*
X102461905Y-109716723D02*
X102414286Y-109526247D01*
X102414286Y-109526247D02*
X102414286Y-109383390D01*
X102414286Y-109383390D02*
X102461905Y-109192914D01*
X102461905Y-109192914D02*
X102509524Y-109097676D01*
X102509524Y-109097676D02*
X102604762Y-109002438D01*
X102604762Y-109002438D02*
X102747619Y-108954819D01*
X102747619Y-108954819D02*
X102842857Y-108954819D01*
X102842857Y-108954819D02*
X102985714Y-109002438D01*
X102985714Y-109002438D02*
X103033333Y-109050057D01*
X103366667Y-108954819D02*
X103985714Y-108954819D01*
X103985714Y-108954819D02*
X103652381Y-109335771D01*
X103652381Y-109335771D02*
X103795238Y-109335771D01*
X103795238Y-109335771D02*
X103890476Y-109383390D01*
X103890476Y-109383390D02*
X103938095Y-109431009D01*
X103938095Y-109431009D02*
X103985714Y-109526247D01*
X103985714Y-109526247D02*
X103985714Y-109764342D01*
X103985714Y-109764342D02*
X103938095Y-109859580D01*
X103938095Y-109859580D02*
X103890476Y-109907200D01*
X103890476Y-109907200D02*
X103795238Y-109954819D01*
X103795238Y-109954819D02*
X103509524Y-109954819D01*
X103509524Y-109954819D02*
X103414286Y-109907200D01*
X103414286Y-109907200D02*
X103366667Y-109859580D01*
X96323809Y-113478628D02*
X96323809Y-113954819D01*
X95990476Y-112954819D02*
X96323809Y-113478628D01*
X96323809Y-113478628D02*
X96657142Y-112954819D01*
X97514285Y-113954819D02*
X96942857Y-113954819D01*
X97228571Y-113954819D02*
X97228571Y-112954819D01*
X97228571Y-112954819D02*
X97133333Y-113097676D01*
X97133333Y-113097676D02*
X97038095Y-113192914D01*
X97038095Y-113192914D02*
X96942857Y-113240533D01*
X97233333Y-107054819D02*
X96900000Y-106578628D01*
X96661905Y-107054819D02*
X96661905Y-106054819D01*
X96661905Y-106054819D02*
X97042857Y-106054819D01*
X97042857Y-106054819D02*
X97138095Y-106102438D01*
X97138095Y-106102438D02*
X97185714Y-106150057D01*
X97185714Y-106150057D02*
X97233333Y-106245295D01*
X97233333Y-106245295D02*
X97233333Y-106388152D01*
X97233333Y-106388152D02*
X97185714Y-106483390D01*
X97185714Y-106483390D02*
X97138095Y-106531009D01*
X97138095Y-106531009D02*
X97042857Y-106578628D01*
X97042857Y-106578628D02*
X96661905Y-106578628D01*
X98138095Y-106054819D02*
X97661905Y-106054819D01*
X97661905Y-106054819D02*
X97614286Y-106531009D01*
X97614286Y-106531009D02*
X97661905Y-106483390D01*
X97661905Y-106483390D02*
X97757143Y-106435771D01*
X97757143Y-106435771D02*
X97995238Y-106435771D01*
X97995238Y-106435771D02*
X98090476Y-106483390D01*
X98090476Y-106483390D02*
X98138095Y-106531009D01*
X98138095Y-106531009D02*
X98185714Y-106626247D01*
X98185714Y-106626247D02*
X98185714Y-106864342D01*
X98185714Y-106864342D02*
X98138095Y-106959580D01*
X98138095Y-106959580D02*
X98090476Y-107007200D01*
X98090476Y-107007200D02*
X97995238Y-107054819D01*
X97995238Y-107054819D02*
X97757143Y-107054819D01*
X97757143Y-107054819D02*
X97661905Y-107007200D01*
X97661905Y-107007200D02*
X97614286Y-106959580D01*
D12*
X87912164Y-111640000D02*
X88127836Y-111640000D01*
X87912164Y-112360000D02*
X88127836Y-112360000D01*
X87892164Y-109140000D02*
X88107836Y-109140000D01*
X87892164Y-109860000D02*
X88107836Y-109860000D01*
D13*
X94750000Y-110335000D02*
X94750000Y-109335000D01*
X94750000Y-109335000D02*
X94500000Y-109335000D01*
X94750000Y-111335000D02*
X94750000Y-112335000D01*
X94750000Y-112335000D02*
X94500000Y-112335000D01*
X90500000Y-112335000D02*
X90250000Y-112335000D01*
X90250000Y-112335000D02*
X90250000Y-111335000D01*
X90250000Y-110335000D02*
X90250000Y-109335000D01*
X90250000Y-109335000D02*
X90500000Y-109335000D01*
D14*
X90971000Y-108735000D02*
G75*
G02*
X90771000Y-108735000I-100000J0D01*
G01*
X90771000Y-108735000D02*
G75*
G02*
X90971000Y-108735000I100000J0D01*
G01*
D12*
X108763748Y-88265000D02*
X109286252Y-88265000D01*
X108763748Y-89735000D02*
X109286252Y-89735000D01*
X95875000Y-72880000D02*
X95875000Y-74430000D01*
X96175000Y-70080000D02*
X96175000Y-72880000D01*
X96175000Y-72880000D02*
X95875000Y-72880000D01*
X100925000Y-76130000D02*
X101325000Y-75680000D01*
X101325000Y-75680000D02*
X101725000Y-76130000D01*
X101725000Y-76130000D02*
X100925000Y-76130000D01*
X103875000Y-70080000D02*
X103875000Y-72880000D01*
X104175000Y-72880000D02*
X103875000Y-72880000D01*
X104175000Y-72880000D02*
X104175000Y-74430000D01*
X89780000Y-75270000D02*
X89780000Y-72670000D01*
X92440000Y-72670000D02*
X89780000Y-72670000D01*
X92440000Y-75270000D02*
X89780000Y-75270000D01*
X92440000Y-75270000D02*
X92440000Y-72670000D01*
X92440000Y-76540000D02*
X92440000Y-77870000D01*
X92440000Y-77870000D02*
X91110000Y-77870000D01*
X74540000Y-72670000D02*
X75870000Y-72670000D01*
X74540000Y-74000000D02*
X74540000Y-72670000D01*
X74540000Y-75270000D02*
X74540000Y-118510000D01*
X74540000Y-75270000D02*
X77140000Y-75270000D01*
X74540000Y-118510000D02*
X79740000Y-118510000D01*
X77140000Y-72670000D02*
X79740000Y-72670000D01*
X77140000Y-75270000D02*
X77140000Y-72670000D01*
X79740000Y-72670000D02*
X79740000Y-118510000D01*
X103640000Y-93622836D02*
X103640000Y-93407164D01*
X104360000Y-93622836D02*
X104360000Y-93407164D01*
X102640000Y-93622836D02*
X102640000Y-93407164D01*
X103360000Y-93622836D02*
X103360000Y-93407164D01*
X93622836Y-100840000D02*
X93407164Y-100840000D01*
X93622836Y-101560000D02*
X93407164Y-101560000D01*
X96292836Y-82470000D02*
X96077164Y-82470000D01*
X96292836Y-83190000D02*
X96077164Y-83190000D01*
X89120000Y-82161359D02*
X89120000Y-82468641D01*
X89880000Y-82161359D02*
X89880000Y-82468641D01*
X120260000Y-72670000D02*
X121590000Y-72670000D01*
X120260000Y-74000000D02*
X120260000Y-72670000D01*
X120260000Y-75270000D02*
X120260000Y-118510000D01*
X120260000Y-75270000D02*
X122860000Y-75270000D01*
X120260000Y-118510000D02*
X125460000Y-118510000D01*
X122860000Y-72670000D02*
X125460000Y-72670000D01*
X122860000Y-75270000D02*
X122860000Y-72670000D01*
X125460000Y-72670000D02*
X125460000Y-118510000D01*
X104590000Y-81000000D02*
X104590000Y-84760000D01*
X104590000Y-84760000D02*
X105850000Y-84760000D01*
X111410000Y-78750000D02*
X111410000Y-84760000D01*
X111410000Y-84760000D02*
X110150000Y-84760000D01*
X90325000Y-84550000D02*
X90325000Y-84810000D01*
X90325000Y-84810000D02*
X88650000Y-84810000D01*
X90325000Y-90000000D02*
X90325000Y-89740000D01*
X93050000Y-84550000D02*
X90325000Y-84550000D01*
X93050000Y-84550000D02*
X95775000Y-84550000D01*
X93050000Y-90000000D02*
X90325000Y-90000000D01*
X93050000Y-90000000D02*
X95775000Y-90000000D01*
X95775000Y-84550000D02*
X95775000Y-84810000D01*
X95775000Y-90000000D02*
X95775000Y-89740000D01*
X90620000Y-82468641D02*
X90620000Y-82161359D01*
X91380000Y-82468641D02*
X91380000Y-82161359D01*
X99640000Y-92622836D02*
X99640000Y-92407164D01*
X100360000Y-92622836D02*
X100360000Y-92407164D01*
X106377164Y-100840000D02*
X106592836Y-100840000D01*
X106377164Y-101560000D02*
X106592836Y-101560000D01*
X100021000Y-106377164D02*
X100021000Y-106592836D01*
X100741000Y-106377164D02*
X100741000Y-106592836D01*
X100620000Y-93361359D02*
X100620000Y-93668641D01*
X101380000Y-93361359D02*
X101380000Y-93668641D01*
X101140000Y-106377164D02*
X101140000Y-106592836D01*
X101860000Y-106377164D02*
X101860000Y-106592836D01*
X107676248Y-75765000D02*
X108198752Y-75765000D01*
X107676248Y-77235000D02*
X108198752Y-77235000D01*
X93622836Y-96640000D02*
X93407164Y-96640000D01*
X93622836Y-97360000D02*
X93407164Y-97360000D01*
X106377164Y-94240000D02*
X106592836Y-94240000D01*
X106377164Y-94960000D02*
X106592836Y-94960000D01*
X96390000Y-103610000D02*
X96390000Y-102960000D01*
X97040000Y-96390000D02*
X96390000Y-96390000D01*
X97040000Y-103610000D02*
X96390000Y-103610000D01*
X102960000Y-96390000D02*
X103610000Y-96390000D01*
X102960000Y-103610000D02*
X103610000Y-103610000D01*
X103610000Y-96390000D02*
X103610000Y-97040000D01*
X103610000Y-103610000D02*
X103610000Y-102960000D01*
X101620000Y-93361359D02*
X101620000Y-93668641D01*
X102380000Y-93361359D02*
X102380000Y-93668641D01*
X98640000Y-92622836D02*
X98640000Y-92407164D01*
X99360000Y-92622836D02*
X99360000Y-92407164D01*
X106377164Y-95640000D02*
X106592836Y-95640000D01*
X106377164Y-96360000D02*
X106592836Y-96360000D01*
X84853748Y-77265000D02*
X85376252Y-77265000D01*
X84853748Y-78735000D02*
X85376252Y-78735000D01*
X98807836Y-109140000D02*
X98592164Y-109140000D01*
X98807836Y-109860000D02*
X98592164Y-109860000D01*
X101192164Y-109140000D02*
X101407836Y-109140000D01*
X101192164Y-109860000D02*
X101407836Y-109860000D01*
X98000000Y-110650000D02*
X98000000Y-113950000D01*
X98000000Y-113950000D02*
X102000000Y-113950000D01*
X98920000Y-106346359D02*
X98920000Y-106653641D01*
X99680000Y-106346359D02*
X99680000Y-106653641D01*
M02*
