G04 #@! TF.GenerationSoftware,KiCad,Pcbnew,8.0.1*
G04 #@! TF.CreationDate,2024-04-16T23:47:22-05:00*
G04 #@! TF.ProjectId,RP2040_minimal_r2,52503230-3430-45f6-9d69-6e696d616c5f,REV2*
G04 #@! TF.SameCoordinates,Original*
G04 #@! TF.FileFunction,Paste,Top*
G04 #@! TF.FilePolarity,Positive*
%FSLAX46Y46*%
G04 Gerber Fmt 4.6, Leading zero omitted, Abs format (unit mm)*
G04 Created by KiCad (PCBNEW 8.0.1) date 2024-04-16 23:47:22*
%MOMM*%
%LPD*%
G01*
G04 APERTURE LIST*
G04 Aperture macros list*
%AMRoundRect*
0 Rectangle with rounded corners*
0 $1 Rounding radius*
0 $2 $3 $4 $5 $6 $7 $8 $9 X,Y pos of 4 corners*
0 Add a 4 corners polygon primitive as box body*
4,1,4,$2,$3,$4,$5,$6,$7,$8,$9,$2,$3,0*
0 Add four circle primitives for the rounded corners*
1,1,$1+$1,$2,$3*
1,1,$1+$1,$4,$5*
1,1,$1+$1,$6,$7*
1,1,$1+$1,$8,$9*
0 Add four rect primitives between the rounded corners*
20,1,$1+$1,$2,$3,$4,$5,0*
20,1,$1+$1,$4,$5,$6,$7,0*
20,1,$1+$1,$6,$7,$8,$9,0*
20,1,$1+$1,$8,$9,$2,$3,0*%
G04 Aperture macros list end*
%ADD10RoundRect,0.140000X-0.140000X-0.170000X0.140000X-0.170000X0.140000X0.170000X-0.140000X0.170000X0*%
%ADD11R,0.350000X0.590000*%
%ADD12R,0.590000X0.350000*%
%ADD13RoundRect,0.250000X-0.250000X-0.475000X0.250000X-0.475000X0.250000X0.475000X-0.250000X0.475000X0*%
%ADD14R,0.400000X1.750000*%
%ADD15R,1.825000X0.700000*%
%ADD16R,2.000000X1.460000*%
%ADD17RoundRect,0.384800X0.265200X1.240200X-0.265200X1.240200X-0.265200X-1.240200X0.265200X-1.240200X0*%
%ADD18R,1.425000X2.400000*%
%ADD19RoundRect,0.140000X0.170000X-0.140000X0.170000X0.140000X-0.170000X0.140000X-0.170000X-0.140000X0*%
%ADD20RoundRect,0.140000X0.140000X0.170000X-0.140000X0.170000X-0.140000X-0.170000X0.140000X-0.170000X0*%
%ADD21RoundRect,0.135000X-0.185000X0.135000X-0.185000X-0.135000X0.185000X-0.135000X0.185000X0.135000X0*%
%ADD22R,1.500000X2.000000*%
%ADD23R,3.800000X2.000000*%
%ADD24RoundRect,0.150000X-0.650000X-0.150000X0.650000X-0.150000X0.650000X0.150000X-0.650000X0.150000X0*%
%ADD25RoundRect,0.135000X0.185000X-0.135000X0.185000X0.135000X-0.185000X0.135000X-0.185000X-0.135000X0*%
%ADD26RoundRect,0.140000X-0.170000X0.140000X-0.170000X-0.140000X0.170000X-0.140000X0.170000X0.140000X0*%
%ADD27RoundRect,0.250000X-0.292217X-0.292217X0.292217X-0.292217X0.292217X0.292217X-0.292217X0.292217X0*%
%ADD28RoundRect,0.050000X-0.387500X-0.050000X0.387500X-0.050000X0.387500X0.050000X-0.387500X0.050000X0*%
%ADD29RoundRect,0.050000X-0.050000X-0.387500X0.050000X-0.387500X0.050000X0.387500X-0.050000X0.387500X0*%
%ADD30R,1.400000X1.200000*%
G04 APERTURE END LIST*
D10*
X87540000Y-112000000D03*
X88500000Y-112000000D03*
X87520000Y-109500000D03*
X88480000Y-109500000D03*
D11*
X94000000Y-109670000D03*
X93500000Y-109670000D03*
X93000000Y-109670000D03*
X92500000Y-109670000D03*
X92000000Y-109670000D03*
X91500000Y-109670000D03*
X91000000Y-109670000D03*
D12*
X90585000Y-110835000D03*
D11*
X91000000Y-112000000D03*
X91500000Y-112000000D03*
X92000000Y-112000000D03*
X92500000Y-112000000D03*
X93000000Y-112000000D03*
X93500000Y-112000000D03*
X94000000Y-112000000D03*
D12*
X94415000Y-110835000D03*
D13*
X108075000Y-89000000D03*
X109975000Y-89000000D03*
D14*
X101300000Y-74525000D03*
X100650000Y-74525000D03*
X100000000Y-74525000D03*
X99350000Y-74525000D03*
X98700000Y-74525000D03*
D15*
X102987500Y-73400000D03*
D16*
X102900000Y-74730000D03*
D17*
X102725000Y-72125000D03*
D18*
X100962500Y-71500000D03*
X99037500Y-71500000D03*
D17*
X97275000Y-72125000D03*
D16*
X97100000Y-74730000D03*
D15*
X97012500Y-73400000D03*
D19*
X104000000Y-93995000D03*
X104000000Y-93035000D03*
X103000000Y-93995000D03*
X103000000Y-93035000D03*
D20*
X93995000Y-101200000D03*
X93035000Y-101200000D03*
X96665000Y-82830000D03*
X95705000Y-82830000D03*
D21*
X89500000Y-81805000D03*
X89500000Y-82825000D03*
D22*
X110300000Y-79700000D03*
X108000000Y-79700000D03*
D23*
X108000000Y-86000000D03*
D22*
X105700000Y-79700000D03*
D24*
X89450000Y-85370000D03*
X89450000Y-86640000D03*
X89450000Y-87910000D03*
X89450000Y-89180000D03*
X96650000Y-89180000D03*
X96650000Y-87910000D03*
X96650000Y-86640000D03*
X96650000Y-85370000D03*
D25*
X91000000Y-82825000D03*
X91000000Y-81805000D03*
D19*
X100000000Y-92995000D03*
X100000000Y-92035000D03*
D10*
X106005000Y-101200000D03*
X106965000Y-101200000D03*
D26*
X100381000Y-106005000D03*
X100381000Y-106965000D03*
D21*
X101000000Y-93005000D03*
X101000000Y-94025000D03*
D26*
X101500000Y-106005000D03*
X101500000Y-106965000D03*
D13*
X106987500Y-76500000D03*
X108887500Y-76500000D03*
D20*
X93995000Y-97000000D03*
X93035000Y-97000000D03*
D10*
X106005000Y-94600000D03*
X106965000Y-94600000D03*
D27*
X99362500Y-99362500D03*
X99362500Y-100637500D03*
X100637500Y-99362500D03*
X100637500Y-100637500D03*
D28*
X96562500Y-97400000D03*
X96562500Y-97800000D03*
X96562500Y-98200000D03*
X96562500Y-98600000D03*
X96562500Y-99000000D03*
X96562500Y-99400000D03*
X96562500Y-99800000D03*
X96562500Y-100200000D03*
X96562500Y-100600000D03*
X96562500Y-101000000D03*
X96562500Y-101400000D03*
X96562500Y-101800000D03*
X96562500Y-102200000D03*
X96562500Y-102600000D03*
D29*
X97400000Y-103437500D03*
X97800000Y-103437500D03*
X98200000Y-103437500D03*
X98600000Y-103437500D03*
X99000000Y-103437500D03*
X99400000Y-103437500D03*
X99800000Y-103437500D03*
X100200000Y-103437500D03*
X100600000Y-103437500D03*
X101000000Y-103437500D03*
X101400000Y-103437500D03*
X101800000Y-103437500D03*
X102200000Y-103437500D03*
X102600000Y-103437500D03*
D28*
X103437500Y-102600000D03*
X103437500Y-102200000D03*
X103437500Y-101800000D03*
X103437500Y-101400000D03*
X103437500Y-101000000D03*
X103437500Y-100600000D03*
X103437500Y-100200000D03*
X103437500Y-99800000D03*
X103437500Y-99400000D03*
X103437500Y-99000000D03*
X103437500Y-98600000D03*
X103437500Y-98200000D03*
X103437500Y-97800000D03*
X103437500Y-97400000D03*
D29*
X102600000Y-96562500D03*
X102200000Y-96562500D03*
X101800000Y-96562500D03*
X101400000Y-96562500D03*
X101000000Y-96562500D03*
X100600000Y-96562500D03*
X100200000Y-96562500D03*
X99800000Y-96562500D03*
X99400000Y-96562500D03*
X99000000Y-96562500D03*
X98600000Y-96562500D03*
X98200000Y-96562500D03*
X97800000Y-96562500D03*
X97400000Y-96562500D03*
D21*
X102000000Y-93005000D03*
X102000000Y-94025000D03*
D19*
X99000000Y-92995000D03*
X99000000Y-92035000D03*
D10*
X106005000Y-96000000D03*
X106965000Y-96000000D03*
D13*
X84165000Y-78000000D03*
X86065000Y-78000000D03*
D20*
X99180000Y-109500000D03*
X98220000Y-109500000D03*
D10*
X100820000Y-109500000D03*
X101780000Y-109500000D03*
D30*
X98900000Y-113150000D03*
X101100000Y-113150000D03*
X101100000Y-111450000D03*
X98900000Y-111450000D03*
D21*
X99300000Y-105990000D03*
X99300000Y-107010000D03*
M02*
