G04 EAGLE Gerber RS-274X export*
G75*
%MOMM*%
%FSLAX34Y34*%
%LPD*%
%INTop Copper*%
%IPPOS*%
%AMOC8*
5,1,8,0,0,1.08239X$1,22.5*%
G01*
%ADD10C,1.879600*%
%ADD11C,1.778000*%
%ADD12R,1.500000X1.500000*%
%ADD13C,1.500000*%
%ADD14C,3.216000*%
%ADD15C,1.320800*%
%ADD16C,1.790700*%
%ADD17R,2.550000X2.550000*%
%ADD18C,2.550000*%
%ADD19R,0.254000X0.812800*%
%ADD20R,0.304800X1.092200*%
%ADD21R,0.254000X0.508000*%
%ADD22R,0.254000X0.711200*%
%ADD23R,0.711200X0.254000*%
%ADD24R,1.092200X0.304800*%
%ADD25R,0.406400X0.254000*%
%ADD26R,0.855600X1.600000*%
%ADD27R,1.600000X0.855600*%
%ADD28R,0.660400X0.558800*%
%ADD29R,0.605600X0.500000*%
%ADD30R,0.508000X0.558800*%
%ADD31R,0.990600X0.711200*%
%ADD32R,0.755600X0.799997*%
%ADD33R,1.650000X1.650000*%
%ADD34C,1.650000*%
%ADD35R,0.900000X0.650000*%
%ADD36R,1.400000X0.300000*%
%ADD37R,1.400000X0.700000*%
%ADD38R,0.300000X1.400000*%
%ADD39R,0.700000X1.400000*%
%ADD40C,0.555600*%
%ADD41C,0.609600*%
%ADD42C,1.270000*%
%ADD43C,0.304800*%
%ADD44C,0.406400*%
%ADD45C,0.508000*%
%ADD46C,0.605600*%
%ADD47C,0.200000*%
%ADD48C,0.812800*%
%ADD49C,0.755600*%

G36*
X285886Y55923D02*
X285886Y55923D01*
X285960Y55925D01*
X286006Y55942D01*
X286054Y55950D01*
X286119Y55985D01*
X286188Y56011D01*
X286226Y56042D01*
X286270Y56065D01*
X286320Y56119D01*
X286377Y56166D01*
X286403Y56207D01*
X286436Y56243D01*
X286467Y56310D01*
X286506Y56373D01*
X286517Y56421D01*
X286537Y56466D01*
X286544Y56539D01*
X286561Y56610D01*
X286556Y56659D01*
X286561Y56709D01*
X286545Y56780D01*
X286538Y56853D01*
X286517Y56898D01*
X286506Y56946D01*
X286467Y57009D01*
X286437Y57076D01*
X286390Y57132D01*
X286377Y57154D01*
X286364Y57164D01*
X286343Y57190D01*
X270467Y73066D01*
X270388Y73123D01*
X270313Y73185D01*
X270289Y73193D01*
X270269Y73208D01*
X270176Y73236D01*
X270085Y73271D01*
X270052Y73274D01*
X270036Y73279D01*
X270011Y73278D01*
X269938Y73285D01*
X267808Y73285D01*
X263981Y74871D01*
X261051Y77801D01*
X259465Y81628D01*
X259465Y85772D01*
X261051Y89599D01*
X263981Y92529D01*
X267808Y94115D01*
X271952Y94115D01*
X272816Y93757D01*
X272931Y93730D01*
X273053Y93701D01*
X273185Y93714D01*
X273296Y93725D01*
X273415Y93779D01*
X273518Y93826D01*
X273519Y93826D01*
X273632Y93919D01*
X301368Y121655D01*
X301425Y121734D01*
X301487Y121809D01*
X301495Y121833D01*
X301510Y121853D01*
X301538Y121946D01*
X301573Y122037D01*
X301576Y122070D01*
X301581Y122086D01*
X301580Y122111D01*
X301587Y122184D01*
X301587Y254431D01*
X301566Y254560D01*
X301548Y254671D01*
X301486Y254787D01*
X301433Y254886D01*
X301433Y254887D01*
X301363Y254952D01*
X301255Y255053D01*
X301254Y255054D01*
X301125Y255123D01*
X300261Y255481D01*
X297331Y258411D01*
X295745Y262238D01*
X295745Y266382D01*
X297331Y270209D01*
X300261Y273139D01*
X301124Y273497D01*
X301125Y273497D01*
X301213Y273552D01*
X301332Y273626D01*
X301407Y273717D01*
X301487Y273814D01*
X301487Y273815D01*
X301535Y273942D01*
X301573Y274042D01*
X301573Y274043D01*
X301573Y274044D01*
X301587Y274189D01*
X301587Y343054D01*
X304485Y345952D01*
X345208Y386675D01*
X345265Y386754D01*
X345327Y386829D01*
X345335Y386853D01*
X345350Y386873D01*
X345378Y386966D01*
X345413Y387057D01*
X345416Y387090D01*
X345421Y387106D01*
X345420Y387131D01*
X345427Y387204D01*
X345427Y398796D01*
X345411Y398892D01*
X345402Y398989D01*
X345392Y399012D01*
X345388Y399036D01*
X345342Y399122D01*
X345301Y399211D01*
X345280Y399237D01*
X345273Y399252D01*
X345254Y399269D01*
X345208Y399325D01*
X303825Y440708D01*
X300927Y443606D01*
X300927Y448561D01*
X300906Y448690D01*
X300888Y448801D01*
X300826Y448917D01*
X300773Y449016D01*
X300773Y449017D01*
X300703Y449082D01*
X300595Y449183D01*
X300594Y449184D01*
X300465Y449253D01*
X299601Y449611D01*
X296671Y452541D01*
X295085Y456368D01*
X295085Y460512D01*
X296671Y464339D01*
X299601Y467269D01*
X300464Y467627D01*
X300465Y467627D01*
X300553Y467682D01*
X300672Y467756D01*
X300744Y467844D01*
X300827Y467944D01*
X300827Y467945D01*
X300875Y468072D01*
X300913Y468172D01*
X300913Y468173D01*
X300913Y468174D01*
X300927Y468319D01*
X300927Y472394D01*
X303825Y475292D01*
X315208Y486675D01*
X318106Y489573D01*
X566894Y489573D01*
X626693Y429774D01*
X626693Y421879D01*
X626719Y421722D01*
X626732Y421639D01*
X626732Y421638D01*
X626804Y421505D01*
X626847Y421424D01*
X626847Y421423D01*
X626939Y421338D01*
X627025Y421257D01*
X627025Y421256D01*
X627026Y421256D01*
X627155Y421187D01*
X628307Y420710D01*
X631380Y417637D01*
X633043Y413623D01*
X633043Y409277D01*
X631380Y405263D01*
X628307Y402190D01*
X624293Y400527D01*
X619947Y400527D01*
X615933Y402190D01*
X612860Y405263D01*
X611197Y409277D01*
X611197Y413623D01*
X612860Y417637D01*
X615933Y420710D01*
X617084Y421187D01*
X617085Y421187D01*
X617173Y421242D01*
X617292Y421315D01*
X617292Y421316D01*
X617353Y421390D01*
X617447Y421504D01*
X617496Y421636D01*
X617533Y421732D01*
X617533Y421733D01*
X617533Y421734D01*
X617547Y421879D01*
X617547Y425676D01*
X617531Y425772D01*
X617522Y425869D01*
X617512Y425892D01*
X617508Y425916D01*
X617462Y426002D01*
X617421Y426091D01*
X617400Y426117D01*
X617393Y426132D01*
X617374Y426149D01*
X617328Y426205D01*
X563325Y480208D01*
X563246Y480265D01*
X563171Y480327D01*
X563147Y480335D01*
X563127Y480350D01*
X563034Y480378D01*
X562943Y480413D01*
X562910Y480416D01*
X562894Y480421D01*
X562869Y480420D01*
X562796Y480427D01*
X322204Y480427D01*
X322108Y480411D01*
X322011Y480402D01*
X321988Y480392D01*
X321964Y480388D01*
X321878Y480342D01*
X321789Y480301D01*
X321763Y480280D01*
X321748Y480273D01*
X321731Y480254D01*
X321675Y480208D01*
X310309Y468842D01*
X310280Y468802D01*
X310245Y468769D01*
X310210Y468704D01*
X310167Y468644D01*
X310153Y468597D01*
X310129Y468554D01*
X310117Y468481D01*
X310096Y468410D01*
X310098Y468361D01*
X310090Y468313D01*
X310102Y468240D01*
X310104Y468166D01*
X310121Y468121D01*
X310129Y468072D01*
X310164Y468007D01*
X310190Y467938D01*
X310221Y467900D01*
X310244Y467857D01*
X310298Y467806D01*
X310344Y467749D01*
X310386Y467723D01*
X310422Y467690D01*
X310551Y467621D01*
X310552Y467620D01*
X311399Y467269D01*
X314329Y464339D01*
X315915Y460512D01*
X315915Y456368D01*
X314329Y452541D01*
X311399Y449611D01*
X310536Y449253D01*
X310535Y449253D01*
X310447Y449198D01*
X310328Y449124D01*
X310240Y449017D01*
X310173Y448936D01*
X310173Y448935D01*
X310113Y448775D01*
X310087Y448708D01*
X310087Y448707D01*
X310087Y448706D01*
X310073Y448561D01*
X310073Y447704D01*
X310089Y447608D01*
X310098Y447511D01*
X310108Y447488D01*
X310112Y447464D01*
X310158Y447378D01*
X310199Y447289D01*
X310220Y447263D01*
X310227Y447248D01*
X310246Y447231D01*
X310292Y447175D01*
X351675Y405792D01*
X354573Y402894D01*
X354573Y383106D01*
X351675Y380208D01*
X310952Y339485D01*
X310895Y339406D01*
X310833Y339331D01*
X310825Y339307D01*
X310810Y339287D01*
X310782Y339194D01*
X310747Y339103D01*
X310744Y339070D01*
X310739Y339054D01*
X310740Y339029D01*
X310733Y338956D01*
X310733Y274189D01*
X310759Y274032D01*
X310772Y273949D01*
X310839Y273824D01*
X310887Y273734D01*
X310887Y273733D01*
X310976Y273650D01*
X311065Y273567D01*
X311066Y273566D01*
X311195Y273497D01*
X312059Y273139D01*
X314989Y270209D01*
X316575Y266382D01*
X316575Y262238D01*
X314989Y258411D01*
X312059Y255481D01*
X311196Y255123D01*
X311195Y255123D01*
X311107Y255068D01*
X310988Y254994D01*
X310900Y254887D01*
X310833Y254806D01*
X310833Y254805D01*
X310783Y254671D01*
X310747Y254578D01*
X310747Y254577D01*
X310747Y254576D01*
X310733Y254431D01*
X310733Y118086D01*
X280099Y87452D01*
X280020Y87342D01*
X279957Y87255D01*
X279957Y87254D01*
X279917Y87124D01*
X279886Y87021D01*
X279891Y86886D01*
X279894Y86777D01*
X279894Y86776D01*
X279937Y86636D01*
X280295Y85772D01*
X280295Y81628D01*
X278888Y78233D01*
X278860Y78111D01*
X278833Y77996D01*
X278833Y77995D01*
X278846Y77864D01*
X278857Y77753D01*
X278857Y77752D01*
X278910Y77634D01*
X278957Y77530D01*
X278958Y77529D01*
X279051Y77416D01*
X291675Y64792D01*
X291754Y64735D01*
X291829Y64673D01*
X291853Y64665D01*
X291873Y64650D01*
X291966Y64622D01*
X292057Y64587D01*
X292090Y64584D01*
X292106Y64579D01*
X292131Y64580D01*
X292204Y64573D01*
X387796Y64573D01*
X387892Y64589D01*
X387989Y64598D01*
X388012Y64608D01*
X388036Y64612D01*
X388122Y64658D01*
X388211Y64699D01*
X388237Y64720D01*
X388252Y64727D01*
X388269Y64746D01*
X388325Y64792D01*
X428106Y104573D01*
X667006Y104573D01*
X667102Y104589D01*
X667199Y104598D01*
X667222Y104608D01*
X667246Y104612D01*
X667332Y104658D01*
X667421Y104699D01*
X667447Y104720D01*
X667462Y104727D01*
X667479Y104746D01*
X667535Y104792D01*
X708549Y145805D01*
X708623Y145909D01*
X708691Y146003D01*
X708691Y146004D01*
X708713Y146076D01*
X708762Y146237D01*
X708758Y146351D01*
X708754Y146481D01*
X708753Y146482D01*
X708711Y146622D01*
X708679Y146699D01*
X708679Y150289D01*
X710053Y153606D01*
X712592Y156145D01*
X715909Y157519D01*
X719499Y157519D01*
X722816Y156145D01*
X725355Y153606D01*
X726729Y150289D01*
X726729Y146699D01*
X725355Y143382D01*
X722816Y140843D01*
X719499Y139469D01*
X715909Y139469D01*
X715833Y139501D01*
X715832Y139501D01*
X715730Y139525D01*
X715595Y139556D01*
X715594Y139557D01*
X715468Y139544D01*
X715352Y139533D01*
X715224Y139475D01*
X715130Y139432D01*
X715129Y139432D01*
X715129Y139431D01*
X715015Y139339D01*
X674002Y98325D01*
X671104Y95427D01*
X432204Y95427D01*
X432108Y95411D01*
X432011Y95402D01*
X431988Y95392D01*
X431964Y95388D01*
X431878Y95342D01*
X431789Y95301D01*
X431763Y95280D01*
X431748Y95273D01*
X431731Y95254D01*
X431675Y95208D01*
X394792Y58325D01*
X393657Y57190D01*
X393614Y57130D01*
X393564Y57076D01*
X393543Y57032D01*
X393514Y56991D01*
X393493Y56921D01*
X393463Y56854D01*
X393458Y56805D01*
X393444Y56758D01*
X393446Y56685D01*
X393439Y56611D01*
X393450Y56563D01*
X393451Y56514D01*
X393477Y56445D01*
X393494Y56374D01*
X393520Y56332D01*
X393537Y56286D01*
X393584Y56229D01*
X393623Y56166D01*
X393661Y56135D01*
X393692Y56097D01*
X393754Y56058D01*
X393811Y56011D01*
X393857Y55994D01*
X393899Y55968D01*
X393971Y55951D01*
X394039Y55925D01*
X394113Y55918D01*
X394137Y55912D01*
X394153Y55914D01*
X394186Y55911D01*
X1166439Y55911D01*
X1166506Y55922D01*
X1166575Y55923D01*
X1166626Y55942D01*
X1166679Y55950D01*
X1166740Y55983D01*
X1166804Y56006D01*
X1166847Y56040D01*
X1166895Y56065D01*
X1166941Y56116D01*
X1166995Y56158D01*
X1167024Y56204D01*
X1167061Y56243D01*
X1167090Y56306D01*
X1167127Y56364D01*
X1167140Y56416D01*
X1167162Y56466D01*
X1167169Y56534D01*
X1167185Y56601D01*
X1167181Y56655D01*
X1167186Y56709D01*
X1167171Y56775D01*
X1167165Y56844D01*
X1167143Y56893D01*
X1167131Y56946D01*
X1167095Y57005D01*
X1167067Y57067D01*
X1167031Y57108D01*
X1167002Y57154D01*
X1166949Y57197D01*
X1166903Y57248D01*
X1166833Y57293D01*
X1166814Y57308D01*
X1166801Y57313D01*
X1166779Y57328D01*
X1159103Y61238D01*
X1151238Y69103D01*
X1146189Y79014D01*
X1144449Y90000D01*
X1146189Y100986D01*
X1151238Y110897D01*
X1159103Y118762D01*
X1169014Y123811D01*
X1180000Y125551D01*
X1190986Y123811D01*
X1200897Y118762D01*
X1207810Y111848D01*
X1207870Y111805D01*
X1207924Y111755D01*
X1207968Y111735D01*
X1208009Y111706D01*
X1208079Y111685D01*
X1208146Y111654D01*
X1208195Y111649D01*
X1208242Y111635D01*
X1208315Y111637D01*
X1208389Y111630D01*
X1208437Y111641D01*
X1208486Y111643D01*
X1208555Y111669D01*
X1208626Y111685D01*
X1208668Y111711D01*
X1208714Y111729D01*
X1208771Y111775D01*
X1208834Y111814D01*
X1208865Y111852D01*
X1208903Y111883D01*
X1208942Y111946D01*
X1208989Y112003D01*
X1209006Y112049D01*
X1209032Y112091D01*
X1209049Y112162D01*
X1209075Y112231D01*
X1209082Y112304D01*
X1209088Y112328D01*
X1209086Y112345D01*
X1209089Y112378D01*
X1209089Y607622D01*
X1209077Y607695D01*
X1209075Y607768D01*
X1209058Y607814D01*
X1209050Y607863D01*
X1209015Y607928D01*
X1208989Y607996D01*
X1208958Y608035D01*
X1208935Y608078D01*
X1208881Y608128D01*
X1208834Y608185D01*
X1208793Y608211D01*
X1208757Y608245D01*
X1208690Y608275D01*
X1208627Y608314D01*
X1208579Y608325D01*
X1208534Y608346D01*
X1208461Y608353D01*
X1208390Y608370D01*
X1208341Y608365D01*
X1208291Y608370D01*
X1208220Y608353D01*
X1208147Y608346D01*
X1208102Y608326D01*
X1208054Y608315D01*
X1207991Y608276D01*
X1207924Y608246D01*
X1207868Y608199D01*
X1207846Y608186D01*
X1207836Y608173D01*
X1207810Y608152D01*
X1200897Y601238D01*
X1190986Y596189D01*
X1180000Y594449D01*
X1169014Y596189D01*
X1159103Y601238D01*
X1151238Y609103D01*
X1146189Y619014D01*
X1144449Y630000D01*
X1146189Y640986D01*
X1151238Y650897D01*
X1159103Y658762D01*
X1166779Y662672D01*
X1166834Y662713D01*
X1166895Y662745D01*
X1166932Y662785D01*
X1166975Y662817D01*
X1167014Y662873D01*
X1167061Y662924D01*
X1167084Y662973D01*
X1167115Y663017D01*
X1167134Y663083D01*
X1167162Y663146D01*
X1167168Y663200D01*
X1167183Y663252D01*
X1167179Y663320D01*
X1167186Y663389D01*
X1167174Y663441D01*
X1167172Y663495D01*
X1167147Y663559D01*
X1167131Y663626D01*
X1167102Y663672D01*
X1167083Y663723D01*
X1167039Y663775D01*
X1167002Y663834D01*
X1166960Y663868D01*
X1166926Y663909D01*
X1166867Y663945D01*
X1166814Y663989D01*
X1166763Y664008D01*
X1166717Y664036D01*
X1166650Y664051D01*
X1166586Y664075D01*
X1166502Y664083D01*
X1166478Y664088D01*
X1166465Y664087D01*
X1166439Y664089D01*
X859774Y664089D01*
X859750Y664085D01*
X859725Y664088D01*
X859630Y664066D01*
X859533Y664050D01*
X859512Y664038D01*
X859488Y664032D01*
X859404Y663981D01*
X859318Y663935D01*
X859301Y663917D01*
X859280Y663904D01*
X859218Y663828D01*
X859151Y663757D01*
X859141Y663734D01*
X859125Y663715D01*
X859091Y663624D01*
X859050Y663534D01*
X859048Y663510D01*
X859039Y663487D01*
X859025Y663340D01*
X859025Y646868D01*
X858132Y645975D01*
X854814Y645975D01*
X854790Y645971D01*
X854765Y645974D01*
X854670Y645952D01*
X854573Y645936D01*
X854552Y645924D01*
X854528Y645918D01*
X854444Y645867D01*
X854358Y645821D01*
X854341Y645803D01*
X854320Y645790D01*
X854258Y645714D01*
X854191Y645643D01*
X854181Y645620D01*
X854165Y645601D01*
X854131Y645510D01*
X854090Y645420D01*
X854088Y645396D01*
X854079Y645373D01*
X854065Y645226D01*
X854065Y644316D01*
X842934Y633185D01*
X836152Y633185D01*
X836056Y633169D01*
X835959Y633160D01*
X835936Y633150D01*
X835911Y633146D01*
X835825Y633100D01*
X835736Y633059D01*
X835711Y633038D01*
X835696Y633031D01*
X835679Y633012D01*
X835622Y632966D01*
X835132Y632475D01*
X824868Y632475D01*
X823975Y633368D01*
X823975Y641132D01*
X824868Y642025D01*
X835132Y642025D01*
X835622Y641534D01*
X835702Y641477D01*
X835777Y641415D01*
X835800Y641407D01*
X835820Y641392D01*
X835914Y641364D01*
X836005Y641329D01*
X836038Y641326D01*
X836054Y641321D01*
X836079Y641322D01*
X836152Y641315D01*
X839256Y641315D01*
X839352Y641331D01*
X839449Y641340D01*
X839472Y641350D01*
X839497Y641354D01*
X839583Y641400D01*
X839672Y641441D01*
X839697Y641462D01*
X839712Y641469D01*
X839729Y641488D01*
X839786Y641534D01*
X842948Y644696D01*
X842991Y644756D01*
X843041Y644810D01*
X843061Y644854D01*
X843090Y644895D01*
X843111Y644965D01*
X843142Y645032D01*
X843147Y645081D01*
X843161Y645128D01*
X843158Y645201D01*
X843166Y645275D01*
X843155Y645323D01*
X843153Y645372D01*
X843127Y645441D01*
X843110Y645512D01*
X843084Y645554D01*
X843067Y645600D01*
X843021Y645657D01*
X842982Y645720D01*
X842944Y645751D01*
X842912Y645789D01*
X842850Y645828D01*
X842793Y645875D01*
X842747Y645892D01*
X842705Y645918D01*
X842634Y645935D01*
X842565Y645961D01*
X842492Y645968D01*
X842468Y645974D01*
X842451Y645972D01*
X842418Y645975D01*
X841868Y645975D01*
X840975Y646868D01*
X840975Y663340D01*
X840971Y663364D01*
X840974Y663389D01*
X840952Y663484D01*
X840936Y663581D01*
X840924Y663602D01*
X840918Y663626D01*
X840867Y663710D01*
X840821Y663796D01*
X840803Y663813D01*
X840790Y663834D01*
X840714Y663896D01*
X840643Y663963D01*
X840620Y663973D01*
X840601Y663989D01*
X840510Y664023D01*
X840420Y664064D01*
X840396Y664066D01*
X840373Y664075D01*
X840226Y664089D01*
X835406Y664089D01*
X835310Y664073D01*
X835212Y664064D01*
X835190Y664054D01*
X835165Y664050D01*
X835079Y664003D01*
X834990Y663963D01*
X834972Y663946D01*
X834950Y663935D01*
X834883Y663863D01*
X834812Y663796D01*
X834800Y663775D01*
X834783Y663757D01*
X834743Y663667D01*
X834697Y663581D01*
X834693Y663557D01*
X834682Y663534D01*
X834673Y663437D01*
X834657Y663340D01*
X834661Y663316D01*
X834658Y663291D01*
X834681Y663196D01*
X834696Y663100D01*
X834708Y663078D01*
X834714Y663054D01*
X834765Y662970D01*
X834811Y662884D01*
X834829Y662868D01*
X834842Y662846D01*
X834918Y662784D01*
X834989Y662717D01*
X835018Y662702D01*
X835031Y662692D01*
X835054Y662683D01*
X835110Y662653D01*
X837651Y660112D01*
X839025Y656795D01*
X839025Y653205D01*
X837651Y649888D01*
X835112Y647349D01*
X831795Y645975D01*
X828205Y645975D01*
X824888Y647349D01*
X822349Y649888D01*
X820975Y653205D01*
X820975Y656795D01*
X822349Y660112D01*
X824892Y662655D01*
X824963Y662699D01*
X825050Y662745D01*
X825067Y662764D01*
X825088Y662777D01*
X825150Y662852D01*
X825217Y662924D01*
X825227Y662946D01*
X825243Y662965D01*
X825277Y663057D01*
X825318Y663146D01*
X825320Y663170D01*
X825329Y663193D01*
X825332Y663291D01*
X825342Y663389D01*
X825336Y663413D01*
X825337Y663437D01*
X825309Y663531D01*
X825286Y663626D01*
X825273Y663647D01*
X825266Y663671D01*
X825209Y663750D01*
X825158Y663834D01*
X825139Y663849D01*
X825124Y663869D01*
X825045Y663926D01*
X824969Y663989D01*
X824946Y663997D01*
X824926Y664012D01*
X824832Y664040D01*
X824741Y664075D01*
X824708Y664078D01*
X824693Y664083D01*
X824668Y664082D01*
X824594Y664089D01*
X699375Y664089D01*
X699327Y664081D01*
X699278Y664083D01*
X699207Y664062D01*
X699135Y664050D01*
X699091Y664026D01*
X699044Y664012D01*
X698984Y663969D01*
X698919Y663935D01*
X698886Y663899D01*
X698846Y663870D01*
X698803Y663810D01*
X698752Y663757D01*
X698732Y663712D01*
X698703Y663672D01*
X698682Y663601D01*
X698652Y663534D01*
X698647Y663485D01*
X698632Y663438D01*
X698635Y663365D01*
X698628Y663291D01*
X698639Y663244D01*
X698640Y663194D01*
X698666Y663126D01*
X698683Y663054D01*
X698709Y663012D01*
X698726Y662966D01*
X698773Y662909D01*
X698812Y662846D01*
X698850Y662815D01*
X698881Y662777D01*
X698999Y662692D01*
X699000Y662692D01*
X699000Y662691D01*
X699001Y662691D01*
X701476Y661262D01*
X706442Y656296D01*
X709953Y650215D01*
X711771Y643431D01*
X711771Y636409D01*
X711668Y636025D01*
X711668Y636024D01*
X711467Y635275D01*
X711266Y634526D01*
X711066Y633777D01*
X711065Y633777D01*
X710664Y632278D01*
X710463Y631529D01*
X710062Y630031D01*
X710062Y630030D01*
X709953Y629625D01*
X706442Y623544D01*
X701476Y618578D01*
X695395Y615067D01*
X688611Y613249D01*
X681589Y613249D01*
X674805Y615067D01*
X668724Y618578D01*
X663758Y623544D01*
X660247Y629625D01*
X658429Y636409D01*
X658429Y643431D01*
X658750Y644627D01*
X658950Y645376D01*
X659352Y646875D01*
X659553Y647624D01*
X659954Y649122D01*
X659954Y649123D01*
X660155Y649872D01*
X660247Y650215D01*
X663758Y656296D01*
X668724Y661262D01*
X671199Y662691D01*
X671237Y662722D01*
X671281Y662745D01*
X671331Y662799D01*
X671388Y662846D01*
X671414Y662888D01*
X671448Y662924D01*
X671478Y662990D01*
X671517Y663053D01*
X671528Y663101D01*
X671548Y663146D01*
X671556Y663219D01*
X671572Y663291D01*
X671568Y663340D01*
X671572Y663389D01*
X671556Y663460D01*
X671549Y663534D01*
X671528Y663578D01*
X671517Y663626D01*
X671478Y663689D01*
X671448Y663756D01*
X671414Y663792D01*
X671388Y663834D01*
X671332Y663880D01*
X671281Y663934D01*
X671238Y663957D01*
X671200Y663989D01*
X671131Y664014D01*
X671066Y664049D01*
X671018Y664057D01*
X670972Y664075D01*
X670827Y664089D01*
X670825Y664089D01*
X496175Y664089D01*
X496127Y664081D01*
X496078Y664083D01*
X496007Y664062D01*
X495935Y664050D01*
X495891Y664026D01*
X495844Y664012D01*
X495784Y663969D01*
X495719Y663935D01*
X495686Y663899D01*
X495646Y663870D01*
X495603Y663810D01*
X495552Y663757D01*
X495532Y663712D01*
X495504Y663672D01*
X495482Y663601D01*
X495452Y663534D01*
X495447Y663485D01*
X495433Y663438D01*
X495435Y663365D01*
X495428Y663291D01*
X495439Y663244D01*
X495440Y663194D01*
X495466Y663126D01*
X495483Y663054D01*
X495509Y663012D01*
X495526Y662966D01*
X495573Y662909D01*
X495612Y662846D01*
X495650Y662815D01*
X495681Y662777D01*
X495799Y662692D01*
X495800Y662692D01*
X495800Y662691D01*
X495801Y662691D01*
X498276Y661262D01*
X503242Y656296D01*
X506753Y650215D01*
X508571Y643431D01*
X508571Y636409D01*
X508468Y636025D01*
X508468Y636024D01*
X508267Y635275D01*
X508066Y634526D01*
X507866Y633777D01*
X507865Y633777D01*
X507464Y632278D01*
X507263Y631529D01*
X506862Y630031D01*
X506862Y630030D01*
X506753Y629625D01*
X503242Y623544D01*
X498276Y618578D01*
X492195Y615067D01*
X485411Y613249D01*
X478389Y613249D01*
X471605Y615067D01*
X465524Y618578D01*
X460558Y623544D01*
X457047Y629625D01*
X455229Y636409D01*
X455229Y643431D01*
X455550Y644627D01*
X455750Y645376D01*
X456152Y646875D01*
X456353Y647624D01*
X456754Y649122D01*
X456754Y649123D01*
X456955Y649872D01*
X457047Y650215D01*
X460558Y656296D01*
X465524Y661262D01*
X467999Y662691D01*
X468037Y662722D01*
X468081Y662745D01*
X468131Y662799D01*
X468188Y662846D01*
X468214Y662888D01*
X468248Y662924D01*
X468278Y662990D01*
X468317Y663053D01*
X468328Y663101D01*
X468348Y663146D01*
X468356Y663219D01*
X468372Y663291D01*
X468368Y663340D01*
X468372Y663389D01*
X468356Y663460D01*
X468349Y663534D01*
X468328Y663578D01*
X468317Y663626D01*
X468278Y663689D01*
X468248Y663756D01*
X468214Y663792D01*
X468188Y663834D01*
X468132Y663880D01*
X468081Y663934D01*
X468038Y663957D01*
X468000Y663989D01*
X467931Y664015D01*
X467866Y664049D01*
X467818Y664057D01*
X467772Y664075D01*
X467627Y664089D01*
X467625Y664089D01*
X142098Y664089D01*
X142025Y664077D01*
X141952Y664075D01*
X141906Y664058D01*
X141857Y664050D01*
X141792Y664015D01*
X141724Y663989D01*
X141685Y663958D01*
X141642Y663935D01*
X141592Y663881D01*
X141535Y663834D01*
X141509Y663793D01*
X141475Y663757D01*
X141445Y663690D01*
X141406Y663627D01*
X141395Y663579D01*
X141374Y663534D01*
X141367Y663461D01*
X141350Y663390D01*
X141355Y663341D01*
X141350Y663291D01*
X141367Y663220D01*
X141374Y663147D01*
X141394Y663102D01*
X141405Y663054D01*
X141444Y662991D01*
X141474Y662924D01*
X141521Y662868D01*
X141534Y662846D01*
X141547Y662836D01*
X141568Y662810D01*
X148722Y655657D01*
X153771Y645746D01*
X155511Y634760D01*
X153771Y623774D01*
X148722Y613863D01*
X140857Y605998D01*
X130946Y600949D01*
X119960Y599209D01*
X108974Y600949D01*
X99063Y605998D01*
X92190Y612872D01*
X92130Y612915D01*
X92076Y612965D01*
X92032Y612985D01*
X91991Y613014D01*
X91921Y613035D01*
X91854Y613066D01*
X91805Y613071D01*
X91758Y613085D01*
X91685Y613083D01*
X91611Y613090D01*
X91563Y613079D01*
X91514Y613077D01*
X91445Y613051D01*
X91374Y613035D01*
X91332Y613009D01*
X91286Y612991D01*
X91229Y612945D01*
X91166Y612906D01*
X91135Y612868D01*
X91097Y612837D01*
X91058Y612774D01*
X91011Y612717D01*
X90994Y612671D01*
X90968Y612629D01*
X90951Y612558D01*
X90925Y612489D01*
X90918Y612416D01*
X90912Y612392D01*
X90914Y612375D01*
X90911Y612342D01*
X90911Y106778D01*
X90923Y106705D01*
X90925Y106632D01*
X90942Y106586D01*
X90950Y106537D01*
X90985Y106472D01*
X91011Y106404D01*
X91042Y106365D01*
X91065Y106322D01*
X91119Y106272D01*
X91166Y106215D01*
X91207Y106189D01*
X91243Y106155D01*
X91310Y106125D01*
X91373Y106086D01*
X91421Y106075D01*
X91466Y106054D01*
X91539Y106047D01*
X91610Y106030D01*
X91659Y106035D01*
X91709Y106030D01*
X91780Y106047D01*
X91853Y106054D01*
X91898Y106074D01*
X91946Y106085D01*
X92009Y106124D01*
X92076Y106154D01*
X92132Y106201D01*
X92154Y106214D01*
X92164Y106227D01*
X92190Y106248D01*
X94963Y109022D01*
X104874Y114071D01*
X115860Y115811D01*
X126846Y114071D01*
X136757Y109022D01*
X144622Y101157D01*
X149671Y91246D01*
X151411Y80260D01*
X149671Y69274D01*
X144622Y59363D01*
X142448Y57190D01*
X142405Y57130D01*
X142355Y57076D01*
X142335Y57032D01*
X142306Y56991D01*
X142285Y56921D01*
X142254Y56854D01*
X142249Y56805D01*
X142235Y56758D01*
X142237Y56685D01*
X142230Y56611D01*
X142241Y56563D01*
X142243Y56514D01*
X142269Y56445D01*
X142285Y56374D01*
X142311Y56332D01*
X142329Y56286D01*
X142375Y56229D01*
X142414Y56166D01*
X142452Y56135D01*
X142483Y56097D01*
X142546Y56058D01*
X142603Y56011D01*
X142649Y55994D01*
X142691Y55968D01*
X142762Y55951D01*
X142831Y55925D01*
X142904Y55918D01*
X142928Y55912D01*
X142945Y55914D01*
X142978Y55911D01*
X285814Y55911D01*
X285886Y55923D01*
G37*
%LPC*%
G36*
X868106Y260427D02*
X868106Y260427D01*
X865427Y263106D01*
X865427Y266894D01*
X920208Y321675D01*
X920265Y321754D01*
X920327Y321829D01*
X920335Y321853D01*
X920350Y321873D01*
X920378Y321966D01*
X920413Y322057D01*
X920416Y322090D01*
X920421Y322106D01*
X920420Y322131D01*
X920427Y322204D01*
X920427Y371894D01*
X981218Y432685D01*
X983359Y434826D01*
X983402Y434886D01*
X983452Y434940D01*
X983473Y434984D01*
X983502Y435025D01*
X983523Y435095D01*
X983553Y435162D01*
X983558Y435211D01*
X983572Y435258D01*
X983570Y435331D01*
X983577Y435405D01*
X983566Y435453D01*
X983565Y435502D01*
X983539Y435571D01*
X983522Y435642D01*
X983496Y435684D01*
X983479Y435730D01*
X983432Y435787D01*
X983393Y435850D01*
X983355Y435881D01*
X983324Y435919D01*
X983262Y435958D01*
X983205Y436005D01*
X983159Y436022D01*
X983117Y436048D01*
X983045Y436065D01*
X982977Y436091D01*
X982903Y436098D01*
X982879Y436104D01*
X982863Y436102D01*
X982830Y436105D01*
X975104Y436105D01*
X781494Y629716D01*
X781414Y629773D01*
X781339Y629835D01*
X781316Y629843D01*
X781295Y629858D01*
X781202Y629886D01*
X781111Y629921D01*
X781078Y629924D01*
X781062Y629929D01*
X781037Y629928D01*
X780964Y629935D01*
X727796Y629935D01*
X727700Y629919D01*
X727603Y629910D01*
X727580Y629900D01*
X727555Y629896D01*
X727469Y629850D01*
X727381Y629809D01*
X727355Y629788D01*
X727340Y629781D01*
X727323Y629762D01*
X727266Y629716D01*
X592866Y495315D01*
X151216Y495315D01*
X151120Y495299D01*
X151023Y495290D01*
X151000Y495280D01*
X150975Y495276D01*
X150889Y495230D01*
X150801Y495189D01*
X150775Y495168D01*
X150760Y495161D01*
X150743Y495142D01*
X150686Y495096D01*
X127204Y471614D01*
X127147Y471534D01*
X127085Y471459D01*
X127077Y471436D01*
X127062Y471415D01*
X127034Y471322D01*
X126999Y471231D01*
X126996Y471198D01*
X126991Y471182D01*
X126992Y471157D01*
X126985Y471084D01*
X126985Y311374D01*
X120626Y305015D01*
X115954Y305015D01*
X115930Y305011D01*
X115905Y305014D01*
X115810Y304992D01*
X115713Y304976D01*
X115692Y304964D01*
X115668Y304958D01*
X115584Y304907D01*
X115498Y304861D01*
X115481Y304843D01*
X115460Y304830D01*
X115398Y304754D01*
X115331Y304683D01*
X115321Y304660D01*
X115305Y304641D01*
X115271Y304550D01*
X115230Y304460D01*
X115228Y304436D01*
X115219Y304413D01*
X115205Y304266D01*
X115205Y300329D01*
X115204Y300327D01*
X115182Y300232D01*
X115153Y300138D01*
X115154Y300114D01*
X115148Y300090D01*
X115158Y299992D01*
X115161Y299894D01*
X115170Y299871D01*
X115172Y299847D01*
X115205Y299774D01*
X115205Y295329D01*
X115204Y295327D01*
X115182Y295232D01*
X115153Y295138D01*
X115154Y295114D01*
X115148Y295090D01*
X115158Y294992D01*
X115161Y294894D01*
X115170Y294871D01*
X115172Y294847D01*
X115205Y294774D01*
X115205Y290408D01*
X114616Y289820D01*
X114602Y289800D01*
X114583Y289784D01*
X114531Y289701D01*
X114474Y289621D01*
X114467Y289598D01*
X114454Y289577D01*
X114432Y289482D01*
X114403Y289388D01*
X114404Y289364D01*
X114398Y289340D01*
X114408Y289242D01*
X114411Y289144D01*
X114420Y289121D01*
X114422Y289097D01*
X114462Y289007D01*
X114497Y288916D01*
X114512Y288897D01*
X114522Y288874D01*
X114616Y288760D01*
X115205Y288172D01*
X115205Y279908D01*
X114312Y279015D01*
X99048Y279015D01*
X98155Y279908D01*
X98155Y288172D01*
X98744Y288760D01*
X98758Y288780D01*
X98777Y288796D01*
X98829Y288879D01*
X98886Y288959D01*
X98893Y288982D01*
X98906Y289003D01*
X98928Y289098D01*
X98957Y289192D01*
X98956Y289217D01*
X98962Y289240D01*
X98952Y289338D01*
X98949Y289436D01*
X98940Y289459D01*
X98938Y289483D01*
X98898Y289573D01*
X98863Y289664D01*
X98848Y289683D01*
X98838Y289706D01*
X98744Y289820D01*
X98155Y290408D01*
X98155Y294751D01*
X98156Y294753D01*
X98179Y294849D01*
X98207Y294942D01*
X98206Y294967D01*
X98212Y294991D01*
X98202Y295088D01*
X98199Y295186D01*
X98190Y295209D01*
X98188Y295233D01*
X98155Y295306D01*
X98155Y299751D01*
X98156Y299753D01*
X98179Y299849D01*
X98207Y299942D01*
X98206Y299967D01*
X98212Y299991D01*
X98202Y300088D01*
X98199Y300186D01*
X98190Y300209D01*
X98188Y300233D01*
X98155Y300306D01*
X98155Y304751D01*
X98156Y304753D01*
X98179Y304849D01*
X98207Y304942D01*
X98206Y304967D01*
X98212Y304991D01*
X98202Y305088D01*
X98199Y305186D01*
X98190Y305209D01*
X98188Y305233D01*
X98155Y305306D01*
X98155Y309751D01*
X98156Y309753D01*
X98179Y309849D01*
X98207Y309942D01*
X98206Y309967D01*
X98212Y309991D01*
X98202Y310088D01*
X98199Y310186D01*
X98190Y310209D01*
X98188Y310233D01*
X98155Y310306D01*
X98155Y314751D01*
X98156Y314753D01*
X98179Y314849D01*
X98207Y314942D01*
X98206Y314967D01*
X98212Y314991D01*
X98202Y315088D01*
X98199Y315186D01*
X98190Y315209D01*
X98188Y315233D01*
X98155Y315306D01*
X98155Y319751D01*
X98156Y319753D01*
X98179Y319849D01*
X98207Y319942D01*
X98206Y319967D01*
X98212Y319991D01*
X98202Y320088D01*
X98199Y320186D01*
X98190Y320209D01*
X98188Y320233D01*
X98155Y320306D01*
X98155Y324751D01*
X98156Y324753D01*
X98179Y324849D01*
X98207Y324942D01*
X98206Y324967D01*
X98212Y324991D01*
X98202Y325088D01*
X98199Y325186D01*
X98190Y325209D01*
X98188Y325233D01*
X98155Y325306D01*
X98155Y329751D01*
X98156Y329753D01*
X98179Y329849D01*
X98207Y329942D01*
X98206Y329967D01*
X98212Y329991D01*
X98202Y330088D01*
X98199Y330186D01*
X98190Y330209D01*
X98188Y330233D01*
X98155Y330306D01*
X98155Y334751D01*
X98156Y334753D01*
X98179Y334849D01*
X98207Y334942D01*
X98206Y334967D01*
X98212Y334991D01*
X98202Y335088D01*
X98199Y335186D01*
X98190Y335209D01*
X98188Y335233D01*
X98155Y335306D01*
X98155Y339751D01*
X98156Y339753D01*
X98179Y339849D01*
X98207Y339942D01*
X98206Y339967D01*
X98212Y339991D01*
X98202Y340088D01*
X98199Y340186D01*
X98190Y340209D01*
X98188Y340233D01*
X98155Y340306D01*
X98155Y344751D01*
X98156Y344753D01*
X98179Y344849D01*
X98207Y344942D01*
X98206Y344967D01*
X98212Y344991D01*
X98202Y345088D01*
X98199Y345186D01*
X98190Y345209D01*
X98188Y345233D01*
X98155Y345306D01*
X98155Y349672D01*
X98744Y350260D01*
X98758Y350280D01*
X98777Y350296D01*
X98829Y350379D01*
X98886Y350459D01*
X98893Y350482D01*
X98906Y350503D01*
X98928Y350598D01*
X98957Y350692D01*
X98956Y350716D01*
X98962Y350740D01*
X98952Y350838D01*
X98949Y350936D01*
X98940Y350959D01*
X98938Y350983D01*
X98898Y351073D01*
X98863Y351164D01*
X98848Y351183D01*
X98838Y351206D01*
X98744Y351320D01*
X98155Y351908D01*
X98155Y360172D01*
X99048Y361065D01*
X114312Y361065D01*
X115205Y360172D01*
X115205Y351908D01*
X114616Y351320D01*
X114602Y351300D01*
X114583Y351284D01*
X114531Y351201D01*
X114474Y351121D01*
X114467Y351098D01*
X114454Y351077D01*
X114432Y350982D01*
X114403Y350888D01*
X114404Y350863D01*
X114398Y350840D01*
X114408Y350742D01*
X114411Y350644D01*
X114420Y350621D01*
X114422Y350597D01*
X114462Y350507D01*
X114497Y350416D01*
X114512Y350397D01*
X114522Y350374D01*
X114616Y350260D01*
X115205Y349672D01*
X115205Y345329D01*
X115204Y345327D01*
X115182Y345232D01*
X115153Y345138D01*
X115154Y345114D01*
X115148Y345090D01*
X115158Y344992D01*
X115161Y344894D01*
X115170Y344871D01*
X115172Y344847D01*
X115205Y344774D01*
X115205Y340329D01*
X115204Y340327D01*
X115182Y340232D01*
X115153Y340138D01*
X115154Y340114D01*
X115148Y340090D01*
X115158Y339992D01*
X115161Y339894D01*
X115170Y339871D01*
X115172Y339847D01*
X115205Y339774D01*
X115205Y335814D01*
X115209Y335790D01*
X115206Y335765D01*
X115228Y335670D01*
X115244Y335573D01*
X115256Y335552D01*
X115262Y335528D01*
X115313Y335444D01*
X115359Y335358D01*
X115377Y335341D01*
X115390Y335320D01*
X115466Y335258D01*
X115537Y335191D01*
X115560Y335181D01*
X115579Y335165D01*
X115670Y335131D01*
X115760Y335090D01*
X115784Y335088D01*
X115807Y335079D01*
X115954Y335065D01*
X120364Y335065D01*
X120460Y335081D01*
X120557Y335090D01*
X120580Y335100D01*
X120605Y335104D01*
X120691Y335151D01*
X120779Y335191D01*
X120805Y335212D01*
X120820Y335219D01*
X120837Y335238D01*
X120894Y335284D01*
X121716Y336106D01*
X121773Y336186D01*
X121835Y336261D01*
X121843Y336284D01*
X121858Y336305D01*
X121886Y336398D01*
X121921Y336489D01*
X121924Y336522D01*
X121929Y336538D01*
X121928Y336563D01*
X121935Y336636D01*
X121935Y443544D01*
X121919Y443640D01*
X121910Y443737D01*
X121900Y443760D01*
X121896Y443785D01*
X121850Y443871D01*
X121809Y443959D01*
X121788Y443985D01*
X121781Y444000D01*
X121762Y444017D01*
X121716Y444074D01*
X121294Y444496D01*
X121214Y444553D01*
X121139Y444615D01*
X121116Y444623D01*
X121095Y444638D01*
X121002Y444666D01*
X120911Y444701D01*
X120878Y444704D01*
X120862Y444709D01*
X120837Y444708D01*
X120764Y444715D01*
X115954Y444715D01*
X115930Y444711D01*
X115905Y444714D01*
X115810Y444692D01*
X115713Y444676D01*
X115692Y444664D01*
X115668Y444658D01*
X115584Y444607D01*
X115498Y444561D01*
X115481Y444543D01*
X115460Y444530D01*
X115398Y444454D01*
X115331Y444383D01*
X115321Y444360D01*
X115305Y444341D01*
X115271Y444250D01*
X115230Y444160D01*
X115228Y444136D01*
X115219Y444113D01*
X115205Y443966D01*
X115205Y440029D01*
X115204Y440027D01*
X115182Y439932D01*
X115153Y439838D01*
X115154Y439814D01*
X115148Y439790D01*
X115158Y439692D01*
X115161Y439594D01*
X115170Y439571D01*
X115172Y439547D01*
X115205Y439474D01*
X115205Y435029D01*
X115204Y435027D01*
X115182Y434932D01*
X115153Y434838D01*
X115154Y434814D01*
X115148Y434790D01*
X115158Y434692D01*
X115161Y434594D01*
X115170Y434571D01*
X115172Y434547D01*
X115205Y434474D01*
X115205Y430108D01*
X114616Y429520D01*
X114602Y429500D01*
X114583Y429484D01*
X114531Y429401D01*
X114474Y429321D01*
X114467Y429298D01*
X114454Y429277D01*
X114432Y429182D01*
X114403Y429088D01*
X114404Y429064D01*
X114398Y429040D01*
X114408Y428942D01*
X114411Y428844D01*
X114420Y428821D01*
X114422Y428797D01*
X114462Y428707D01*
X114497Y428616D01*
X114512Y428597D01*
X114522Y428574D01*
X114616Y428460D01*
X115205Y427872D01*
X115205Y419608D01*
X114312Y418715D01*
X99048Y418715D01*
X98155Y419608D01*
X98155Y427872D01*
X98744Y428460D01*
X98758Y428480D01*
X98777Y428496D01*
X98829Y428579D01*
X98886Y428659D01*
X98893Y428682D01*
X98906Y428703D01*
X98928Y428798D01*
X98957Y428892D01*
X98956Y428917D01*
X98962Y428940D01*
X98952Y429038D01*
X98949Y429136D01*
X98940Y429159D01*
X98938Y429183D01*
X98898Y429273D01*
X98863Y429364D01*
X98848Y429383D01*
X98838Y429406D01*
X98744Y429520D01*
X98155Y430108D01*
X98155Y434451D01*
X98156Y434453D01*
X98179Y434549D01*
X98207Y434642D01*
X98206Y434667D01*
X98212Y434691D01*
X98202Y434788D01*
X98199Y434886D01*
X98190Y434909D01*
X98188Y434933D01*
X98155Y435006D01*
X98155Y439451D01*
X98156Y439453D01*
X98179Y439549D01*
X98207Y439642D01*
X98206Y439667D01*
X98212Y439691D01*
X98202Y439788D01*
X98199Y439886D01*
X98190Y439909D01*
X98188Y439933D01*
X98155Y440006D01*
X98155Y444451D01*
X98156Y444453D01*
X98179Y444549D01*
X98207Y444642D01*
X98206Y444667D01*
X98212Y444691D01*
X98202Y444788D01*
X98199Y444886D01*
X98190Y444909D01*
X98188Y444933D01*
X98155Y445006D01*
X98155Y449451D01*
X98156Y449453D01*
X98179Y449549D01*
X98207Y449642D01*
X98206Y449667D01*
X98212Y449691D01*
X98202Y449788D01*
X98199Y449886D01*
X98190Y449909D01*
X98188Y449933D01*
X98155Y450006D01*
X98155Y454451D01*
X98156Y454453D01*
X98179Y454549D01*
X98207Y454642D01*
X98206Y454667D01*
X98212Y454691D01*
X98202Y454788D01*
X98199Y454886D01*
X98190Y454909D01*
X98188Y454933D01*
X98155Y455006D01*
X98155Y459451D01*
X98156Y459453D01*
X98179Y459549D01*
X98207Y459642D01*
X98206Y459667D01*
X98212Y459691D01*
X98202Y459788D01*
X98199Y459886D01*
X98190Y459909D01*
X98188Y459933D01*
X98155Y460006D01*
X98155Y464451D01*
X98156Y464453D01*
X98179Y464549D01*
X98207Y464642D01*
X98206Y464667D01*
X98212Y464691D01*
X98202Y464788D01*
X98199Y464886D01*
X98190Y464909D01*
X98188Y464933D01*
X98155Y465006D01*
X98155Y469451D01*
X98156Y469453D01*
X98179Y469549D01*
X98207Y469642D01*
X98206Y469667D01*
X98212Y469691D01*
X98202Y469788D01*
X98199Y469886D01*
X98190Y469909D01*
X98188Y469933D01*
X98155Y470006D01*
X98155Y474451D01*
X98156Y474453D01*
X98170Y474511D01*
X98186Y474547D01*
X98190Y474587D01*
X98207Y474642D01*
X98206Y474667D01*
X98212Y474691D01*
X98206Y474748D01*
X98210Y474790D01*
X98201Y474831D01*
X98199Y474886D01*
X98190Y474909D01*
X98188Y474933D01*
X98165Y474983D01*
X98155Y475027D01*
X98155Y479451D01*
X98156Y479453D01*
X98179Y479549D01*
X98207Y479642D01*
X98206Y479667D01*
X98212Y479691D01*
X98202Y479788D01*
X98199Y479886D01*
X98190Y479909D01*
X98188Y479933D01*
X98155Y480006D01*
X98155Y484451D01*
X98156Y484453D01*
X98179Y484549D01*
X98207Y484642D01*
X98206Y484667D01*
X98212Y484691D01*
X98202Y484788D01*
X98199Y484886D01*
X98190Y484909D01*
X98188Y484933D01*
X98155Y485006D01*
X98155Y489372D01*
X98744Y489960D01*
X98758Y489980D01*
X98777Y489996D01*
X98805Y490040D01*
X98823Y490059D01*
X98836Y490089D01*
X98886Y490159D01*
X98893Y490182D01*
X98906Y490203D01*
X98928Y490298D01*
X98957Y490392D01*
X98956Y490416D01*
X98962Y490440D01*
X98952Y490538D01*
X98949Y490636D01*
X98940Y490659D01*
X98938Y490683D01*
X98898Y490773D01*
X98863Y490864D01*
X98848Y490883D01*
X98838Y490906D01*
X98744Y491020D01*
X98155Y491608D01*
X98155Y499872D01*
X99048Y500765D01*
X114312Y500765D01*
X115205Y499872D01*
X115205Y491608D01*
X114616Y491020D01*
X114602Y491000D01*
X114583Y490984D01*
X114531Y490901D01*
X114474Y490821D01*
X114467Y490798D01*
X114454Y490777D01*
X114432Y490682D01*
X114403Y490588D01*
X114404Y490563D01*
X114398Y490540D01*
X114408Y490442D01*
X114411Y490344D01*
X114420Y490321D01*
X114422Y490297D01*
X114462Y490207D01*
X114466Y490199D01*
X114468Y490190D01*
X114471Y490184D01*
X114497Y490116D01*
X114512Y490097D01*
X114522Y490074D01*
X114591Y489990D01*
X114596Y489982D01*
X114601Y489978D01*
X114616Y489960D01*
X115205Y489372D01*
X115205Y485029D01*
X115204Y485027D01*
X115182Y484932D01*
X115153Y484838D01*
X115154Y484814D01*
X115148Y484790D01*
X115158Y484692D01*
X115161Y484594D01*
X115170Y484571D01*
X115172Y484547D01*
X115205Y484474D01*
X115205Y480029D01*
X115204Y480027D01*
X115182Y479932D01*
X115153Y479838D01*
X115154Y479814D01*
X115148Y479790D01*
X115158Y479692D01*
X115161Y479594D01*
X115170Y479571D01*
X115172Y479547D01*
X115205Y479474D01*
X115205Y475514D01*
X115209Y475490D01*
X115206Y475465D01*
X115228Y475370D01*
X115244Y475273D01*
X115256Y475252D01*
X115262Y475228D01*
X115313Y475144D01*
X115359Y475058D01*
X115377Y475041D01*
X115390Y475020D01*
X115466Y474958D01*
X115537Y474891D01*
X115560Y474881D01*
X115579Y474865D01*
X115670Y474831D01*
X115760Y474790D01*
X115784Y474788D01*
X115807Y474779D01*
X115954Y474765D01*
X122904Y474765D01*
X123000Y474781D01*
X123097Y474790D01*
X123120Y474800D01*
X123145Y474804D01*
X123231Y474850D01*
X123319Y474891D01*
X123345Y474912D01*
X123360Y474919D01*
X123377Y474938D01*
X123434Y474984D01*
X148814Y500365D01*
X590464Y500365D01*
X590560Y500381D01*
X590657Y500390D01*
X590680Y500400D01*
X590705Y500404D01*
X590791Y500450D01*
X590879Y500491D01*
X590905Y500512D01*
X590920Y500519D01*
X590937Y500538D01*
X590994Y500584D01*
X725394Y634985D01*
X750884Y634985D01*
X750980Y635001D01*
X751077Y635010D01*
X751100Y635020D01*
X751125Y635024D01*
X751211Y635070D01*
X751299Y635111D01*
X751325Y635132D01*
X751340Y635139D01*
X751357Y635158D01*
X751414Y635204D01*
X751836Y635626D01*
X751893Y635706D01*
X751955Y635781D01*
X751963Y635804D01*
X751978Y635825D01*
X752006Y635918D01*
X752041Y636009D01*
X752044Y636042D01*
X752049Y636058D01*
X752048Y636083D01*
X752055Y636156D01*
X752055Y638426D01*
X752051Y638450D01*
X752054Y638475D01*
X752032Y638570D01*
X752016Y638667D01*
X752004Y638688D01*
X751998Y638712D01*
X751947Y638796D01*
X751901Y638882D01*
X751883Y638899D01*
X751870Y638920D01*
X751794Y638982D01*
X751723Y639049D01*
X751700Y639059D01*
X751681Y639075D01*
X751590Y639109D01*
X751500Y639150D01*
X751476Y639152D01*
X751453Y639161D01*
X751306Y639175D01*
X747369Y639175D01*
X747367Y639176D01*
X747272Y639198D01*
X747178Y639227D01*
X747154Y639226D01*
X747130Y639232D01*
X747032Y639222D01*
X746934Y639219D01*
X746911Y639210D01*
X746887Y639208D01*
X746814Y639175D01*
X742369Y639175D01*
X742367Y639176D01*
X742272Y639198D01*
X742178Y639227D01*
X742154Y639226D01*
X742130Y639232D01*
X742032Y639222D01*
X741934Y639219D01*
X741911Y639210D01*
X741887Y639208D01*
X741814Y639175D01*
X737448Y639175D01*
X736860Y639764D01*
X736840Y639778D01*
X736824Y639797D01*
X736741Y639849D01*
X736661Y639906D01*
X736638Y639913D01*
X736617Y639926D01*
X736522Y639948D01*
X736428Y639977D01*
X736404Y639976D01*
X736380Y639982D01*
X736282Y639972D01*
X736184Y639969D01*
X736161Y639960D01*
X736137Y639958D01*
X736047Y639918D01*
X735956Y639883D01*
X735937Y639868D01*
X735914Y639858D01*
X735800Y639764D01*
X735212Y639175D01*
X726948Y639175D01*
X726055Y640068D01*
X726055Y655332D01*
X726948Y656225D01*
X735212Y656225D01*
X735800Y655636D01*
X735820Y655622D01*
X735836Y655603D01*
X735919Y655551D01*
X735999Y655494D01*
X736022Y655487D01*
X736043Y655474D01*
X736138Y655452D01*
X736232Y655423D01*
X736257Y655424D01*
X736280Y655418D01*
X736378Y655428D01*
X736476Y655431D01*
X736499Y655440D01*
X736523Y655442D01*
X736613Y655482D01*
X736704Y655517D01*
X736723Y655532D01*
X736746Y655542D01*
X736860Y655636D01*
X737448Y656225D01*
X741791Y656225D01*
X741793Y656224D01*
X741889Y656201D01*
X741982Y656173D01*
X742007Y656174D01*
X742031Y656168D01*
X742128Y656178D01*
X742226Y656181D01*
X742249Y656190D01*
X742273Y656192D01*
X742346Y656225D01*
X746791Y656225D01*
X746793Y656224D01*
X746889Y656201D01*
X746982Y656173D01*
X747007Y656174D01*
X747031Y656168D01*
X747128Y656178D01*
X747226Y656181D01*
X747249Y656190D01*
X747273Y656192D01*
X747346Y656225D01*
X751791Y656225D01*
X751793Y656224D01*
X751889Y656201D01*
X751982Y656173D01*
X752007Y656174D01*
X752031Y656168D01*
X752128Y656178D01*
X752226Y656181D01*
X752249Y656190D01*
X752273Y656192D01*
X752346Y656225D01*
X756791Y656225D01*
X756793Y656224D01*
X756888Y656202D01*
X756982Y656173D01*
X757006Y656174D01*
X757030Y656168D01*
X757128Y656178D01*
X757226Y656181D01*
X757249Y656190D01*
X757273Y656192D01*
X757346Y656225D01*
X761791Y656225D01*
X761793Y656224D01*
X761889Y656201D01*
X761982Y656173D01*
X762007Y656174D01*
X762031Y656168D01*
X762128Y656178D01*
X762226Y656181D01*
X762249Y656190D01*
X762273Y656192D01*
X762346Y656225D01*
X766791Y656225D01*
X766793Y656224D01*
X766889Y656201D01*
X766982Y656173D01*
X767007Y656174D01*
X767031Y656168D01*
X767128Y656178D01*
X767226Y656181D01*
X767249Y656190D01*
X767273Y656192D01*
X767346Y656225D01*
X771791Y656225D01*
X771793Y656224D01*
X771889Y656201D01*
X771982Y656173D01*
X772007Y656174D01*
X772031Y656168D01*
X772128Y656178D01*
X772226Y656181D01*
X772249Y656190D01*
X772273Y656192D01*
X772346Y656225D01*
X776791Y656225D01*
X776793Y656224D01*
X776889Y656201D01*
X776982Y656173D01*
X777007Y656174D01*
X777031Y656168D01*
X777128Y656178D01*
X777226Y656181D01*
X777249Y656190D01*
X777273Y656192D01*
X777346Y656225D01*
X781791Y656225D01*
X781793Y656224D01*
X781889Y656201D01*
X781982Y656173D01*
X782007Y656174D01*
X782031Y656168D01*
X782128Y656178D01*
X782226Y656181D01*
X782249Y656190D01*
X782273Y656192D01*
X782346Y656225D01*
X786791Y656225D01*
X786793Y656224D01*
X786889Y656201D01*
X786982Y656173D01*
X787007Y656174D01*
X787031Y656168D01*
X787128Y656178D01*
X787226Y656181D01*
X787249Y656190D01*
X787273Y656192D01*
X787346Y656225D01*
X791791Y656225D01*
X791793Y656224D01*
X791889Y656201D01*
X791982Y656173D01*
X792007Y656174D01*
X792031Y656168D01*
X792128Y656178D01*
X792226Y656181D01*
X792249Y656190D01*
X792273Y656192D01*
X792346Y656225D01*
X796712Y656225D01*
X797300Y655636D01*
X797320Y655622D01*
X797336Y655603D01*
X797419Y655551D01*
X797499Y655494D01*
X797522Y655487D01*
X797543Y655474D01*
X797638Y655452D01*
X797732Y655423D01*
X797757Y655424D01*
X797780Y655418D01*
X797878Y655428D01*
X797976Y655431D01*
X797999Y655440D01*
X798023Y655442D01*
X798113Y655482D01*
X798204Y655517D01*
X798223Y655532D01*
X798246Y655542D01*
X798360Y655636D01*
X798948Y656225D01*
X807212Y656225D01*
X808105Y655332D01*
X808105Y640068D01*
X807212Y639175D01*
X798948Y639175D01*
X798360Y639764D01*
X798340Y639778D01*
X798324Y639797D01*
X798241Y639849D01*
X798161Y639906D01*
X798138Y639913D01*
X798117Y639926D01*
X798022Y639948D01*
X797928Y639977D01*
X797904Y639976D01*
X797880Y639982D01*
X797782Y639972D01*
X797684Y639969D01*
X797661Y639960D01*
X797637Y639958D01*
X797547Y639918D01*
X797456Y639883D01*
X797437Y639868D01*
X797414Y639858D01*
X797300Y639764D01*
X796712Y639175D01*
X792369Y639175D01*
X792367Y639176D01*
X792272Y639198D01*
X792178Y639227D01*
X792154Y639226D01*
X792130Y639232D01*
X792032Y639222D01*
X791934Y639219D01*
X791911Y639210D01*
X791887Y639208D01*
X791814Y639175D01*
X787369Y639175D01*
X787367Y639176D01*
X787272Y639198D01*
X787178Y639227D01*
X787154Y639226D01*
X787130Y639232D01*
X787032Y639222D01*
X786934Y639219D01*
X786911Y639210D01*
X786887Y639208D01*
X786814Y639175D01*
X782854Y639175D01*
X782830Y639171D01*
X782805Y639174D01*
X782710Y639152D01*
X782613Y639136D01*
X782592Y639124D01*
X782568Y639118D01*
X782484Y639067D01*
X782398Y639021D01*
X782381Y639003D01*
X782360Y638990D01*
X782298Y638914D01*
X782231Y638843D01*
X782221Y638820D01*
X782205Y638801D01*
X782171Y638710D01*
X782130Y638620D01*
X782128Y638596D01*
X782119Y638573D01*
X782105Y638426D01*
X782105Y636556D01*
X782107Y636541D01*
X782106Y636531D01*
X782115Y636493D01*
X782121Y636460D01*
X782130Y636363D01*
X782140Y636340D01*
X782144Y636315D01*
X782190Y636229D01*
X782231Y636141D01*
X782252Y636115D01*
X782259Y636100D01*
X782278Y636083D01*
X782324Y636026D01*
X782524Y635826D01*
X783146Y635204D01*
X785064Y633286D01*
X976976Y441374D01*
X977056Y441317D01*
X977131Y441255D01*
X977154Y441247D01*
X977175Y441232D01*
X977268Y441204D01*
X977359Y441169D01*
X977392Y441166D01*
X977408Y441161D01*
X977433Y441162D01*
X977506Y441155D01*
X1039304Y441155D01*
X1039328Y441159D01*
X1039353Y441156D01*
X1039448Y441178D01*
X1039545Y441194D01*
X1039566Y441206D01*
X1039590Y441212D01*
X1039674Y441263D01*
X1039760Y441309D01*
X1039777Y441327D01*
X1039798Y441340D01*
X1039860Y441416D01*
X1039927Y441487D01*
X1039937Y441510D01*
X1039953Y441529D01*
X1039987Y441620D01*
X1040028Y441710D01*
X1040030Y441734D01*
X1040039Y441757D01*
X1040053Y441904D01*
X1040053Y458651D01*
X1040037Y458748D01*
X1040028Y458845D01*
X1040018Y458867D01*
X1040014Y458892D01*
X1039968Y458978D01*
X1039927Y459067D01*
X1039906Y459093D01*
X1039899Y459107D01*
X1039880Y459124D01*
X1039834Y459181D01*
X1039307Y459708D01*
X1039307Y463272D01*
X1039834Y463799D01*
X1039891Y463878D01*
X1039953Y463953D01*
X1039961Y463977D01*
X1039976Y463997D01*
X1040004Y464090D01*
X1040039Y464182D01*
X1040042Y464215D01*
X1040047Y464231D01*
X1040046Y464256D01*
X1040053Y464329D01*
X1040053Y470081D01*
X1040037Y470178D01*
X1040028Y470275D01*
X1040018Y470297D01*
X1040014Y470322D01*
X1039968Y470408D01*
X1039927Y470497D01*
X1039906Y470523D01*
X1039899Y470537D01*
X1039880Y470554D01*
X1039834Y470611D01*
X1039307Y471138D01*
X1039307Y474702D01*
X1039834Y475229D01*
X1039891Y475308D01*
X1039953Y475383D01*
X1039961Y475407D01*
X1039976Y475427D01*
X1040004Y475520D01*
X1040039Y475612D01*
X1040042Y475645D01*
X1040047Y475661D01*
X1040046Y475686D01*
X1040053Y475759D01*
X1040053Y481511D01*
X1040051Y481526D01*
X1040052Y481533D01*
X1040045Y481564D01*
X1040037Y481608D01*
X1040028Y481705D01*
X1040018Y481727D01*
X1040014Y481752D01*
X1039968Y481838D01*
X1039927Y481927D01*
X1039906Y481953D01*
X1039899Y481967D01*
X1039880Y481984D01*
X1039834Y482041D01*
X1039307Y482568D01*
X1039307Y486132D01*
X1039834Y486659D01*
X1039891Y486738D01*
X1039953Y486813D01*
X1039961Y486837D01*
X1039976Y486857D01*
X1040004Y486950D01*
X1040039Y487042D01*
X1040042Y487075D01*
X1040047Y487091D01*
X1040046Y487116D01*
X1040053Y487189D01*
X1040053Y509427D01*
X1041393Y510767D01*
X1063607Y510767D01*
X1064157Y510217D01*
X1064176Y510203D01*
X1064192Y510184D01*
X1064275Y510132D01*
X1064355Y510075D01*
X1064378Y510068D01*
X1064399Y510055D01*
X1064494Y510033D01*
X1064588Y510004D01*
X1064613Y510005D01*
X1064637Y510000D01*
X1064734Y510009D01*
X1064832Y510012D01*
X1064855Y510021D01*
X1064880Y510023D01*
X1064969Y510064D01*
X1065061Y510098D01*
X1065080Y510114D01*
X1065102Y510124D01*
X1065216Y510217D01*
X1065544Y510546D01*
X1066123Y510546D01*
X1066147Y510550D01*
X1066172Y510547D01*
X1066267Y510569D01*
X1066364Y510585D01*
X1066385Y510597D01*
X1066409Y510603D01*
X1066493Y510654D01*
X1066579Y510700D01*
X1066596Y510718D01*
X1066617Y510731D01*
X1066679Y510807D01*
X1066746Y510878D01*
X1066756Y510901D01*
X1066772Y510920D01*
X1066806Y511011D01*
X1066847Y511101D01*
X1066849Y511125D01*
X1066858Y511148D01*
X1066872Y511295D01*
X1066872Y520905D01*
X1066868Y520929D01*
X1066871Y520954D01*
X1066849Y521049D01*
X1066833Y521146D01*
X1066821Y521167D01*
X1066816Y521191D01*
X1066764Y521275D01*
X1066718Y521361D01*
X1066700Y521378D01*
X1066687Y521399D01*
X1066611Y521461D01*
X1066540Y521528D01*
X1066517Y521538D01*
X1066498Y521554D01*
X1066407Y521588D01*
X1066317Y521629D01*
X1066293Y521631D01*
X1066270Y521640D01*
X1066123Y521654D01*
X1065544Y521654D01*
X1064942Y522257D01*
X1064922Y522271D01*
X1064907Y522290D01*
X1064823Y522342D01*
X1064744Y522399D01*
X1064720Y522406D01*
X1064700Y522419D01*
X1064604Y522441D01*
X1064510Y522470D01*
X1064486Y522469D01*
X1064462Y522474D01*
X1064364Y522465D01*
X1064266Y522462D01*
X1064243Y522453D01*
X1064219Y522451D01*
X1064130Y522410D01*
X1064038Y522376D01*
X1064019Y522360D01*
X1063997Y522350D01*
X1063882Y522257D01*
X1063154Y521528D01*
X1042246Y521528D01*
X1041278Y522496D01*
X1041278Y529734D01*
X1041305Y529766D01*
X1041313Y529790D01*
X1041328Y529810D01*
X1041356Y529903D01*
X1041391Y529995D01*
X1041394Y530027D01*
X1041399Y530043D01*
X1041398Y530068D01*
X1041405Y530141D01*
X1041405Y534732D01*
X1042298Y535625D01*
X1046102Y535625D01*
X1046995Y534732D01*
X1046995Y531421D01*
X1046999Y531397D01*
X1046996Y531372D01*
X1047018Y531277D01*
X1047034Y531180D01*
X1047046Y531159D01*
X1047052Y531135D01*
X1047103Y531051D01*
X1047149Y530965D01*
X1047167Y530948D01*
X1047180Y530927D01*
X1047256Y530865D01*
X1047327Y530798D01*
X1047350Y530788D01*
X1047369Y530772D01*
X1047460Y530738D01*
X1047550Y530697D01*
X1047574Y530695D01*
X1047597Y530686D01*
X1047744Y530672D01*
X1049156Y530672D01*
X1049180Y530676D01*
X1049205Y530673D01*
X1049300Y530695D01*
X1049397Y530711D01*
X1049418Y530723D01*
X1049442Y530729D01*
X1049526Y530780D01*
X1049612Y530826D01*
X1049629Y530844D01*
X1049650Y530857D01*
X1049712Y530933D01*
X1049779Y531004D01*
X1049789Y531027D01*
X1049805Y531046D01*
X1049839Y531137D01*
X1049880Y531227D01*
X1049882Y531251D01*
X1049891Y531274D01*
X1049905Y531421D01*
X1049905Y534732D01*
X1050798Y535625D01*
X1054602Y535625D01*
X1055495Y534732D01*
X1055495Y531421D01*
X1055499Y531397D01*
X1055496Y531372D01*
X1055518Y531277D01*
X1055534Y531180D01*
X1055546Y531159D01*
X1055552Y531135D01*
X1055603Y531051D01*
X1055649Y530965D01*
X1055667Y530948D01*
X1055680Y530927D01*
X1055756Y530865D01*
X1055827Y530798D01*
X1055850Y530788D01*
X1055869Y530772D01*
X1055960Y530738D01*
X1056050Y530697D01*
X1056074Y530695D01*
X1056097Y530686D01*
X1056244Y530672D01*
X1057656Y530672D01*
X1057680Y530676D01*
X1057705Y530673D01*
X1057800Y530695D01*
X1057897Y530711D01*
X1057918Y530723D01*
X1057942Y530729D01*
X1058026Y530780D01*
X1058112Y530826D01*
X1058129Y530844D01*
X1058150Y530857D01*
X1058212Y530933D01*
X1058279Y531004D01*
X1058289Y531027D01*
X1058305Y531046D01*
X1058339Y531137D01*
X1058380Y531227D01*
X1058382Y531251D01*
X1058391Y531274D01*
X1058405Y531421D01*
X1058405Y534732D01*
X1059298Y535625D01*
X1061926Y535625D01*
X1061950Y535629D01*
X1061975Y535626D01*
X1062070Y535648D01*
X1062167Y535664D01*
X1062188Y535676D01*
X1062212Y535682D01*
X1062296Y535733D01*
X1062382Y535779D01*
X1062399Y535797D01*
X1062420Y535810D01*
X1062482Y535886D01*
X1062549Y535957D01*
X1062559Y535980D01*
X1062575Y535999D01*
X1062609Y536090D01*
X1062650Y536180D01*
X1062652Y536204D01*
X1062661Y536227D01*
X1062675Y536374D01*
X1062675Y540877D01*
X1062671Y540901D01*
X1062674Y540926D01*
X1062652Y541021D01*
X1062636Y541118D01*
X1062624Y541139D01*
X1062618Y541163D01*
X1062567Y541247D01*
X1062521Y541333D01*
X1062503Y541350D01*
X1062490Y541371D01*
X1062414Y541433D01*
X1062343Y541500D01*
X1062320Y541510D01*
X1062301Y541526D01*
X1062210Y541560D01*
X1062120Y541601D01*
X1062096Y541603D01*
X1062073Y541612D01*
X1061926Y541626D01*
X1058345Y541626D01*
X1057452Y542519D01*
X1057452Y550895D01*
X1058429Y551871D01*
X1058470Y551896D01*
X1058556Y551942D01*
X1058573Y551960D01*
X1058594Y551973D01*
X1058656Y552049D01*
X1058723Y552120D01*
X1058733Y552143D01*
X1058749Y552162D01*
X1058783Y552253D01*
X1058824Y552343D01*
X1058826Y552367D01*
X1058835Y552390D01*
X1058849Y552537D01*
X1058849Y555863D01*
X1058845Y555887D01*
X1058848Y555912D01*
X1058826Y556007D01*
X1058810Y556104D01*
X1058798Y556125D01*
X1058792Y556149D01*
X1058741Y556233D01*
X1058695Y556319D01*
X1058677Y556336D01*
X1058664Y556357D01*
X1058588Y556419D01*
X1058517Y556486D01*
X1058494Y556496D01*
X1058475Y556512D01*
X1058429Y556529D01*
X1057452Y557505D01*
X1057452Y565881D01*
X1058345Y566774D01*
X1069515Y566774D01*
X1069803Y566485D01*
X1069882Y566428D01*
X1069958Y566366D01*
X1069981Y566358D01*
X1070001Y566343D01*
X1070095Y566315D01*
X1070186Y566280D01*
X1070219Y566277D01*
X1070235Y566272D01*
X1070260Y566273D01*
X1070333Y566266D01*
X1079794Y566266D01*
X1085273Y560787D01*
X1085273Y559522D01*
X1085277Y559498D01*
X1085274Y559473D01*
X1085296Y559378D01*
X1085312Y559281D01*
X1085324Y559260D01*
X1085330Y559236D01*
X1085381Y559152D01*
X1085427Y559066D01*
X1085445Y559049D01*
X1085458Y559028D01*
X1085534Y558966D01*
X1085605Y558899D01*
X1085628Y558889D01*
X1085647Y558873D01*
X1085738Y558839D01*
X1085828Y558798D01*
X1085852Y558796D01*
X1085875Y558787D01*
X1086022Y558773D01*
X1087033Y558773D01*
X1087068Y558738D01*
X1087147Y558681D01*
X1087222Y558619D01*
X1087246Y558611D01*
X1087266Y558596D01*
X1087359Y558568D01*
X1087450Y558533D01*
X1087483Y558530D01*
X1087499Y558525D01*
X1087524Y558526D01*
X1087597Y558519D01*
X1089073Y558519D01*
X1090070Y557521D01*
X1090090Y557507D01*
X1090106Y557488D01*
X1090189Y557436D01*
X1090269Y557379D01*
X1090292Y557372D01*
X1090313Y557359D01*
X1090408Y557337D01*
X1090502Y557308D01*
X1090526Y557309D01*
X1090550Y557303D01*
X1090648Y557313D01*
X1090746Y557316D01*
X1090769Y557325D01*
X1090793Y557327D01*
X1090882Y557367D01*
X1090974Y557402D01*
X1090993Y557417D01*
X1091016Y557427D01*
X1091130Y557521D01*
X1092127Y558519D01*
X1099995Y558519D01*
X1100869Y557644D01*
X1100889Y557630D01*
X1100905Y557611D01*
X1100988Y557559D01*
X1101068Y557502D01*
X1101091Y557495D01*
X1101112Y557482D01*
X1101207Y557459D01*
X1101301Y557431D01*
X1101326Y557432D01*
X1101350Y557426D01*
X1101447Y557436D01*
X1101545Y557439D01*
X1101568Y557447D01*
X1101592Y557450D01*
X1101682Y557490D01*
X1101773Y557525D01*
X1101792Y557540D01*
X1101815Y557550D01*
X1101929Y557644D01*
X1102788Y558503D01*
X1106352Y558503D01*
X1108873Y555982D01*
X1108873Y552418D01*
X1106352Y549897D01*
X1102684Y549897D01*
X1102660Y549893D01*
X1102635Y549896D01*
X1102540Y549874D01*
X1102443Y549858D01*
X1102422Y549846D01*
X1102398Y549840D01*
X1102314Y549789D01*
X1102228Y549743D01*
X1102211Y549725D01*
X1102190Y549712D01*
X1102128Y549636D01*
X1102061Y549565D01*
X1102051Y549542D01*
X1102035Y549523D01*
X1102001Y549432D01*
X1101960Y549342D01*
X1101958Y549318D01*
X1101949Y549295D01*
X1101935Y549148D01*
X1101935Y547774D01*
X1101939Y547750D01*
X1101936Y547725D01*
X1101958Y547630D01*
X1101974Y547533D01*
X1101986Y547512D01*
X1101992Y547488D01*
X1102043Y547404D01*
X1102089Y547318D01*
X1102107Y547301D01*
X1102120Y547280D01*
X1102196Y547218D01*
X1102267Y547151D01*
X1102290Y547141D01*
X1102309Y547125D01*
X1102400Y547091D01*
X1102490Y547050D01*
X1102514Y547048D01*
X1102537Y547039D01*
X1102684Y547025D01*
X1102788Y547025D01*
X1103681Y546132D01*
X1103681Y536868D01*
X1103456Y536644D01*
X1103413Y536584D01*
X1103363Y536530D01*
X1103343Y536486D01*
X1103314Y536445D01*
X1103293Y536375D01*
X1103262Y536308D01*
X1103257Y536259D01*
X1103243Y536212D01*
X1103245Y536139D01*
X1103238Y536065D01*
X1103249Y536017D01*
X1103251Y535968D01*
X1103277Y535899D01*
X1103293Y535828D01*
X1103319Y535786D01*
X1103337Y535740D01*
X1103383Y535683D01*
X1103422Y535620D01*
X1103460Y535589D01*
X1103491Y535551D01*
X1103554Y535512D01*
X1103611Y535465D01*
X1103657Y535448D01*
X1103699Y535422D01*
X1103770Y535405D01*
X1103839Y535379D01*
X1103912Y535372D01*
X1103936Y535366D01*
X1103953Y535368D01*
X1103970Y535366D01*
X1104948Y534388D01*
X1104973Y534347D01*
X1105019Y534261D01*
X1105037Y534244D01*
X1105050Y534223D01*
X1105126Y534161D01*
X1105197Y534094D01*
X1105220Y534084D01*
X1105239Y534068D01*
X1105330Y534034D01*
X1105420Y533993D01*
X1105444Y533991D01*
X1105467Y533982D01*
X1105614Y533968D01*
X1106066Y533968D01*
X1106090Y533972D01*
X1106115Y533969D01*
X1106210Y533991D01*
X1106307Y534007D01*
X1106328Y534019D01*
X1106352Y534025D01*
X1106436Y534076D01*
X1106522Y534122D01*
X1106539Y534140D01*
X1106560Y534153D01*
X1106622Y534229D01*
X1106689Y534300D01*
X1106699Y534323D01*
X1106715Y534342D01*
X1106732Y534388D01*
X1107540Y535196D01*
X1107554Y535216D01*
X1107573Y535231D01*
X1107625Y535314D01*
X1107682Y535394D01*
X1107689Y535418D01*
X1107702Y535438D01*
X1107724Y535534D01*
X1107753Y535628D01*
X1107752Y535652D01*
X1107757Y535676D01*
X1107748Y535774D01*
X1107745Y535872D01*
X1107736Y535895D01*
X1107734Y535919D01*
X1107693Y536008D01*
X1107659Y536100D01*
X1107643Y536119D01*
X1107633Y536141D01*
X1107540Y536255D01*
X1106617Y537178D01*
X1106617Y540742D01*
X1109138Y543263D01*
X1112702Y543263D01*
X1115223Y540742D01*
X1115223Y537178D01*
X1114689Y536644D01*
X1114646Y536584D01*
X1114596Y536530D01*
X1114575Y536486D01*
X1114547Y536445D01*
X1114525Y536375D01*
X1114495Y536308D01*
X1114490Y536259D01*
X1114476Y536212D01*
X1114478Y536139D01*
X1114471Y536065D01*
X1114482Y536017D01*
X1114484Y535968D01*
X1114509Y535899D01*
X1114526Y535828D01*
X1114552Y535786D01*
X1114569Y535740D01*
X1114616Y535683D01*
X1114655Y535620D01*
X1114693Y535589D01*
X1114724Y535551D01*
X1114787Y535512D01*
X1114843Y535465D01*
X1114889Y535448D01*
X1114931Y535422D01*
X1114982Y535410D01*
X1115921Y534472D01*
X1115921Y529296D01*
X1115925Y529272D01*
X1115922Y529247D01*
X1115944Y529152D01*
X1115960Y529055D01*
X1115972Y529034D01*
X1115978Y529010D01*
X1116029Y528926D01*
X1116075Y528840D01*
X1116093Y528823D01*
X1116106Y528802D01*
X1116182Y528740D01*
X1116253Y528673D01*
X1116276Y528663D01*
X1116295Y528647D01*
X1116386Y528613D01*
X1116476Y528572D01*
X1116500Y528570D01*
X1116523Y528561D01*
X1116670Y528547D01*
X1124567Y528547D01*
X1125911Y527203D01*
X1125930Y527120D01*
X1125946Y527023D01*
X1125958Y527002D01*
X1125964Y526978D01*
X1126015Y526894D01*
X1126061Y526808D01*
X1126079Y526791D01*
X1126092Y526770D01*
X1126168Y526708D01*
X1126239Y526641D01*
X1126262Y526631D01*
X1126281Y526615D01*
X1126372Y526581D01*
X1126462Y526540D01*
X1126486Y526538D01*
X1126509Y526529D01*
X1126656Y526515D01*
X1129738Y526515D01*
X1129834Y526531D01*
X1129931Y526540D01*
X1129954Y526550D01*
X1129978Y526554D01*
X1130064Y526600D01*
X1130153Y526641D01*
X1130179Y526662D01*
X1130194Y526669D01*
X1130211Y526688D01*
X1130267Y526734D01*
X1136906Y533373D01*
X1136963Y533452D01*
X1137025Y533527D01*
X1137033Y533551D01*
X1137048Y533571D01*
X1137076Y533664D01*
X1137111Y533755D01*
X1137114Y533788D01*
X1137119Y533804D01*
X1137118Y533829D01*
X1137125Y533902D01*
X1137125Y586828D01*
X1137109Y586924D01*
X1137100Y587021D01*
X1137090Y587044D01*
X1137086Y587069D01*
X1137040Y587155D01*
X1136999Y587243D01*
X1136978Y587269D01*
X1136971Y587284D01*
X1136952Y587301D01*
X1136906Y587358D01*
X1108724Y615539D01*
X1107525Y618434D01*
X1107525Y624476D01*
X1107521Y624500D01*
X1107524Y624525D01*
X1107502Y624620D01*
X1107486Y624717D01*
X1107474Y624738D01*
X1107468Y624762D01*
X1107417Y624846D01*
X1107371Y624932D01*
X1107353Y624949D01*
X1107340Y624970D01*
X1107264Y625032D01*
X1107193Y625099D01*
X1107170Y625109D01*
X1107151Y625125D01*
X1107060Y625159D01*
X1106970Y625200D01*
X1106946Y625202D01*
X1106923Y625211D01*
X1106776Y625225D01*
X1106518Y625225D01*
X1105625Y626118D01*
X1105625Y643882D01*
X1106518Y644775D01*
X1124282Y644775D01*
X1125175Y643882D01*
X1125175Y626118D01*
X1124282Y625225D01*
X1124024Y625225D01*
X1124000Y625221D01*
X1123975Y625224D01*
X1123880Y625202D01*
X1123783Y625186D01*
X1123762Y625174D01*
X1123738Y625168D01*
X1123654Y625117D01*
X1123568Y625071D01*
X1123551Y625053D01*
X1123530Y625040D01*
X1123468Y624964D01*
X1123401Y624893D01*
X1123391Y624870D01*
X1123375Y624851D01*
X1123341Y624760D01*
X1123300Y624670D01*
X1123298Y624646D01*
X1123289Y624623D01*
X1123275Y624476D01*
X1123275Y623572D01*
X1123291Y623476D01*
X1123300Y623379D01*
X1123310Y623356D01*
X1123314Y623331D01*
X1123360Y623245D01*
X1123401Y623157D01*
X1123422Y623131D01*
X1123429Y623116D01*
X1123448Y623099D01*
X1123494Y623042D01*
X1151676Y594861D01*
X1152875Y591966D01*
X1152875Y423572D01*
X1152891Y423476D01*
X1152900Y423379D01*
X1152910Y423356D01*
X1152914Y423331D01*
X1152960Y423245D01*
X1153001Y423157D01*
X1153022Y423131D01*
X1153029Y423116D01*
X1153048Y423099D01*
X1153094Y423042D01*
X1168108Y408028D01*
X1168188Y407971D01*
X1168263Y407909D01*
X1168286Y407901D01*
X1168307Y407886D01*
X1168400Y407858D01*
X1168491Y407823D01*
X1168524Y407820D01*
X1168540Y407815D01*
X1168565Y407816D01*
X1168638Y407809D01*
X1177621Y407809D01*
X1177693Y407821D01*
X1177766Y407823D01*
X1177837Y407844D01*
X1177862Y407848D01*
X1177876Y407856D01*
X1177908Y407866D01*
X1178383Y408063D01*
X1181617Y408063D01*
X1184605Y406825D01*
X1186891Y404539D01*
X1188129Y401551D01*
X1188129Y398317D01*
X1186891Y395329D01*
X1184605Y393043D01*
X1181617Y391805D01*
X1178383Y391805D01*
X1177908Y392002D01*
X1177836Y392019D01*
X1177768Y392045D01*
X1177694Y392052D01*
X1177670Y392058D01*
X1177654Y392056D01*
X1177621Y392059D01*
X1163500Y392059D01*
X1160605Y393258D01*
X1138324Y415539D01*
X1137125Y418434D01*
X1137125Y501098D01*
X1137109Y501194D01*
X1137100Y501291D01*
X1137090Y501314D01*
X1137086Y501338D01*
X1137040Y501424D01*
X1136999Y501513D01*
X1136978Y501539D01*
X1136971Y501554D01*
X1136952Y501571D01*
X1136906Y501627D01*
X1132267Y506266D01*
X1132188Y506323D01*
X1132113Y506385D01*
X1132089Y506393D01*
X1132069Y506408D01*
X1131976Y506436D01*
X1131885Y506471D01*
X1131852Y506474D01*
X1131836Y506479D01*
X1131811Y506478D01*
X1131738Y506485D01*
X1126656Y506485D01*
X1126632Y506481D01*
X1126607Y506484D01*
X1126512Y506462D01*
X1126415Y506446D01*
X1126394Y506434D01*
X1126370Y506428D01*
X1126286Y506377D01*
X1126200Y506331D01*
X1126183Y506313D01*
X1126162Y506300D01*
X1126100Y506224D01*
X1126033Y506153D01*
X1126023Y506130D01*
X1126007Y506111D01*
X1125973Y506020D01*
X1125932Y505930D01*
X1125930Y505906D01*
X1125921Y505883D01*
X1125907Y505736D01*
X1125907Y497373D01*
X1124844Y496310D01*
X1124829Y496290D01*
X1124811Y496274D01*
X1124759Y496191D01*
X1124702Y496111D01*
X1124694Y496088D01*
X1124682Y496067D01*
X1124659Y495972D01*
X1124631Y495878D01*
X1124631Y495854D01*
X1124626Y495830D01*
X1124635Y495732D01*
X1124639Y495634D01*
X1124647Y495611D01*
X1124650Y495587D01*
X1124690Y495498D01*
X1124724Y495406D01*
X1124740Y495387D01*
X1124750Y495364D01*
X1124844Y495250D01*
X1125907Y494187D01*
X1125907Y449113D01*
X1124844Y448050D01*
X1124829Y448030D01*
X1124810Y448014D01*
X1124759Y447931D01*
X1124702Y447851D01*
X1124694Y447828D01*
X1124682Y447807D01*
X1124659Y447712D01*
X1124631Y447618D01*
X1124631Y447593D01*
X1124626Y447570D01*
X1124635Y447472D01*
X1124639Y447374D01*
X1124647Y447351D01*
X1124650Y447327D01*
X1124690Y447237D01*
X1124724Y447146D01*
X1124740Y447127D01*
X1124750Y447104D01*
X1124844Y446990D01*
X1125907Y445927D01*
X1125907Y423713D01*
X1124567Y422373D01*
X1050283Y422373D01*
X1048724Y423932D01*
X1046438Y426218D01*
X1046359Y426275D01*
X1046284Y426337D01*
X1046260Y426345D01*
X1046240Y426360D01*
X1046147Y426388D01*
X1046055Y426423D01*
X1046022Y426426D01*
X1046006Y426431D01*
X1045982Y426430D01*
X1045908Y426437D01*
X988214Y426437D01*
X988118Y426421D01*
X988021Y426412D01*
X987998Y426402D01*
X987974Y426398D01*
X987888Y426352D01*
X987799Y426311D01*
X987773Y426290D01*
X987758Y426283D01*
X987741Y426264D01*
X987685Y426218D01*
X929792Y368325D01*
X929735Y368246D01*
X929673Y368171D01*
X929665Y368147D01*
X929650Y368127D01*
X929622Y368034D01*
X929587Y367943D01*
X929584Y367910D01*
X929579Y367894D01*
X929580Y367869D01*
X929573Y367796D01*
X929573Y318106D01*
X871894Y260427D01*
X868106Y260427D01*
G37*
%LPD*%
%LPC*%
G36*
X318608Y73285D02*
X318608Y73285D01*
X314781Y74871D01*
X311851Y77801D01*
X310265Y81628D01*
X310265Y85772D01*
X311851Y89599D01*
X314781Y92529D01*
X315644Y92887D01*
X315645Y92887D01*
X315733Y92942D01*
X315852Y93016D01*
X315923Y93102D01*
X316007Y93204D01*
X316007Y93205D01*
X316057Y93337D01*
X316093Y93432D01*
X316093Y93433D01*
X316093Y93434D01*
X316107Y93579D01*
X316107Y97574D01*
X326768Y108235D01*
X326825Y108314D01*
X326887Y108389D01*
X326895Y108413D01*
X326910Y108433D01*
X326938Y108526D01*
X326973Y108617D01*
X326976Y108650D01*
X326981Y108666D01*
X326980Y108691D01*
X326987Y108764D01*
X326987Y254431D01*
X326966Y254560D01*
X326948Y254671D01*
X326886Y254787D01*
X326833Y254886D01*
X326833Y254887D01*
X326763Y254952D01*
X326655Y255053D01*
X326654Y255054D01*
X326525Y255123D01*
X325661Y255481D01*
X322731Y258411D01*
X321145Y262238D01*
X321145Y266382D01*
X322731Y270209D01*
X325661Y273139D01*
X326524Y273497D01*
X326525Y273497D01*
X326613Y273552D01*
X326732Y273626D01*
X326807Y273717D01*
X326887Y273814D01*
X326887Y273815D01*
X326935Y273942D01*
X326973Y274042D01*
X326973Y274043D01*
X326973Y274044D01*
X326987Y274189D01*
X326987Y343454D01*
X329885Y346352D01*
X379878Y396345D01*
X379935Y396424D01*
X379997Y396499D01*
X380005Y396523D01*
X380020Y396543D01*
X380048Y396636D01*
X380083Y396727D01*
X380086Y396760D01*
X380091Y396776D01*
X380090Y396801D01*
X380097Y396874D01*
X380097Y402466D01*
X380081Y402562D01*
X380072Y402659D01*
X380062Y402682D01*
X380058Y402706D01*
X380012Y402792D01*
X379971Y402881D01*
X379950Y402907D01*
X379943Y402922D01*
X379924Y402939D01*
X379878Y402995D01*
X334652Y448221D01*
X334542Y448300D01*
X334455Y448363D01*
X334454Y448363D01*
X334343Y448397D01*
X334221Y448434D01*
X334096Y448430D01*
X333977Y448426D01*
X333976Y448426D01*
X333836Y448383D01*
X332972Y448025D01*
X328828Y448025D01*
X325001Y449611D01*
X322071Y452541D01*
X320485Y456368D01*
X320485Y460512D01*
X322071Y464339D01*
X325001Y467269D01*
X328828Y468855D01*
X332972Y468855D01*
X336799Y467269D01*
X339729Y464339D01*
X341315Y460512D01*
X341315Y456368D01*
X340957Y455504D01*
X340947Y455464D01*
X340943Y455455D01*
X340942Y455441D01*
X340926Y455374D01*
X340901Y455267D01*
X340914Y455135D01*
X340925Y455024D01*
X340980Y454904D01*
X341026Y454802D01*
X341026Y454801D01*
X341119Y454688D01*
X386345Y409462D01*
X386424Y409405D01*
X386499Y409343D01*
X386523Y409335D01*
X386543Y409320D01*
X386636Y409292D01*
X386727Y409257D01*
X386760Y409254D01*
X386776Y409249D01*
X386801Y409250D01*
X386874Y409243D01*
X392466Y409243D01*
X392562Y409259D01*
X392659Y409268D01*
X392682Y409278D01*
X392706Y409282D01*
X392792Y409328D01*
X392881Y409369D01*
X392907Y409390D01*
X392922Y409397D01*
X392939Y409416D01*
X392995Y409462D01*
X433106Y449573D01*
X586894Y449573D01*
X601293Y435174D01*
X601293Y421879D01*
X601319Y421722D01*
X601332Y421639D01*
X601332Y421638D01*
X601404Y421505D01*
X601447Y421424D01*
X601447Y421423D01*
X601539Y421338D01*
X601625Y421257D01*
X601625Y421256D01*
X601626Y421256D01*
X601755Y421187D01*
X602907Y420710D01*
X605980Y417637D01*
X607643Y413623D01*
X607643Y409277D01*
X605980Y405263D01*
X602907Y402190D01*
X598893Y400527D01*
X594547Y400527D01*
X590533Y402190D01*
X587460Y405263D01*
X585797Y409277D01*
X585797Y413623D01*
X587460Y417637D01*
X590533Y420710D01*
X591684Y421187D01*
X591685Y421187D01*
X591773Y421242D01*
X591892Y421315D01*
X591892Y421316D01*
X591953Y421390D01*
X592047Y421504D01*
X592096Y421636D01*
X592133Y421732D01*
X592133Y421733D01*
X592133Y421734D01*
X592147Y421879D01*
X592147Y431076D01*
X592131Y431172D01*
X592122Y431269D01*
X592112Y431292D01*
X592108Y431316D01*
X592062Y431402D01*
X592021Y431491D01*
X592000Y431517D01*
X591993Y431532D01*
X591974Y431549D01*
X591928Y431605D01*
X583325Y440208D01*
X583246Y440265D01*
X583171Y440327D01*
X583147Y440335D01*
X583127Y440350D01*
X583034Y440378D01*
X582943Y440413D01*
X582910Y440416D01*
X582894Y440421D01*
X582869Y440420D01*
X582796Y440427D01*
X437204Y440427D01*
X437108Y440411D01*
X437011Y440402D01*
X436988Y440392D01*
X436964Y440388D01*
X436878Y440342D01*
X436789Y440301D01*
X436763Y440280D01*
X436748Y440273D01*
X436731Y440254D01*
X436675Y440208D01*
X391675Y395208D01*
X389792Y393325D01*
X386675Y390208D01*
X336352Y339885D01*
X336295Y339806D01*
X336233Y339731D01*
X336225Y339707D01*
X336210Y339687D01*
X336182Y339594D01*
X336147Y339503D01*
X336144Y339470D01*
X336139Y339454D01*
X336140Y339429D01*
X336133Y339356D01*
X336133Y274189D01*
X336159Y274032D01*
X336172Y273949D01*
X336239Y273824D01*
X336287Y273734D01*
X336287Y273733D01*
X336376Y273650D01*
X336465Y273567D01*
X336466Y273566D01*
X336595Y273497D01*
X337459Y273139D01*
X340389Y270209D01*
X341975Y266382D01*
X341975Y262238D01*
X340389Y258411D01*
X337459Y255481D01*
X336596Y255123D01*
X336595Y255123D01*
X336507Y255068D01*
X336388Y254994D01*
X336300Y254887D01*
X336233Y254806D01*
X336233Y254805D01*
X336183Y254671D01*
X336147Y254578D01*
X336147Y254577D01*
X336147Y254576D01*
X336133Y254431D01*
X336133Y125644D01*
X336149Y125548D01*
X336158Y125451D01*
X336168Y125428D01*
X336172Y125404D01*
X336218Y125318D01*
X336259Y125229D01*
X336280Y125203D01*
X336287Y125188D01*
X336306Y125171D01*
X336352Y125115D01*
X341675Y119792D01*
X341754Y119735D01*
X341829Y119673D01*
X341853Y119665D01*
X341873Y119650D01*
X341966Y119622D01*
X342057Y119587D01*
X342090Y119584D01*
X342106Y119579D01*
X342131Y119580D01*
X342204Y119573D01*
X656606Y119573D01*
X656702Y119589D01*
X656799Y119598D01*
X656822Y119608D01*
X656846Y119612D01*
X656932Y119658D01*
X657021Y119699D01*
X657047Y119720D01*
X657062Y119727D01*
X657079Y119746D01*
X657135Y119792D01*
X683149Y145805D01*
X683223Y145909D01*
X683291Y146003D01*
X683291Y146004D01*
X683313Y146076D01*
X683362Y146237D01*
X683358Y146351D01*
X683354Y146481D01*
X683353Y146482D01*
X683311Y146622D01*
X683279Y146699D01*
X683279Y150289D01*
X684653Y153606D01*
X687192Y156145D01*
X690509Y157519D01*
X694099Y157519D01*
X697416Y156145D01*
X699955Y153606D01*
X701329Y150289D01*
X701329Y146699D01*
X699955Y143382D01*
X697416Y140843D01*
X694099Y139469D01*
X690509Y139469D01*
X690433Y139501D01*
X690432Y139501D01*
X690330Y139525D01*
X690195Y139556D01*
X690194Y139557D01*
X690068Y139544D01*
X689952Y139533D01*
X689824Y139475D01*
X689730Y139432D01*
X689729Y139432D01*
X689729Y139431D01*
X689615Y139339D01*
X663602Y113325D01*
X660704Y110427D01*
X342204Y110427D01*
X342108Y110411D01*
X342011Y110402D01*
X341988Y110392D01*
X341964Y110388D01*
X341878Y110342D01*
X341789Y110301D01*
X341763Y110280D01*
X341748Y110273D01*
X341731Y110254D01*
X341675Y110208D01*
X334175Y102708D01*
X325546Y94079D01*
X325517Y94039D01*
X325481Y94005D01*
X325446Y93940D01*
X325403Y93880D01*
X325389Y93833D01*
X325366Y93790D01*
X325354Y93717D01*
X325333Y93647D01*
X325334Y93598D01*
X325326Y93549D01*
X325338Y93477D01*
X325340Y93403D01*
X325358Y93357D01*
X325366Y93309D01*
X325400Y93244D01*
X325426Y93175D01*
X325457Y93137D01*
X325480Y93093D01*
X325534Y93043D01*
X325581Y92986D01*
X325623Y92960D01*
X325658Y92926D01*
X325787Y92857D01*
X325788Y92857D01*
X325789Y92857D01*
X326579Y92529D01*
X329509Y89599D01*
X331095Y85772D01*
X331095Y81628D01*
X329509Y77801D01*
X326579Y74871D01*
X322752Y73285D01*
X318608Y73285D01*
G37*
%LPD*%
%LPC*%
G36*
X639709Y139469D02*
X639709Y139469D01*
X636392Y140843D01*
X633853Y143382D01*
X632479Y146699D01*
X632479Y150289D01*
X633853Y153606D01*
X635696Y155449D01*
X635753Y155528D01*
X635815Y155603D01*
X635823Y155627D01*
X635838Y155647D01*
X635866Y155740D01*
X635901Y155832D01*
X635904Y155865D01*
X635909Y155881D01*
X635908Y155905D01*
X635915Y155979D01*
X635915Y167616D01*
X636766Y169670D01*
X721834Y254738D01*
X723888Y255589D01*
X1062253Y255589D01*
X1062349Y255605D01*
X1062446Y255614D01*
X1062469Y255624D01*
X1062493Y255628D01*
X1062580Y255674D01*
X1062668Y255715D01*
X1062694Y255736D01*
X1062709Y255743D01*
X1062726Y255762D01*
X1062783Y255808D01*
X1174192Y367217D01*
X1174249Y367297D01*
X1174311Y367372D01*
X1174319Y367395D01*
X1174334Y367416D01*
X1174362Y367509D01*
X1174397Y367600D01*
X1174400Y367633D01*
X1174405Y367649D01*
X1174404Y367674D01*
X1174411Y367747D01*
X1174411Y373905D01*
X1174395Y374001D01*
X1174386Y374098D01*
X1174376Y374121D01*
X1174372Y374145D01*
X1174326Y374231D01*
X1174285Y374320D01*
X1174264Y374346D01*
X1174257Y374361D01*
X1174238Y374378D01*
X1174192Y374434D01*
X1173109Y375517D01*
X1171871Y378505D01*
X1171871Y381739D01*
X1173109Y384727D01*
X1175395Y387013D01*
X1178383Y388251D01*
X1181617Y388251D01*
X1184605Y387013D01*
X1186891Y384727D01*
X1188129Y381739D01*
X1188129Y378505D01*
X1186891Y375517D01*
X1185808Y374434D01*
X1185751Y374355D01*
X1185689Y374280D01*
X1185681Y374256D01*
X1185666Y374236D01*
X1185638Y374143D01*
X1185603Y374052D01*
X1185600Y374019D01*
X1185595Y374003D01*
X1185596Y373978D01*
X1185589Y373905D01*
X1185589Y368437D01*
X1185605Y368340D01*
X1185614Y368243D01*
X1185624Y368221D01*
X1185628Y368196D01*
X1185675Y368110D01*
X1185715Y368021D01*
X1185732Y368003D01*
X1185743Y367981D01*
X1185815Y367914D01*
X1185882Y367843D01*
X1185903Y367831D01*
X1185921Y367814D01*
X1186010Y367774D01*
X1186097Y367728D01*
X1186121Y367724D01*
X1186144Y367713D01*
X1186241Y367704D01*
X1186337Y367688D01*
X1186362Y367692D01*
X1186387Y367689D01*
X1186482Y367711D01*
X1186578Y367727D01*
X1186600Y367739D01*
X1186624Y367745D01*
X1186707Y367796D01*
X1186794Y367842D01*
X1186810Y367860D01*
X1186832Y367873D01*
X1186894Y367949D01*
X1186961Y368020D01*
X1186976Y368049D01*
X1186986Y368062D01*
X1186995Y368085D01*
X1187030Y368150D01*
X1188135Y370817D01*
X1191083Y373765D01*
X1194934Y375360D01*
X1199102Y375360D01*
X1202953Y373765D01*
X1205901Y370817D01*
X1207496Y366966D01*
X1207496Y362798D01*
X1205901Y358947D01*
X1202953Y355999D01*
X1199102Y354404D01*
X1194934Y354404D01*
X1191083Y355999D01*
X1188135Y358947D01*
X1186505Y362881D01*
X1186467Y362943D01*
X1186436Y363010D01*
X1186403Y363046D01*
X1186376Y363088D01*
X1186320Y363135D01*
X1186270Y363188D01*
X1186226Y363212D01*
X1186188Y363243D01*
X1186119Y363269D01*
X1186054Y363304D01*
X1186006Y363312D01*
X1185960Y363329D01*
X1185886Y363331D01*
X1185814Y363343D01*
X1185765Y363335D01*
X1185716Y363337D01*
X1185645Y363316D01*
X1185573Y363304D01*
X1185529Y363281D01*
X1185482Y363266D01*
X1185422Y363224D01*
X1185358Y363189D01*
X1185324Y363153D01*
X1185284Y363124D01*
X1185241Y363065D01*
X1185191Y363011D01*
X1185156Y362946D01*
X1185141Y362926D01*
X1185137Y362910D01*
X1185121Y362881D01*
X1184738Y361956D01*
X1068044Y245262D01*
X1065990Y244411D01*
X727625Y244411D01*
X727529Y244395D01*
X727432Y244386D01*
X727409Y244376D01*
X727385Y244372D01*
X727298Y244326D01*
X727210Y244285D01*
X727184Y244264D01*
X727169Y244257D01*
X727152Y244238D01*
X727095Y244192D01*
X647312Y164409D01*
X647255Y164329D01*
X647193Y164254D01*
X647185Y164231D01*
X647170Y164210D01*
X647142Y164117D01*
X647107Y164026D01*
X647104Y163993D01*
X647099Y163977D01*
X647100Y163952D01*
X647093Y163879D01*
X647093Y155979D01*
X647109Y155882D01*
X647118Y155785D01*
X647128Y155763D01*
X647132Y155738D01*
X647178Y155652D01*
X647219Y155563D01*
X647240Y155537D01*
X647247Y155523D01*
X647266Y155506D01*
X647312Y155449D01*
X649155Y153606D01*
X650529Y150289D01*
X650529Y146699D01*
X649155Y143382D01*
X646616Y140843D01*
X643299Y139469D01*
X639709Y139469D01*
G37*
%LPD*%
%LPC*%
G36*
X729488Y62595D02*
X729488Y62595D01*
X728595Y63488D01*
X728595Y78752D01*
X729488Y79645D01*
X737752Y79645D01*
X738340Y79056D01*
X738360Y79042D01*
X738376Y79023D01*
X738459Y78971D01*
X738539Y78914D01*
X738562Y78907D01*
X738583Y78894D01*
X738678Y78872D01*
X738772Y78843D01*
X738797Y78844D01*
X738820Y78838D01*
X738918Y78848D01*
X739016Y78851D01*
X739039Y78860D01*
X739063Y78862D01*
X739153Y78902D01*
X739244Y78937D01*
X739263Y78952D01*
X739286Y78962D01*
X739400Y79056D01*
X739988Y79645D01*
X744331Y79645D01*
X744333Y79644D01*
X744428Y79622D01*
X744522Y79593D01*
X744546Y79594D01*
X744570Y79588D01*
X744668Y79598D01*
X744766Y79601D01*
X744789Y79610D01*
X744813Y79612D01*
X744886Y79645D01*
X749331Y79645D01*
X749333Y79644D01*
X749428Y79622D01*
X749522Y79593D01*
X749546Y79594D01*
X749570Y79588D01*
X749668Y79598D01*
X749766Y79601D01*
X749789Y79610D01*
X749813Y79612D01*
X749886Y79645D01*
X753416Y79645D01*
X753440Y79649D01*
X753465Y79646D01*
X753560Y79668D01*
X753657Y79684D01*
X753678Y79696D01*
X753702Y79702D01*
X753786Y79753D01*
X753872Y79799D01*
X753889Y79817D01*
X753910Y79830D01*
X753972Y79906D01*
X754039Y79977D01*
X754049Y80000D01*
X754065Y80019D01*
X754099Y80110D01*
X754140Y80200D01*
X754142Y80224D01*
X754151Y80247D01*
X754165Y80394D01*
X754165Y92336D01*
X794354Y132525D01*
X863644Y132525D01*
X863740Y132541D01*
X863837Y132550D01*
X863860Y132560D01*
X863885Y132564D01*
X863971Y132610D01*
X864059Y132651D01*
X864085Y132672D01*
X864100Y132679D01*
X864117Y132698D01*
X864174Y132744D01*
X867360Y135930D01*
X867417Y136010D01*
X867479Y136085D01*
X867487Y136108D01*
X867502Y136129D01*
X867530Y136222D01*
X867565Y136313D01*
X867568Y136346D01*
X867573Y136362D01*
X867572Y136387D01*
X867579Y136460D01*
X867579Y139271D01*
X867561Y139381D01*
X867540Y139511D01*
X867540Y139512D01*
X867478Y139627D01*
X867425Y139726D01*
X867425Y139727D01*
X867341Y139805D01*
X867247Y139893D01*
X867247Y139894D01*
X867246Y139894D01*
X867117Y139963D01*
X864992Y140843D01*
X862453Y143382D01*
X861079Y146699D01*
X861079Y150289D01*
X862453Y153606D01*
X864992Y156145D01*
X865069Y156177D01*
X865169Y156239D01*
X865276Y156305D01*
X865355Y156402D01*
X865431Y156494D01*
X865477Y156617D01*
X865517Y156722D01*
X865517Y156723D01*
X865531Y156869D01*
X865531Y232720D01*
X865515Y232816D01*
X865506Y232913D01*
X865496Y232936D01*
X865492Y232961D01*
X865461Y233018D01*
X865461Y233020D01*
X865455Y233028D01*
X865447Y233043D01*
X865447Y236886D01*
X868114Y239553D01*
X871914Y239553D01*
X874677Y236790D01*
X874677Y156869D01*
X874701Y156722D01*
X874716Y156629D01*
X874716Y156628D01*
X874773Y156522D01*
X874831Y156413D01*
X874914Y156336D01*
X875009Y156246D01*
X875010Y156246D01*
X875139Y156177D01*
X875216Y156145D01*
X877755Y153606D01*
X879129Y150289D01*
X879129Y146699D01*
X877755Y143382D01*
X875216Y140843D01*
X873092Y139963D01*
X873091Y139963D01*
X873003Y139908D01*
X872884Y139835D01*
X872884Y139834D01*
X872809Y139743D01*
X872729Y139646D01*
X872675Y139501D01*
X872643Y139418D01*
X872643Y139417D01*
X872643Y139416D01*
X872629Y139271D01*
X872629Y134058D01*
X866046Y127475D01*
X796756Y127475D01*
X796660Y127459D01*
X796563Y127450D01*
X796540Y127440D01*
X796515Y127436D01*
X796429Y127390D01*
X796341Y127349D01*
X796315Y127328D01*
X796300Y127321D01*
X796283Y127302D01*
X796226Y127256D01*
X784864Y115894D01*
X784807Y115814D01*
X784745Y115739D01*
X784737Y115716D01*
X784722Y115695D01*
X784694Y115602D01*
X784659Y115511D01*
X784656Y115478D01*
X784651Y115462D01*
X784652Y115437D01*
X784645Y115364D01*
X784645Y80394D01*
X784649Y80370D01*
X784646Y80345D01*
X784668Y80250D01*
X784684Y80153D01*
X784696Y80132D01*
X784702Y80108D01*
X784753Y80024D01*
X784799Y79938D01*
X784817Y79921D01*
X784830Y79900D01*
X784906Y79838D01*
X784977Y79771D01*
X785000Y79761D01*
X785019Y79745D01*
X785110Y79711D01*
X785200Y79670D01*
X785224Y79668D01*
X785247Y79659D01*
X785394Y79645D01*
X789331Y79645D01*
X789333Y79644D01*
X789428Y79622D01*
X789522Y79593D01*
X789546Y79594D01*
X789570Y79588D01*
X789668Y79598D01*
X789766Y79601D01*
X789789Y79610D01*
X789813Y79612D01*
X789886Y79645D01*
X794331Y79645D01*
X794333Y79644D01*
X794428Y79622D01*
X794522Y79593D01*
X794546Y79594D01*
X794570Y79588D01*
X794668Y79598D01*
X794766Y79601D01*
X794789Y79610D01*
X794813Y79612D01*
X794886Y79645D01*
X799252Y79645D01*
X799840Y79056D01*
X799860Y79042D01*
X799876Y79023D01*
X799959Y78971D01*
X800039Y78914D01*
X800062Y78907D01*
X800083Y78894D01*
X800178Y78872D01*
X800272Y78843D01*
X800296Y78844D01*
X800320Y78838D01*
X800418Y78848D01*
X800516Y78851D01*
X800539Y78860D01*
X800563Y78862D01*
X800653Y78902D01*
X800744Y78937D01*
X800763Y78952D01*
X800786Y78962D01*
X800900Y79056D01*
X801488Y79645D01*
X809752Y79645D01*
X810645Y78752D01*
X810645Y63488D01*
X809752Y62595D01*
X801488Y62595D01*
X800900Y63184D01*
X800880Y63198D01*
X800864Y63217D01*
X800802Y63256D01*
X800745Y63302D01*
X800722Y63311D01*
X800701Y63326D01*
X800678Y63333D01*
X800657Y63346D01*
X800585Y63363D01*
X800517Y63389D01*
X800484Y63392D01*
X800468Y63397D01*
X800443Y63396D01*
X800420Y63402D01*
X800402Y63400D01*
X800370Y63403D01*
X800298Y63391D01*
X800224Y63389D01*
X800201Y63380D01*
X800177Y63378D01*
X800154Y63368D01*
X800129Y63364D01*
X800065Y63329D01*
X799996Y63303D01*
X799977Y63288D01*
X799954Y63278D01*
X799929Y63256D01*
X799914Y63249D01*
X799897Y63230D01*
X799840Y63184D01*
X799252Y62595D01*
X794909Y62595D01*
X794907Y62596D01*
X794811Y62619D01*
X794718Y62647D01*
X794693Y62646D01*
X794669Y62652D01*
X794572Y62642D01*
X794474Y62639D01*
X794451Y62630D01*
X794427Y62628D01*
X794354Y62595D01*
X789909Y62595D01*
X789907Y62596D01*
X789811Y62619D01*
X789718Y62647D01*
X789693Y62646D01*
X789669Y62652D01*
X789572Y62642D01*
X789474Y62639D01*
X789451Y62630D01*
X789427Y62628D01*
X789354Y62595D01*
X784909Y62595D01*
X784907Y62596D01*
X784811Y62619D01*
X784718Y62647D01*
X784693Y62646D01*
X784669Y62652D01*
X784572Y62642D01*
X784474Y62639D01*
X784451Y62630D01*
X784427Y62628D01*
X784354Y62595D01*
X779909Y62595D01*
X779907Y62596D01*
X779811Y62619D01*
X779718Y62647D01*
X779693Y62646D01*
X779669Y62652D01*
X779572Y62642D01*
X779474Y62639D01*
X779451Y62630D01*
X779427Y62628D01*
X779354Y62595D01*
X774909Y62595D01*
X774907Y62596D01*
X774811Y62619D01*
X774718Y62647D01*
X774693Y62646D01*
X774669Y62652D01*
X774572Y62642D01*
X774474Y62639D01*
X774451Y62630D01*
X774427Y62628D01*
X774354Y62595D01*
X769909Y62595D01*
X769907Y62596D01*
X769811Y62619D01*
X769718Y62647D01*
X769693Y62646D01*
X769669Y62652D01*
X769572Y62642D01*
X769474Y62639D01*
X769451Y62630D01*
X769427Y62628D01*
X769354Y62595D01*
X764909Y62595D01*
X764907Y62596D01*
X764811Y62619D01*
X764718Y62647D01*
X764693Y62646D01*
X764669Y62652D01*
X764572Y62642D01*
X764474Y62639D01*
X764451Y62630D01*
X764427Y62628D01*
X764354Y62595D01*
X759909Y62595D01*
X759907Y62596D01*
X759811Y62619D01*
X759718Y62647D01*
X759693Y62646D01*
X759669Y62652D01*
X759572Y62642D01*
X759474Y62639D01*
X759451Y62630D01*
X759427Y62628D01*
X759354Y62595D01*
X754909Y62595D01*
X754907Y62596D01*
X754811Y62619D01*
X754718Y62647D01*
X754693Y62646D01*
X754669Y62652D01*
X754572Y62642D01*
X754474Y62639D01*
X754451Y62630D01*
X754427Y62628D01*
X754354Y62595D01*
X749909Y62595D01*
X749907Y62596D01*
X749811Y62619D01*
X749718Y62647D01*
X749693Y62646D01*
X749669Y62652D01*
X749572Y62642D01*
X749474Y62639D01*
X749451Y62630D01*
X749427Y62628D01*
X749354Y62595D01*
X744909Y62595D01*
X744907Y62596D01*
X744811Y62619D01*
X744718Y62647D01*
X744693Y62646D01*
X744669Y62652D01*
X744572Y62642D01*
X744474Y62639D01*
X744451Y62630D01*
X744427Y62628D01*
X744354Y62595D01*
X739988Y62595D01*
X739400Y63184D01*
X739380Y63198D01*
X739364Y63217D01*
X739302Y63256D01*
X739245Y63302D01*
X739222Y63311D01*
X739201Y63326D01*
X739178Y63333D01*
X739157Y63346D01*
X739085Y63363D01*
X739017Y63389D01*
X738985Y63392D01*
X738968Y63397D01*
X738944Y63396D01*
X738920Y63402D01*
X738902Y63400D01*
X738870Y63403D01*
X738798Y63391D01*
X738724Y63389D01*
X738701Y63380D01*
X738677Y63378D01*
X738654Y63368D01*
X738629Y63364D01*
X738565Y63329D01*
X738496Y63303D01*
X738477Y63288D01*
X738454Y63278D01*
X738429Y63256D01*
X738414Y63249D01*
X738397Y63230D01*
X738340Y63184D01*
X737752Y62595D01*
X729488Y62595D01*
G37*
%LPD*%
%LPC*%
G36*
X946618Y570725D02*
X946618Y570725D01*
X945725Y571618D01*
X945725Y598382D01*
X946618Y599275D01*
X973382Y599275D01*
X974275Y598382D01*
X974275Y593624D01*
X974279Y593600D01*
X974276Y593575D01*
X974298Y593480D01*
X974314Y593383D01*
X974326Y593362D01*
X974332Y593338D01*
X974383Y593254D01*
X974429Y593168D01*
X974447Y593151D01*
X974460Y593130D01*
X974536Y593068D01*
X974607Y593001D01*
X974630Y592991D01*
X974649Y592975D01*
X974740Y592941D01*
X974830Y592900D01*
X974854Y592898D01*
X974877Y592889D01*
X975024Y592875D01*
X1011028Y592875D01*
X1011124Y592891D01*
X1011221Y592900D01*
X1011244Y592910D01*
X1011269Y592914D01*
X1011355Y592960D01*
X1011443Y593001D01*
X1011469Y593022D01*
X1011484Y593029D01*
X1011501Y593048D01*
X1011558Y593094D01*
X1054606Y636142D01*
X1054663Y636222D01*
X1054725Y636297D01*
X1054733Y636320D01*
X1054748Y636341D01*
X1054776Y636434D01*
X1054811Y636525D01*
X1054814Y636558D01*
X1054819Y636574D01*
X1054818Y636599D01*
X1054825Y636672D01*
X1054825Y636944D01*
X1056313Y640537D01*
X1059063Y643287D01*
X1062656Y644775D01*
X1066544Y644775D01*
X1070137Y643287D01*
X1072887Y640537D01*
X1074375Y636944D01*
X1074375Y633056D01*
X1072887Y629463D01*
X1070137Y626713D01*
X1066544Y625225D01*
X1066272Y625225D01*
X1066176Y625209D01*
X1066079Y625200D01*
X1066056Y625190D01*
X1066031Y625186D01*
X1065945Y625140D01*
X1065857Y625099D01*
X1065831Y625078D01*
X1065816Y625071D01*
X1065799Y625052D01*
X1065742Y625006D01*
X1019061Y578324D01*
X1016166Y577125D01*
X975024Y577125D01*
X975000Y577121D01*
X974975Y577124D01*
X974880Y577102D01*
X974783Y577086D01*
X974762Y577074D01*
X974738Y577068D01*
X974654Y577017D01*
X974568Y576971D01*
X974551Y576953D01*
X974530Y576940D01*
X974468Y576864D01*
X974401Y576793D01*
X974391Y576770D01*
X974375Y576751D01*
X974341Y576660D01*
X974300Y576570D01*
X974298Y576546D01*
X974289Y576523D01*
X974275Y576376D01*
X974275Y571618D01*
X973382Y570725D01*
X946618Y570725D01*
G37*
%LPD*%
G36*
X1123640Y423902D02*
X1123640Y423902D01*
X1123659Y423900D01*
X1123761Y423922D01*
X1123863Y423939D01*
X1123880Y423948D01*
X1123900Y423952D01*
X1123989Y424005D01*
X1124080Y424054D01*
X1124094Y424068D01*
X1124111Y424078D01*
X1124178Y424157D01*
X1124250Y424232D01*
X1124258Y424250D01*
X1124271Y424265D01*
X1124310Y424361D01*
X1124353Y424455D01*
X1124355Y424475D01*
X1124363Y424493D01*
X1124381Y424660D01*
X1124381Y444980D01*
X1124378Y445000D01*
X1124380Y445019D01*
X1124358Y445121D01*
X1124342Y445223D01*
X1124332Y445240D01*
X1124328Y445260D01*
X1124275Y445349D01*
X1124226Y445440D01*
X1124212Y445454D01*
X1124202Y445471D01*
X1124123Y445538D01*
X1124048Y445610D01*
X1124030Y445618D01*
X1124015Y445631D01*
X1123919Y445670D01*
X1123825Y445713D01*
X1123805Y445715D01*
X1123787Y445723D01*
X1123620Y445741D01*
X1068055Y445741D01*
X1063421Y450375D01*
X1063421Y452601D01*
X1063418Y452621D01*
X1063420Y452640D01*
X1063398Y452742D01*
X1063382Y452844D01*
X1063372Y452861D01*
X1063368Y452881D01*
X1063315Y452970D01*
X1063266Y453061D01*
X1063252Y453075D01*
X1063242Y453092D01*
X1063163Y453159D01*
X1063088Y453231D01*
X1063070Y453239D01*
X1063055Y453252D01*
X1062959Y453291D01*
X1062865Y453334D01*
X1062845Y453336D01*
X1062827Y453344D01*
X1062660Y453362D01*
X1059920Y453362D01*
X1059877Y453355D01*
X1059833Y453357D01*
X1059756Y453335D01*
X1059678Y453323D01*
X1059639Y453302D01*
X1059597Y453290D01*
X1059531Y453245D01*
X1059460Y453207D01*
X1059430Y453176D01*
X1059394Y453151D01*
X1059346Y453087D01*
X1059291Y453029D01*
X1059272Y452989D01*
X1059246Y452954D01*
X1059193Y452818D01*
X1059187Y452806D01*
X1059187Y452803D01*
X1059185Y452798D01*
X1059108Y452509D01*
X1058773Y451930D01*
X1058300Y451457D01*
X1057721Y451122D01*
X1057074Y450949D01*
X1053985Y450949D01*
X1053985Y460728D01*
X1053982Y460748D01*
X1053984Y460767D01*
X1053962Y460869D01*
X1053945Y460971D01*
X1053936Y460988D01*
X1053932Y461008D01*
X1053879Y461097D01*
X1053830Y461188D01*
X1053816Y461202D01*
X1053806Y461219D01*
X1053727Y461286D01*
X1053652Y461357D01*
X1053634Y461366D01*
X1053619Y461379D01*
X1053523Y461418D01*
X1053429Y461461D01*
X1053409Y461463D01*
X1053391Y461471D01*
X1053224Y461489D01*
X1052461Y461489D01*
X1052461Y461491D01*
X1053224Y461491D01*
X1053244Y461494D01*
X1053263Y461492D01*
X1053365Y461514D01*
X1053467Y461531D01*
X1053484Y461540D01*
X1053504Y461544D01*
X1053593Y461597D01*
X1053684Y461646D01*
X1053698Y461660D01*
X1053715Y461670D01*
X1053782Y461749D01*
X1053853Y461824D01*
X1053862Y461842D01*
X1053875Y461857D01*
X1053914Y461953D01*
X1053957Y462047D01*
X1053959Y462067D01*
X1053967Y462085D01*
X1053985Y462252D01*
X1053985Y472031D01*
X1057074Y472031D01*
X1057721Y471858D01*
X1058300Y471523D01*
X1058773Y471050D01*
X1059108Y470471D01*
X1059185Y470182D01*
X1059203Y470142D01*
X1059212Y470099D01*
X1059253Y470031D01*
X1059286Y469958D01*
X1059316Y469926D01*
X1059338Y469888D01*
X1059399Y469836D01*
X1059454Y469778D01*
X1059492Y469757D01*
X1059525Y469728D01*
X1059600Y469698D01*
X1059670Y469660D01*
X1059713Y469653D01*
X1059754Y469636D01*
X1059898Y469620D01*
X1059912Y469618D01*
X1059915Y469618D01*
X1059920Y469618D01*
X1062660Y469618D01*
X1062680Y469621D01*
X1062699Y469619D01*
X1062801Y469641D01*
X1062903Y469657D01*
X1062920Y469667D01*
X1062940Y469671D01*
X1063029Y469724D01*
X1063120Y469773D01*
X1063134Y469787D01*
X1063151Y469797D01*
X1063218Y469876D01*
X1063290Y469951D01*
X1063298Y469969D01*
X1063311Y469984D01*
X1063350Y470080D01*
X1063393Y470174D01*
X1063395Y470194D01*
X1063403Y470212D01*
X1063421Y470379D01*
X1063421Y475461D01*
X1063418Y475481D01*
X1063420Y475500D01*
X1063398Y475602D01*
X1063382Y475704D01*
X1063372Y475721D01*
X1063368Y475741D01*
X1063315Y475830D01*
X1063266Y475921D01*
X1063252Y475935D01*
X1063242Y475952D01*
X1063163Y476019D01*
X1063088Y476091D01*
X1063070Y476099D01*
X1063055Y476112D01*
X1062959Y476151D01*
X1062865Y476194D01*
X1062845Y476196D01*
X1062827Y476204D01*
X1062660Y476222D01*
X1059920Y476222D01*
X1059877Y476215D01*
X1059833Y476217D01*
X1059756Y476195D01*
X1059677Y476183D01*
X1059639Y476162D01*
X1059597Y476150D01*
X1059531Y476105D01*
X1059460Y476067D01*
X1059430Y476036D01*
X1059394Y476011D01*
X1059346Y475947D01*
X1059291Y475889D01*
X1059272Y475849D01*
X1059246Y475814D01*
X1059193Y475679D01*
X1059187Y475666D01*
X1059187Y475663D01*
X1059185Y475658D01*
X1059108Y475369D01*
X1058773Y474790D01*
X1058300Y474317D01*
X1057721Y473982D01*
X1057074Y473809D01*
X1053985Y473809D01*
X1053985Y483588D01*
X1053982Y483608D01*
X1053984Y483627D01*
X1053962Y483729D01*
X1053945Y483831D01*
X1053936Y483848D01*
X1053932Y483868D01*
X1053879Y483957D01*
X1053830Y484048D01*
X1053816Y484062D01*
X1053806Y484079D01*
X1053727Y484146D01*
X1053652Y484217D01*
X1053634Y484226D01*
X1053619Y484239D01*
X1053523Y484278D01*
X1053429Y484321D01*
X1053409Y484323D01*
X1053391Y484331D01*
X1053224Y484349D01*
X1052461Y484349D01*
X1052461Y484351D01*
X1053224Y484351D01*
X1053244Y484354D01*
X1053263Y484352D01*
X1053365Y484374D01*
X1053467Y484391D01*
X1053484Y484400D01*
X1053504Y484404D01*
X1053593Y484457D01*
X1053684Y484506D01*
X1053698Y484520D01*
X1053715Y484530D01*
X1053782Y484609D01*
X1053853Y484684D01*
X1053862Y484702D01*
X1053875Y484717D01*
X1053914Y484813D01*
X1053957Y484907D01*
X1053959Y484927D01*
X1053967Y484945D01*
X1053985Y485112D01*
X1053985Y494798D01*
X1053982Y494818D01*
X1053984Y494837D01*
X1053962Y494939D01*
X1053945Y495041D01*
X1053936Y495058D01*
X1053932Y495078D01*
X1053879Y495167D01*
X1053830Y495258D01*
X1053816Y495272D01*
X1053806Y495289D01*
X1053727Y495356D01*
X1053652Y495428D01*
X1053634Y495436D01*
X1053619Y495449D01*
X1053523Y495488D01*
X1053461Y495516D01*
X1053461Y499879D01*
X1060439Y499879D01*
X1060439Y495559D01*
X1059596Y495559D01*
X1058962Y495729D01*
X1058938Y495732D01*
X1058915Y495740D01*
X1058888Y495741D01*
X1058871Y495746D01*
X1058805Y495745D01*
X1058717Y495754D01*
X1058693Y495748D01*
X1058669Y495749D01*
X1058640Y495740D01*
X1058625Y495740D01*
X1058569Y495720D01*
X1058477Y495699D01*
X1058457Y495686D01*
X1058433Y495679D01*
X1058406Y495660D01*
X1058394Y495656D01*
X1058352Y495622D01*
X1058268Y495570D01*
X1058252Y495551D01*
X1058232Y495538D01*
X1058211Y495509D01*
X1058202Y495502D01*
X1058175Y495459D01*
X1058173Y495458D01*
X1058110Y495382D01*
X1058101Y495359D01*
X1058086Y495339D01*
X1058076Y495305D01*
X1058069Y495295D01*
X1058056Y495245D01*
X1058020Y495152D01*
X1058019Y495128D01*
X1058012Y495105D01*
X1058012Y495070D01*
X1058009Y495056D01*
X1058013Y495003D01*
X1058009Y494907D01*
X1058015Y494883D01*
X1058016Y494859D01*
X1058027Y494827D01*
X1058028Y494811D01*
X1058051Y494757D01*
X1058076Y494670D01*
X1058090Y494650D01*
X1058098Y494627D01*
X1058117Y494603D01*
X1058124Y494585D01*
X1058194Y494498D01*
X1058215Y494467D01*
X1058224Y494461D01*
X1058229Y494454D01*
X1058249Y494435D01*
X1058249Y494434D01*
X1058250Y494433D01*
X1058773Y493910D01*
X1059108Y493331D01*
X1059185Y493042D01*
X1059203Y493002D01*
X1059212Y492959D01*
X1059253Y492891D01*
X1059286Y492818D01*
X1059316Y492786D01*
X1059338Y492748D01*
X1059399Y492696D01*
X1059454Y492638D01*
X1059492Y492617D01*
X1059525Y492588D01*
X1059600Y492558D01*
X1059670Y492520D01*
X1059713Y492513D01*
X1059754Y492496D01*
X1059898Y492480D01*
X1059912Y492478D01*
X1059915Y492478D01*
X1059920Y492478D01*
X1062660Y492478D01*
X1062680Y492481D01*
X1062699Y492479D01*
X1062801Y492501D01*
X1062903Y492517D01*
X1062920Y492527D01*
X1062940Y492531D01*
X1063029Y492584D01*
X1063120Y492633D01*
X1063134Y492647D01*
X1063151Y492657D01*
X1063218Y492736D01*
X1063290Y492811D01*
X1063298Y492829D01*
X1063311Y492844D01*
X1063350Y492940D01*
X1063393Y493034D01*
X1063395Y493054D01*
X1063403Y493072D01*
X1063421Y493239D01*
X1063421Y494798D01*
X1063418Y494818D01*
X1063420Y494837D01*
X1063398Y494939D01*
X1063382Y495041D01*
X1063372Y495058D01*
X1063368Y495078D01*
X1063315Y495167D01*
X1063266Y495258D01*
X1063252Y495272D01*
X1063242Y495289D01*
X1063163Y495356D01*
X1063088Y495428D01*
X1063070Y495436D01*
X1063055Y495449D01*
X1062959Y495488D01*
X1062865Y495531D01*
X1062845Y495533D01*
X1062827Y495541D01*
X1062660Y495559D01*
X1061961Y495559D01*
X1061961Y500640D01*
X1061958Y500659D01*
X1061960Y500679D01*
X1061938Y500780D01*
X1061922Y500882D01*
X1061912Y500900D01*
X1061908Y500919D01*
X1061855Y501009D01*
X1061807Y501100D01*
X1061806Y501100D01*
X1061792Y501114D01*
X1061782Y501131D01*
X1061781Y501131D01*
X1061703Y501198D01*
X1061628Y501270D01*
X1061610Y501278D01*
X1061595Y501291D01*
X1061498Y501330D01*
X1061405Y501373D01*
X1061385Y501375D01*
X1061366Y501383D01*
X1061200Y501401D01*
X1052700Y501401D01*
X1044200Y501401D01*
X1044181Y501398D01*
X1044161Y501400D01*
X1044060Y501378D01*
X1043958Y501362D01*
X1043940Y501352D01*
X1043921Y501348D01*
X1043831Y501295D01*
X1043740Y501247D01*
X1043740Y501246D01*
X1043726Y501232D01*
X1043709Y501222D01*
X1043709Y501221D01*
X1043642Y501143D01*
X1043570Y501068D01*
X1043562Y501050D01*
X1043549Y501035D01*
X1043510Y500938D01*
X1043467Y500845D01*
X1043465Y500825D01*
X1043457Y500806D01*
X1043439Y500640D01*
X1043439Y495559D01*
X1042596Y495559D01*
X1042537Y495575D01*
X1042419Y495587D01*
X1042301Y495600D01*
X1042297Y495599D01*
X1042292Y495599D01*
X1042178Y495573D01*
X1042060Y495548D01*
X1042057Y495545D01*
X1042053Y495545D01*
X1041951Y495483D01*
X1041849Y495421D01*
X1041846Y495418D01*
X1041843Y495416D01*
X1041766Y495324D01*
X1041689Y495235D01*
X1041688Y495231D01*
X1041685Y495228D01*
X1041642Y495118D01*
X1041597Y495006D01*
X1041597Y495001D01*
X1041596Y494998D01*
X1041595Y494985D01*
X1041579Y494840D01*
X1041579Y433550D01*
X1041594Y433460D01*
X1041601Y433369D01*
X1041613Y433339D01*
X1041619Y433307D01*
X1041661Y433227D01*
X1041697Y433143D01*
X1041723Y433111D01*
X1041734Y433090D01*
X1041757Y433068D01*
X1041802Y433012D01*
X1050692Y424122D01*
X1050766Y424069D01*
X1050835Y424009D01*
X1050865Y423997D01*
X1050891Y423978D01*
X1050978Y423951D01*
X1051063Y423917D01*
X1051104Y423913D01*
X1051127Y423906D01*
X1051159Y423907D01*
X1051230Y423899D01*
X1123620Y423899D01*
X1123640Y423902D01*
G37*
G36*
X1123640Y449302D02*
X1123640Y449302D01*
X1123659Y449300D01*
X1123761Y449322D01*
X1123863Y449339D01*
X1123880Y449348D01*
X1123900Y449352D01*
X1123989Y449405D01*
X1124080Y449454D01*
X1124094Y449468D01*
X1124111Y449478D01*
X1124178Y449557D01*
X1124250Y449632D01*
X1124258Y449650D01*
X1124271Y449665D01*
X1124310Y449761D01*
X1124353Y449855D01*
X1124355Y449875D01*
X1124363Y449893D01*
X1124381Y450060D01*
X1124381Y493240D01*
X1124378Y493260D01*
X1124380Y493279D01*
X1124358Y493381D01*
X1124342Y493483D01*
X1124332Y493500D01*
X1124328Y493520D01*
X1124275Y493609D01*
X1124226Y493700D01*
X1124212Y493714D01*
X1124202Y493731D01*
X1124123Y493798D01*
X1124048Y493870D01*
X1124030Y493878D01*
X1124015Y493891D01*
X1123919Y493930D01*
X1123825Y493973D01*
X1123805Y493975D01*
X1123787Y493983D01*
X1123620Y494001D01*
X1117269Y494001D01*
X1117249Y493998D01*
X1117230Y494000D01*
X1117128Y493978D01*
X1117026Y493962D01*
X1117009Y493952D01*
X1116989Y493948D01*
X1116900Y493895D01*
X1116809Y493846D01*
X1116795Y493832D01*
X1116778Y493822D01*
X1116711Y493743D01*
X1116639Y493668D01*
X1116631Y493650D01*
X1116618Y493635D01*
X1116579Y493539D01*
X1116536Y493445D01*
X1116534Y493425D01*
X1116526Y493407D01*
X1116508Y493240D01*
X1116508Y487960D01*
X1116515Y487917D01*
X1116513Y487873D01*
X1116535Y487796D01*
X1116547Y487717D01*
X1116568Y487679D01*
X1116580Y487637D01*
X1116625Y487571D01*
X1116663Y487500D01*
X1116694Y487470D01*
X1116719Y487434D01*
X1116783Y487386D01*
X1116841Y487331D01*
X1116881Y487312D01*
X1116916Y487286D01*
X1117051Y487233D01*
X1117064Y487227D01*
X1117067Y487227D01*
X1117072Y487225D01*
X1117361Y487148D01*
X1117940Y486813D01*
X1118413Y486340D01*
X1118748Y485761D01*
X1118921Y485114D01*
X1118921Y482025D01*
X1109142Y482025D01*
X1109122Y482022D01*
X1109103Y482024D01*
X1109001Y482002D01*
X1108899Y481985D01*
X1108882Y481976D01*
X1108862Y481972D01*
X1108773Y481919D01*
X1108682Y481870D01*
X1108668Y481856D01*
X1108651Y481846D01*
X1108584Y481767D01*
X1108513Y481692D01*
X1108504Y481674D01*
X1108491Y481659D01*
X1108452Y481563D01*
X1108409Y481469D01*
X1108407Y481449D01*
X1108399Y481431D01*
X1108381Y481264D01*
X1108381Y480501D01*
X1108379Y480501D01*
X1108379Y481264D01*
X1108376Y481284D01*
X1108378Y481303D01*
X1108356Y481405D01*
X1108339Y481507D01*
X1108330Y481524D01*
X1108326Y481544D01*
X1108273Y481633D01*
X1108224Y481724D01*
X1108210Y481738D01*
X1108200Y481755D01*
X1108121Y481822D01*
X1108046Y481893D01*
X1108028Y481902D01*
X1108013Y481915D01*
X1107917Y481954D01*
X1107823Y481997D01*
X1107803Y481999D01*
X1107785Y482007D01*
X1107618Y482025D01*
X1097839Y482025D01*
X1097839Y485114D01*
X1098012Y485761D01*
X1098347Y486340D01*
X1098820Y486813D01*
X1099399Y487148D01*
X1099688Y487225D01*
X1099728Y487243D01*
X1099771Y487252D01*
X1099839Y487293D01*
X1099912Y487326D01*
X1099944Y487356D01*
X1099982Y487378D01*
X1100034Y487439D01*
X1100092Y487494D01*
X1100113Y487532D01*
X1100142Y487565D01*
X1100172Y487640D01*
X1100210Y487710D01*
X1100217Y487753D01*
X1100234Y487794D01*
X1100250Y487938D01*
X1100252Y487952D01*
X1100252Y487955D01*
X1100252Y487960D01*
X1100252Y493240D01*
X1100249Y493260D01*
X1100251Y493279D01*
X1100229Y493381D01*
X1100213Y493483D01*
X1100203Y493500D01*
X1100199Y493520D01*
X1100146Y493609D01*
X1100097Y493700D01*
X1100083Y493714D01*
X1100073Y493731D01*
X1099994Y493798D01*
X1099919Y493870D01*
X1099901Y493878D01*
X1099886Y493891D01*
X1099790Y493930D01*
X1099696Y493973D01*
X1099676Y493975D01*
X1099658Y493983D01*
X1099491Y494001D01*
X1098535Y494001D01*
X1095171Y497365D01*
X1095171Y499237D01*
X1095152Y499354D01*
X1095134Y499472D01*
X1095132Y499475D01*
X1095132Y499480D01*
X1095076Y499584D01*
X1095021Y499690D01*
X1095018Y499693D01*
X1095016Y499697D01*
X1094931Y499778D01*
X1094845Y499862D01*
X1094841Y499863D01*
X1094838Y499866D01*
X1094730Y499916D01*
X1094623Y499968D01*
X1094619Y499968D01*
X1094615Y499970D01*
X1094497Y499983D01*
X1094379Y499997D01*
X1094374Y499997D01*
X1094371Y499997D01*
X1094357Y499994D01*
X1094213Y499972D01*
X1093531Y499789D01*
X1090401Y499789D01*
X1090401Y503600D01*
X1090401Y508600D01*
X1090398Y508619D01*
X1090400Y508639D01*
X1090378Y508740D01*
X1090362Y508842D01*
X1090352Y508860D01*
X1090348Y508879D01*
X1090295Y508969D01*
X1090247Y509060D01*
X1090246Y509060D01*
X1090232Y509074D01*
X1090222Y509091D01*
X1090221Y509091D01*
X1090143Y509158D01*
X1090068Y509230D01*
X1090050Y509238D01*
X1090035Y509251D01*
X1089938Y509290D01*
X1089845Y509333D01*
X1089825Y509335D01*
X1089806Y509343D01*
X1089640Y509361D01*
X1083543Y509361D01*
X1083543Y509750D01*
X1083540Y509770D01*
X1083542Y509789D01*
X1083520Y509891D01*
X1083504Y509993D01*
X1083494Y510010D01*
X1083490Y510030D01*
X1083437Y510119D01*
X1083388Y510210D01*
X1083374Y510224D01*
X1083364Y510241D01*
X1083285Y510308D01*
X1083210Y510380D01*
X1083192Y510388D01*
X1083177Y510401D01*
X1083081Y510440D01*
X1082987Y510483D01*
X1082967Y510485D01*
X1082949Y510493D01*
X1082782Y510511D01*
X1081890Y510511D01*
X1081837Y510533D01*
X1081796Y510537D01*
X1081773Y510544D01*
X1081741Y510543D01*
X1081670Y510551D01*
X1081647Y510551D01*
X1080640Y511558D01*
X1080566Y511611D01*
X1080497Y511671D01*
X1080467Y511683D01*
X1080441Y511702D01*
X1080354Y511729D01*
X1080269Y511763D01*
X1080228Y511767D01*
X1080206Y511774D01*
X1080173Y511773D01*
X1080102Y511781D01*
X1077900Y511781D01*
X1077880Y511778D01*
X1077861Y511780D01*
X1077759Y511758D01*
X1077657Y511742D01*
X1077640Y511732D01*
X1077620Y511728D01*
X1077531Y511675D01*
X1077440Y511626D01*
X1077426Y511612D01*
X1077409Y511602D01*
X1077342Y511523D01*
X1077271Y511448D01*
X1077262Y511430D01*
X1077249Y511415D01*
X1077210Y511319D01*
X1077167Y511225D01*
X1077165Y511205D01*
X1077157Y511187D01*
X1077139Y511020D01*
X1077139Y510078D01*
X1077154Y509988D01*
X1077161Y509897D01*
X1077173Y509867D01*
X1077179Y509835D01*
X1077221Y509754D01*
X1077249Y509690D01*
X1077249Y508209D01*
X1077264Y508115D01*
X1077273Y508020D01*
X1077284Y507994D01*
X1077288Y507966D01*
X1077333Y507882D01*
X1077371Y507795D01*
X1077390Y507774D01*
X1077404Y507749D01*
X1077473Y507683D01*
X1077537Y507613D01*
X1077561Y507599D01*
X1077582Y507579D01*
X1077669Y507539D01*
X1077752Y507493D01*
X1077779Y507488D01*
X1077805Y507476D01*
X1077900Y507465D01*
X1077994Y507448D01*
X1078021Y507452D01*
X1078049Y507449D01*
X1078143Y507469D01*
X1078237Y507482D01*
X1078269Y507497D01*
X1078290Y507501D01*
X1078318Y507518D01*
X1078391Y507550D01*
X1078449Y507584D01*
X1079096Y507757D01*
X1079939Y507757D01*
X1079939Y501660D01*
X1079942Y501641D01*
X1079940Y501621D01*
X1079962Y501520D01*
X1079978Y501418D01*
X1079988Y501400D01*
X1079992Y501381D01*
X1080045Y501291D01*
X1080093Y501200D01*
X1080108Y501187D01*
X1080118Y501169D01*
X1080197Y501102D01*
X1080272Y501031D01*
X1080290Y501022D01*
X1080305Y501009D01*
X1080401Y500971D01*
X1080495Y500927D01*
X1080515Y500925D01*
X1080533Y500918D01*
X1080700Y500899D01*
X1080720Y500902D01*
X1080739Y500900D01*
X1080740Y500900D01*
X1080841Y500922D01*
X1080943Y500939D01*
X1080960Y500948D01*
X1080980Y500952D01*
X1081069Y501006D01*
X1081160Y501054D01*
X1081174Y501068D01*
X1081191Y501079D01*
X1081258Y501157D01*
X1081330Y501232D01*
X1081338Y501250D01*
X1081351Y501265D01*
X1081390Y501362D01*
X1081433Y501455D01*
X1081435Y501475D01*
X1081443Y501494D01*
X1081461Y501660D01*
X1081461Y507757D01*
X1082305Y507757D01*
X1082585Y507682D01*
X1082703Y507670D01*
X1082821Y507657D01*
X1082826Y507658D01*
X1082830Y507657D01*
X1082945Y507684D01*
X1083062Y507709D01*
X1083065Y507711D01*
X1083069Y507712D01*
X1083170Y507774D01*
X1083273Y507835D01*
X1083276Y507838D01*
X1083276Y507839D01*
X1088879Y507839D01*
X1088879Y503600D01*
X1088879Y499789D01*
X1085749Y499789D01*
X1085469Y499864D01*
X1085351Y499876D01*
X1085233Y499889D01*
X1085228Y499888D01*
X1085224Y499889D01*
X1085109Y499862D01*
X1084992Y499837D01*
X1084989Y499835D01*
X1084985Y499834D01*
X1084884Y499772D01*
X1084781Y499711D01*
X1084778Y499708D01*
X1084775Y499706D01*
X1084699Y499615D01*
X1084621Y499524D01*
X1084620Y499520D01*
X1084617Y499517D01*
X1084574Y499407D01*
X1084529Y499296D01*
X1084529Y499291D01*
X1084527Y499288D01*
X1084527Y499274D01*
X1084511Y499129D01*
X1084511Y497770D01*
X1084338Y497123D01*
X1084003Y496544D01*
X1083649Y496190D01*
X1083608Y496132D01*
X1083558Y496080D01*
X1083536Y496033D01*
X1083506Y495991D01*
X1083485Y495922D01*
X1083455Y495857D01*
X1083449Y495805D01*
X1083433Y495755D01*
X1083435Y495684D01*
X1083427Y495613D01*
X1083439Y495562D01*
X1083440Y495510D01*
X1083464Y495442D01*
X1083480Y495372D01*
X1083506Y495327D01*
X1083524Y495279D01*
X1083569Y495223D01*
X1083606Y495161D01*
X1083645Y495127D01*
X1083678Y495087D01*
X1083738Y495048D01*
X1083793Y495001D01*
X1083841Y494982D01*
X1083885Y494954D01*
X1083954Y494936D01*
X1084021Y494909D01*
X1084092Y494901D01*
X1084123Y494893D01*
X1084147Y494895D01*
X1084188Y494891D01*
X1087630Y494891D01*
X1088277Y494718D01*
X1088856Y494383D01*
X1089329Y493910D01*
X1089664Y493331D01*
X1089837Y492684D01*
X1089837Y485873D01*
X1083780Y485873D01*
X1083760Y485870D01*
X1083741Y485872D01*
X1083639Y485850D01*
X1083537Y485833D01*
X1083520Y485824D01*
X1083500Y485820D01*
X1083411Y485767D01*
X1083320Y485718D01*
X1083306Y485704D01*
X1083289Y485694D01*
X1083222Y485615D01*
X1083151Y485540D01*
X1083142Y485522D01*
X1083129Y485507D01*
X1083090Y485411D01*
X1083047Y485317D01*
X1083045Y485297D01*
X1083037Y485279D01*
X1083019Y485112D01*
X1083019Y484349D01*
X1082256Y484349D01*
X1082236Y484346D01*
X1082217Y484348D01*
X1082115Y484326D01*
X1082013Y484309D01*
X1081996Y484300D01*
X1081976Y484296D01*
X1081887Y484243D01*
X1081796Y484194D01*
X1081782Y484180D01*
X1081765Y484170D01*
X1081698Y484091D01*
X1081627Y484016D01*
X1081618Y483998D01*
X1081605Y483983D01*
X1081566Y483887D01*
X1081523Y483793D01*
X1081521Y483773D01*
X1081513Y483755D01*
X1081495Y483588D01*
X1081495Y473809D01*
X1078406Y473809D01*
X1078097Y473892D01*
X1077978Y473904D01*
X1077861Y473917D01*
X1077856Y473916D01*
X1077852Y473916D01*
X1077737Y473890D01*
X1077620Y473865D01*
X1077617Y473862D01*
X1077613Y473861D01*
X1077512Y473800D01*
X1077409Y473738D01*
X1077406Y473735D01*
X1077403Y473733D01*
X1077326Y473642D01*
X1077249Y473551D01*
X1077248Y473548D01*
X1077245Y473544D01*
X1077202Y473434D01*
X1077157Y473323D01*
X1077157Y473318D01*
X1077155Y473315D01*
X1077155Y473302D01*
X1077139Y473157D01*
X1077139Y472683D01*
X1077158Y472567D01*
X1077176Y472448D01*
X1077178Y472445D01*
X1077179Y472441D01*
X1077234Y472336D01*
X1077289Y472230D01*
X1077292Y472227D01*
X1077294Y472223D01*
X1077379Y472142D01*
X1077465Y472059D01*
X1077469Y472057D01*
X1077472Y472054D01*
X1077579Y472004D01*
X1077687Y471952D01*
X1077691Y471952D01*
X1077695Y471950D01*
X1077813Y471937D01*
X1077931Y471923D01*
X1077936Y471924D01*
X1077939Y471923D01*
X1077953Y471926D01*
X1078097Y471948D01*
X1078405Y472031D01*
X1081495Y472031D01*
X1081495Y462252D01*
X1081498Y462232D01*
X1081496Y462213D01*
X1081518Y462111D01*
X1081535Y462009D01*
X1081544Y461992D01*
X1081548Y461972D01*
X1081601Y461883D01*
X1081650Y461792D01*
X1081664Y461778D01*
X1081674Y461761D01*
X1081753Y461694D01*
X1081828Y461623D01*
X1081846Y461614D01*
X1081861Y461601D01*
X1081957Y461562D01*
X1082051Y461519D01*
X1082071Y461517D01*
X1082089Y461509D01*
X1082256Y461491D01*
X1083019Y461491D01*
X1083019Y461489D01*
X1082256Y461489D01*
X1082236Y461486D01*
X1082217Y461488D01*
X1082115Y461466D01*
X1082013Y461449D01*
X1081996Y461440D01*
X1081976Y461436D01*
X1081887Y461383D01*
X1081796Y461334D01*
X1081782Y461320D01*
X1081765Y461310D01*
X1081698Y461231D01*
X1081627Y461156D01*
X1081618Y461138D01*
X1081605Y461123D01*
X1081566Y461027D01*
X1081523Y460933D01*
X1081521Y460913D01*
X1081513Y460895D01*
X1081495Y460728D01*
X1081495Y450949D01*
X1078405Y450949D01*
X1078097Y451032D01*
X1077979Y451044D01*
X1077861Y451057D01*
X1077856Y451056D01*
X1077852Y451056D01*
X1077737Y451030D01*
X1077620Y451005D01*
X1077617Y451002D01*
X1077613Y451002D01*
X1077511Y450939D01*
X1077409Y450878D01*
X1077406Y450875D01*
X1077403Y450873D01*
X1077326Y450782D01*
X1077249Y450692D01*
X1077248Y450688D01*
X1077245Y450684D01*
X1077202Y450574D01*
X1077157Y450463D01*
X1077157Y450458D01*
X1077155Y450455D01*
X1077155Y450442D01*
X1077139Y450297D01*
X1077139Y450060D01*
X1077142Y450040D01*
X1077140Y450021D01*
X1077162Y449919D01*
X1077179Y449817D01*
X1077188Y449800D01*
X1077192Y449780D01*
X1077245Y449691D01*
X1077294Y449600D01*
X1077308Y449586D01*
X1077318Y449569D01*
X1077397Y449502D01*
X1077472Y449431D01*
X1077490Y449422D01*
X1077505Y449409D01*
X1077601Y449370D01*
X1077695Y449327D01*
X1077715Y449325D01*
X1077733Y449317D01*
X1077900Y449299D01*
X1123620Y449299D01*
X1123640Y449302D01*
G37*
%LPC*%
G36*
X1091671Y335129D02*
X1091671Y335129D01*
X1083802Y338389D01*
X1077779Y344412D01*
X1074519Y352281D01*
X1074519Y360799D01*
X1077779Y368668D01*
X1083802Y374691D01*
X1091671Y377951D01*
X1100189Y377951D01*
X1108058Y374691D01*
X1114081Y368668D01*
X1117341Y360799D01*
X1117341Y352281D01*
X1114081Y344412D01*
X1108058Y338389D01*
X1100189Y335129D01*
X1091671Y335129D01*
G37*
%LPD*%
%LPC*%
G36*
X471871Y335129D02*
X471871Y335129D01*
X464002Y338389D01*
X457979Y344412D01*
X454719Y352281D01*
X454719Y360799D01*
X457979Y368668D01*
X464002Y374691D01*
X471871Y377951D01*
X480389Y377951D01*
X488258Y374691D01*
X494281Y368668D01*
X497541Y360799D01*
X497541Y352281D01*
X494281Y344412D01*
X488258Y338389D01*
X480389Y335129D01*
X471871Y335129D01*
G37*
%LPD*%
%LPC*%
G36*
X471871Y121729D02*
X471871Y121729D01*
X464002Y124989D01*
X457979Y131012D01*
X454719Y138881D01*
X454719Y147399D01*
X457979Y155268D01*
X464002Y161291D01*
X471871Y164551D01*
X480389Y164551D01*
X488258Y161291D01*
X494281Y155268D01*
X497541Y147399D01*
X497541Y138881D01*
X494281Y131012D01*
X488258Y124989D01*
X480389Y121729D01*
X471871Y121729D01*
G37*
%LPD*%
%LPC*%
G36*
X1091671Y121729D02*
X1091671Y121729D01*
X1083802Y124989D01*
X1077779Y131012D01*
X1074519Y138881D01*
X1074519Y147399D01*
X1077779Y155268D01*
X1083802Y161291D01*
X1091671Y164551D01*
X1100189Y164551D01*
X1108058Y161291D01*
X1114081Y155268D01*
X1117341Y147399D01*
X1117341Y138881D01*
X1114081Y131012D01*
X1108058Y124989D01*
X1100189Y121729D01*
X1091671Y121729D01*
G37*
%LPD*%
%LPC*%
G36*
X358905Y178842D02*
X358905Y178842D01*
X351651Y183030D01*
X346728Y189807D01*
X344986Y198000D01*
X346728Y206193D01*
X351651Y212970D01*
X358905Y217158D01*
X367236Y218034D01*
X375202Y215445D01*
X381427Y209840D01*
X384834Y202188D01*
X384834Y193812D01*
X381427Y186160D01*
X375202Y180555D01*
X367236Y177966D01*
X358905Y178842D01*
G37*
%LPD*%
%LPC*%
G36*
X193805Y178842D02*
X193805Y178842D01*
X186551Y183030D01*
X181628Y189807D01*
X179886Y198000D01*
X181628Y206193D01*
X186551Y212970D01*
X193805Y217158D01*
X202136Y218034D01*
X210102Y215445D01*
X216327Y209840D01*
X219734Y202188D01*
X219734Y193812D01*
X216327Y186160D01*
X210102Y180555D01*
X202136Y177966D01*
X193805Y178842D01*
G37*
%LPD*%
%LPC*%
G36*
X907161Y570725D02*
X907161Y570725D01*
X901914Y572898D01*
X897898Y576914D01*
X895725Y582161D01*
X895725Y587839D01*
X897898Y593086D01*
X901914Y597102D01*
X907161Y599275D01*
X912839Y599275D01*
X918086Y597102D01*
X922102Y593086D01*
X924275Y587839D01*
X924275Y582161D01*
X922102Y576914D01*
X918086Y572898D01*
X912839Y570725D01*
X907161Y570725D01*
G37*
%LPD*%
%LPC*%
G36*
X543747Y400527D02*
X543747Y400527D01*
X539733Y402190D01*
X536660Y405263D01*
X534997Y409277D01*
X534997Y413623D01*
X536660Y417637D01*
X539733Y420710D01*
X543747Y422373D01*
X548093Y422373D01*
X552107Y420710D01*
X555180Y417637D01*
X556843Y413623D01*
X556843Y409277D01*
X555180Y405263D01*
X552107Y402190D01*
X548093Y400527D01*
X543747Y400527D01*
G37*
%LPD*%
%LPC*%
G36*
X354888Y253895D02*
X354888Y253895D01*
X351061Y255481D01*
X348131Y258411D01*
X346545Y262238D01*
X346545Y266382D01*
X348131Y270209D01*
X351061Y273139D01*
X354888Y274725D01*
X359032Y274725D01*
X362859Y273139D01*
X365789Y270209D01*
X367375Y266382D01*
X367375Y262238D01*
X365789Y258411D01*
X362859Y255481D01*
X359032Y253895D01*
X354888Y253895D01*
G37*
%LPD*%
%LPC*%
G36*
X278688Y380895D02*
X278688Y380895D01*
X274861Y382481D01*
X271931Y385411D01*
X270345Y389238D01*
X270345Y393382D01*
X271931Y397209D01*
X274861Y400139D01*
X278688Y401725D01*
X282832Y401725D01*
X286659Y400139D01*
X289589Y397209D01*
X291175Y393382D01*
X291175Y389238D01*
X289589Y385411D01*
X286659Y382481D01*
X282832Y380895D01*
X278688Y380895D01*
G37*
%LPD*%
%LPC*%
G36*
X304088Y380895D02*
X304088Y380895D01*
X300261Y382481D01*
X297331Y385411D01*
X295745Y389238D01*
X295745Y393382D01*
X297331Y397209D01*
X300261Y400139D01*
X304088Y401725D01*
X308232Y401725D01*
X312059Y400139D01*
X314989Y397209D01*
X316575Y393382D01*
X316575Y389238D01*
X314989Y385411D01*
X312059Y382481D01*
X308232Y380895D01*
X304088Y380895D01*
G37*
%LPD*%
%LPC*%
G36*
X329488Y380895D02*
X329488Y380895D01*
X325661Y382481D01*
X322731Y385411D01*
X321145Y389238D01*
X321145Y393382D01*
X322731Y397209D01*
X325661Y400139D01*
X329488Y401725D01*
X333632Y401725D01*
X337459Y400139D01*
X340389Y397209D01*
X341975Y393382D01*
X341975Y389238D01*
X340389Y385411D01*
X337459Y382481D01*
X333632Y380895D01*
X329488Y380895D01*
G37*
%LPD*%
%LPC*%
G36*
X253288Y380895D02*
X253288Y380895D01*
X249461Y382481D01*
X246531Y385411D01*
X244945Y389238D01*
X244945Y393382D01*
X246531Y397209D01*
X249461Y400139D01*
X253288Y401725D01*
X257432Y401725D01*
X261259Y400139D01*
X264189Y397209D01*
X265775Y393382D01*
X265775Y389238D01*
X264189Y385411D01*
X261259Y382481D01*
X257432Y380895D01*
X253288Y380895D01*
G37*
%LPD*%
%LPC*%
G36*
X303428Y625825D02*
X303428Y625825D01*
X299601Y627411D01*
X296671Y630341D01*
X295085Y634168D01*
X295085Y638312D01*
X296671Y642139D01*
X299601Y645069D01*
X303428Y646655D01*
X307572Y646655D01*
X311399Y645069D01*
X314329Y642139D01*
X315915Y638312D01*
X315915Y634168D01*
X314329Y630341D01*
X311399Y627411D01*
X307572Y625825D01*
X303428Y625825D01*
G37*
%LPD*%
%LPC*%
G36*
X217008Y73285D02*
X217008Y73285D01*
X213181Y74871D01*
X210251Y77801D01*
X208665Y81628D01*
X208665Y85772D01*
X210251Y89599D01*
X213181Y92529D01*
X217008Y94115D01*
X221152Y94115D01*
X224979Y92529D01*
X227909Y89599D01*
X229495Y85772D01*
X229495Y81628D01*
X227909Y77801D01*
X224979Y74871D01*
X221152Y73285D01*
X217008Y73285D01*
G37*
%LPD*%
%LPC*%
G36*
X369408Y73285D02*
X369408Y73285D01*
X365581Y74871D01*
X362651Y77801D01*
X361065Y81628D01*
X361065Y85772D01*
X362651Y89599D01*
X365581Y92529D01*
X369408Y94115D01*
X373552Y94115D01*
X377379Y92529D01*
X380309Y89599D01*
X381895Y85772D01*
X381895Y81628D01*
X380309Y77801D01*
X377379Y74871D01*
X373552Y73285D01*
X369408Y73285D01*
G37*
%LPD*%
%LPC*%
G36*
X344008Y73285D02*
X344008Y73285D01*
X340181Y74871D01*
X337251Y77801D01*
X335665Y81628D01*
X335665Y85772D01*
X337251Y89599D01*
X340181Y92529D01*
X344008Y94115D01*
X348152Y94115D01*
X351979Y92529D01*
X354909Y89599D01*
X356495Y85772D01*
X356495Y81628D01*
X354909Y77801D01*
X351979Y74871D01*
X348152Y73285D01*
X344008Y73285D01*
G37*
%LPD*%
%LPC*%
G36*
X293208Y73285D02*
X293208Y73285D01*
X289381Y74871D01*
X286451Y77801D01*
X284865Y81628D01*
X284865Y85772D01*
X286451Y89599D01*
X289381Y92529D01*
X293208Y94115D01*
X297352Y94115D01*
X301179Y92529D01*
X304109Y89599D01*
X305695Y85772D01*
X305695Y81628D01*
X304109Y77801D01*
X301179Y74871D01*
X297352Y73285D01*
X293208Y73285D01*
G37*
%LPD*%
%LPC*%
G36*
X242408Y73285D02*
X242408Y73285D01*
X238581Y74871D01*
X235651Y77801D01*
X234065Y81628D01*
X234065Y85772D01*
X235651Y89599D01*
X238581Y92529D01*
X242408Y94115D01*
X246552Y94115D01*
X250379Y92529D01*
X253309Y89599D01*
X254895Y85772D01*
X254895Y81628D01*
X253309Y77801D01*
X250379Y74871D01*
X246552Y73285D01*
X242408Y73285D01*
G37*
%LPD*%
%LPC*%
G36*
X278028Y625825D02*
X278028Y625825D01*
X274201Y627411D01*
X271271Y630341D01*
X269685Y634168D01*
X269685Y638312D01*
X271271Y642139D01*
X274201Y645069D01*
X278028Y646655D01*
X282172Y646655D01*
X285999Y645069D01*
X288929Y642139D01*
X290515Y638312D01*
X290515Y634168D01*
X288929Y630341D01*
X285999Y627411D01*
X282172Y625825D01*
X278028Y625825D01*
G37*
%LPD*%
%LPC*%
G36*
X354228Y448025D02*
X354228Y448025D01*
X350401Y449611D01*
X347471Y452541D01*
X345885Y456368D01*
X345885Y460512D01*
X347471Y464339D01*
X350401Y467269D01*
X354228Y468855D01*
X358372Y468855D01*
X362199Y467269D01*
X365129Y464339D01*
X366715Y460512D01*
X366715Y456368D01*
X365129Y452541D01*
X362199Y449611D01*
X358372Y448025D01*
X354228Y448025D01*
G37*
%LPD*%
%LPC*%
G36*
X252628Y448025D02*
X252628Y448025D01*
X248801Y449611D01*
X245871Y452541D01*
X244285Y456368D01*
X244285Y460512D01*
X245871Y464339D01*
X248801Y467269D01*
X252628Y468855D01*
X256772Y468855D01*
X260599Y467269D01*
X263529Y464339D01*
X265115Y460512D01*
X265115Y456368D01*
X263529Y452541D01*
X260599Y449611D01*
X256772Y448025D01*
X252628Y448025D01*
G37*
%LPD*%
%LPC*%
G36*
X278028Y448025D02*
X278028Y448025D01*
X274201Y449611D01*
X271271Y452541D01*
X269685Y456368D01*
X269685Y460512D01*
X271271Y464339D01*
X274201Y467269D01*
X278028Y468855D01*
X282172Y468855D01*
X285999Y467269D01*
X288929Y464339D01*
X290515Y460512D01*
X290515Y456368D01*
X288929Y452541D01*
X285999Y449611D01*
X282172Y448025D01*
X278028Y448025D01*
G37*
%LPD*%
%LPC*%
G36*
X328828Y625825D02*
X328828Y625825D01*
X325001Y627411D01*
X322071Y630341D01*
X320485Y634168D01*
X320485Y638312D01*
X322071Y642139D01*
X325001Y645069D01*
X328828Y646655D01*
X332972Y646655D01*
X336799Y645069D01*
X339729Y642139D01*
X341315Y638312D01*
X341315Y634168D01*
X339729Y630341D01*
X336799Y627411D01*
X332972Y625825D01*
X328828Y625825D01*
G37*
%LPD*%
%LPC*%
G36*
X252628Y625825D02*
X252628Y625825D01*
X248801Y627411D01*
X245871Y630341D01*
X244285Y634168D01*
X244285Y638312D01*
X245871Y642139D01*
X248801Y645069D01*
X252628Y646655D01*
X256772Y646655D01*
X260599Y645069D01*
X263529Y642139D01*
X265115Y638312D01*
X265115Y634168D01*
X263529Y630341D01*
X260599Y627411D01*
X256772Y625825D01*
X252628Y625825D01*
G37*
%LPD*%
%LPC*%
G36*
X227228Y625825D02*
X227228Y625825D01*
X223401Y627411D01*
X220471Y630341D01*
X218885Y634168D01*
X218885Y638312D01*
X220471Y642139D01*
X223401Y645069D01*
X227228Y646655D01*
X231372Y646655D01*
X235199Y645069D01*
X238129Y642139D01*
X239715Y638312D01*
X239715Y634168D01*
X238129Y630341D01*
X235199Y627411D01*
X231372Y625825D01*
X227228Y625825D01*
G37*
%LPD*%
%LPC*%
G36*
X354228Y625825D02*
X354228Y625825D01*
X350401Y627411D01*
X347471Y630341D01*
X345885Y634168D01*
X345885Y638312D01*
X347471Y642139D01*
X350401Y645069D01*
X354228Y646655D01*
X358372Y646655D01*
X362199Y645069D01*
X365129Y642139D01*
X366715Y638312D01*
X366715Y634168D01*
X365129Y630341D01*
X362199Y627411D01*
X358372Y625825D01*
X354228Y625825D01*
G37*
%LPD*%
%LPC*%
G36*
X278688Y253895D02*
X278688Y253895D01*
X274861Y255481D01*
X271931Y258411D01*
X270345Y262238D01*
X270345Y266382D01*
X271931Y270209D01*
X274861Y273139D01*
X278688Y274725D01*
X282832Y274725D01*
X286659Y273139D01*
X289589Y270209D01*
X291175Y266382D01*
X291175Y262238D01*
X289589Y258411D01*
X286659Y255481D01*
X282832Y253895D01*
X278688Y253895D01*
G37*
%LPD*%
%LPC*%
G36*
X253288Y253895D02*
X253288Y253895D01*
X249461Y255481D01*
X246531Y258411D01*
X244945Y262238D01*
X244945Y266382D01*
X246531Y270209D01*
X249461Y273139D01*
X253288Y274725D01*
X257432Y274725D01*
X261259Y273139D01*
X264189Y270209D01*
X265775Y266382D01*
X265775Y262238D01*
X264189Y258411D01*
X261259Y255481D01*
X257432Y253895D01*
X253288Y253895D01*
G37*
%LPD*%
%LPC*%
G36*
X887372Y342161D02*
X887372Y342161D01*
X886479Y343054D01*
X886479Y359318D01*
X887372Y360211D01*
X903636Y360211D01*
X904529Y359318D01*
X904529Y343054D01*
X903636Y342161D01*
X887372Y342161D01*
G37*
%LPD*%
%LPC*%
G36*
X887372Y139469D02*
X887372Y139469D01*
X886479Y140362D01*
X886479Y156626D01*
X887372Y157519D01*
X903636Y157519D01*
X904529Y156626D01*
X904529Y140362D01*
X903636Y139469D01*
X887372Y139469D01*
G37*
%LPD*%
%LPC*%
G36*
X878205Y625975D02*
X878205Y625975D01*
X874888Y627349D01*
X872349Y629888D01*
X870975Y633205D01*
X870975Y636795D01*
X872349Y640112D01*
X874888Y642651D01*
X878205Y644025D01*
X881795Y644025D01*
X885112Y642651D01*
X887651Y640112D01*
X889025Y636795D01*
X889025Y633205D01*
X887651Y629888D01*
X885112Y627349D01*
X881795Y625975D01*
X878205Y625975D01*
G37*
%LPD*%
%LPC*%
G36*
X988205Y625975D02*
X988205Y625975D01*
X984888Y627349D01*
X982349Y629888D01*
X980975Y633205D01*
X980975Y636795D01*
X982349Y640112D01*
X984888Y642651D01*
X988205Y644025D01*
X991795Y644025D01*
X995112Y642651D01*
X997651Y640112D01*
X999025Y636795D01*
X999025Y633205D01*
X997651Y629888D01*
X995112Y627349D01*
X991795Y625975D01*
X988205Y625975D01*
G37*
%LPD*%
%LPC*%
G36*
X766709Y342161D02*
X766709Y342161D01*
X763392Y343535D01*
X760853Y346074D01*
X759479Y349391D01*
X759479Y352981D01*
X760853Y356298D01*
X763392Y358837D01*
X766709Y360211D01*
X770299Y360211D01*
X773616Y358837D01*
X776155Y356298D01*
X777529Y352981D01*
X777529Y349391D01*
X776155Y346074D01*
X773616Y343535D01*
X770299Y342161D01*
X766709Y342161D01*
G37*
%LPD*%
%LPC*%
G36*
X792109Y139469D02*
X792109Y139469D01*
X788792Y140843D01*
X786253Y143382D01*
X784879Y146699D01*
X784879Y150289D01*
X786253Y153606D01*
X788792Y156145D01*
X792109Y157519D01*
X795699Y157519D01*
X799016Y156145D01*
X801555Y153606D01*
X802929Y150289D01*
X802929Y146699D01*
X801555Y143382D01*
X799016Y140843D01*
X795699Y139469D01*
X792109Y139469D01*
G37*
%LPD*%
%LPC*%
G36*
X741309Y139469D02*
X741309Y139469D01*
X737992Y140843D01*
X735453Y143382D01*
X734079Y146699D01*
X734079Y150289D01*
X735453Y153606D01*
X737992Y156145D01*
X741309Y157519D01*
X744899Y157519D01*
X748216Y156145D01*
X750755Y153606D01*
X752129Y150289D01*
X752129Y146699D01*
X750755Y143382D01*
X748216Y140843D01*
X744899Y139469D01*
X741309Y139469D01*
G37*
%LPD*%
%LPC*%
G36*
X665109Y139469D02*
X665109Y139469D01*
X661792Y140843D01*
X659253Y143382D01*
X657879Y146699D01*
X657879Y150289D01*
X659253Y153606D01*
X661792Y156145D01*
X665109Y157519D01*
X668699Y157519D01*
X672016Y156145D01*
X674555Y153606D01*
X675929Y150289D01*
X675929Y146699D01*
X674555Y143382D01*
X672016Y140843D01*
X668699Y139469D01*
X665109Y139469D01*
G37*
%LPD*%
%LPC*%
G36*
X614309Y139469D02*
X614309Y139469D01*
X610992Y140843D01*
X608453Y143382D01*
X607079Y146699D01*
X607079Y150289D01*
X608453Y153606D01*
X610992Y156145D01*
X614309Y157519D01*
X617899Y157519D01*
X621216Y156145D01*
X623755Y153606D01*
X625129Y150289D01*
X625129Y146699D01*
X623755Y143382D01*
X621216Y140843D01*
X617899Y139469D01*
X614309Y139469D01*
G37*
%LPD*%
%LPC*%
G36*
X563509Y139469D02*
X563509Y139469D01*
X560192Y140843D01*
X557653Y143382D01*
X556279Y146699D01*
X556279Y150289D01*
X557653Y153606D01*
X560192Y156145D01*
X563509Y157519D01*
X567099Y157519D01*
X570416Y156145D01*
X572955Y153606D01*
X574329Y150289D01*
X574329Y146699D01*
X572955Y143382D01*
X570416Y140843D01*
X567099Y139469D01*
X563509Y139469D01*
G37*
%LPD*%
%LPC*%
G36*
X588909Y139469D02*
X588909Y139469D01*
X585592Y140843D01*
X583053Y143382D01*
X581679Y146699D01*
X581679Y150289D01*
X583053Y153606D01*
X585592Y156145D01*
X588909Y157519D01*
X592499Y157519D01*
X595816Y156145D01*
X598355Y153606D01*
X599729Y150289D01*
X599729Y146699D01*
X598355Y143382D01*
X595816Y140843D01*
X592499Y139469D01*
X588909Y139469D01*
G37*
%LPD*%
%LPC*%
G36*
X766709Y139469D02*
X766709Y139469D01*
X763392Y140843D01*
X760853Y143382D01*
X759479Y146699D01*
X759479Y150289D01*
X760853Y153606D01*
X763392Y156145D01*
X766709Y157519D01*
X770299Y157519D01*
X773616Y156145D01*
X776155Y153606D01*
X777529Y150289D01*
X777529Y146699D01*
X776155Y143382D01*
X773616Y140843D01*
X770299Y139469D01*
X766709Y139469D01*
G37*
%LPD*%
%LPC*%
G36*
X817509Y139469D02*
X817509Y139469D01*
X814192Y140843D01*
X811653Y143382D01*
X810279Y146699D01*
X810279Y150289D01*
X811653Y153606D01*
X814192Y156145D01*
X817509Y157519D01*
X821099Y157519D01*
X824416Y156145D01*
X826955Y153606D01*
X828329Y150289D01*
X828329Y146699D01*
X826955Y143382D01*
X824416Y140843D01*
X821099Y139469D01*
X817509Y139469D01*
G37*
%LPD*%
%LPC*%
G36*
X792109Y342161D02*
X792109Y342161D01*
X788792Y343535D01*
X786253Y346074D01*
X784879Y349391D01*
X784879Y352981D01*
X786253Y356298D01*
X788792Y358837D01*
X792109Y360211D01*
X795699Y360211D01*
X799016Y358837D01*
X801555Y356298D01*
X802929Y352981D01*
X802929Y349391D01*
X801555Y346074D01*
X799016Y343535D01*
X795699Y342161D01*
X792109Y342161D01*
G37*
%LPD*%
%LPC*%
G36*
X868309Y342161D02*
X868309Y342161D01*
X864992Y343535D01*
X862453Y346074D01*
X861079Y349391D01*
X861079Y352981D01*
X862453Y356298D01*
X864992Y358837D01*
X868309Y360211D01*
X871899Y360211D01*
X875216Y358837D01*
X877755Y356298D01*
X879129Y352981D01*
X879129Y349391D01*
X877755Y346074D01*
X875216Y343535D01*
X871899Y342161D01*
X868309Y342161D01*
G37*
%LPD*%
%LPC*%
G36*
X817509Y342161D02*
X817509Y342161D01*
X814192Y343535D01*
X811653Y346074D01*
X810279Y349391D01*
X810279Y352981D01*
X811653Y356298D01*
X814192Y358837D01*
X817509Y360211D01*
X821099Y360211D01*
X824416Y358837D01*
X826955Y356298D01*
X828329Y352981D01*
X828329Y349391D01*
X826955Y346074D01*
X824416Y343535D01*
X821099Y342161D01*
X817509Y342161D01*
G37*
%LPD*%
%LPC*%
G36*
X842909Y342161D02*
X842909Y342161D01*
X839592Y343535D01*
X837053Y346074D01*
X835679Y349391D01*
X835679Y352981D01*
X837053Y356298D01*
X839592Y358837D01*
X842909Y360211D01*
X846499Y360211D01*
X849816Y358837D01*
X852355Y356298D01*
X853729Y352981D01*
X853729Y349391D01*
X852355Y346074D01*
X849816Y343535D01*
X846499Y342161D01*
X842909Y342161D01*
G37*
%LPD*%
%LPC*%
G36*
X741309Y342161D02*
X741309Y342161D01*
X737992Y343535D01*
X735453Y346074D01*
X734079Y349391D01*
X734079Y352981D01*
X735453Y356298D01*
X737992Y358837D01*
X741309Y360211D01*
X744899Y360211D01*
X748216Y358837D01*
X750755Y356298D01*
X752129Y352981D01*
X752129Y349391D01*
X750755Y346074D01*
X748216Y343535D01*
X744899Y342161D01*
X741309Y342161D01*
G37*
%LPD*%
%LPC*%
G36*
X715909Y342161D02*
X715909Y342161D01*
X712592Y343535D01*
X710053Y346074D01*
X708679Y349391D01*
X708679Y352981D01*
X710053Y356298D01*
X712592Y358837D01*
X715909Y360211D01*
X719499Y360211D01*
X722816Y358837D01*
X725355Y356298D01*
X726729Y352981D01*
X726729Y349391D01*
X725355Y346074D01*
X722816Y343535D01*
X719499Y342161D01*
X715909Y342161D01*
G37*
%LPD*%
%LPC*%
G36*
X690509Y342161D02*
X690509Y342161D01*
X687192Y343535D01*
X684653Y346074D01*
X683279Y349391D01*
X683279Y352981D01*
X684653Y356298D01*
X687192Y358837D01*
X690509Y360211D01*
X694099Y360211D01*
X697416Y358837D01*
X699955Y356298D01*
X701329Y352981D01*
X701329Y349391D01*
X699955Y346074D01*
X697416Y343535D01*
X694099Y342161D01*
X690509Y342161D01*
G37*
%LPD*%
%LPC*%
G36*
X665109Y342161D02*
X665109Y342161D01*
X661792Y343535D01*
X659253Y346074D01*
X657879Y349391D01*
X657879Y352981D01*
X659253Y356298D01*
X661792Y358837D01*
X665109Y360211D01*
X668699Y360211D01*
X672016Y358837D01*
X674555Y356298D01*
X675929Y352981D01*
X675929Y349391D01*
X674555Y346074D01*
X672016Y343535D01*
X668699Y342161D01*
X665109Y342161D01*
G37*
%LPD*%
%LPC*%
G36*
X563509Y342161D02*
X563509Y342161D01*
X560192Y343535D01*
X557653Y346074D01*
X556279Y349391D01*
X556279Y352981D01*
X557653Y356298D01*
X560192Y358837D01*
X563509Y360211D01*
X567099Y360211D01*
X570416Y358837D01*
X572955Y356298D01*
X574329Y352981D01*
X574329Y349391D01*
X572955Y346074D01*
X570416Y343535D01*
X567099Y342161D01*
X563509Y342161D01*
G37*
%LPD*%
%LPC*%
G36*
X588909Y342161D02*
X588909Y342161D01*
X585592Y343535D01*
X583053Y346074D01*
X581679Y349391D01*
X581679Y352981D01*
X583053Y356298D01*
X585592Y358837D01*
X588909Y360211D01*
X592499Y360211D01*
X595816Y358837D01*
X598355Y356298D01*
X599729Y352981D01*
X599729Y349391D01*
X598355Y346074D01*
X595816Y343535D01*
X592499Y342161D01*
X588909Y342161D01*
G37*
%LPD*%
%LPC*%
G36*
X614309Y342161D02*
X614309Y342161D01*
X610992Y343535D01*
X608453Y346074D01*
X607079Y349391D01*
X607079Y352981D01*
X608453Y356298D01*
X610992Y358837D01*
X614309Y360211D01*
X617899Y360211D01*
X621216Y358837D01*
X623755Y356298D01*
X625129Y352981D01*
X625129Y349391D01*
X623755Y346074D01*
X621216Y343535D01*
X617899Y342161D01*
X614309Y342161D01*
G37*
%LPD*%
%LPC*%
G36*
X639709Y342161D02*
X639709Y342161D01*
X636392Y343535D01*
X633853Y346074D01*
X632479Y349391D01*
X632479Y352981D01*
X633853Y356298D01*
X636392Y358837D01*
X639709Y360211D01*
X643299Y360211D01*
X646616Y358837D01*
X649155Y356298D01*
X650529Y352981D01*
X650529Y349391D01*
X649155Y346074D01*
X646616Y343535D01*
X643299Y342161D01*
X639709Y342161D01*
G37*
%LPD*%
G36*
X1123640Y497562D02*
X1123640Y497562D01*
X1123659Y497560D01*
X1123761Y497582D01*
X1123863Y497599D01*
X1123880Y497608D01*
X1123900Y497612D01*
X1123989Y497665D01*
X1124080Y497714D01*
X1124094Y497728D01*
X1124111Y497738D01*
X1124178Y497817D01*
X1124250Y497892D01*
X1124258Y497910D01*
X1124271Y497925D01*
X1124310Y498021D01*
X1124353Y498115D01*
X1124355Y498135D01*
X1124363Y498153D01*
X1124381Y498320D01*
X1124381Y526260D01*
X1124378Y526280D01*
X1124380Y526299D01*
X1124358Y526401D01*
X1124342Y526503D01*
X1124332Y526520D01*
X1124328Y526540D01*
X1124275Y526629D01*
X1124226Y526720D01*
X1124212Y526734D01*
X1124202Y526751D01*
X1124123Y526818D01*
X1124048Y526890D01*
X1124030Y526898D01*
X1124015Y526911D01*
X1123919Y526950D01*
X1123825Y526993D01*
X1123805Y526995D01*
X1123787Y527003D01*
X1123620Y527021D01*
X1116225Y527021D01*
X1116109Y527002D01*
X1115990Y526984D01*
X1115987Y526982D01*
X1115982Y526982D01*
X1115878Y526926D01*
X1115772Y526871D01*
X1115769Y526868D01*
X1115765Y526866D01*
X1115684Y526781D01*
X1115600Y526695D01*
X1115599Y526691D01*
X1115596Y526688D01*
X1115546Y526581D01*
X1115494Y526473D01*
X1115494Y526469D01*
X1115492Y526465D01*
X1115479Y526347D01*
X1115465Y526229D01*
X1115465Y526224D01*
X1115465Y526221D01*
X1115468Y526207D01*
X1115490Y526063D01*
X1115620Y525578D01*
X1115620Y523719D01*
X1111047Y523719D01*
X1111028Y523716D01*
X1111008Y523718D01*
X1110906Y523696D01*
X1110804Y523680D01*
X1110787Y523670D01*
X1110767Y523666D01*
X1110678Y523613D01*
X1110587Y523564D01*
X1110573Y523550D01*
X1110556Y523540D01*
X1110489Y523461D01*
X1110418Y523386D01*
X1110409Y523368D01*
X1110396Y523353D01*
X1110358Y523257D01*
X1110314Y523163D01*
X1110312Y523143D01*
X1110304Y523125D01*
X1110286Y522958D01*
X1110286Y521942D01*
X1110289Y521922D01*
X1110287Y521902D01*
X1110309Y521801D01*
X1110326Y521699D01*
X1110335Y521682D01*
X1110339Y521662D01*
X1110392Y521573D01*
X1110441Y521482D01*
X1110455Y521468D01*
X1110465Y521451D01*
X1110544Y521384D01*
X1110619Y521312D01*
X1110637Y521304D01*
X1110652Y521291D01*
X1110749Y521252D01*
X1110842Y521209D01*
X1110862Y521207D01*
X1110880Y521199D01*
X1111047Y521181D01*
X1115620Y521181D01*
X1115620Y519322D01*
X1115489Y518835D01*
X1115477Y518716D01*
X1115464Y518599D01*
X1115465Y518594D01*
X1115465Y518590D01*
X1115491Y518475D01*
X1115517Y518358D01*
X1115519Y518355D01*
X1115520Y518351D01*
X1115582Y518249D01*
X1115643Y518147D01*
X1115646Y518144D01*
X1115648Y518141D01*
X1115739Y518065D01*
X1115830Y517987D01*
X1115834Y517986D01*
X1115837Y517983D01*
X1115946Y517940D01*
X1116058Y517895D01*
X1116063Y517895D01*
X1116066Y517893D01*
X1116080Y517893D01*
X1116225Y517877D01*
X1116714Y517877D01*
X1117361Y517704D01*
X1117940Y517369D01*
X1118413Y516896D01*
X1118748Y516317D01*
X1118921Y515670D01*
X1118921Y512581D01*
X1109142Y512581D01*
X1109122Y512578D01*
X1109103Y512580D01*
X1109001Y512558D01*
X1108899Y512541D01*
X1108882Y512532D01*
X1108862Y512528D01*
X1108773Y512475D01*
X1108682Y512426D01*
X1108668Y512412D01*
X1108651Y512402D01*
X1108584Y512323D01*
X1108513Y512248D01*
X1108504Y512230D01*
X1108491Y512215D01*
X1108452Y512119D01*
X1108409Y512025D01*
X1108407Y512005D01*
X1108399Y511987D01*
X1108381Y511820D01*
X1108381Y510296D01*
X1108384Y510276D01*
X1108382Y510257D01*
X1108404Y510155D01*
X1108421Y510053D01*
X1108430Y510036D01*
X1108434Y510016D01*
X1108487Y509927D01*
X1108536Y509836D01*
X1108550Y509822D01*
X1108560Y509805D01*
X1108639Y509738D01*
X1108714Y509667D01*
X1108732Y509658D01*
X1108747Y509645D01*
X1108843Y509606D01*
X1108937Y509563D01*
X1108957Y509561D01*
X1108975Y509553D01*
X1109142Y509535D01*
X1118921Y509535D01*
X1118921Y506446D01*
X1118748Y505799D01*
X1118413Y505220D01*
X1117940Y504747D01*
X1117361Y504412D01*
X1117072Y504335D01*
X1117032Y504317D01*
X1116989Y504308D01*
X1116921Y504267D01*
X1116848Y504234D01*
X1116816Y504204D01*
X1116778Y504182D01*
X1116726Y504121D01*
X1116668Y504066D01*
X1116647Y504028D01*
X1116618Y503995D01*
X1116588Y503920D01*
X1116550Y503850D01*
X1116543Y503807D01*
X1116526Y503766D01*
X1116510Y503622D01*
X1116508Y503608D01*
X1116508Y503605D01*
X1116508Y503600D01*
X1116508Y498320D01*
X1116511Y498300D01*
X1116509Y498281D01*
X1116531Y498179D01*
X1116547Y498077D01*
X1116557Y498060D01*
X1116561Y498040D01*
X1116614Y497951D01*
X1116663Y497860D01*
X1116677Y497846D01*
X1116687Y497829D01*
X1116766Y497762D01*
X1116841Y497691D01*
X1116859Y497682D01*
X1116874Y497669D01*
X1116970Y497630D01*
X1117064Y497587D01*
X1117084Y497585D01*
X1117102Y497577D01*
X1117269Y497559D01*
X1123620Y497559D01*
X1123640Y497562D01*
G37*
%LPC*%
G36*
X827804Y606697D02*
X827804Y606697D01*
X824697Y609804D01*
X824697Y614196D01*
X825716Y615215D01*
X825773Y615294D01*
X825835Y615370D01*
X825843Y615393D01*
X825858Y615413D01*
X825886Y615507D01*
X825921Y615598D01*
X825924Y615631D01*
X825929Y615647D01*
X825928Y615672D01*
X825935Y615745D01*
X825935Y617226D01*
X825931Y617250D01*
X825934Y617275D01*
X825912Y617370D01*
X825896Y617467D01*
X825884Y617488D01*
X825878Y617512D01*
X825827Y617596D01*
X825781Y617682D01*
X825763Y617699D01*
X825750Y617720D01*
X825674Y617782D01*
X825603Y617849D01*
X825580Y617859D01*
X825561Y617875D01*
X825470Y617909D01*
X825380Y617950D01*
X825356Y617952D01*
X825333Y617961D01*
X825186Y617975D01*
X824868Y617975D01*
X823975Y618868D01*
X823975Y626632D01*
X824868Y627525D01*
X835132Y627525D01*
X836025Y626632D01*
X836025Y618868D01*
X835132Y617975D01*
X834814Y617975D01*
X834790Y617971D01*
X834765Y617974D01*
X834670Y617952D01*
X834573Y617936D01*
X834552Y617924D01*
X834528Y617918D01*
X834444Y617867D01*
X834358Y617821D01*
X834341Y617803D01*
X834320Y617790D01*
X834258Y617714D01*
X834191Y617643D01*
X834181Y617620D01*
X834165Y617601D01*
X834131Y617510D01*
X834090Y617420D01*
X834088Y617396D01*
X834079Y617373D01*
X834065Y617226D01*
X834065Y615745D01*
X834081Y615648D01*
X834090Y615552D01*
X834100Y615529D01*
X834104Y615504D01*
X834150Y615418D01*
X834191Y615329D01*
X834212Y615304D01*
X834219Y615289D01*
X834238Y615272D01*
X834284Y615215D01*
X835303Y614196D01*
X835303Y609804D01*
X832196Y606697D01*
X827804Y606697D01*
G37*
%LPD*%
%LPC*%
G36*
X1178383Y411871D02*
X1178383Y411871D01*
X1175395Y413109D01*
X1173109Y415395D01*
X1171871Y418383D01*
X1171871Y421617D01*
X1173109Y424605D01*
X1175395Y426891D01*
X1178383Y428129D01*
X1181617Y428129D01*
X1184605Y426891D01*
X1186891Y424605D01*
X1188129Y421617D01*
X1188129Y418383D01*
X1186891Y415395D01*
X1184605Y413109D01*
X1181617Y411871D01*
X1178383Y411871D01*
G37*
%LPD*%
G36*
X1062472Y523055D02*
X1062472Y523055D01*
X1062474Y523054D01*
X1062517Y523074D01*
X1062561Y523092D01*
X1062561Y523094D01*
X1062563Y523095D01*
X1062596Y523180D01*
X1062596Y529020D01*
X1062595Y529022D01*
X1062596Y529024D01*
X1062576Y529067D01*
X1062558Y529111D01*
X1062556Y529111D01*
X1062555Y529113D01*
X1062470Y529146D01*
X1042930Y529146D01*
X1042928Y529145D01*
X1042926Y529146D01*
X1042883Y529126D01*
X1042839Y529108D01*
X1042839Y529106D01*
X1042837Y529105D01*
X1042804Y529020D01*
X1042804Y523180D01*
X1042805Y523178D01*
X1042804Y523176D01*
X1042824Y523133D01*
X1042842Y523089D01*
X1042844Y523089D01*
X1042845Y523087D01*
X1042930Y523054D01*
X1062470Y523054D01*
X1062472Y523055D01*
G37*
G36*
X1062472Y503055D02*
X1062472Y503055D01*
X1062474Y503054D01*
X1062517Y503074D01*
X1062561Y503092D01*
X1062561Y503094D01*
X1062563Y503095D01*
X1062596Y503180D01*
X1062596Y509020D01*
X1062595Y509022D01*
X1062596Y509024D01*
X1062576Y509067D01*
X1062558Y509111D01*
X1062556Y509111D01*
X1062555Y509113D01*
X1062470Y509146D01*
X1042930Y509146D01*
X1042928Y509145D01*
X1042926Y509146D01*
X1042883Y509126D01*
X1042839Y509108D01*
X1042839Y509106D01*
X1042837Y509105D01*
X1042804Y509020D01*
X1042804Y503180D01*
X1042805Y503178D01*
X1042804Y503176D01*
X1042824Y503133D01*
X1042842Y503089D01*
X1042844Y503089D01*
X1042845Y503087D01*
X1042930Y503054D01*
X1062470Y503054D01*
X1062472Y503055D01*
G37*
%LPC*%
G36*
X1045643Y485873D02*
X1045643Y485873D01*
X1045643Y492684D01*
X1045816Y493331D01*
X1046151Y493910D01*
X1046522Y494281D01*
X1046550Y494320D01*
X1046585Y494352D01*
X1046621Y494419D01*
X1046665Y494481D01*
X1046679Y494526D01*
X1046702Y494569D01*
X1046715Y494643D01*
X1046738Y494716D01*
X1046736Y494764D01*
X1046745Y494811D01*
X1046733Y494886D01*
X1046731Y494962D01*
X1046715Y495007D01*
X1046708Y495054D01*
X1046673Y495121D01*
X1046647Y495193D01*
X1046617Y495230D01*
X1046595Y495273D01*
X1046540Y495325D01*
X1046493Y495385D01*
X1046453Y495411D01*
X1046418Y495444D01*
X1046350Y495477D01*
X1046286Y495518D01*
X1046240Y495529D01*
X1046196Y495550D01*
X1046121Y495559D01*
X1046048Y495578D01*
X1046000Y495574D01*
X1045952Y495580D01*
X1045825Y495560D01*
X1045812Y495559D01*
X1044961Y495559D01*
X1044961Y499879D01*
X1051939Y499879D01*
X1051939Y495559D01*
X1051700Y495559D01*
X1051680Y495556D01*
X1051661Y495558D01*
X1051559Y495536D01*
X1051457Y495520D01*
X1051440Y495510D01*
X1051420Y495506D01*
X1051331Y495453D01*
X1051240Y495404D01*
X1051226Y495390D01*
X1051209Y495380D01*
X1051142Y495301D01*
X1051071Y495226D01*
X1051062Y495208D01*
X1051049Y495193D01*
X1051010Y495097D01*
X1050967Y495003D01*
X1050965Y494983D01*
X1050957Y494965D01*
X1050939Y494798D01*
X1050939Y485873D01*
X1045643Y485873D01*
G37*
%LPD*%
%LPC*%
G36*
X572819Y412949D02*
X572819Y412949D01*
X572819Y423300D01*
X574116Y423095D01*
X575903Y422514D01*
X577577Y421661D01*
X579097Y420556D01*
X580426Y419227D01*
X581531Y417707D01*
X582384Y416033D01*
X582965Y414246D01*
X583170Y412949D01*
X572819Y412949D01*
G37*
%LPD*%
%LPC*%
G36*
X572819Y409951D02*
X572819Y409951D01*
X583170Y409951D01*
X582965Y408654D01*
X582384Y406867D01*
X581531Y405193D01*
X580426Y403673D01*
X579097Y402344D01*
X577577Y401239D01*
X575903Y400386D01*
X574116Y399805D01*
X572819Y399600D01*
X572819Y409951D01*
G37*
%LPD*%
%LPC*%
G36*
X559470Y412949D02*
X559470Y412949D01*
X559675Y414246D01*
X560256Y416033D01*
X561109Y417707D01*
X562214Y419227D01*
X563543Y420556D01*
X565063Y421661D01*
X566737Y422514D01*
X568524Y423095D01*
X569821Y423300D01*
X569821Y412949D01*
X559470Y412949D01*
G37*
%LPD*%
%LPC*%
G36*
X568524Y399805D02*
X568524Y399805D01*
X566737Y400386D01*
X565063Y401239D01*
X563543Y402344D01*
X562214Y403673D01*
X561109Y405193D01*
X560256Y406867D01*
X559675Y408654D01*
X559470Y409951D01*
X569821Y409951D01*
X569821Y399600D01*
X568524Y399805D01*
G37*
%LPD*%
%LPC*%
G36*
X230799Y459939D02*
X230799Y459939D01*
X230799Y469776D01*
X231977Y469589D01*
X233688Y469033D01*
X235291Y468216D01*
X236747Y467159D01*
X238019Y465887D01*
X239076Y464431D01*
X239893Y462828D01*
X240449Y461117D01*
X240636Y459939D01*
X230799Y459939D01*
G37*
%LPD*%
%LPC*%
G36*
X231459Y265809D02*
X231459Y265809D01*
X231459Y275646D01*
X232637Y275459D01*
X234348Y274903D01*
X235951Y274086D01*
X237407Y273029D01*
X238679Y271757D01*
X239736Y270301D01*
X240553Y268698D01*
X241109Y266987D01*
X241296Y265809D01*
X231459Y265809D01*
G37*
%LPD*%
%LPC*%
G36*
X195179Y85199D02*
X195179Y85199D01*
X195179Y95036D01*
X196357Y94849D01*
X198068Y94293D01*
X199671Y93476D01*
X201127Y92419D01*
X202399Y91147D01*
X203456Y89691D01*
X204273Y88088D01*
X204829Y86377D01*
X205016Y85199D01*
X195179Y85199D01*
G37*
%LPD*%
%LPC*%
G36*
X182344Y85199D02*
X182344Y85199D01*
X182531Y86377D01*
X183087Y88088D01*
X183904Y89691D01*
X184961Y91147D01*
X186233Y92419D01*
X187689Y93476D01*
X189292Y94293D01*
X191003Y94849D01*
X192181Y95036D01*
X192181Y85199D01*
X182344Y85199D01*
G37*
%LPD*%
%LPC*%
G36*
X218624Y265809D02*
X218624Y265809D01*
X218811Y266987D01*
X219367Y268698D01*
X220184Y270301D01*
X221241Y271757D01*
X222513Y273029D01*
X223969Y274086D01*
X225572Y274903D01*
X227283Y275459D01*
X228461Y275646D01*
X228461Y265809D01*
X218624Y265809D01*
G37*
%LPD*%
%LPC*%
G36*
X217964Y459939D02*
X217964Y459939D01*
X218151Y461117D01*
X218707Y462828D01*
X219524Y464431D01*
X220581Y465887D01*
X221853Y467159D01*
X223309Y468216D01*
X224912Y469033D01*
X226623Y469589D01*
X227801Y469776D01*
X227801Y459939D01*
X217964Y459939D01*
G37*
%LPD*%
%LPC*%
G36*
X231459Y262811D02*
X231459Y262811D01*
X241296Y262811D01*
X241109Y261633D01*
X240553Y259922D01*
X239736Y258319D01*
X238679Y256863D01*
X237407Y255591D01*
X235951Y254534D01*
X234348Y253717D01*
X232637Y253161D01*
X231459Y252974D01*
X231459Y262811D01*
G37*
%LPD*%
%LPC*%
G36*
X230799Y456941D02*
X230799Y456941D01*
X240636Y456941D01*
X240449Y455763D01*
X239893Y454052D01*
X239076Y452449D01*
X238019Y450993D01*
X236747Y449721D01*
X235291Y448664D01*
X233688Y447847D01*
X231977Y447291D01*
X230799Y447104D01*
X230799Y456941D01*
G37*
%LPD*%
%LPC*%
G36*
X195179Y82201D02*
X195179Y82201D01*
X205016Y82201D01*
X204829Y81023D01*
X204273Y79312D01*
X203456Y77709D01*
X202399Y76253D01*
X201127Y74981D01*
X199671Y73924D01*
X198068Y73107D01*
X196357Y72551D01*
X195179Y72364D01*
X195179Y82201D01*
G37*
%LPD*%
%LPC*%
G36*
X227283Y253161D02*
X227283Y253161D01*
X225572Y253717D01*
X223969Y254534D01*
X222513Y255591D01*
X221241Y256863D01*
X220184Y258319D01*
X219367Y259922D01*
X218811Y261633D01*
X218624Y262811D01*
X228461Y262811D01*
X228461Y252974D01*
X227283Y253161D01*
G37*
%LPD*%
%LPC*%
G36*
X226623Y447291D02*
X226623Y447291D01*
X224912Y447847D01*
X223309Y448664D01*
X221853Y449721D01*
X220581Y450993D01*
X219524Y452449D01*
X218707Y454052D01*
X218151Y455763D01*
X217964Y456941D01*
X227801Y456941D01*
X227801Y447104D01*
X226623Y447291D01*
G37*
%LPD*%
%LPC*%
G36*
X191003Y72551D02*
X191003Y72551D01*
X189292Y73107D01*
X187689Y73924D01*
X186233Y74981D01*
X184961Y76253D01*
X183904Y77709D01*
X183087Y79312D01*
X182531Y81023D01*
X182344Y82201D01*
X192181Y82201D01*
X192181Y72364D01*
X191003Y72551D01*
G37*
%LPD*%
%LPC*%
G36*
X846203Y149993D02*
X846203Y149993D01*
X846203Y158422D01*
X847055Y158287D01*
X848558Y157799D01*
X849967Y157082D01*
X851245Y156153D01*
X852363Y155035D01*
X853292Y153757D01*
X854009Y152348D01*
X854497Y150845D01*
X854632Y149993D01*
X846203Y149993D01*
G37*
%LPD*%
%LPC*%
G36*
X846203Y146995D02*
X846203Y146995D01*
X854632Y146995D01*
X854497Y146143D01*
X854009Y144640D01*
X853292Y143231D01*
X852363Y141953D01*
X851245Y140835D01*
X849967Y139906D01*
X848558Y139189D01*
X847055Y138701D01*
X846203Y138566D01*
X846203Y146995D01*
G37*
%LPD*%
%LPC*%
G36*
X834776Y149993D02*
X834776Y149993D01*
X834911Y150845D01*
X835399Y152348D01*
X836116Y153757D01*
X837045Y155035D01*
X838163Y156153D01*
X839441Y157082D01*
X840850Y157799D01*
X842353Y158287D01*
X843205Y158422D01*
X843205Y149993D01*
X834776Y149993D01*
G37*
%LPD*%
%LPC*%
G36*
X842353Y138701D02*
X842353Y138701D01*
X840850Y139189D01*
X839441Y139906D01*
X838163Y140835D01*
X837045Y141953D01*
X836116Y143231D01*
X835399Y144640D01*
X834911Y146143D01*
X834776Y146995D01*
X843205Y146995D01*
X843205Y138566D01*
X842353Y138701D01*
G37*
%LPD*%
%LPC*%
G36*
X1084541Y463013D02*
X1084541Y463013D01*
X1084541Y472031D01*
X1087630Y472031D01*
X1088277Y471858D01*
X1088856Y471523D01*
X1089329Y471050D01*
X1089664Y470471D01*
X1089837Y469824D01*
X1089837Y463013D01*
X1084541Y463013D01*
G37*
%LPD*%
%LPC*%
G36*
X1084541Y473809D02*
X1084541Y473809D01*
X1084541Y482827D01*
X1089837Y482827D01*
X1089837Y476016D01*
X1089664Y475369D01*
X1089329Y474790D01*
X1088856Y474317D01*
X1088277Y473982D01*
X1087630Y473809D01*
X1084541Y473809D01*
G37*
%LPD*%
%LPC*%
G36*
X1084541Y450949D02*
X1084541Y450949D01*
X1084541Y459967D01*
X1089837Y459967D01*
X1089837Y453156D01*
X1089664Y452509D01*
X1089329Y451930D01*
X1088856Y451457D01*
X1088277Y451122D01*
X1087630Y450949D01*
X1084541Y450949D01*
G37*
%LPD*%
%LPC*%
G36*
X1109903Y473683D02*
X1109903Y473683D01*
X1109903Y478979D01*
X1118921Y478979D01*
X1118921Y475890D01*
X1118748Y475243D01*
X1118413Y474664D01*
X1117940Y474191D01*
X1117361Y473856D01*
X1116714Y473683D01*
X1109903Y473683D01*
G37*
%LPD*%
%LPC*%
G36*
X1045643Y463013D02*
X1045643Y463013D01*
X1045643Y469824D01*
X1045816Y470471D01*
X1046151Y471050D01*
X1046624Y471523D01*
X1047203Y471858D01*
X1047850Y472031D01*
X1050939Y472031D01*
X1050939Y463013D01*
X1045643Y463013D01*
G37*
%LPD*%
%LPC*%
G36*
X1047850Y473809D02*
X1047850Y473809D01*
X1047203Y473982D01*
X1046624Y474317D01*
X1046151Y474790D01*
X1045816Y475369D01*
X1045643Y476016D01*
X1045643Y482827D01*
X1050939Y482827D01*
X1050939Y473809D01*
X1047850Y473809D01*
G37*
%LPD*%
%LPC*%
G36*
X1047850Y450949D02*
X1047850Y450949D01*
X1047203Y451122D01*
X1046624Y451457D01*
X1046151Y451930D01*
X1045816Y452509D01*
X1045643Y453156D01*
X1045643Y459967D01*
X1050939Y459967D01*
X1050939Y450949D01*
X1047850Y450949D01*
G37*
%LPD*%
%LPC*%
G36*
X1100046Y473683D02*
X1100046Y473683D01*
X1099399Y473856D01*
X1098820Y474191D01*
X1098347Y474664D01*
X1098012Y475243D01*
X1097839Y475890D01*
X1097839Y478979D01*
X1106857Y478979D01*
X1106857Y473683D01*
X1100046Y473683D01*
G37*
%LPD*%
G36*
X1095791Y517850D02*
X1095791Y517850D01*
X1095863Y517852D01*
X1095912Y517870D01*
X1095963Y517878D01*
X1096026Y517912D01*
X1096094Y517936D01*
X1096134Y517969D01*
X1096180Y517993D01*
X1096230Y518045D01*
X1096286Y518090D01*
X1096314Y518134D01*
X1096350Y518172D01*
X1096380Y518237D01*
X1096419Y518297D01*
X1096431Y518348D01*
X1096453Y518395D01*
X1096461Y518466D01*
X1096479Y518536D01*
X1096475Y518588D01*
X1096480Y518639D01*
X1096465Y518709D01*
X1096460Y518781D01*
X1096439Y518829D01*
X1096428Y518880D01*
X1096391Y518941D01*
X1096363Y519007D01*
X1096319Y519063D01*
X1096302Y519091D01*
X1096284Y519106D01*
X1096258Y519138D01*
X1096184Y519192D01*
X1096115Y519251D01*
X1096085Y519263D01*
X1096058Y519282D01*
X1095971Y519309D01*
X1095887Y519343D01*
X1095846Y519347D01*
X1095823Y519354D01*
X1095791Y519353D01*
X1095720Y519361D01*
X1091870Y519361D01*
X1091850Y519358D01*
X1091831Y519360D01*
X1091729Y519338D01*
X1091627Y519322D01*
X1091610Y519312D01*
X1091590Y519308D01*
X1091501Y519255D01*
X1091410Y519207D01*
X1091396Y519192D01*
X1091379Y519182D01*
X1091312Y519103D01*
X1091241Y519028D01*
X1091232Y519010D01*
X1091219Y518995D01*
X1091180Y518899D01*
X1091137Y518805D01*
X1091135Y518785D01*
X1091127Y518767D01*
X1091109Y518600D01*
X1091112Y518580D01*
X1091110Y518561D01*
X1091110Y518560D01*
X1091132Y518459D01*
X1091149Y518357D01*
X1091158Y518340D01*
X1091162Y518320D01*
X1091215Y518231D01*
X1091264Y518140D01*
X1091278Y518126D01*
X1091288Y518109D01*
X1091367Y518042D01*
X1091442Y517970D01*
X1091460Y517962D01*
X1091475Y517949D01*
X1091571Y517910D01*
X1091665Y517867D01*
X1091685Y517865D01*
X1091703Y517857D01*
X1091870Y517839D01*
X1095720Y517839D01*
X1095791Y517850D01*
G37*
%LPC*%
G36*
X229299Y458439D02*
X229299Y458439D01*
X229299Y458441D01*
X229301Y458441D01*
X229301Y458439D01*
X229299Y458439D01*
G37*
%LPD*%
%LPC*%
G36*
X571319Y411449D02*
X571319Y411449D01*
X571319Y411451D01*
X571321Y411451D01*
X571321Y411449D01*
X571319Y411449D01*
G37*
%LPD*%
%LPC*%
G36*
X229959Y264309D02*
X229959Y264309D01*
X229959Y264311D01*
X229961Y264311D01*
X229961Y264309D01*
X229959Y264309D01*
G37*
%LPD*%
%LPC*%
G36*
X193679Y83699D02*
X193679Y83699D01*
X193679Y83701D01*
X193681Y83701D01*
X193681Y83699D01*
X193679Y83699D01*
G37*
%LPD*%
%LPC*%
G36*
X844703Y148493D02*
X844703Y148493D01*
X844703Y148495D01*
X844705Y148495D01*
X844705Y148493D01*
X844703Y148493D01*
G37*
%LPD*%
D10*
X545920Y411450D03*
X571320Y411450D03*
X596720Y411450D03*
X622120Y411450D03*
D11*
X229300Y636240D03*
X254700Y636240D03*
X280100Y636240D03*
X305500Y636240D03*
X330900Y636240D03*
X356300Y636240D03*
X229300Y458440D03*
X254700Y458440D03*
X280100Y458440D03*
X305500Y458440D03*
X330900Y458440D03*
X356300Y458440D03*
D12*
X895504Y351186D03*
D13*
X870104Y351186D03*
X844704Y351186D03*
X819304Y351186D03*
X793904Y351186D03*
X768504Y351186D03*
X743104Y351186D03*
X717704Y351186D03*
X692304Y351186D03*
X666904Y351186D03*
X641504Y351186D03*
X616104Y351186D03*
X590704Y351186D03*
X565304Y351186D03*
D12*
X895504Y148494D03*
D13*
X870104Y148494D03*
X844704Y148494D03*
X819304Y148494D03*
X793904Y148494D03*
X768504Y148494D03*
X743104Y148494D03*
X717704Y148494D03*
X692304Y148494D03*
X666904Y148494D03*
X641504Y148494D03*
X616104Y148494D03*
X590704Y148494D03*
X565304Y148494D03*
D14*
X200030Y198000D03*
X365130Y198000D03*
D11*
X193680Y83700D03*
X219080Y83700D03*
X244480Y83700D03*
X269880Y83700D03*
X295280Y83700D03*
X320680Y83700D03*
X346080Y83700D03*
X371480Y83700D03*
X229960Y264310D03*
X255360Y264310D03*
X280760Y264310D03*
X306160Y264310D03*
X331560Y264310D03*
X356960Y264310D03*
X255360Y391310D03*
X280760Y391310D03*
X306160Y391310D03*
X331560Y391310D03*
D15*
X1180000Y420000D03*
X1180000Y399934D03*
X1180000Y380122D03*
D16*
X1197018Y364882D03*
D17*
X960000Y585000D03*
D18*
X910000Y585000D03*
D13*
X990000Y635000D03*
X880000Y635000D03*
D19*
X1080700Y530040D03*
D20*
X1074200Y528640D03*
X1067700Y528640D03*
D21*
X1061200Y531560D03*
X1052700Y531560D03*
X1044200Y531560D03*
X1044200Y500640D03*
X1052700Y500640D03*
X1061200Y500640D03*
D20*
X1067700Y503560D03*
X1074200Y503560D03*
D22*
X1080700Y501660D03*
D23*
X1089640Y503600D03*
X1089640Y508600D03*
D24*
X1087740Y513600D03*
X1087740Y518600D03*
D23*
X1089640Y523600D03*
X1089640Y528600D03*
D25*
X1070950Y518600D03*
X1070950Y513600D03*
D26*
X1083018Y461490D03*
X1052462Y461490D03*
X1083018Y484350D03*
X1052462Y484350D03*
D27*
X1108380Y511058D03*
X1108380Y480502D03*
D28*
X1085139Y554200D03*
X1096061Y554200D03*
D29*
X1100312Y531340D03*
X1111368Y531340D03*
D30*
X1101141Y522450D03*
X1110539Y522450D03*
D31*
X1063930Y546707D03*
X1063930Y561693D03*
D32*
X1082822Y541500D03*
X1098378Y541500D03*
D33*
X1115400Y635000D03*
D34*
X1064600Y635000D03*
D35*
X830000Y637250D03*
X830000Y622750D03*
D36*
X106680Y487240D03*
X106680Y482240D03*
X106680Y477240D03*
X106680Y472240D03*
X106680Y467240D03*
X106680Y462240D03*
X106680Y457240D03*
X106680Y452240D03*
X106680Y447240D03*
X106680Y442240D03*
X106680Y437240D03*
X106680Y432240D03*
D37*
X106680Y495740D03*
X106680Y423740D03*
D36*
X106680Y347540D03*
X106680Y342540D03*
X106680Y337540D03*
X106680Y332540D03*
X106680Y327540D03*
X106680Y322540D03*
X106680Y317540D03*
X106680Y312540D03*
X106680Y307540D03*
X106680Y302540D03*
X106680Y297540D03*
X106680Y292540D03*
D37*
X106680Y356040D03*
X106680Y284040D03*
D38*
X794580Y647700D03*
X789580Y647700D03*
X784580Y647700D03*
X779580Y647700D03*
X774580Y647700D03*
X769580Y647700D03*
X764580Y647700D03*
X759580Y647700D03*
X754580Y647700D03*
X749580Y647700D03*
X744580Y647700D03*
X739580Y647700D03*
D39*
X803080Y647700D03*
X731080Y647700D03*
D38*
X742120Y71120D03*
X747120Y71120D03*
X752120Y71120D03*
X757120Y71120D03*
X762120Y71120D03*
X767120Y71120D03*
X772120Y71120D03*
X777120Y71120D03*
X782120Y71120D03*
X787120Y71120D03*
X792120Y71120D03*
X797120Y71120D03*
D39*
X733620Y71120D03*
X805620Y71120D03*
D40*
X1117270Y470380D03*
X1117270Y462760D03*
X1117270Y455140D03*
X1109650Y455140D03*
X1109650Y462760D03*
X1109650Y470380D03*
X1095680Y470380D03*
X1095680Y462760D03*
X1095680Y455140D03*
X1093140Y479270D03*
X1093140Y486890D03*
X1093140Y494510D03*
D13*
X830000Y655000D03*
D41*
X717704Y148494D02*
X669210Y100000D01*
X430000Y100000D01*
X390000Y60000D01*
X290000Y60000D01*
X269880Y80120D01*
X269880Y83700D01*
X306160Y119980D01*
X305500Y445500D02*
X305500Y458440D01*
X305500Y470500D01*
X320000Y485000D01*
X565000Y485000D01*
X622120Y427880D02*
X622120Y411450D01*
X622120Y427880D02*
X565000Y485000D01*
X350000Y385000D02*
X306160Y341160D01*
X350000Y401000D02*
X305500Y445500D01*
X306160Y341160D02*
X306160Y264310D01*
X350000Y385000D02*
X350000Y401000D01*
X306160Y264310D02*
X306160Y119980D01*
X658810Y115000D02*
X692304Y148494D01*
X585000Y445000D02*
X435000Y445000D01*
X585000Y445000D02*
X596720Y433280D01*
X596720Y411450D01*
X385000Y395000D02*
X331560Y341560D01*
X385000Y395000D02*
X390000Y400000D01*
X394670Y404670D01*
X435000Y445000D01*
X331560Y341560D02*
X331560Y264310D01*
X389340Y400000D02*
X390000Y400000D01*
X384670Y404670D02*
X330900Y458440D01*
X384670Y404670D02*
X389340Y400000D01*
X384670Y404670D02*
X394670Y404670D01*
X384670Y404670D02*
X384670Y395330D01*
X385000Y395000D01*
X340000Y115000D02*
X658810Y115000D01*
X332500Y107500D02*
X320680Y95680D01*
X332500Y107500D02*
X340000Y115000D01*
X320680Y95680D02*
X320680Y83700D01*
X331560Y123440D02*
X331560Y264310D01*
X331560Y123440D02*
X340000Y115000D01*
X331560Y115000D02*
X331560Y264310D01*
X331560Y115000D02*
X331560Y108440D01*
X332500Y107500D01*
X331560Y115000D02*
X340000Y115000D01*
D42*
X1014600Y585000D02*
X1064600Y635000D01*
X1014600Y585000D02*
X960000Y585000D01*
D40*
X1104570Y554200D03*
X1043610Y461490D03*
D43*
X1096061Y554200D02*
X1104570Y554200D01*
D44*
X1098378Y551883D02*
X1096061Y554200D01*
X1098378Y551883D02*
X1098378Y541500D01*
D40*
X1065200Y438630D03*
X1065200Y431010D03*
X1057580Y438630D03*
X1057580Y431010D03*
X1057580Y448790D03*
X1043610Y472920D03*
X1043610Y484350D03*
D41*
X870104Y234896D02*
X870104Y148494D01*
D45*
X870104Y234896D02*
X870000Y235000D01*
D46*
X870000Y235000D03*
X870000Y265000D03*
D41*
X925000Y320000D01*
X925000Y370000D01*
X986010Y431010D01*
X1057580Y431010D01*
D47*
X865000Y130000D02*
X795400Y130000D01*
X865000Y130000D02*
X870104Y135104D01*
X870104Y148494D01*
X795400Y130000D02*
X782120Y116720D01*
X756690Y91290D01*
X756690Y71550D01*
X757120Y71120D01*
X782120Y71120D02*
X782120Y116720D01*
X976150Y438630D02*
X1057580Y438630D01*
X779580Y635200D02*
X779580Y647700D01*
X782320Y632460D02*
X976150Y438630D01*
X782320Y632460D02*
X779780Y635000D01*
X754580Y634800D02*
X754580Y647700D01*
X754580Y634800D02*
X756920Y632460D01*
X776840Y632460D01*
X779580Y635200D01*
X779780Y632460D02*
X782320Y632460D01*
X779780Y632460D02*
X752240Y632460D01*
X726440Y632460D01*
X591820Y497840D01*
X149860Y497840D01*
X124260Y472240D02*
X121920Y472240D01*
X106680Y472240D01*
X124260Y472240D02*
X149860Y497840D01*
X121920Y472240D02*
X124460Y469700D01*
X124460Y449580D01*
X122120Y447240D01*
X106680Y447240D01*
X122120Y447240D02*
X124460Y444900D01*
X124460Y335280D02*
X121720Y332540D01*
X124460Y335280D02*
X124460Y444900D01*
X121720Y332540D02*
X124460Y329800D01*
X124460Y312420D01*
X752240Y632460D02*
X754580Y634800D01*
X779780Y635000D02*
X779780Y632460D01*
X779780Y635000D02*
X779580Y635200D01*
X119580Y307540D02*
X106680Y307540D01*
X119580Y307540D02*
X124460Y312420D01*
X124460Y329800D02*
X124460Y332740D01*
X124460Y335280D01*
X124460Y444900D02*
X124460Y449580D01*
X124460Y469700D02*
X124460Y472040D01*
X124260Y472240D01*
X124460Y332740D02*
X124260Y332540D01*
X106680Y332540D01*
D43*
X1102830Y516608D02*
X1108380Y511058D01*
X1102830Y516608D02*
X1097339Y516608D01*
X1095347Y518600D02*
X1087740Y518600D01*
X1095347Y518600D02*
X1097339Y516608D01*
D42*
X1145000Y590400D02*
X1115400Y620000D01*
X1115400Y635000D01*
X1145000Y590400D02*
X1145000Y535000D01*
X1145000Y520000D01*
X1145000Y510000D01*
X1145000Y500000D01*
X1145000Y420000D01*
X1165066Y399934D01*
X1180000Y399934D01*
D45*
X1108380Y511058D02*
X1110539Y513217D01*
X1110539Y522450D01*
X1115000Y522450D01*
X1120000Y522450D01*
X1125000Y522450D01*
X1130000Y522450D01*
X1132450Y522450D01*
D41*
X1133942Y511058D02*
X1143942Y511058D01*
X1145000Y510000D01*
X1132450Y522450D02*
X1145000Y535000D01*
X1133942Y511058D02*
X1145000Y500000D01*
X1133942Y511058D02*
X1108380Y511058D01*
X1112322Y515000D01*
X1140000Y515000D02*
X1145000Y520000D01*
X1120000Y515000D02*
X1112322Y515000D01*
X1120000Y515000D02*
X1125000Y515000D01*
X1130000Y515000D01*
X1135000Y515000D02*
X1140000Y515000D01*
X1135000Y515000D02*
X1130000Y515000D01*
X1135000Y522450D02*
X1140000Y522450D01*
X1135000Y522450D02*
X1132450Y522450D01*
D45*
X1115000Y517678D02*
X1108380Y511058D01*
X1115000Y517678D02*
X1115000Y522450D01*
X1120000Y522450D02*
X1120000Y515000D01*
X1125000Y515000D02*
X1125000Y522450D01*
X1130000Y520000D02*
X1130000Y515000D01*
X1130000Y520000D02*
X1130000Y522450D01*
X1135000Y522450D02*
X1135000Y515000D01*
X1142550Y522450D02*
X1145000Y520000D01*
X1142550Y522450D02*
X1140000Y522450D01*
X1145000Y520000D02*
X1130000Y520000D01*
D48*
X1180000Y380122D02*
X1180000Y365122D01*
X1064878Y250000D01*
X641504Y166504D02*
X641504Y148494D01*
X725000Y250000D02*
X1064878Y250000D01*
X725000Y250000D02*
X641504Y166504D01*
D41*
X1080700Y530040D02*
X1080700Y549761D01*
X1085139Y554200D01*
X1080700Y558893D02*
X1080700Y530040D01*
X1080700Y558893D02*
X1077900Y561693D01*
X1063930Y561693D01*
D44*
X1082822Y541500D02*
X1080700Y539378D01*
X1080700Y530040D01*
D43*
X1097799Y525792D02*
X1101141Y522450D01*
X1090068Y524028D02*
X1089640Y523600D01*
X1094205Y524028D02*
X1095969Y525792D01*
X1094205Y524028D02*
X1090068Y524028D01*
X1095969Y525792D02*
X1097799Y525792D01*
X1100312Y531340D02*
X1092380Y531340D01*
X1089640Y528600D01*
D40*
X1072820Y538960D03*
D43*
X1074200Y537580D02*
X1074200Y528640D01*
X1074200Y537580D02*
X1072820Y538960D01*
D40*
X1110920Y538960D03*
D43*
X1111368Y538512D01*
X1111368Y531340D01*
D44*
X1067700Y534763D02*
X1066232Y536231D01*
X1067700Y534763D02*
X1067700Y528640D01*
X1066232Y544405D02*
X1063930Y546707D01*
X1066232Y544405D02*
X1066232Y536231D01*
D49*
X830000Y612000D03*
D45*
X830000Y622750D01*
D12*
X850000Y655000D03*
D45*
X841250Y637250D02*
X830000Y637250D01*
X841250Y637250D02*
X850000Y646000D01*
X850000Y655000D01*
M02*
