G04 EAGLE Gerber RS-274X export*
G75*
%MOMM*%
%FSLAX34Y34*%
%LPD*%
%INSolderpaste Bottom*%
%IPPOS*%
%AMOC8*
5,1,8,0,0,1.08239X$1,22.5*%
G01*
%ADD10R,1.400000X0.300000*%
%ADD11R,1.400000X0.700000*%
%ADD12R,0.300000X1.400000*%
%ADD13R,0.700000X1.400000*%


D10*
X106680Y432240D03*
X106680Y437240D03*
X106680Y442240D03*
X106680Y447240D03*
X106680Y452240D03*
X106680Y457240D03*
X106680Y462240D03*
X106680Y467240D03*
X106680Y472240D03*
X106680Y477240D03*
X106680Y482240D03*
X106680Y487240D03*
D11*
X106680Y423740D03*
X106680Y495740D03*
D10*
X106680Y292540D03*
X106680Y297540D03*
X106680Y302540D03*
X106680Y307540D03*
X106680Y312540D03*
X106680Y317540D03*
X106680Y322540D03*
X106680Y327540D03*
X106680Y332540D03*
X106680Y337540D03*
X106680Y342540D03*
X106680Y347540D03*
D11*
X106680Y284040D03*
X106680Y356040D03*
D12*
X739580Y647700D03*
X744580Y647700D03*
X749580Y647700D03*
X754580Y647700D03*
X759580Y647700D03*
X764580Y647700D03*
X769580Y647700D03*
X774580Y647700D03*
X779580Y647700D03*
X784580Y647700D03*
X789580Y647700D03*
X794580Y647700D03*
D13*
X731080Y647700D03*
X803080Y647700D03*
D12*
X797120Y71120D03*
X792120Y71120D03*
X787120Y71120D03*
X782120Y71120D03*
X777120Y71120D03*
X772120Y71120D03*
X767120Y71120D03*
X762120Y71120D03*
X757120Y71120D03*
X752120Y71120D03*
X747120Y71120D03*
X742120Y71120D03*
D13*
X805620Y71120D03*
X733620Y71120D03*
M02*
