G04 EAGLE Gerber RS-274X export*
G75*
%MOMM*%
%FSLAX34Y34*%
%LPD*%
%INSoldermask Bottom*%
%IPPOS*%
%AMOC8*
5,1,8,0,0,1.08239X$1,22.5*%
G01*
%ADD10C,2.082800*%
%ADD11C,1.981200*%
%ADD12C,2.453200*%
%ADD13R,1.703200X1.703200*%
%ADD14C,1.703200*%
%ADD15C,3.003200*%
%ADD16C,3.503200*%
%ADD17C,3.505200*%
%ADD18C,1.524000*%
%ADD19C,1.993900*%
%ADD20R,2.753200X2.753200*%
%ADD21C,2.753200*%
%ADD22R,1.853200X1.853200*%
%ADD23C,1.853200*%
%ADD24R,1.603200X0.503200*%
%ADD25R,1.603200X0.903200*%
%ADD26R,0.503200X1.603200*%
%ADD27R,0.903200X1.603200*%
%ADD28C,0.758800*%
%ADD29C,0.808800*%
%ADD30C,0.958800*%


D10*
X545920Y411450D03*
X571320Y411450D03*
X596720Y411450D03*
X622120Y411450D03*
D11*
X229300Y636240D03*
X254700Y636240D03*
X280100Y636240D03*
X305500Y636240D03*
X330900Y636240D03*
X356300Y636240D03*
X229300Y458440D03*
X254700Y458440D03*
X280100Y458440D03*
X305500Y458440D03*
X330900Y458440D03*
X356300Y458440D03*
D12*
X1095930Y356540D03*
X1095930Y143140D03*
X476130Y143140D03*
X476130Y356540D03*
D13*
X895504Y351186D03*
D14*
X870104Y351186D03*
X844704Y351186D03*
X819304Y351186D03*
X793904Y351186D03*
X768504Y351186D03*
X743104Y351186D03*
X717704Y351186D03*
X692304Y351186D03*
X666904Y351186D03*
X641504Y351186D03*
X616104Y351186D03*
X590704Y351186D03*
X565304Y351186D03*
D13*
X895504Y148494D03*
D14*
X870104Y148494D03*
X844704Y148494D03*
X819304Y148494D03*
X793904Y148494D03*
X768504Y148494D03*
X743104Y148494D03*
X717704Y148494D03*
X692304Y148494D03*
X666904Y148494D03*
X641504Y148494D03*
X616104Y148494D03*
X590704Y148494D03*
X565304Y148494D03*
D15*
X119960Y634760D03*
X1180000Y630000D03*
X115860Y80260D03*
D16*
X200030Y198000D03*
X365130Y198000D03*
D11*
X193680Y83700D03*
X219080Y83700D03*
X244480Y83700D03*
X269880Y83700D03*
X295280Y83700D03*
X320680Y83700D03*
X346080Y83700D03*
X371480Y83700D03*
X229960Y264310D03*
X255360Y264310D03*
X280760Y264310D03*
X306160Y264310D03*
X331560Y264310D03*
X356960Y264310D03*
X255360Y391310D03*
X280760Y391310D03*
X306160Y391310D03*
X331560Y391310D03*
D17*
X481900Y639920D03*
X685100Y639920D03*
D18*
X1180000Y420000D03*
X1180000Y399934D03*
X1180000Y380122D03*
D19*
X1197018Y364882D03*
D20*
X960000Y585000D03*
D21*
X910000Y585000D03*
D14*
X990000Y635000D03*
X880000Y635000D03*
D22*
X1115400Y635000D03*
D23*
X1064600Y635000D03*
D24*
X106680Y432240D03*
X106680Y437240D03*
X106680Y442240D03*
X106680Y447240D03*
X106680Y452240D03*
X106680Y457240D03*
X106680Y462240D03*
X106680Y467240D03*
X106680Y472240D03*
X106680Y477240D03*
X106680Y482240D03*
X106680Y487240D03*
D25*
X106680Y423740D03*
X106680Y495740D03*
D24*
X106680Y292540D03*
X106680Y297540D03*
X106680Y302540D03*
X106680Y307540D03*
X106680Y312540D03*
X106680Y317540D03*
X106680Y322540D03*
X106680Y327540D03*
X106680Y332540D03*
X106680Y337540D03*
X106680Y342540D03*
X106680Y347540D03*
D25*
X106680Y284040D03*
X106680Y356040D03*
D26*
X739580Y647700D03*
X744580Y647700D03*
X749580Y647700D03*
X754580Y647700D03*
X759580Y647700D03*
X764580Y647700D03*
X769580Y647700D03*
X774580Y647700D03*
X779580Y647700D03*
X784580Y647700D03*
X789580Y647700D03*
X794580Y647700D03*
D27*
X731080Y647700D03*
X803080Y647700D03*
D26*
X797120Y71120D03*
X792120Y71120D03*
X787120Y71120D03*
X782120Y71120D03*
X777120Y71120D03*
X772120Y71120D03*
X767120Y71120D03*
X762120Y71120D03*
X757120Y71120D03*
X752120Y71120D03*
X747120Y71120D03*
X742120Y71120D03*
D27*
X805620Y71120D03*
X733620Y71120D03*
D15*
X1180000Y90000D03*
D28*
X1117270Y470380D03*
X1117270Y462760D03*
X1117270Y455140D03*
X1109650Y455140D03*
X1109650Y462760D03*
X1109650Y470380D03*
X1095680Y470380D03*
X1095680Y462760D03*
X1095680Y455140D03*
X1093140Y479270D03*
X1093140Y486890D03*
X1093140Y494510D03*
D14*
X830000Y655000D03*
D28*
X1104570Y554200D03*
X1043610Y461490D03*
X1065200Y438630D03*
X1065200Y431010D03*
X1057580Y438630D03*
X1057580Y431010D03*
X1057580Y448790D03*
X1043610Y472920D03*
X1043610Y484350D03*
D29*
X870000Y235000D03*
X870000Y265000D03*
D28*
X1072820Y538960D03*
X1110920Y538960D03*
D30*
X830000Y612000D03*
D13*
X850000Y655000D03*
M02*
