M48
;GenerationSoftware,Autodesk,EAGLE,9.6.2*%
;CreationDate,2023-12-10T08:27:16Z*%
FMAT,2
ICI,OFF
METRIC,TZ,000.000
T8C1.000
T7C1.016
T6C1.100
T5C1.194
T4C2.200
T3C2.250
T2C2.800
T1C3.302
%
G90
M71
T1
X59690Y62992
X80010Y62992
T2
X26496Y62976
X118489Y62984
X26586Y9026
T3
X119593Y32654
X119593Y11314
X57613Y11314
X57613Y32654
T4
X87503Y52800
X104013Y52800
T5
X113284Y44831
X113284Y49911
X113284Y54991
T6
X92202Y61214
X87122Y61214
X103505Y61214
X98425Y61214
T7
X66092Y40145
X68632Y40145
X71172Y40145
X73712Y40145
T8
X44550Y44844
X47090Y44844
X49630Y44844
X99550Y32119
X97010Y32119
X94470Y32119
X91930Y32119
X89390Y32119
X86850Y32119
X84310Y32119
X81770Y32119
X79230Y32119
X76690Y32119
X74150Y32119
X71610Y32119
X69070Y32119
X66530Y32119
X99550Y11849
X97010Y11849
X94470Y11849
X91930Y11849
X89390Y11849
X86850Y11849
X84310Y11849
X81770Y11849
X79230Y11849
X76690Y11849
X74150Y11849
X71610Y11849
X69070Y11849
X66530Y11849
X36930Y62624
X39470Y62624
X42010Y62624
X44550Y62624
X47090Y62624
X49630Y62624
X36930Y44844
X39470Y44844
X42010Y44844
X86868Y41370
X89408Y41370
X91948Y41370
X94488Y41370
X97028Y41370
X99568Y41370
X102108Y41370
X104648Y41370
X31496Y19431
X34036Y19431
X36576Y19431
X39116Y19431
X41656Y19431
X44196Y19431
X34036Y32131
X36576Y32131
X39116Y32131
X41656Y32131
M30