M48
;GenerationSoftware,Autodesk,EAGLE,9.6.2*%
;CreationDate,2023-09-27T07:30:12Z*%
FMAT,2
ICI,OFF
METRIC,TZ,000.000
T6C0.900
T5C1.000
T4C1.016
T3C1.100
T2C1.194
T1C2.250
%
G90
M71
T1
X119974Y34686
X119974Y13346
X57994Y13346
X57994Y34686
T2
X116586Y53086
X116586Y58166
X116586Y63246
T3
X100711Y63246
X93853Y63246
X88773Y63246
X105791Y63246
T4
X66854Y41796
X69394Y41796
X71934Y41796
X74474Y41796
T5
X34644Y43066
X37184Y43066
X39724Y43066
X42264Y43066
X44804Y43066
X99931Y34151
X97391Y34151
X94851Y34151
X92311Y34151
X89771Y34151
X87231Y34151
X84691Y34151
X82151Y34151
X79611Y34151
X77071Y34151
X74531Y34151
X71991Y34151
X69451Y34151
X66911Y34151
X99931Y13881
X97391Y13881
X94851Y13881
X92311Y13881
X89771Y13881
X87231Y13881
X84691Y13881
X82151Y13881
X79611Y13881
X77071Y13881
X74531Y13881
X71991Y13881
X69451Y13881
X66911Y13881
X32104Y60846
X34644Y60846
X37184Y60846
X39724Y60846
X42264Y60846
X44804Y60846
X32104Y43066
T6
X27754Y15126
X50614Y32906
X50614Y30366
X50614Y27826
X50614Y25286
X50614Y22746
X50614Y20206
X27754Y17666
X50614Y15126
X27754Y30366
X27754Y27826
X27754Y25286
X27754Y22746
X27754Y20206
X27754Y32906
X50614Y17666
M30