G04 EAGLE Gerber RS-274X export*
G75*
%MOMM*%
%FSLAX34Y34*%
%LPD*%
%INBottom Copper*%
%IPPOS*%
%AMOC8*
5,1,8,0,0,1.08239X$1,22.5*%
G01*
%ADD10C,1.879600*%
%ADD11C,1.778000*%
%ADD12R,1.508000X1.508000*%
%ADD13C,1.508000*%
%ADD14R,1.408000X1.408000*%
%ADD15C,1.408000*%
%ADD16R,1.650000X1.650000*%
%ADD17C,1.650000*%
%ADD18C,1.790700*%

G36*
X1218964Y80775D02*
X1218964Y80775D01*
X1218982Y80773D01*
X1219164Y80794D01*
X1219347Y80813D01*
X1219364Y80818D01*
X1219381Y80820D01*
X1219556Y80877D01*
X1219732Y80931D01*
X1219747Y80939D01*
X1219764Y80945D01*
X1219924Y81035D01*
X1220086Y81123D01*
X1220099Y81134D01*
X1220115Y81143D01*
X1220254Y81263D01*
X1220395Y81380D01*
X1220406Y81394D01*
X1220420Y81406D01*
X1220532Y81551D01*
X1220647Y81694D01*
X1220655Y81710D01*
X1220666Y81724D01*
X1220748Y81889D01*
X1220833Y82051D01*
X1220838Y82068D01*
X1220846Y82084D01*
X1220893Y82263D01*
X1220944Y82438D01*
X1220946Y82456D01*
X1220950Y82473D01*
X1220977Y82804D01*
X1220977Y119514D01*
X1220976Y119523D01*
X1220977Y119532D01*
X1220956Y119724D01*
X1220937Y119915D01*
X1220935Y119923D01*
X1220934Y119932D01*
X1220876Y120114D01*
X1220819Y120300D01*
X1220815Y120308D01*
X1220812Y120316D01*
X1220719Y120484D01*
X1220627Y120654D01*
X1220622Y120660D01*
X1220617Y120668D01*
X1220493Y120815D01*
X1220370Y120963D01*
X1220363Y120968D01*
X1220357Y120975D01*
X1220206Y121094D01*
X1220056Y121215D01*
X1220048Y121219D01*
X1220041Y121225D01*
X1219868Y121313D01*
X1219699Y121401D01*
X1219690Y121403D01*
X1219682Y121407D01*
X1219496Y121459D01*
X1219312Y121512D01*
X1219303Y121513D01*
X1219294Y121515D01*
X1219101Y121529D01*
X1218910Y121545D01*
X1218902Y121544D01*
X1218893Y121545D01*
X1218700Y121520D01*
X1218511Y121498D01*
X1218502Y121495D01*
X1218493Y121494D01*
X1218310Y121433D01*
X1218128Y121373D01*
X1218120Y121369D01*
X1218112Y121366D01*
X1217945Y121270D01*
X1217777Y121175D01*
X1217770Y121170D01*
X1217763Y121165D01*
X1217510Y120950D01*
X1211868Y115309D01*
X1211475Y115146D01*
X1203999Y112049D01*
X1195481Y112049D01*
X1187612Y115309D01*
X1181589Y121332D01*
X1178329Y129201D01*
X1178329Y137719D01*
X1181589Y145588D01*
X1187612Y151611D01*
X1188610Y152024D01*
X1188610Y152025D01*
X1195481Y154871D01*
X1203999Y154871D01*
X1211868Y151611D01*
X1217510Y145970D01*
X1217517Y145964D01*
X1217522Y145957D01*
X1217672Y145837D01*
X1217821Y145715D01*
X1217829Y145710D01*
X1217836Y145705D01*
X1218006Y145616D01*
X1218177Y145526D01*
X1218186Y145523D01*
X1218193Y145519D01*
X1218378Y145466D01*
X1218563Y145411D01*
X1218572Y145410D01*
X1218580Y145408D01*
X1218772Y145392D01*
X1218964Y145375D01*
X1218973Y145376D01*
X1218982Y145375D01*
X1219171Y145397D01*
X1219364Y145418D01*
X1219373Y145421D01*
X1219381Y145422D01*
X1219563Y145481D01*
X1219748Y145540D01*
X1219756Y145544D01*
X1219764Y145547D01*
X1219933Y145642D01*
X1220100Y145735D01*
X1220107Y145740D01*
X1220115Y145745D01*
X1220260Y145870D01*
X1220407Y145995D01*
X1220413Y146002D01*
X1220420Y146008D01*
X1220537Y146159D01*
X1220657Y146311D01*
X1220661Y146319D01*
X1220666Y146326D01*
X1220752Y146498D01*
X1220839Y146670D01*
X1220842Y146678D01*
X1220846Y146686D01*
X1220895Y146872D01*
X1220947Y147058D01*
X1220948Y147067D01*
X1220950Y147075D01*
X1220977Y147406D01*
X1220977Y332914D01*
X1220976Y332923D01*
X1220977Y332932D01*
X1220956Y333124D01*
X1220937Y333315D01*
X1220935Y333323D01*
X1220934Y333332D01*
X1220876Y333514D01*
X1220819Y333700D01*
X1220815Y333708D01*
X1220812Y333716D01*
X1220719Y333884D01*
X1220627Y334054D01*
X1220622Y334060D01*
X1220617Y334068D01*
X1220493Y334215D01*
X1220370Y334363D01*
X1220363Y334368D01*
X1220357Y334375D01*
X1220206Y334494D01*
X1220056Y334615D01*
X1220048Y334619D01*
X1220041Y334625D01*
X1219868Y334713D01*
X1219699Y334801D01*
X1219690Y334803D01*
X1219682Y334807D01*
X1219496Y334859D01*
X1219312Y334912D01*
X1219303Y334913D01*
X1219294Y334915D01*
X1219101Y334929D01*
X1218910Y334945D01*
X1218902Y334944D01*
X1218893Y334945D01*
X1218700Y334920D01*
X1218511Y334898D01*
X1218502Y334895D01*
X1218493Y334894D01*
X1218310Y334833D01*
X1218128Y334773D01*
X1218120Y334769D01*
X1218112Y334766D01*
X1217945Y334670D01*
X1217777Y334575D01*
X1217770Y334570D01*
X1217763Y334565D01*
X1217510Y334350D01*
X1211868Y328709D01*
X1203999Y325449D01*
X1195481Y325449D01*
X1187612Y328709D01*
X1181589Y334732D01*
X1178329Y342601D01*
X1178329Y351119D01*
X1181589Y358988D01*
X1187612Y365011D01*
X1188323Y365306D01*
X1195481Y368271D01*
X1203999Y368271D01*
X1211868Y365011D01*
X1217510Y359370D01*
X1217517Y359364D01*
X1217522Y359357D01*
X1217672Y359237D01*
X1217821Y359115D01*
X1217829Y359110D01*
X1217836Y359105D01*
X1218006Y359016D01*
X1218177Y358926D01*
X1218186Y358923D01*
X1218193Y358919D01*
X1218378Y358866D01*
X1218563Y358811D01*
X1218572Y358810D01*
X1218580Y358808D01*
X1218772Y358792D01*
X1218964Y358775D01*
X1218973Y358776D01*
X1218982Y358775D01*
X1219171Y358797D01*
X1219364Y358818D01*
X1219373Y358821D01*
X1219381Y358822D01*
X1219563Y358881D01*
X1219748Y358940D01*
X1219756Y358944D01*
X1219764Y358947D01*
X1219933Y359042D01*
X1220100Y359135D01*
X1220107Y359140D01*
X1220115Y359145D01*
X1220261Y359271D01*
X1220407Y359395D01*
X1220413Y359402D01*
X1220420Y359408D01*
X1220537Y359559D01*
X1220657Y359711D01*
X1220661Y359719D01*
X1220666Y359726D01*
X1220752Y359898D01*
X1220839Y360070D01*
X1220842Y360078D01*
X1220846Y360086D01*
X1220896Y360273D01*
X1220947Y360458D01*
X1220948Y360467D01*
X1220950Y360475D01*
X1220977Y360806D01*
X1220977Y626687D01*
X1220976Y626696D01*
X1220977Y626705D01*
X1220956Y626897D01*
X1220937Y627088D01*
X1220935Y627097D01*
X1220934Y627106D01*
X1220876Y627288D01*
X1220819Y627473D01*
X1220815Y627481D01*
X1220812Y627489D01*
X1220719Y627658D01*
X1220627Y627827D01*
X1220622Y627834D01*
X1220617Y627842D01*
X1220493Y627989D01*
X1220370Y628136D01*
X1220363Y628142D01*
X1220357Y628149D01*
X1220206Y628268D01*
X1220056Y628389D01*
X1220048Y628393D01*
X1220041Y628398D01*
X1219868Y628486D01*
X1219699Y628574D01*
X1219690Y628577D01*
X1219682Y628581D01*
X1219496Y628633D01*
X1219312Y628686D01*
X1219303Y628686D01*
X1219294Y628689D01*
X1219101Y628703D01*
X1218910Y628718D01*
X1218902Y628717D01*
X1218893Y628718D01*
X1218700Y628694D01*
X1218511Y628672D01*
X1218502Y628669D01*
X1218493Y628668D01*
X1218310Y628606D01*
X1218128Y628547D01*
X1218120Y628542D01*
X1218112Y628539D01*
X1217945Y628443D01*
X1217777Y628349D01*
X1217770Y628343D01*
X1217763Y628338D01*
X1217510Y628124D01*
X1214687Y625301D01*
X1204781Y620254D01*
X1193800Y618515D01*
X1182819Y620254D01*
X1172913Y625301D01*
X1165051Y633163D01*
X1160004Y643069D01*
X1158265Y654050D01*
X1160004Y665031D01*
X1165051Y674937D01*
X1167874Y677760D01*
X1167879Y677767D01*
X1167886Y677772D01*
X1168005Y677920D01*
X1168129Y678071D01*
X1168133Y678079D01*
X1168139Y678086D01*
X1168227Y678256D01*
X1168317Y678427D01*
X1168320Y678436D01*
X1168324Y678443D01*
X1168377Y678628D01*
X1168432Y678813D01*
X1168433Y678822D01*
X1168436Y678830D01*
X1168451Y679021D01*
X1168469Y679214D01*
X1168468Y679223D01*
X1168468Y679232D01*
X1168446Y679421D01*
X1168425Y679614D01*
X1168423Y679623D01*
X1168422Y679631D01*
X1168362Y679813D01*
X1168304Y679998D01*
X1168299Y680006D01*
X1168297Y680014D01*
X1168202Y680183D01*
X1168109Y680350D01*
X1168103Y680357D01*
X1168099Y680365D01*
X1167973Y680511D01*
X1167848Y680657D01*
X1167841Y680663D01*
X1167836Y680670D01*
X1167684Y680787D01*
X1167533Y680907D01*
X1167525Y680911D01*
X1167518Y680916D01*
X1167345Y681002D01*
X1167174Y681089D01*
X1167165Y681092D01*
X1167157Y681096D01*
X1166971Y681146D01*
X1166786Y681197D01*
X1166777Y681198D01*
X1166768Y681200D01*
X1166437Y681227D01*
X294063Y681227D01*
X294054Y681226D01*
X294045Y681227D01*
X293851Y681206D01*
X293662Y681187D01*
X293653Y681185D01*
X293644Y681184D01*
X293460Y681125D01*
X293277Y681069D01*
X293269Y681065D01*
X293261Y681062D01*
X293092Y680969D01*
X292923Y680877D01*
X292916Y680872D01*
X292908Y680867D01*
X292761Y680743D01*
X292614Y680620D01*
X292608Y680613D01*
X292601Y680607D01*
X292482Y680455D01*
X292361Y680306D01*
X292357Y680298D01*
X292352Y680291D01*
X292264Y680118D01*
X292176Y679949D01*
X292173Y679940D01*
X292169Y679932D01*
X292117Y679746D01*
X292064Y679562D01*
X292064Y679553D01*
X292061Y679544D01*
X292047Y679351D01*
X292032Y679160D01*
X292033Y679152D01*
X292032Y679143D01*
X292056Y678950D01*
X292078Y678761D01*
X292081Y678752D01*
X292082Y678743D01*
X292144Y678561D01*
X292203Y678378D01*
X292208Y678370D01*
X292211Y678362D01*
X292307Y678195D01*
X292401Y678027D01*
X292407Y678020D01*
X292412Y678013D01*
X292626Y677760D01*
X295449Y674937D01*
X300496Y665031D01*
X302235Y654050D01*
X300496Y643069D01*
X295449Y633163D01*
X287587Y625301D01*
X277681Y620254D01*
X266700Y618515D01*
X255719Y620254D01*
X245813Y625301D01*
X242990Y628124D01*
X242983Y628129D01*
X242978Y628136D01*
X242828Y628257D01*
X242679Y628379D01*
X242671Y628383D01*
X242664Y628389D01*
X242494Y628477D01*
X242323Y628567D01*
X242314Y628570D01*
X242307Y628574D01*
X242122Y628627D01*
X241937Y628682D01*
X241928Y628683D01*
X241920Y628686D01*
X241729Y628701D01*
X241536Y628719D01*
X241527Y628718D01*
X241518Y628718D01*
X241329Y628696D01*
X241136Y628675D01*
X241127Y628673D01*
X241119Y628672D01*
X240937Y628612D01*
X240752Y628554D01*
X240744Y628549D01*
X240736Y628547D01*
X240567Y628452D01*
X240400Y628359D01*
X240393Y628353D01*
X240385Y628349D01*
X240239Y628223D01*
X240093Y628098D01*
X240087Y628091D01*
X240080Y628086D01*
X239963Y627934D01*
X239843Y627783D01*
X239839Y627775D01*
X239834Y627768D01*
X239748Y627595D01*
X239661Y627424D01*
X239658Y627415D01*
X239654Y627407D01*
X239604Y627221D01*
X239553Y627036D01*
X239552Y627027D01*
X239550Y627018D01*
X239523Y626687D01*
X239523Y135313D01*
X239524Y135304D01*
X239523Y135295D01*
X239544Y135103D01*
X239563Y134912D01*
X239565Y134903D01*
X239566Y134894D01*
X239624Y134712D01*
X239681Y134527D01*
X239685Y134519D01*
X239688Y134511D01*
X239781Y134342D01*
X239873Y134173D01*
X239878Y134166D01*
X239883Y134158D01*
X240007Y134011D01*
X240130Y133864D01*
X240137Y133858D01*
X240143Y133851D01*
X240294Y133732D01*
X240444Y133611D01*
X240452Y133607D01*
X240459Y133602D01*
X240632Y133514D01*
X240801Y133426D01*
X240810Y133423D01*
X240818Y133419D01*
X241004Y133367D01*
X241188Y133314D01*
X241197Y133314D01*
X241206Y133311D01*
X241399Y133297D01*
X241590Y133282D01*
X241598Y133283D01*
X241607Y133282D01*
X241800Y133306D01*
X241989Y133328D01*
X241998Y133331D01*
X242007Y133332D01*
X242190Y133394D01*
X242372Y133453D01*
X242380Y133458D01*
X242388Y133461D01*
X242555Y133557D01*
X242723Y133651D01*
X242730Y133657D01*
X242737Y133662D01*
X242990Y133876D01*
X245813Y136699D01*
X255719Y141746D01*
X266700Y143485D01*
X277681Y141746D01*
X287587Y136699D01*
X295449Y128837D01*
X300496Y118931D01*
X302235Y107950D01*
X300496Y96969D01*
X295449Y87063D01*
X292626Y84240D01*
X292621Y84233D01*
X292614Y84228D01*
X292493Y84078D01*
X292371Y83929D01*
X292367Y83921D01*
X292361Y83914D01*
X292273Y83744D01*
X292183Y83573D01*
X292180Y83564D01*
X292176Y83557D01*
X292123Y83372D01*
X292068Y83187D01*
X292067Y83178D01*
X292064Y83170D01*
X292049Y82979D01*
X292031Y82786D01*
X292032Y82777D01*
X292032Y82768D01*
X292054Y82579D01*
X292075Y82386D01*
X292077Y82377D01*
X292078Y82369D01*
X292138Y82187D01*
X292196Y82002D01*
X292201Y81994D01*
X292203Y81986D01*
X292298Y81817D01*
X292391Y81650D01*
X292397Y81643D01*
X292401Y81635D01*
X292527Y81489D01*
X292652Y81343D01*
X292659Y81337D01*
X292664Y81330D01*
X292816Y81213D01*
X292967Y81093D01*
X292975Y81089D01*
X292982Y81084D01*
X293155Y80998D01*
X293326Y80911D01*
X293335Y80908D01*
X293343Y80904D01*
X293529Y80854D01*
X293714Y80803D01*
X293723Y80802D01*
X293732Y80800D01*
X294063Y80773D01*
X1218946Y80773D01*
X1218964Y80775D01*
G37*
%LPC*%
G36*
X575681Y112049D02*
X575681Y112049D01*
X567812Y115309D01*
X561789Y121332D01*
X558529Y129201D01*
X558529Y137719D01*
X561789Y145588D01*
X567812Y151611D01*
X568810Y152024D01*
X568810Y152025D01*
X575681Y154871D01*
X584199Y154871D01*
X592068Y151611D01*
X598091Y145588D01*
X601351Y137719D01*
X601351Y129201D01*
X598091Y121332D01*
X592068Y115309D01*
X591675Y115146D01*
X584199Y112049D01*
X575681Y112049D01*
G37*
%LPD*%
%LPC*%
G36*
X575681Y325449D02*
X575681Y325449D01*
X567812Y328709D01*
X561789Y334732D01*
X558529Y342601D01*
X558529Y351119D01*
X561789Y358988D01*
X567812Y365011D01*
X568523Y365306D01*
X575681Y368271D01*
X584199Y368271D01*
X592068Y365011D01*
X598091Y358988D01*
X601351Y351119D01*
X601351Y342601D01*
X598091Y334732D01*
X592068Y328709D01*
X584199Y325449D01*
X575681Y325449D01*
G37*
%LPD*%
%LPC*%
G36*
X671079Y417452D02*
X671079Y417452D01*
X671077Y417470D01*
X671079Y417487D01*
X671058Y417670D01*
X671039Y417852D01*
X671034Y417869D01*
X671032Y417887D01*
X671007Y417965D01*
X671046Y418102D01*
X671048Y418120D01*
X671052Y418137D01*
X671079Y418468D01*
X671079Y429645D01*
X671336Y429605D01*
X673123Y429024D01*
X674797Y428171D01*
X676318Y427066D01*
X677646Y425738D01*
X678751Y424217D01*
X679604Y422543D01*
X679842Y421811D01*
X679878Y421729D01*
X679904Y421645D01*
X679958Y421546D01*
X680004Y421442D01*
X680055Y421369D01*
X680097Y421292D01*
X680170Y421205D01*
X680235Y421113D01*
X680299Y421051D01*
X680356Y420983D01*
X680445Y420913D01*
X680527Y420835D01*
X680602Y420788D01*
X680671Y420732D01*
X680772Y420681D01*
X680867Y420621D01*
X680950Y420589D01*
X681029Y420549D01*
X681138Y420518D01*
X681244Y420478D01*
X681331Y420463D01*
X681417Y420439D01*
X681529Y420430D01*
X681641Y420412D01*
X681730Y420415D01*
X681818Y420408D01*
X681930Y420421D01*
X682043Y420425D01*
X682130Y420446D01*
X682218Y420456D01*
X682325Y420492D01*
X682435Y420518D01*
X682516Y420555D01*
X682600Y420583D01*
X682698Y420639D01*
X682801Y420686D01*
X682873Y420738D01*
X682950Y420782D01*
X683035Y420856D01*
X683126Y420923D01*
X683186Y420989D01*
X683253Y421047D01*
X683322Y421136D01*
X683399Y421220D01*
X683445Y421296D01*
X683499Y421366D01*
X683563Y421492D01*
X683607Y421564D01*
X683623Y421607D01*
X683650Y421661D01*
X684680Y424147D01*
X687753Y427220D01*
X691767Y428883D01*
X696113Y428883D01*
X700127Y427220D01*
X703200Y424147D01*
X704763Y420373D01*
X704768Y420365D01*
X704770Y420356D01*
X704862Y420188D01*
X704954Y420018D01*
X704959Y420011D01*
X704964Y420003D01*
X705087Y419857D01*
X705210Y419707D01*
X705217Y419702D01*
X705223Y419695D01*
X705373Y419575D01*
X705523Y419454D01*
X705531Y419449D01*
X705537Y419444D01*
X705709Y419356D01*
X705879Y419267D01*
X705888Y419264D01*
X705896Y419260D01*
X706080Y419208D01*
X706266Y419153D01*
X706274Y419153D01*
X706283Y419150D01*
X706474Y419135D01*
X706667Y419119D01*
X706676Y419120D01*
X706684Y419119D01*
X706875Y419142D01*
X707067Y419164D01*
X707075Y419167D01*
X707084Y419168D01*
X707267Y419228D01*
X707450Y419287D01*
X707458Y419291D01*
X707466Y419294D01*
X707634Y419390D01*
X707802Y419483D01*
X707808Y419489D01*
X707816Y419494D01*
X707961Y419620D01*
X708107Y419745D01*
X708113Y419752D01*
X708120Y419758D01*
X708237Y419910D01*
X708356Y420062D01*
X708360Y420070D01*
X708365Y420077D01*
X708517Y420373D01*
X710080Y424147D01*
X713153Y427220D01*
X717167Y428883D01*
X721513Y428883D01*
X725527Y427220D01*
X728600Y424147D01*
X730163Y420373D01*
X730168Y420365D01*
X730170Y420356D01*
X730262Y420188D01*
X730354Y420018D01*
X730359Y420011D01*
X730364Y420003D01*
X730487Y419857D01*
X730610Y419707D01*
X730617Y419702D01*
X730623Y419695D01*
X730773Y419575D01*
X730923Y419454D01*
X730931Y419449D01*
X730937Y419444D01*
X731109Y419356D01*
X731279Y419267D01*
X731288Y419264D01*
X731296Y419260D01*
X731480Y419208D01*
X731666Y419153D01*
X731674Y419153D01*
X731683Y419150D01*
X731874Y419135D01*
X732067Y419119D01*
X732076Y419120D01*
X732084Y419119D01*
X732275Y419142D01*
X732467Y419164D01*
X732475Y419167D01*
X732484Y419168D01*
X732667Y419228D01*
X732850Y419287D01*
X732858Y419291D01*
X732866Y419294D01*
X733034Y419390D01*
X733202Y419483D01*
X733208Y419489D01*
X733216Y419494D01*
X733361Y419620D01*
X733507Y419745D01*
X733513Y419752D01*
X733520Y419758D01*
X733637Y419910D01*
X733756Y420062D01*
X733760Y420070D01*
X733765Y420077D01*
X733917Y420373D01*
X735480Y424147D01*
X738553Y427220D01*
X742567Y428883D01*
X746913Y428883D01*
X750927Y427220D01*
X754000Y424147D01*
X755663Y420133D01*
X755663Y415787D01*
X754000Y411773D01*
X750927Y408700D01*
X748382Y407646D01*
X746913Y407037D01*
X742567Y407037D01*
X738553Y408700D01*
X735480Y411773D01*
X733917Y415547D01*
X733912Y415555D01*
X733910Y415564D01*
X733817Y415733D01*
X733726Y415902D01*
X733721Y415909D01*
X733716Y415917D01*
X733592Y416065D01*
X733470Y416213D01*
X733463Y416218D01*
X733457Y416225D01*
X733308Y416344D01*
X733157Y416466D01*
X733149Y416471D01*
X733142Y416476D01*
X732973Y416563D01*
X732801Y416654D01*
X732792Y416656D01*
X732784Y416660D01*
X732602Y416712D01*
X732414Y416767D01*
X732405Y416767D01*
X732397Y416770D01*
X732206Y416785D01*
X732013Y416801D01*
X732004Y416800D01*
X731996Y416801D01*
X731805Y416778D01*
X731613Y416756D01*
X731605Y416753D01*
X731596Y416752D01*
X731414Y416692D01*
X731230Y416633D01*
X731222Y416628D01*
X731214Y416626D01*
X731046Y416530D01*
X730878Y416437D01*
X730872Y416431D01*
X730864Y416426D01*
X730718Y416299D01*
X730573Y416175D01*
X730567Y416168D01*
X730560Y416162D01*
X730443Y416010D01*
X730324Y415858D01*
X730320Y415850D01*
X730315Y415843D01*
X730163Y415547D01*
X728600Y411773D01*
X725527Y408700D01*
X722982Y407646D01*
X721513Y407037D01*
X717167Y407037D01*
X713153Y408700D01*
X710080Y411773D01*
X708517Y415547D01*
X708512Y415555D01*
X708510Y415564D01*
X708417Y415733D01*
X708326Y415902D01*
X708321Y415909D01*
X708316Y415917D01*
X708192Y416065D01*
X708070Y416213D01*
X708063Y416218D01*
X708057Y416225D01*
X707908Y416344D01*
X707757Y416466D01*
X707749Y416471D01*
X707742Y416476D01*
X707573Y416563D01*
X707401Y416654D01*
X707392Y416656D01*
X707384Y416660D01*
X707202Y416712D01*
X707014Y416767D01*
X707005Y416767D01*
X706997Y416770D01*
X706806Y416785D01*
X706613Y416801D01*
X706604Y416800D01*
X706596Y416801D01*
X706405Y416778D01*
X706213Y416756D01*
X706205Y416753D01*
X706196Y416752D01*
X706014Y416692D01*
X705830Y416633D01*
X705822Y416628D01*
X705814Y416626D01*
X705646Y416530D01*
X705478Y416437D01*
X705472Y416431D01*
X705464Y416426D01*
X705318Y416299D01*
X705173Y416175D01*
X705167Y416168D01*
X705160Y416162D01*
X705043Y416010D01*
X704924Y415858D01*
X704920Y415850D01*
X704915Y415843D01*
X704763Y415547D01*
X703200Y411773D01*
X700127Y408700D01*
X697582Y407646D01*
X696113Y407037D01*
X691767Y407037D01*
X687753Y408700D01*
X684680Y411773D01*
X683650Y414259D01*
X683608Y414337D01*
X683575Y414420D01*
X683513Y414514D01*
X683460Y414614D01*
X683404Y414682D01*
X683355Y414757D01*
X683276Y414837D01*
X683204Y414924D01*
X683135Y414980D01*
X683072Y415043D01*
X682979Y415107D01*
X682891Y415178D01*
X682813Y415219D01*
X682739Y415269D01*
X682635Y415312D01*
X682535Y415365D01*
X682449Y415390D01*
X682367Y415424D01*
X682257Y415446D01*
X682148Y415478D01*
X682060Y415486D01*
X681973Y415503D01*
X681859Y415503D01*
X681747Y415513D01*
X681659Y415503D01*
X681570Y415503D01*
X681459Y415480D01*
X681347Y415467D01*
X681262Y415440D01*
X681175Y415423D01*
X681071Y415379D01*
X680964Y415344D01*
X680886Y415301D01*
X680804Y415267D01*
X680711Y415203D01*
X680612Y415148D01*
X680545Y415090D01*
X680471Y415040D01*
X680392Y414960D01*
X680306Y414886D01*
X680252Y414816D01*
X680189Y414753D01*
X680128Y414658D01*
X680058Y414569D01*
X680018Y414490D01*
X679970Y414415D01*
X679915Y414285D01*
X679877Y414209D01*
X679865Y414165D01*
X679842Y414109D01*
X679604Y413377D01*
X678751Y411703D01*
X677646Y410182D01*
X676318Y408854D01*
X674797Y407749D01*
X673123Y406896D01*
X671336Y406315D01*
X671079Y406275D01*
X671079Y417452D01*
G37*
%LPD*%
%LPC*%
G36*
X1116722Y621982D02*
X1116722Y621982D01*
X1112871Y623577D01*
X1109923Y626525D01*
X1108328Y630376D01*
X1108328Y634544D01*
X1109923Y638395D01*
X1112871Y641343D01*
X1116722Y642938D01*
X1138798Y642938D01*
X1142649Y641343D01*
X1145597Y638395D01*
X1147192Y634544D01*
X1147192Y630376D01*
X1145597Y626525D01*
X1142649Y623577D01*
X1138798Y621982D01*
X1116722Y621982D01*
G37*
%LPD*%
%LPC*%
G36*
X1116722Y520382D02*
X1116722Y520382D01*
X1112871Y521977D01*
X1109923Y524925D01*
X1108328Y528776D01*
X1108328Y532944D01*
X1109923Y536795D01*
X1112871Y539743D01*
X1116722Y541338D01*
X1138798Y541338D01*
X1142649Y539743D01*
X1145597Y536795D01*
X1147192Y532944D01*
X1147192Y528776D01*
X1145597Y524925D01*
X1142649Y521977D01*
X1138798Y520382D01*
X1116722Y520382D01*
G37*
%LPD*%
%LPC*%
G36*
X393389Y430192D02*
X393389Y430192D01*
X393387Y430210D01*
X393389Y430227D01*
X393368Y430409D01*
X393349Y430592D01*
X393344Y430609D01*
X393342Y430627D01*
X393329Y430668D01*
X393356Y430762D01*
X393358Y430780D01*
X393362Y430797D01*
X393389Y431128D01*
X393389Y441837D01*
X393567Y441809D01*
X395278Y441253D01*
X396881Y440436D01*
X398337Y439379D01*
X399609Y438107D01*
X400666Y436651D01*
X401483Y435048D01*
X402039Y433337D01*
X402043Y433313D01*
X402055Y433268D01*
X402060Y433222D01*
X402106Y433074D01*
X402145Y432924D01*
X402166Y432882D01*
X402179Y432837D01*
X402254Y432702D01*
X402322Y432562D01*
X402350Y432525D01*
X402373Y432484D01*
X402472Y432366D01*
X402567Y432242D01*
X402602Y432212D01*
X402632Y432176D01*
X402753Y432080D01*
X402870Y431977D01*
X402910Y431954D01*
X402947Y431925D01*
X403084Y431854D01*
X403219Y431777D01*
X403264Y431762D01*
X403305Y431741D01*
X403454Y431699D01*
X403601Y431650D01*
X403647Y431644D01*
X403692Y431631D01*
X403847Y431619D01*
X404001Y431600D01*
X404047Y431604D01*
X404094Y431600D01*
X404247Y431619D01*
X404402Y431631D01*
X404447Y431643D01*
X404493Y431649D01*
X404640Y431697D01*
X404790Y431740D01*
X404831Y431761D01*
X404876Y431775D01*
X405010Y431852D01*
X405148Y431923D01*
X405185Y431952D01*
X405225Y431975D01*
X405342Y432077D01*
X405464Y432173D01*
X405494Y432209D01*
X405529Y432239D01*
X405623Y432362D01*
X405723Y432481D01*
X405746Y432522D01*
X405774Y432559D01*
X405889Y432782D01*
X405917Y432833D01*
X405920Y432843D01*
X405926Y432854D01*
X407461Y436559D01*
X410391Y439489D01*
X414218Y441075D01*
X418362Y441075D01*
X422189Y439489D01*
X425119Y436559D01*
X426705Y432732D01*
X426705Y428588D01*
X425119Y424761D01*
X422189Y421831D01*
X418362Y420245D01*
X414218Y420245D01*
X410391Y421831D01*
X407461Y424761D01*
X405926Y428466D01*
X405904Y428507D01*
X405888Y428551D01*
X405809Y428684D01*
X405736Y428821D01*
X405706Y428857D01*
X405682Y428897D01*
X405578Y429012D01*
X405479Y429132D01*
X405443Y429161D01*
X405412Y429196D01*
X405287Y429288D01*
X405167Y429385D01*
X405125Y429407D01*
X405088Y429435D01*
X404947Y429500D01*
X404810Y429572D01*
X404765Y429585D01*
X404723Y429605D01*
X404572Y429642D01*
X404424Y429685D01*
X404377Y429689D01*
X404332Y429700D01*
X404177Y429707D01*
X404023Y429720D01*
X403976Y429715D01*
X403930Y429717D01*
X403776Y429692D01*
X403623Y429675D01*
X403578Y429661D01*
X403532Y429653D01*
X403387Y429599D01*
X403239Y429552D01*
X403198Y429529D01*
X403155Y429513D01*
X403023Y429431D01*
X402888Y429355D01*
X402852Y429325D01*
X402813Y429300D01*
X402699Y429194D01*
X402582Y429094D01*
X402553Y429057D01*
X402519Y429025D01*
X402429Y428899D01*
X402334Y428777D01*
X402313Y428735D01*
X402286Y428697D01*
X402222Y428555D01*
X402153Y428417D01*
X402141Y428372D01*
X402121Y428329D01*
X402062Y428085D01*
X402047Y428028D01*
X402046Y428019D01*
X402043Y428007D01*
X402039Y427983D01*
X401483Y426272D01*
X400666Y424669D01*
X399609Y423213D01*
X398337Y421941D01*
X396881Y420884D01*
X395278Y420067D01*
X393567Y419511D01*
X393389Y419483D01*
X393389Y430192D01*
G37*
%LPD*%
%LPC*%
G36*
X388213Y419511D02*
X388213Y419511D01*
X386502Y420067D01*
X384899Y420884D01*
X383443Y421941D01*
X382171Y423213D01*
X381114Y424669D01*
X380297Y426272D01*
X379741Y427983D01*
X379737Y428007D01*
X379725Y428052D01*
X379720Y428098D01*
X379674Y428246D01*
X379635Y428396D01*
X379614Y428438D01*
X379601Y428483D01*
X379526Y428618D01*
X379458Y428758D01*
X379430Y428795D01*
X379407Y428836D01*
X379308Y428954D01*
X379213Y429078D01*
X379178Y429108D01*
X379148Y429144D01*
X379027Y429240D01*
X378910Y429343D01*
X378870Y429366D01*
X378833Y429395D01*
X378696Y429466D01*
X378561Y429543D01*
X378516Y429558D01*
X378475Y429579D01*
X378326Y429621D01*
X378179Y429670D01*
X378133Y429676D01*
X378088Y429689D01*
X377933Y429701D01*
X377779Y429720D01*
X377733Y429716D01*
X377686Y429720D01*
X377533Y429701D01*
X377378Y429689D01*
X377333Y429677D01*
X377287Y429671D01*
X377140Y429623D01*
X376990Y429580D01*
X376949Y429559D01*
X376904Y429545D01*
X376770Y429468D01*
X376632Y429397D01*
X376595Y429368D01*
X376555Y429345D01*
X376438Y429243D01*
X376316Y429147D01*
X376286Y429111D01*
X376251Y429081D01*
X376157Y428958D01*
X376057Y428839D01*
X376034Y428798D01*
X376006Y428761D01*
X375891Y428538D01*
X375863Y428487D01*
X375860Y428477D01*
X375854Y428466D01*
X374319Y424761D01*
X371389Y421831D01*
X367562Y420245D01*
X363418Y420245D01*
X359591Y421831D01*
X356661Y424761D01*
X355075Y428588D01*
X355075Y432732D01*
X356661Y436559D01*
X359591Y439489D01*
X363418Y441075D01*
X367562Y441075D01*
X371389Y439489D01*
X374319Y436559D01*
X375854Y432854D01*
X375876Y432813D01*
X375892Y432769D01*
X375971Y432636D01*
X376044Y432499D01*
X376074Y432463D01*
X376098Y432423D01*
X376202Y432308D01*
X376301Y432188D01*
X376337Y432159D01*
X376368Y432124D01*
X376493Y432032D01*
X376613Y431935D01*
X376655Y431913D01*
X376692Y431885D01*
X376833Y431820D01*
X376970Y431748D01*
X377015Y431735D01*
X377057Y431715D01*
X377208Y431678D01*
X377356Y431635D01*
X377403Y431631D01*
X377448Y431620D01*
X377603Y431613D01*
X377757Y431600D01*
X377804Y431605D01*
X377850Y431603D01*
X378004Y431628D01*
X378157Y431645D01*
X378202Y431659D01*
X378248Y431667D01*
X378393Y431721D01*
X378541Y431768D01*
X378582Y431791D01*
X378625Y431807D01*
X378757Y431889D01*
X378892Y431965D01*
X378928Y431995D01*
X378967Y432020D01*
X379081Y432126D01*
X379198Y432226D01*
X379227Y432263D01*
X379261Y432295D01*
X379351Y432421D01*
X379446Y432543D01*
X379467Y432585D01*
X379494Y432623D01*
X379558Y432765D01*
X379627Y432903D01*
X379639Y432948D01*
X379659Y432991D01*
X379718Y433235D01*
X379733Y433292D01*
X379734Y433301D01*
X379737Y433313D01*
X379741Y433337D01*
X380297Y435048D01*
X381114Y436651D01*
X382171Y438107D01*
X383443Y439379D01*
X384899Y440436D01*
X386502Y441253D01*
X388213Y441809D01*
X388391Y441837D01*
X388391Y431128D01*
X388392Y431110D01*
X388391Y431093D01*
X388412Y430910D01*
X388431Y430728D01*
X388436Y430711D01*
X388438Y430693D01*
X388451Y430652D01*
X388424Y430558D01*
X388422Y430540D01*
X388418Y430523D01*
X388391Y430192D01*
X388391Y419483D01*
X388213Y419511D01*
G37*
%LPD*%
%LPC*%
G36*
X1029978Y622685D02*
X1029978Y622685D01*
X1029085Y623578D01*
X1029085Y641342D01*
X1029978Y642235D01*
X1047742Y642235D01*
X1048635Y641342D01*
X1048635Y623578D01*
X1047742Y622685D01*
X1029978Y622685D01*
G37*
%LPD*%
%LPC*%
G36*
X916948Y622685D02*
X916948Y622685D01*
X916055Y623578D01*
X916055Y641342D01*
X916948Y642235D01*
X934712Y642235D01*
X935605Y641342D01*
X935605Y623578D01*
X934712Y622685D01*
X916948Y622685D01*
G37*
%LPD*%
%LPC*%
G36*
X388818Y598045D02*
X388818Y598045D01*
X384991Y599631D01*
X382061Y602561D01*
X380475Y606388D01*
X380475Y610532D01*
X382061Y614359D01*
X384991Y617289D01*
X388818Y618875D01*
X392962Y618875D01*
X396789Y617289D01*
X399719Y614359D01*
X401305Y610532D01*
X401305Y606388D01*
X399719Y602561D01*
X396789Y599631D01*
X392962Y598045D01*
X388818Y598045D01*
G37*
%LPD*%
%LPC*%
G36*
X465018Y598045D02*
X465018Y598045D01*
X461191Y599631D01*
X458261Y602561D01*
X456675Y606388D01*
X456675Y610532D01*
X458261Y614359D01*
X461191Y617289D01*
X465018Y618875D01*
X469162Y618875D01*
X472989Y617289D01*
X475919Y614359D01*
X477505Y610532D01*
X477505Y606388D01*
X475919Y602561D01*
X472989Y599631D01*
X469162Y598045D01*
X465018Y598045D01*
G37*
%LPD*%
%LPC*%
G36*
X338018Y598045D02*
X338018Y598045D01*
X334191Y599631D01*
X331261Y602561D01*
X329675Y606388D01*
X329675Y610532D01*
X331261Y614359D01*
X334191Y617289D01*
X338018Y618875D01*
X342162Y618875D01*
X345989Y617289D01*
X348919Y614359D01*
X350505Y610532D01*
X350505Y606388D01*
X348919Y602561D01*
X345989Y599631D01*
X342162Y598045D01*
X338018Y598045D01*
G37*
%LPD*%
%LPC*%
G36*
X414218Y598045D02*
X414218Y598045D01*
X410391Y599631D01*
X407461Y602561D01*
X405875Y606388D01*
X405875Y610532D01*
X407461Y614359D01*
X410391Y617289D01*
X414218Y618875D01*
X418362Y618875D01*
X422189Y617289D01*
X425119Y614359D01*
X426705Y610532D01*
X426705Y606388D01*
X425119Y602561D01*
X422189Y599631D01*
X418362Y598045D01*
X414218Y598045D01*
G37*
%LPD*%
%LPC*%
G36*
X363418Y598045D02*
X363418Y598045D01*
X359591Y599631D01*
X356661Y602561D01*
X355075Y606388D01*
X355075Y610532D01*
X356661Y614359D01*
X359591Y617289D01*
X363418Y618875D01*
X367562Y618875D01*
X371389Y617289D01*
X374319Y614359D01*
X375905Y610532D01*
X375905Y606388D01*
X374319Y602561D01*
X371389Y599631D01*
X367562Y598045D01*
X363418Y598045D01*
G37*
%LPD*%
%LPC*%
G36*
X439618Y598045D02*
X439618Y598045D01*
X435791Y599631D01*
X432861Y602561D01*
X431275Y606388D01*
X431275Y610532D01*
X432861Y614359D01*
X435791Y617289D01*
X439618Y618875D01*
X443762Y618875D01*
X447589Y617289D01*
X450519Y614359D01*
X452105Y610532D01*
X452105Y606388D01*
X450519Y602561D01*
X447589Y599631D01*
X443762Y598045D01*
X439618Y598045D01*
G37*
%LPD*%
%LPC*%
G36*
X465018Y420245D02*
X465018Y420245D01*
X461191Y421831D01*
X458261Y424761D01*
X456675Y428588D01*
X456675Y432732D01*
X458261Y436559D01*
X461191Y439489D01*
X465018Y441075D01*
X469162Y441075D01*
X472989Y439489D01*
X475919Y436559D01*
X477505Y432732D01*
X477505Y428588D01*
X475919Y424761D01*
X472989Y421831D01*
X469162Y420245D01*
X465018Y420245D01*
G37*
%LPD*%
%LPC*%
G36*
X439618Y420245D02*
X439618Y420245D01*
X435791Y421831D01*
X432861Y424761D01*
X431275Y428588D01*
X431275Y432732D01*
X432861Y436559D01*
X435791Y439489D01*
X439618Y441075D01*
X443762Y441075D01*
X447589Y439489D01*
X450519Y436559D01*
X452105Y432732D01*
X452105Y428588D01*
X450519Y424761D01*
X447589Y421831D01*
X443762Y420245D01*
X439618Y420245D01*
G37*
%LPD*%
%LPC*%
G36*
X338018Y420245D02*
X338018Y420245D01*
X334191Y421831D01*
X331261Y424761D01*
X329675Y428588D01*
X329675Y432732D01*
X331261Y436559D01*
X334191Y439489D01*
X338018Y441075D01*
X342162Y441075D01*
X345989Y439489D01*
X348919Y436559D01*
X350505Y432732D01*
X350505Y428588D01*
X348919Y424761D01*
X345989Y421831D01*
X342162Y420245D01*
X338018Y420245D01*
G37*
%LPD*%
%LPC*%
G36*
X991142Y129749D02*
X991142Y129749D01*
X990249Y130642D01*
X990249Y146986D01*
X991142Y147879D01*
X1007486Y147879D01*
X1008379Y146986D01*
X1008379Y130642D01*
X1007486Y129749D01*
X991142Y129749D01*
G37*
%LPD*%
%LPC*%
G36*
X991142Y332441D02*
X991142Y332441D01*
X990249Y333334D01*
X990249Y349678D01*
X991142Y350571D01*
X1007486Y350571D01*
X1008379Y349678D01*
X1008379Y333334D01*
X1007486Y332441D01*
X991142Y332441D01*
G37*
%LPD*%
%LPC*%
G36*
X986116Y622685D02*
X986116Y622685D01*
X982523Y624173D01*
X979773Y626923D01*
X978285Y630516D01*
X978285Y634404D01*
X979773Y637997D01*
X982523Y640747D01*
X986116Y642235D01*
X990004Y642235D01*
X993597Y640747D01*
X996347Y637997D01*
X997835Y634404D01*
X997835Y630516D01*
X996347Y626923D01*
X993597Y624173D01*
X990664Y622958D01*
X990004Y622685D01*
X986116Y622685D01*
G37*
%LPD*%
%LPC*%
G36*
X269868Y328115D02*
X269868Y328115D01*
X268975Y329008D01*
X268975Y344352D01*
X269868Y345245D01*
X285212Y345245D01*
X286105Y344352D01*
X286105Y329008D01*
X285212Y328115D01*
X269868Y328115D01*
G37*
%LPD*%
%LPC*%
G36*
X498468Y328115D02*
X498468Y328115D01*
X497575Y329008D01*
X497575Y344352D01*
X498468Y345245D01*
X513812Y345245D01*
X514705Y344352D01*
X514705Y329008D01*
X513812Y328115D01*
X498468Y328115D01*
G37*
%LPD*%
%LPC*%
G36*
X895911Y129749D02*
X895911Y129749D01*
X892579Y131129D01*
X890029Y133679D01*
X888649Y137011D01*
X888649Y140617D01*
X890029Y143949D01*
X892579Y146499D01*
X895911Y147879D01*
X899517Y147879D01*
X902849Y146499D01*
X905399Y143949D01*
X906779Y140617D01*
X906779Y137011D01*
X905399Y133679D01*
X902849Y131129D01*
X899517Y129749D01*
X895911Y129749D01*
G37*
%LPD*%
%LPC*%
G36*
X845111Y129749D02*
X845111Y129749D01*
X841779Y131129D01*
X839229Y133679D01*
X837849Y137011D01*
X837849Y140617D01*
X839229Y143949D01*
X841779Y146499D01*
X845111Y147879D01*
X848717Y147879D01*
X852049Y146499D01*
X854599Y143949D01*
X855979Y140617D01*
X855979Y137011D01*
X854599Y133679D01*
X852049Y131129D01*
X848717Y129749D01*
X845111Y129749D01*
G37*
%LPD*%
%LPC*%
G36*
X870511Y129749D02*
X870511Y129749D01*
X867179Y131129D01*
X864629Y133679D01*
X863249Y137011D01*
X863249Y140617D01*
X864629Y143949D01*
X867179Y146499D01*
X870511Y147879D01*
X874117Y147879D01*
X877449Y146499D01*
X879999Y143949D01*
X881379Y140617D01*
X881379Y137011D01*
X879999Y133679D01*
X877449Y131129D01*
X874117Y129749D01*
X870511Y129749D01*
G37*
%LPD*%
%LPC*%
G36*
X946711Y129749D02*
X946711Y129749D01*
X943379Y131129D01*
X940829Y133679D01*
X939449Y137011D01*
X939449Y140617D01*
X940829Y143949D01*
X943379Y146499D01*
X946711Y147879D01*
X950317Y147879D01*
X953649Y146499D01*
X956199Y143949D01*
X957579Y140617D01*
X957579Y137011D01*
X956199Y133679D01*
X953649Y131129D01*
X950317Y129749D01*
X946711Y129749D01*
G37*
%LPD*%
%LPC*%
G36*
X972111Y129749D02*
X972111Y129749D01*
X968779Y131129D01*
X966229Y133679D01*
X964849Y137011D01*
X964849Y140617D01*
X966229Y143949D01*
X968779Y146499D01*
X972111Y147879D01*
X975717Y147879D01*
X979049Y146499D01*
X981599Y143949D01*
X982979Y140617D01*
X982979Y137011D01*
X981599Y133679D01*
X979049Y131129D01*
X975717Y129749D01*
X972111Y129749D01*
G37*
%LPD*%
%LPC*%
G36*
X819711Y129749D02*
X819711Y129749D01*
X816379Y131129D01*
X813829Y133679D01*
X812449Y137011D01*
X812449Y140617D01*
X813829Y143949D01*
X816379Y146499D01*
X819711Y147879D01*
X823317Y147879D01*
X826649Y146499D01*
X829199Y143949D01*
X830579Y140617D01*
X830579Y137011D01*
X829199Y133679D01*
X826649Y131129D01*
X823317Y129749D01*
X819711Y129749D01*
G37*
%LPD*%
%LPC*%
G36*
X794311Y129749D02*
X794311Y129749D01*
X790979Y131129D01*
X788429Y133679D01*
X787049Y137011D01*
X787049Y140617D01*
X788429Y143949D01*
X790979Y146499D01*
X794311Y147879D01*
X797917Y147879D01*
X801249Y146499D01*
X803799Y143949D01*
X805179Y140617D01*
X805179Y137011D01*
X803799Y133679D01*
X801249Y131129D01*
X797917Y129749D01*
X794311Y129749D01*
G37*
%LPD*%
%LPC*%
G36*
X768911Y129749D02*
X768911Y129749D01*
X765579Y131129D01*
X763029Y133679D01*
X761649Y137011D01*
X761649Y140617D01*
X763029Y143949D01*
X765579Y146499D01*
X768911Y147879D01*
X772517Y147879D01*
X775849Y146499D01*
X778399Y143949D01*
X779779Y140617D01*
X779779Y137011D01*
X778399Y133679D01*
X775849Y131129D01*
X772517Y129749D01*
X768911Y129749D01*
G37*
%LPD*%
%LPC*%
G36*
X743511Y129749D02*
X743511Y129749D01*
X740179Y131129D01*
X737629Y133679D01*
X736249Y137011D01*
X736249Y140617D01*
X737629Y143949D01*
X740179Y146499D01*
X743511Y147879D01*
X747117Y147879D01*
X750449Y146499D01*
X752999Y143949D01*
X754379Y140617D01*
X754379Y137011D01*
X752999Y133679D01*
X750449Y131129D01*
X747117Y129749D01*
X743511Y129749D01*
G37*
%LPD*%
%LPC*%
G36*
X718111Y129749D02*
X718111Y129749D01*
X714779Y131129D01*
X712229Y133679D01*
X710849Y137011D01*
X710849Y140617D01*
X712229Y143949D01*
X714779Y146499D01*
X718111Y147879D01*
X721717Y147879D01*
X725049Y146499D01*
X727599Y143949D01*
X728979Y140617D01*
X728979Y137011D01*
X727599Y133679D01*
X725049Y131129D01*
X721717Y129749D01*
X718111Y129749D01*
G37*
%LPD*%
%LPC*%
G36*
X692711Y129749D02*
X692711Y129749D01*
X689379Y131129D01*
X686829Y133679D01*
X685449Y137011D01*
X685449Y140617D01*
X686829Y143949D01*
X689379Y146499D01*
X692711Y147879D01*
X696317Y147879D01*
X699649Y146499D01*
X702199Y143949D01*
X703579Y140617D01*
X703579Y137011D01*
X702199Y133679D01*
X699649Y131129D01*
X696317Y129749D01*
X692711Y129749D01*
G37*
%LPD*%
%LPC*%
G36*
X667311Y129749D02*
X667311Y129749D01*
X663979Y131129D01*
X661429Y133679D01*
X660049Y137011D01*
X660049Y140617D01*
X661429Y143949D01*
X663979Y146499D01*
X667311Y147879D01*
X670917Y147879D01*
X674249Y146499D01*
X676799Y143949D01*
X678179Y140617D01*
X678179Y137011D01*
X676799Y133679D01*
X674249Y131129D01*
X670917Y129749D01*
X667311Y129749D01*
G37*
%LPD*%
%LPC*%
G36*
X845111Y332441D02*
X845111Y332441D01*
X841779Y333821D01*
X839229Y336371D01*
X837849Y339703D01*
X837849Y343309D01*
X839229Y346641D01*
X841779Y349191D01*
X845111Y350571D01*
X848717Y350571D01*
X852049Y349191D01*
X854599Y346641D01*
X855979Y343309D01*
X855979Y339703D01*
X854599Y336371D01*
X852049Y333821D01*
X848834Y332490D01*
X848717Y332441D01*
X845111Y332441D01*
G37*
%LPD*%
%LPC*%
G36*
X870511Y332441D02*
X870511Y332441D01*
X867179Y333821D01*
X864629Y336371D01*
X863249Y339703D01*
X863249Y343309D01*
X864629Y346641D01*
X867179Y349191D01*
X870511Y350571D01*
X874117Y350571D01*
X877449Y349191D01*
X879999Y346641D01*
X881379Y343309D01*
X881379Y339703D01*
X879999Y336371D01*
X877449Y333821D01*
X874234Y332490D01*
X874117Y332441D01*
X870511Y332441D01*
G37*
%LPD*%
%LPC*%
G36*
X692711Y332441D02*
X692711Y332441D01*
X689379Y333821D01*
X686829Y336371D01*
X685449Y339703D01*
X685449Y343309D01*
X686829Y346641D01*
X689379Y349191D01*
X692711Y350571D01*
X696317Y350571D01*
X699649Y349191D01*
X702199Y346641D01*
X703579Y343309D01*
X703579Y339703D01*
X702199Y336371D01*
X699649Y333821D01*
X696434Y332490D01*
X696317Y332441D01*
X692711Y332441D01*
G37*
%LPD*%
%LPC*%
G36*
X667311Y332441D02*
X667311Y332441D01*
X663979Y333821D01*
X661429Y336371D01*
X660049Y339703D01*
X660049Y343309D01*
X661429Y346641D01*
X663979Y349191D01*
X667311Y350571D01*
X670917Y350571D01*
X674249Y349191D01*
X676799Y346641D01*
X678179Y343309D01*
X678179Y339703D01*
X676799Y336371D01*
X674249Y333821D01*
X671034Y332490D01*
X670917Y332441D01*
X667311Y332441D01*
G37*
%LPD*%
%LPC*%
G36*
X972111Y332441D02*
X972111Y332441D01*
X968779Y333821D01*
X966229Y336371D01*
X964849Y339703D01*
X964849Y343309D01*
X966229Y346641D01*
X968779Y349191D01*
X972111Y350571D01*
X975717Y350571D01*
X979049Y349191D01*
X981599Y346641D01*
X982979Y343309D01*
X982979Y339703D01*
X981599Y336371D01*
X979049Y333821D01*
X975834Y332490D01*
X975717Y332441D01*
X972111Y332441D01*
G37*
%LPD*%
%LPC*%
G36*
X946711Y332441D02*
X946711Y332441D01*
X943379Y333821D01*
X940829Y336371D01*
X939449Y339703D01*
X939449Y343309D01*
X940829Y346641D01*
X943379Y349191D01*
X946711Y350571D01*
X950317Y350571D01*
X953649Y349191D01*
X956199Y346641D01*
X957579Y343309D01*
X957579Y339703D01*
X956199Y336371D01*
X953649Y333821D01*
X950434Y332490D01*
X950317Y332441D01*
X946711Y332441D01*
G37*
%LPD*%
%LPC*%
G36*
X921311Y332441D02*
X921311Y332441D01*
X917979Y333821D01*
X915429Y336371D01*
X914049Y339703D01*
X914049Y343309D01*
X915429Y346641D01*
X917979Y349191D01*
X921311Y350571D01*
X924917Y350571D01*
X928249Y349191D01*
X930799Y346641D01*
X932179Y343309D01*
X932179Y339703D01*
X930799Y336371D01*
X928249Y333821D01*
X925034Y332490D01*
X924917Y332441D01*
X921311Y332441D01*
G37*
%LPD*%
%LPC*%
G36*
X718111Y332441D02*
X718111Y332441D01*
X714779Y333821D01*
X712229Y336371D01*
X710849Y339703D01*
X710849Y343309D01*
X712229Y346641D01*
X714779Y349191D01*
X718111Y350571D01*
X721717Y350571D01*
X725049Y349191D01*
X727599Y346641D01*
X728979Y343309D01*
X728979Y339703D01*
X727599Y336371D01*
X725049Y333821D01*
X721834Y332490D01*
X721717Y332441D01*
X718111Y332441D01*
G37*
%LPD*%
%LPC*%
G36*
X743511Y332441D02*
X743511Y332441D01*
X740179Y333821D01*
X737629Y336371D01*
X736249Y339703D01*
X736249Y343309D01*
X737629Y346641D01*
X740179Y349191D01*
X743511Y350571D01*
X747117Y350571D01*
X750449Y349191D01*
X752999Y346641D01*
X754379Y343309D01*
X754379Y339703D01*
X752999Y336371D01*
X750449Y333821D01*
X747234Y332490D01*
X747117Y332441D01*
X743511Y332441D01*
G37*
%LPD*%
%LPC*%
G36*
X768911Y332441D02*
X768911Y332441D01*
X765579Y333821D01*
X763029Y336371D01*
X761649Y339703D01*
X761649Y343309D01*
X763029Y346641D01*
X765579Y349191D01*
X768911Y350571D01*
X772517Y350571D01*
X775849Y349191D01*
X778399Y346641D01*
X779779Y343309D01*
X779779Y339703D01*
X778399Y336371D01*
X775849Y333821D01*
X772634Y332490D01*
X772517Y332441D01*
X768911Y332441D01*
G37*
%LPD*%
%LPC*%
G36*
X895911Y332441D02*
X895911Y332441D01*
X892579Y333821D01*
X890029Y336371D01*
X888649Y339703D01*
X888649Y343309D01*
X890029Y346641D01*
X892579Y349191D01*
X895911Y350571D01*
X899517Y350571D01*
X902849Y349191D01*
X905399Y346641D01*
X906779Y343309D01*
X906779Y339703D01*
X905399Y336371D01*
X902849Y333821D01*
X899634Y332490D01*
X899517Y332441D01*
X895911Y332441D01*
G37*
%LPD*%
%LPC*%
G36*
X794311Y332441D02*
X794311Y332441D01*
X790979Y333821D01*
X788429Y336371D01*
X787049Y339703D01*
X787049Y343309D01*
X788429Y346641D01*
X790979Y349191D01*
X794311Y350571D01*
X797917Y350571D01*
X801249Y349191D01*
X803799Y346641D01*
X805179Y343309D01*
X805179Y339703D01*
X803799Y336371D01*
X801249Y333821D01*
X798034Y332490D01*
X797917Y332441D01*
X794311Y332441D01*
G37*
%LPD*%
%LPC*%
G36*
X819711Y332441D02*
X819711Y332441D01*
X816379Y333821D01*
X813829Y336371D01*
X812449Y339703D01*
X812449Y343309D01*
X813829Y346641D01*
X816379Y349191D01*
X819711Y350571D01*
X823317Y350571D01*
X826649Y349191D01*
X829199Y346641D01*
X830579Y343309D01*
X830579Y339703D01*
X829199Y336371D01*
X826649Y333821D01*
X823434Y332490D01*
X823317Y332441D01*
X819711Y332441D01*
G37*
%LPD*%
%LPC*%
G36*
X275836Y302715D02*
X275836Y302715D01*
X272688Y304019D01*
X270279Y306428D01*
X268975Y309576D01*
X268975Y312984D01*
X270279Y316132D01*
X272688Y318541D01*
X272800Y318587D01*
X275836Y319845D01*
X279244Y319845D01*
X282392Y318541D01*
X284801Y316132D01*
X286105Y312984D01*
X286105Y309576D01*
X284801Y306428D01*
X282392Y304019D01*
X279244Y302715D01*
X275836Y302715D01*
G37*
%LPD*%
%LPC*%
G36*
X504436Y302715D02*
X504436Y302715D01*
X501288Y304019D01*
X498879Y306428D01*
X497575Y309576D01*
X497575Y312984D01*
X498879Y316132D01*
X501288Y318541D01*
X501400Y318587D01*
X504436Y319845D01*
X507844Y319845D01*
X510992Y318541D01*
X513401Y316132D01*
X514705Y312984D01*
X514705Y309576D01*
X513401Y306428D01*
X510992Y304019D01*
X507844Y302715D01*
X504436Y302715D01*
G37*
%LPD*%
%LPC*%
G36*
X504436Y251915D02*
X504436Y251915D01*
X501288Y253219D01*
X498879Y255628D01*
X497575Y258776D01*
X497575Y262184D01*
X498879Y265332D01*
X501288Y267741D01*
X504436Y269045D01*
X507844Y269045D01*
X510992Y267741D01*
X513401Y265332D01*
X514705Y262184D01*
X514705Y258776D01*
X513401Y255628D01*
X510992Y253219D01*
X507844Y251915D01*
X504436Y251915D01*
G37*
%LPD*%
%LPC*%
G36*
X275836Y251915D02*
X275836Y251915D01*
X272688Y253219D01*
X270279Y255628D01*
X268975Y258776D01*
X268975Y262184D01*
X270279Y265332D01*
X272688Y267741D01*
X275836Y269045D01*
X279244Y269045D01*
X282392Y267741D01*
X284801Y265332D01*
X286105Y262184D01*
X286105Y258776D01*
X284801Y255628D01*
X282392Y253219D01*
X279244Y251915D01*
X275836Y251915D01*
G37*
%LPD*%
%LPC*%
G36*
X504436Y201115D02*
X504436Y201115D01*
X501288Y202419D01*
X498879Y204828D01*
X497575Y207976D01*
X497575Y211384D01*
X498879Y214532D01*
X501288Y216941D01*
X504436Y218245D01*
X507844Y218245D01*
X510992Y216941D01*
X513401Y214532D01*
X514705Y211384D01*
X514705Y207976D01*
X513401Y204828D01*
X510992Y202419D01*
X507844Y201115D01*
X504436Y201115D01*
G37*
%LPD*%
%LPC*%
G36*
X275836Y201115D02*
X275836Y201115D01*
X272688Y202419D01*
X270279Y204828D01*
X268975Y207976D01*
X268975Y211384D01*
X270279Y214532D01*
X272688Y216941D01*
X275836Y218245D01*
X279244Y218245D01*
X282392Y216941D01*
X284801Y214532D01*
X286105Y211384D01*
X286105Y207976D01*
X284801Y204828D01*
X282392Y202419D01*
X279244Y201115D01*
X275836Y201115D01*
G37*
%LPD*%
%LPC*%
G36*
X504436Y175715D02*
X504436Y175715D01*
X501288Y177019D01*
X498879Y179428D01*
X497575Y182576D01*
X497575Y185984D01*
X498879Y189132D01*
X501288Y191541D01*
X504436Y192845D01*
X507844Y192845D01*
X510992Y191541D01*
X513401Y189132D01*
X514705Y185984D01*
X514705Y182576D01*
X513401Y179428D01*
X510992Y177019D01*
X507844Y175715D01*
X504436Y175715D01*
G37*
%LPD*%
%LPC*%
G36*
X275836Y175715D02*
X275836Y175715D01*
X272688Y177019D01*
X270279Y179428D01*
X268975Y182576D01*
X268975Y185984D01*
X270279Y189132D01*
X272688Y191541D01*
X275836Y192845D01*
X279244Y192845D01*
X282392Y191541D01*
X284801Y189132D01*
X286105Y185984D01*
X286105Y182576D01*
X284801Y179428D01*
X282392Y177019D01*
X279244Y175715D01*
X275836Y175715D01*
G37*
%LPD*%
%LPC*%
G36*
X275836Y150315D02*
X275836Y150315D01*
X272688Y151619D01*
X270279Y154028D01*
X268975Y157176D01*
X268975Y160584D01*
X270279Y163732D01*
X272688Y166141D01*
X275836Y167445D01*
X279244Y167445D01*
X282392Y166141D01*
X284801Y163732D01*
X286105Y160584D01*
X286105Y157176D01*
X284801Y154028D01*
X282392Y151619D01*
X279244Y150315D01*
X275836Y150315D01*
G37*
%LPD*%
%LPC*%
G36*
X504436Y277315D02*
X504436Y277315D01*
X501288Y278619D01*
X498879Y281028D01*
X497575Y284176D01*
X497575Y287584D01*
X498879Y290732D01*
X501288Y293141D01*
X504436Y294445D01*
X507844Y294445D01*
X510992Y293141D01*
X513401Y290732D01*
X514705Y287584D01*
X514705Y284176D01*
X513401Y281028D01*
X510992Y278619D01*
X507844Y277315D01*
X504436Y277315D01*
G37*
%LPD*%
%LPC*%
G36*
X275836Y277315D02*
X275836Y277315D01*
X272688Y278619D01*
X270279Y281028D01*
X268975Y284176D01*
X268975Y287584D01*
X270279Y290732D01*
X272688Y293141D01*
X275836Y294445D01*
X279244Y294445D01*
X282392Y293141D01*
X284801Y290732D01*
X286105Y287584D01*
X286105Y284176D01*
X284801Y281028D01*
X282392Y278619D01*
X279244Y277315D01*
X275836Y277315D01*
G37*
%LPD*%
%LPC*%
G36*
X504436Y226515D02*
X504436Y226515D01*
X501288Y227819D01*
X498879Y230228D01*
X497575Y233376D01*
X497575Y236784D01*
X498879Y239932D01*
X501288Y242341D01*
X504436Y243645D01*
X507844Y243645D01*
X510992Y242341D01*
X513401Y239932D01*
X514705Y236784D01*
X514705Y233376D01*
X513401Y230228D01*
X510992Y227819D01*
X508687Y226865D01*
X507844Y226515D01*
X504436Y226515D01*
G37*
%LPD*%
%LPC*%
G36*
X275836Y226515D02*
X275836Y226515D01*
X272688Y227819D01*
X270279Y230228D01*
X268975Y233376D01*
X268975Y236784D01*
X270279Y239932D01*
X272688Y242341D01*
X275836Y243645D01*
X279244Y243645D01*
X282392Y242341D01*
X284801Y239932D01*
X286105Y236784D01*
X286105Y233376D01*
X284801Y230228D01*
X282392Y227819D01*
X280087Y226865D01*
X279244Y226515D01*
X275836Y226515D01*
G37*
%LPD*%
%LPC*%
G36*
X1130744Y584644D02*
X1130744Y584644D01*
X1130744Y593154D01*
X1137618Y593154D01*
X1139405Y592871D01*
X1141126Y592312D01*
X1142738Y591491D01*
X1144201Y590427D01*
X1145481Y589148D01*
X1146544Y587684D01*
X1147366Y586072D01*
X1147830Y584644D01*
X1130744Y584644D01*
G37*
%LPD*%
%LPC*%
G36*
X1107690Y584644D02*
X1107690Y584644D01*
X1108154Y586072D01*
X1108976Y587684D01*
X1110039Y589148D01*
X1111319Y590427D01*
X1112782Y591491D01*
X1114394Y592312D01*
X1116115Y592871D01*
X1117902Y593154D01*
X1124776Y593154D01*
X1124776Y584644D01*
X1107690Y584644D01*
G37*
%LPD*%
%LPC*%
G36*
X1130744Y570166D02*
X1130744Y570166D01*
X1130744Y578676D01*
X1147830Y578676D01*
X1147366Y577248D01*
X1146544Y575636D01*
X1145481Y574172D01*
X1144201Y572893D01*
X1142738Y571829D01*
X1141126Y571008D01*
X1139405Y570449D01*
X1137618Y570166D01*
X1130744Y570166D01*
G37*
%LPD*%
%LPC*%
G36*
X1117902Y570166D02*
X1117902Y570166D01*
X1116115Y570449D01*
X1114394Y571008D01*
X1112782Y571829D01*
X1111319Y572893D01*
X1110039Y574172D01*
X1108976Y575636D01*
X1108154Y577248D01*
X1107690Y578676D01*
X1124776Y578676D01*
X1124776Y570166D01*
X1117902Y570166D01*
G37*
%LPD*%
%LPC*%
G36*
X656855Y420499D02*
X656855Y420499D01*
X656895Y420756D01*
X657476Y422543D01*
X658329Y424217D01*
X659434Y425738D01*
X660762Y427066D01*
X662283Y428171D01*
X663957Y429024D01*
X665744Y429605D01*
X666001Y429645D01*
X666001Y420499D01*
X656855Y420499D01*
G37*
%LPD*%
%LPC*%
G36*
X665744Y406315D02*
X665744Y406315D01*
X663957Y406896D01*
X662283Y407749D01*
X660762Y408854D01*
X659434Y410182D01*
X658329Y411703D01*
X657476Y413377D01*
X656895Y415164D01*
X656855Y415421D01*
X666001Y415421D01*
X666001Y406275D01*
X665744Y406315D01*
G37*
%LPD*%
%LPC*%
G36*
X877779Y635209D02*
X877779Y635209D01*
X877779Y642913D01*
X879172Y642460D01*
X880686Y641689D01*
X882060Y640691D01*
X883261Y639490D01*
X884259Y638116D01*
X885030Y636602D01*
X885483Y635209D01*
X877779Y635209D01*
G37*
%LPD*%
%LPC*%
G36*
X877779Y629711D02*
X877779Y629711D01*
X885483Y629711D01*
X885030Y628318D01*
X884259Y626804D01*
X883261Y625430D01*
X882060Y624229D01*
X880686Y623231D01*
X879172Y622460D01*
X877779Y622007D01*
X877779Y629711D01*
G37*
%LPD*%
%LPC*%
G36*
X864577Y635209D02*
X864577Y635209D01*
X865030Y636602D01*
X865801Y638116D01*
X866799Y639490D01*
X868000Y640691D01*
X869374Y641689D01*
X870888Y642460D01*
X872281Y642913D01*
X872281Y635209D01*
X864577Y635209D01*
G37*
%LPD*%
%LPC*%
G36*
X870888Y622460D02*
X870888Y622460D01*
X869374Y623231D01*
X868000Y624229D01*
X866799Y625430D01*
X865801Y626804D01*
X865030Y628318D01*
X864577Y629711D01*
X872281Y629711D01*
X872281Y622007D01*
X870888Y622460D01*
G37*
%LPD*%
%LPC*%
G36*
X925613Y141313D02*
X925613Y141313D01*
X925613Y148601D01*
X926984Y148156D01*
X928398Y147436D01*
X929681Y146503D01*
X930803Y145381D01*
X931736Y144098D01*
X932456Y142684D01*
X932901Y141313D01*
X925613Y141313D01*
G37*
%LPD*%
%LPC*%
G36*
X913327Y141313D02*
X913327Y141313D01*
X913772Y142684D01*
X914492Y144098D01*
X915425Y145381D01*
X916547Y146503D01*
X917830Y147436D01*
X919244Y148156D01*
X920615Y148601D01*
X920615Y141313D01*
X913327Y141313D01*
G37*
%LPD*%
%LPC*%
G36*
X925613Y136315D02*
X925613Y136315D01*
X932901Y136315D01*
X932456Y134944D01*
X931736Y133530D01*
X930803Y132247D01*
X929681Y131125D01*
X928398Y130192D01*
X926984Y129472D01*
X925613Y129027D01*
X925613Y136315D01*
G37*
%LPD*%
%LPC*%
G36*
X919244Y129472D02*
X919244Y129472D01*
X917830Y130192D01*
X916547Y131125D01*
X915425Y132247D01*
X914492Y133530D01*
X913772Y134944D01*
X913327Y136315D01*
X920615Y136315D01*
X920615Y129027D01*
X919244Y129472D01*
G37*
%LPD*%
%LPC*%
G36*
X508389Y161129D02*
X508389Y161129D01*
X508389Y168223D01*
X509818Y167759D01*
X511161Y167074D01*
X512381Y166188D01*
X513448Y165121D01*
X514334Y163901D01*
X515019Y162558D01*
X515483Y161129D01*
X508389Y161129D01*
G37*
%LPD*%
%LPC*%
G36*
X508389Y156631D02*
X508389Y156631D01*
X515483Y156631D01*
X515019Y155202D01*
X514334Y153858D01*
X513448Y152639D01*
X512381Y151572D01*
X511161Y150686D01*
X509818Y150001D01*
X508389Y149537D01*
X508389Y156631D01*
G37*
%LPD*%
%LPC*%
G36*
X496797Y161129D02*
X496797Y161129D01*
X497261Y162558D01*
X497946Y163901D01*
X498832Y165121D01*
X499899Y166188D01*
X501119Y167074D01*
X502462Y167759D01*
X503891Y168223D01*
X503891Y161129D01*
X496797Y161129D01*
G37*
%LPD*%
%LPC*%
G36*
X502462Y150001D02*
X502462Y150001D01*
X501119Y150686D01*
X499899Y151572D01*
X498832Y152639D01*
X497946Y153858D01*
X497261Y155202D01*
X496797Y156631D01*
X503891Y156631D01*
X503891Y149537D01*
X502462Y150001D01*
G37*
%LPD*%
D10*
X668540Y417960D03*
X693940Y417960D03*
X719340Y417960D03*
X744740Y417960D03*
D11*
X340090Y608460D03*
X365490Y608460D03*
X390890Y608460D03*
X416290Y608460D03*
X441690Y608460D03*
X467090Y608460D03*
X340090Y430660D03*
X365490Y430660D03*
X390890Y430660D03*
X416290Y430660D03*
X441690Y430660D03*
X467090Y430660D03*
D12*
X999314Y341506D03*
D13*
X973914Y341506D03*
X948514Y341506D03*
X923114Y341506D03*
X897714Y341506D03*
X872314Y341506D03*
X846914Y341506D03*
X821514Y341506D03*
X796114Y341506D03*
X770714Y341506D03*
X745314Y341506D03*
X719914Y341506D03*
X694514Y341506D03*
X669114Y341506D03*
D12*
X999314Y138814D03*
D13*
X973914Y138814D03*
X948514Y138814D03*
X923114Y138814D03*
X897714Y138814D03*
X872314Y138814D03*
X846914Y138814D03*
X821514Y138814D03*
X796114Y138814D03*
X770714Y138814D03*
X745314Y138814D03*
X719914Y138814D03*
X694514Y138814D03*
X669114Y138814D03*
D14*
X277540Y336680D03*
D15*
X277540Y311280D03*
X277540Y285880D03*
X277540Y260480D03*
X277540Y235080D03*
X277540Y209680D03*
X277540Y184280D03*
X277540Y158880D03*
D14*
X506140Y336680D03*
D15*
X506140Y311280D03*
X506140Y285880D03*
X506140Y260480D03*
X506140Y235080D03*
X506140Y209680D03*
X506140Y184280D03*
X506140Y158880D03*
D16*
X925830Y632460D03*
D17*
X875030Y632460D03*
D18*
X1118807Y530860D02*
X1136714Y530860D01*
X1136714Y581660D02*
X1118807Y581660D01*
X1118807Y632460D02*
X1136714Y632460D01*
D16*
X1038860Y632460D03*
D17*
X988060Y632460D03*
M02*
