G04 EAGLE Gerber RS-274X export*
G75*
%MOMM*%
%FSLAX34Y34*%
%LPD*%
%INSoldermask Bottom*%
%IPPOS*%
%AMOC8*
5,1,8,0,0,1.08239X$1,22.5*%
G01*
%ADD10C,2.082800*%
%ADD11C,1.981200*%
%ADD12C,2.453200*%
%ADD13R,1.711200X1.711200*%
%ADD14C,1.711200*%
%ADD15R,1.611200X1.611200*%
%ADD16C,1.611200*%
%ADD17R,1.853200X1.853200*%
%ADD18C,1.853200*%
%ADD19C,1.993900*%
%ADD20C,3.003200*%


D10*
X668540Y417960D03*
X693940Y417960D03*
X719340Y417960D03*
X744740Y417960D03*
D11*
X340090Y608460D03*
X365490Y608460D03*
X390890Y608460D03*
X416290Y608460D03*
X441690Y608460D03*
X467090Y608460D03*
X340090Y430660D03*
X365490Y430660D03*
X390890Y430660D03*
X416290Y430660D03*
X441690Y430660D03*
X467090Y430660D03*
D12*
X1199740Y346860D03*
X1199740Y133460D03*
X579940Y133460D03*
X579940Y346860D03*
D13*
X999314Y341506D03*
D14*
X973914Y341506D03*
X948514Y341506D03*
X923114Y341506D03*
X897714Y341506D03*
X872314Y341506D03*
X846914Y341506D03*
X821514Y341506D03*
X796114Y341506D03*
X770714Y341506D03*
X745314Y341506D03*
X719914Y341506D03*
X694514Y341506D03*
X669114Y341506D03*
D13*
X999314Y138814D03*
D14*
X973914Y138814D03*
X948514Y138814D03*
X923114Y138814D03*
X897714Y138814D03*
X872314Y138814D03*
X846914Y138814D03*
X821514Y138814D03*
X796114Y138814D03*
X770714Y138814D03*
X745314Y138814D03*
X719914Y138814D03*
X694514Y138814D03*
X669114Y138814D03*
D15*
X277540Y336680D03*
D16*
X277540Y311280D03*
X277540Y285880D03*
X277540Y260480D03*
X277540Y235080D03*
X277540Y209680D03*
X277540Y184280D03*
X277540Y158880D03*
D15*
X506140Y336680D03*
D16*
X506140Y311280D03*
X506140Y285880D03*
X506140Y260480D03*
X506140Y235080D03*
X506140Y209680D03*
X506140Y184280D03*
X506140Y158880D03*
D17*
X925830Y632460D03*
D18*
X875030Y632460D03*
D19*
X1118807Y530860D02*
X1136714Y530860D01*
X1136714Y581660D02*
X1118807Y581660D01*
X1118807Y632460D02*
X1136714Y632460D01*
D17*
X1038860Y632460D03*
D18*
X988060Y632460D03*
D20*
X266700Y654050D03*
X1193800Y654050D03*
X266700Y107950D03*
M02*
