G04 EAGLE Gerber RS-274X export*
G75*
%MOMM*%
%FSLAX34Y34*%
%LPD*%
%INTop Copper*%
%IPPOS*%
%AMOC8*
5,1,8,0,0,1.08239X$1,22.5*%
G01*
%ADD10C,1.879600*%
%ADD11C,1.778000*%
%ADD12R,1.508000X1.508000*%
%ADD13C,1.508000*%
%ADD14R,1.408000X1.408000*%
%ADD15C,1.408000*%
%ADD16R,1.650000X1.650000*%
%ADD17C,1.650000*%
%ADD18C,1.790700*%
%ADD19C,0.406400*%

G36*
X1204661Y80925D02*
X1204661Y80925D01*
X1204688Y80923D01*
X1204861Y80945D01*
X1205035Y80963D01*
X1205060Y80970D01*
X1205087Y80974D01*
X1205253Y81029D01*
X1205420Y81081D01*
X1205443Y81094D01*
X1205469Y81102D01*
X1205620Y81189D01*
X1205774Y81273D01*
X1205794Y81290D01*
X1205818Y81303D01*
X1206071Y81518D01*
X1218482Y93929D01*
X1218499Y93950D01*
X1218520Y93968D01*
X1218627Y94106D01*
X1218737Y94241D01*
X1218750Y94265D01*
X1218766Y94286D01*
X1218844Y94443D01*
X1218926Y94597D01*
X1218934Y94622D01*
X1218946Y94646D01*
X1218991Y94816D01*
X1219041Y94983D01*
X1219043Y95009D01*
X1219050Y95035D01*
X1219077Y95366D01*
X1219077Y117614D01*
X1219076Y117623D01*
X1219077Y117632D01*
X1219056Y117824D01*
X1219037Y118015D01*
X1219035Y118023D01*
X1219034Y118032D01*
X1218976Y118214D01*
X1218919Y118400D01*
X1218915Y118408D01*
X1218912Y118416D01*
X1218819Y118584D01*
X1218727Y118754D01*
X1218722Y118760D01*
X1218717Y118768D01*
X1218593Y118915D01*
X1218470Y119063D01*
X1218463Y119068D01*
X1218457Y119075D01*
X1218306Y119194D01*
X1218156Y119315D01*
X1218148Y119319D01*
X1218141Y119325D01*
X1217968Y119413D01*
X1217799Y119501D01*
X1217790Y119503D01*
X1217782Y119507D01*
X1217596Y119559D01*
X1217412Y119612D01*
X1217403Y119613D01*
X1217394Y119615D01*
X1217201Y119629D01*
X1217010Y119645D01*
X1217002Y119644D01*
X1216993Y119645D01*
X1216800Y119620D01*
X1216611Y119598D01*
X1216602Y119595D01*
X1216593Y119594D01*
X1216410Y119533D01*
X1216228Y119473D01*
X1216220Y119469D01*
X1216212Y119466D01*
X1216045Y119370D01*
X1215877Y119275D01*
X1215870Y119270D01*
X1215863Y119265D01*
X1215610Y119050D01*
X1211868Y115309D01*
X1211837Y115296D01*
X1203999Y112049D01*
X1195481Y112049D01*
X1187612Y115309D01*
X1181589Y121332D01*
X1178329Y129201D01*
X1178329Y137719D01*
X1181589Y145588D01*
X1187612Y151611D01*
X1193876Y154206D01*
X1195481Y154871D01*
X1203999Y154871D01*
X1211868Y151611D01*
X1215610Y147870D01*
X1215617Y147864D01*
X1215622Y147857D01*
X1215772Y147737D01*
X1215921Y147615D01*
X1215929Y147610D01*
X1215936Y147605D01*
X1216107Y147516D01*
X1216277Y147426D01*
X1216286Y147423D01*
X1216293Y147419D01*
X1216478Y147366D01*
X1216663Y147311D01*
X1216672Y147310D01*
X1216680Y147308D01*
X1216872Y147292D01*
X1217064Y147275D01*
X1217073Y147276D01*
X1217082Y147275D01*
X1217271Y147297D01*
X1217464Y147318D01*
X1217473Y147321D01*
X1217481Y147322D01*
X1217663Y147381D01*
X1217848Y147440D01*
X1217856Y147444D01*
X1217864Y147447D01*
X1218033Y147542D01*
X1218200Y147635D01*
X1218207Y147640D01*
X1218215Y147645D01*
X1218361Y147771D01*
X1218507Y147895D01*
X1218513Y147902D01*
X1218520Y147908D01*
X1218637Y148059D01*
X1218757Y148211D01*
X1218761Y148219D01*
X1218766Y148226D01*
X1218852Y148398D01*
X1218939Y148570D01*
X1218942Y148578D01*
X1218946Y148586D01*
X1218996Y148772D01*
X1219047Y148958D01*
X1219048Y148967D01*
X1219050Y148975D01*
X1219077Y149306D01*
X1219077Y331014D01*
X1219076Y331023D01*
X1219077Y331032D01*
X1219056Y331224D01*
X1219037Y331415D01*
X1219035Y331423D01*
X1219034Y331432D01*
X1218976Y331614D01*
X1218919Y331800D01*
X1218915Y331808D01*
X1218912Y331816D01*
X1218819Y331984D01*
X1218727Y332154D01*
X1218722Y332160D01*
X1218717Y332168D01*
X1218593Y332315D01*
X1218470Y332463D01*
X1218463Y332468D01*
X1218457Y332475D01*
X1218306Y332594D01*
X1218156Y332715D01*
X1218148Y332719D01*
X1218141Y332725D01*
X1217968Y332813D01*
X1217799Y332901D01*
X1217790Y332903D01*
X1217782Y332907D01*
X1217596Y332959D01*
X1217412Y333012D01*
X1217403Y333013D01*
X1217394Y333015D01*
X1217201Y333029D01*
X1217010Y333045D01*
X1217002Y333044D01*
X1216993Y333045D01*
X1216800Y333020D01*
X1216611Y332998D01*
X1216602Y332995D01*
X1216593Y332994D01*
X1216410Y332933D01*
X1216228Y332873D01*
X1216220Y332869D01*
X1216212Y332866D01*
X1216045Y332770D01*
X1215877Y332675D01*
X1215870Y332670D01*
X1215863Y332665D01*
X1215610Y332450D01*
X1211868Y328709D01*
X1211551Y328577D01*
X1211550Y328577D01*
X1203999Y325449D01*
X1195481Y325449D01*
X1187612Y328709D01*
X1181589Y334732D01*
X1178329Y342601D01*
X1178329Y351119D01*
X1181589Y358988D01*
X1187612Y365011D01*
X1193589Y367487D01*
X1195481Y368271D01*
X1203999Y368271D01*
X1211868Y365011D01*
X1215610Y361270D01*
X1215617Y361264D01*
X1215622Y361257D01*
X1215772Y361137D01*
X1215921Y361015D01*
X1215929Y361010D01*
X1215936Y361005D01*
X1216107Y360916D01*
X1216277Y360826D01*
X1216286Y360823D01*
X1216293Y360819D01*
X1216478Y360766D01*
X1216663Y360711D01*
X1216672Y360710D01*
X1216680Y360708D01*
X1216872Y360692D01*
X1217064Y360675D01*
X1217073Y360676D01*
X1217082Y360675D01*
X1217271Y360697D01*
X1217464Y360718D01*
X1217473Y360721D01*
X1217481Y360722D01*
X1217663Y360781D01*
X1217848Y360840D01*
X1217856Y360844D01*
X1217864Y360847D01*
X1218033Y360942D01*
X1218200Y361035D01*
X1218207Y361040D01*
X1218215Y361045D01*
X1218361Y361171D01*
X1218507Y361295D01*
X1218513Y361302D01*
X1218520Y361308D01*
X1218637Y361459D01*
X1218757Y361611D01*
X1218761Y361619D01*
X1218766Y361626D01*
X1218852Y361798D01*
X1218939Y361970D01*
X1218942Y361978D01*
X1218946Y361986D01*
X1218996Y362172D01*
X1219047Y362358D01*
X1219048Y362367D01*
X1219050Y362375D01*
X1219077Y362706D01*
X1219077Y666653D01*
X1219068Y666748D01*
X1219068Y666844D01*
X1219048Y666948D01*
X1219037Y667054D01*
X1219009Y667145D01*
X1218991Y667239D01*
X1218950Y667337D01*
X1218919Y667439D01*
X1218874Y667523D01*
X1218837Y667611D01*
X1218778Y667699D01*
X1218727Y667793D01*
X1218666Y667866D01*
X1218613Y667945D01*
X1218522Y668039D01*
X1218470Y668102D01*
X1218430Y668134D01*
X1218382Y668183D01*
X1206477Y678576D01*
X1206347Y678669D01*
X1206221Y678766D01*
X1206183Y678785D01*
X1206149Y678810D01*
X1206003Y678875D01*
X1205861Y678946D01*
X1205820Y678957D01*
X1205781Y678974D01*
X1205626Y679009D01*
X1205472Y679050D01*
X1205424Y679054D01*
X1205388Y679062D01*
X1205301Y679064D01*
X1205141Y679077D01*
X255366Y679077D01*
X255339Y679075D01*
X255312Y679077D01*
X255139Y679055D01*
X254965Y679037D01*
X254940Y679030D01*
X254913Y679026D01*
X254747Y678971D01*
X254580Y678919D01*
X254557Y678906D01*
X254531Y678898D01*
X254380Y678811D01*
X254226Y678727D01*
X254206Y678710D01*
X254182Y678697D01*
X253929Y678482D01*
X241518Y666071D01*
X241501Y666050D01*
X241480Y666032D01*
X241373Y665894D01*
X241263Y665759D01*
X241250Y665735D01*
X241234Y665714D01*
X241156Y665558D01*
X241074Y665403D01*
X241066Y665378D01*
X241054Y665354D01*
X241009Y665185D01*
X240959Y665017D01*
X240957Y664991D01*
X240950Y664965D01*
X240923Y664634D01*
X240923Y418186D01*
X240923Y418181D01*
X240923Y418177D01*
X240943Y417979D01*
X240963Y417785D01*
X240964Y417781D01*
X240964Y417776D01*
X241024Y417586D01*
X241081Y417400D01*
X241083Y417396D01*
X241084Y417392D01*
X241181Y417215D01*
X241273Y417046D01*
X241275Y417043D01*
X241278Y417039D01*
X241406Y416886D01*
X241530Y416737D01*
X241534Y416734D01*
X241537Y416731D01*
X241692Y416607D01*
X241844Y416485D01*
X241848Y416483D01*
X241852Y416480D01*
X242030Y416388D01*
X242201Y416299D01*
X242206Y416298D01*
X242210Y416296D01*
X242403Y416241D01*
X242588Y416188D01*
X242593Y416187D01*
X242597Y416186D01*
X242793Y416171D01*
X242990Y416155D01*
X242994Y416155D01*
X242998Y416155D01*
X243192Y416179D01*
X243389Y416202D01*
X243394Y416203D01*
X243398Y416204D01*
X243583Y416265D01*
X243772Y416327D01*
X243776Y416329D01*
X243780Y416330D01*
X243949Y416427D01*
X244123Y416525D01*
X244126Y416528D01*
X244130Y416530D01*
X244276Y416657D01*
X244427Y416788D01*
X244430Y416791D01*
X244434Y416794D01*
X244554Y416951D01*
X244674Y417106D01*
X244676Y417110D01*
X244679Y417113D01*
X244831Y417409D01*
X245133Y418138D01*
X261962Y434967D01*
X263829Y435741D01*
X308865Y435741D01*
X308887Y435743D01*
X308909Y435741D01*
X309087Y435763D01*
X309266Y435781D01*
X309287Y435787D01*
X309309Y435790D01*
X309479Y435846D01*
X309650Y435899D01*
X309670Y435909D01*
X309691Y435916D01*
X309847Y436005D01*
X310004Y436091D01*
X310022Y436105D01*
X310041Y436116D01*
X310176Y436234D01*
X310314Y436348D01*
X310328Y436366D01*
X310345Y436380D01*
X310453Y436522D01*
X310566Y436662D01*
X310576Y436682D01*
X310590Y436700D01*
X310742Y436995D01*
X310919Y437423D01*
X314277Y440781D01*
X318665Y442599D01*
X323415Y442599D01*
X327803Y440781D01*
X331161Y437423D01*
X331863Y435727D01*
X331868Y435720D01*
X331870Y435711D01*
X331962Y435543D01*
X332054Y435373D01*
X332059Y435366D01*
X332064Y435358D01*
X332187Y435211D01*
X332310Y435062D01*
X332317Y435057D01*
X332323Y435050D01*
X332473Y434930D01*
X332623Y434808D01*
X332631Y434804D01*
X332637Y434799D01*
X332808Y434711D01*
X332979Y434621D01*
X332988Y434619D01*
X332996Y434615D01*
X333179Y434563D01*
X333365Y434508D01*
X333375Y434508D01*
X333383Y434505D01*
X333574Y434490D01*
X333767Y434474D01*
X333776Y434475D01*
X333784Y434474D01*
X333975Y434497D01*
X334167Y434519D01*
X334175Y434522D01*
X334184Y434523D01*
X334367Y434583D01*
X334550Y434642D01*
X334558Y434646D01*
X334566Y434649D01*
X334734Y434745D01*
X334901Y434838D01*
X334908Y434844D01*
X334916Y434849D01*
X335061Y434975D01*
X335207Y435100D01*
X335213Y435107D01*
X335220Y435113D01*
X335337Y435266D01*
X335456Y435417D01*
X335460Y435425D01*
X335465Y435432D01*
X335617Y435727D01*
X336319Y437423D01*
X339677Y440781D01*
X344065Y442599D01*
X348815Y442599D01*
X353203Y440781D01*
X356561Y437423D01*
X357519Y435111D01*
X357580Y434996D01*
X357634Y434877D01*
X357675Y434819D01*
X357709Y434756D01*
X357792Y434655D01*
X357868Y434549D01*
X357920Y434501D01*
X357965Y434446D01*
X358067Y434364D01*
X358162Y434274D01*
X358223Y434237D01*
X358278Y434192D01*
X358393Y434132D01*
X358505Y434063D01*
X358572Y434038D01*
X358634Y434005D01*
X358760Y433968D01*
X358883Y433923D01*
X358953Y433912D01*
X359021Y433892D01*
X359151Y433881D01*
X359280Y433860D01*
X359351Y433863D01*
X359422Y433857D01*
X359552Y433872D01*
X359683Y433878D01*
X359752Y433895D01*
X359822Y433903D01*
X359946Y433942D01*
X360074Y433974D01*
X360138Y434004D01*
X360205Y434026D01*
X360319Y434089D01*
X360438Y434145D01*
X360495Y434187D01*
X360557Y434222D01*
X360656Y434307D01*
X360761Y434385D01*
X360809Y434438D01*
X360863Y434484D01*
X360943Y434587D01*
X361031Y434684D01*
X361074Y434754D01*
X361111Y434801D01*
X361145Y434869D01*
X361205Y434966D01*
X362063Y436651D01*
X363121Y438107D01*
X364393Y439379D01*
X365849Y440436D01*
X367452Y441253D01*
X369163Y441809D01*
X369341Y441837D01*
X369341Y431128D01*
X369342Y431110D01*
X369341Y431093D01*
X369362Y430910D01*
X369381Y430728D01*
X369386Y430711D01*
X369388Y430693D01*
X369401Y430652D01*
X369374Y430558D01*
X369372Y430540D01*
X369368Y430523D01*
X369341Y430192D01*
X369341Y419483D01*
X369163Y419511D01*
X367452Y420067D01*
X365849Y420884D01*
X364393Y421941D01*
X363121Y423213D01*
X362063Y424669D01*
X361205Y426354D01*
X361135Y426464D01*
X361072Y426578D01*
X361026Y426633D01*
X360988Y426693D01*
X360897Y426787D01*
X360813Y426887D01*
X360757Y426931D01*
X360708Y426982D01*
X360600Y427056D01*
X360498Y427138D01*
X360435Y427170D01*
X360376Y427210D01*
X360256Y427262D01*
X360140Y427322D01*
X360072Y427341D01*
X360006Y427369D01*
X359878Y427396D01*
X359752Y427431D01*
X359682Y427437D01*
X359612Y427451D01*
X359481Y427452D01*
X359351Y427462D01*
X359280Y427454D01*
X359209Y427454D01*
X359081Y427429D01*
X358951Y427414D01*
X358884Y427391D01*
X358814Y427378D01*
X358693Y427328D01*
X358569Y427287D01*
X358507Y427252D01*
X358442Y427225D01*
X358333Y427152D01*
X358219Y427088D01*
X358166Y427041D01*
X358107Y427002D01*
X358014Y426909D01*
X357916Y426823D01*
X357872Y426767D01*
X357822Y426717D01*
X357750Y426608D01*
X357670Y426504D01*
X357633Y426431D01*
X357600Y426381D01*
X357571Y426311D01*
X357519Y426209D01*
X356561Y423897D01*
X353203Y420539D01*
X348815Y418721D01*
X344065Y418721D01*
X339677Y420539D01*
X336319Y423897D01*
X335617Y425593D01*
X335612Y425600D01*
X335610Y425609D01*
X335517Y425779D01*
X335426Y425947D01*
X335421Y425954D01*
X335416Y425962D01*
X335292Y426111D01*
X335170Y426258D01*
X335163Y426263D01*
X335157Y426270D01*
X335006Y426391D01*
X334857Y426512D01*
X334850Y426516D01*
X334842Y426521D01*
X334670Y426610D01*
X334501Y426699D01*
X334492Y426701D01*
X334484Y426705D01*
X334300Y426757D01*
X334114Y426812D01*
X334105Y426812D01*
X334097Y426815D01*
X333906Y426830D01*
X333713Y426846D01*
X333704Y426845D01*
X333696Y426846D01*
X333504Y426823D01*
X333313Y426801D01*
X333305Y426798D01*
X333296Y426797D01*
X333114Y426737D01*
X332930Y426678D01*
X332922Y426674D01*
X332914Y426671D01*
X332748Y426576D01*
X332578Y426482D01*
X332572Y426476D01*
X332564Y426471D01*
X332420Y426346D01*
X332273Y426220D01*
X332267Y426213D01*
X332260Y426207D01*
X332143Y426055D01*
X332024Y425903D01*
X332020Y425895D01*
X332015Y425888D01*
X331863Y425593D01*
X331161Y423897D01*
X327803Y420539D01*
X323415Y418721D01*
X318665Y418721D01*
X314277Y420539D01*
X310919Y423897D01*
X310742Y424325D01*
X310731Y424345D01*
X310724Y424366D01*
X310636Y424522D01*
X310551Y424680D01*
X310537Y424697D01*
X310526Y424717D01*
X310409Y424852D01*
X310295Y424991D01*
X310278Y425005D01*
X310263Y425022D01*
X310122Y425131D01*
X309982Y425244D01*
X309963Y425255D01*
X309945Y425268D01*
X309784Y425348D01*
X309626Y425431D01*
X309604Y425438D01*
X309584Y425448D01*
X309411Y425494D01*
X309239Y425544D01*
X309217Y425546D01*
X309196Y425552D01*
X308865Y425579D01*
X267786Y425579D01*
X267759Y425577D01*
X267733Y425579D01*
X267559Y425557D01*
X267385Y425539D01*
X267360Y425532D01*
X267333Y425528D01*
X267167Y425473D01*
X267000Y425421D01*
X266977Y425408D01*
X266951Y425400D01*
X266800Y425313D01*
X266646Y425229D01*
X266626Y425212D01*
X266603Y425199D01*
X266350Y424984D01*
X255116Y413750D01*
X255099Y413730D01*
X255078Y413712D01*
X254971Y413574D01*
X254861Y413439D01*
X254848Y413415D01*
X254832Y413394D01*
X254754Y413237D01*
X254672Y413083D01*
X254664Y413058D01*
X254652Y413034D01*
X254607Y412864D01*
X254557Y412697D01*
X254555Y412671D01*
X254548Y412645D01*
X254521Y412314D01*
X254521Y168430D01*
X254522Y168421D01*
X254521Y168412D01*
X254542Y168220D01*
X254561Y168029D01*
X254563Y168021D01*
X254564Y168012D01*
X254622Y167828D01*
X254679Y167644D01*
X254683Y167636D01*
X254686Y167628D01*
X254779Y167460D01*
X254871Y167290D01*
X254876Y167283D01*
X254881Y167276D01*
X255006Y167128D01*
X255128Y166981D01*
X255135Y166975D01*
X255141Y166969D01*
X255293Y166849D01*
X255442Y166729D01*
X255450Y166725D01*
X255457Y166719D01*
X255629Y166632D01*
X255799Y166543D01*
X255808Y166541D01*
X255816Y166537D01*
X256002Y166485D01*
X256186Y166432D01*
X256195Y166431D01*
X256204Y166429D01*
X256396Y166415D01*
X256588Y166399D01*
X256596Y166400D01*
X256605Y166399D01*
X256798Y166424D01*
X256987Y166446D01*
X256996Y166449D01*
X257005Y166450D01*
X257188Y166511D01*
X257370Y166571D01*
X257378Y166575D01*
X257386Y166578D01*
X257552Y166673D01*
X257721Y166769D01*
X257728Y166774D01*
X257735Y166779D01*
X257988Y166994D01*
X259547Y168553D01*
X259548Y168553D01*
X266856Y175862D01*
X266873Y175882D01*
X266894Y175900D01*
X267001Y176038D01*
X267111Y176173D01*
X267124Y176197D01*
X267140Y176218D01*
X267218Y176374D01*
X267300Y176529D01*
X267308Y176554D01*
X267320Y176578D01*
X267365Y176748D01*
X267415Y176915D01*
X267417Y176941D01*
X267424Y176967D01*
X267451Y177298D01*
X267451Y178667D01*
X268987Y182375D01*
X271825Y185213D01*
X275533Y186749D01*
X279547Y186749D01*
X283255Y185213D01*
X286093Y182375D01*
X287629Y178667D01*
X287629Y174653D01*
X286093Y170945D01*
X283255Y168107D01*
X279547Y166571D01*
X275533Y166571D01*
X274244Y167105D01*
X274223Y167112D01*
X274203Y167122D01*
X274030Y167170D01*
X273858Y167222D01*
X273836Y167224D01*
X273815Y167230D01*
X273636Y167243D01*
X273458Y167260D01*
X273436Y167258D01*
X273413Y167259D01*
X273234Y167237D01*
X273057Y167218D01*
X273036Y167212D01*
X273014Y167209D01*
X272843Y167152D01*
X272673Y167098D01*
X272653Y167088D01*
X272632Y167081D01*
X272476Y166991D01*
X272320Y166905D01*
X272303Y166891D01*
X272283Y166880D01*
X272030Y166665D01*
X267816Y162450D01*
X267799Y162430D01*
X267778Y162412D01*
X267672Y162275D01*
X267561Y162139D01*
X267548Y162115D01*
X267532Y162094D01*
X267454Y161938D01*
X267372Y161783D01*
X267364Y161758D01*
X267352Y161734D01*
X267307Y161565D01*
X267257Y161397D01*
X267255Y161371D01*
X267248Y161345D01*
X267221Y161014D01*
X267221Y160112D01*
X267221Y160108D01*
X267221Y160106D01*
X267221Y160102D01*
X267221Y160094D01*
X267242Y159903D01*
X267261Y159712D01*
X267263Y159703D01*
X267264Y159694D01*
X267322Y159512D01*
X267379Y159327D01*
X267383Y159319D01*
X267386Y159310D01*
X267479Y159142D01*
X267571Y158973D01*
X267576Y158966D01*
X267581Y158958D01*
X267706Y158810D01*
X267828Y158663D01*
X267835Y158658D01*
X267841Y158651D01*
X267992Y158532D01*
X268142Y158411D01*
X268150Y158407D01*
X268157Y158401D01*
X268328Y158314D01*
X268499Y158226D01*
X268508Y158223D01*
X268516Y158219D01*
X268702Y158167D01*
X268886Y158114D01*
X268895Y158113D01*
X268904Y158111D01*
X269096Y158097D01*
X269288Y158081D01*
X269296Y158082D01*
X269305Y158082D01*
X269498Y158106D01*
X269687Y158128D01*
X269696Y158131D01*
X269705Y158132D01*
X269888Y158193D01*
X270070Y158253D01*
X270078Y158257D01*
X270086Y158260D01*
X270252Y158356D01*
X270421Y158451D01*
X270428Y158457D01*
X270435Y158461D01*
X270688Y158676D01*
X271825Y159813D01*
X273000Y160299D01*
X273000Y160300D01*
X275533Y161349D01*
X279547Y161349D01*
X283255Y159813D01*
X286093Y156975D01*
X287629Y153267D01*
X287629Y149253D01*
X286093Y145545D01*
X283255Y142707D01*
X279547Y141171D01*
X275533Y141171D01*
X271825Y142707D01*
X270688Y143844D01*
X270681Y143850D01*
X270676Y143857D01*
X270525Y143978D01*
X270377Y144099D01*
X270369Y144103D01*
X270362Y144109D01*
X270192Y144197D01*
X270021Y144288D01*
X270012Y144290D01*
X270005Y144294D01*
X269820Y144347D01*
X269635Y144403D01*
X269626Y144403D01*
X269618Y144406D01*
X269427Y144422D01*
X269234Y144439D01*
X269225Y144438D01*
X269216Y144439D01*
X269027Y144417D01*
X268834Y144396D01*
X268825Y144393D01*
X268817Y144392D01*
X268635Y144332D01*
X268450Y144274D01*
X268442Y144270D01*
X268434Y144267D01*
X268267Y144173D01*
X268098Y144079D01*
X268091Y144073D01*
X268083Y144069D01*
X267938Y143944D01*
X267791Y143819D01*
X267785Y143812D01*
X267778Y143806D01*
X267662Y143655D01*
X267541Y143503D01*
X267537Y143495D01*
X267532Y143488D01*
X267447Y143317D01*
X267359Y143144D01*
X267356Y143135D01*
X267352Y143127D01*
X267303Y142942D01*
X267251Y142756D01*
X267250Y142747D01*
X267248Y142739D01*
X267221Y142408D01*
X267221Y128806D01*
X267223Y128779D01*
X267221Y128753D01*
X267243Y128579D01*
X267261Y128405D01*
X267268Y128380D01*
X267272Y128353D01*
X267327Y128187D01*
X267379Y128020D01*
X267392Y127997D01*
X267400Y127971D01*
X267487Y127820D01*
X267571Y127666D01*
X267588Y127646D01*
X267601Y127623D01*
X267816Y127370D01*
X289050Y106136D01*
X289070Y106119D01*
X289088Y106098D01*
X289226Y105991D01*
X289361Y105881D01*
X289385Y105868D01*
X289406Y105852D01*
X289563Y105774D01*
X289717Y105692D01*
X289742Y105684D01*
X289766Y105672D01*
X289936Y105627D01*
X290103Y105577D01*
X290129Y105575D01*
X290155Y105568D01*
X290486Y105541D01*
X588444Y105541D01*
X588471Y105543D01*
X588497Y105541D01*
X588671Y105563D01*
X588845Y105581D01*
X588870Y105588D01*
X588897Y105592D01*
X589063Y105647D01*
X589230Y105699D01*
X589253Y105712D01*
X589279Y105720D01*
X589430Y105807D01*
X589584Y105891D01*
X589604Y105908D01*
X589627Y105921D01*
X589880Y106136D01*
X598414Y114670D01*
X598431Y114690D01*
X598452Y114708D01*
X598559Y114846D01*
X598669Y114981D01*
X598682Y115005D01*
X598698Y115026D01*
X598776Y115183D01*
X598858Y115337D01*
X598866Y115362D01*
X598878Y115386D01*
X598923Y115556D01*
X598973Y115723D01*
X598975Y115749D01*
X598982Y115775D01*
X599009Y116106D01*
X599009Y117346D01*
X599008Y117355D01*
X599009Y117364D01*
X598988Y117556D01*
X598969Y117747D01*
X598967Y117755D01*
X598966Y117764D01*
X598909Y117945D01*
X598851Y118132D01*
X598847Y118140D01*
X598844Y118148D01*
X598751Y118316D01*
X598659Y118486D01*
X598654Y118492D01*
X598649Y118500D01*
X598525Y118647D01*
X598402Y118795D01*
X598395Y118800D01*
X598389Y118807D01*
X598238Y118926D01*
X598088Y119047D01*
X598080Y119051D01*
X598073Y119057D01*
X597900Y119145D01*
X597731Y119233D01*
X597722Y119235D01*
X597714Y119239D01*
X597528Y119291D01*
X597344Y119344D01*
X597335Y119345D01*
X597326Y119347D01*
X597133Y119361D01*
X596942Y119377D01*
X596934Y119376D01*
X596925Y119377D01*
X596732Y119352D01*
X596543Y119330D01*
X596534Y119327D01*
X596525Y119326D01*
X596342Y119265D01*
X596160Y119205D01*
X596152Y119201D01*
X596144Y119198D01*
X595977Y119102D01*
X595809Y119007D01*
X595802Y119002D01*
X595795Y118997D01*
X595542Y118782D01*
X592068Y115309D01*
X592037Y115296D01*
X584199Y112049D01*
X575681Y112049D01*
X567812Y115309D01*
X561789Y121332D01*
X558529Y129201D01*
X558529Y137719D01*
X561789Y145588D01*
X567812Y151611D01*
X574076Y154206D01*
X575681Y154871D01*
X584199Y154871D01*
X592068Y151611D01*
X595542Y148138D01*
X595549Y148132D01*
X595554Y148125D01*
X595704Y148005D01*
X595853Y147883D01*
X595861Y147878D01*
X595868Y147873D01*
X596038Y147784D01*
X596209Y147694D01*
X596218Y147691D01*
X596225Y147687D01*
X596410Y147634D01*
X596595Y147579D01*
X596604Y147578D01*
X596612Y147576D01*
X596803Y147560D01*
X596996Y147543D01*
X597005Y147544D01*
X597014Y147543D01*
X597203Y147565D01*
X597396Y147586D01*
X597405Y147589D01*
X597413Y147590D01*
X597595Y147649D01*
X597780Y147708D01*
X597788Y147712D01*
X597796Y147715D01*
X597965Y147810D01*
X598132Y147903D01*
X598139Y147908D01*
X598147Y147913D01*
X598293Y148039D01*
X598439Y148163D01*
X598445Y148170D01*
X598452Y148176D01*
X598568Y148327D01*
X598689Y148479D01*
X598693Y148487D01*
X598698Y148494D01*
X598784Y148666D01*
X598871Y148838D01*
X598874Y148846D01*
X598878Y148854D01*
X598927Y149038D01*
X598979Y149226D01*
X598980Y149235D01*
X598982Y149243D01*
X599009Y149574D01*
X599009Y330746D01*
X599008Y330755D01*
X599009Y330764D01*
X598988Y330956D01*
X598969Y331147D01*
X598967Y331155D01*
X598966Y331164D01*
X598909Y331345D01*
X598851Y331532D01*
X598847Y331540D01*
X598844Y331548D01*
X598751Y331716D01*
X598659Y331886D01*
X598654Y331892D01*
X598649Y331900D01*
X598525Y332047D01*
X598402Y332195D01*
X598395Y332200D01*
X598389Y332207D01*
X598238Y332326D01*
X598088Y332447D01*
X598080Y332451D01*
X598073Y332457D01*
X597900Y332545D01*
X597731Y332633D01*
X597722Y332635D01*
X597714Y332639D01*
X597528Y332691D01*
X597344Y332744D01*
X597335Y332745D01*
X597326Y332747D01*
X597133Y332761D01*
X596942Y332777D01*
X596934Y332776D01*
X596925Y332777D01*
X596732Y332752D01*
X596543Y332730D01*
X596534Y332727D01*
X596525Y332726D01*
X596342Y332665D01*
X596160Y332605D01*
X596152Y332601D01*
X596144Y332598D01*
X595977Y332502D01*
X595809Y332407D01*
X595802Y332402D01*
X595795Y332397D01*
X595542Y332182D01*
X592068Y328709D01*
X591751Y328577D01*
X591750Y328577D01*
X584199Y325449D01*
X575681Y325449D01*
X567812Y328709D01*
X561789Y334732D01*
X558529Y342601D01*
X558529Y351119D01*
X561789Y358988D01*
X567812Y365011D01*
X573789Y367487D01*
X575681Y368271D01*
X584199Y368271D01*
X592068Y365011D01*
X595542Y361538D01*
X595549Y361532D01*
X595554Y361525D01*
X595704Y361405D01*
X595853Y361283D01*
X595861Y361278D01*
X595868Y361273D01*
X596038Y361184D01*
X596209Y361094D01*
X596218Y361091D01*
X596225Y361087D01*
X596410Y361034D01*
X596595Y360979D01*
X596604Y360978D01*
X596612Y360976D01*
X596803Y360960D01*
X596996Y360943D01*
X597005Y360944D01*
X597014Y360943D01*
X597203Y360965D01*
X597396Y360986D01*
X597405Y360989D01*
X597413Y360990D01*
X597595Y361049D01*
X597780Y361108D01*
X597788Y361112D01*
X597796Y361115D01*
X597965Y361210D01*
X598132Y361303D01*
X598139Y361308D01*
X598147Y361313D01*
X598293Y361439D01*
X598439Y361563D01*
X598445Y361570D01*
X598452Y361576D01*
X598569Y361727D01*
X598689Y361879D01*
X598693Y361887D01*
X598698Y361894D01*
X598784Y362066D01*
X598871Y362238D01*
X598874Y362246D01*
X598878Y362254D01*
X598928Y362440D01*
X598979Y362626D01*
X598980Y362635D01*
X598982Y362643D01*
X599009Y362974D01*
X599009Y380871D01*
X599783Y382738D01*
X613912Y396867D01*
X615779Y397641D01*
X664644Y397641D01*
X664671Y397643D01*
X664697Y397641D01*
X664871Y397663D01*
X665045Y397681D01*
X665070Y397688D01*
X665097Y397692D01*
X665263Y397747D01*
X665430Y397799D01*
X665453Y397812D01*
X665479Y397820D01*
X665630Y397907D01*
X665784Y397991D01*
X665804Y398008D01*
X665827Y398021D01*
X666080Y398236D01*
X670484Y402640D01*
X670501Y402660D01*
X670522Y402678D01*
X670629Y402816D01*
X670739Y402951D01*
X670752Y402975D01*
X670768Y402996D01*
X670846Y403153D01*
X670928Y403307D01*
X670936Y403332D01*
X670948Y403356D01*
X670993Y403526D01*
X671043Y403693D01*
X671045Y403719D01*
X671052Y403745D01*
X671079Y404076D01*
X671079Y417452D01*
X671077Y417470D01*
X671079Y417487D01*
X671058Y417670D01*
X671039Y417852D01*
X671034Y417869D01*
X671032Y417887D01*
X671007Y417965D01*
X671046Y418102D01*
X671048Y418120D01*
X671052Y418137D01*
X671079Y418468D01*
X671079Y429645D01*
X671336Y429605D01*
X673123Y429024D01*
X674797Y428171D01*
X676318Y427066D01*
X677646Y425738D01*
X678751Y424217D01*
X679127Y423479D01*
X679198Y423369D01*
X679261Y423254D01*
X679306Y423200D01*
X679345Y423140D01*
X679436Y423046D01*
X679520Y422946D01*
X679575Y422902D01*
X679625Y422851D01*
X679732Y422776D01*
X679835Y422695D01*
X679898Y422663D01*
X679956Y422622D01*
X680077Y422571D01*
X680193Y422511D01*
X680261Y422492D01*
X680326Y422464D01*
X680454Y422437D01*
X680580Y422401D01*
X680651Y422396D01*
X680720Y422381D01*
X680851Y422380D01*
X680981Y422370D01*
X681052Y422379D01*
X681123Y422378D01*
X681252Y422403D01*
X681381Y422419D01*
X681448Y422441D01*
X681518Y422455D01*
X681640Y422504D01*
X681763Y422545D01*
X681825Y422580D01*
X681891Y422607D01*
X682000Y422680D01*
X682113Y422745D01*
X682167Y422791D01*
X682226Y422831D01*
X682318Y422923D01*
X682417Y423009D01*
X682460Y423066D01*
X682510Y423116D01*
X682582Y423225D01*
X682662Y423328D01*
X682700Y423401D01*
X682733Y423451D01*
X682761Y423522D01*
X682814Y423624D01*
X683388Y425011D01*
X686889Y428512D01*
X691464Y430407D01*
X696416Y430407D01*
X700991Y428512D01*
X704492Y425011D01*
X704763Y424355D01*
X704768Y424347D01*
X704770Y424339D01*
X704862Y424170D01*
X704954Y424000D01*
X704959Y423993D01*
X704964Y423985D01*
X705089Y423836D01*
X705210Y423690D01*
X705217Y423684D01*
X705223Y423677D01*
X705373Y423557D01*
X705523Y423436D01*
X705530Y423432D01*
X705537Y423426D01*
X705707Y423339D01*
X705879Y423249D01*
X705888Y423246D01*
X705896Y423242D01*
X706078Y423191D01*
X706265Y423136D01*
X706275Y423135D01*
X706283Y423133D01*
X706473Y423118D01*
X706667Y423101D01*
X706675Y423102D01*
X706684Y423102D01*
X706874Y423125D01*
X707067Y423146D01*
X707075Y423149D01*
X707084Y423150D01*
X707265Y423210D01*
X707450Y423270D01*
X707458Y423274D01*
X707466Y423277D01*
X707634Y423372D01*
X707801Y423466D01*
X707808Y423472D01*
X707816Y423476D01*
X707962Y423603D01*
X708107Y423728D01*
X708113Y423735D01*
X708120Y423741D01*
X708236Y423892D01*
X708356Y424045D01*
X708360Y424053D01*
X708365Y424060D01*
X708517Y424355D01*
X708788Y425011D01*
X712289Y428512D01*
X713005Y428808D01*
X713025Y428819D01*
X713046Y428826D01*
X713202Y428914D01*
X713360Y428999D01*
X713377Y429013D01*
X713397Y429024D01*
X713533Y429141D01*
X713671Y429255D01*
X713685Y429272D01*
X713702Y429287D01*
X713811Y429428D01*
X713924Y429568D01*
X713935Y429587D01*
X713948Y429605D01*
X714028Y429765D01*
X714111Y429924D01*
X714118Y429945D01*
X714128Y429965D01*
X714174Y430139D01*
X714224Y430310D01*
X714226Y430333D01*
X714232Y430354D01*
X714259Y430685D01*
X714259Y440414D01*
X714257Y440441D01*
X714259Y440467D01*
X714237Y440641D01*
X714219Y440815D01*
X714212Y440840D01*
X714208Y440867D01*
X714153Y441033D01*
X714101Y441200D01*
X714088Y441223D01*
X714080Y441249D01*
X713993Y441400D01*
X713909Y441554D01*
X713892Y441574D01*
X713879Y441597D01*
X713664Y441850D01*
X705130Y450384D01*
X705110Y450401D01*
X705092Y450422D01*
X704954Y450529D01*
X704819Y450639D01*
X704795Y450652D01*
X704774Y450668D01*
X704617Y450746D01*
X704463Y450828D01*
X704438Y450836D01*
X704414Y450848D01*
X704244Y450893D01*
X704077Y450943D01*
X704051Y450945D01*
X704025Y450952D01*
X703694Y450979D01*
X432886Y450979D01*
X432859Y450977D01*
X432833Y450979D01*
X432659Y450957D01*
X432485Y450939D01*
X432460Y450932D01*
X432433Y450928D01*
X432267Y450873D01*
X432100Y450821D01*
X432077Y450808D01*
X432051Y450800D01*
X431900Y450713D01*
X431746Y450629D01*
X431726Y450612D01*
X431703Y450599D01*
X431450Y450384D01*
X428316Y447250D01*
X428299Y447230D01*
X428278Y447212D01*
X428171Y447074D01*
X428061Y446939D01*
X428048Y446915D01*
X428032Y446894D01*
X427954Y446737D01*
X427872Y446583D01*
X427864Y446558D01*
X427852Y446534D01*
X427807Y446364D01*
X427757Y446197D01*
X427755Y446171D01*
X427748Y446145D01*
X427721Y445814D01*
X427721Y442835D01*
X427723Y442813D01*
X427721Y442791D01*
X427743Y442613D01*
X427761Y442434D01*
X427767Y442413D01*
X427770Y442391D01*
X427826Y442221D01*
X427879Y442050D01*
X427889Y442030D01*
X427896Y442009D01*
X427985Y441853D01*
X428071Y441696D01*
X428085Y441678D01*
X428096Y441659D01*
X428214Y441524D01*
X428328Y441386D01*
X428346Y441372D01*
X428360Y441355D01*
X428502Y441246D01*
X428642Y441134D01*
X428662Y441124D01*
X428680Y441110D01*
X428975Y440958D01*
X429403Y440781D01*
X432761Y437423D01*
X433463Y435727D01*
X433468Y435720D01*
X433470Y435711D01*
X433563Y435542D01*
X433654Y435373D01*
X433659Y435366D01*
X433663Y435358D01*
X433788Y435210D01*
X433910Y435062D01*
X433917Y435057D01*
X433923Y435050D01*
X434074Y434929D01*
X434223Y434809D01*
X434230Y434804D01*
X434237Y434799D01*
X434410Y434710D01*
X434579Y434621D01*
X434588Y434619D01*
X434596Y434615D01*
X434781Y434562D01*
X434966Y434508D01*
X434974Y434508D01*
X434983Y434505D01*
X435174Y434490D01*
X435367Y434474D01*
X435376Y434475D01*
X435384Y434474D01*
X435577Y434497D01*
X435767Y434519D01*
X435775Y434522D01*
X435784Y434523D01*
X435969Y434584D01*
X436150Y434642D01*
X436158Y434646D01*
X436166Y434649D01*
X436334Y434745D01*
X436502Y434838D01*
X436508Y434844D01*
X436516Y434849D01*
X436660Y434974D01*
X436807Y435100D01*
X436813Y435107D01*
X436820Y435113D01*
X436936Y435264D01*
X437056Y435417D01*
X437060Y435425D01*
X437065Y435432D01*
X437217Y435727D01*
X437919Y437423D01*
X441277Y440781D01*
X445665Y442599D01*
X450415Y442599D01*
X454803Y440781D01*
X458161Y437423D01*
X459979Y433035D01*
X459979Y428285D01*
X458161Y423897D01*
X454803Y420539D01*
X450415Y418721D01*
X445665Y418721D01*
X441277Y420539D01*
X437919Y423897D01*
X437217Y425593D01*
X437212Y425600D01*
X437210Y425609D01*
X437118Y425777D01*
X437026Y425947D01*
X437021Y425954D01*
X437016Y425962D01*
X436894Y426108D01*
X436770Y426258D01*
X436763Y426263D01*
X436757Y426270D01*
X436608Y426389D01*
X436457Y426512D01*
X436449Y426516D01*
X436442Y426521D01*
X436274Y426608D01*
X436101Y426699D01*
X436092Y426701D01*
X436084Y426705D01*
X435901Y426757D01*
X435714Y426812D01*
X435705Y426812D01*
X435697Y426815D01*
X435506Y426830D01*
X435313Y426846D01*
X435304Y426845D01*
X435296Y426846D01*
X435105Y426823D01*
X434913Y426801D01*
X434905Y426798D01*
X434896Y426797D01*
X434715Y426738D01*
X434530Y426678D01*
X434522Y426674D01*
X434514Y426671D01*
X434347Y426576D01*
X434178Y426482D01*
X434172Y426476D01*
X434164Y426471D01*
X434018Y426344D01*
X433873Y426220D01*
X433867Y426213D01*
X433860Y426207D01*
X433744Y426055D01*
X433624Y425903D01*
X433620Y425895D01*
X433615Y425888D01*
X433463Y425593D01*
X432761Y423897D01*
X429403Y420539D01*
X428975Y420362D01*
X428955Y420351D01*
X428934Y420344D01*
X428778Y420256D01*
X428620Y420171D01*
X428603Y420157D01*
X428583Y420146D01*
X428448Y420029D01*
X428309Y419915D01*
X428295Y419898D01*
X428278Y419883D01*
X428169Y419742D01*
X428056Y419602D01*
X428045Y419583D01*
X428032Y419565D01*
X427952Y419404D01*
X427869Y419246D01*
X427862Y419224D01*
X427852Y419204D01*
X427806Y419031D01*
X427756Y418859D01*
X427754Y418837D01*
X427748Y418816D01*
X427721Y418485D01*
X427721Y402806D01*
X427723Y402779D01*
X427721Y402753D01*
X427743Y402579D01*
X427761Y402405D01*
X427768Y402380D01*
X427772Y402353D01*
X427827Y402187D01*
X427879Y402020D01*
X427892Y401997D01*
X427900Y401971D01*
X427987Y401820D01*
X428071Y401666D01*
X428088Y401646D01*
X428101Y401623D01*
X428316Y401370D01*
X431450Y398236D01*
X431470Y398219D01*
X431488Y398198D01*
X431626Y398091D01*
X431761Y397981D01*
X431785Y397968D01*
X431806Y397952D01*
X431963Y397874D01*
X432117Y397792D01*
X432142Y397784D01*
X432166Y397772D01*
X432336Y397727D01*
X432503Y397677D01*
X432529Y397675D01*
X432555Y397668D01*
X432886Y397641D01*
X529851Y397641D01*
X531718Y396867D01*
X545847Y382738D01*
X546621Y380871D01*
X546621Y213749D01*
X545847Y211882D01*
X531718Y197753D01*
X529851Y196979D01*
X516168Y196979D01*
X516142Y196977D01*
X516115Y196979D01*
X515941Y196957D01*
X515768Y196939D01*
X515742Y196932D01*
X515716Y196928D01*
X515550Y196873D01*
X515383Y196821D01*
X515359Y196808D01*
X515334Y196800D01*
X515182Y196713D01*
X515029Y196629D01*
X515008Y196612D01*
X514985Y196599D01*
X514732Y196384D01*
X511855Y193507D01*
X508147Y191971D01*
X504133Y191971D01*
X500425Y193507D01*
X497587Y196345D01*
X496051Y200053D01*
X496051Y204067D01*
X497587Y207775D01*
X500425Y210613D01*
X504133Y212149D01*
X508147Y212149D01*
X511855Y210613D01*
X514732Y207736D01*
X514753Y207719D01*
X514770Y207698D01*
X514908Y207591D01*
X515043Y207481D01*
X515067Y207468D01*
X515088Y207452D01*
X515245Y207374D01*
X515399Y207292D01*
X515425Y207284D01*
X515449Y207272D01*
X515618Y207227D01*
X515785Y207177D01*
X515812Y207175D01*
X515838Y207168D01*
X516168Y207141D01*
X525894Y207141D01*
X525921Y207143D01*
X525947Y207141D01*
X526121Y207163D01*
X526295Y207181D01*
X526320Y207188D01*
X526347Y207192D01*
X526513Y207247D01*
X526680Y207299D01*
X526703Y207312D01*
X526729Y207320D01*
X526880Y207407D01*
X527034Y207491D01*
X527054Y207508D01*
X527077Y207521D01*
X527330Y207736D01*
X535864Y216270D01*
X535881Y216290D01*
X535902Y216308D01*
X536009Y216446D01*
X536119Y216581D01*
X536132Y216605D01*
X536148Y216626D01*
X536226Y216783D01*
X536308Y216937D01*
X536316Y216962D01*
X536328Y216986D01*
X536373Y217156D01*
X536423Y217323D01*
X536425Y217349D01*
X536432Y217375D01*
X536459Y217706D01*
X536459Y376914D01*
X536457Y376941D01*
X536459Y376967D01*
X536437Y377141D01*
X536419Y377315D01*
X536412Y377340D01*
X536408Y377367D01*
X536353Y377533D01*
X536301Y377700D01*
X536288Y377723D01*
X536280Y377749D01*
X536193Y377900D01*
X536109Y378054D01*
X536092Y378074D01*
X536079Y378097D01*
X535864Y378350D01*
X527330Y386884D01*
X527310Y386901D01*
X527292Y386922D01*
X527154Y387029D01*
X527019Y387139D01*
X526995Y387152D01*
X526974Y387168D01*
X526817Y387246D01*
X526663Y387328D01*
X526638Y387336D01*
X526614Y387348D01*
X526444Y387393D01*
X526277Y387443D01*
X526251Y387445D01*
X526225Y387452D01*
X525894Y387479D01*
X428929Y387479D01*
X427062Y388253D01*
X418333Y396982D01*
X417559Y398849D01*
X417559Y418485D01*
X417557Y418507D01*
X417559Y418529D01*
X417537Y418707D01*
X417519Y418886D01*
X417513Y418907D01*
X417510Y418929D01*
X417454Y419099D01*
X417401Y419270D01*
X417391Y419290D01*
X417384Y419311D01*
X417295Y419467D01*
X417209Y419624D01*
X417195Y419642D01*
X417184Y419661D01*
X417066Y419796D01*
X416952Y419934D01*
X416934Y419948D01*
X416920Y419965D01*
X416778Y420074D01*
X416638Y420186D01*
X416618Y420196D01*
X416600Y420210D01*
X416305Y420362D01*
X415877Y420539D01*
X412519Y423897D01*
X411817Y425593D01*
X411812Y425600D01*
X411810Y425609D01*
X411718Y425777D01*
X411626Y425947D01*
X411621Y425954D01*
X411616Y425962D01*
X411494Y426108D01*
X411370Y426258D01*
X411363Y426263D01*
X411357Y426270D01*
X411208Y426389D01*
X411057Y426512D01*
X411049Y426516D01*
X411042Y426521D01*
X410874Y426608D01*
X410701Y426699D01*
X410692Y426701D01*
X410684Y426705D01*
X410501Y426757D01*
X410314Y426812D01*
X410305Y426812D01*
X410297Y426815D01*
X410106Y426830D01*
X409913Y426846D01*
X409904Y426845D01*
X409896Y426846D01*
X409705Y426823D01*
X409513Y426801D01*
X409505Y426798D01*
X409496Y426797D01*
X409315Y426738D01*
X409130Y426678D01*
X409122Y426674D01*
X409114Y426671D01*
X408947Y426576D01*
X408778Y426482D01*
X408772Y426476D01*
X408764Y426471D01*
X408618Y426344D01*
X408473Y426220D01*
X408467Y426213D01*
X408460Y426207D01*
X408344Y426055D01*
X408224Y425903D01*
X408220Y425895D01*
X408215Y425888D01*
X408063Y425593D01*
X407361Y423897D01*
X404003Y420539D01*
X403575Y420362D01*
X403555Y420351D01*
X403534Y420344D01*
X403378Y420256D01*
X403220Y420171D01*
X403203Y420157D01*
X403183Y420146D01*
X403048Y420029D01*
X402909Y419915D01*
X402895Y419898D01*
X402878Y419883D01*
X402769Y419742D01*
X402656Y419602D01*
X402645Y419583D01*
X402632Y419565D01*
X402552Y419404D01*
X402469Y419246D01*
X402462Y419224D01*
X402452Y419204D01*
X402406Y419031D01*
X402356Y418859D01*
X402354Y418837D01*
X402348Y418816D01*
X402321Y418485D01*
X402321Y241356D01*
X402323Y241329D01*
X402321Y241303D01*
X402343Y241129D01*
X402361Y240955D01*
X402368Y240930D01*
X402372Y240903D01*
X402427Y240737D01*
X402479Y240570D01*
X402492Y240547D01*
X402500Y240521D01*
X402587Y240370D01*
X402671Y240216D01*
X402688Y240196D01*
X402701Y240173D01*
X402916Y239920D01*
X409700Y233136D01*
X409720Y233119D01*
X409738Y233098D01*
X409876Y232991D01*
X410011Y232881D01*
X410035Y232868D01*
X410056Y232852D01*
X410213Y232774D01*
X410367Y232692D01*
X410392Y232684D01*
X410416Y232672D01*
X410586Y232627D01*
X410753Y232577D01*
X410779Y232575D01*
X410805Y232568D01*
X411136Y232541D01*
X496112Y232541D01*
X496138Y232543D01*
X496165Y232541D01*
X496339Y232563D01*
X496512Y232581D01*
X496538Y232588D01*
X496565Y232592D01*
X496730Y232648D01*
X496897Y232699D01*
X496921Y232712D01*
X496946Y232720D01*
X497098Y232807D01*
X497251Y232891D01*
X497272Y232908D01*
X497295Y232921D01*
X497548Y233136D01*
X500425Y236013D01*
X503984Y237487D01*
X504133Y237549D01*
X508147Y237549D01*
X511855Y236013D01*
X514693Y233175D01*
X516229Y229467D01*
X516229Y225453D01*
X514693Y221745D01*
X511855Y218907D01*
X508147Y217371D01*
X504133Y217371D01*
X500425Y218907D01*
X497548Y221784D01*
X497527Y221801D01*
X497510Y221822D01*
X497372Y221929D01*
X497237Y222039D01*
X497213Y222052D01*
X497192Y222068D01*
X497035Y222146D01*
X496881Y222228D01*
X496855Y222236D01*
X496831Y222248D01*
X496662Y222293D01*
X496495Y222343D01*
X496468Y222345D01*
X496442Y222352D01*
X496112Y222379D01*
X407179Y222379D01*
X405312Y223153D01*
X392933Y235532D01*
X392159Y237399D01*
X392159Y418485D01*
X392157Y418507D01*
X392159Y418529D01*
X392137Y418707D01*
X392119Y418886D01*
X392113Y418907D01*
X392110Y418929D01*
X392054Y419099D01*
X392001Y419270D01*
X391991Y419290D01*
X391984Y419311D01*
X391895Y419467D01*
X391809Y419624D01*
X391795Y419642D01*
X391784Y419661D01*
X391666Y419796D01*
X391552Y419934D01*
X391534Y419948D01*
X391520Y419965D01*
X391378Y420074D01*
X391238Y420186D01*
X391218Y420196D01*
X391200Y420210D01*
X390905Y420362D01*
X390477Y420539D01*
X387119Y423897D01*
X386161Y426209D01*
X386100Y426324D01*
X386046Y426443D01*
X386005Y426501D01*
X385971Y426564D01*
X385888Y426665D01*
X385812Y426771D01*
X385760Y426819D01*
X385715Y426874D01*
X385613Y426956D01*
X385518Y427046D01*
X385457Y427083D01*
X385402Y427128D01*
X385287Y427188D01*
X385175Y427257D01*
X385108Y427282D01*
X385046Y427315D01*
X384920Y427352D01*
X384797Y427397D01*
X384727Y427408D01*
X384659Y427428D01*
X384529Y427439D01*
X384400Y427460D01*
X384329Y427457D01*
X384258Y427463D01*
X384128Y427448D01*
X383997Y427442D01*
X383928Y427425D01*
X383858Y427417D01*
X383734Y427378D01*
X383606Y427346D01*
X383542Y427316D01*
X383475Y427294D01*
X383361Y427231D01*
X383242Y427175D01*
X383185Y427133D01*
X383123Y427098D01*
X383024Y427013D01*
X382919Y426935D01*
X382871Y426882D01*
X382817Y426836D01*
X382737Y426733D01*
X382649Y426636D01*
X382606Y426566D01*
X382569Y426519D01*
X382535Y426451D01*
X382475Y426354D01*
X381617Y424669D01*
X380559Y423213D01*
X379287Y421941D01*
X377831Y420884D01*
X376228Y420067D01*
X374517Y419511D01*
X374339Y419483D01*
X374339Y430192D01*
X374337Y430210D01*
X374339Y430227D01*
X374318Y430409D01*
X374299Y430592D01*
X374294Y430609D01*
X374292Y430627D01*
X374279Y430668D01*
X374306Y430762D01*
X374308Y430780D01*
X374312Y430797D01*
X374339Y431128D01*
X374339Y441837D01*
X374517Y441809D01*
X376228Y441253D01*
X377831Y440436D01*
X379287Y439379D01*
X380559Y438107D01*
X381617Y436651D01*
X382475Y434966D01*
X382545Y434856D01*
X382608Y434742D01*
X382654Y434687D01*
X382692Y434627D01*
X382783Y434533D01*
X382867Y434433D01*
X382923Y434389D01*
X382972Y434338D01*
X383080Y434264D01*
X383182Y434182D01*
X383245Y434150D01*
X383304Y434110D01*
X383424Y434058D01*
X383540Y433998D01*
X383608Y433979D01*
X383674Y433951D01*
X383802Y433924D01*
X383928Y433889D01*
X383998Y433883D01*
X384068Y433869D01*
X384199Y433868D01*
X384329Y433858D01*
X384400Y433866D01*
X384471Y433866D01*
X384599Y433891D01*
X384729Y433906D01*
X384796Y433929D01*
X384866Y433942D01*
X384987Y433992D01*
X385111Y434033D01*
X385173Y434068D01*
X385238Y434095D01*
X385347Y434168D01*
X385461Y434232D01*
X385514Y434279D01*
X385573Y434318D01*
X385666Y434411D01*
X385764Y434497D01*
X385808Y434553D01*
X385858Y434603D01*
X385930Y434712D01*
X386010Y434816D01*
X386047Y434889D01*
X386080Y434939D01*
X386109Y435009D01*
X386161Y435111D01*
X387119Y437423D01*
X390477Y440781D01*
X390905Y440958D01*
X390925Y440969D01*
X390946Y440976D01*
X391102Y441064D01*
X391260Y441149D01*
X391277Y441163D01*
X391297Y441174D01*
X391432Y441291D01*
X391571Y441405D01*
X391585Y441422D01*
X391602Y441437D01*
X391711Y441578D01*
X391824Y441718D01*
X391835Y441737D01*
X391848Y441755D01*
X391928Y441916D01*
X392011Y442074D01*
X392018Y442096D01*
X392028Y442116D01*
X392074Y442289D01*
X392124Y442461D01*
X392126Y442483D01*
X392132Y442504D01*
X392159Y442835D01*
X392159Y462471D01*
X392933Y464338D01*
X408012Y479417D01*
X409879Y480191D01*
X733051Y480191D01*
X734918Y479417D01*
X749047Y465288D01*
X749821Y463421D01*
X749821Y430685D01*
X749823Y430663D01*
X749821Y430641D01*
X749843Y430463D01*
X749861Y430284D01*
X749867Y430263D01*
X749870Y430241D01*
X749926Y430071D01*
X749979Y429899D01*
X749989Y429880D01*
X749996Y429859D01*
X750085Y429703D01*
X750171Y429545D01*
X750185Y429528D01*
X750196Y429509D01*
X750314Y429374D01*
X750428Y429236D01*
X750446Y429222D01*
X750460Y429205D01*
X750602Y429096D01*
X750742Y428984D01*
X750762Y428974D01*
X750780Y428960D01*
X751075Y428808D01*
X751791Y428512D01*
X755292Y425011D01*
X757187Y420436D01*
X757187Y415484D01*
X755292Y410909D01*
X751791Y407408D01*
X747823Y405765D01*
X747216Y405513D01*
X742264Y405513D01*
X741548Y405810D01*
X741527Y405816D01*
X741507Y405826D01*
X741334Y405874D01*
X741163Y405926D01*
X741141Y405928D01*
X741119Y405934D01*
X740940Y405948D01*
X740762Y405964D01*
X740740Y405962D01*
X740718Y405964D01*
X740539Y405941D01*
X740362Y405923D01*
X740340Y405916D01*
X740318Y405913D01*
X740149Y405856D01*
X739977Y405803D01*
X739958Y405792D01*
X739937Y405785D01*
X739781Y405696D01*
X739624Y405610D01*
X739607Y405595D01*
X739588Y405584D01*
X739335Y405369D01*
X698533Y364568D01*
X696818Y362853D01*
X694951Y362079D01*
X643866Y362079D01*
X643839Y362077D01*
X643813Y362079D01*
X643639Y362057D01*
X643465Y362039D01*
X643440Y362032D01*
X643413Y362028D01*
X643247Y361973D01*
X643080Y361921D01*
X643057Y361908D01*
X643031Y361900D01*
X642880Y361813D01*
X642726Y361729D01*
X642706Y361712D01*
X642683Y361699D01*
X642430Y361484D01*
X635166Y354220D01*
X635149Y354200D01*
X635128Y354182D01*
X635021Y354044D01*
X634911Y353909D01*
X634898Y353885D01*
X634882Y353864D01*
X634804Y353707D01*
X634722Y353553D01*
X634714Y353528D01*
X634702Y353504D01*
X634657Y353334D01*
X634607Y353167D01*
X634605Y353141D01*
X634598Y353115D01*
X634571Y352784D01*
X634571Y193576D01*
X634573Y193549D01*
X634571Y193523D01*
X634593Y193349D01*
X634611Y193175D01*
X634618Y193150D01*
X634622Y193123D01*
X634678Y192957D01*
X634729Y192790D01*
X634742Y192767D01*
X634750Y192741D01*
X634837Y192590D01*
X634921Y192436D01*
X634938Y192416D01*
X634951Y192393D01*
X635166Y192140D01*
X644970Y182336D01*
X644990Y182319D01*
X645008Y182298D01*
X645146Y182191D01*
X645281Y182081D01*
X645305Y182068D01*
X645326Y182052D01*
X645483Y181974D01*
X645637Y181892D01*
X645662Y181884D01*
X645686Y181872D01*
X645856Y181827D01*
X646023Y181777D01*
X646049Y181775D01*
X646075Y181768D01*
X646406Y181741D01*
X801951Y181741D01*
X803818Y180967D01*
X825821Y158964D01*
X826595Y157097D01*
X826595Y149528D01*
X826597Y149506D01*
X826595Y149484D01*
X826617Y149305D01*
X826635Y149127D01*
X826641Y149106D01*
X826644Y149084D01*
X826700Y148914D01*
X826753Y148742D01*
X826763Y148723D01*
X826770Y148702D01*
X826859Y148546D01*
X826945Y148388D01*
X826959Y148371D01*
X826970Y148352D01*
X827087Y148217D01*
X827202Y148079D01*
X827220Y148065D01*
X827234Y148048D01*
X827321Y147981D01*
X830491Y144812D01*
X832103Y140920D01*
X832103Y136708D01*
X830491Y132816D01*
X827512Y129837D01*
X823620Y128225D01*
X819408Y128225D01*
X815516Y129837D01*
X812537Y132816D01*
X810925Y136708D01*
X810925Y140920D01*
X812537Y144812D01*
X815721Y147996D01*
X815845Y148098D01*
X815859Y148115D01*
X815876Y148130D01*
X815985Y148271D01*
X816098Y148411D01*
X816109Y148430D01*
X816122Y148448D01*
X816202Y148608D01*
X816285Y148767D01*
X816292Y148788D01*
X816302Y148808D01*
X816348Y148982D01*
X816398Y149154D01*
X816400Y149176D01*
X816406Y149197D01*
X816433Y149528D01*
X816433Y153140D01*
X816431Y153167D01*
X816433Y153193D01*
X816411Y153367D01*
X816393Y153541D01*
X816386Y153566D01*
X816382Y153593D01*
X816327Y153759D01*
X816275Y153926D01*
X816262Y153949D01*
X816254Y153975D01*
X816167Y154126D01*
X816083Y154280D01*
X816066Y154300D01*
X816053Y154323D01*
X815838Y154576D01*
X799430Y170984D01*
X799410Y171001D01*
X799392Y171022D01*
X799254Y171129D01*
X799119Y171239D01*
X799095Y171252D01*
X799074Y171268D01*
X798917Y171346D01*
X798763Y171428D01*
X798738Y171436D01*
X798714Y171448D01*
X798544Y171493D01*
X798377Y171543D01*
X798351Y171545D01*
X798325Y171552D01*
X797994Y171579D01*
X788138Y171579D01*
X788129Y171578D01*
X788120Y171579D01*
X787927Y171558D01*
X787737Y171539D01*
X787729Y171537D01*
X787720Y171536D01*
X787536Y171478D01*
X787352Y171421D01*
X787344Y171417D01*
X787336Y171414D01*
X787168Y171322D01*
X786998Y171229D01*
X786991Y171224D01*
X786984Y171219D01*
X786837Y171095D01*
X786689Y170972D01*
X786683Y170965D01*
X786677Y170959D01*
X786557Y170807D01*
X786437Y170658D01*
X786433Y170650D01*
X786427Y170643D01*
X786339Y170470D01*
X786251Y170301D01*
X786249Y170292D01*
X786245Y170284D01*
X786193Y170098D01*
X786140Y169914D01*
X786139Y169905D01*
X786137Y169896D01*
X786123Y169703D01*
X786107Y169512D01*
X786108Y169504D01*
X786107Y169495D01*
X786132Y169302D01*
X786154Y169113D01*
X786157Y169104D01*
X786158Y169095D01*
X786219Y168912D01*
X786279Y168730D01*
X786283Y168722D01*
X786286Y168714D01*
X786382Y168547D01*
X786477Y168379D01*
X786482Y168372D01*
X786487Y168365D01*
X786702Y168112D01*
X800421Y154392D01*
X801195Y152525D01*
X801195Y149528D01*
X801197Y149506D01*
X801195Y149484D01*
X801217Y149305D01*
X801235Y149127D01*
X801241Y149106D01*
X801244Y149084D01*
X801300Y148914D01*
X801353Y148742D01*
X801363Y148723D01*
X801370Y148702D01*
X801459Y148546D01*
X801545Y148388D01*
X801559Y148371D01*
X801570Y148352D01*
X801687Y148217D01*
X801802Y148079D01*
X801820Y148065D01*
X801834Y148048D01*
X801921Y147981D01*
X805091Y144812D01*
X806703Y140920D01*
X806703Y136708D01*
X805091Y132816D01*
X802112Y129837D01*
X798220Y128225D01*
X794008Y128225D01*
X790116Y129837D01*
X787137Y132816D01*
X785525Y136708D01*
X785525Y140920D01*
X787137Y144812D01*
X789948Y147622D01*
X789959Y147636D01*
X789973Y147648D01*
X790087Y147792D01*
X790203Y147934D01*
X790211Y147950D01*
X790222Y147964D01*
X790305Y148127D01*
X790391Y148290D01*
X790396Y148307D01*
X790405Y148323D01*
X790454Y148500D01*
X790506Y148676D01*
X790508Y148693D01*
X790513Y148711D01*
X790526Y148894D01*
X790543Y149076D01*
X790541Y149094D01*
X790542Y149112D01*
X790519Y149294D01*
X790499Y149477D01*
X790494Y149494D01*
X790492Y149512D01*
X790433Y149685D01*
X790378Y149861D01*
X790369Y149876D01*
X790363Y149893D01*
X790271Y150053D01*
X790183Y150213D01*
X790171Y150226D01*
X790162Y150242D01*
X789948Y150495D01*
X780888Y159554D01*
X780871Y159568D01*
X780858Y159584D01*
X780855Y159586D01*
X780850Y159592D01*
X780712Y159699D01*
X780577Y159809D01*
X780553Y159822D01*
X780532Y159838D01*
X780375Y159916D01*
X780221Y159998D01*
X780196Y160006D01*
X780172Y160018D01*
X780002Y160063D01*
X779835Y160113D01*
X779809Y160115D01*
X779783Y160122D01*
X779452Y160149D01*
X628479Y160149D01*
X626612Y160923D01*
X614198Y173337D01*
X614197Y173337D01*
X612638Y174896D01*
X612631Y174902D01*
X612626Y174909D01*
X612475Y175030D01*
X612327Y175152D01*
X612319Y175156D01*
X612312Y175161D01*
X612142Y175250D01*
X611971Y175340D01*
X611962Y175343D01*
X611955Y175347D01*
X611770Y175400D01*
X611585Y175455D01*
X611576Y175456D01*
X611568Y175458D01*
X611377Y175474D01*
X611184Y175491D01*
X611175Y175490D01*
X611166Y175491D01*
X610977Y175469D01*
X610784Y175448D01*
X610775Y175445D01*
X610767Y175444D01*
X610585Y175385D01*
X610400Y175326D01*
X610392Y175322D01*
X610384Y175319D01*
X610217Y175225D01*
X610048Y175132D01*
X610041Y175126D01*
X610033Y175121D01*
X609888Y174996D01*
X609741Y174871D01*
X609735Y174864D01*
X609728Y174858D01*
X609612Y174708D01*
X609491Y174555D01*
X609487Y174547D01*
X609482Y174540D01*
X609397Y174370D01*
X609309Y174196D01*
X609306Y174188D01*
X609302Y174180D01*
X609253Y173994D01*
X609201Y173808D01*
X609200Y173799D01*
X609198Y173791D01*
X609171Y173460D01*
X609171Y116106D01*
X609173Y116079D01*
X609171Y116053D01*
X609193Y115879D01*
X609211Y115705D01*
X609218Y115680D01*
X609222Y115653D01*
X609277Y115487D01*
X609329Y115320D01*
X609342Y115297D01*
X609350Y115271D01*
X609437Y115120D01*
X609521Y114966D01*
X609538Y114946D01*
X609551Y114923D01*
X609766Y114670D01*
X618300Y106136D01*
X618320Y106119D01*
X618338Y106098D01*
X618476Y105991D01*
X618611Y105881D01*
X618635Y105868D01*
X618656Y105852D01*
X618813Y105774D01*
X618967Y105692D01*
X618992Y105684D01*
X619016Y105672D01*
X619186Y105627D01*
X619353Y105577D01*
X619379Y105575D01*
X619405Y105568D01*
X619736Y105541D01*
X924994Y105541D01*
X925021Y105543D01*
X925047Y105541D01*
X925221Y105563D01*
X925395Y105581D01*
X925420Y105588D01*
X925447Y105592D01*
X925613Y105647D01*
X925780Y105699D01*
X925803Y105712D01*
X925829Y105720D01*
X925980Y105807D01*
X926134Y105891D01*
X926154Y105908D01*
X926177Y105921D01*
X926430Y106136D01*
X942838Y122544D01*
X942855Y122564D01*
X942876Y122582D01*
X942983Y122720D01*
X943093Y122855D01*
X943106Y122879D01*
X943122Y122900D01*
X943200Y123057D01*
X943282Y123211D01*
X943290Y123236D01*
X943302Y123260D01*
X943347Y123430D01*
X943397Y123597D01*
X943399Y123623D01*
X943406Y123649D01*
X943433Y123980D01*
X943433Y128100D01*
X943431Y128123D01*
X943433Y128146D01*
X943411Y128323D01*
X943393Y128501D01*
X943387Y128523D01*
X943384Y128545D01*
X943328Y128715D01*
X943275Y128886D01*
X943264Y128906D01*
X943257Y128928D01*
X943168Y129083D01*
X943083Y129240D01*
X943069Y129257D01*
X943057Y129277D01*
X942940Y129412D01*
X942826Y129549D01*
X942808Y129563D01*
X942793Y129581D01*
X942706Y129647D01*
X939537Y132816D01*
X937925Y136708D01*
X937925Y140920D01*
X939537Y144812D01*
X942516Y147791D01*
X946408Y149403D01*
X950620Y149403D01*
X954512Y147791D01*
X957491Y144812D01*
X959103Y140920D01*
X959103Y136708D01*
X957491Y132816D01*
X954307Y129632D01*
X954184Y129531D01*
X954170Y129513D01*
X954152Y129498D01*
X954044Y129358D01*
X953930Y129219D01*
X953920Y129198D01*
X953906Y129180D01*
X953826Y129020D01*
X953743Y128862D01*
X953737Y128840D01*
X953726Y128820D01*
X953680Y128646D01*
X953630Y128476D01*
X953628Y128453D01*
X953622Y128431D01*
X953595Y128100D01*
X953595Y120023D01*
X952821Y118156D01*
X930818Y96153D01*
X929804Y95733D01*
X929800Y95730D01*
X929795Y95729D01*
X929624Y95636D01*
X929449Y95542D01*
X929445Y95540D01*
X929441Y95537D01*
X929291Y95412D01*
X929138Y95286D01*
X929136Y95283D01*
X929132Y95280D01*
X929009Y95127D01*
X928885Y94973D01*
X928883Y94969D01*
X928880Y94966D01*
X928789Y94792D01*
X928698Y94617D01*
X928696Y94613D01*
X928694Y94609D01*
X928640Y94421D01*
X928585Y94230D01*
X928584Y94226D01*
X928583Y94222D01*
X928567Y94024D01*
X928550Y93829D01*
X928550Y93825D01*
X928550Y93820D01*
X928573Y93626D01*
X928595Y93429D01*
X928596Y93425D01*
X928597Y93421D01*
X928657Y93235D01*
X928718Y93046D01*
X928720Y93042D01*
X928722Y93038D01*
X928819Y92866D01*
X928915Y92694D01*
X928918Y92691D01*
X928920Y92687D01*
X929049Y92538D01*
X929176Y92389D01*
X929180Y92386D01*
X929183Y92382D01*
X929338Y92262D01*
X929493Y92140D01*
X929497Y92138D01*
X929501Y92136D01*
X929679Y92047D01*
X929853Y91960D01*
X929857Y91958D01*
X929861Y91956D01*
X930053Y91905D01*
X930241Y91853D01*
X930246Y91853D01*
X930250Y91852D01*
X930581Y91825D01*
X952551Y91825D01*
X952669Y91836D01*
X952787Y91838D01*
X952869Y91856D01*
X952952Y91865D01*
X953065Y91899D01*
X953180Y91925D01*
X953257Y91958D01*
X953337Y91983D01*
X953441Y92039D01*
X953549Y92087D01*
X953617Y92135D01*
X953691Y92175D01*
X953781Y92250D01*
X953878Y92318D01*
X953947Y92388D01*
X954000Y92432D01*
X954043Y92485D01*
X954111Y92555D01*
X983018Y127210D01*
X983080Y127301D01*
X983150Y127387D01*
X983193Y127468D01*
X983244Y127543D01*
X983287Y127645D01*
X983339Y127742D01*
X983365Y127830D01*
X983400Y127915D01*
X983422Y128023D01*
X983453Y128128D01*
X983462Y128219D01*
X983480Y128309D01*
X983480Y128420D01*
X983490Y128529D01*
X983480Y128620D01*
X983480Y128712D01*
X983458Y128820D01*
X983446Y128929D01*
X983419Y129017D01*
X983401Y129107D01*
X983358Y129208D01*
X983325Y129313D01*
X983280Y129393D01*
X983245Y129478D01*
X983183Y129569D01*
X983130Y129666D01*
X983071Y129735D01*
X983019Y129811D01*
X982941Y129889D01*
X982869Y129973D01*
X982797Y130029D01*
X982732Y130094D01*
X982640Y130154D01*
X982554Y130222D01*
X982472Y130264D01*
X982395Y130314D01*
X982293Y130355D01*
X982195Y130404D01*
X982106Y130429D01*
X982021Y130463D01*
X981913Y130483D01*
X981807Y130512D01*
X981715Y130519D01*
X981625Y130536D01*
X981515Y130534D01*
X981405Y130542D01*
X981314Y130530D01*
X981223Y130529D01*
X981115Y130505D01*
X981006Y130491D01*
X980919Y130462D01*
X980829Y130443D01*
X980729Y130398D01*
X980624Y130363D01*
X980545Y130317D01*
X980461Y130281D01*
X980371Y130217D01*
X980275Y130162D01*
X980192Y130092D01*
X980131Y130049D01*
X980079Y129996D01*
X980022Y129948D01*
X979912Y129837D01*
X976020Y128225D01*
X971808Y128225D01*
X967916Y129837D01*
X964937Y132816D01*
X963325Y136708D01*
X963325Y140920D01*
X964937Y144812D01*
X967916Y147791D01*
X971808Y149403D01*
X976020Y149403D01*
X979912Y147791D01*
X982891Y144812D01*
X984503Y140920D01*
X984503Y136708D01*
X983252Y133688D01*
X983224Y133596D01*
X983187Y133508D01*
X983166Y133404D01*
X983136Y133303D01*
X983127Y133207D01*
X983108Y133113D01*
X983107Y133007D01*
X983097Y132902D01*
X983107Y132807D01*
X983107Y132710D01*
X983128Y132607D01*
X983139Y132502D01*
X983168Y132410D01*
X983187Y132316D01*
X983227Y132218D01*
X983259Y132117D01*
X983305Y132033D01*
X983342Y131944D01*
X983401Y131857D01*
X983452Y131764D01*
X983514Y131690D01*
X983568Y131611D01*
X983643Y131537D01*
X983711Y131456D01*
X983787Y131396D01*
X983855Y131329D01*
X983944Y131271D01*
X984026Y131205D01*
X984112Y131161D01*
X984192Y131109D01*
X984290Y131069D01*
X984384Y131021D01*
X984477Y130995D01*
X984566Y130959D01*
X984670Y130940D01*
X984772Y130911D01*
X984867Y130904D01*
X984962Y130887D01*
X985068Y130889D01*
X985173Y130880D01*
X985268Y130892D01*
X985365Y130894D01*
X985468Y130916D01*
X985573Y130929D01*
X985664Y130959D01*
X985758Y130980D01*
X985854Y131022D01*
X985955Y131056D01*
X986039Y131103D01*
X986127Y131142D01*
X986213Y131203D01*
X986305Y131255D01*
X986377Y131318D01*
X986456Y131373D01*
X986547Y131466D01*
X986608Y131519D01*
X986640Y131561D01*
X986689Y131610D01*
X988254Y133487D01*
X988331Y133600D01*
X988414Y133708D01*
X988443Y133766D01*
X988480Y133820D01*
X988533Y133946D01*
X988594Y134068D01*
X988610Y134131D01*
X988636Y134191D01*
X988663Y134325D01*
X988698Y134457D01*
X988704Y134531D01*
X988715Y134586D01*
X988715Y134665D01*
X988725Y134788D01*
X988725Y147617D01*
X990511Y149403D01*
X1008117Y149403D01*
X1009903Y147617D01*
X1009903Y130011D01*
X1008117Y128225D01*
X998049Y128225D01*
X997931Y128214D01*
X997813Y128212D01*
X997731Y128194D01*
X997648Y128185D01*
X997535Y128151D01*
X997419Y128125D01*
X997343Y128092D01*
X997263Y128067D01*
X997159Y128011D01*
X997051Y127963D01*
X996982Y127915D01*
X996909Y127875D01*
X996818Y127800D01*
X996721Y127732D01*
X996652Y127662D01*
X996600Y127618D01*
X996557Y127565D01*
X996489Y127495D01*
X960476Y84322D01*
X960397Y84205D01*
X960311Y84093D01*
X960279Y84032D01*
X960250Y83989D01*
X960218Y83913D01*
X960159Y83798D01*
X960131Y83731D01*
X960128Y83718D01*
X960121Y83707D01*
X960099Y83630D01*
X960094Y83618D01*
X960090Y83599D01*
X960069Y83526D01*
X960015Y83346D01*
X960014Y83333D01*
X960010Y83320D01*
X959995Y83132D01*
X959977Y82945D01*
X959978Y82932D01*
X959977Y82918D01*
X959999Y82731D01*
X960019Y82545D01*
X960022Y82532D01*
X960024Y82519D01*
X960083Y82339D01*
X960138Y82160D01*
X960145Y82149D01*
X960149Y82136D01*
X960242Y81971D01*
X960332Y81807D01*
X960340Y81797D01*
X960347Y81785D01*
X960470Y81643D01*
X960591Y81499D01*
X960601Y81491D01*
X960610Y81480D01*
X960758Y81365D01*
X960906Y81248D01*
X960917Y81242D01*
X960928Y81234D01*
X961097Y81150D01*
X961264Y81064D01*
X961277Y81060D01*
X961289Y81054D01*
X961472Y81005D01*
X961651Y80954D01*
X961664Y80953D01*
X961677Y80950D01*
X962008Y80923D01*
X1204634Y80923D01*
X1204661Y80925D01*
G37*
%LPC*%
G36*
X794008Y330917D02*
X794008Y330917D01*
X790116Y332529D01*
X787137Y335508D01*
X785525Y339400D01*
X785525Y343612D01*
X787137Y347504D01*
X790321Y350688D01*
X790444Y350789D01*
X790458Y350807D01*
X790476Y350822D01*
X790584Y350962D01*
X790698Y351101D01*
X790708Y351122D01*
X790722Y351140D01*
X790802Y351300D01*
X790885Y351458D01*
X790891Y351480D01*
X790902Y351500D01*
X790948Y351674D01*
X790998Y351844D01*
X791000Y351867D01*
X791006Y351889D01*
X791033Y352220D01*
X791033Y357705D01*
X791807Y359572D01*
X804842Y372607D01*
X806709Y373381D01*
X936854Y373381D01*
X936881Y373383D01*
X936907Y373381D01*
X937081Y373403D01*
X937255Y373421D01*
X937280Y373428D01*
X937307Y373432D01*
X937473Y373487D01*
X937640Y373539D01*
X937663Y373552D01*
X937689Y373560D01*
X937840Y373647D01*
X937994Y373731D01*
X938014Y373748D01*
X938037Y373761D01*
X938290Y373976D01*
X1099482Y535167D01*
X1101349Y535941D01*
X1144663Y535941D01*
X1144685Y535943D01*
X1144707Y535941D01*
X1144885Y535963D01*
X1145063Y535981D01*
X1145084Y535987D01*
X1145107Y535990D01*
X1145277Y536046D01*
X1145448Y536099D01*
X1145468Y536109D01*
X1145489Y536116D01*
X1145645Y536205D01*
X1145802Y536291D01*
X1145819Y536305D01*
X1145839Y536316D01*
X1145974Y536434D01*
X1146111Y536548D01*
X1146125Y536566D01*
X1146142Y536580D01*
X1146252Y536723D01*
X1146364Y536862D01*
X1146374Y536882D01*
X1146388Y536899D01*
X1146539Y537195D01*
X1146731Y537659D01*
X1150108Y541035D01*
X1154519Y542862D01*
X1177201Y542862D01*
X1181612Y541035D01*
X1184989Y537659D01*
X1186816Y533247D01*
X1186816Y528473D01*
X1184989Y524061D01*
X1181612Y520685D01*
X1177201Y518858D01*
X1154519Y518858D01*
X1150108Y520685D01*
X1146731Y524061D01*
X1146539Y524525D01*
X1146532Y524540D01*
X1146527Y524553D01*
X1146524Y524558D01*
X1146522Y524566D01*
X1146434Y524723D01*
X1146349Y524880D01*
X1146335Y524897D01*
X1146324Y524917D01*
X1146207Y525053D01*
X1146093Y525191D01*
X1146075Y525205D01*
X1146061Y525222D01*
X1145920Y525331D01*
X1145780Y525444D01*
X1145760Y525455D01*
X1145743Y525468D01*
X1145583Y525548D01*
X1145424Y525631D01*
X1145402Y525638D01*
X1145382Y525648D01*
X1145209Y525694D01*
X1145037Y525744D01*
X1145015Y525746D01*
X1144993Y525752D01*
X1144663Y525779D01*
X1105306Y525779D01*
X1105279Y525777D01*
X1105253Y525779D01*
X1105079Y525757D01*
X1104905Y525739D01*
X1104880Y525732D01*
X1104853Y525728D01*
X1104687Y525673D01*
X1104520Y525621D01*
X1104497Y525608D01*
X1104471Y525600D01*
X1104320Y525513D01*
X1104166Y525429D01*
X1104146Y525412D01*
X1104123Y525399D01*
X1103870Y525184D01*
X942678Y363993D01*
X940811Y363219D01*
X810666Y363219D01*
X810639Y363217D01*
X810613Y363219D01*
X810439Y363197D01*
X810265Y363179D01*
X810240Y363172D01*
X810213Y363168D01*
X810047Y363113D01*
X809880Y363061D01*
X809857Y363048D01*
X809831Y363040D01*
X809680Y362953D01*
X809526Y362869D01*
X809506Y362852D01*
X809483Y362839D01*
X809230Y362624D01*
X801790Y355184D01*
X801773Y355164D01*
X801752Y355146D01*
X801645Y355008D01*
X801535Y354873D01*
X801522Y354849D01*
X801506Y354828D01*
X801427Y354671D01*
X801346Y354517D01*
X801338Y354492D01*
X801326Y354468D01*
X801281Y354298D01*
X801231Y354131D01*
X801229Y354105D01*
X801222Y354079D01*
X801195Y353748D01*
X801195Y352220D01*
X801197Y352197D01*
X801195Y352174D01*
X801217Y351997D01*
X801235Y351819D01*
X801241Y351797D01*
X801244Y351775D01*
X801300Y351605D01*
X801353Y351434D01*
X801364Y351414D01*
X801371Y351392D01*
X801460Y351237D01*
X801545Y351080D01*
X801559Y351063D01*
X801571Y351043D01*
X801688Y350908D01*
X801802Y350771D01*
X801820Y350757D01*
X801835Y350739D01*
X801922Y350673D01*
X805091Y347504D01*
X806703Y343612D01*
X806703Y339400D01*
X805091Y335508D01*
X802112Y332529D01*
X798220Y330917D01*
X794008Y330917D01*
G37*
%LPD*%
%LPC*%
G36*
X318665Y596521D02*
X318665Y596521D01*
X314277Y598339D01*
X310919Y601697D01*
X309101Y606085D01*
X309101Y610835D01*
X310919Y615223D01*
X314277Y618581D01*
X318665Y620399D01*
X323415Y620399D01*
X327803Y618581D01*
X331161Y615223D01*
X331863Y613527D01*
X331868Y613520D01*
X331870Y613511D01*
X331962Y613343D01*
X332054Y613173D01*
X332059Y613166D01*
X332064Y613158D01*
X332187Y613011D01*
X332310Y612862D01*
X332317Y612857D01*
X332323Y612850D01*
X332473Y612730D01*
X332623Y612608D01*
X332631Y612604D01*
X332637Y612599D01*
X332808Y612511D01*
X332979Y612421D01*
X332988Y612419D01*
X332996Y612415D01*
X333179Y612363D01*
X333365Y612308D01*
X333375Y612308D01*
X333383Y612305D01*
X333574Y612290D01*
X333767Y612274D01*
X333776Y612275D01*
X333784Y612274D01*
X333975Y612297D01*
X334167Y612319D01*
X334175Y612322D01*
X334184Y612323D01*
X334367Y612383D01*
X334550Y612442D01*
X334558Y612446D01*
X334566Y612449D01*
X334734Y612545D01*
X334901Y612638D01*
X334908Y612644D01*
X334916Y612649D01*
X335061Y612775D01*
X335207Y612900D01*
X335213Y612907D01*
X335220Y612913D01*
X335337Y613066D01*
X335456Y613217D01*
X335460Y613225D01*
X335465Y613232D01*
X335617Y613527D01*
X336319Y615223D01*
X339677Y618581D01*
X344065Y620399D01*
X348815Y620399D01*
X353203Y618581D01*
X356561Y615223D01*
X357263Y613527D01*
X357268Y613520D01*
X357270Y613511D01*
X357362Y613343D01*
X357454Y613173D01*
X357459Y613166D01*
X357464Y613158D01*
X357587Y613011D01*
X357710Y612862D01*
X357717Y612857D01*
X357723Y612850D01*
X357873Y612730D01*
X358023Y612608D01*
X358031Y612604D01*
X358037Y612599D01*
X358208Y612511D01*
X358379Y612421D01*
X358388Y612419D01*
X358396Y612415D01*
X358579Y612363D01*
X358765Y612308D01*
X358775Y612308D01*
X358783Y612305D01*
X358974Y612290D01*
X359167Y612274D01*
X359176Y612275D01*
X359184Y612274D01*
X359375Y612297D01*
X359567Y612319D01*
X359575Y612322D01*
X359584Y612323D01*
X359767Y612383D01*
X359950Y612442D01*
X359958Y612446D01*
X359966Y612449D01*
X360134Y612545D01*
X360301Y612638D01*
X360308Y612644D01*
X360316Y612649D01*
X360461Y612775D01*
X360607Y612900D01*
X360613Y612907D01*
X360620Y612913D01*
X360737Y613066D01*
X360856Y613217D01*
X360860Y613225D01*
X360865Y613232D01*
X361017Y613527D01*
X361719Y615223D01*
X365077Y618581D01*
X369465Y620399D01*
X374215Y620399D01*
X378603Y618581D01*
X381961Y615223D01*
X382663Y613527D01*
X382668Y613520D01*
X382670Y613511D01*
X382762Y613343D01*
X382854Y613173D01*
X382859Y613166D01*
X382864Y613158D01*
X382987Y613011D01*
X383110Y612862D01*
X383117Y612857D01*
X383123Y612850D01*
X383273Y612730D01*
X383423Y612608D01*
X383431Y612604D01*
X383437Y612599D01*
X383608Y612511D01*
X383779Y612421D01*
X383788Y612419D01*
X383796Y612415D01*
X383979Y612363D01*
X384165Y612308D01*
X384175Y612308D01*
X384183Y612305D01*
X384374Y612290D01*
X384567Y612274D01*
X384576Y612275D01*
X384584Y612274D01*
X384775Y612297D01*
X384967Y612319D01*
X384975Y612322D01*
X384984Y612323D01*
X385167Y612383D01*
X385350Y612442D01*
X385358Y612446D01*
X385366Y612449D01*
X385534Y612545D01*
X385701Y612638D01*
X385708Y612644D01*
X385716Y612649D01*
X385861Y612775D01*
X386007Y612900D01*
X386013Y612907D01*
X386020Y612913D01*
X386137Y613066D01*
X386256Y613217D01*
X386260Y613225D01*
X386265Y613232D01*
X386417Y613527D01*
X387119Y615223D01*
X390477Y618581D01*
X394865Y620399D01*
X399615Y620399D01*
X404003Y618581D01*
X407361Y615223D01*
X408063Y613527D01*
X408068Y613520D01*
X408070Y613511D01*
X408162Y613343D01*
X408254Y613173D01*
X408259Y613166D01*
X408264Y613158D01*
X408387Y613011D01*
X408510Y612862D01*
X408517Y612857D01*
X408523Y612850D01*
X408673Y612730D01*
X408823Y612608D01*
X408831Y612604D01*
X408837Y612599D01*
X409008Y612511D01*
X409179Y612421D01*
X409188Y612419D01*
X409196Y612415D01*
X409379Y612363D01*
X409565Y612308D01*
X409575Y612308D01*
X409583Y612305D01*
X409774Y612290D01*
X409967Y612274D01*
X409976Y612275D01*
X409984Y612274D01*
X410175Y612297D01*
X410367Y612319D01*
X410375Y612322D01*
X410384Y612323D01*
X410567Y612383D01*
X410750Y612442D01*
X410758Y612446D01*
X410766Y612449D01*
X410934Y612545D01*
X411101Y612638D01*
X411108Y612644D01*
X411116Y612649D01*
X411261Y612775D01*
X411407Y612900D01*
X411413Y612907D01*
X411420Y612913D01*
X411537Y613066D01*
X411656Y613217D01*
X411660Y613225D01*
X411665Y613232D01*
X411817Y613527D01*
X412519Y615223D01*
X415877Y618581D01*
X420265Y620399D01*
X425015Y620399D01*
X429403Y618581D01*
X432761Y615223D01*
X433463Y613527D01*
X433468Y613520D01*
X433470Y613511D01*
X433562Y613343D01*
X433654Y613173D01*
X433659Y613166D01*
X433664Y613158D01*
X433787Y613011D01*
X433910Y612862D01*
X433917Y612857D01*
X433923Y612850D01*
X434073Y612730D01*
X434223Y612608D01*
X434231Y612604D01*
X434237Y612599D01*
X434408Y612511D01*
X434579Y612421D01*
X434588Y612419D01*
X434596Y612415D01*
X434779Y612363D01*
X434965Y612308D01*
X434975Y612308D01*
X434983Y612305D01*
X435174Y612290D01*
X435367Y612274D01*
X435376Y612275D01*
X435384Y612274D01*
X435575Y612297D01*
X435767Y612319D01*
X435775Y612322D01*
X435784Y612323D01*
X435967Y612383D01*
X436150Y612442D01*
X436158Y612446D01*
X436166Y612449D01*
X436334Y612545D01*
X436501Y612638D01*
X436508Y612644D01*
X436516Y612649D01*
X436661Y612775D01*
X436807Y612900D01*
X436813Y612907D01*
X436820Y612913D01*
X436937Y613066D01*
X437056Y613217D01*
X437060Y613225D01*
X437065Y613232D01*
X437217Y613527D01*
X437919Y615223D01*
X441277Y618581D01*
X445665Y620399D01*
X450415Y620399D01*
X454803Y618581D01*
X458161Y615223D01*
X459979Y610835D01*
X459979Y606085D01*
X458161Y601697D01*
X454803Y598339D01*
X450415Y596521D01*
X445665Y596521D01*
X441277Y598339D01*
X437919Y601697D01*
X437217Y603393D01*
X437212Y603400D01*
X437210Y603409D01*
X437117Y603579D01*
X437026Y603747D01*
X437021Y603754D01*
X437016Y603762D01*
X436892Y603911D01*
X436770Y604058D01*
X436763Y604063D01*
X436757Y604070D01*
X436606Y604191D01*
X436457Y604312D01*
X436450Y604316D01*
X436442Y604321D01*
X436270Y604410D01*
X436101Y604499D01*
X436092Y604501D01*
X436084Y604505D01*
X435900Y604557D01*
X435714Y604612D01*
X435705Y604612D01*
X435697Y604615D01*
X435506Y604630D01*
X435313Y604646D01*
X435304Y604645D01*
X435296Y604646D01*
X435104Y604623D01*
X434913Y604601D01*
X434905Y604598D01*
X434896Y604597D01*
X434714Y604537D01*
X434530Y604478D01*
X434522Y604474D01*
X434514Y604471D01*
X434348Y604376D01*
X434178Y604282D01*
X434172Y604276D01*
X434164Y604271D01*
X434020Y604146D01*
X433873Y604020D01*
X433867Y604013D01*
X433860Y604007D01*
X433743Y603855D01*
X433624Y603703D01*
X433620Y603695D01*
X433615Y603688D01*
X433463Y603393D01*
X432761Y601697D01*
X429403Y598339D01*
X425015Y596521D01*
X420265Y596521D01*
X415877Y598339D01*
X412519Y601697D01*
X411817Y603393D01*
X411812Y603400D01*
X411810Y603409D01*
X411717Y603579D01*
X411626Y603747D01*
X411621Y603754D01*
X411616Y603762D01*
X411492Y603911D01*
X411370Y604058D01*
X411363Y604063D01*
X411357Y604070D01*
X411206Y604191D01*
X411057Y604312D01*
X411050Y604316D01*
X411042Y604321D01*
X410870Y604410D01*
X410701Y604499D01*
X410692Y604501D01*
X410684Y604505D01*
X410500Y604557D01*
X410314Y604612D01*
X410305Y604612D01*
X410297Y604615D01*
X410106Y604630D01*
X409913Y604646D01*
X409904Y604645D01*
X409896Y604646D01*
X409704Y604623D01*
X409513Y604601D01*
X409505Y604598D01*
X409496Y604597D01*
X409314Y604537D01*
X409130Y604478D01*
X409122Y604474D01*
X409114Y604471D01*
X408948Y604376D01*
X408778Y604282D01*
X408772Y604276D01*
X408764Y604271D01*
X408620Y604146D01*
X408473Y604020D01*
X408467Y604013D01*
X408460Y604007D01*
X408343Y603855D01*
X408224Y603703D01*
X408220Y603695D01*
X408215Y603688D01*
X408063Y603393D01*
X407361Y601697D01*
X404003Y598339D01*
X399615Y596521D01*
X394865Y596521D01*
X390477Y598339D01*
X387119Y601697D01*
X386417Y603393D01*
X386412Y603400D01*
X386410Y603409D01*
X386317Y603579D01*
X386226Y603747D01*
X386221Y603754D01*
X386216Y603762D01*
X386092Y603911D01*
X385970Y604058D01*
X385963Y604063D01*
X385957Y604070D01*
X385806Y604191D01*
X385657Y604312D01*
X385650Y604316D01*
X385642Y604321D01*
X385470Y604410D01*
X385301Y604499D01*
X385292Y604501D01*
X385284Y604505D01*
X385100Y604557D01*
X384914Y604612D01*
X384905Y604612D01*
X384897Y604615D01*
X384706Y604630D01*
X384513Y604646D01*
X384504Y604645D01*
X384496Y604646D01*
X384304Y604623D01*
X384113Y604601D01*
X384105Y604598D01*
X384096Y604597D01*
X383914Y604537D01*
X383730Y604478D01*
X383722Y604474D01*
X383714Y604471D01*
X383548Y604376D01*
X383378Y604282D01*
X383372Y604276D01*
X383364Y604271D01*
X383220Y604146D01*
X383073Y604020D01*
X383067Y604013D01*
X383060Y604007D01*
X382943Y603855D01*
X382824Y603703D01*
X382820Y603695D01*
X382815Y603688D01*
X382663Y603393D01*
X381961Y601697D01*
X378603Y598339D01*
X374215Y596521D01*
X369465Y596521D01*
X365077Y598339D01*
X361719Y601697D01*
X361017Y603393D01*
X361012Y603400D01*
X361010Y603409D01*
X360917Y603579D01*
X360826Y603747D01*
X360821Y603754D01*
X360816Y603762D01*
X360692Y603911D01*
X360570Y604058D01*
X360563Y604063D01*
X360557Y604070D01*
X360406Y604191D01*
X360257Y604312D01*
X360250Y604316D01*
X360242Y604321D01*
X360070Y604410D01*
X359901Y604499D01*
X359892Y604501D01*
X359884Y604505D01*
X359700Y604557D01*
X359514Y604612D01*
X359505Y604612D01*
X359497Y604615D01*
X359306Y604630D01*
X359113Y604646D01*
X359104Y604645D01*
X359096Y604646D01*
X358904Y604623D01*
X358713Y604601D01*
X358705Y604598D01*
X358696Y604597D01*
X358514Y604537D01*
X358330Y604478D01*
X358322Y604474D01*
X358314Y604471D01*
X358148Y604376D01*
X357978Y604282D01*
X357972Y604276D01*
X357964Y604271D01*
X357820Y604146D01*
X357673Y604020D01*
X357667Y604013D01*
X357660Y604007D01*
X357543Y603855D01*
X357424Y603703D01*
X357420Y603695D01*
X357415Y603688D01*
X357263Y603393D01*
X356561Y601697D01*
X353203Y598339D01*
X348815Y596521D01*
X344065Y596521D01*
X339677Y598339D01*
X336319Y601697D01*
X335617Y603393D01*
X335612Y603400D01*
X335610Y603409D01*
X335517Y603579D01*
X335426Y603747D01*
X335421Y603754D01*
X335416Y603762D01*
X335292Y603911D01*
X335170Y604058D01*
X335163Y604063D01*
X335157Y604070D01*
X335006Y604191D01*
X334857Y604312D01*
X334850Y604316D01*
X334842Y604321D01*
X334670Y604410D01*
X334501Y604499D01*
X334492Y604501D01*
X334484Y604505D01*
X334300Y604557D01*
X334114Y604612D01*
X334105Y604612D01*
X334097Y604615D01*
X333906Y604630D01*
X333713Y604646D01*
X333704Y604645D01*
X333696Y604646D01*
X333504Y604623D01*
X333313Y604601D01*
X333305Y604598D01*
X333296Y604597D01*
X333114Y604537D01*
X332930Y604478D01*
X332922Y604474D01*
X332914Y604471D01*
X332748Y604376D01*
X332578Y604282D01*
X332572Y604276D01*
X332564Y604271D01*
X332420Y604146D01*
X332273Y604020D01*
X332267Y604013D01*
X332260Y604007D01*
X332143Y603855D01*
X332024Y603703D01*
X332020Y603695D01*
X332015Y603688D01*
X331863Y603393D01*
X331161Y601697D01*
X327803Y598339D01*
X323415Y596521D01*
X318665Y596521D01*
G37*
%LPD*%
%LPC*%
G36*
X1154519Y620458D02*
X1154519Y620458D01*
X1150108Y622285D01*
X1146731Y625661D01*
X1146539Y626125D01*
X1146529Y626145D01*
X1146522Y626166D01*
X1146434Y626323D01*
X1146349Y626480D01*
X1146335Y626497D01*
X1146324Y626517D01*
X1146207Y626653D01*
X1146093Y626791D01*
X1146075Y626805D01*
X1146061Y626822D01*
X1145920Y626931D01*
X1145780Y627044D01*
X1145760Y627055D01*
X1145743Y627068D01*
X1145583Y627148D01*
X1145424Y627231D01*
X1145402Y627238D01*
X1145382Y627248D01*
X1145209Y627294D01*
X1145037Y627344D01*
X1145015Y627346D01*
X1144993Y627352D01*
X1144663Y627379D01*
X1071240Y627379D01*
X1071222Y627377D01*
X1071204Y627379D01*
X1071022Y627358D01*
X1070839Y627339D01*
X1070822Y627334D01*
X1070805Y627332D01*
X1070630Y627275D01*
X1070454Y627221D01*
X1070439Y627213D01*
X1070422Y627207D01*
X1070262Y627117D01*
X1070100Y627029D01*
X1070087Y627018D01*
X1070071Y627009D01*
X1069932Y626889D01*
X1069791Y626772D01*
X1069780Y626758D01*
X1069766Y626746D01*
X1069654Y626601D01*
X1069539Y626458D01*
X1069531Y626442D01*
X1069520Y626428D01*
X1069438Y626263D01*
X1069353Y626101D01*
X1069348Y626084D01*
X1069340Y626068D01*
X1069293Y625889D01*
X1069242Y625714D01*
X1069240Y625696D01*
X1069236Y625679D01*
X1069209Y625348D01*
X1069209Y622947D01*
X1067423Y621161D01*
X1048397Y621161D01*
X1046611Y622947D01*
X1046611Y641973D01*
X1048397Y643759D01*
X1067423Y643759D01*
X1069209Y641973D01*
X1069209Y639572D01*
X1069211Y639554D01*
X1069209Y639536D01*
X1069230Y639354D01*
X1069249Y639171D01*
X1069254Y639154D01*
X1069256Y639137D01*
X1069313Y638961D01*
X1069367Y638786D01*
X1069375Y638771D01*
X1069381Y638754D01*
X1069471Y638594D01*
X1069559Y638432D01*
X1069570Y638419D01*
X1069579Y638403D01*
X1069699Y638264D01*
X1069816Y638123D01*
X1069830Y638112D01*
X1069842Y638098D01*
X1069987Y637986D01*
X1070130Y637871D01*
X1070146Y637863D01*
X1070160Y637852D01*
X1070325Y637770D01*
X1070487Y637685D01*
X1070504Y637680D01*
X1070520Y637672D01*
X1070699Y637625D01*
X1070874Y637574D01*
X1070892Y637572D01*
X1070909Y637568D01*
X1071240Y637541D01*
X1144663Y637541D01*
X1144685Y637543D01*
X1144707Y637541D01*
X1144885Y637563D01*
X1145063Y637581D01*
X1145084Y637587D01*
X1145107Y637590D01*
X1145277Y637646D01*
X1145448Y637699D01*
X1145468Y637709D01*
X1145489Y637716D01*
X1145645Y637805D01*
X1145802Y637891D01*
X1145819Y637905D01*
X1145839Y637916D01*
X1145974Y638034D01*
X1146111Y638148D01*
X1146125Y638166D01*
X1146142Y638180D01*
X1146252Y638323D01*
X1146364Y638462D01*
X1146374Y638482D01*
X1146388Y638499D01*
X1146539Y638795D01*
X1146731Y639259D01*
X1150108Y642635D01*
X1154519Y644462D01*
X1177201Y644462D01*
X1181612Y642635D01*
X1184989Y639259D01*
X1186816Y634847D01*
X1186816Y630073D01*
X1184989Y625661D01*
X1181612Y622285D01*
X1177201Y620458D01*
X1154519Y620458D01*
G37*
%LPD*%
%LPC*%
G36*
X929017Y621161D02*
X929017Y621161D01*
X927231Y622947D01*
X927231Y641973D01*
X929017Y643759D01*
X948043Y643759D01*
X949829Y641973D01*
X949829Y639572D01*
X949831Y639554D01*
X949829Y639536D01*
X949850Y639354D01*
X949869Y639171D01*
X949874Y639154D01*
X949876Y639137D01*
X949933Y638961D01*
X949987Y638786D01*
X949995Y638771D01*
X950001Y638754D01*
X950091Y638594D01*
X950179Y638432D01*
X950190Y638419D01*
X950199Y638403D01*
X950319Y638264D01*
X950436Y638123D01*
X950450Y638112D01*
X950462Y638098D01*
X950607Y637986D01*
X950750Y637871D01*
X950766Y637863D01*
X950780Y637852D01*
X950945Y637770D01*
X951107Y637685D01*
X951124Y637680D01*
X951140Y637672D01*
X951319Y637625D01*
X951494Y637574D01*
X951512Y637572D01*
X951529Y637568D01*
X951860Y637541D01*
X995628Y637541D01*
X995650Y637543D01*
X995672Y637541D01*
X995850Y637563D01*
X996028Y637581D01*
X996049Y637587D01*
X996072Y637590D01*
X996242Y637646D01*
X996413Y637699D01*
X996433Y637709D01*
X996454Y637716D01*
X996610Y637805D01*
X996767Y637891D01*
X996784Y637905D01*
X996804Y637916D01*
X996939Y638034D01*
X997076Y638148D01*
X997090Y638166D01*
X997107Y638180D01*
X997217Y638323D01*
X997329Y638462D01*
X997339Y638482D01*
X997353Y638499D01*
X997504Y638795D01*
X997531Y638860D01*
X1000710Y642039D01*
X1004863Y643759D01*
X1009357Y643759D01*
X1013510Y642039D01*
X1016689Y638860D01*
X1018409Y634707D01*
X1018409Y630213D01*
X1016689Y626060D01*
X1013510Y622881D01*
X1009357Y621161D01*
X1004863Y621161D01*
X1000710Y622881D01*
X997531Y626060D01*
X997504Y626125D01*
X997494Y626145D01*
X997487Y626166D01*
X997399Y626322D01*
X997314Y626480D01*
X997300Y626497D01*
X997289Y626517D01*
X997172Y626652D01*
X997058Y626791D01*
X997040Y626805D01*
X997026Y626822D01*
X996884Y626931D01*
X996745Y627044D01*
X996725Y627055D01*
X996708Y627068D01*
X996547Y627148D01*
X996388Y627231D01*
X996367Y627238D01*
X996347Y627248D01*
X996174Y627294D01*
X996002Y627344D01*
X995980Y627346D01*
X995958Y627352D01*
X995628Y627379D01*
X951860Y627379D01*
X951842Y627377D01*
X951824Y627379D01*
X951642Y627358D01*
X951459Y627339D01*
X951442Y627334D01*
X951425Y627332D01*
X951250Y627275D01*
X951074Y627221D01*
X951059Y627213D01*
X951042Y627207D01*
X950882Y627117D01*
X950720Y627029D01*
X950707Y627018D01*
X950691Y627009D01*
X950552Y626889D01*
X950411Y626772D01*
X950400Y626758D01*
X950386Y626746D01*
X950274Y626601D01*
X950159Y626458D01*
X950151Y626442D01*
X950140Y626428D01*
X950058Y626263D01*
X949973Y626101D01*
X949968Y626084D01*
X949960Y626068D01*
X949913Y625889D01*
X949862Y625714D01*
X949860Y625696D01*
X949856Y625679D01*
X949829Y625348D01*
X949829Y622947D01*
X948043Y621161D01*
X929017Y621161D01*
G37*
%LPD*%
%LPC*%
G36*
X990511Y330917D02*
X990511Y330917D01*
X988725Y332703D01*
X988725Y350309D01*
X990511Y352095D01*
X1008117Y352095D01*
X1009903Y350309D01*
X1009903Y332703D01*
X1008117Y330917D01*
X990511Y330917D01*
G37*
%LPD*%
%LPC*%
G36*
X269237Y318971D02*
X269237Y318971D01*
X267451Y320757D01*
X267451Y337363D01*
X269237Y339149D01*
X285843Y339149D01*
X287629Y337363D01*
X287629Y320757D01*
X285843Y318971D01*
X269237Y318971D01*
G37*
%LPD*%
%LPC*%
G36*
X497837Y318971D02*
X497837Y318971D01*
X496051Y320757D01*
X496051Y337363D01*
X497837Y339149D01*
X514443Y339149D01*
X516229Y337363D01*
X516229Y320757D01*
X514443Y318971D01*
X497837Y318971D01*
G37*
%LPD*%
%LPC*%
G36*
X743208Y128225D02*
X743208Y128225D01*
X739316Y129837D01*
X736337Y132816D01*
X734725Y136708D01*
X734725Y140920D01*
X736337Y144812D01*
X739316Y147791D01*
X743208Y149403D01*
X747420Y149403D01*
X751312Y147791D01*
X754291Y144812D01*
X755903Y140920D01*
X755903Y136708D01*
X754291Y132816D01*
X751312Y129837D01*
X747420Y128225D01*
X743208Y128225D01*
G37*
%LPD*%
%LPC*%
G36*
X895608Y128225D02*
X895608Y128225D01*
X891716Y129837D01*
X888737Y132816D01*
X887125Y136708D01*
X887125Y140920D01*
X888737Y144812D01*
X891716Y147791D01*
X895608Y149403D01*
X899820Y149403D01*
X903712Y147791D01*
X906691Y144812D01*
X908303Y140920D01*
X908303Y136708D01*
X906691Y132816D01*
X903712Y129837D01*
X899820Y128225D01*
X895608Y128225D01*
G37*
%LPD*%
%LPC*%
G36*
X870208Y128225D02*
X870208Y128225D01*
X866316Y129837D01*
X863337Y132816D01*
X861725Y136708D01*
X861725Y140920D01*
X863337Y144812D01*
X866316Y147791D01*
X870208Y149403D01*
X874420Y149403D01*
X878312Y147791D01*
X881291Y144812D01*
X882903Y140920D01*
X882903Y136708D01*
X881291Y132816D01*
X878312Y129837D01*
X874420Y128225D01*
X870208Y128225D01*
G37*
%LPD*%
%LPC*%
G36*
X844808Y128225D02*
X844808Y128225D01*
X840916Y129837D01*
X837937Y132816D01*
X836325Y136708D01*
X836325Y140920D01*
X837937Y144812D01*
X840916Y147791D01*
X844808Y149403D01*
X849020Y149403D01*
X852912Y147791D01*
X855891Y144812D01*
X857503Y140920D01*
X857503Y136708D01*
X855891Y132816D01*
X852912Y129837D01*
X849020Y128225D01*
X844808Y128225D01*
G37*
%LPD*%
%LPC*%
G36*
X768608Y128225D02*
X768608Y128225D01*
X764716Y129837D01*
X761737Y132816D01*
X760125Y136708D01*
X760125Y140920D01*
X761737Y144812D01*
X764716Y147791D01*
X768608Y149403D01*
X772820Y149403D01*
X776712Y147791D01*
X779691Y144812D01*
X781303Y140920D01*
X781303Y136708D01*
X779691Y132816D01*
X776712Y129837D01*
X772820Y128225D01*
X768608Y128225D01*
G37*
%LPD*%
%LPC*%
G36*
X717808Y128225D02*
X717808Y128225D01*
X713916Y129837D01*
X710937Y132816D01*
X709325Y136708D01*
X709325Y140920D01*
X710937Y144812D01*
X713916Y147791D01*
X717808Y149403D01*
X722020Y149403D01*
X725912Y147791D01*
X728891Y144812D01*
X730503Y140920D01*
X730503Y136708D01*
X728891Y132816D01*
X725912Y129837D01*
X722020Y128225D01*
X717808Y128225D01*
G37*
%LPD*%
%LPC*%
G36*
X692408Y128225D02*
X692408Y128225D01*
X688516Y129837D01*
X685537Y132816D01*
X683925Y136708D01*
X683925Y140920D01*
X685537Y144812D01*
X688516Y147791D01*
X692408Y149403D01*
X696620Y149403D01*
X700512Y147791D01*
X703491Y144812D01*
X705103Y140920D01*
X705103Y136708D01*
X703491Y132816D01*
X700512Y129837D01*
X696620Y128225D01*
X692408Y128225D01*
G37*
%LPD*%
%LPC*%
G36*
X667008Y128225D02*
X667008Y128225D01*
X663116Y129837D01*
X660137Y132816D01*
X658525Y136708D01*
X658525Y140920D01*
X660137Y144812D01*
X663116Y147791D01*
X667008Y149403D01*
X671220Y149403D01*
X675112Y147791D01*
X678091Y144812D01*
X679703Y140920D01*
X679703Y136708D01*
X678091Y132816D01*
X675112Y129837D01*
X671220Y128225D01*
X667008Y128225D01*
G37*
%LPD*%
%LPC*%
G36*
X692408Y330917D02*
X692408Y330917D01*
X688516Y332529D01*
X685537Y335508D01*
X683925Y339400D01*
X683925Y343612D01*
X685537Y347504D01*
X688516Y350483D01*
X692408Y352095D01*
X696620Y352095D01*
X700512Y350483D01*
X703491Y347504D01*
X705103Y343612D01*
X705103Y339400D01*
X703491Y335508D01*
X700512Y332529D01*
X696620Y330917D01*
X692408Y330917D01*
G37*
%LPD*%
%LPC*%
G36*
X717808Y330917D02*
X717808Y330917D01*
X713916Y332529D01*
X710937Y335508D01*
X709325Y339400D01*
X709325Y343612D01*
X710937Y347504D01*
X713916Y350483D01*
X717808Y352095D01*
X722020Y352095D01*
X725912Y350483D01*
X728891Y347504D01*
X730503Y343612D01*
X730503Y339400D01*
X728891Y335508D01*
X725912Y332529D01*
X722020Y330917D01*
X717808Y330917D01*
G37*
%LPD*%
%LPC*%
G36*
X844808Y330917D02*
X844808Y330917D01*
X840916Y332529D01*
X837937Y335508D01*
X836325Y339400D01*
X836325Y343612D01*
X837937Y347504D01*
X840916Y350483D01*
X844808Y352095D01*
X849020Y352095D01*
X852912Y350483D01*
X855891Y347504D01*
X857503Y343612D01*
X857503Y339400D01*
X855891Y335508D01*
X852912Y332529D01*
X849020Y330917D01*
X844808Y330917D01*
G37*
%LPD*%
%LPC*%
G36*
X667008Y330917D02*
X667008Y330917D01*
X663116Y332529D01*
X660137Y335508D01*
X658525Y339400D01*
X658525Y343612D01*
X660137Y347504D01*
X663116Y350483D01*
X667008Y352095D01*
X671220Y352095D01*
X675112Y350483D01*
X678091Y347504D01*
X679703Y343612D01*
X679703Y339400D01*
X678091Y335508D01*
X675112Y332529D01*
X671220Y330917D01*
X667008Y330917D01*
G37*
%LPD*%
%LPC*%
G36*
X870208Y330917D02*
X870208Y330917D01*
X866316Y332529D01*
X863337Y335508D01*
X861725Y339400D01*
X861725Y343612D01*
X863337Y347504D01*
X866316Y350483D01*
X870208Y352095D01*
X874420Y352095D01*
X878312Y350483D01*
X881291Y347504D01*
X882903Y343612D01*
X882903Y339400D01*
X881291Y335508D01*
X878312Y332529D01*
X874420Y330917D01*
X870208Y330917D01*
G37*
%LPD*%
%LPC*%
G36*
X743208Y330917D02*
X743208Y330917D01*
X739316Y332529D01*
X736337Y335508D01*
X734725Y339400D01*
X734725Y343612D01*
X736337Y347504D01*
X739316Y350483D01*
X743208Y352095D01*
X747420Y352095D01*
X751312Y350483D01*
X754291Y347504D01*
X755903Y343612D01*
X755903Y339400D01*
X754291Y335508D01*
X751312Y332529D01*
X747420Y330917D01*
X743208Y330917D01*
G37*
%LPD*%
%LPC*%
G36*
X895608Y330917D02*
X895608Y330917D01*
X891716Y332529D01*
X888737Y335508D01*
X887125Y339400D01*
X887125Y343612D01*
X888737Y347504D01*
X891716Y350483D01*
X895608Y352095D01*
X899820Y352095D01*
X903712Y350483D01*
X906691Y347504D01*
X908303Y343612D01*
X908303Y339400D01*
X906691Y335508D01*
X903712Y332529D01*
X899820Y330917D01*
X895608Y330917D01*
G37*
%LPD*%
%LPC*%
G36*
X921008Y330917D02*
X921008Y330917D01*
X917116Y332529D01*
X914137Y335508D01*
X912525Y339400D01*
X912525Y343612D01*
X914137Y347504D01*
X917116Y350483D01*
X921008Y352095D01*
X925220Y352095D01*
X929112Y350483D01*
X932091Y347504D01*
X933703Y343612D01*
X933703Y339400D01*
X932091Y335508D01*
X929112Y332529D01*
X925220Y330917D01*
X921008Y330917D01*
G37*
%LPD*%
%LPC*%
G36*
X971808Y330917D02*
X971808Y330917D01*
X967916Y332529D01*
X964937Y335508D01*
X963325Y339400D01*
X963325Y343612D01*
X964937Y347504D01*
X967916Y350483D01*
X971808Y352095D01*
X976020Y352095D01*
X979912Y350483D01*
X982891Y347504D01*
X984503Y343612D01*
X984503Y339400D01*
X982891Y335508D01*
X979912Y332529D01*
X976020Y330917D01*
X971808Y330917D01*
G37*
%LPD*%
%LPC*%
G36*
X946408Y330917D02*
X946408Y330917D01*
X942516Y332529D01*
X939537Y335508D01*
X937925Y339400D01*
X937925Y343612D01*
X939537Y347504D01*
X942516Y350483D01*
X946408Y352095D01*
X950620Y352095D01*
X954512Y350483D01*
X957491Y347504D01*
X959103Y343612D01*
X959103Y339400D01*
X957491Y335508D01*
X954512Y332529D01*
X950620Y330917D01*
X946408Y330917D01*
G37*
%LPD*%
%LPC*%
G36*
X819408Y330917D02*
X819408Y330917D01*
X815516Y332529D01*
X812537Y335508D01*
X810925Y339400D01*
X810925Y343612D01*
X812537Y347504D01*
X815516Y350483D01*
X819408Y352095D01*
X823620Y352095D01*
X827512Y350483D01*
X830491Y347504D01*
X832103Y343612D01*
X832103Y339400D01*
X830491Y335508D01*
X827512Y332529D01*
X823620Y330917D01*
X819408Y330917D01*
G37*
%LPD*%
%LPC*%
G36*
X768608Y330917D02*
X768608Y330917D01*
X764716Y332529D01*
X761737Y335508D01*
X760125Y339400D01*
X760125Y343612D01*
X761737Y347504D01*
X764716Y350483D01*
X768608Y352095D01*
X772820Y352095D01*
X776712Y350483D01*
X779691Y347504D01*
X781303Y343612D01*
X781303Y339400D01*
X779691Y335508D01*
X776712Y332529D01*
X772820Y330917D01*
X768608Y330917D01*
G37*
%LPD*%
%LPC*%
G36*
X275533Y191971D02*
X275533Y191971D01*
X271825Y193507D01*
X268987Y196345D01*
X267451Y200053D01*
X267451Y204067D01*
X268987Y207775D01*
X271825Y210613D01*
X275533Y212149D01*
X279547Y212149D01*
X283255Y210613D01*
X286093Y207775D01*
X287629Y204067D01*
X287629Y200053D01*
X286093Y196345D01*
X283255Y193507D01*
X279547Y191971D01*
X275533Y191971D01*
G37*
%LPD*%
%LPC*%
G36*
X504133Y166571D02*
X504133Y166571D01*
X500425Y168107D01*
X497587Y170945D01*
X496051Y174653D01*
X496051Y178667D01*
X497587Y182375D01*
X500425Y185213D01*
X504133Y186749D01*
X508147Y186749D01*
X511855Y185213D01*
X514693Y182375D01*
X516229Y178667D01*
X516229Y174653D01*
X514693Y170945D01*
X511855Y168107D01*
X508147Y166571D01*
X504133Y166571D01*
G37*
%LPD*%
%LPC*%
G36*
X504133Y293571D02*
X504133Y293571D01*
X500425Y295107D01*
X497587Y297945D01*
X496051Y301653D01*
X496051Y305667D01*
X497587Y309375D01*
X500425Y312213D01*
X504133Y313749D01*
X508147Y313749D01*
X511855Y312213D01*
X514693Y309375D01*
X516229Y305667D01*
X516229Y301653D01*
X514693Y297945D01*
X511855Y295107D01*
X508147Y293571D01*
X504133Y293571D01*
G37*
%LPD*%
%LPC*%
G36*
X275533Y293571D02*
X275533Y293571D01*
X271825Y295107D01*
X268987Y297945D01*
X267451Y301653D01*
X267451Y305667D01*
X268987Y309375D01*
X271825Y312213D01*
X275533Y313749D01*
X279547Y313749D01*
X283255Y312213D01*
X286093Y309375D01*
X287629Y305667D01*
X287629Y301653D01*
X286093Y297945D01*
X283255Y295107D01*
X279547Y293571D01*
X275533Y293571D01*
G37*
%LPD*%
%LPC*%
G36*
X275533Y268171D02*
X275533Y268171D01*
X271825Y269707D01*
X268987Y272545D01*
X267451Y276253D01*
X267451Y280267D01*
X268987Y283975D01*
X271825Y286813D01*
X275533Y288349D01*
X279547Y288349D01*
X283255Y286813D01*
X286093Y283975D01*
X287629Y280267D01*
X287629Y276253D01*
X286093Y272545D01*
X283255Y269707D01*
X279547Y268171D01*
X275533Y268171D01*
G37*
%LPD*%
%LPC*%
G36*
X504133Y268171D02*
X504133Y268171D01*
X500425Y269707D01*
X497587Y272545D01*
X496051Y276253D01*
X496051Y280267D01*
X497587Y283975D01*
X500425Y286813D01*
X504133Y288349D01*
X508147Y288349D01*
X511855Y286813D01*
X514693Y283975D01*
X516229Y280267D01*
X516229Y276253D01*
X514693Y272545D01*
X511855Y269707D01*
X508147Y268171D01*
X504133Y268171D01*
G37*
%LPD*%
%LPC*%
G36*
X504133Y242771D02*
X504133Y242771D01*
X500425Y244307D01*
X497587Y247145D01*
X496051Y250853D01*
X496051Y254867D01*
X497587Y258575D01*
X500425Y261413D01*
X501510Y261862D01*
X504133Y262949D01*
X508147Y262949D01*
X511855Y261413D01*
X514693Y258575D01*
X516229Y254867D01*
X516229Y250853D01*
X514693Y247145D01*
X511855Y244307D01*
X508147Y242771D01*
X504133Y242771D01*
G37*
%LPD*%
%LPC*%
G36*
X275533Y242771D02*
X275533Y242771D01*
X271825Y244307D01*
X268987Y247145D01*
X267451Y250853D01*
X267451Y254867D01*
X268987Y258575D01*
X271825Y261413D01*
X272910Y261862D01*
X275533Y262949D01*
X279547Y262949D01*
X283255Y261413D01*
X286093Y258575D01*
X287629Y254867D01*
X287629Y250853D01*
X286093Y247145D01*
X283255Y244307D01*
X279547Y242771D01*
X275533Y242771D01*
G37*
%LPD*%
%LPC*%
G36*
X275533Y217371D02*
X275533Y217371D01*
X271825Y218907D01*
X268987Y221745D01*
X267451Y225453D01*
X267451Y229467D01*
X268987Y233175D01*
X271825Y236013D01*
X275384Y237487D01*
X275533Y237549D01*
X279547Y237549D01*
X283255Y236013D01*
X286093Y233175D01*
X287629Y229467D01*
X287629Y225453D01*
X286093Y221745D01*
X283255Y218907D01*
X279547Y217371D01*
X275533Y217371D01*
G37*
%LPD*%
%LPC*%
G36*
X1168844Y584644D02*
X1168844Y584644D01*
X1168844Y593154D01*
X1175718Y593154D01*
X1177505Y592871D01*
X1179226Y592312D01*
X1180838Y591491D01*
X1182301Y590427D01*
X1183581Y589148D01*
X1184644Y587684D01*
X1185466Y586072D01*
X1185930Y584644D01*
X1168844Y584644D01*
G37*
%LPD*%
%LPC*%
G36*
X1145790Y584644D02*
X1145790Y584644D01*
X1146254Y586072D01*
X1147076Y587684D01*
X1148139Y589148D01*
X1149419Y590427D01*
X1150882Y591491D01*
X1152494Y592312D01*
X1154215Y592871D01*
X1156002Y593154D01*
X1162876Y593154D01*
X1162876Y584644D01*
X1145790Y584644D01*
G37*
%LPD*%
%LPC*%
G36*
X1168844Y570166D02*
X1168844Y570166D01*
X1168844Y578676D01*
X1185930Y578676D01*
X1185466Y577248D01*
X1184644Y575636D01*
X1183581Y574172D01*
X1182301Y572893D01*
X1180838Y571829D01*
X1179226Y571008D01*
X1177505Y570449D01*
X1175718Y570166D01*
X1168844Y570166D01*
G37*
%LPD*%
%LPC*%
G36*
X1156002Y570166D02*
X1156002Y570166D01*
X1154215Y570449D01*
X1152494Y571008D01*
X1150882Y571829D01*
X1149419Y572893D01*
X1148139Y574172D01*
X1147076Y575636D01*
X1146254Y577248D01*
X1145790Y578676D01*
X1162876Y578676D01*
X1162876Y570166D01*
X1156002Y570166D01*
G37*
%LPD*%
%LPC*%
G36*
X656855Y420499D02*
X656855Y420499D01*
X656895Y420756D01*
X657476Y422543D01*
X658329Y424217D01*
X659434Y425738D01*
X660762Y427066D01*
X662283Y428171D01*
X663957Y429024D01*
X665744Y429605D01*
X666001Y429645D01*
X666001Y420499D01*
X656855Y420499D01*
G37*
%LPD*%
%LPC*%
G36*
X665744Y406315D02*
X665744Y406315D01*
X663957Y406896D01*
X662283Y407749D01*
X660762Y408854D01*
X659434Y410182D01*
X658329Y411703D01*
X657476Y413377D01*
X656895Y415164D01*
X656855Y415421D01*
X666001Y415421D01*
X666001Y406275D01*
X665744Y406315D01*
G37*
%LPD*%
%LPC*%
G36*
X890479Y635209D02*
X890479Y635209D01*
X890479Y642913D01*
X891872Y642460D01*
X893386Y641689D01*
X894760Y640691D01*
X895961Y639490D01*
X896959Y638116D01*
X897730Y636602D01*
X898183Y635209D01*
X890479Y635209D01*
G37*
%LPD*%
%LPC*%
G36*
X877277Y635209D02*
X877277Y635209D01*
X877730Y636602D01*
X878501Y638116D01*
X879499Y639490D01*
X880700Y640691D01*
X882074Y641689D01*
X883588Y642460D01*
X884981Y642913D01*
X884981Y635209D01*
X877277Y635209D01*
G37*
%LPD*%
%LPC*%
G36*
X890479Y629711D02*
X890479Y629711D01*
X898183Y629711D01*
X897730Y628318D01*
X896959Y626804D01*
X895961Y625430D01*
X894760Y624229D01*
X893386Y623231D01*
X891872Y622460D01*
X890479Y622007D01*
X890479Y629711D01*
G37*
%LPD*%
%LPC*%
G36*
X883588Y622460D02*
X883588Y622460D01*
X882074Y623231D01*
X880700Y624229D01*
X879499Y625430D01*
X878501Y626804D01*
X877730Y628318D01*
X877277Y629711D01*
X884981Y629711D01*
X884981Y622007D01*
X883588Y622460D01*
G37*
%LPD*%
%LPC*%
G36*
X925613Y141313D02*
X925613Y141313D01*
X925613Y148601D01*
X926984Y148156D01*
X928398Y147436D01*
X929681Y146503D01*
X930803Y145381D01*
X931736Y144098D01*
X932456Y142684D01*
X932901Y141313D01*
X925613Y141313D01*
G37*
%LPD*%
%LPC*%
G36*
X913327Y141313D02*
X913327Y141313D01*
X913772Y142684D01*
X914492Y144098D01*
X915425Y145381D01*
X916547Y146503D01*
X917830Y147436D01*
X919244Y148156D01*
X920615Y148601D01*
X920615Y141313D01*
X913327Y141313D01*
G37*
%LPD*%
%LPC*%
G36*
X925613Y136315D02*
X925613Y136315D01*
X932901Y136315D01*
X932456Y134944D01*
X931736Y133530D01*
X930803Y132247D01*
X929681Y131125D01*
X928398Y130192D01*
X926984Y129472D01*
X925613Y129027D01*
X925613Y136315D01*
G37*
%LPD*%
%LPC*%
G36*
X919244Y129472D02*
X919244Y129472D01*
X917830Y130192D01*
X916547Y131125D01*
X915425Y132247D01*
X914492Y133530D01*
X913772Y134944D01*
X913327Y136315D01*
X920615Y136315D01*
X920615Y129027D01*
X919244Y129472D01*
G37*
%LPD*%
%LPC*%
G36*
X508389Y153509D02*
X508389Y153509D01*
X508389Y160603D01*
X509818Y160139D01*
X511161Y159454D01*
X512381Y158568D01*
X513448Y157501D01*
X514334Y156281D01*
X515019Y154938D01*
X515483Y153509D01*
X508389Y153509D01*
G37*
%LPD*%
%LPC*%
G36*
X508389Y149011D02*
X508389Y149011D01*
X515483Y149011D01*
X515019Y147582D01*
X514334Y146238D01*
X513448Y145019D01*
X512381Y143952D01*
X511161Y143066D01*
X509818Y142381D01*
X508389Y141917D01*
X508389Y149011D01*
G37*
%LPD*%
%LPC*%
G36*
X496797Y153509D02*
X496797Y153509D01*
X497261Y154938D01*
X497946Y156281D01*
X498832Y157501D01*
X499899Y158568D01*
X501119Y159454D01*
X502462Y160139D01*
X503891Y160603D01*
X503891Y153509D01*
X496797Y153509D01*
G37*
%LPD*%
%LPC*%
G36*
X502462Y142381D02*
X502462Y142381D01*
X501119Y143066D01*
X499899Y143952D01*
X498832Y145019D01*
X497946Y146238D01*
X497261Y147582D01*
X496797Y149011D01*
X503891Y149011D01*
X503891Y141917D01*
X502462Y142381D01*
G37*
%LPD*%
D10*
X668540Y417960D03*
X693940Y417960D03*
X719340Y417960D03*
X744740Y417960D03*
D11*
X321040Y608460D03*
X346440Y608460D03*
X371840Y608460D03*
X397240Y608460D03*
X422640Y608460D03*
X448040Y608460D03*
X321040Y430660D03*
X346440Y430660D03*
X371840Y430660D03*
X397240Y430660D03*
X422640Y430660D03*
X448040Y430660D03*
D12*
X999314Y341506D03*
D13*
X973914Y341506D03*
X948514Y341506D03*
X923114Y341506D03*
X897714Y341506D03*
X872314Y341506D03*
X846914Y341506D03*
X821514Y341506D03*
X796114Y341506D03*
X770714Y341506D03*
X745314Y341506D03*
X719914Y341506D03*
X694514Y341506D03*
X669114Y341506D03*
D12*
X999314Y138814D03*
D13*
X973914Y138814D03*
X948514Y138814D03*
X923114Y138814D03*
X897714Y138814D03*
X872314Y138814D03*
X846914Y138814D03*
X821514Y138814D03*
X796114Y138814D03*
X770714Y138814D03*
X745314Y138814D03*
X719914Y138814D03*
X694514Y138814D03*
X669114Y138814D03*
D14*
X277540Y329060D03*
D15*
X277540Y303660D03*
X277540Y278260D03*
X277540Y252860D03*
X277540Y227460D03*
X277540Y202060D03*
X277540Y176660D03*
X277540Y151260D03*
D14*
X506140Y329060D03*
D15*
X506140Y303660D03*
X506140Y278260D03*
X506140Y252860D03*
X506140Y227460D03*
X506140Y202060D03*
X506140Y176660D03*
X506140Y151260D03*
D16*
X938530Y632460D03*
D17*
X887730Y632460D03*
D18*
X1156907Y530860D02*
X1174814Y530860D01*
X1174814Y581660D02*
X1156907Y581660D01*
X1156907Y632460D02*
X1174814Y632460D01*
D16*
X1057910Y632460D03*
D17*
X1007110Y632460D03*
D19*
X528840Y151260D02*
X506140Y151260D01*
X554240Y176660D02*
X554240Y405260D01*
X566940Y417960D01*
X554240Y176660D02*
X528840Y151260D01*
X371840Y167610D02*
X371840Y430660D01*
X388190Y151260D02*
X506140Y151260D01*
X388190Y151260D02*
X371840Y167610D01*
X566940Y417960D02*
X668540Y417960D01*
X867618Y194310D02*
X923114Y138814D01*
X867618Y194310D02*
X655320Y194310D01*
X643890Y205740D01*
X643890Y342900D01*
X655320Y354330D01*
X720090Y354330D01*
X769620Y403860D01*
X769620Y617220D02*
X784860Y632460D01*
X887730Y632460D01*
X769620Y491490D02*
X769620Y403860D01*
X769620Y491490D02*
X769620Y495300D01*
X769620Y499110D01*
X769620Y502920D01*
X769620Y506730D01*
X769620Y617220D01*
X887730Y632460D02*
X887730Y598170D01*
X904240Y581660D02*
X1165860Y581660D01*
X904240Y581660D02*
X887730Y598170D01*
X371840Y459470D02*
X371840Y430660D01*
X371840Y459470D02*
X411480Y499110D01*
X762000Y499110D01*
X765810Y499110D01*
X769620Y499110D01*
X769620Y495300D02*
X765810Y499110D01*
X769620Y502920D01*
X769620Y506730D02*
X762000Y499110D01*
X769620Y491490D01*
X955880Y86744D02*
X278396Y86744D01*
X249440Y115700D01*
X249440Y415260D01*
X264840Y430660D02*
X321040Y430660D01*
X264840Y430660D02*
X249440Y415260D01*
X955880Y86744D02*
X999314Y138814D01*
X948514Y138814D02*
X948514Y121034D01*
X927940Y100460D01*
X693940Y417960D02*
X692990Y417960D01*
X667590Y392560D01*
X616790Y392560D01*
X604090Y379860D01*
X604090Y113160D01*
X616790Y100460D02*
X927940Y100460D01*
X616790Y100460D02*
X604090Y113160D01*
X591390Y100460D01*
X287540Y100460D01*
X262140Y125860D01*
X274840Y176660D02*
X277540Y176660D01*
X274840Y176660D02*
X262140Y163960D01*
X262140Y125860D01*
X397240Y430660D02*
X397240Y461460D01*
X410890Y475110D01*
X732040Y475110D01*
X744740Y462410D01*
X744740Y417960D01*
X821514Y156086D02*
X821514Y138814D01*
X800940Y176660D02*
X643460Y176660D01*
X629490Y190630D01*
X629490Y355730D01*
X800940Y176660D02*
X821514Y156086D01*
X629490Y355730D02*
X640920Y367160D01*
X693940Y367160D02*
X744740Y417960D01*
X693940Y367160D02*
X640920Y367160D01*
X408190Y227460D02*
X397240Y238410D01*
X397240Y430660D01*
X408190Y227460D02*
X506140Y227460D01*
X422640Y430660D02*
X422640Y448760D01*
X429940Y456060D01*
X706640Y456060D02*
X719340Y443360D01*
X719340Y417960D01*
X706640Y456060D02*
X429940Y456060D01*
X796114Y151514D02*
X796114Y138814D01*
X796114Y151514D02*
X782398Y165230D01*
X629490Y165230D01*
X616790Y177930D01*
X616790Y368430D01*
X629490Y381130D01*
X682510Y381130D02*
X719340Y417960D01*
X682510Y381130D02*
X629490Y381130D01*
X528840Y202060D02*
X506140Y202060D01*
X528840Y202060D02*
X541540Y214760D01*
X541540Y379860D01*
X528840Y392560D01*
X429940Y392560D01*
X422640Y399860D01*
X422640Y430660D01*
X796114Y356694D02*
X796114Y341506D01*
X796114Y356694D02*
X807720Y368300D01*
X1102360Y530860D02*
X1165860Y530860D01*
X939800Y368300D02*
X807720Y368300D01*
X939800Y368300D02*
X1102360Y530860D01*
X1057910Y632460D02*
X1165860Y632460D01*
X1007110Y632460D02*
X938530Y632460D01*
M02*
