G04 EAGLE Gerber RS-274X export*
G75*
%MOMM*%
%FSLAX34Y34*%
%LPD*%
%INTop Copper*%
%IPPOS*%
%AMOC8*
5,1,8,0,0,1.08239X$1,22.5*%
G01*
%ADD10C,1.879600*%
%ADD11C,1.778000*%
%ADD12R,1.500000X1.500000*%
%ADD13C,1.500000*%
%ADD14C,1.320800*%
%ADD15C,1.790700*%
%ADD16R,2.550000X2.550000*%
%ADD17C,2.550000*%
%ADD18R,0.254000X0.812800*%
%ADD19R,0.304800X1.092200*%
%ADD20R,0.254000X0.508000*%
%ADD21R,0.254000X0.711200*%
%ADD22R,0.711200X0.254000*%
%ADD23R,1.092200X0.304800*%
%ADD24R,0.406400X0.254000*%
%ADD25R,0.855600X1.600000*%
%ADD26R,1.600000X0.855600*%
%ADD27R,0.660400X0.558800*%
%ADD28R,0.605600X0.500000*%
%ADD29R,0.508000X0.558800*%
%ADD30R,0.990600X0.711200*%
%ADD31R,0.755600X0.799997*%
%ADD32R,1.650000X1.650000*%
%ADD33C,1.650000*%
%ADD34R,0.650000X0.900000*%
%ADD35R,0.609600X1.143000*%
%ADD36R,0.304800X1.143000*%
%ADD37C,0.990600*%
%ADD38C,0.914400*%
%ADD39R,1.143000X0.609600*%
%ADD40R,1.143000X0.304800*%
%ADD41C,0.655600*%
%ADD42C,0.508000*%
%ADD43C,0.609600*%
%ADD44C,1.270000*%
%ADD45C,0.304800*%
%ADD46C,0.406400*%
%ADD47C,0.605600*%
%ADD48C,0.812800*%
%ADD49C,0.755600*%

G36*
X285886Y55923D02*
X285886Y55923D01*
X285960Y55925D01*
X286006Y55942D01*
X286054Y55950D01*
X286119Y55985D01*
X286188Y56011D01*
X286226Y56042D01*
X286270Y56065D01*
X286320Y56119D01*
X286377Y56166D01*
X286403Y56207D01*
X286436Y56243D01*
X286467Y56310D01*
X286506Y56373D01*
X286517Y56421D01*
X286537Y56466D01*
X286544Y56539D01*
X286561Y56610D01*
X286556Y56659D01*
X286561Y56709D01*
X286545Y56780D01*
X286538Y56853D01*
X286517Y56898D01*
X286506Y56946D01*
X286467Y57009D01*
X286437Y57076D01*
X286390Y57132D01*
X286377Y57154D01*
X286364Y57164D01*
X286343Y57190D01*
X270467Y73066D01*
X270388Y73123D01*
X270313Y73185D01*
X270289Y73193D01*
X270269Y73208D01*
X270176Y73236D01*
X270085Y73271D01*
X270052Y73274D01*
X270036Y73279D01*
X270011Y73278D01*
X269938Y73285D01*
X267808Y73285D01*
X263981Y74871D01*
X261051Y77801D01*
X259465Y81628D01*
X259465Y85772D01*
X261051Y89599D01*
X263981Y92529D01*
X267808Y94115D01*
X271952Y94115D01*
X272816Y93757D01*
X272931Y93730D01*
X273053Y93701D01*
X273185Y93714D01*
X273296Y93725D01*
X273415Y93779D01*
X273518Y93826D01*
X273519Y93826D01*
X273632Y93919D01*
X301368Y121655D01*
X301425Y121734D01*
X301487Y121809D01*
X301495Y121833D01*
X301510Y121853D01*
X301538Y121946D01*
X301573Y122037D01*
X301576Y122070D01*
X301581Y122086D01*
X301580Y122111D01*
X301587Y122184D01*
X301587Y254431D01*
X301566Y254560D01*
X301548Y254671D01*
X301486Y254787D01*
X301433Y254886D01*
X301433Y254887D01*
X301363Y254952D01*
X301255Y255053D01*
X301254Y255054D01*
X301125Y255123D01*
X300261Y255481D01*
X297331Y258411D01*
X295745Y262238D01*
X295745Y266382D01*
X297331Y270209D01*
X300261Y273139D01*
X301124Y273497D01*
X301125Y273497D01*
X301213Y273552D01*
X301332Y273626D01*
X301407Y273717D01*
X301487Y273814D01*
X301487Y273815D01*
X301535Y273942D01*
X301573Y274042D01*
X301573Y274043D01*
X301573Y274044D01*
X301587Y274189D01*
X301587Y343054D01*
X345208Y386675D01*
X345265Y386754D01*
X345327Y386829D01*
X345335Y386853D01*
X345350Y386873D01*
X345378Y386966D01*
X345413Y387057D01*
X345416Y387090D01*
X345421Y387106D01*
X345420Y387131D01*
X345427Y387204D01*
X345427Y398796D01*
X345411Y398892D01*
X345402Y398989D01*
X345392Y399012D01*
X345388Y399036D01*
X345342Y399122D01*
X345301Y399211D01*
X345280Y399237D01*
X345273Y399252D01*
X345254Y399269D01*
X345208Y399325D01*
X300927Y443606D01*
X300927Y448561D01*
X300906Y448690D01*
X300888Y448801D01*
X300826Y448917D01*
X300773Y449016D01*
X300773Y449017D01*
X300703Y449082D01*
X300595Y449183D01*
X300594Y449184D01*
X300465Y449253D01*
X299601Y449611D01*
X296671Y452541D01*
X295085Y456368D01*
X295085Y460512D01*
X296671Y464339D01*
X299601Y467269D01*
X300464Y467627D01*
X300465Y467627D01*
X300553Y467682D01*
X300672Y467756D01*
X300744Y467844D01*
X300827Y467944D01*
X300827Y467945D01*
X300875Y468072D01*
X300913Y468172D01*
X300913Y468173D01*
X300913Y468174D01*
X300927Y468319D01*
X300927Y472394D01*
X318106Y489573D01*
X566894Y489573D01*
X626693Y429774D01*
X626693Y421879D01*
X626719Y421722D01*
X626732Y421639D01*
X626732Y421638D01*
X626804Y421505D01*
X626847Y421424D01*
X626847Y421423D01*
X626939Y421338D01*
X627025Y421257D01*
X627025Y421256D01*
X627026Y421256D01*
X627155Y421187D01*
X628307Y420710D01*
X631380Y417637D01*
X633043Y413623D01*
X633043Y409277D01*
X631380Y405263D01*
X628307Y402190D01*
X624293Y400527D01*
X619947Y400527D01*
X615933Y402190D01*
X612860Y405263D01*
X611197Y409277D01*
X611197Y413623D01*
X612860Y417637D01*
X615933Y420710D01*
X617084Y421187D01*
X617085Y421187D01*
X617173Y421242D01*
X617292Y421315D01*
X617292Y421316D01*
X617353Y421390D01*
X617447Y421504D01*
X617496Y421636D01*
X617533Y421732D01*
X617533Y421733D01*
X617533Y421734D01*
X617547Y421879D01*
X617547Y425676D01*
X617531Y425772D01*
X617522Y425869D01*
X617512Y425892D01*
X617508Y425916D01*
X617462Y426002D01*
X617421Y426091D01*
X617400Y426117D01*
X617393Y426132D01*
X617374Y426149D01*
X617328Y426205D01*
X563325Y480208D01*
X563246Y480265D01*
X563171Y480327D01*
X563147Y480335D01*
X563127Y480350D01*
X563034Y480378D01*
X562943Y480413D01*
X562910Y480416D01*
X562894Y480421D01*
X562869Y480420D01*
X562796Y480427D01*
X322204Y480427D01*
X322108Y480411D01*
X322011Y480402D01*
X321988Y480392D01*
X321964Y480388D01*
X321878Y480342D01*
X321789Y480301D01*
X321763Y480280D01*
X321748Y480273D01*
X321731Y480254D01*
X321675Y480208D01*
X310309Y468842D01*
X310280Y468802D01*
X310245Y468769D01*
X310210Y468704D01*
X310167Y468644D01*
X310153Y468597D01*
X310129Y468554D01*
X310117Y468481D01*
X310096Y468410D01*
X310098Y468361D01*
X310090Y468313D01*
X310102Y468240D01*
X310104Y468166D01*
X310121Y468121D01*
X310129Y468072D01*
X310164Y468007D01*
X310190Y467938D01*
X310221Y467900D01*
X310244Y467857D01*
X310298Y467806D01*
X310344Y467749D01*
X310386Y467723D01*
X310422Y467690D01*
X310551Y467621D01*
X310552Y467620D01*
X311399Y467269D01*
X314329Y464339D01*
X315915Y460512D01*
X315915Y456368D01*
X314329Y452541D01*
X311399Y449611D01*
X310536Y449253D01*
X310535Y449253D01*
X310447Y449198D01*
X310328Y449124D01*
X310240Y449017D01*
X310173Y448936D01*
X310173Y448935D01*
X310122Y448799D01*
X310087Y448708D01*
X310087Y448707D01*
X310087Y448706D01*
X310073Y448561D01*
X310073Y447704D01*
X310089Y447608D01*
X310098Y447511D01*
X310108Y447488D01*
X310112Y447464D01*
X310158Y447378D01*
X310199Y447289D01*
X310220Y447263D01*
X310227Y447248D01*
X310246Y447231D01*
X310292Y447175D01*
X354573Y402894D01*
X354573Y383106D01*
X310952Y339485D01*
X310895Y339406D01*
X310833Y339331D01*
X310825Y339307D01*
X310810Y339287D01*
X310782Y339194D01*
X310747Y339103D01*
X310744Y339070D01*
X310739Y339054D01*
X310740Y339029D01*
X310733Y338956D01*
X310733Y274189D01*
X310759Y274032D01*
X310772Y273949D01*
X310839Y273824D01*
X310887Y273734D01*
X310887Y273733D01*
X310976Y273650D01*
X311065Y273567D01*
X311066Y273566D01*
X311195Y273497D01*
X312059Y273139D01*
X314989Y270209D01*
X316575Y266382D01*
X316575Y262238D01*
X314989Y258411D01*
X312059Y255481D01*
X311196Y255123D01*
X311195Y255123D01*
X311107Y255068D01*
X310988Y254994D01*
X310900Y254887D01*
X310833Y254806D01*
X310833Y254805D01*
X310783Y254671D01*
X310747Y254578D01*
X310747Y254577D01*
X310747Y254576D01*
X310733Y254431D01*
X310733Y118086D01*
X307835Y115188D01*
X280099Y87452D01*
X280018Y87340D01*
X279957Y87255D01*
X279957Y87254D01*
X279917Y87124D01*
X279886Y87021D01*
X279891Y86886D01*
X279894Y86777D01*
X279894Y86776D01*
X279937Y86636D01*
X280295Y85772D01*
X280295Y81628D01*
X278888Y78233D01*
X278860Y78111D01*
X278833Y77996D01*
X278833Y77995D01*
X278846Y77864D01*
X278857Y77753D01*
X278857Y77752D01*
X278910Y77634D01*
X278957Y77530D01*
X278958Y77529D01*
X279051Y77416D01*
X291675Y64792D01*
X291754Y64735D01*
X291829Y64673D01*
X291853Y64665D01*
X291873Y64650D01*
X291966Y64622D01*
X292057Y64587D01*
X292090Y64584D01*
X292106Y64579D01*
X292131Y64580D01*
X292204Y64573D01*
X387796Y64573D01*
X387892Y64589D01*
X387989Y64598D01*
X388012Y64608D01*
X388036Y64612D01*
X388122Y64658D01*
X388211Y64699D01*
X388237Y64720D01*
X388252Y64727D01*
X388269Y64746D01*
X388325Y64792D01*
X428106Y104573D01*
X662006Y104573D01*
X662102Y104589D01*
X662199Y104598D01*
X662222Y104608D01*
X662246Y104612D01*
X662332Y104658D01*
X662421Y104699D01*
X662447Y104720D01*
X662462Y104727D01*
X662479Y104746D01*
X662535Y104792D01*
X708549Y150805D01*
X708623Y150909D01*
X708691Y151003D01*
X708691Y151004D01*
X708714Y151080D01*
X708762Y151237D01*
X708758Y151351D01*
X708754Y151481D01*
X708753Y151482D01*
X708711Y151622D01*
X708679Y151699D01*
X708679Y155289D01*
X710053Y158606D01*
X712592Y161145D01*
X715909Y162519D01*
X719499Y162519D01*
X722816Y161145D01*
X725355Y158606D01*
X726729Y155289D01*
X726729Y151699D01*
X725355Y148382D01*
X722816Y145843D01*
X719499Y144469D01*
X715909Y144469D01*
X715833Y144501D01*
X715832Y144501D01*
X715730Y144525D01*
X715595Y144556D01*
X715594Y144557D01*
X715468Y144544D01*
X715352Y144533D01*
X715224Y144475D01*
X715130Y144432D01*
X715129Y144432D01*
X715129Y144431D01*
X715015Y144339D01*
X669002Y98325D01*
X666104Y95427D01*
X432204Y95427D01*
X432108Y95411D01*
X432011Y95402D01*
X431988Y95392D01*
X431964Y95388D01*
X431878Y95342D01*
X431789Y95301D01*
X431763Y95280D01*
X431748Y95273D01*
X431731Y95254D01*
X431675Y95208D01*
X394792Y58325D01*
X393657Y57190D01*
X393614Y57130D01*
X393564Y57076D01*
X393543Y57032D01*
X393514Y56991D01*
X393493Y56921D01*
X393463Y56854D01*
X393458Y56805D01*
X393444Y56758D01*
X393446Y56685D01*
X393439Y56611D01*
X393450Y56563D01*
X393451Y56514D01*
X393477Y56445D01*
X393494Y56374D01*
X393520Y56332D01*
X393537Y56286D01*
X393584Y56229D01*
X393623Y56166D01*
X393661Y56135D01*
X393692Y56097D01*
X393754Y56058D01*
X393811Y56011D01*
X393857Y55994D01*
X393899Y55968D01*
X393971Y55951D01*
X394039Y55925D01*
X394113Y55918D01*
X394137Y55912D01*
X394153Y55914D01*
X394186Y55911D01*
X723594Y55911D01*
X723643Y55919D01*
X723692Y55917D01*
X723762Y55938D01*
X723835Y55950D01*
X723878Y55974D01*
X723925Y55988D01*
X723985Y56031D01*
X724050Y56065D01*
X724084Y56101D01*
X724124Y56130D01*
X724167Y56190D01*
X724217Y56243D01*
X724237Y56288D01*
X724266Y56328D01*
X724287Y56399D01*
X724318Y56466D01*
X724323Y56515D01*
X724337Y56561D01*
X724335Y56635D01*
X724342Y56709D01*
X724331Y56756D01*
X724329Y56805D01*
X724287Y56945D01*
X724287Y56946D01*
X724286Y56947D01*
X723611Y58577D01*
X723611Y75769D01*
X725622Y80624D01*
X729338Y84340D01*
X734193Y86351D01*
X739447Y86351D01*
X744302Y84340D01*
X748018Y80624D01*
X750029Y75769D01*
X750029Y58577D01*
X749354Y56947D01*
X749342Y56899D01*
X749322Y56854D01*
X749315Y56781D01*
X749298Y56709D01*
X749303Y56660D01*
X749298Y56611D01*
X749315Y56540D01*
X749322Y56466D01*
X749342Y56422D01*
X749353Y56374D01*
X749392Y56311D01*
X749423Y56244D01*
X749456Y56208D01*
X749482Y56166D01*
X749539Y56120D01*
X749589Y56066D01*
X749633Y56043D01*
X749671Y56011D01*
X749739Y55985D01*
X749805Y55951D01*
X749853Y55943D01*
X749899Y55925D01*
X750044Y55911D01*
X750045Y55911D01*
X750046Y55911D01*
X809954Y55911D01*
X810003Y55919D01*
X810052Y55917D01*
X810122Y55938D01*
X810195Y55950D01*
X810238Y55974D01*
X810285Y55988D01*
X810345Y56031D01*
X810410Y56065D01*
X810444Y56101D01*
X810484Y56130D01*
X810527Y56190D01*
X810577Y56243D01*
X810597Y56288D01*
X810626Y56328D01*
X810647Y56399D01*
X810678Y56466D01*
X810683Y56515D01*
X810697Y56561D01*
X810695Y56635D01*
X810702Y56709D01*
X810691Y56756D01*
X810689Y56805D01*
X810647Y56945D01*
X810647Y56946D01*
X810646Y56947D01*
X809971Y58577D01*
X809971Y75769D01*
X811982Y80624D01*
X815698Y84340D01*
X820553Y86351D01*
X825807Y86351D01*
X830662Y84340D01*
X834378Y80624D01*
X836389Y75769D01*
X836389Y58577D01*
X835714Y56947D01*
X835702Y56899D01*
X835682Y56854D01*
X835675Y56781D01*
X835658Y56709D01*
X835663Y56660D01*
X835658Y56611D01*
X835675Y56540D01*
X835682Y56466D01*
X835702Y56422D01*
X835713Y56374D01*
X835752Y56311D01*
X835783Y56244D01*
X835816Y56208D01*
X835842Y56166D01*
X835899Y56120D01*
X835949Y56066D01*
X835993Y56043D01*
X836031Y56011D01*
X836099Y55985D01*
X836165Y55951D01*
X836213Y55943D01*
X836259Y55925D01*
X836404Y55911D01*
X836405Y55911D01*
X836406Y55911D01*
X1166439Y55911D01*
X1166506Y55922D01*
X1166575Y55923D01*
X1166626Y55942D01*
X1166679Y55950D01*
X1166740Y55983D01*
X1166804Y56006D01*
X1166847Y56040D01*
X1166895Y56065D01*
X1166941Y56116D01*
X1166995Y56158D01*
X1167024Y56204D01*
X1167061Y56243D01*
X1167090Y56306D01*
X1167127Y56364D01*
X1167140Y56416D01*
X1167162Y56466D01*
X1167169Y56534D01*
X1167185Y56601D01*
X1167181Y56655D01*
X1167186Y56709D01*
X1167171Y56775D01*
X1167165Y56844D01*
X1167143Y56893D01*
X1167131Y56946D01*
X1167095Y57005D01*
X1167067Y57067D01*
X1167031Y57108D01*
X1167002Y57154D01*
X1166949Y57197D01*
X1166903Y57248D01*
X1166833Y57293D01*
X1166814Y57308D01*
X1166801Y57313D01*
X1166779Y57328D01*
X1159103Y61238D01*
X1151238Y69103D01*
X1146189Y79014D01*
X1144449Y90000D01*
X1146189Y100986D01*
X1151238Y110897D01*
X1159103Y118762D01*
X1169014Y123811D01*
X1180000Y125551D01*
X1190986Y123811D01*
X1200897Y118762D01*
X1207810Y111848D01*
X1207870Y111805D01*
X1207924Y111755D01*
X1207968Y111735D01*
X1208009Y111706D01*
X1208079Y111685D01*
X1208146Y111654D01*
X1208195Y111649D01*
X1208242Y111635D01*
X1208315Y111637D01*
X1208389Y111630D01*
X1208437Y111641D01*
X1208486Y111643D01*
X1208555Y111669D01*
X1208626Y111685D01*
X1208668Y111711D01*
X1208714Y111729D01*
X1208771Y111775D01*
X1208834Y111814D01*
X1208865Y111852D01*
X1208903Y111883D01*
X1208942Y111946D01*
X1208989Y112003D01*
X1209006Y112049D01*
X1209032Y112091D01*
X1209049Y112162D01*
X1209075Y112231D01*
X1209082Y112304D01*
X1209088Y112328D01*
X1209086Y112345D01*
X1209089Y112378D01*
X1209089Y607622D01*
X1209077Y607695D01*
X1209075Y607768D01*
X1209058Y607814D01*
X1209050Y607863D01*
X1209015Y607928D01*
X1208989Y607996D01*
X1208958Y608035D01*
X1208935Y608078D01*
X1208881Y608128D01*
X1208834Y608185D01*
X1208793Y608211D01*
X1208757Y608245D01*
X1208690Y608275D01*
X1208627Y608314D01*
X1208579Y608325D01*
X1208534Y608346D01*
X1208461Y608353D01*
X1208390Y608370D01*
X1208341Y608365D01*
X1208291Y608370D01*
X1208220Y608353D01*
X1208147Y608346D01*
X1208102Y608326D01*
X1208054Y608315D01*
X1207991Y608276D01*
X1207924Y608246D01*
X1207868Y608199D01*
X1207846Y608186D01*
X1207836Y608173D01*
X1207810Y608152D01*
X1200897Y601238D01*
X1190986Y596189D01*
X1180000Y594449D01*
X1169014Y596189D01*
X1159103Y601238D01*
X1151238Y609103D01*
X1146189Y619014D01*
X1144449Y630000D01*
X1146189Y640986D01*
X1151238Y650897D01*
X1159103Y658762D01*
X1166779Y662672D01*
X1166834Y662713D01*
X1166895Y662745D01*
X1166932Y662785D01*
X1166975Y662817D01*
X1167014Y662873D01*
X1167061Y662924D01*
X1167084Y662973D01*
X1167115Y663017D01*
X1167134Y663083D01*
X1167162Y663146D01*
X1167168Y663200D01*
X1167183Y663252D01*
X1167179Y663320D01*
X1167186Y663389D01*
X1167174Y663441D01*
X1167172Y663495D01*
X1167147Y663559D01*
X1167131Y663626D01*
X1167102Y663672D01*
X1167083Y663723D01*
X1167039Y663775D01*
X1167002Y663834D01*
X1166960Y663868D01*
X1166926Y663909D01*
X1166867Y663945D01*
X1166814Y663989D01*
X1166763Y664008D01*
X1166717Y664036D01*
X1166650Y664051D01*
X1166586Y664075D01*
X1166502Y664083D01*
X1166478Y664088D01*
X1166465Y664087D01*
X1166439Y664089D01*
X836406Y664089D01*
X836357Y664081D01*
X836308Y664083D01*
X836238Y664062D01*
X836165Y664050D01*
X836122Y664026D01*
X836075Y664012D01*
X836015Y663969D01*
X835950Y663935D01*
X835916Y663899D01*
X835876Y663870D01*
X835833Y663810D01*
X835783Y663757D01*
X835763Y663712D01*
X835734Y663672D01*
X835713Y663601D01*
X835682Y663534D01*
X835677Y663485D01*
X835663Y663439D01*
X835665Y663365D01*
X835658Y663291D01*
X835669Y663244D01*
X835671Y663195D01*
X835713Y663055D01*
X835713Y663054D01*
X835714Y663054D01*
X835714Y663053D01*
X836389Y661423D01*
X836389Y644231D01*
X834378Y639376D01*
X830662Y635660D01*
X825807Y633649D01*
X820553Y633649D01*
X815698Y635660D01*
X811982Y639376D01*
X809971Y644231D01*
X809971Y661423D01*
X810646Y663053D01*
X810658Y663101D01*
X810678Y663146D01*
X810685Y663219D01*
X810702Y663291D01*
X810697Y663340D01*
X810702Y663389D01*
X810685Y663460D01*
X810678Y663534D01*
X810658Y663578D01*
X810647Y663626D01*
X810608Y663689D01*
X810577Y663756D01*
X810544Y663792D01*
X810518Y663834D01*
X810461Y663880D01*
X810411Y663934D01*
X810367Y663957D01*
X810329Y663989D01*
X810261Y664015D01*
X810195Y664049D01*
X810147Y664057D01*
X810101Y664075D01*
X809956Y664089D01*
X809955Y664089D01*
X809954Y664089D01*
X750046Y664089D01*
X749997Y664081D01*
X749948Y664083D01*
X749878Y664062D01*
X749805Y664050D01*
X749762Y664026D01*
X749715Y664012D01*
X749655Y663969D01*
X749590Y663935D01*
X749556Y663899D01*
X749516Y663870D01*
X749473Y663810D01*
X749423Y663757D01*
X749403Y663712D01*
X749374Y663672D01*
X749353Y663601D01*
X749322Y663534D01*
X749317Y663485D01*
X749303Y663439D01*
X749305Y663365D01*
X749298Y663291D01*
X749309Y663244D01*
X749311Y663195D01*
X749353Y663055D01*
X749353Y663054D01*
X749354Y663053D01*
X750029Y661423D01*
X750029Y644231D01*
X748018Y639376D01*
X744302Y635660D01*
X739447Y633649D01*
X734193Y633649D01*
X729338Y635660D01*
X725622Y639376D01*
X723611Y644231D01*
X723611Y661423D01*
X724286Y663053D01*
X724298Y663101D01*
X724318Y663146D01*
X724325Y663219D01*
X724342Y663291D01*
X724337Y663340D01*
X724342Y663389D01*
X724325Y663460D01*
X724318Y663534D01*
X724298Y663578D01*
X724287Y663626D01*
X724248Y663689D01*
X724217Y663756D01*
X724184Y663792D01*
X724158Y663834D01*
X724101Y663880D01*
X724051Y663934D01*
X724007Y663957D01*
X723969Y663989D01*
X723901Y664015D01*
X723835Y664049D01*
X723787Y664057D01*
X723741Y664075D01*
X723596Y664089D01*
X723595Y664089D01*
X723594Y664089D01*
X699375Y664089D01*
X699327Y664081D01*
X699278Y664083D01*
X699207Y664062D01*
X699135Y664050D01*
X699091Y664026D01*
X699044Y664012D01*
X698984Y663969D01*
X698919Y663935D01*
X698886Y663899D01*
X698846Y663870D01*
X698803Y663810D01*
X698752Y663757D01*
X698732Y663712D01*
X698703Y663672D01*
X698682Y663601D01*
X698652Y663534D01*
X698647Y663485D01*
X698632Y663438D01*
X698635Y663365D01*
X698628Y663291D01*
X698639Y663244D01*
X698640Y663194D01*
X698666Y663126D01*
X698683Y663054D01*
X698709Y663012D01*
X698726Y662966D01*
X698773Y662909D01*
X698812Y662846D01*
X698850Y662815D01*
X698881Y662777D01*
X698999Y662692D01*
X699000Y662692D01*
X699000Y662691D01*
X699001Y662691D01*
X701476Y661262D01*
X706442Y656296D01*
X709953Y650215D01*
X711771Y643431D01*
X711771Y636409D01*
X711668Y636025D01*
X711668Y636024D01*
X711467Y635275D01*
X711266Y634526D01*
X711066Y633777D01*
X711065Y633777D01*
X710664Y632278D01*
X710463Y631529D01*
X710062Y630031D01*
X710062Y630030D01*
X709953Y629625D01*
X706442Y623544D01*
X701476Y618578D01*
X695395Y615067D01*
X688611Y613249D01*
X681589Y613249D01*
X674805Y615067D01*
X668724Y618578D01*
X663758Y623544D01*
X660247Y629625D01*
X658429Y636409D01*
X658429Y643431D01*
X658750Y644627D01*
X658950Y645376D01*
X659352Y646875D01*
X659553Y647624D01*
X659954Y649122D01*
X659954Y649123D01*
X660155Y649872D01*
X660247Y650215D01*
X663758Y656296D01*
X668724Y661262D01*
X671199Y662691D01*
X671237Y662722D01*
X671281Y662745D01*
X671331Y662799D01*
X671388Y662846D01*
X671414Y662888D01*
X671448Y662924D01*
X671478Y662990D01*
X671517Y663053D01*
X671528Y663101D01*
X671548Y663146D01*
X671556Y663219D01*
X671572Y663291D01*
X671568Y663340D01*
X671572Y663389D01*
X671556Y663460D01*
X671549Y663534D01*
X671528Y663578D01*
X671517Y663626D01*
X671478Y663689D01*
X671448Y663756D01*
X671414Y663792D01*
X671388Y663834D01*
X671332Y663880D01*
X671281Y663934D01*
X671238Y663957D01*
X671200Y663989D01*
X671131Y664014D01*
X671066Y664049D01*
X671018Y664057D01*
X670972Y664075D01*
X670827Y664089D01*
X670825Y664089D01*
X496175Y664089D01*
X496127Y664081D01*
X496078Y664083D01*
X496007Y664062D01*
X495935Y664050D01*
X495891Y664026D01*
X495844Y664012D01*
X495784Y663969D01*
X495719Y663935D01*
X495686Y663899D01*
X495646Y663870D01*
X495603Y663810D01*
X495552Y663757D01*
X495532Y663712D01*
X495504Y663672D01*
X495482Y663601D01*
X495452Y663534D01*
X495447Y663485D01*
X495433Y663438D01*
X495435Y663365D01*
X495428Y663291D01*
X495439Y663244D01*
X495440Y663194D01*
X495466Y663126D01*
X495483Y663054D01*
X495509Y663012D01*
X495526Y662966D01*
X495573Y662909D01*
X495612Y662846D01*
X495650Y662815D01*
X495681Y662777D01*
X495799Y662692D01*
X495800Y662692D01*
X495800Y662691D01*
X495801Y662691D01*
X498276Y661262D01*
X503242Y656296D01*
X506753Y650215D01*
X508571Y643431D01*
X508571Y636409D01*
X508468Y636025D01*
X508468Y636024D01*
X508267Y635275D01*
X508066Y634526D01*
X507866Y633777D01*
X507865Y633777D01*
X507464Y632278D01*
X507263Y631529D01*
X506862Y630031D01*
X506862Y630030D01*
X506753Y629625D01*
X503242Y623544D01*
X498276Y618578D01*
X492195Y615067D01*
X485411Y613249D01*
X478389Y613249D01*
X471605Y615067D01*
X465524Y618578D01*
X460558Y623544D01*
X457047Y629625D01*
X455229Y636409D01*
X455229Y643431D01*
X455550Y644627D01*
X455750Y645376D01*
X456152Y646875D01*
X456353Y647624D01*
X456754Y649122D01*
X456754Y649123D01*
X456955Y649872D01*
X457047Y650215D01*
X460558Y656296D01*
X465524Y661262D01*
X467999Y662691D01*
X468037Y662722D01*
X468081Y662745D01*
X468131Y662799D01*
X468188Y662846D01*
X468214Y662888D01*
X468248Y662924D01*
X468278Y662990D01*
X468317Y663053D01*
X468328Y663101D01*
X468348Y663146D01*
X468356Y663219D01*
X468372Y663291D01*
X468368Y663340D01*
X468372Y663389D01*
X468356Y663460D01*
X468349Y663534D01*
X468328Y663578D01*
X468317Y663626D01*
X468278Y663689D01*
X468248Y663756D01*
X468214Y663792D01*
X468188Y663834D01*
X468132Y663880D01*
X468081Y663934D01*
X468038Y663957D01*
X468000Y663989D01*
X467931Y664015D01*
X467866Y664049D01*
X467818Y664057D01*
X467772Y664075D01*
X467627Y664089D01*
X467625Y664089D01*
X142098Y664089D01*
X142025Y664077D01*
X141952Y664075D01*
X141906Y664058D01*
X141857Y664050D01*
X141792Y664015D01*
X141724Y663989D01*
X141685Y663958D01*
X141642Y663935D01*
X141592Y663881D01*
X141535Y663834D01*
X141509Y663793D01*
X141475Y663757D01*
X141445Y663690D01*
X141406Y663627D01*
X141395Y663579D01*
X141374Y663534D01*
X141367Y663461D01*
X141350Y663390D01*
X141355Y663341D01*
X141350Y663291D01*
X141367Y663220D01*
X141374Y663147D01*
X141394Y663102D01*
X141405Y663054D01*
X141444Y662991D01*
X141474Y662924D01*
X141521Y662868D01*
X141534Y662846D01*
X141547Y662836D01*
X141568Y662810D01*
X148722Y655657D01*
X153771Y645746D01*
X155511Y634760D01*
X153771Y623774D01*
X148722Y613863D01*
X140857Y605998D01*
X130946Y600949D01*
X119960Y599209D01*
X108974Y600949D01*
X99063Y605998D01*
X92190Y612872D01*
X92130Y612915D01*
X92076Y612965D01*
X92032Y612985D01*
X91991Y613014D01*
X91921Y613035D01*
X91854Y613066D01*
X91805Y613071D01*
X91758Y613085D01*
X91685Y613083D01*
X91611Y613090D01*
X91563Y613079D01*
X91514Y613077D01*
X91445Y613051D01*
X91374Y613035D01*
X91332Y613009D01*
X91286Y612991D01*
X91229Y612945D01*
X91166Y612906D01*
X91135Y612868D01*
X91097Y612837D01*
X91058Y612774D01*
X91011Y612717D01*
X90994Y612671D01*
X90968Y612629D01*
X90951Y612558D01*
X90925Y612489D01*
X90918Y612416D01*
X90912Y612392D01*
X90914Y612375D01*
X90911Y612342D01*
X90911Y486406D01*
X90919Y486357D01*
X90917Y486308D01*
X90938Y486238D01*
X90950Y486165D01*
X90974Y486122D01*
X90988Y486075D01*
X91031Y486015D01*
X91065Y485950D01*
X91101Y485916D01*
X91130Y485876D01*
X91190Y485833D01*
X91243Y485783D01*
X91288Y485763D01*
X91328Y485734D01*
X91399Y485713D01*
X91466Y485682D01*
X91515Y485677D01*
X91561Y485663D01*
X91635Y485665D01*
X91709Y485658D01*
X91756Y485669D01*
X91805Y485671D01*
X91945Y485713D01*
X91946Y485713D01*
X91947Y485714D01*
X93577Y486389D01*
X110769Y486389D01*
X115624Y484378D01*
X119340Y480662D01*
X121351Y475807D01*
X121351Y470553D01*
X119340Y465698D01*
X115624Y461982D01*
X110769Y459971D01*
X93577Y459971D01*
X91947Y460646D01*
X91899Y460658D01*
X91854Y460678D01*
X91781Y460685D01*
X91709Y460702D01*
X91660Y460697D01*
X91611Y460702D01*
X91540Y460685D01*
X91466Y460678D01*
X91422Y460658D01*
X91374Y460647D01*
X91311Y460608D01*
X91244Y460577D01*
X91208Y460544D01*
X91166Y460518D01*
X91120Y460461D01*
X91066Y460411D01*
X91043Y460367D01*
X91011Y460329D01*
X90985Y460261D01*
X90951Y460195D01*
X90943Y460147D01*
X90925Y460101D01*
X90911Y459956D01*
X90911Y459955D01*
X90911Y459954D01*
X90911Y400046D01*
X90919Y399997D01*
X90917Y399948D01*
X90938Y399878D01*
X90950Y399805D01*
X90974Y399762D01*
X90988Y399715D01*
X91031Y399655D01*
X91065Y399590D01*
X91101Y399556D01*
X91130Y399516D01*
X91190Y399473D01*
X91243Y399423D01*
X91288Y399403D01*
X91328Y399374D01*
X91399Y399353D01*
X91466Y399322D01*
X91515Y399317D01*
X91561Y399303D01*
X91635Y399305D01*
X91709Y399298D01*
X91756Y399309D01*
X91805Y399311D01*
X91945Y399353D01*
X91946Y399353D01*
X91947Y399354D01*
X93577Y400029D01*
X110769Y400029D01*
X115624Y398018D01*
X119340Y394302D01*
X121351Y389447D01*
X121351Y384193D01*
X119340Y379338D01*
X115624Y375622D01*
X110769Y373611D01*
X93577Y373611D01*
X91947Y374286D01*
X91899Y374298D01*
X91854Y374318D01*
X91829Y374320D01*
X91810Y374327D01*
X91742Y374334D01*
X91709Y374342D01*
X91687Y374340D01*
X91664Y374342D01*
X91660Y374342D01*
X91641Y374339D01*
X91611Y374342D01*
X91540Y374325D01*
X91466Y374318D01*
X91439Y374305D01*
X91419Y374302D01*
X91402Y374293D01*
X91374Y374287D01*
X91311Y374248D01*
X91244Y374217D01*
X91222Y374197D01*
X91204Y374187D01*
X91191Y374173D01*
X91166Y374158D01*
X91120Y374101D01*
X91066Y374051D01*
X91052Y374025D01*
X91037Y374009D01*
X91029Y373990D01*
X91011Y373969D01*
X90985Y373901D01*
X90951Y373835D01*
X90946Y373809D01*
X90936Y373787D01*
X90934Y373765D01*
X90925Y373741D01*
X90911Y373596D01*
X90911Y373595D01*
X90911Y373594D01*
X90911Y346406D01*
X90919Y346357D01*
X90917Y346308D01*
X90938Y346238D01*
X90950Y346165D01*
X90974Y346122D01*
X90988Y346075D01*
X91031Y346015D01*
X91065Y345950D01*
X91101Y345916D01*
X91130Y345876D01*
X91190Y345833D01*
X91243Y345783D01*
X91288Y345763D01*
X91328Y345734D01*
X91399Y345713D01*
X91466Y345682D01*
X91515Y345677D01*
X91561Y345663D01*
X91635Y345665D01*
X91709Y345658D01*
X91756Y345669D01*
X91805Y345671D01*
X91945Y345713D01*
X91946Y345713D01*
X91947Y345714D01*
X93577Y346389D01*
X110769Y346389D01*
X115624Y344378D01*
X119340Y340662D01*
X121351Y335807D01*
X121351Y330553D01*
X119340Y325698D01*
X115624Y321982D01*
X110769Y319971D01*
X93577Y319971D01*
X91947Y320646D01*
X91899Y320658D01*
X91854Y320678D01*
X91781Y320685D01*
X91709Y320702D01*
X91660Y320697D01*
X91611Y320702D01*
X91540Y320685D01*
X91466Y320678D01*
X91422Y320658D01*
X91374Y320647D01*
X91311Y320608D01*
X91244Y320577D01*
X91208Y320544D01*
X91166Y320518D01*
X91120Y320461D01*
X91066Y320411D01*
X91043Y320367D01*
X91011Y320329D01*
X90985Y320261D01*
X90951Y320195D01*
X90943Y320147D01*
X90925Y320101D01*
X90911Y319956D01*
X90911Y319955D01*
X90911Y319954D01*
X90911Y260046D01*
X90919Y259997D01*
X90917Y259948D01*
X90938Y259878D01*
X90950Y259805D01*
X90974Y259762D01*
X90988Y259715D01*
X91031Y259655D01*
X91065Y259590D01*
X91101Y259556D01*
X91130Y259516D01*
X91190Y259473D01*
X91243Y259423D01*
X91288Y259403D01*
X91328Y259374D01*
X91399Y259353D01*
X91466Y259322D01*
X91515Y259317D01*
X91561Y259303D01*
X91635Y259305D01*
X91709Y259298D01*
X91756Y259309D01*
X91805Y259311D01*
X91945Y259353D01*
X91946Y259353D01*
X91947Y259354D01*
X93577Y260029D01*
X110769Y260029D01*
X115624Y258018D01*
X119340Y254302D01*
X121351Y249447D01*
X121351Y244193D01*
X119340Y239338D01*
X115624Y235622D01*
X110769Y233611D01*
X93577Y233611D01*
X91947Y234286D01*
X91899Y234298D01*
X91854Y234318D01*
X91781Y234325D01*
X91709Y234342D01*
X91660Y234337D01*
X91611Y234342D01*
X91540Y234325D01*
X91466Y234318D01*
X91422Y234298D01*
X91374Y234287D01*
X91311Y234248D01*
X91244Y234217D01*
X91208Y234184D01*
X91166Y234158D01*
X91120Y234101D01*
X91066Y234051D01*
X91043Y234007D01*
X91011Y233969D01*
X90985Y233901D01*
X90951Y233835D01*
X90943Y233787D01*
X90925Y233741D01*
X90911Y233596D01*
X90911Y233595D01*
X90911Y233594D01*
X90911Y106778D01*
X90923Y106705D01*
X90925Y106632D01*
X90942Y106586D01*
X90950Y106537D01*
X90985Y106472D01*
X91011Y106404D01*
X91042Y106365D01*
X91065Y106322D01*
X91119Y106272D01*
X91166Y106215D01*
X91207Y106189D01*
X91243Y106155D01*
X91310Y106125D01*
X91373Y106086D01*
X91421Y106075D01*
X91466Y106054D01*
X91539Y106047D01*
X91610Y106030D01*
X91659Y106035D01*
X91709Y106030D01*
X91780Y106047D01*
X91853Y106054D01*
X91898Y106074D01*
X91946Y106085D01*
X92009Y106124D01*
X92076Y106154D01*
X92132Y106201D01*
X92154Y106214D01*
X92164Y106227D01*
X92190Y106248D01*
X94963Y109022D01*
X104874Y114071D01*
X115860Y115811D01*
X126846Y114071D01*
X136757Y109022D01*
X144622Y101157D01*
X149671Y91246D01*
X151411Y80260D01*
X149671Y69274D01*
X144622Y59363D01*
X142448Y57190D01*
X142405Y57130D01*
X142355Y57076D01*
X142335Y57032D01*
X142306Y56991D01*
X142285Y56921D01*
X142254Y56854D01*
X142249Y56805D01*
X142235Y56758D01*
X142237Y56685D01*
X142230Y56611D01*
X142241Y56563D01*
X142243Y56514D01*
X142269Y56445D01*
X142285Y56374D01*
X142311Y56332D01*
X142329Y56286D01*
X142375Y56229D01*
X142414Y56166D01*
X142452Y56135D01*
X142483Y56097D01*
X142546Y56058D01*
X142603Y56011D01*
X142649Y55994D01*
X142691Y55968D01*
X142762Y55951D01*
X142831Y55925D01*
X142904Y55918D01*
X142928Y55912D01*
X142945Y55914D01*
X142978Y55911D01*
X285814Y55911D01*
X285886Y55923D01*
G37*
%LPC*%
G36*
X135741Y233611D02*
X135741Y233611D01*
X130886Y235622D01*
X127170Y239338D01*
X125159Y244193D01*
X125159Y249447D01*
X127170Y254302D01*
X128030Y255162D01*
X128044Y255182D01*
X128063Y255197D01*
X128115Y255280D01*
X128172Y255360D01*
X128179Y255384D01*
X128192Y255405D01*
X128215Y255500D01*
X128243Y255594D01*
X128242Y255618D01*
X128248Y255642D01*
X128238Y255740D01*
X128235Y255838D01*
X128227Y255861D01*
X128224Y255885D01*
X128184Y255974D01*
X128149Y256066D01*
X128134Y256085D01*
X128124Y256107D01*
X128030Y256222D01*
X124274Y259978D01*
X124194Y260035D01*
X124119Y260097D01*
X124096Y260105D01*
X124075Y260120D01*
X123982Y260148D01*
X123891Y260183D01*
X123858Y260186D01*
X123842Y260191D01*
X123817Y260190D01*
X123744Y260197D01*
X123011Y260197D01*
X120197Y263011D01*
X120197Y266989D01*
X123011Y269803D01*
X126989Y269803D01*
X129803Y266989D01*
X129803Y266256D01*
X129819Y266160D01*
X129828Y266063D01*
X129838Y266040D01*
X129842Y266015D01*
X129888Y265929D01*
X129929Y265840D01*
X129950Y265815D01*
X129957Y265800D01*
X129976Y265783D01*
X130022Y265726D01*
X133464Y262284D01*
X133544Y262227D01*
X133619Y262165D01*
X133642Y262157D01*
X133663Y262142D01*
X133756Y262114D01*
X133847Y262079D01*
X133880Y262076D01*
X133896Y262071D01*
X133921Y262072D01*
X133994Y262065D01*
X140043Y262065D01*
X140067Y262069D01*
X140092Y262066D01*
X140187Y262088D01*
X140284Y262104D01*
X140305Y262116D01*
X140329Y262122D01*
X140413Y262173D01*
X140499Y262219D01*
X140516Y262237D01*
X140537Y262250D01*
X140599Y262326D01*
X140666Y262397D01*
X140676Y262420D01*
X140692Y262439D01*
X140726Y262530D01*
X140767Y262620D01*
X140769Y262644D01*
X140778Y262667D01*
X140792Y262814D01*
X140792Y269863D01*
X140808Y269913D01*
X140807Y269938D01*
X140812Y269963D01*
X140803Y270060D01*
X140800Y270157D01*
X140792Y270177D01*
X140792Y274810D01*
X140820Y274901D01*
X140819Y274926D01*
X140825Y274950D01*
X140816Y275048D01*
X140812Y275145D01*
X140804Y275169D01*
X140801Y275193D01*
X140792Y275213D01*
X140792Y279811D01*
X140820Y279901D01*
X140819Y279926D01*
X140824Y279950D01*
X140815Y280048D01*
X140812Y280145D01*
X140803Y280169D01*
X140801Y280193D01*
X140792Y280212D01*
X140792Y284810D01*
X140820Y284901D01*
X140819Y284926D01*
X140825Y284950D01*
X140816Y285048D01*
X140812Y285145D01*
X140804Y285169D01*
X140801Y285193D01*
X140792Y285213D01*
X140792Y289811D01*
X140820Y289902D01*
X140819Y289927D01*
X140825Y289951D01*
X140815Y290048D01*
X140812Y290146D01*
X140803Y290169D01*
X140801Y290194D01*
X140792Y290213D01*
X140792Y294811D01*
X140820Y294901D01*
X140819Y294926D01*
X140824Y294950D01*
X140815Y295048D01*
X140812Y295145D01*
X140803Y295169D01*
X140801Y295193D01*
X140792Y295212D01*
X140792Y299810D01*
X140820Y299901D01*
X140819Y299926D01*
X140825Y299950D01*
X140816Y300048D01*
X140812Y300145D01*
X140804Y300169D01*
X140801Y300193D01*
X140792Y300213D01*
X140792Y304811D01*
X140820Y304901D01*
X140819Y304926D01*
X140824Y304950D01*
X140815Y305048D01*
X140812Y305145D01*
X140803Y305169D01*
X140801Y305193D01*
X140792Y305212D01*
X140792Y309837D01*
X140808Y309889D01*
X140807Y309914D01*
X140813Y309939D01*
X140804Y310036D01*
X140800Y310133D01*
X140792Y310155D01*
X140792Y317186D01*
X140788Y317210D01*
X140791Y317235D01*
X140769Y317330D01*
X140753Y317427D01*
X140741Y317448D01*
X140735Y317472D01*
X140684Y317556D01*
X140638Y317642D01*
X140620Y317659D01*
X140607Y317680D01*
X140531Y317742D01*
X140460Y317809D01*
X140437Y317819D01*
X140418Y317835D01*
X140327Y317869D01*
X140237Y317910D01*
X140213Y317912D01*
X140190Y317921D01*
X140043Y317935D01*
X133994Y317935D01*
X133898Y317919D01*
X133801Y317910D01*
X133778Y317900D01*
X133753Y317896D01*
X133667Y317850D01*
X133578Y317809D01*
X133553Y317788D01*
X133538Y317781D01*
X133521Y317762D01*
X133464Y317716D01*
X130022Y314274D01*
X129965Y314194D01*
X129903Y314119D01*
X129895Y314096D01*
X129880Y314075D01*
X129852Y313982D01*
X129817Y313891D01*
X129814Y313858D01*
X129809Y313842D01*
X129810Y313817D01*
X129803Y313744D01*
X129803Y313011D01*
X126989Y310197D01*
X123011Y310197D01*
X120197Y313011D01*
X120197Y316989D01*
X123011Y319803D01*
X123744Y319803D01*
X123840Y319819D01*
X123937Y319828D01*
X123960Y319838D01*
X123985Y319842D01*
X124071Y319888D01*
X124160Y319929D01*
X124185Y319950D01*
X124200Y319957D01*
X124217Y319976D01*
X124274Y320022D01*
X128030Y323778D01*
X128044Y323798D01*
X128063Y323814D01*
X128115Y323897D01*
X128172Y323977D01*
X128179Y324000D01*
X128192Y324021D01*
X128215Y324116D01*
X128243Y324210D01*
X128242Y324235D01*
X128248Y324259D01*
X128238Y324356D01*
X128235Y324454D01*
X128227Y324477D01*
X128224Y324501D01*
X128184Y324591D01*
X128149Y324683D01*
X128134Y324701D01*
X128124Y324724D01*
X128030Y324838D01*
X127170Y325698D01*
X125159Y330553D01*
X125159Y335807D01*
X127170Y340662D01*
X130886Y344378D01*
X135741Y346389D01*
X148869Y346389D01*
X153724Y344378D01*
X157440Y340662D01*
X159451Y335807D01*
X159451Y330553D01*
X157440Y325698D01*
X155491Y323749D01*
X155434Y323670D01*
X155372Y323595D01*
X155364Y323571D01*
X155349Y323551D01*
X155321Y323458D01*
X155286Y323366D01*
X155283Y323333D01*
X155278Y323317D01*
X155279Y323293D01*
X155272Y323219D01*
X155272Y318814D01*
X155276Y318790D01*
X155273Y318765D01*
X155295Y318670D01*
X155311Y318573D01*
X155323Y318552D01*
X155329Y318528D01*
X155380Y318444D01*
X155426Y318358D01*
X155444Y318341D01*
X155457Y318320D01*
X155533Y318258D01*
X155604Y318191D01*
X155627Y318181D01*
X155646Y318165D01*
X155737Y318131D01*
X155827Y318090D01*
X155851Y318088D01*
X155874Y318079D01*
X156021Y318065D01*
X162006Y318065D01*
X162102Y318081D01*
X162199Y318090D01*
X162222Y318100D01*
X162247Y318104D01*
X162333Y318150D01*
X162422Y318191D01*
X162447Y318212D01*
X162462Y318219D01*
X162479Y318238D01*
X162536Y318284D01*
X165716Y321464D01*
X165773Y321544D01*
X165835Y321619D01*
X165843Y321642D01*
X165858Y321663D01*
X165886Y321756D01*
X165921Y321847D01*
X165924Y321880D01*
X165929Y321896D01*
X165928Y321921D01*
X165935Y321994D01*
X165935Y398006D01*
X165919Y398102D01*
X165910Y398199D01*
X165900Y398222D01*
X165896Y398247D01*
X165850Y398333D01*
X165809Y398422D01*
X165788Y398447D01*
X165781Y398462D01*
X165762Y398479D01*
X165716Y398536D01*
X162536Y401716D01*
X162456Y401773D01*
X162381Y401835D01*
X162358Y401843D01*
X162337Y401858D01*
X162244Y401886D01*
X162153Y401921D01*
X162120Y401924D01*
X162104Y401929D01*
X162079Y401928D01*
X162006Y401935D01*
X156021Y401935D01*
X155997Y401931D01*
X155972Y401934D01*
X155877Y401912D01*
X155780Y401896D01*
X155759Y401884D01*
X155735Y401878D01*
X155651Y401827D01*
X155565Y401781D01*
X155548Y401763D01*
X155527Y401750D01*
X155465Y401674D01*
X155398Y401603D01*
X155388Y401580D01*
X155372Y401561D01*
X155338Y401470D01*
X155297Y401380D01*
X155295Y401356D01*
X155286Y401333D01*
X155272Y401186D01*
X155272Y396781D01*
X155273Y396771D01*
X155273Y396770D01*
X155288Y396684D01*
X155297Y396587D01*
X155307Y396565D01*
X155311Y396540D01*
X155357Y396454D01*
X155398Y396365D01*
X155419Y396339D01*
X155426Y396325D01*
X155445Y396308D01*
X155491Y396251D01*
X157440Y394302D01*
X159451Y389447D01*
X159451Y384193D01*
X157440Y379338D01*
X153724Y375622D01*
X148869Y373611D01*
X135741Y373611D01*
X130886Y375622D01*
X127170Y379338D01*
X125159Y384193D01*
X125159Y389447D01*
X127170Y394302D01*
X130530Y397662D01*
X130544Y397682D01*
X130563Y397697D01*
X130615Y397781D01*
X130672Y397860D01*
X130679Y397884D01*
X130692Y397905D01*
X130715Y398000D01*
X130743Y398094D01*
X130742Y398118D01*
X130748Y398142D01*
X130738Y398240D01*
X130735Y398338D01*
X130727Y398361D01*
X130724Y398385D01*
X130684Y398474D01*
X130649Y398566D01*
X130634Y398585D01*
X130624Y398607D01*
X130530Y398722D01*
X129274Y399978D01*
X129195Y400035D01*
X129119Y400097D01*
X129096Y400105D01*
X129075Y400120D01*
X128982Y400148D01*
X128891Y400183D01*
X128858Y400186D01*
X128842Y400191D01*
X128817Y400190D01*
X128744Y400197D01*
X128011Y400197D01*
X125197Y403011D01*
X125197Y406989D01*
X128011Y409803D01*
X131989Y409803D01*
X134803Y406989D01*
X134803Y406256D01*
X134819Y406160D01*
X134828Y406063D01*
X134838Y406040D01*
X134842Y406015D01*
X134888Y405929D01*
X134929Y405840D01*
X134950Y405815D01*
X134957Y405800D01*
X134976Y405783D01*
X135022Y405726D01*
X138464Y402284D01*
X138544Y402227D01*
X138619Y402165D01*
X138642Y402157D01*
X138663Y402142D01*
X138756Y402114D01*
X138847Y402079D01*
X138880Y402076D01*
X138896Y402071D01*
X138921Y402072D01*
X138994Y402065D01*
X140043Y402065D01*
X140067Y402069D01*
X140092Y402066D01*
X140187Y402088D01*
X140284Y402104D01*
X140305Y402116D01*
X140329Y402122D01*
X140413Y402173D01*
X140499Y402219D01*
X140516Y402237D01*
X140537Y402250D01*
X140599Y402326D01*
X140666Y402397D01*
X140676Y402420D01*
X140692Y402439D01*
X140726Y402530D01*
X140767Y402620D01*
X140769Y402644D01*
X140778Y402667D01*
X140792Y402814D01*
X140792Y409863D01*
X140808Y409913D01*
X140807Y409938D01*
X140812Y409963D01*
X140803Y410060D01*
X140800Y410157D01*
X140792Y410177D01*
X140792Y414810D01*
X140820Y414901D01*
X140819Y414926D01*
X140825Y414950D01*
X140816Y415048D01*
X140812Y415145D01*
X140804Y415169D01*
X140801Y415193D01*
X140792Y415213D01*
X140792Y419811D01*
X140820Y419901D01*
X140819Y419926D01*
X140824Y419950D01*
X140815Y420047D01*
X140812Y420145D01*
X140803Y420169D01*
X140801Y420193D01*
X140792Y420212D01*
X140792Y424810D01*
X140820Y424901D01*
X140819Y424926D01*
X140825Y424950D01*
X140816Y425048D01*
X140812Y425145D01*
X140804Y425169D01*
X140801Y425193D01*
X140792Y425213D01*
X140792Y429811D01*
X140820Y429902D01*
X140819Y429927D01*
X140825Y429951D01*
X140815Y430048D01*
X140812Y430146D01*
X140803Y430169D01*
X140801Y430194D01*
X140792Y430213D01*
X140792Y434811D01*
X140820Y434901D01*
X140819Y434926D01*
X140824Y434950D01*
X140815Y435048D01*
X140812Y435145D01*
X140803Y435169D01*
X140801Y435193D01*
X140792Y435212D01*
X140792Y439810D01*
X140820Y439901D01*
X140819Y439926D01*
X140825Y439950D01*
X140816Y440048D01*
X140812Y440145D01*
X140804Y440169D01*
X140801Y440193D01*
X140792Y440213D01*
X140792Y444811D01*
X140820Y444901D01*
X140819Y444926D01*
X140824Y444950D01*
X140815Y445048D01*
X140812Y445145D01*
X140803Y445169D01*
X140801Y445193D01*
X140792Y445212D01*
X140792Y449837D01*
X140808Y449889D01*
X140807Y449914D01*
X140813Y449939D01*
X140804Y450036D01*
X140800Y450133D01*
X140792Y450155D01*
X140792Y457186D01*
X140788Y457210D01*
X140791Y457235D01*
X140769Y457330D01*
X140753Y457427D01*
X140741Y457448D01*
X140735Y457472D01*
X140684Y457556D01*
X140638Y457642D01*
X140620Y457659D01*
X140607Y457680D01*
X140531Y457742D01*
X140460Y457809D01*
X140437Y457819D01*
X140418Y457835D01*
X140327Y457869D01*
X140237Y457910D01*
X140213Y457912D01*
X140190Y457921D01*
X140043Y457935D01*
X138994Y457935D01*
X138898Y457919D01*
X138801Y457910D01*
X138778Y457900D01*
X138753Y457896D01*
X138667Y457850D01*
X138578Y457809D01*
X138553Y457788D01*
X138538Y457781D01*
X138521Y457762D01*
X138464Y457716D01*
X135022Y454274D01*
X134976Y454209D01*
X134948Y454179D01*
X134942Y454166D01*
X134903Y454119D01*
X134895Y454096D01*
X134880Y454075D01*
X134852Y453982D01*
X134817Y453891D01*
X134814Y453858D01*
X134809Y453842D01*
X134810Y453817D01*
X134803Y453744D01*
X134803Y453011D01*
X131989Y450197D01*
X128011Y450197D01*
X125197Y453011D01*
X125197Y456989D01*
X128011Y459803D01*
X128744Y459803D01*
X128840Y459819D01*
X128937Y459828D01*
X128960Y459838D01*
X128985Y459842D01*
X129071Y459889D01*
X129160Y459929D01*
X129185Y459950D01*
X129200Y459957D01*
X129217Y459976D01*
X129274Y460022D01*
X130530Y461278D01*
X130544Y461298D01*
X130563Y461314D01*
X130615Y461397D01*
X130672Y461477D01*
X130679Y461500D01*
X130692Y461521D01*
X130715Y461616D01*
X130743Y461710D01*
X130742Y461735D01*
X130748Y461759D01*
X130738Y461856D01*
X130735Y461954D01*
X130727Y461977D01*
X130724Y462001D01*
X130684Y462091D01*
X130649Y462183D01*
X130634Y462202D01*
X130624Y462224D01*
X130530Y462338D01*
X127170Y465698D01*
X125159Y470553D01*
X125159Y475807D01*
X127170Y480662D01*
X130886Y484378D01*
X135741Y486389D01*
X148869Y486389D01*
X153724Y484378D01*
X157440Y480662D01*
X159451Y475807D01*
X159451Y470553D01*
X157440Y465698D01*
X155491Y463749D01*
X155434Y463670D01*
X155372Y463595D01*
X155364Y463571D01*
X155349Y463551D01*
X155321Y463458D01*
X155286Y463366D01*
X155283Y463333D01*
X155278Y463317D01*
X155279Y463292D01*
X155272Y463219D01*
X155272Y458814D01*
X155276Y458790D01*
X155273Y458765D01*
X155296Y458670D01*
X155311Y458573D01*
X155323Y458552D01*
X155329Y458528D01*
X155380Y458444D01*
X155426Y458358D01*
X155444Y458341D01*
X155457Y458320D01*
X155533Y458258D01*
X155604Y458191D01*
X155627Y458181D01*
X155646Y458165D01*
X155737Y458131D01*
X155827Y458090D01*
X155851Y458088D01*
X155874Y458079D01*
X156021Y458065D01*
X162006Y458065D01*
X162102Y458081D01*
X162199Y458090D01*
X162222Y458100D01*
X162247Y458104D01*
X162333Y458150D01*
X162422Y458191D01*
X162447Y458212D01*
X162462Y458219D01*
X162479Y458238D01*
X162536Y458284D01*
X165716Y461464D01*
X168536Y464284D01*
X298316Y594065D01*
X734010Y594065D01*
X734106Y594081D01*
X734204Y594090D01*
X734226Y594100D01*
X734251Y594104D01*
X734337Y594151D01*
X734426Y594191D01*
X734444Y594208D01*
X734466Y594219D01*
X734533Y594291D01*
X734604Y594358D01*
X734616Y594379D01*
X734633Y594397D01*
X734673Y594486D01*
X734719Y594573D01*
X734723Y594597D01*
X734734Y594620D01*
X734743Y594717D01*
X734759Y594813D01*
X734755Y594838D01*
X734758Y594863D01*
X734735Y594958D01*
X734720Y595054D01*
X734708Y595076D01*
X734702Y595100D01*
X734651Y595183D01*
X734605Y595270D01*
X734587Y595286D01*
X734574Y595308D01*
X734498Y595370D01*
X734427Y595437D01*
X734398Y595452D01*
X734385Y595462D01*
X734362Y595471D01*
X734297Y595506D01*
X729338Y597560D01*
X725622Y601276D01*
X723611Y606131D01*
X723611Y619259D01*
X725622Y624114D01*
X729338Y627830D01*
X734193Y629841D01*
X739447Y629841D01*
X744302Y627830D01*
X747662Y624470D01*
X747682Y624456D01*
X747697Y624437D01*
X747781Y624385D01*
X747860Y624328D01*
X747884Y624321D01*
X747905Y624308D01*
X748000Y624285D01*
X748094Y624257D01*
X748118Y624258D01*
X748142Y624252D01*
X748240Y624262D01*
X748338Y624265D01*
X748361Y624273D01*
X748385Y624276D01*
X748474Y624316D01*
X748566Y624351D01*
X748585Y624366D01*
X748607Y624376D01*
X748722Y624470D01*
X749978Y625726D01*
X750035Y625805D01*
X750097Y625881D01*
X750105Y625904D01*
X750120Y625925D01*
X750148Y626018D01*
X750183Y626109D01*
X750186Y626142D01*
X750191Y626158D01*
X750190Y626183D01*
X750197Y626256D01*
X750197Y626989D01*
X753011Y629803D01*
X756989Y629803D01*
X759803Y626989D01*
X759803Y623011D01*
X756989Y620197D01*
X756256Y620197D01*
X756160Y620181D01*
X756063Y620172D01*
X756040Y620162D01*
X756015Y620158D01*
X755929Y620112D01*
X755840Y620071D01*
X755815Y620050D01*
X755800Y620043D01*
X755783Y620024D01*
X755726Y619978D01*
X752284Y616536D01*
X752227Y616456D01*
X752165Y616381D01*
X752157Y616358D01*
X752142Y616337D01*
X752114Y616244D01*
X752079Y616153D01*
X752076Y616120D01*
X752071Y616104D01*
X752072Y616079D01*
X752065Y616006D01*
X752065Y614957D01*
X752069Y614933D01*
X752066Y614908D01*
X752088Y614813D01*
X752104Y614716D01*
X752116Y614695D01*
X752122Y614671D01*
X752173Y614587D01*
X752219Y614501D01*
X752237Y614484D01*
X752250Y614463D01*
X752326Y614401D01*
X752397Y614334D01*
X752420Y614324D01*
X752439Y614308D01*
X752530Y614274D01*
X752620Y614233D01*
X752644Y614231D01*
X752667Y614222D01*
X752814Y614208D01*
X759863Y614208D01*
X759913Y614192D01*
X759938Y614193D01*
X759963Y614188D01*
X760060Y614197D01*
X760157Y614200D01*
X760177Y614208D01*
X764810Y614208D01*
X764901Y614180D01*
X764926Y614181D01*
X764950Y614175D01*
X765048Y614184D01*
X765145Y614188D01*
X765169Y614196D01*
X765193Y614199D01*
X765213Y614208D01*
X769811Y614208D01*
X769901Y614180D01*
X769926Y614181D01*
X769950Y614176D01*
X770048Y614185D01*
X770145Y614188D01*
X770169Y614197D01*
X770193Y614199D01*
X770212Y614208D01*
X774810Y614208D01*
X774901Y614180D01*
X774926Y614181D01*
X774950Y614175D01*
X775048Y614184D01*
X775145Y614188D01*
X775169Y614196D01*
X775193Y614199D01*
X775213Y614208D01*
X779811Y614208D01*
X779902Y614180D01*
X779927Y614181D01*
X779951Y614175D01*
X780048Y614185D01*
X780146Y614188D01*
X780169Y614197D01*
X780194Y614199D01*
X780213Y614208D01*
X784811Y614208D01*
X784901Y614180D01*
X784926Y614181D01*
X784950Y614176D01*
X785048Y614185D01*
X785145Y614188D01*
X785169Y614197D01*
X785193Y614199D01*
X785212Y614208D01*
X789810Y614208D01*
X789901Y614180D01*
X789926Y614181D01*
X789950Y614175D01*
X790048Y614184D01*
X790145Y614188D01*
X790169Y614196D01*
X790193Y614199D01*
X790213Y614208D01*
X794811Y614208D01*
X794901Y614180D01*
X794926Y614181D01*
X794950Y614176D01*
X795048Y614185D01*
X795145Y614188D01*
X795169Y614197D01*
X795193Y614199D01*
X795212Y614208D01*
X799837Y614208D01*
X799889Y614192D01*
X799914Y614193D01*
X799939Y614187D01*
X800036Y614196D01*
X800133Y614200D01*
X800155Y614208D01*
X807186Y614208D01*
X807210Y614212D01*
X807235Y614209D01*
X807330Y614231D01*
X807427Y614247D01*
X807448Y614259D01*
X807472Y614265D01*
X807556Y614316D01*
X807642Y614362D01*
X807659Y614380D01*
X807680Y614393D01*
X807742Y614469D01*
X807809Y614540D01*
X807819Y614563D01*
X807835Y614582D01*
X807869Y614673D01*
X807910Y614763D01*
X807912Y614787D01*
X807921Y614810D01*
X807935Y614957D01*
X807935Y616006D01*
X807919Y616102D01*
X807910Y616199D01*
X807900Y616222D01*
X807896Y616247D01*
X807850Y616333D01*
X807809Y616422D01*
X807788Y616447D01*
X807781Y616462D01*
X807762Y616479D01*
X807716Y616536D01*
X804274Y619978D01*
X804194Y620035D01*
X804119Y620097D01*
X804096Y620105D01*
X804075Y620120D01*
X803982Y620148D01*
X803891Y620183D01*
X803858Y620186D01*
X803842Y620191D01*
X803817Y620190D01*
X803744Y620197D01*
X803011Y620197D01*
X800197Y623011D01*
X800197Y626989D01*
X803011Y629803D01*
X806989Y629803D01*
X809803Y626989D01*
X809803Y626256D01*
X809819Y626160D01*
X809828Y626063D01*
X809838Y626040D01*
X809842Y626015D01*
X809889Y625929D01*
X809929Y625840D01*
X809950Y625815D01*
X809957Y625800D01*
X809976Y625783D01*
X810022Y625726D01*
X811278Y624470D01*
X811298Y624456D01*
X811314Y624437D01*
X811397Y624385D01*
X811477Y624328D01*
X811500Y624321D01*
X811521Y624308D01*
X811616Y624285D01*
X811710Y624257D01*
X811735Y624258D01*
X811759Y624252D01*
X811856Y624262D01*
X811954Y624265D01*
X811977Y624273D01*
X812001Y624276D01*
X812091Y624316D01*
X812183Y624351D01*
X812202Y624366D01*
X812224Y624376D01*
X812338Y624470D01*
X815698Y627830D01*
X820553Y629841D01*
X825807Y629841D01*
X830662Y627830D01*
X834378Y624114D01*
X836389Y619259D01*
X836389Y606131D01*
X834378Y601276D01*
X830662Y597560D01*
X825807Y595549D01*
X820553Y595549D01*
X815698Y597560D01*
X813749Y599509D01*
X813670Y599566D01*
X813595Y599628D01*
X813571Y599636D01*
X813551Y599651D01*
X813458Y599679D01*
X813366Y599714D01*
X813333Y599717D01*
X813317Y599722D01*
X813292Y599721D01*
X813219Y599728D01*
X808814Y599728D01*
X808790Y599724D01*
X808765Y599727D01*
X808670Y599705D01*
X808573Y599689D01*
X808552Y599677D01*
X808528Y599671D01*
X808444Y599620D01*
X808358Y599574D01*
X808341Y599556D01*
X808320Y599543D01*
X808258Y599467D01*
X808191Y599396D01*
X808181Y599373D01*
X808165Y599354D01*
X808131Y599263D01*
X808090Y599173D01*
X808088Y599149D01*
X808079Y599126D01*
X808065Y598979D01*
X808065Y502994D01*
X808081Y502898D01*
X808090Y502801D01*
X808100Y502778D01*
X808104Y502753D01*
X808150Y502667D01*
X808191Y502578D01*
X808212Y502553D01*
X808219Y502538D01*
X808238Y502521D01*
X808284Y502464D01*
X867834Y442914D01*
X867914Y442857D01*
X867989Y442795D01*
X868012Y442787D01*
X868033Y442772D01*
X868126Y442744D01*
X868217Y442709D01*
X868250Y442706D01*
X868266Y442701D01*
X868291Y442702D01*
X868364Y442695D01*
X1036304Y442695D01*
X1036328Y442699D01*
X1036353Y442696D01*
X1036448Y442718D01*
X1036545Y442734D01*
X1036566Y442746D01*
X1036590Y442752D01*
X1036674Y442803D01*
X1036760Y442849D01*
X1036777Y442867D01*
X1036798Y442880D01*
X1036860Y442956D01*
X1036927Y443027D01*
X1036937Y443050D01*
X1036953Y443069D01*
X1036987Y443160D01*
X1037028Y443250D01*
X1037030Y443274D01*
X1037039Y443297D01*
X1037053Y443444D01*
X1037053Y509427D01*
X1038393Y510767D01*
X1063607Y510767D01*
X1064156Y510217D01*
X1064176Y510203D01*
X1064192Y510184D01*
X1064275Y510132D01*
X1064355Y510075D01*
X1064378Y510068D01*
X1064399Y510055D01*
X1064494Y510033D01*
X1064588Y510004D01*
X1064613Y510005D01*
X1064637Y510000D01*
X1064734Y510009D01*
X1064832Y510012D01*
X1064855Y510021D01*
X1064880Y510023D01*
X1064969Y510064D01*
X1065061Y510098D01*
X1065080Y510114D01*
X1065102Y510124D01*
X1065216Y510217D01*
X1065544Y510546D01*
X1066123Y510546D01*
X1066147Y510550D01*
X1066172Y510547D01*
X1066267Y510569D01*
X1066364Y510585D01*
X1066385Y510597D01*
X1066409Y510603D01*
X1066493Y510654D01*
X1066579Y510700D01*
X1066596Y510718D01*
X1066617Y510731D01*
X1066679Y510807D01*
X1066746Y510878D01*
X1066756Y510901D01*
X1066772Y510920D01*
X1066806Y511011D01*
X1066847Y511101D01*
X1066849Y511125D01*
X1066858Y511148D01*
X1066872Y511295D01*
X1066872Y520905D01*
X1066868Y520929D01*
X1066871Y520954D01*
X1066849Y521049D01*
X1066833Y521146D01*
X1066821Y521167D01*
X1066816Y521191D01*
X1066764Y521275D01*
X1066718Y521361D01*
X1066700Y521378D01*
X1066687Y521399D01*
X1066611Y521461D01*
X1066540Y521528D01*
X1066517Y521538D01*
X1066498Y521554D01*
X1066407Y521588D01*
X1066317Y521629D01*
X1066293Y521631D01*
X1066270Y521640D01*
X1066123Y521654D01*
X1065544Y521654D01*
X1064942Y522257D01*
X1064922Y522271D01*
X1064907Y522290D01*
X1064823Y522342D01*
X1064744Y522399D01*
X1064720Y522406D01*
X1064700Y522419D01*
X1064604Y522441D01*
X1064510Y522470D01*
X1064486Y522469D01*
X1064462Y522474D01*
X1064364Y522465D01*
X1064266Y522462D01*
X1064243Y522453D01*
X1064219Y522451D01*
X1064130Y522410D01*
X1064038Y522376D01*
X1064019Y522360D01*
X1063997Y522350D01*
X1063882Y522257D01*
X1063154Y521528D01*
X1042246Y521528D01*
X1041278Y522496D01*
X1041278Y529734D01*
X1041305Y529766D01*
X1041313Y529790D01*
X1041328Y529810D01*
X1041356Y529903D01*
X1041391Y529995D01*
X1041394Y530027D01*
X1041399Y530043D01*
X1041398Y530068D01*
X1041405Y530141D01*
X1041405Y534732D01*
X1042298Y535625D01*
X1046102Y535625D01*
X1046995Y534732D01*
X1046995Y531421D01*
X1046999Y531397D01*
X1046996Y531372D01*
X1047018Y531277D01*
X1047034Y531180D01*
X1047046Y531159D01*
X1047052Y531135D01*
X1047103Y531051D01*
X1047149Y530965D01*
X1047167Y530948D01*
X1047180Y530927D01*
X1047256Y530865D01*
X1047327Y530798D01*
X1047350Y530788D01*
X1047369Y530772D01*
X1047460Y530738D01*
X1047550Y530697D01*
X1047574Y530695D01*
X1047597Y530686D01*
X1047744Y530672D01*
X1049156Y530672D01*
X1049180Y530676D01*
X1049205Y530673D01*
X1049300Y530695D01*
X1049397Y530711D01*
X1049418Y530723D01*
X1049442Y530729D01*
X1049526Y530780D01*
X1049612Y530826D01*
X1049629Y530844D01*
X1049650Y530857D01*
X1049712Y530933D01*
X1049779Y531004D01*
X1049789Y531027D01*
X1049805Y531046D01*
X1049839Y531137D01*
X1049880Y531227D01*
X1049882Y531251D01*
X1049891Y531274D01*
X1049905Y531421D01*
X1049905Y534732D01*
X1050798Y535625D01*
X1054602Y535625D01*
X1055495Y534732D01*
X1055495Y531421D01*
X1055499Y531397D01*
X1055496Y531372D01*
X1055518Y531277D01*
X1055534Y531180D01*
X1055546Y531159D01*
X1055552Y531135D01*
X1055603Y531051D01*
X1055649Y530965D01*
X1055667Y530948D01*
X1055680Y530927D01*
X1055756Y530865D01*
X1055827Y530798D01*
X1055850Y530788D01*
X1055869Y530772D01*
X1055960Y530738D01*
X1056050Y530697D01*
X1056074Y530695D01*
X1056097Y530686D01*
X1056244Y530672D01*
X1057656Y530672D01*
X1057680Y530676D01*
X1057705Y530673D01*
X1057800Y530695D01*
X1057897Y530711D01*
X1057918Y530723D01*
X1057942Y530729D01*
X1058026Y530780D01*
X1058112Y530826D01*
X1058129Y530844D01*
X1058150Y530857D01*
X1058212Y530933D01*
X1058279Y531004D01*
X1058289Y531027D01*
X1058305Y531046D01*
X1058339Y531137D01*
X1058380Y531227D01*
X1058382Y531251D01*
X1058391Y531274D01*
X1058405Y531421D01*
X1058405Y534732D01*
X1059298Y535625D01*
X1062434Y535625D01*
X1062458Y535629D01*
X1062483Y535626D01*
X1062578Y535648D01*
X1062675Y535664D01*
X1062696Y535676D01*
X1062720Y535682D01*
X1062804Y535733D01*
X1062890Y535779D01*
X1062907Y535797D01*
X1062928Y535810D01*
X1062990Y535886D01*
X1063057Y535957D01*
X1063067Y535980D01*
X1063083Y535999D01*
X1063117Y536090D01*
X1063158Y536180D01*
X1063160Y536204D01*
X1063169Y536227D01*
X1063183Y536374D01*
X1063183Y540877D01*
X1063179Y540901D01*
X1063182Y540926D01*
X1063160Y541021D01*
X1063144Y541118D01*
X1063132Y541139D01*
X1063126Y541163D01*
X1063075Y541247D01*
X1063029Y541333D01*
X1063011Y541350D01*
X1062998Y541371D01*
X1062922Y541433D01*
X1062851Y541500D01*
X1062828Y541510D01*
X1062809Y541526D01*
X1062718Y541560D01*
X1062628Y541601D01*
X1062604Y541603D01*
X1062581Y541612D01*
X1062434Y541626D01*
X1058345Y541626D01*
X1057452Y542519D01*
X1057452Y550895D01*
X1058429Y551871D01*
X1058470Y551896D01*
X1058556Y551942D01*
X1058573Y551960D01*
X1058594Y551973D01*
X1058656Y552049D01*
X1058723Y552120D01*
X1058733Y552143D01*
X1058749Y552162D01*
X1058783Y552253D01*
X1058824Y552343D01*
X1058826Y552367D01*
X1058835Y552390D01*
X1058849Y552537D01*
X1058849Y555863D01*
X1058845Y555887D01*
X1058848Y555912D01*
X1058826Y556007D01*
X1058810Y556104D01*
X1058798Y556125D01*
X1058792Y556149D01*
X1058741Y556233D01*
X1058695Y556319D01*
X1058677Y556336D01*
X1058664Y556357D01*
X1058588Y556419D01*
X1058517Y556486D01*
X1058494Y556496D01*
X1058475Y556512D01*
X1058429Y556529D01*
X1057452Y557505D01*
X1057452Y565881D01*
X1058345Y566774D01*
X1069515Y566774D01*
X1069803Y566485D01*
X1069882Y566428D01*
X1069958Y566366D01*
X1069981Y566358D01*
X1070001Y566343D01*
X1070095Y566315D01*
X1070186Y566280D01*
X1070219Y566277D01*
X1070235Y566272D01*
X1070260Y566273D01*
X1070333Y566266D01*
X1079794Y566266D01*
X1085273Y560787D01*
X1085273Y559522D01*
X1085277Y559498D01*
X1085274Y559473D01*
X1085296Y559378D01*
X1085312Y559281D01*
X1085324Y559260D01*
X1085330Y559236D01*
X1085381Y559152D01*
X1085427Y559066D01*
X1085445Y559049D01*
X1085458Y559028D01*
X1085534Y558966D01*
X1085605Y558899D01*
X1085628Y558889D01*
X1085647Y558873D01*
X1085738Y558839D01*
X1085828Y558798D01*
X1085852Y558796D01*
X1085875Y558787D01*
X1086022Y558773D01*
X1087033Y558773D01*
X1087068Y558738D01*
X1087147Y558681D01*
X1087222Y558619D01*
X1087246Y558611D01*
X1087266Y558596D01*
X1087359Y558568D01*
X1087450Y558533D01*
X1087483Y558530D01*
X1087499Y558525D01*
X1087524Y558526D01*
X1087597Y558519D01*
X1089073Y558519D01*
X1090070Y557521D01*
X1090090Y557507D01*
X1090106Y557488D01*
X1090189Y557436D01*
X1090269Y557379D01*
X1090292Y557372D01*
X1090313Y557359D01*
X1090408Y557337D01*
X1090502Y557308D01*
X1090526Y557309D01*
X1090550Y557303D01*
X1090648Y557313D01*
X1090746Y557316D01*
X1090769Y557325D01*
X1090793Y557327D01*
X1090882Y557367D01*
X1090974Y557402D01*
X1090993Y557417D01*
X1091016Y557427D01*
X1091130Y557521D01*
X1092127Y558519D01*
X1099995Y558519D01*
X1100516Y557997D01*
X1100536Y557983D01*
X1100551Y557964D01*
X1100635Y557912D01*
X1100714Y557855D01*
X1100738Y557848D01*
X1100758Y557835D01*
X1100854Y557813D01*
X1100948Y557784D01*
X1100972Y557785D01*
X1100996Y557780D01*
X1101093Y557789D01*
X1101191Y557792D01*
X1101214Y557801D01*
X1101239Y557803D01*
X1101328Y557844D01*
X1101420Y557878D01*
X1101439Y557894D01*
X1101461Y557904D01*
X1101575Y557997D01*
X1102581Y559003D01*
X1106559Y559003D01*
X1109373Y556189D01*
X1109373Y552211D01*
X1106559Y549397D01*
X1102684Y549397D01*
X1102660Y549393D01*
X1102635Y549396D01*
X1102540Y549374D01*
X1102443Y549358D01*
X1102422Y549346D01*
X1102398Y549340D01*
X1102314Y549289D01*
X1102228Y549243D01*
X1102211Y549225D01*
X1102190Y549212D01*
X1102128Y549136D01*
X1102061Y549065D01*
X1102051Y549042D01*
X1102035Y549023D01*
X1102001Y548932D01*
X1101960Y548842D01*
X1101958Y548818D01*
X1101949Y548795D01*
X1101935Y548648D01*
X1101935Y547774D01*
X1101939Y547750D01*
X1101936Y547725D01*
X1101958Y547630D01*
X1101974Y547533D01*
X1101986Y547512D01*
X1101992Y547488D01*
X1102043Y547404D01*
X1102089Y547318D01*
X1102107Y547301D01*
X1102120Y547280D01*
X1102196Y547218D01*
X1102267Y547151D01*
X1102290Y547141D01*
X1102309Y547125D01*
X1102400Y547091D01*
X1102490Y547050D01*
X1102514Y547048D01*
X1102537Y547039D01*
X1102684Y547025D01*
X1102788Y547025D01*
X1103681Y546132D01*
X1103681Y536868D01*
X1103456Y536644D01*
X1103413Y536584D01*
X1103363Y536530D01*
X1103343Y536486D01*
X1103314Y536445D01*
X1103293Y536375D01*
X1103262Y536308D01*
X1103257Y536259D01*
X1103243Y536212D01*
X1103245Y536139D01*
X1103238Y536065D01*
X1103249Y536017D01*
X1103251Y535968D01*
X1103277Y535899D01*
X1103293Y535828D01*
X1103319Y535786D01*
X1103337Y535740D01*
X1103383Y535683D01*
X1103422Y535620D01*
X1103460Y535589D01*
X1103491Y535551D01*
X1103554Y535512D01*
X1103611Y535465D01*
X1103657Y535448D01*
X1103699Y535422D01*
X1103770Y535405D01*
X1103839Y535379D01*
X1103912Y535372D01*
X1103936Y535366D01*
X1103953Y535368D01*
X1103970Y535366D01*
X1104948Y534388D01*
X1104973Y534347D01*
X1105019Y534261D01*
X1105037Y534244D01*
X1105050Y534223D01*
X1105126Y534161D01*
X1105197Y534094D01*
X1105220Y534084D01*
X1105239Y534068D01*
X1105330Y534034D01*
X1105420Y533993D01*
X1105444Y533991D01*
X1105467Y533982D01*
X1105614Y533968D01*
X1106066Y533968D01*
X1106090Y533972D01*
X1106115Y533969D01*
X1106210Y533991D01*
X1106307Y534007D01*
X1106328Y534019D01*
X1106352Y534025D01*
X1106436Y534076D01*
X1106522Y534122D01*
X1106539Y534140D01*
X1106560Y534153D01*
X1106622Y534229D01*
X1106689Y534300D01*
X1106699Y534323D01*
X1106715Y534342D01*
X1106732Y534388D01*
X1107186Y534842D01*
X1107200Y534862D01*
X1107219Y534878D01*
X1107271Y534961D01*
X1107328Y535041D01*
X1107335Y535064D01*
X1107348Y535085D01*
X1107371Y535180D01*
X1107399Y535274D01*
X1107398Y535299D01*
X1107404Y535322D01*
X1107394Y535420D01*
X1107391Y535518D01*
X1107383Y535541D01*
X1107380Y535565D01*
X1107340Y535655D01*
X1107305Y535746D01*
X1107290Y535765D01*
X1107280Y535788D01*
X1107186Y535902D01*
X1106117Y536971D01*
X1106117Y540949D01*
X1108931Y543763D01*
X1112909Y543763D01*
X1115723Y540949D01*
X1115723Y536971D01*
X1115102Y536350D01*
X1115088Y536330D01*
X1115069Y536314D01*
X1115017Y536231D01*
X1114960Y536152D01*
X1114953Y536128D01*
X1114940Y536107D01*
X1114917Y536012D01*
X1114889Y535918D01*
X1114890Y535894D01*
X1114884Y535870D01*
X1114894Y535772D01*
X1114897Y535674D01*
X1114905Y535651D01*
X1114908Y535627D01*
X1114948Y535537D01*
X1114983Y535446D01*
X1114998Y535427D01*
X1115008Y535405D01*
X1115102Y535290D01*
X1115921Y534472D01*
X1115921Y529296D01*
X1115925Y529272D01*
X1115922Y529247D01*
X1115944Y529152D01*
X1115960Y529055D01*
X1115972Y529034D01*
X1115978Y529010D01*
X1116029Y528926D01*
X1116075Y528840D01*
X1116093Y528823D01*
X1116106Y528802D01*
X1116182Y528740D01*
X1116253Y528673D01*
X1116276Y528663D01*
X1116295Y528647D01*
X1116386Y528613D01*
X1116476Y528572D01*
X1116500Y528570D01*
X1116523Y528561D01*
X1116670Y528547D01*
X1124567Y528547D01*
X1125911Y527203D01*
X1125930Y527120D01*
X1125946Y527023D01*
X1125958Y527002D01*
X1125964Y526978D01*
X1126015Y526894D01*
X1126061Y526808D01*
X1126079Y526791D01*
X1126092Y526770D01*
X1126168Y526708D01*
X1126239Y526641D01*
X1126262Y526631D01*
X1126281Y526615D01*
X1126372Y526581D01*
X1126462Y526540D01*
X1126486Y526538D01*
X1126509Y526529D01*
X1126656Y526515D01*
X1129738Y526515D01*
X1129834Y526531D01*
X1129931Y526540D01*
X1129954Y526550D01*
X1129978Y526554D01*
X1130064Y526600D01*
X1130153Y526641D01*
X1130179Y526662D01*
X1130194Y526669D01*
X1130211Y526688D01*
X1130267Y526734D01*
X1130775Y527242D01*
X1136906Y533373D01*
X1136963Y533452D01*
X1137025Y533527D01*
X1137033Y533551D01*
X1137048Y533571D01*
X1137076Y533664D01*
X1137111Y533755D01*
X1137114Y533788D01*
X1137119Y533804D01*
X1137118Y533829D01*
X1137125Y533902D01*
X1137125Y586828D01*
X1137109Y586924D01*
X1137100Y587021D01*
X1137090Y587044D01*
X1137086Y587069D01*
X1137040Y587155D01*
X1136999Y587243D01*
X1136978Y587269D01*
X1136971Y587284D01*
X1136952Y587301D01*
X1136906Y587358D01*
X1108724Y615539D01*
X1107525Y618434D01*
X1107525Y624476D01*
X1107521Y624500D01*
X1107524Y624525D01*
X1107502Y624620D01*
X1107486Y624717D01*
X1107474Y624738D01*
X1107468Y624762D01*
X1107417Y624846D01*
X1107371Y624932D01*
X1107353Y624949D01*
X1107340Y624970D01*
X1107264Y625032D01*
X1107193Y625099D01*
X1107170Y625109D01*
X1107151Y625125D01*
X1107060Y625159D01*
X1106970Y625200D01*
X1106946Y625202D01*
X1106923Y625211D01*
X1106776Y625225D01*
X1106518Y625225D01*
X1105625Y626118D01*
X1105625Y643882D01*
X1106518Y644775D01*
X1124282Y644775D01*
X1125175Y643882D01*
X1125175Y626118D01*
X1124282Y625225D01*
X1124024Y625225D01*
X1124000Y625221D01*
X1123975Y625224D01*
X1123880Y625202D01*
X1123783Y625186D01*
X1123762Y625174D01*
X1123738Y625168D01*
X1123654Y625117D01*
X1123568Y625071D01*
X1123551Y625053D01*
X1123530Y625040D01*
X1123468Y624964D01*
X1123401Y624893D01*
X1123391Y624870D01*
X1123375Y624851D01*
X1123341Y624760D01*
X1123300Y624670D01*
X1123298Y624646D01*
X1123289Y624623D01*
X1123275Y624476D01*
X1123275Y623572D01*
X1123291Y623476D01*
X1123300Y623379D01*
X1123310Y623356D01*
X1123314Y623331D01*
X1123360Y623245D01*
X1123401Y623157D01*
X1123422Y623131D01*
X1123429Y623116D01*
X1123448Y623099D01*
X1123494Y623042D01*
X1151676Y594861D01*
X1152875Y591966D01*
X1152875Y423572D01*
X1152891Y423476D01*
X1152900Y423379D01*
X1152910Y423356D01*
X1152914Y423331D01*
X1152960Y423245D01*
X1153001Y423157D01*
X1153022Y423131D01*
X1153029Y423116D01*
X1153048Y423099D01*
X1153094Y423042D01*
X1168108Y408028D01*
X1168188Y407971D01*
X1168263Y407909D01*
X1168286Y407901D01*
X1168307Y407886D01*
X1168400Y407858D01*
X1168491Y407823D01*
X1168524Y407820D01*
X1168540Y407815D01*
X1168565Y407816D01*
X1168638Y407809D01*
X1177621Y407809D01*
X1177693Y407821D01*
X1177766Y407823D01*
X1177837Y407844D01*
X1177862Y407848D01*
X1177876Y407856D01*
X1177908Y407866D01*
X1178383Y408063D01*
X1181617Y408063D01*
X1184605Y406825D01*
X1186891Y404539D01*
X1188129Y401551D01*
X1188129Y398317D01*
X1186891Y395329D01*
X1184605Y393043D01*
X1181617Y391805D01*
X1178383Y391805D01*
X1177908Y392002D01*
X1177836Y392019D01*
X1177768Y392045D01*
X1177694Y392052D01*
X1177670Y392058D01*
X1177654Y392056D01*
X1177621Y392059D01*
X1163500Y392059D01*
X1160605Y393258D01*
X1138324Y415539D01*
X1137125Y418434D01*
X1137125Y501098D01*
X1137109Y501194D01*
X1137100Y501291D01*
X1137090Y501314D01*
X1137086Y501338D01*
X1137040Y501424D01*
X1136999Y501513D01*
X1136978Y501539D01*
X1136971Y501554D01*
X1136952Y501571D01*
X1136906Y501627D01*
X1132267Y506266D01*
X1132188Y506323D01*
X1132113Y506385D01*
X1132089Y506393D01*
X1132069Y506408D01*
X1131976Y506436D01*
X1131885Y506471D01*
X1131852Y506474D01*
X1131836Y506479D01*
X1131811Y506478D01*
X1131738Y506485D01*
X1126656Y506485D01*
X1126632Y506481D01*
X1126607Y506484D01*
X1126512Y506462D01*
X1126415Y506446D01*
X1126394Y506434D01*
X1126370Y506428D01*
X1126286Y506377D01*
X1126200Y506331D01*
X1126183Y506313D01*
X1126162Y506300D01*
X1126100Y506224D01*
X1126033Y506153D01*
X1126023Y506130D01*
X1126007Y506111D01*
X1125973Y506020D01*
X1125932Y505930D01*
X1125930Y505906D01*
X1125921Y505883D01*
X1125907Y505736D01*
X1125907Y497373D01*
X1124844Y496310D01*
X1124829Y496290D01*
X1124811Y496274D01*
X1124759Y496191D01*
X1124702Y496111D01*
X1124694Y496088D01*
X1124682Y496067D01*
X1124659Y495972D01*
X1124631Y495878D01*
X1124631Y495854D01*
X1124626Y495830D01*
X1124635Y495732D01*
X1124639Y495634D01*
X1124647Y495611D01*
X1124650Y495587D01*
X1124690Y495498D01*
X1124724Y495406D01*
X1124740Y495387D01*
X1124750Y495364D01*
X1124844Y495250D01*
X1125907Y494187D01*
X1125907Y449113D01*
X1124844Y448050D01*
X1124829Y448030D01*
X1124810Y448014D01*
X1124759Y447931D01*
X1124702Y447851D01*
X1124694Y447828D01*
X1124682Y447807D01*
X1124659Y447712D01*
X1124631Y447618D01*
X1124631Y447593D01*
X1124626Y447570D01*
X1124635Y447472D01*
X1124639Y447374D01*
X1124647Y447351D01*
X1124650Y447327D01*
X1124690Y447237D01*
X1124724Y447146D01*
X1124740Y447127D01*
X1124750Y447104D01*
X1124844Y446990D01*
X1125907Y445927D01*
X1125907Y423713D01*
X1124567Y422373D01*
X1050283Y422373D01*
X1048724Y423932D01*
X1046438Y426218D01*
X1046359Y426275D01*
X1046284Y426337D01*
X1046260Y426345D01*
X1046240Y426360D01*
X1046147Y426388D01*
X1046055Y426423D01*
X1046022Y426426D01*
X1046006Y426431D01*
X1045982Y426430D01*
X1045908Y426437D01*
X988214Y426437D01*
X988118Y426421D01*
X988021Y426412D01*
X987998Y426402D01*
X987974Y426398D01*
X987888Y426352D01*
X987799Y426311D01*
X987773Y426290D01*
X987758Y426283D01*
X987741Y426264D01*
X987685Y426218D01*
X929792Y368325D01*
X929735Y368246D01*
X929673Y368171D01*
X929665Y368147D01*
X929650Y368127D01*
X929622Y368034D01*
X929587Y367943D01*
X929584Y367910D01*
X929579Y367894D01*
X929580Y367869D01*
X929573Y367796D01*
X929573Y318106D01*
X871894Y260427D01*
X868106Y260427D01*
X865427Y263106D01*
X865427Y266894D01*
X920208Y321675D01*
X920265Y321754D01*
X920327Y321829D01*
X920335Y321853D01*
X920350Y321873D01*
X920378Y321966D01*
X920413Y322057D01*
X920416Y322090D01*
X920421Y322106D01*
X920420Y322131D01*
X920427Y322204D01*
X920427Y371894D01*
X981218Y432685D01*
X981819Y433286D01*
X981862Y433346D01*
X981912Y433400D01*
X981933Y433444D01*
X981962Y433485D01*
X981983Y433555D01*
X982013Y433622D01*
X982018Y433671D01*
X982032Y433718D01*
X982030Y433791D01*
X982037Y433865D01*
X982026Y433913D01*
X982025Y433962D01*
X981999Y434031D01*
X981982Y434102D01*
X981956Y434144D01*
X981939Y434190D01*
X981892Y434247D01*
X981853Y434310D01*
X981815Y434341D01*
X981784Y434379D01*
X981722Y434418D01*
X981665Y434465D01*
X981619Y434482D01*
X981577Y434508D01*
X981505Y434525D01*
X981437Y434551D01*
X981363Y434558D01*
X981339Y434564D01*
X981323Y434562D01*
X981290Y434565D01*
X864686Y434565D01*
X799935Y499316D01*
X799935Y583006D01*
X799919Y583102D01*
X799910Y583199D01*
X799900Y583222D01*
X799896Y583247D01*
X799850Y583333D01*
X799809Y583422D01*
X799788Y583447D01*
X799781Y583462D01*
X799762Y583479D01*
X799716Y583536D01*
X797536Y585716D01*
X797456Y585773D01*
X797381Y585835D01*
X797358Y585843D01*
X797337Y585858D01*
X797244Y585886D01*
X797153Y585921D01*
X797120Y585924D01*
X797104Y585929D01*
X797079Y585928D01*
X797006Y585935D01*
X301994Y585935D01*
X301898Y585919D01*
X301801Y585910D01*
X301778Y585900D01*
X301753Y585896D01*
X301667Y585850D01*
X301578Y585809D01*
X301553Y585788D01*
X301538Y585781D01*
X301521Y585762D01*
X301464Y585716D01*
X174284Y458536D01*
X174227Y458456D01*
X174165Y458381D01*
X174157Y458358D01*
X174142Y458337D01*
X174114Y458244D01*
X174079Y458153D01*
X174076Y458120D01*
X174071Y458104D01*
X174072Y458079D01*
X174065Y458006D01*
X174065Y268316D01*
X167684Y261935D01*
X156021Y261935D01*
X155997Y261931D01*
X155972Y261934D01*
X155877Y261912D01*
X155780Y261896D01*
X155759Y261884D01*
X155735Y261878D01*
X155651Y261827D01*
X155565Y261781D01*
X155548Y261763D01*
X155527Y261750D01*
X155465Y261674D01*
X155398Y261603D01*
X155388Y261580D01*
X155372Y261561D01*
X155338Y261470D01*
X155297Y261380D01*
X155295Y261356D01*
X155286Y261333D01*
X155272Y261186D01*
X155272Y256781D01*
X155288Y256684D01*
X155297Y256587D01*
X155307Y256565D01*
X155311Y256540D01*
X155357Y256454D01*
X155398Y256365D01*
X155419Y256339D01*
X155426Y256325D01*
X155445Y256308D01*
X155491Y256251D01*
X157440Y254302D01*
X159451Y249447D01*
X159451Y244193D01*
X157440Y239338D01*
X153724Y235622D01*
X148869Y233611D01*
X135741Y233611D01*
G37*
%LPD*%
%LPC*%
G36*
X318608Y73285D02*
X318608Y73285D01*
X314781Y74871D01*
X311851Y77801D01*
X310265Y81628D01*
X310265Y85772D01*
X311851Y89599D01*
X314781Y92529D01*
X315644Y92887D01*
X315645Y92887D01*
X315733Y92942D01*
X315852Y93016D01*
X315917Y93095D01*
X316007Y93204D01*
X316007Y93205D01*
X316057Y93337D01*
X316093Y93432D01*
X316093Y93433D01*
X316093Y93434D01*
X316107Y93579D01*
X316107Y97574D01*
X326768Y108235D01*
X326825Y108314D01*
X326887Y108389D01*
X326895Y108413D01*
X326910Y108433D01*
X326938Y108526D01*
X326973Y108617D01*
X326976Y108650D01*
X326981Y108666D01*
X326980Y108691D01*
X326987Y108764D01*
X326987Y254431D01*
X326966Y254560D01*
X326948Y254671D01*
X326886Y254787D01*
X326833Y254886D01*
X326833Y254887D01*
X326763Y254952D01*
X326655Y255053D01*
X326654Y255054D01*
X326525Y255123D01*
X325661Y255481D01*
X322731Y258411D01*
X321145Y262238D01*
X321145Y266382D01*
X322731Y270209D01*
X325661Y273139D01*
X326524Y273497D01*
X326525Y273497D01*
X326613Y273552D01*
X326732Y273626D01*
X326807Y273717D01*
X326887Y273814D01*
X326887Y273815D01*
X326935Y273942D01*
X326973Y274042D01*
X326973Y274043D01*
X326973Y274044D01*
X326987Y274189D01*
X326987Y343454D01*
X329885Y346352D01*
X379878Y396345D01*
X379935Y396424D01*
X379997Y396499D01*
X380005Y396523D01*
X380020Y396543D01*
X380048Y396636D01*
X380083Y396727D01*
X380086Y396760D01*
X380091Y396776D01*
X380090Y396801D01*
X380097Y396874D01*
X380097Y402466D01*
X380081Y402562D01*
X380072Y402659D01*
X380062Y402682D01*
X380058Y402706D01*
X380012Y402792D01*
X379971Y402881D01*
X379950Y402907D01*
X379943Y402922D01*
X379924Y402939D01*
X379878Y402995D01*
X334652Y448221D01*
X334542Y448300D01*
X334455Y448363D01*
X334454Y448363D01*
X334343Y448397D01*
X334221Y448434D01*
X334096Y448430D01*
X333977Y448426D01*
X333976Y448426D01*
X333836Y448383D01*
X332972Y448025D01*
X328828Y448025D01*
X325001Y449611D01*
X322071Y452541D01*
X320485Y456368D01*
X320485Y460512D01*
X322071Y464339D01*
X325001Y467269D01*
X328828Y468855D01*
X332972Y468855D01*
X336799Y467269D01*
X339729Y464339D01*
X341315Y460512D01*
X341315Y456368D01*
X340957Y455504D01*
X340947Y455464D01*
X340943Y455455D01*
X340942Y455441D01*
X340924Y455362D01*
X340901Y455267D01*
X340914Y455135D01*
X340925Y455024D01*
X340980Y454904D01*
X341026Y454802D01*
X341026Y454801D01*
X341119Y454688D01*
X386345Y409462D01*
X386424Y409405D01*
X386499Y409343D01*
X386523Y409335D01*
X386543Y409320D01*
X386636Y409292D01*
X386727Y409257D01*
X386760Y409254D01*
X386776Y409249D01*
X386801Y409250D01*
X386874Y409243D01*
X392466Y409243D01*
X392562Y409259D01*
X392659Y409268D01*
X392682Y409278D01*
X392706Y409282D01*
X392792Y409328D01*
X392881Y409369D01*
X392907Y409390D01*
X392922Y409397D01*
X392939Y409416D01*
X392995Y409462D01*
X433106Y449573D01*
X586894Y449573D01*
X601293Y435174D01*
X601293Y421879D01*
X601319Y421722D01*
X601332Y421639D01*
X601332Y421638D01*
X601404Y421505D01*
X601447Y421424D01*
X601447Y421423D01*
X601539Y421338D01*
X601625Y421257D01*
X601625Y421256D01*
X601626Y421256D01*
X601755Y421187D01*
X602907Y420710D01*
X605980Y417637D01*
X607643Y413623D01*
X607643Y409277D01*
X605980Y405263D01*
X602907Y402190D01*
X598893Y400527D01*
X594547Y400527D01*
X590533Y402190D01*
X587460Y405263D01*
X585797Y409277D01*
X585797Y413623D01*
X587460Y417637D01*
X590533Y420710D01*
X591684Y421187D01*
X591685Y421187D01*
X591773Y421242D01*
X591892Y421315D01*
X591892Y421316D01*
X591953Y421390D01*
X592047Y421504D01*
X592096Y421636D01*
X592133Y421732D01*
X592133Y421733D01*
X592133Y421734D01*
X592147Y421879D01*
X592147Y431076D01*
X592131Y431172D01*
X592122Y431269D01*
X592112Y431292D01*
X592108Y431316D01*
X592062Y431402D01*
X592021Y431491D01*
X592000Y431517D01*
X591993Y431532D01*
X591974Y431549D01*
X591928Y431605D01*
X583325Y440208D01*
X583246Y440265D01*
X583171Y440327D01*
X583147Y440335D01*
X583127Y440350D01*
X583034Y440378D01*
X582943Y440413D01*
X582910Y440416D01*
X582894Y440421D01*
X582869Y440420D01*
X582796Y440427D01*
X437204Y440427D01*
X437108Y440411D01*
X437011Y440402D01*
X436988Y440392D01*
X436964Y440388D01*
X436878Y440342D01*
X436789Y440301D01*
X436763Y440280D01*
X436748Y440273D01*
X436731Y440254D01*
X436675Y440208D01*
X391675Y395208D01*
X389792Y393325D01*
X386675Y390208D01*
X336352Y339885D01*
X336295Y339806D01*
X336233Y339731D01*
X336225Y339707D01*
X336210Y339687D01*
X336182Y339594D01*
X336147Y339503D01*
X336144Y339470D01*
X336139Y339454D01*
X336140Y339429D01*
X336133Y339356D01*
X336133Y274189D01*
X336159Y274032D01*
X336172Y273949D01*
X336239Y273824D01*
X336287Y273734D01*
X336287Y273733D01*
X336376Y273650D01*
X336465Y273567D01*
X336466Y273566D01*
X336595Y273497D01*
X337459Y273139D01*
X340389Y270209D01*
X341975Y266382D01*
X341975Y262238D01*
X340389Y258411D01*
X337459Y255481D01*
X336596Y255123D01*
X336595Y255123D01*
X336507Y255068D01*
X336388Y254994D01*
X336300Y254887D01*
X336233Y254806D01*
X336233Y254805D01*
X336183Y254671D01*
X336147Y254578D01*
X336147Y254577D01*
X336147Y254576D01*
X336133Y254431D01*
X336133Y125644D01*
X336149Y125548D01*
X336158Y125451D01*
X336168Y125428D01*
X336172Y125404D01*
X336218Y125318D01*
X336259Y125229D01*
X336280Y125203D01*
X336287Y125188D01*
X336306Y125171D01*
X336352Y125115D01*
X341675Y119792D01*
X341754Y119735D01*
X341829Y119673D01*
X341853Y119665D01*
X341873Y119650D01*
X341966Y119622D01*
X342057Y119587D01*
X342090Y119584D01*
X342106Y119579D01*
X342131Y119580D01*
X342204Y119573D01*
X651606Y119573D01*
X651702Y119589D01*
X651799Y119598D01*
X651822Y119608D01*
X651846Y119612D01*
X651932Y119658D01*
X652021Y119699D01*
X652047Y119720D01*
X652062Y119727D01*
X652079Y119746D01*
X652135Y119792D01*
X683149Y150805D01*
X683223Y150909D01*
X683291Y151003D01*
X683291Y151004D01*
X683314Y151080D01*
X683362Y151237D01*
X683358Y151351D01*
X683354Y151481D01*
X683353Y151482D01*
X683311Y151622D01*
X683279Y151699D01*
X683279Y155289D01*
X684653Y158606D01*
X687192Y161145D01*
X690509Y162519D01*
X694099Y162519D01*
X697416Y161145D01*
X699955Y158606D01*
X701329Y155289D01*
X701329Y151699D01*
X699955Y148382D01*
X697416Y145843D01*
X694099Y144469D01*
X690509Y144469D01*
X690433Y144501D01*
X690432Y144501D01*
X690330Y144525D01*
X690195Y144556D01*
X690194Y144557D01*
X690068Y144544D01*
X689952Y144533D01*
X689824Y144475D01*
X689730Y144432D01*
X689729Y144432D01*
X689729Y144431D01*
X689615Y144339D01*
X658602Y113325D01*
X655704Y110427D01*
X342204Y110427D01*
X342108Y110411D01*
X342011Y110402D01*
X341988Y110392D01*
X341964Y110388D01*
X341878Y110342D01*
X341789Y110301D01*
X341763Y110280D01*
X341748Y110273D01*
X341731Y110254D01*
X341675Y110208D01*
X334175Y102708D01*
X325546Y94079D01*
X325517Y94039D01*
X325481Y94005D01*
X325446Y93940D01*
X325403Y93880D01*
X325389Y93833D01*
X325366Y93790D01*
X325354Y93717D01*
X325333Y93647D01*
X325334Y93598D01*
X325326Y93549D01*
X325338Y93477D01*
X325340Y93403D01*
X325358Y93357D01*
X325366Y93309D01*
X325400Y93244D01*
X325426Y93175D01*
X325457Y93137D01*
X325480Y93093D01*
X325534Y93043D01*
X325581Y92986D01*
X325623Y92960D01*
X325658Y92926D01*
X325787Y92857D01*
X325788Y92857D01*
X325789Y92857D01*
X326579Y92529D01*
X329509Y89599D01*
X331095Y85772D01*
X331095Y81628D01*
X329509Y77801D01*
X326579Y74871D01*
X322752Y73285D01*
X318608Y73285D01*
G37*
%LPD*%
%LPC*%
G36*
X639709Y144469D02*
X639709Y144469D01*
X636392Y145843D01*
X633853Y148382D01*
X632479Y151699D01*
X632479Y155289D01*
X633853Y158606D01*
X635696Y160449D01*
X635753Y160528D01*
X635815Y160603D01*
X635823Y160627D01*
X635838Y160647D01*
X635866Y160740D01*
X635901Y160832D01*
X635904Y160865D01*
X635909Y160881D01*
X635908Y160905D01*
X635915Y160979D01*
X635915Y167616D01*
X636766Y169670D01*
X721834Y254738D01*
X723888Y255589D01*
X1062253Y255589D01*
X1062349Y255605D01*
X1062446Y255614D01*
X1062469Y255624D01*
X1062493Y255628D01*
X1062580Y255674D01*
X1062668Y255715D01*
X1062694Y255736D01*
X1062709Y255743D01*
X1062726Y255762D01*
X1062783Y255808D01*
X1174192Y367217D01*
X1174249Y367297D01*
X1174311Y367372D01*
X1174319Y367395D01*
X1174334Y367416D01*
X1174362Y367509D01*
X1174397Y367600D01*
X1174400Y367633D01*
X1174405Y367649D01*
X1174404Y367674D01*
X1174411Y367747D01*
X1174411Y373905D01*
X1174395Y374001D01*
X1174386Y374098D01*
X1174376Y374121D01*
X1174372Y374145D01*
X1174326Y374231D01*
X1174285Y374320D01*
X1174264Y374346D01*
X1174257Y374361D01*
X1174238Y374378D01*
X1174192Y374434D01*
X1173109Y375517D01*
X1171871Y378505D01*
X1171871Y381739D01*
X1173109Y384727D01*
X1175395Y387013D01*
X1178383Y388251D01*
X1181617Y388251D01*
X1184605Y387013D01*
X1186891Y384727D01*
X1188129Y381739D01*
X1188129Y378505D01*
X1186891Y375517D01*
X1185808Y374434D01*
X1185751Y374355D01*
X1185689Y374280D01*
X1185681Y374256D01*
X1185666Y374236D01*
X1185638Y374143D01*
X1185603Y374052D01*
X1185600Y374019D01*
X1185595Y374003D01*
X1185596Y373978D01*
X1185589Y373905D01*
X1185589Y368437D01*
X1185605Y368340D01*
X1185614Y368243D01*
X1185624Y368221D01*
X1185628Y368196D01*
X1185675Y368110D01*
X1185715Y368021D01*
X1185732Y368003D01*
X1185743Y367981D01*
X1185815Y367914D01*
X1185882Y367843D01*
X1185903Y367831D01*
X1185921Y367814D01*
X1186010Y367774D01*
X1186097Y367728D01*
X1186121Y367724D01*
X1186144Y367713D01*
X1186241Y367704D01*
X1186337Y367688D01*
X1186362Y367692D01*
X1186387Y367689D01*
X1186482Y367711D01*
X1186578Y367727D01*
X1186600Y367739D01*
X1186624Y367745D01*
X1186707Y367796D01*
X1186794Y367842D01*
X1186810Y367860D01*
X1186832Y367873D01*
X1186894Y367949D01*
X1186961Y368020D01*
X1186976Y368049D01*
X1186986Y368062D01*
X1186995Y368085D01*
X1187030Y368150D01*
X1188135Y370817D01*
X1191083Y373765D01*
X1194934Y375360D01*
X1199102Y375360D01*
X1202953Y373765D01*
X1205901Y370817D01*
X1207496Y366966D01*
X1207496Y362798D01*
X1205901Y358947D01*
X1202953Y355999D01*
X1199102Y354404D01*
X1194934Y354404D01*
X1191083Y355999D01*
X1188135Y358947D01*
X1186505Y362881D01*
X1186467Y362943D01*
X1186436Y363010D01*
X1186403Y363046D01*
X1186376Y363088D01*
X1186320Y363135D01*
X1186270Y363188D01*
X1186226Y363212D01*
X1186188Y363243D01*
X1186119Y363269D01*
X1186054Y363304D01*
X1186006Y363312D01*
X1185960Y363329D01*
X1185886Y363331D01*
X1185814Y363343D01*
X1185765Y363335D01*
X1185716Y363337D01*
X1185645Y363316D01*
X1185573Y363304D01*
X1185529Y363281D01*
X1185482Y363266D01*
X1185422Y363224D01*
X1185358Y363189D01*
X1185324Y363153D01*
X1185284Y363124D01*
X1185241Y363065D01*
X1185191Y363011D01*
X1185156Y362946D01*
X1185141Y362926D01*
X1185137Y362910D01*
X1185121Y362881D01*
X1184738Y361956D01*
X1068044Y245262D01*
X1065990Y244411D01*
X727625Y244411D01*
X727529Y244395D01*
X727432Y244386D01*
X727409Y244376D01*
X727385Y244372D01*
X727298Y244326D01*
X727210Y244285D01*
X727184Y244264D01*
X727169Y244257D01*
X727152Y244238D01*
X727095Y244192D01*
X647312Y164409D01*
X647255Y164329D01*
X647193Y164254D01*
X647185Y164231D01*
X647170Y164210D01*
X647142Y164117D01*
X647107Y164026D01*
X647104Y163993D01*
X647099Y163977D01*
X647100Y163952D01*
X647093Y163879D01*
X647093Y160979D01*
X647109Y160882D01*
X647118Y160785D01*
X647128Y160763D01*
X647132Y160738D01*
X647178Y160652D01*
X647219Y160563D01*
X647240Y160537D01*
X647247Y160523D01*
X647266Y160506D01*
X647312Y160449D01*
X649155Y158606D01*
X650529Y155289D01*
X650529Y151699D01*
X649155Y148382D01*
X646616Y145843D01*
X643299Y144469D01*
X639709Y144469D01*
G37*
%LPD*%
%LPC*%
G36*
X734193Y90159D02*
X734193Y90159D01*
X729338Y92170D01*
X725622Y95886D01*
X723611Y100741D01*
X723611Y113869D01*
X725622Y118724D01*
X729338Y122440D01*
X734193Y124451D01*
X739447Y124451D01*
X744302Y122440D01*
X746251Y120491D01*
X746330Y120434D01*
X746405Y120372D01*
X746429Y120364D01*
X746449Y120349D01*
X746542Y120321D01*
X746634Y120286D01*
X746667Y120283D01*
X746683Y120278D01*
X746707Y120279D01*
X746781Y120272D01*
X751186Y120272D01*
X751210Y120276D01*
X751235Y120273D01*
X751330Y120295D01*
X751427Y120311D01*
X751448Y120323D01*
X751472Y120329D01*
X751556Y120380D01*
X751642Y120426D01*
X751659Y120444D01*
X751680Y120457D01*
X751742Y120533D01*
X751809Y120604D01*
X751819Y120627D01*
X751835Y120646D01*
X751869Y120737D01*
X751910Y120827D01*
X751912Y120851D01*
X751921Y120874D01*
X751935Y121021D01*
X751935Y132684D01*
X758316Y139065D01*
X849616Y139065D01*
X849712Y139081D01*
X849809Y139090D01*
X849832Y139100D01*
X849857Y139104D01*
X849943Y139150D01*
X850032Y139191D01*
X850057Y139212D01*
X850072Y139219D01*
X850083Y139231D01*
X850085Y139232D01*
X850093Y139241D01*
X850146Y139284D01*
X861159Y150297D01*
X861233Y150401D01*
X861301Y150495D01*
X861301Y150496D01*
X861324Y150572D01*
X861372Y150729D01*
X861369Y150841D01*
X861364Y150973D01*
X861364Y150974D01*
X861322Y151114D01*
X861079Y151699D01*
X861079Y155289D01*
X862453Y158606D01*
X864992Y161145D01*
X865069Y161177D01*
X865169Y161239D01*
X865276Y161305D01*
X865354Y161400D01*
X865431Y161494D01*
X865477Y161617D01*
X865517Y161722D01*
X865517Y161723D01*
X865531Y161869D01*
X865531Y232720D01*
X865515Y232816D01*
X865506Y232913D01*
X865496Y232936D01*
X865492Y232961D01*
X865461Y233018D01*
X865461Y233020D01*
X865455Y233028D01*
X865447Y233043D01*
X865447Y236886D01*
X868114Y239553D01*
X871914Y239553D01*
X874677Y236790D01*
X874677Y161869D01*
X874701Y161722D01*
X874716Y161629D01*
X874716Y161628D01*
X874777Y161515D01*
X874831Y161413D01*
X874914Y161336D01*
X875009Y161246D01*
X875010Y161246D01*
X875139Y161177D01*
X875216Y161145D01*
X877755Y158606D01*
X879129Y155289D01*
X879129Y151699D01*
X877755Y148382D01*
X875216Y145843D01*
X871899Y144469D01*
X868309Y144469D01*
X867724Y144712D01*
X867596Y144741D01*
X867487Y144767D01*
X867486Y144767D01*
X867360Y144755D01*
X867244Y144743D01*
X867122Y144688D01*
X867022Y144643D01*
X867021Y144642D01*
X866907Y144549D01*
X855894Y133536D01*
X853294Y130935D01*
X811994Y130935D01*
X811898Y130919D01*
X811801Y130910D01*
X811778Y130900D01*
X811753Y130896D01*
X811667Y130850D01*
X811578Y130809D01*
X811553Y130788D01*
X811538Y130781D01*
X811521Y130762D01*
X811464Y130716D01*
X808284Y127536D01*
X808227Y127456D01*
X808165Y127381D01*
X808157Y127358D01*
X808142Y127337D01*
X808114Y127244D01*
X808079Y127153D01*
X808076Y127120D01*
X808071Y127104D01*
X808072Y127079D01*
X808065Y127006D01*
X808065Y121021D01*
X808069Y120997D01*
X808066Y120972D01*
X808088Y120877D01*
X808104Y120780D01*
X808116Y120759D01*
X808122Y120735D01*
X808173Y120651D01*
X808219Y120565D01*
X808237Y120548D01*
X808250Y120527D01*
X808326Y120465D01*
X808397Y120398D01*
X808420Y120388D01*
X808439Y120372D01*
X808530Y120338D01*
X808620Y120297D01*
X808644Y120295D01*
X808667Y120286D01*
X808814Y120272D01*
X813219Y120272D01*
X813316Y120288D01*
X813413Y120297D01*
X813435Y120307D01*
X813460Y120311D01*
X813546Y120357D01*
X813635Y120398D01*
X813661Y120419D01*
X813675Y120426D01*
X813692Y120445D01*
X813749Y120491D01*
X815698Y122440D01*
X820553Y124451D01*
X825807Y124451D01*
X830662Y122440D01*
X834378Y118724D01*
X836389Y113869D01*
X836389Y100741D01*
X834378Y95886D01*
X830662Y92170D01*
X825807Y90159D01*
X820553Y90159D01*
X815698Y92170D01*
X812338Y95530D01*
X812318Y95544D01*
X812303Y95563D01*
X812219Y95615D01*
X812140Y95672D01*
X812116Y95679D01*
X812095Y95692D01*
X812000Y95715D01*
X811906Y95743D01*
X811882Y95742D01*
X811858Y95748D01*
X811760Y95738D01*
X811662Y95735D01*
X811639Y95727D01*
X811615Y95724D01*
X811526Y95684D01*
X811434Y95649D01*
X811415Y95634D01*
X811393Y95624D01*
X811278Y95530D01*
X810022Y94274D01*
X809965Y94195D01*
X809903Y94119D01*
X809895Y94096D01*
X809880Y94075D01*
X809852Y93982D01*
X809817Y93891D01*
X809814Y93858D01*
X809809Y93842D01*
X809810Y93817D01*
X809803Y93744D01*
X809803Y93011D01*
X806989Y90197D01*
X803011Y90197D01*
X800197Y93011D01*
X800197Y96989D01*
X803011Y99803D01*
X803744Y99803D01*
X803840Y99819D01*
X803937Y99828D01*
X803960Y99838D01*
X803985Y99842D01*
X804071Y99888D01*
X804160Y99929D01*
X804185Y99950D01*
X804200Y99957D01*
X804217Y99976D01*
X804274Y100022D01*
X807716Y103464D01*
X807773Y103544D01*
X807835Y103619D01*
X807843Y103642D01*
X807858Y103663D01*
X807886Y103756D01*
X807921Y103847D01*
X807924Y103880D01*
X807929Y103896D01*
X807928Y103921D01*
X807935Y103994D01*
X807935Y105043D01*
X807931Y105067D01*
X807934Y105092D01*
X807912Y105187D01*
X807896Y105284D01*
X807884Y105305D01*
X807878Y105329D01*
X807827Y105413D01*
X807781Y105499D01*
X807763Y105516D01*
X807750Y105537D01*
X807674Y105599D01*
X807603Y105666D01*
X807580Y105676D01*
X807561Y105692D01*
X807470Y105726D01*
X807380Y105767D01*
X807356Y105769D01*
X807333Y105778D01*
X807186Y105792D01*
X800137Y105792D01*
X800087Y105808D01*
X800062Y105807D01*
X800037Y105812D01*
X799940Y105803D01*
X799843Y105800D01*
X799823Y105792D01*
X795190Y105792D01*
X795099Y105820D01*
X795074Y105819D01*
X795050Y105825D01*
X794952Y105816D01*
X794855Y105812D01*
X794831Y105804D01*
X794807Y105801D01*
X794787Y105792D01*
X790189Y105792D01*
X790099Y105820D01*
X790074Y105819D01*
X790050Y105824D01*
X789952Y105815D01*
X789855Y105812D01*
X789831Y105803D01*
X789807Y105801D01*
X789788Y105792D01*
X785190Y105792D01*
X785099Y105820D01*
X785074Y105819D01*
X785050Y105825D01*
X784952Y105816D01*
X784855Y105812D01*
X784831Y105804D01*
X784807Y105801D01*
X784787Y105792D01*
X780189Y105792D01*
X780098Y105820D01*
X780073Y105819D01*
X780049Y105825D01*
X779952Y105815D01*
X779854Y105812D01*
X779831Y105803D01*
X779806Y105801D01*
X779787Y105792D01*
X775189Y105792D01*
X775099Y105820D01*
X775074Y105819D01*
X775050Y105824D01*
X774952Y105815D01*
X774855Y105812D01*
X774831Y105803D01*
X774807Y105801D01*
X774788Y105792D01*
X770190Y105792D01*
X770099Y105820D01*
X770074Y105819D01*
X770050Y105825D01*
X769952Y105816D01*
X769855Y105812D01*
X769831Y105804D01*
X769807Y105801D01*
X769787Y105792D01*
X765189Y105792D01*
X765099Y105820D01*
X765074Y105819D01*
X765050Y105824D01*
X764952Y105815D01*
X764855Y105812D01*
X764831Y105803D01*
X764807Y105801D01*
X764788Y105792D01*
X760163Y105792D01*
X760111Y105808D01*
X760086Y105807D01*
X760061Y105813D01*
X759964Y105804D01*
X759867Y105800D01*
X759845Y105792D01*
X752814Y105792D01*
X752790Y105788D01*
X752765Y105791D01*
X752670Y105769D01*
X752573Y105753D01*
X752552Y105741D01*
X752528Y105735D01*
X752444Y105684D01*
X752358Y105638D01*
X752341Y105620D01*
X752320Y105607D01*
X752258Y105531D01*
X752191Y105460D01*
X752181Y105437D01*
X752165Y105418D01*
X752131Y105327D01*
X752090Y105237D01*
X752088Y105213D01*
X752079Y105190D01*
X752065Y105043D01*
X752065Y103994D01*
X752081Y103898D01*
X752090Y103801D01*
X752100Y103778D01*
X752104Y103753D01*
X752150Y103667D01*
X752191Y103578D01*
X752212Y103553D01*
X752219Y103538D01*
X752238Y103521D01*
X752284Y103464D01*
X755726Y100022D01*
X755806Y99965D01*
X755881Y99903D01*
X755904Y99895D01*
X755925Y99880D01*
X756018Y99852D01*
X756109Y99817D01*
X756142Y99814D01*
X756158Y99809D01*
X756183Y99810D01*
X756256Y99803D01*
X756989Y99803D01*
X759803Y96989D01*
X759803Y93011D01*
X756989Y90197D01*
X753011Y90197D01*
X750197Y93011D01*
X750197Y93744D01*
X750181Y93840D01*
X750172Y93937D01*
X750162Y93960D01*
X750158Y93985D01*
X750111Y94071D01*
X750071Y94160D01*
X750050Y94185D01*
X750043Y94200D01*
X750024Y94217D01*
X749978Y94274D01*
X748722Y95530D01*
X748702Y95544D01*
X748686Y95563D01*
X748603Y95615D01*
X748523Y95672D01*
X748500Y95679D01*
X748479Y95692D01*
X748384Y95715D01*
X748290Y95743D01*
X748265Y95742D01*
X748241Y95748D01*
X748144Y95738D01*
X748046Y95735D01*
X748023Y95727D01*
X747999Y95724D01*
X747909Y95684D01*
X747817Y95649D01*
X747798Y95634D01*
X747776Y95624D01*
X747662Y95530D01*
X744302Y92170D01*
X739447Y90159D01*
X734193Y90159D01*
G37*
%LPD*%
G36*
X1123640Y423902D02*
X1123640Y423902D01*
X1123659Y423900D01*
X1123761Y423922D01*
X1123863Y423939D01*
X1123880Y423948D01*
X1123900Y423952D01*
X1123989Y424005D01*
X1124080Y424054D01*
X1124094Y424068D01*
X1124111Y424078D01*
X1124178Y424157D01*
X1124250Y424232D01*
X1124258Y424250D01*
X1124271Y424265D01*
X1124310Y424361D01*
X1124353Y424455D01*
X1124355Y424475D01*
X1124363Y424493D01*
X1124381Y424660D01*
X1124381Y444980D01*
X1124378Y445000D01*
X1124380Y445019D01*
X1124358Y445121D01*
X1124342Y445223D01*
X1124332Y445240D01*
X1124328Y445260D01*
X1124275Y445349D01*
X1124226Y445440D01*
X1124212Y445454D01*
X1124202Y445471D01*
X1124123Y445538D01*
X1124048Y445610D01*
X1124030Y445618D01*
X1124015Y445631D01*
X1123919Y445670D01*
X1123825Y445713D01*
X1123805Y445715D01*
X1123787Y445723D01*
X1123620Y445741D01*
X1068055Y445741D01*
X1063421Y450375D01*
X1063421Y452601D01*
X1063418Y452621D01*
X1063420Y452640D01*
X1063398Y452742D01*
X1063382Y452844D01*
X1063372Y452861D01*
X1063368Y452881D01*
X1063315Y452970D01*
X1063266Y453061D01*
X1063252Y453075D01*
X1063242Y453092D01*
X1063163Y453159D01*
X1063088Y453231D01*
X1063070Y453239D01*
X1063055Y453252D01*
X1062959Y453291D01*
X1062865Y453334D01*
X1062845Y453336D01*
X1062827Y453344D01*
X1062660Y453362D01*
X1059920Y453362D01*
X1059877Y453355D01*
X1059833Y453357D01*
X1059756Y453335D01*
X1059678Y453323D01*
X1059639Y453302D01*
X1059597Y453290D01*
X1059531Y453245D01*
X1059460Y453207D01*
X1059430Y453176D01*
X1059394Y453151D01*
X1059346Y453087D01*
X1059291Y453029D01*
X1059272Y452989D01*
X1059246Y452954D01*
X1059193Y452818D01*
X1059187Y452806D01*
X1059187Y452803D01*
X1059185Y452798D01*
X1059108Y452509D01*
X1058773Y451930D01*
X1058300Y451457D01*
X1057721Y451122D01*
X1057074Y450949D01*
X1053985Y450949D01*
X1053985Y460728D01*
X1053982Y460748D01*
X1053984Y460767D01*
X1053962Y460869D01*
X1053945Y460971D01*
X1053936Y460988D01*
X1053932Y461008D01*
X1053879Y461097D01*
X1053830Y461188D01*
X1053816Y461202D01*
X1053806Y461219D01*
X1053727Y461286D01*
X1053652Y461357D01*
X1053634Y461366D01*
X1053619Y461379D01*
X1053523Y461418D01*
X1053429Y461461D01*
X1053409Y461463D01*
X1053391Y461471D01*
X1053224Y461489D01*
X1052461Y461489D01*
X1052461Y461491D01*
X1053224Y461491D01*
X1053244Y461494D01*
X1053263Y461492D01*
X1053365Y461514D01*
X1053467Y461531D01*
X1053484Y461540D01*
X1053504Y461544D01*
X1053593Y461597D01*
X1053684Y461646D01*
X1053698Y461660D01*
X1053715Y461670D01*
X1053782Y461749D01*
X1053853Y461824D01*
X1053862Y461842D01*
X1053875Y461857D01*
X1053914Y461953D01*
X1053957Y462047D01*
X1053959Y462067D01*
X1053967Y462085D01*
X1053985Y462252D01*
X1053985Y472031D01*
X1057074Y472031D01*
X1057721Y471858D01*
X1058300Y471523D01*
X1058773Y471050D01*
X1059108Y470471D01*
X1059185Y470182D01*
X1059203Y470142D01*
X1059212Y470099D01*
X1059253Y470031D01*
X1059286Y469958D01*
X1059316Y469926D01*
X1059338Y469888D01*
X1059399Y469836D01*
X1059454Y469778D01*
X1059492Y469757D01*
X1059525Y469728D01*
X1059600Y469698D01*
X1059670Y469660D01*
X1059713Y469653D01*
X1059754Y469636D01*
X1059898Y469620D01*
X1059912Y469618D01*
X1059915Y469618D01*
X1059920Y469618D01*
X1062660Y469618D01*
X1062680Y469621D01*
X1062699Y469619D01*
X1062801Y469641D01*
X1062903Y469657D01*
X1062920Y469667D01*
X1062940Y469671D01*
X1063029Y469724D01*
X1063120Y469773D01*
X1063134Y469787D01*
X1063151Y469797D01*
X1063218Y469876D01*
X1063290Y469951D01*
X1063298Y469969D01*
X1063311Y469984D01*
X1063350Y470080D01*
X1063393Y470174D01*
X1063395Y470194D01*
X1063403Y470212D01*
X1063421Y470379D01*
X1063421Y475461D01*
X1063418Y475481D01*
X1063420Y475500D01*
X1063398Y475602D01*
X1063382Y475704D01*
X1063372Y475721D01*
X1063368Y475741D01*
X1063315Y475830D01*
X1063266Y475921D01*
X1063252Y475935D01*
X1063242Y475952D01*
X1063163Y476019D01*
X1063088Y476091D01*
X1063070Y476099D01*
X1063055Y476112D01*
X1062959Y476151D01*
X1062865Y476194D01*
X1062845Y476196D01*
X1062827Y476204D01*
X1062660Y476222D01*
X1059920Y476222D01*
X1059877Y476215D01*
X1059833Y476217D01*
X1059756Y476195D01*
X1059678Y476183D01*
X1059639Y476162D01*
X1059597Y476150D01*
X1059531Y476105D01*
X1059460Y476067D01*
X1059430Y476036D01*
X1059394Y476011D01*
X1059346Y475947D01*
X1059291Y475889D01*
X1059272Y475849D01*
X1059246Y475814D01*
X1059193Y475678D01*
X1059187Y475666D01*
X1059187Y475663D01*
X1059185Y475658D01*
X1059108Y475369D01*
X1058773Y474790D01*
X1058300Y474317D01*
X1057721Y473982D01*
X1057074Y473809D01*
X1053985Y473809D01*
X1053985Y483588D01*
X1053982Y483608D01*
X1053984Y483627D01*
X1053962Y483729D01*
X1053945Y483831D01*
X1053936Y483848D01*
X1053932Y483868D01*
X1053879Y483957D01*
X1053830Y484048D01*
X1053816Y484062D01*
X1053806Y484079D01*
X1053727Y484146D01*
X1053652Y484217D01*
X1053634Y484226D01*
X1053619Y484239D01*
X1053523Y484278D01*
X1053429Y484321D01*
X1053409Y484323D01*
X1053391Y484331D01*
X1053224Y484349D01*
X1052461Y484349D01*
X1052461Y484351D01*
X1053224Y484351D01*
X1053244Y484354D01*
X1053263Y484352D01*
X1053365Y484374D01*
X1053467Y484391D01*
X1053484Y484400D01*
X1053504Y484404D01*
X1053593Y484457D01*
X1053684Y484506D01*
X1053698Y484520D01*
X1053715Y484530D01*
X1053782Y484609D01*
X1053853Y484684D01*
X1053862Y484702D01*
X1053875Y484717D01*
X1053914Y484813D01*
X1053957Y484907D01*
X1053959Y484927D01*
X1053967Y484945D01*
X1053985Y485112D01*
X1053985Y494798D01*
X1053982Y494818D01*
X1053984Y494837D01*
X1053962Y494939D01*
X1053945Y495041D01*
X1053936Y495058D01*
X1053932Y495078D01*
X1053879Y495167D01*
X1053830Y495258D01*
X1053816Y495272D01*
X1053806Y495289D01*
X1053727Y495356D01*
X1053652Y495428D01*
X1053634Y495436D01*
X1053619Y495449D01*
X1053523Y495488D01*
X1053461Y495516D01*
X1053461Y499879D01*
X1060439Y499879D01*
X1060439Y495559D01*
X1059596Y495559D01*
X1058962Y495729D01*
X1058938Y495732D01*
X1058915Y495740D01*
X1058888Y495741D01*
X1058871Y495746D01*
X1058805Y495745D01*
X1058717Y495754D01*
X1058693Y495748D01*
X1058669Y495749D01*
X1058640Y495740D01*
X1058625Y495740D01*
X1058569Y495720D01*
X1058477Y495699D01*
X1058457Y495686D01*
X1058433Y495679D01*
X1058406Y495660D01*
X1058394Y495656D01*
X1058352Y495622D01*
X1058268Y495570D01*
X1058252Y495551D01*
X1058232Y495538D01*
X1058211Y495509D01*
X1058202Y495502D01*
X1058175Y495459D01*
X1058173Y495458D01*
X1058110Y495382D01*
X1058101Y495359D01*
X1058086Y495339D01*
X1058076Y495305D01*
X1058069Y495295D01*
X1058056Y495245D01*
X1058020Y495152D01*
X1058019Y495128D01*
X1058012Y495105D01*
X1058012Y495070D01*
X1058009Y495056D01*
X1058013Y495003D01*
X1058009Y494907D01*
X1058015Y494883D01*
X1058016Y494859D01*
X1058027Y494827D01*
X1058028Y494811D01*
X1058051Y494757D01*
X1058076Y494670D01*
X1058090Y494650D01*
X1058098Y494627D01*
X1058117Y494603D01*
X1058124Y494585D01*
X1058194Y494498D01*
X1058215Y494467D01*
X1058224Y494461D01*
X1058229Y494454D01*
X1058249Y494435D01*
X1058249Y494434D01*
X1058250Y494433D01*
X1058773Y493910D01*
X1059108Y493331D01*
X1059185Y493042D01*
X1059203Y493002D01*
X1059212Y492959D01*
X1059253Y492891D01*
X1059286Y492818D01*
X1059316Y492786D01*
X1059338Y492748D01*
X1059399Y492696D01*
X1059454Y492638D01*
X1059492Y492617D01*
X1059525Y492588D01*
X1059600Y492558D01*
X1059670Y492520D01*
X1059713Y492513D01*
X1059754Y492496D01*
X1059898Y492480D01*
X1059912Y492478D01*
X1059915Y492478D01*
X1059920Y492478D01*
X1062660Y492478D01*
X1062680Y492481D01*
X1062699Y492479D01*
X1062801Y492501D01*
X1062903Y492517D01*
X1062920Y492527D01*
X1062940Y492531D01*
X1063029Y492584D01*
X1063120Y492633D01*
X1063134Y492647D01*
X1063151Y492657D01*
X1063218Y492736D01*
X1063290Y492811D01*
X1063298Y492829D01*
X1063311Y492844D01*
X1063350Y492940D01*
X1063393Y493034D01*
X1063395Y493054D01*
X1063403Y493072D01*
X1063421Y493239D01*
X1063421Y494798D01*
X1063418Y494818D01*
X1063420Y494837D01*
X1063398Y494939D01*
X1063382Y495041D01*
X1063372Y495058D01*
X1063368Y495078D01*
X1063315Y495167D01*
X1063266Y495258D01*
X1063252Y495272D01*
X1063242Y495289D01*
X1063163Y495356D01*
X1063088Y495428D01*
X1063070Y495436D01*
X1063055Y495449D01*
X1062959Y495488D01*
X1062865Y495531D01*
X1062845Y495533D01*
X1062827Y495541D01*
X1062660Y495559D01*
X1061961Y495559D01*
X1061961Y500640D01*
X1061958Y500659D01*
X1061960Y500679D01*
X1061938Y500780D01*
X1061922Y500882D01*
X1061912Y500900D01*
X1061908Y500919D01*
X1061855Y501009D01*
X1061807Y501100D01*
X1061806Y501100D01*
X1061792Y501114D01*
X1061782Y501131D01*
X1061781Y501131D01*
X1061703Y501198D01*
X1061628Y501270D01*
X1061610Y501278D01*
X1061595Y501291D01*
X1061498Y501330D01*
X1061405Y501373D01*
X1061385Y501375D01*
X1061366Y501383D01*
X1061200Y501401D01*
X1052700Y501401D01*
X1044200Y501401D01*
X1040389Y501401D01*
X1040389Y503514D01*
X1040562Y504161D01*
X1040897Y504740D01*
X1041055Y504898D01*
X1041108Y504972D01*
X1041168Y505042D01*
X1041180Y505072D01*
X1041199Y505098D01*
X1041226Y505185D01*
X1041260Y505270D01*
X1041264Y505311D01*
X1041271Y505333D01*
X1041270Y505365D01*
X1041278Y505437D01*
X1041278Y508480D01*
X1041275Y508500D01*
X1041277Y508519D01*
X1041255Y508621D01*
X1041239Y508723D01*
X1041229Y508740D01*
X1041225Y508760D01*
X1041172Y508849D01*
X1041123Y508940D01*
X1041109Y508954D01*
X1041099Y508971D01*
X1041020Y509038D01*
X1040945Y509110D01*
X1040927Y509118D01*
X1040912Y509131D01*
X1040816Y509170D01*
X1040722Y509213D01*
X1040702Y509215D01*
X1040684Y509223D01*
X1040517Y509241D01*
X1039340Y509241D01*
X1039320Y509238D01*
X1039301Y509240D01*
X1039199Y509218D01*
X1039097Y509202D01*
X1039080Y509192D01*
X1039060Y509188D01*
X1038971Y509135D01*
X1038880Y509086D01*
X1038866Y509072D01*
X1038849Y509062D01*
X1038782Y508983D01*
X1038711Y508908D01*
X1038702Y508890D01*
X1038689Y508875D01*
X1038650Y508779D01*
X1038607Y508685D01*
X1038605Y508665D01*
X1038597Y508647D01*
X1038579Y508480D01*
X1038579Y436550D01*
X1038594Y436460D01*
X1038601Y436369D01*
X1038613Y436339D01*
X1038619Y436307D01*
X1038661Y436227D01*
X1038697Y436143D01*
X1038723Y436111D01*
X1038734Y436090D01*
X1038757Y436068D01*
X1038802Y436012D01*
X1050692Y424122D01*
X1050766Y424069D01*
X1050835Y424009D01*
X1050865Y423997D01*
X1050891Y423978D01*
X1050978Y423951D01*
X1051063Y423917D01*
X1051104Y423913D01*
X1051127Y423906D01*
X1051159Y423907D01*
X1051230Y423899D01*
X1123620Y423899D01*
X1123640Y423902D01*
G37*
%LPC*%
G36*
X946618Y570725D02*
X946618Y570725D01*
X945725Y571618D01*
X945725Y598382D01*
X946618Y599275D01*
X973382Y599275D01*
X974275Y598382D01*
X974275Y593624D01*
X974279Y593600D01*
X974276Y593575D01*
X974298Y593480D01*
X974314Y593383D01*
X974326Y593362D01*
X974332Y593338D01*
X974383Y593254D01*
X974429Y593168D01*
X974447Y593151D01*
X974460Y593130D01*
X974536Y593068D01*
X974607Y593001D01*
X974630Y592991D01*
X974649Y592975D01*
X974740Y592941D01*
X974830Y592900D01*
X974854Y592898D01*
X974877Y592889D01*
X975024Y592875D01*
X1011028Y592875D01*
X1011124Y592891D01*
X1011221Y592900D01*
X1011244Y592910D01*
X1011269Y592914D01*
X1011355Y592960D01*
X1011443Y593001D01*
X1011469Y593022D01*
X1011484Y593029D01*
X1011501Y593048D01*
X1011558Y593094D01*
X1054606Y636142D01*
X1054663Y636222D01*
X1054725Y636297D01*
X1054733Y636320D01*
X1054748Y636341D01*
X1054776Y636434D01*
X1054811Y636525D01*
X1054814Y636558D01*
X1054819Y636574D01*
X1054818Y636599D01*
X1054825Y636672D01*
X1054825Y636944D01*
X1056313Y640537D01*
X1059063Y643287D01*
X1062656Y644775D01*
X1066544Y644775D01*
X1070137Y643287D01*
X1072887Y640537D01*
X1074375Y636944D01*
X1074375Y633056D01*
X1072887Y629463D01*
X1070137Y626713D01*
X1066544Y625225D01*
X1066272Y625225D01*
X1066176Y625209D01*
X1066079Y625200D01*
X1066056Y625190D01*
X1066031Y625186D01*
X1065945Y625140D01*
X1065857Y625099D01*
X1065831Y625078D01*
X1065816Y625071D01*
X1065799Y625052D01*
X1065742Y625006D01*
X1021381Y580645D01*
X1019061Y578324D01*
X1016166Y577125D01*
X975024Y577125D01*
X975000Y577121D01*
X974975Y577124D01*
X974880Y577102D01*
X974783Y577086D01*
X974762Y577074D01*
X974738Y577068D01*
X974654Y577017D01*
X974568Y576971D01*
X974551Y576953D01*
X974530Y576940D01*
X974468Y576864D01*
X974401Y576793D01*
X974391Y576770D01*
X974375Y576751D01*
X974341Y576660D01*
X974300Y576570D01*
X974298Y576546D01*
X974289Y576523D01*
X974275Y576376D01*
X974275Y571618D01*
X973382Y570725D01*
X946618Y570725D01*
G37*
%LPD*%
G36*
X1123640Y449302D02*
X1123640Y449302D01*
X1123659Y449300D01*
X1123761Y449322D01*
X1123863Y449339D01*
X1123880Y449348D01*
X1123900Y449352D01*
X1123989Y449405D01*
X1124080Y449454D01*
X1124094Y449468D01*
X1124111Y449478D01*
X1124178Y449557D01*
X1124250Y449632D01*
X1124258Y449650D01*
X1124271Y449665D01*
X1124310Y449761D01*
X1124353Y449855D01*
X1124355Y449875D01*
X1124363Y449893D01*
X1124381Y450060D01*
X1124381Y493240D01*
X1124378Y493260D01*
X1124380Y493279D01*
X1124358Y493381D01*
X1124342Y493483D01*
X1124332Y493500D01*
X1124328Y493520D01*
X1124275Y493609D01*
X1124226Y493700D01*
X1124212Y493714D01*
X1124202Y493731D01*
X1124123Y493798D01*
X1124048Y493870D01*
X1124030Y493878D01*
X1124015Y493891D01*
X1123919Y493930D01*
X1123825Y493973D01*
X1123805Y493975D01*
X1123787Y493983D01*
X1123620Y494001D01*
X1117269Y494001D01*
X1117249Y493998D01*
X1117230Y494000D01*
X1117128Y493978D01*
X1117026Y493962D01*
X1117009Y493952D01*
X1116989Y493948D01*
X1116900Y493895D01*
X1116809Y493846D01*
X1116795Y493832D01*
X1116778Y493822D01*
X1116711Y493743D01*
X1116639Y493668D01*
X1116631Y493650D01*
X1116618Y493635D01*
X1116579Y493539D01*
X1116536Y493445D01*
X1116534Y493425D01*
X1116526Y493407D01*
X1116508Y493240D01*
X1116508Y487960D01*
X1116515Y487917D01*
X1116513Y487873D01*
X1116535Y487796D01*
X1116547Y487717D01*
X1116568Y487679D01*
X1116580Y487637D01*
X1116625Y487571D01*
X1116663Y487500D01*
X1116694Y487470D01*
X1116719Y487434D01*
X1116783Y487386D01*
X1116841Y487331D01*
X1116881Y487312D01*
X1116916Y487286D01*
X1117051Y487233D01*
X1117064Y487227D01*
X1117067Y487227D01*
X1117072Y487225D01*
X1117361Y487148D01*
X1117940Y486813D01*
X1118413Y486340D01*
X1118748Y485761D01*
X1118921Y485114D01*
X1118921Y482025D01*
X1109142Y482025D01*
X1109122Y482022D01*
X1109103Y482024D01*
X1109001Y482002D01*
X1108899Y481985D01*
X1108882Y481976D01*
X1108862Y481972D01*
X1108773Y481919D01*
X1108682Y481870D01*
X1108668Y481856D01*
X1108651Y481846D01*
X1108584Y481767D01*
X1108513Y481692D01*
X1108504Y481674D01*
X1108491Y481659D01*
X1108452Y481563D01*
X1108409Y481469D01*
X1108407Y481449D01*
X1108399Y481431D01*
X1108381Y481264D01*
X1108381Y480501D01*
X1108379Y480501D01*
X1108379Y481264D01*
X1108376Y481284D01*
X1108378Y481303D01*
X1108356Y481405D01*
X1108339Y481507D01*
X1108330Y481524D01*
X1108326Y481544D01*
X1108273Y481633D01*
X1108224Y481724D01*
X1108210Y481738D01*
X1108200Y481755D01*
X1108121Y481822D01*
X1108046Y481893D01*
X1108028Y481902D01*
X1108013Y481915D01*
X1107917Y481954D01*
X1107823Y481997D01*
X1107803Y481999D01*
X1107785Y482007D01*
X1107618Y482025D01*
X1097839Y482025D01*
X1097839Y485114D01*
X1098012Y485761D01*
X1098347Y486340D01*
X1098820Y486813D01*
X1099399Y487148D01*
X1099688Y487225D01*
X1099728Y487243D01*
X1099771Y487252D01*
X1099839Y487293D01*
X1099912Y487326D01*
X1099944Y487356D01*
X1099982Y487378D01*
X1100034Y487439D01*
X1100092Y487494D01*
X1100113Y487532D01*
X1100142Y487565D01*
X1100172Y487640D01*
X1100210Y487710D01*
X1100217Y487753D01*
X1100234Y487794D01*
X1100250Y487938D01*
X1100252Y487952D01*
X1100252Y487955D01*
X1100252Y487960D01*
X1100252Y493240D01*
X1100249Y493260D01*
X1100251Y493279D01*
X1100229Y493381D01*
X1100213Y493483D01*
X1100203Y493500D01*
X1100199Y493520D01*
X1100146Y493609D01*
X1100097Y493700D01*
X1100083Y493714D01*
X1100073Y493731D01*
X1099994Y493798D01*
X1099919Y493870D01*
X1099901Y493878D01*
X1099886Y493891D01*
X1099790Y493930D01*
X1099696Y493973D01*
X1099676Y493975D01*
X1099658Y493983D01*
X1099491Y494001D01*
X1098535Y494001D01*
X1095171Y497365D01*
X1095171Y499237D01*
X1095152Y499353D01*
X1095134Y499472D01*
X1095132Y499475D01*
X1095132Y499480D01*
X1095076Y499584D01*
X1095021Y499690D01*
X1095018Y499693D01*
X1095016Y499697D01*
X1094931Y499778D01*
X1094845Y499862D01*
X1094841Y499863D01*
X1094838Y499866D01*
X1094731Y499916D01*
X1094623Y499968D01*
X1094619Y499968D01*
X1094615Y499970D01*
X1094497Y499983D01*
X1094379Y499997D01*
X1094374Y499997D01*
X1094371Y499997D01*
X1094357Y499994D01*
X1094213Y499972D01*
X1093530Y499789D01*
X1090401Y499789D01*
X1090401Y503600D01*
X1090401Y508600D01*
X1090398Y508619D01*
X1090400Y508639D01*
X1090378Y508740D01*
X1090362Y508842D01*
X1090352Y508860D01*
X1090348Y508879D01*
X1090295Y508969D01*
X1090247Y509060D01*
X1090246Y509060D01*
X1090232Y509074D01*
X1090222Y509091D01*
X1090221Y509091D01*
X1090143Y509158D01*
X1090068Y509230D01*
X1090050Y509238D01*
X1090035Y509251D01*
X1089938Y509290D01*
X1089845Y509333D01*
X1089825Y509335D01*
X1089806Y509343D01*
X1089640Y509361D01*
X1083543Y509361D01*
X1083543Y509750D01*
X1083540Y509770D01*
X1083542Y509789D01*
X1083520Y509891D01*
X1083504Y509993D01*
X1083494Y510010D01*
X1083490Y510030D01*
X1083437Y510119D01*
X1083388Y510210D01*
X1083374Y510224D01*
X1083364Y510241D01*
X1083285Y510308D01*
X1083210Y510380D01*
X1083192Y510388D01*
X1083177Y510401D01*
X1083081Y510440D01*
X1082987Y510483D01*
X1082967Y510485D01*
X1082949Y510493D01*
X1082782Y510511D01*
X1081890Y510511D01*
X1081837Y510533D01*
X1081796Y510537D01*
X1081773Y510544D01*
X1081741Y510543D01*
X1081670Y510551D01*
X1081647Y510551D01*
X1080640Y511558D01*
X1080566Y511611D01*
X1080497Y511671D01*
X1080467Y511683D01*
X1080441Y511702D01*
X1080354Y511729D01*
X1080269Y511763D01*
X1080228Y511767D01*
X1080206Y511774D01*
X1080173Y511773D01*
X1080102Y511781D01*
X1077900Y511781D01*
X1077880Y511778D01*
X1077861Y511780D01*
X1077759Y511758D01*
X1077657Y511742D01*
X1077640Y511732D01*
X1077620Y511728D01*
X1077531Y511675D01*
X1077440Y511626D01*
X1077426Y511612D01*
X1077409Y511602D01*
X1077342Y511523D01*
X1077271Y511448D01*
X1077262Y511430D01*
X1077249Y511415D01*
X1077210Y511319D01*
X1077167Y511225D01*
X1077165Y511205D01*
X1077157Y511187D01*
X1077139Y511020D01*
X1077139Y510078D01*
X1077154Y509988D01*
X1077161Y509897D01*
X1077173Y509867D01*
X1077179Y509835D01*
X1077221Y509754D01*
X1077249Y509690D01*
X1077249Y508209D01*
X1077264Y508115D01*
X1077273Y508020D01*
X1077284Y507994D01*
X1077288Y507966D01*
X1077333Y507882D01*
X1077371Y507795D01*
X1077390Y507774D01*
X1077404Y507749D01*
X1077473Y507683D01*
X1077537Y507613D01*
X1077561Y507599D01*
X1077582Y507579D01*
X1077669Y507539D01*
X1077752Y507493D01*
X1077779Y507488D01*
X1077805Y507476D01*
X1077900Y507465D01*
X1077994Y507448D01*
X1078021Y507452D01*
X1078049Y507449D01*
X1078143Y507469D01*
X1078237Y507482D01*
X1078269Y507497D01*
X1078290Y507501D01*
X1078318Y507518D01*
X1078391Y507550D01*
X1078449Y507584D01*
X1079096Y507757D01*
X1079939Y507757D01*
X1079939Y501660D01*
X1079942Y501641D01*
X1079940Y501621D01*
X1079962Y501520D01*
X1079978Y501418D01*
X1079988Y501400D01*
X1079992Y501381D01*
X1080045Y501291D01*
X1080093Y501200D01*
X1080108Y501187D01*
X1080118Y501169D01*
X1080197Y501102D01*
X1080272Y501031D01*
X1080290Y501022D01*
X1080305Y501009D01*
X1080401Y500971D01*
X1080495Y500927D01*
X1080515Y500925D01*
X1080533Y500918D01*
X1080700Y500899D01*
X1080720Y500902D01*
X1080739Y500900D01*
X1080740Y500900D01*
X1080841Y500922D01*
X1080943Y500939D01*
X1080960Y500948D01*
X1080980Y500952D01*
X1081069Y501006D01*
X1081160Y501054D01*
X1081174Y501068D01*
X1081191Y501079D01*
X1081258Y501157D01*
X1081330Y501232D01*
X1081338Y501250D01*
X1081351Y501265D01*
X1081390Y501362D01*
X1081433Y501455D01*
X1081435Y501475D01*
X1081443Y501494D01*
X1081461Y501660D01*
X1081461Y507757D01*
X1082305Y507757D01*
X1082585Y507682D01*
X1082703Y507670D01*
X1082821Y507657D01*
X1082826Y507658D01*
X1082830Y507657D01*
X1082945Y507684D01*
X1083062Y507709D01*
X1083065Y507711D01*
X1083069Y507712D01*
X1083170Y507774D01*
X1083273Y507835D01*
X1083276Y507838D01*
X1083276Y507839D01*
X1088879Y507839D01*
X1088879Y503600D01*
X1088879Y499789D01*
X1085749Y499789D01*
X1085469Y499864D01*
X1085351Y499876D01*
X1085233Y499889D01*
X1085228Y499888D01*
X1085224Y499889D01*
X1085109Y499862D01*
X1084992Y499837D01*
X1084989Y499835D01*
X1084985Y499834D01*
X1084884Y499772D01*
X1084781Y499711D01*
X1084778Y499708D01*
X1084775Y499706D01*
X1084699Y499615D01*
X1084621Y499524D01*
X1084620Y499520D01*
X1084617Y499517D01*
X1084574Y499407D01*
X1084529Y499296D01*
X1084529Y499291D01*
X1084527Y499288D01*
X1084527Y499274D01*
X1084511Y499129D01*
X1084511Y497770D01*
X1084338Y497123D01*
X1084003Y496544D01*
X1083649Y496190D01*
X1083608Y496132D01*
X1083558Y496080D01*
X1083536Y496033D01*
X1083506Y495991D01*
X1083485Y495922D01*
X1083455Y495857D01*
X1083449Y495805D01*
X1083433Y495755D01*
X1083435Y495684D01*
X1083427Y495613D01*
X1083439Y495562D01*
X1083440Y495510D01*
X1083464Y495442D01*
X1083480Y495372D01*
X1083506Y495327D01*
X1083524Y495279D01*
X1083569Y495223D01*
X1083606Y495161D01*
X1083645Y495127D01*
X1083678Y495087D01*
X1083738Y495048D01*
X1083793Y495001D01*
X1083841Y494982D01*
X1083885Y494954D01*
X1083954Y494936D01*
X1084021Y494909D01*
X1084092Y494901D01*
X1084123Y494893D01*
X1084147Y494895D01*
X1084188Y494891D01*
X1087630Y494891D01*
X1088277Y494718D01*
X1088856Y494383D01*
X1089329Y493910D01*
X1089664Y493331D01*
X1089837Y492684D01*
X1089837Y485873D01*
X1083780Y485873D01*
X1083760Y485870D01*
X1083741Y485872D01*
X1083639Y485850D01*
X1083537Y485833D01*
X1083520Y485824D01*
X1083500Y485820D01*
X1083411Y485767D01*
X1083320Y485718D01*
X1083306Y485704D01*
X1083289Y485694D01*
X1083222Y485615D01*
X1083151Y485540D01*
X1083142Y485522D01*
X1083129Y485507D01*
X1083090Y485411D01*
X1083047Y485317D01*
X1083045Y485297D01*
X1083037Y485279D01*
X1083019Y485112D01*
X1083019Y484349D01*
X1082256Y484349D01*
X1082236Y484346D01*
X1082217Y484348D01*
X1082115Y484326D01*
X1082013Y484309D01*
X1081996Y484300D01*
X1081976Y484296D01*
X1081887Y484243D01*
X1081796Y484194D01*
X1081782Y484180D01*
X1081765Y484170D01*
X1081698Y484091D01*
X1081627Y484016D01*
X1081618Y483998D01*
X1081605Y483983D01*
X1081566Y483887D01*
X1081523Y483793D01*
X1081521Y483773D01*
X1081513Y483755D01*
X1081495Y483588D01*
X1081495Y473809D01*
X1078406Y473809D01*
X1078097Y473892D01*
X1077978Y473904D01*
X1077861Y473917D01*
X1077856Y473916D01*
X1077852Y473916D01*
X1077737Y473890D01*
X1077620Y473865D01*
X1077617Y473862D01*
X1077613Y473861D01*
X1077512Y473800D01*
X1077409Y473738D01*
X1077406Y473735D01*
X1077403Y473733D01*
X1077326Y473642D01*
X1077249Y473551D01*
X1077248Y473548D01*
X1077245Y473544D01*
X1077202Y473434D01*
X1077157Y473323D01*
X1077157Y473318D01*
X1077155Y473315D01*
X1077155Y473302D01*
X1077139Y473157D01*
X1077139Y472683D01*
X1077158Y472567D01*
X1077176Y472448D01*
X1077178Y472445D01*
X1077179Y472441D01*
X1077234Y472336D01*
X1077289Y472230D01*
X1077292Y472227D01*
X1077294Y472223D01*
X1077379Y472142D01*
X1077465Y472059D01*
X1077469Y472057D01*
X1077472Y472054D01*
X1077579Y472004D01*
X1077687Y471952D01*
X1077691Y471952D01*
X1077695Y471950D01*
X1077813Y471937D01*
X1077931Y471923D01*
X1077936Y471924D01*
X1077939Y471923D01*
X1077953Y471926D01*
X1078097Y471948D01*
X1078405Y472031D01*
X1081495Y472031D01*
X1081495Y462252D01*
X1081498Y462232D01*
X1081496Y462213D01*
X1081518Y462111D01*
X1081535Y462009D01*
X1081544Y461992D01*
X1081548Y461972D01*
X1081601Y461883D01*
X1081650Y461792D01*
X1081664Y461778D01*
X1081674Y461761D01*
X1081753Y461694D01*
X1081828Y461623D01*
X1081846Y461614D01*
X1081861Y461601D01*
X1081957Y461562D01*
X1082051Y461519D01*
X1082071Y461517D01*
X1082089Y461509D01*
X1082256Y461491D01*
X1083019Y461491D01*
X1083019Y461489D01*
X1082256Y461489D01*
X1082236Y461486D01*
X1082217Y461488D01*
X1082115Y461466D01*
X1082013Y461449D01*
X1081996Y461440D01*
X1081976Y461436D01*
X1081887Y461383D01*
X1081796Y461334D01*
X1081782Y461320D01*
X1081765Y461310D01*
X1081698Y461231D01*
X1081627Y461156D01*
X1081618Y461138D01*
X1081605Y461123D01*
X1081566Y461027D01*
X1081523Y460933D01*
X1081521Y460913D01*
X1081513Y460895D01*
X1081495Y460728D01*
X1081495Y450949D01*
X1078405Y450949D01*
X1078097Y451032D01*
X1077979Y451044D01*
X1077861Y451057D01*
X1077856Y451056D01*
X1077852Y451056D01*
X1077737Y451030D01*
X1077620Y451005D01*
X1077617Y451002D01*
X1077613Y451002D01*
X1077511Y450939D01*
X1077409Y450878D01*
X1077406Y450875D01*
X1077403Y450873D01*
X1077326Y450782D01*
X1077249Y450692D01*
X1077248Y450688D01*
X1077245Y450684D01*
X1077202Y450574D01*
X1077157Y450463D01*
X1077157Y450458D01*
X1077155Y450455D01*
X1077155Y450442D01*
X1077139Y450297D01*
X1077139Y450060D01*
X1077142Y450040D01*
X1077140Y450021D01*
X1077162Y449919D01*
X1077179Y449817D01*
X1077188Y449800D01*
X1077192Y449780D01*
X1077245Y449691D01*
X1077294Y449600D01*
X1077308Y449586D01*
X1077318Y449569D01*
X1077397Y449502D01*
X1077472Y449431D01*
X1077490Y449422D01*
X1077505Y449409D01*
X1077601Y449370D01*
X1077695Y449327D01*
X1077715Y449325D01*
X1077733Y449317D01*
X1077900Y449299D01*
X1123620Y449299D01*
X1123640Y449302D01*
G37*
%LPC*%
G36*
X1091671Y340129D02*
X1091671Y340129D01*
X1083802Y343389D01*
X1077779Y349412D01*
X1074519Y357281D01*
X1074519Y365799D01*
X1077779Y373668D01*
X1083802Y379691D01*
X1091671Y382951D01*
X1100189Y382951D01*
X1108058Y379691D01*
X1114081Y373668D01*
X1117341Y365799D01*
X1117341Y357281D01*
X1114081Y349412D01*
X1108058Y343389D01*
X1100189Y340129D01*
X1091671Y340129D01*
G37*
%LPD*%
%LPC*%
G36*
X1091671Y126729D02*
X1091671Y126729D01*
X1083802Y129989D01*
X1077779Y136012D01*
X1074519Y143881D01*
X1074519Y152399D01*
X1077779Y160268D01*
X1083802Y166291D01*
X1091671Y169551D01*
X1100189Y169551D01*
X1108058Y166291D01*
X1114081Y160268D01*
X1117341Y152399D01*
X1117341Y143881D01*
X1114081Y136012D01*
X1108058Y129989D01*
X1100189Y126729D01*
X1091671Y126729D01*
G37*
%LPD*%
%LPC*%
G36*
X471871Y340129D02*
X471871Y340129D01*
X464002Y343389D01*
X457979Y349412D01*
X454719Y357281D01*
X454719Y365799D01*
X457979Y373668D01*
X464002Y379691D01*
X471871Y382951D01*
X480389Y382951D01*
X488258Y379691D01*
X494281Y373668D01*
X497541Y365799D01*
X497541Y357281D01*
X494281Y349412D01*
X488258Y343389D01*
X480389Y340129D01*
X471871Y340129D01*
G37*
%LPD*%
%LPC*%
G36*
X471871Y126729D02*
X471871Y126729D01*
X464002Y129989D01*
X457979Y136012D01*
X454719Y143881D01*
X454719Y152399D01*
X457979Y160268D01*
X464002Y166291D01*
X471871Y169551D01*
X480389Y169551D01*
X488258Y166291D01*
X494281Y160268D01*
X497541Y152399D01*
X497541Y143881D01*
X494281Y136012D01*
X488258Y129989D01*
X480389Y126729D01*
X471871Y126729D01*
G37*
%LPD*%
%LPC*%
G36*
X907161Y570725D02*
X907161Y570725D01*
X901914Y572898D01*
X897898Y576914D01*
X895725Y582161D01*
X895725Y587839D01*
X897898Y593086D01*
X901914Y597102D01*
X907161Y599275D01*
X912839Y599275D01*
X918086Y597102D01*
X922102Y593086D01*
X924275Y587839D01*
X924275Y582161D01*
X922102Y576914D01*
X918086Y572898D01*
X912839Y570725D01*
X907161Y570725D01*
G37*
%LPD*%
%LPC*%
G36*
X1186868Y215975D02*
X1186868Y215975D01*
X1185975Y216868D01*
X1185975Y220186D01*
X1185971Y220210D01*
X1185974Y220235D01*
X1185952Y220330D01*
X1185936Y220427D01*
X1185924Y220448D01*
X1185918Y220472D01*
X1185867Y220556D01*
X1185821Y220642D01*
X1185803Y220659D01*
X1185790Y220680D01*
X1185714Y220742D01*
X1185643Y220809D01*
X1185620Y220819D01*
X1185601Y220835D01*
X1185510Y220869D01*
X1185420Y220910D01*
X1185396Y220912D01*
X1185373Y220921D01*
X1185226Y220935D01*
X1182774Y220935D01*
X1182750Y220931D01*
X1182725Y220934D01*
X1182630Y220912D01*
X1182533Y220896D01*
X1182512Y220884D01*
X1182488Y220878D01*
X1182404Y220827D01*
X1182318Y220781D01*
X1182301Y220763D01*
X1182280Y220750D01*
X1182218Y220674D01*
X1182151Y220603D01*
X1182141Y220580D01*
X1182125Y220561D01*
X1182091Y220470D01*
X1182050Y220380D01*
X1182048Y220356D01*
X1182039Y220333D01*
X1182025Y220186D01*
X1182025Y219868D01*
X1181132Y218975D01*
X1173368Y218975D01*
X1172475Y219868D01*
X1172475Y230132D01*
X1173368Y231025D01*
X1181132Y231025D01*
X1182025Y230132D01*
X1182025Y229814D01*
X1182029Y229790D01*
X1182026Y229765D01*
X1182048Y229670D01*
X1182064Y229573D01*
X1182076Y229552D01*
X1182082Y229528D01*
X1182133Y229444D01*
X1182179Y229358D01*
X1182197Y229341D01*
X1182210Y229320D01*
X1182286Y229258D01*
X1182357Y229191D01*
X1182380Y229181D01*
X1182399Y229165D01*
X1182490Y229131D01*
X1182580Y229090D01*
X1182604Y229088D01*
X1182627Y229079D01*
X1182774Y229065D01*
X1185226Y229065D01*
X1185250Y229069D01*
X1185275Y229066D01*
X1185370Y229088D01*
X1185467Y229104D01*
X1185488Y229116D01*
X1185512Y229122D01*
X1185596Y229173D01*
X1185682Y229219D01*
X1185699Y229237D01*
X1185720Y229250D01*
X1185782Y229326D01*
X1185849Y229397D01*
X1185859Y229420D01*
X1185875Y229439D01*
X1185909Y229530D01*
X1185950Y229620D01*
X1185952Y229644D01*
X1185961Y229667D01*
X1185975Y229814D01*
X1185975Y233132D01*
X1186868Y234025D01*
X1203132Y234025D01*
X1204025Y233132D01*
X1204025Y216868D01*
X1203132Y215975D01*
X1186868Y215975D01*
G37*
%LPD*%
%LPC*%
G36*
X543747Y400527D02*
X543747Y400527D01*
X539733Y402190D01*
X536660Y405263D01*
X534997Y409277D01*
X534997Y413623D01*
X536660Y417637D01*
X539733Y420710D01*
X543747Y422373D01*
X548093Y422373D01*
X552107Y420710D01*
X555180Y417637D01*
X556843Y413623D01*
X556843Y409277D01*
X555180Y405263D01*
X552107Y402190D01*
X548093Y400527D01*
X543747Y400527D01*
G37*
%LPD*%
%LPC*%
G36*
X278028Y625825D02*
X278028Y625825D01*
X274201Y627411D01*
X271271Y630341D01*
X269685Y634168D01*
X269685Y638312D01*
X271271Y642139D01*
X274201Y645069D01*
X278028Y646655D01*
X282172Y646655D01*
X285999Y645069D01*
X288929Y642139D01*
X290515Y638312D01*
X290515Y634168D01*
X288929Y630341D01*
X285999Y627411D01*
X282172Y625825D01*
X278028Y625825D01*
G37*
%LPD*%
%LPC*%
G36*
X303428Y625825D02*
X303428Y625825D01*
X299601Y627411D01*
X296671Y630341D01*
X295085Y634168D01*
X295085Y638312D01*
X296671Y642139D01*
X299601Y645069D01*
X303428Y646655D01*
X307572Y646655D01*
X311399Y645069D01*
X314329Y642139D01*
X315915Y638312D01*
X315915Y634168D01*
X314329Y630341D01*
X311399Y627411D01*
X307572Y625825D01*
X303428Y625825D01*
G37*
%LPD*%
%LPC*%
G36*
X354228Y625825D02*
X354228Y625825D01*
X350401Y627411D01*
X347471Y630341D01*
X345885Y634168D01*
X345885Y638312D01*
X347471Y642139D01*
X350401Y645069D01*
X354228Y646655D01*
X358372Y646655D01*
X362199Y645069D01*
X365129Y642139D01*
X366715Y638312D01*
X366715Y634168D01*
X365129Y630341D01*
X362199Y627411D01*
X358372Y625825D01*
X354228Y625825D01*
G37*
%LPD*%
%LPC*%
G36*
X252628Y625825D02*
X252628Y625825D01*
X248801Y627411D01*
X245871Y630341D01*
X244285Y634168D01*
X244285Y638312D01*
X245871Y642139D01*
X248801Y645069D01*
X252628Y646655D01*
X256772Y646655D01*
X260599Y645069D01*
X263529Y642139D01*
X265115Y638312D01*
X265115Y634168D01*
X263529Y630341D01*
X260599Y627411D01*
X256772Y625825D01*
X252628Y625825D01*
G37*
%LPD*%
%LPC*%
G36*
X227228Y625825D02*
X227228Y625825D01*
X223401Y627411D01*
X220471Y630341D01*
X218885Y634168D01*
X218885Y638312D01*
X220471Y642139D01*
X223401Y645069D01*
X227228Y646655D01*
X231372Y646655D01*
X235199Y645069D01*
X238129Y642139D01*
X239715Y638312D01*
X239715Y634168D01*
X238129Y630341D01*
X235199Y627411D01*
X231372Y625825D01*
X227228Y625825D01*
G37*
%LPD*%
%LPC*%
G36*
X328828Y625825D02*
X328828Y625825D01*
X325001Y627411D01*
X322071Y630341D01*
X320485Y634168D01*
X320485Y638312D01*
X322071Y642139D01*
X325001Y645069D01*
X328828Y646655D01*
X332972Y646655D01*
X336799Y645069D01*
X339729Y642139D01*
X341315Y638312D01*
X341315Y634168D01*
X339729Y630341D01*
X336799Y627411D01*
X332972Y625825D01*
X328828Y625825D01*
G37*
%LPD*%
%LPC*%
G36*
X253288Y380895D02*
X253288Y380895D01*
X249461Y382481D01*
X246531Y385411D01*
X244945Y389238D01*
X244945Y393382D01*
X246531Y397209D01*
X249461Y400139D01*
X253288Y401725D01*
X257432Y401725D01*
X261259Y400139D01*
X264189Y397209D01*
X265775Y393382D01*
X265775Y389238D01*
X264189Y385411D01*
X261259Y382481D01*
X257432Y380895D01*
X253288Y380895D01*
G37*
%LPD*%
%LPC*%
G36*
X217008Y73285D02*
X217008Y73285D01*
X213181Y74871D01*
X210251Y77801D01*
X208665Y81628D01*
X208665Y85772D01*
X210251Y89599D01*
X213181Y92529D01*
X217008Y94115D01*
X221152Y94115D01*
X224979Y92529D01*
X227909Y89599D01*
X229495Y85772D01*
X229495Y81628D01*
X227909Y77801D01*
X224979Y74871D01*
X221152Y73285D01*
X217008Y73285D01*
G37*
%LPD*%
%LPC*%
G36*
X369408Y73285D02*
X369408Y73285D01*
X365581Y74871D01*
X362651Y77801D01*
X361065Y81628D01*
X361065Y85772D01*
X362651Y89599D01*
X365581Y92529D01*
X369408Y94115D01*
X373552Y94115D01*
X377379Y92529D01*
X380309Y89599D01*
X381895Y85772D01*
X381895Y81628D01*
X380309Y77801D01*
X377379Y74871D01*
X373552Y73285D01*
X369408Y73285D01*
G37*
%LPD*%
%LPC*%
G36*
X344008Y73285D02*
X344008Y73285D01*
X340181Y74871D01*
X337251Y77801D01*
X335665Y81628D01*
X335665Y85772D01*
X337251Y89599D01*
X340181Y92529D01*
X344008Y94115D01*
X348152Y94115D01*
X351979Y92529D01*
X354909Y89599D01*
X356495Y85772D01*
X356495Y81628D01*
X354909Y77801D01*
X351979Y74871D01*
X348152Y73285D01*
X344008Y73285D01*
G37*
%LPD*%
%LPC*%
G36*
X293208Y73285D02*
X293208Y73285D01*
X289381Y74871D01*
X286451Y77801D01*
X284865Y81628D01*
X284865Y85772D01*
X286451Y89599D01*
X289381Y92529D01*
X293208Y94115D01*
X297352Y94115D01*
X301179Y92529D01*
X304109Y89599D01*
X305695Y85772D01*
X305695Y81628D01*
X304109Y77801D01*
X301179Y74871D01*
X297352Y73285D01*
X293208Y73285D01*
G37*
%LPD*%
%LPC*%
G36*
X242408Y73285D02*
X242408Y73285D01*
X238581Y74871D01*
X235651Y77801D01*
X234065Y81628D01*
X234065Y85772D01*
X235651Y89599D01*
X238581Y92529D01*
X242408Y94115D01*
X246552Y94115D01*
X250379Y92529D01*
X253309Y89599D01*
X254895Y85772D01*
X254895Y81628D01*
X253309Y77801D01*
X250379Y74871D01*
X246552Y73285D01*
X242408Y73285D01*
G37*
%LPD*%
%LPC*%
G36*
X278688Y253895D02*
X278688Y253895D01*
X274861Y255481D01*
X271931Y258411D01*
X270345Y262238D01*
X270345Y266382D01*
X271931Y270209D01*
X274861Y273139D01*
X278688Y274725D01*
X282832Y274725D01*
X286659Y273139D01*
X289589Y270209D01*
X291175Y266382D01*
X291175Y262238D01*
X289589Y258411D01*
X286659Y255481D01*
X282832Y253895D01*
X278688Y253895D01*
G37*
%LPD*%
%LPC*%
G36*
X253288Y253895D02*
X253288Y253895D01*
X249461Y255481D01*
X246531Y258411D01*
X244945Y262238D01*
X244945Y266382D01*
X246531Y270209D01*
X249461Y273139D01*
X253288Y274725D01*
X257432Y274725D01*
X261259Y273139D01*
X264189Y270209D01*
X265775Y266382D01*
X265775Y262238D01*
X264189Y258411D01*
X261259Y255481D01*
X257432Y253895D01*
X253288Y253895D01*
G37*
%LPD*%
%LPC*%
G36*
X354228Y448025D02*
X354228Y448025D01*
X350401Y449611D01*
X347471Y452541D01*
X345885Y456368D01*
X345885Y460512D01*
X347471Y464339D01*
X350401Y467269D01*
X354228Y468855D01*
X358372Y468855D01*
X362199Y467269D01*
X365129Y464339D01*
X366715Y460512D01*
X366715Y456368D01*
X365129Y452541D01*
X362199Y449611D01*
X358372Y448025D01*
X354228Y448025D01*
G37*
%LPD*%
%LPC*%
G36*
X278028Y448025D02*
X278028Y448025D01*
X274201Y449611D01*
X271271Y452541D01*
X269685Y456368D01*
X269685Y460512D01*
X271271Y464339D01*
X274201Y467269D01*
X278028Y468855D01*
X282172Y468855D01*
X285999Y467269D01*
X288929Y464339D01*
X290515Y460512D01*
X290515Y456368D01*
X288929Y452541D01*
X285999Y449611D01*
X282172Y448025D01*
X278028Y448025D01*
G37*
%LPD*%
%LPC*%
G36*
X252628Y448025D02*
X252628Y448025D01*
X248801Y449611D01*
X245871Y452541D01*
X244285Y456368D01*
X244285Y460512D01*
X245871Y464339D01*
X248801Y467269D01*
X252628Y468855D01*
X256772Y468855D01*
X260599Y467269D01*
X263529Y464339D01*
X265115Y460512D01*
X265115Y456368D01*
X263529Y452541D01*
X260599Y449611D01*
X256772Y448025D01*
X252628Y448025D01*
G37*
%LPD*%
%LPC*%
G36*
X354888Y253895D02*
X354888Y253895D01*
X351061Y255481D01*
X348131Y258411D01*
X346545Y262238D01*
X346545Y266382D01*
X348131Y270209D01*
X351061Y273139D01*
X354888Y274725D01*
X359032Y274725D01*
X362859Y273139D01*
X365789Y270209D01*
X367375Y266382D01*
X367375Y262238D01*
X365789Y258411D01*
X362859Y255481D01*
X359032Y253895D01*
X354888Y253895D01*
G37*
%LPD*%
%LPC*%
G36*
X329488Y380895D02*
X329488Y380895D01*
X325661Y382481D01*
X322731Y385411D01*
X321145Y389238D01*
X321145Y393382D01*
X322731Y397209D01*
X325661Y400139D01*
X329488Y401725D01*
X333632Y401725D01*
X337459Y400139D01*
X340389Y397209D01*
X341975Y393382D01*
X341975Y389238D01*
X340389Y385411D01*
X337459Y382481D01*
X333632Y380895D01*
X329488Y380895D01*
G37*
%LPD*%
%LPC*%
G36*
X304088Y380895D02*
X304088Y380895D01*
X300261Y382481D01*
X297331Y385411D01*
X295745Y389238D01*
X295745Y393382D01*
X297331Y397209D01*
X300261Y400139D01*
X304088Y401725D01*
X308232Y401725D01*
X312059Y400139D01*
X314989Y397209D01*
X316575Y393382D01*
X316575Y389238D01*
X314989Y385411D01*
X312059Y382481D01*
X308232Y380895D01*
X304088Y380895D01*
G37*
%LPD*%
%LPC*%
G36*
X278688Y380895D02*
X278688Y380895D01*
X274861Y382481D01*
X271931Y385411D01*
X270345Y389238D01*
X270345Y393382D01*
X271931Y397209D01*
X274861Y400139D01*
X278688Y401725D01*
X282832Y401725D01*
X286659Y400139D01*
X289589Y397209D01*
X291175Y393382D01*
X291175Y389238D01*
X289589Y385411D01*
X286659Y382481D01*
X282832Y380895D01*
X278688Y380895D01*
G37*
%LPD*%
%LPC*%
G36*
X887372Y144469D02*
X887372Y144469D01*
X886479Y145362D01*
X886479Y161626D01*
X887372Y162519D01*
X903636Y162519D01*
X904529Y161626D01*
X904529Y145362D01*
X903636Y144469D01*
X887372Y144469D01*
G37*
%LPD*%
%LPC*%
G36*
X887372Y347161D02*
X887372Y347161D01*
X886479Y348054D01*
X886479Y364318D01*
X887372Y365211D01*
X903636Y365211D01*
X904529Y364318D01*
X904529Y348054D01*
X903636Y347161D01*
X887372Y347161D01*
G37*
%LPD*%
%LPC*%
G36*
X1158868Y218975D02*
X1158868Y218975D01*
X1157975Y219868D01*
X1157975Y222186D01*
X1157971Y222210D01*
X1157974Y222235D01*
X1157952Y222330D01*
X1157936Y222427D01*
X1157924Y222448D01*
X1157918Y222472D01*
X1157867Y222556D01*
X1157821Y222642D01*
X1157803Y222659D01*
X1157790Y222680D01*
X1157714Y222742D01*
X1157643Y222809D01*
X1157620Y222819D01*
X1157601Y222835D01*
X1157510Y222869D01*
X1157420Y222910D01*
X1157396Y222912D01*
X1157373Y222921D01*
X1157226Y222935D01*
X1148745Y222935D01*
X1148648Y222919D01*
X1148552Y222910D01*
X1148529Y222900D01*
X1148504Y222896D01*
X1148418Y222850D01*
X1148329Y222809D01*
X1148304Y222788D01*
X1148289Y222781D01*
X1148272Y222762D01*
X1148215Y222716D01*
X1147196Y221697D01*
X1142804Y221697D01*
X1139697Y224804D01*
X1139697Y229196D01*
X1142804Y232303D01*
X1147196Y232303D01*
X1148215Y231284D01*
X1148294Y231227D01*
X1148370Y231165D01*
X1148393Y231157D01*
X1148413Y231142D01*
X1148507Y231114D01*
X1148598Y231079D01*
X1148631Y231076D01*
X1148647Y231071D01*
X1148672Y231072D01*
X1148745Y231065D01*
X1164127Y231065D01*
X1164149Y231068D01*
X1164204Y231069D01*
X1165639Y231217D01*
X1165663Y231203D01*
X1165709Y231165D01*
X1165768Y231143D01*
X1165824Y231112D01*
X1165882Y231100D01*
X1165937Y231079D01*
X1166044Y231069D01*
X1166063Y231065D01*
X1166071Y231066D01*
X1166084Y231065D01*
X1166195Y231065D01*
X1166262Y231039D01*
X1166295Y231036D01*
X1166311Y231031D01*
X1166336Y231032D01*
X1166409Y231025D01*
X1166632Y231025D01*
X1167525Y230132D01*
X1167525Y230035D01*
X1167527Y230021D01*
X1167525Y230007D01*
X1167547Y229901D01*
X1167564Y229794D01*
X1167571Y229782D01*
X1167574Y229768D01*
X1167628Y229674D01*
X1167679Y229579D01*
X1167690Y229569D01*
X1167697Y229557D01*
X1167802Y229453D01*
X1168250Y229089D01*
X1168258Y229061D01*
X1168264Y229002D01*
X1168290Y228944D01*
X1168307Y228883D01*
X1168340Y228834D01*
X1168364Y228780D01*
X1168432Y228697D01*
X1168440Y228686D01*
X1168440Y227248D01*
X1168443Y227226D01*
X1168444Y227171D01*
X1168592Y225736D01*
X1168578Y225712D01*
X1168540Y225666D01*
X1168518Y225607D01*
X1168487Y225551D01*
X1168475Y225493D01*
X1168454Y225438D01*
X1168444Y225331D01*
X1168441Y225318D01*
X1167744Y224621D01*
X1167687Y224542D01*
X1167625Y224466D01*
X1167617Y224443D01*
X1167602Y224422D01*
X1167574Y224329D01*
X1167539Y224238D01*
X1167536Y224205D01*
X1167531Y224189D01*
X1167532Y224164D01*
X1167525Y224091D01*
X1167525Y219868D01*
X1166632Y218975D01*
X1158868Y218975D01*
G37*
%LPD*%
%LPC*%
G36*
X988205Y625975D02*
X988205Y625975D01*
X984888Y627349D01*
X982349Y629888D01*
X980975Y633205D01*
X980975Y636795D01*
X982349Y640112D01*
X984888Y642651D01*
X988205Y644025D01*
X991795Y644025D01*
X995112Y642651D01*
X997651Y640112D01*
X999025Y636795D01*
X999025Y633205D01*
X997651Y629888D01*
X995112Y627349D01*
X991795Y625975D01*
X988205Y625975D01*
G37*
%LPD*%
%LPC*%
G36*
X878205Y625975D02*
X878205Y625975D01*
X874888Y627349D01*
X872349Y629888D01*
X870975Y633205D01*
X870975Y636795D01*
X872349Y640112D01*
X874888Y642651D01*
X878205Y644025D01*
X881795Y644025D01*
X885112Y642651D01*
X887651Y640112D01*
X889025Y636795D01*
X889025Y633205D01*
X887651Y629888D01*
X885112Y627349D01*
X881795Y625975D01*
X878205Y625975D01*
G37*
%LPD*%
%LPC*%
G36*
X715909Y347161D02*
X715909Y347161D01*
X712592Y348535D01*
X710053Y351074D01*
X708679Y354391D01*
X708679Y357981D01*
X710053Y361298D01*
X712592Y363837D01*
X715909Y365211D01*
X719499Y365211D01*
X722816Y363837D01*
X725355Y361298D01*
X726729Y357981D01*
X726729Y354391D01*
X725355Y351074D01*
X722816Y348535D01*
X719499Y347161D01*
X715909Y347161D01*
G37*
%LPD*%
%LPC*%
G36*
X1193205Y245975D02*
X1193205Y245975D01*
X1189888Y247349D01*
X1187349Y249888D01*
X1185975Y253205D01*
X1185975Y256795D01*
X1187349Y260112D01*
X1189888Y262651D01*
X1193205Y264025D01*
X1196795Y264025D01*
X1200112Y262651D01*
X1202651Y260112D01*
X1204025Y256795D01*
X1204025Y253205D01*
X1202651Y249888D01*
X1200112Y247349D01*
X1196795Y245975D01*
X1193205Y245975D01*
G37*
%LPD*%
%LPC*%
G36*
X817509Y347161D02*
X817509Y347161D01*
X814192Y348535D01*
X811653Y351074D01*
X810279Y354391D01*
X810279Y357981D01*
X811653Y361298D01*
X814192Y363837D01*
X817509Y365211D01*
X821099Y365211D01*
X824416Y363837D01*
X826955Y361298D01*
X828329Y357981D01*
X828329Y354391D01*
X826955Y351074D01*
X824416Y348535D01*
X821099Y347161D01*
X817509Y347161D01*
G37*
%LPD*%
%LPC*%
G36*
X792109Y347161D02*
X792109Y347161D01*
X788792Y348535D01*
X786253Y351074D01*
X784879Y354391D01*
X784879Y357981D01*
X786253Y361298D01*
X788792Y363837D01*
X792109Y365211D01*
X795699Y365211D01*
X799016Y363837D01*
X801555Y361298D01*
X802929Y357981D01*
X802929Y354391D01*
X801555Y351074D01*
X799016Y348535D01*
X795699Y347161D01*
X792109Y347161D01*
G37*
%LPD*%
%LPC*%
G36*
X588909Y347161D02*
X588909Y347161D01*
X585592Y348535D01*
X583053Y351074D01*
X581679Y354391D01*
X581679Y357981D01*
X583053Y361298D01*
X585592Y363837D01*
X588909Y365211D01*
X592499Y365211D01*
X595816Y363837D01*
X598355Y361298D01*
X599729Y357981D01*
X599729Y354391D01*
X598355Y351074D01*
X595816Y348535D01*
X592499Y347161D01*
X588909Y347161D01*
G37*
%LPD*%
%LPC*%
G36*
X563509Y347161D02*
X563509Y347161D01*
X560192Y348535D01*
X557653Y351074D01*
X556279Y354391D01*
X556279Y357981D01*
X557653Y361298D01*
X560192Y363837D01*
X563509Y365211D01*
X567099Y365211D01*
X570416Y363837D01*
X572955Y361298D01*
X574329Y357981D01*
X574329Y354391D01*
X572955Y351074D01*
X570416Y348535D01*
X567099Y347161D01*
X563509Y347161D01*
G37*
%LPD*%
%LPC*%
G36*
X868309Y347161D02*
X868309Y347161D01*
X864992Y348535D01*
X862453Y351074D01*
X861079Y354391D01*
X861079Y357981D01*
X862453Y361298D01*
X864992Y363837D01*
X868309Y365211D01*
X871899Y365211D01*
X875216Y363837D01*
X877755Y361298D01*
X879129Y357981D01*
X879129Y354391D01*
X877755Y351074D01*
X875216Y348535D01*
X871899Y347161D01*
X868309Y347161D01*
G37*
%LPD*%
%LPC*%
G36*
X639709Y347161D02*
X639709Y347161D01*
X636392Y348535D01*
X633853Y351074D01*
X632479Y354391D01*
X632479Y357981D01*
X633853Y361298D01*
X636392Y363837D01*
X639709Y365211D01*
X643299Y365211D01*
X646616Y363837D01*
X649155Y361298D01*
X650529Y357981D01*
X650529Y354391D01*
X649155Y351074D01*
X646616Y348535D01*
X643299Y347161D01*
X639709Y347161D01*
G37*
%LPD*%
%LPC*%
G36*
X665109Y347161D02*
X665109Y347161D01*
X661792Y348535D01*
X659253Y351074D01*
X657879Y354391D01*
X657879Y357981D01*
X659253Y361298D01*
X661792Y363837D01*
X665109Y365211D01*
X668699Y365211D01*
X672016Y363837D01*
X674555Y361298D01*
X675929Y357981D01*
X675929Y354391D01*
X674555Y351074D01*
X672016Y348535D01*
X668699Y347161D01*
X665109Y347161D01*
G37*
%LPD*%
%LPC*%
G36*
X690509Y347161D02*
X690509Y347161D01*
X687192Y348535D01*
X684653Y351074D01*
X683279Y354391D01*
X683279Y357981D01*
X684653Y361298D01*
X687192Y363837D01*
X690509Y365211D01*
X694099Y365211D01*
X697416Y363837D01*
X699955Y361298D01*
X701329Y357981D01*
X701329Y354391D01*
X699955Y351074D01*
X697416Y348535D01*
X694099Y347161D01*
X690509Y347161D01*
G37*
%LPD*%
%LPC*%
G36*
X741309Y347161D02*
X741309Y347161D01*
X737992Y348535D01*
X735453Y351074D01*
X734079Y354391D01*
X734079Y357981D01*
X735453Y361298D01*
X737992Y363837D01*
X741309Y365211D01*
X744899Y365211D01*
X748216Y363837D01*
X750755Y361298D01*
X752129Y357981D01*
X752129Y354391D01*
X750755Y351074D01*
X748216Y348535D01*
X744899Y347161D01*
X741309Y347161D01*
G37*
%LPD*%
%LPC*%
G36*
X563509Y144469D02*
X563509Y144469D01*
X560192Y145843D01*
X557653Y148382D01*
X556279Y151699D01*
X556279Y155289D01*
X557653Y158606D01*
X560192Y161145D01*
X563509Y162519D01*
X567099Y162519D01*
X570416Y161145D01*
X572955Y158606D01*
X574329Y155289D01*
X574329Y151699D01*
X572955Y148382D01*
X570416Y145843D01*
X567099Y144469D01*
X563509Y144469D01*
G37*
%LPD*%
%LPC*%
G36*
X817509Y144469D02*
X817509Y144469D01*
X814192Y145843D01*
X811653Y148382D01*
X810279Y151699D01*
X810279Y155289D01*
X811653Y158606D01*
X814192Y161145D01*
X817509Y162519D01*
X821099Y162519D01*
X824416Y161145D01*
X826955Y158606D01*
X828329Y155289D01*
X828329Y151699D01*
X826955Y148382D01*
X824416Y145843D01*
X821099Y144469D01*
X817509Y144469D01*
G37*
%LPD*%
%LPC*%
G36*
X614309Y144469D02*
X614309Y144469D01*
X610992Y145843D01*
X608453Y148382D01*
X607079Y151699D01*
X607079Y155289D01*
X608453Y158606D01*
X610992Y161145D01*
X614309Y162519D01*
X617899Y162519D01*
X621216Y161145D01*
X623755Y158606D01*
X625129Y155289D01*
X625129Y151699D01*
X623755Y148382D01*
X621216Y145843D01*
X617899Y144469D01*
X614309Y144469D01*
G37*
%LPD*%
%LPC*%
G36*
X665109Y144469D02*
X665109Y144469D01*
X661792Y145843D01*
X659253Y148382D01*
X657879Y151699D01*
X657879Y155289D01*
X659253Y158606D01*
X661792Y161145D01*
X665109Y162519D01*
X668699Y162519D01*
X672016Y161145D01*
X674555Y158606D01*
X675929Y155289D01*
X675929Y151699D01*
X674555Y148382D01*
X672016Y145843D01*
X668699Y144469D01*
X665109Y144469D01*
G37*
%LPD*%
%LPC*%
G36*
X741309Y144469D02*
X741309Y144469D01*
X737992Y145843D01*
X735453Y148382D01*
X734079Y151699D01*
X734079Y155289D01*
X735453Y158606D01*
X737992Y161145D01*
X741309Y162519D01*
X744899Y162519D01*
X748216Y161145D01*
X750755Y158606D01*
X752129Y155289D01*
X752129Y151699D01*
X750755Y148382D01*
X748216Y145843D01*
X744899Y144469D01*
X741309Y144469D01*
G37*
%LPD*%
%LPC*%
G36*
X792109Y144469D02*
X792109Y144469D01*
X788792Y145843D01*
X786253Y148382D01*
X784879Y151699D01*
X784879Y155289D01*
X786253Y158606D01*
X788792Y161145D01*
X792109Y162519D01*
X795699Y162519D01*
X799016Y161145D01*
X801555Y158606D01*
X802929Y155289D01*
X802929Y151699D01*
X801555Y148382D01*
X799016Y145843D01*
X795699Y144469D01*
X792109Y144469D01*
G37*
%LPD*%
%LPC*%
G36*
X588909Y144469D02*
X588909Y144469D01*
X585592Y145843D01*
X583053Y148382D01*
X581679Y151699D01*
X581679Y155289D01*
X583053Y158606D01*
X585592Y161145D01*
X588909Y162519D01*
X592499Y162519D01*
X595816Y161145D01*
X598355Y158606D01*
X599729Y155289D01*
X599729Y151699D01*
X598355Y148382D01*
X595816Y145843D01*
X592499Y144469D01*
X588909Y144469D01*
G37*
%LPD*%
%LPC*%
G36*
X842909Y347161D02*
X842909Y347161D01*
X839592Y348535D01*
X837053Y351074D01*
X835679Y354391D01*
X835679Y357981D01*
X837053Y361298D01*
X839592Y363837D01*
X842909Y365211D01*
X846499Y365211D01*
X849816Y363837D01*
X852355Y361298D01*
X853729Y357981D01*
X853729Y354391D01*
X852355Y351074D01*
X849816Y348535D01*
X846499Y347161D01*
X842909Y347161D01*
G37*
%LPD*%
%LPC*%
G36*
X766709Y347161D02*
X766709Y347161D01*
X763392Y348535D01*
X760853Y351074D01*
X759479Y354391D01*
X759479Y357981D01*
X760853Y361298D01*
X763392Y363837D01*
X766709Y365211D01*
X770299Y365211D01*
X773616Y363837D01*
X776155Y361298D01*
X777529Y357981D01*
X777529Y354391D01*
X776155Y351074D01*
X773616Y348535D01*
X770299Y347161D01*
X766709Y347161D01*
G37*
%LPD*%
%LPC*%
G36*
X614309Y347161D02*
X614309Y347161D01*
X610992Y348535D01*
X608453Y351074D01*
X607079Y354391D01*
X607079Y357981D01*
X608453Y361298D01*
X610992Y363837D01*
X614309Y365211D01*
X617899Y365211D01*
X621216Y363837D01*
X623755Y361298D01*
X625129Y357981D01*
X625129Y354391D01*
X623755Y351074D01*
X621216Y348535D01*
X617899Y347161D01*
X614309Y347161D01*
G37*
%LPD*%
%LPC*%
G36*
X766709Y144469D02*
X766709Y144469D01*
X763392Y145843D01*
X760853Y148382D01*
X759479Y151699D01*
X759479Y155289D01*
X760853Y158606D01*
X763392Y161145D01*
X766709Y162519D01*
X770299Y162519D01*
X773616Y161145D01*
X776155Y158606D01*
X777529Y155289D01*
X777529Y151699D01*
X776155Y148382D01*
X773616Y145843D01*
X770299Y144469D01*
X766709Y144469D01*
G37*
%LPD*%
G36*
X1123640Y497562D02*
X1123640Y497562D01*
X1123659Y497560D01*
X1123761Y497582D01*
X1123863Y497599D01*
X1123880Y497608D01*
X1123900Y497612D01*
X1123989Y497665D01*
X1124080Y497714D01*
X1124094Y497728D01*
X1124111Y497738D01*
X1124178Y497817D01*
X1124250Y497892D01*
X1124258Y497910D01*
X1124271Y497925D01*
X1124310Y498021D01*
X1124353Y498115D01*
X1124355Y498135D01*
X1124363Y498153D01*
X1124381Y498320D01*
X1124381Y526260D01*
X1124378Y526280D01*
X1124380Y526299D01*
X1124358Y526401D01*
X1124342Y526503D01*
X1124332Y526520D01*
X1124328Y526540D01*
X1124275Y526629D01*
X1124226Y526720D01*
X1124212Y526734D01*
X1124202Y526751D01*
X1124123Y526818D01*
X1124048Y526890D01*
X1124030Y526898D01*
X1124015Y526911D01*
X1123919Y526950D01*
X1123825Y526993D01*
X1123805Y526995D01*
X1123787Y527003D01*
X1123620Y527021D01*
X1116225Y527021D01*
X1116109Y527002D01*
X1115990Y526984D01*
X1115987Y526982D01*
X1115982Y526982D01*
X1115878Y526926D01*
X1115772Y526871D01*
X1115769Y526868D01*
X1115765Y526866D01*
X1115684Y526781D01*
X1115600Y526695D01*
X1115599Y526691D01*
X1115596Y526688D01*
X1115546Y526581D01*
X1115494Y526473D01*
X1115494Y526469D01*
X1115492Y526465D01*
X1115479Y526347D01*
X1115465Y526229D01*
X1115465Y526224D01*
X1115465Y526221D01*
X1115468Y526207D01*
X1115490Y526063D01*
X1115620Y525578D01*
X1115620Y523719D01*
X1111047Y523719D01*
X1111028Y523716D01*
X1111008Y523718D01*
X1110906Y523696D01*
X1110804Y523680D01*
X1110787Y523670D01*
X1110767Y523666D01*
X1110678Y523613D01*
X1110587Y523564D01*
X1110573Y523550D01*
X1110556Y523540D01*
X1110489Y523461D01*
X1110418Y523386D01*
X1110409Y523368D01*
X1110396Y523353D01*
X1110358Y523257D01*
X1110314Y523163D01*
X1110312Y523143D01*
X1110304Y523125D01*
X1110286Y522958D01*
X1110286Y521942D01*
X1110289Y521922D01*
X1110287Y521902D01*
X1110309Y521801D01*
X1110326Y521699D01*
X1110335Y521682D01*
X1110339Y521662D01*
X1110392Y521573D01*
X1110441Y521482D01*
X1110455Y521468D01*
X1110465Y521451D01*
X1110544Y521384D01*
X1110619Y521312D01*
X1110637Y521304D01*
X1110652Y521291D01*
X1110749Y521252D01*
X1110842Y521209D01*
X1110862Y521207D01*
X1110880Y521199D01*
X1111047Y521181D01*
X1115620Y521181D01*
X1115620Y519322D01*
X1115489Y518835D01*
X1115477Y518716D01*
X1115464Y518599D01*
X1115465Y518594D01*
X1115465Y518590D01*
X1115491Y518475D01*
X1115517Y518358D01*
X1115519Y518355D01*
X1115520Y518351D01*
X1115582Y518249D01*
X1115643Y518147D01*
X1115646Y518144D01*
X1115648Y518141D01*
X1115739Y518065D01*
X1115830Y517987D01*
X1115834Y517986D01*
X1115837Y517983D01*
X1115946Y517940D01*
X1116058Y517895D01*
X1116063Y517895D01*
X1116066Y517893D01*
X1116080Y517893D01*
X1116225Y517877D01*
X1116714Y517877D01*
X1117361Y517704D01*
X1117940Y517369D01*
X1118413Y516896D01*
X1118748Y516317D01*
X1118921Y515670D01*
X1118921Y512581D01*
X1109142Y512581D01*
X1109122Y512578D01*
X1109103Y512580D01*
X1109001Y512558D01*
X1108899Y512541D01*
X1108882Y512532D01*
X1108862Y512528D01*
X1108773Y512475D01*
X1108682Y512426D01*
X1108668Y512412D01*
X1108651Y512402D01*
X1108584Y512323D01*
X1108513Y512248D01*
X1108504Y512230D01*
X1108491Y512215D01*
X1108452Y512119D01*
X1108409Y512025D01*
X1108407Y512005D01*
X1108399Y511987D01*
X1108381Y511820D01*
X1108381Y510296D01*
X1108384Y510276D01*
X1108382Y510257D01*
X1108404Y510155D01*
X1108421Y510053D01*
X1108430Y510036D01*
X1108434Y510016D01*
X1108487Y509927D01*
X1108536Y509836D01*
X1108550Y509822D01*
X1108560Y509805D01*
X1108639Y509738D01*
X1108714Y509667D01*
X1108732Y509658D01*
X1108747Y509645D01*
X1108843Y509606D01*
X1108937Y509563D01*
X1108957Y509561D01*
X1108975Y509553D01*
X1109142Y509535D01*
X1118921Y509535D01*
X1118921Y506446D01*
X1118748Y505799D01*
X1118413Y505220D01*
X1117940Y504747D01*
X1117361Y504412D01*
X1117072Y504335D01*
X1117032Y504317D01*
X1116989Y504308D01*
X1116921Y504267D01*
X1116848Y504234D01*
X1116816Y504204D01*
X1116778Y504182D01*
X1116726Y504121D01*
X1116668Y504066D01*
X1116647Y504028D01*
X1116618Y503995D01*
X1116588Y503920D01*
X1116550Y503850D01*
X1116543Y503807D01*
X1116526Y503766D01*
X1116510Y503622D01*
X1116508Y503608D01*
X1116508Y503605D01*
X1116508Y503600D01*
X1116508Y498320D01*
X1116511Y498300D01*
X1116509Y498281D01*
X1116531Y498179D01*
X1116547Y498077D01*
X1116557Y498060D01*
X1116561Y498040D01*
X1116614Y497951D01*
X1116663Y497860D01*
X1116677Y497846D01*
X1116687Y497829D01*
X1116766Y497762D01*
X1116841Y497691D01*
X1116859Y497682D01*
X1116874Y497669D01*
X1116970Y497630D01*
X1117064Y497587D01*
X1117084Y497585D01*
X1117102Y497577D01*
X1117269Y497559D01*
X1123620Y497559D01*
X1123640Y497562D01*
G37*
%LPC*%
G36*
X1178383Y411871D02*
X1178383Y411871D01*
X1175395Y413109D01*
X1173109Y415395D01*
X1171871Y418383D01*
X1171871Y421617D01*
X1173109Y424605D01*
X1175395Y426891D01*
X1178383Y428129D01*
X1181617Y428129D01*
X1184605Y426891D01*
X1186891Y424605D01*
X1188129Y421617D01*
X1188129Y418383D01*
X1186891Y415395D01*
X1184605Y413109D01*
X1181617Y411871D01*
X1178383Y411871D01*
G37*
%LPD*%
G36*
X1062472Y523055D02*
X1062472Y523055D01*
X1062474Y523054D01*
X1062517Y523074D01*
X1062561Y523092D01*
X1062561Y523094D01*
X1062563Y523095D01*
X1062596Y523180D01*
X1062596Y529020D01*
X1062595Y529022D01*
X1062596Y529024D01*
X1062576Y529067D01*
X1062558Y529111D01*
X1062556Y529111D01*
X1062555Y529113D01*
X1062470Y529146D01*
X1042930Y529146D01*
X1042928Y529145D01*
X1042926Y529146D01*
X1042883Y529126D01*
X1042839Y529108D01*
X1042839Y529106D01*
X1042837Y529105D01*
X1042804Y529020D01*
X1042804Y523180D01*
X1042805Y523178D01*
X1042804Y523176D01*
X1042824Y523133D01*
X1042842Y523089D01*
X1042844Y523089D01*
X1042845Y523087D01*
X1042930Y523054D01*
X1062470Y523054D01*
X1062472Y523055D01*
G37*
G36*
X1062472Y503055D02*
X1062472Y503055D01*
X1062474Y503054D01*
X1062517Y503074D01*
X1062561Y503092D01*
X1062561Y503094D01*
X1062563Y503095D01*
X1062596Y503180D01*
X1062596Y509020D01*
X1062595Y509022D01*
X1062596Y509024D01*
X1062576Y509067D01*
X1062558Y509111D01*
X1062556Y509111D01*
X1062555Y509113D01*
X1062470Y509146D01*
X1042930Y509146D01*
X1042928Y509145D01*
X1042926Y509146D01*
X1042883Y509126D01*
X1042839Y509108D01*
X1042839Y509106D01*
X1042837Y509105D01*
X1042804Y509020D01*
X1042804Y503180D01*
X1042805Y503178D01*
X1042804Y503176D01*
X1042824Y503133D01*
X1042842Y503089D01*
X1042844Y503089D01*
X1042845Y503087D01*
X1042930Y503054D01*
X1062470Y503054D01*
X1062472Y503055D01*
G37*
%LPC*%
G36*
X1045643Y485873D02*
X1045643Y485873D01*
X1045643Y492684D01*
X1045816Y493331D01*
X1046151Y493910D01*
X1046522Y494281D01*
X1046550Y494320D01*
X1046585Y494352D01*
X1046621Y494419D01*
X1046665Y494481D01*
X1046679Y494526D01*
X1046702Y494569D01*
X1046715Y494643D01*
X1046738Y494716D01*
X1046736Y494764D01*
X1046745Y494811D01*
X1046733Y494886D01*
X1046731Y494962D01*
X1046715Y495007D01*
X1046708Y495054D01*
X1046673Y495121D01*
X1046647Y495193D01*
X1046617Y495230D01*
X1046595Y495273D01*
X1046540Y495325D01*
X1046493Y495385D01*
X1046453Y495411D01*
X1046418Y495444D01*
X1046350Y495477D01*
X1046286Y495518D01*
X1046240Y495529D01*
X1046196Y495550D01*
X1046121Y495559D01*
X1046048Y495578D01*
X1046000Y495574D01*
X1045952Y495580D01*
X1045825Y495560D01*
X1045812Y495559D01*
X1044961Y495559D01*
X1044961Y499879D01*
X1051939Y499879D01*
X1051939Y495559D01*
X1051700Y495559D01*
X1051680Y495556D01*
X1051661Y495558D01*
X1051559Y495536D01*
X1051457Y495520D01*
X1051440Y495510D01*
X1051420Y495506D01*
X1051331Y495453D01*
X1051240Y495404D01*
X1051226Y495390D01*
X1051209Y495380D01*
X1051142Y495301D01*
X1051071Y495226D01*
X1051062Y495208D01*
X1051049Y495193D01*
X1051010Y495097D01*
X1050967Y495003D01*
X1050965Y494983D01*
X1050957Y494965D01*
X1050939Y494798D01*
X1050939Y485873D01*
X1045643Y485873D01*
G37*
%LPD*%
%LPC*%
G36*
X572819Y412949D02*
X572819Y412949D01*
X572819Y423300D01*
X574116Y423095D01*
X575903Y422514D01*
X577577Y421661D01*
X579097Y420556D01*
X580426Y419227D01*
X581531Y417707D01*
X582384Y416033D01*
X582965Y414246D01*
X583170Y412949D01*
X572819Y412949D01*
G37*
%LPD*%
%LPC*%
G36*
X572819Y409951D02*
X572819Y409951D01*
X583170Y409951D01*
X582965Y408654D01*
X582384Y406867D01*
X581531Y405193D01*
X580426Y403673D01*
X579097Y402344D01*
X577577Y401239D01*
X575903Y400386D01*
X574116Y399805D01*
X572819Y399600D01*
X572819Y409951D01*
G37*
%LPD*%
%LPC*%
G36*
X559470Y412949D02*
X559470Y412949D01*
X559675Y414246D01*
X560256Y416033D01*
X561109Y417707D01*
X562214Y419227D01*
X563543Y420556D01*
X565063Y421661D01*
X566737Y422514D01*
X568524Y423095D01*
X569821Y423300D01*
X569821Y412949D01*
X559470Y412949D01*
G37*
%LPD*%
%LPC*%
G36*
X568524Y399805D02*
X568524Y399805D01*
X566737Y400386D01*
X565063Y401239D01*
X563543Y402344D01*
X562214Y403673D01*
X561109Y405193D01*
X560256Y406867D01*
X559675Y408654D01*
X559470Y409951D01*
X569821Y409951D01*
X569821Y399600D01*
X568524Y399805D01*
G37*
%LPD*%
%LPC*%
G36*
X195179Y85199D02*
X195179Y85199D01*
X195179Y95036D01*
X196357Y94849D01*
X198068Y94293D01*
X199671Y93476D01*
X201127Y92419D01*
X202399Y91147D01*
X203456Y89691D01*
X204273Y88088D01*
X204829Y86377D01*
X205016Y85199D01*
X195179Y85199D01*
G37*
%LPD*%
%LPC*%
G36*
X230799Y459939D02*
X230799Y459939D01*
X230799Y469776D01*
X231977Y469589D01*
X233688Y469033D01*
X235291Y468216D01*
X236747Y467159D01*
X238019Y465887D01*
X239076Y464431D01*
X239893Y462828D01*
X240449Y461117D01*
X240636Y459939D01*
X230799Y459939D01*
G37*
%LPD*%
%LPC*%
G36*
X231459Y265809D02*
X231459Y265809D01*
X231459Y275646D01*
X232637Y275459D01*
X234348Y274903D01*
X235951Y274086D01*
X237407Y273029D01*
X238679Y271757D01*
X239736Y270301D01*
X240553Y268698D01*
X241109Y266987D01*
X241296Y265809D01*
X231459Y265809D01*
G37*
%LPD*%
%LPC*%
G36*
X217964Y459939D02*
X217964Y459939D01*
X218151Y461117D01*
X218707Y462828D01*
X219524Y464431D01*
X220581Y465887D01*
X221853Y467159D01*
X223309Y468216D01*
X224912Y469033D01*
X226623Y469589D01*
X227801Y469776D01*
X227801Y459939D01*
X217964Y459939D01*
G37*
%LPD*%
%LPC*%
G36*
X182344Y85199D02*
X182344Y85199D01*
X182531Y86377D01*
X183087Y88088D01*
X183904Y89691D01*
X184961Y91147D01*
X186233Y92419D01*
X187689Y93476D01*
X189292Y94293D01*
X191003Y94849D01*
X192181Y95036D01*
X192181Y85199D01*
X182344Y85199D01*
G37*
%LPD*%
%LPC*%
G36*
X218624Y265809D02*
X218624Y265809D01*
X218811Y266987D01*
X219367Y268698D01*
X220184Y270301D01*
X221241Y271757D01*
X222513Y273029D01*
X223969Y274086D01*
X225572Y274903D01*
X227283Y275459D01*
X228461Y275646D01*
X228461Y265809D01*
X218624Y265809D01*
G37*
%LPD*%
%LPC*%
G36*
X230799Y456941D02*
X230799Y456941D01*
X240636Y456941D01*
X240449Y455763D01*
X239893Y454052D01*
X239076Y452449D01*
X238019Y450993D01*
X236747Y449721D01*
X235291Y448664D01*
X233688Y447847D01*
X231977Y447291D01*
X230799Y447104D01*
X230799Y456941D01*
G37*
%LPD*%
%LPC*%
G36*
X231459Y262811D02*
X231459Y262811D01*
X241296Y262811D01*
X241109Y261633D01*
X240553Y259922D01*
X239736Y258319D01*
X238679Y256863D01*
X237407Y255591D01*
X235951Y254534D01*
X234348Y253717D01*
X232637Y253161D01*
X231459Y252974D01*
X231459Y262811D01*
G37*
%LPD*%
%LPC*%
G36*
X195179Y82201D02*
X195179Y82201D01*
X205016Y82201D01*
X204829Y81023D01*
X204273Y79312D01*
X203456Y77709D01*
X202399Y76253D01*
X201127Y74981D01*
X199671Y73924D01*
X198068Y73107D01*
X196357Y72551D01*
X195179Y72364D01*
X195179Y82201D01*
G37*
%LPD*%
%LPC*%
G36*
X226623Y447291D02*
X226623Y447291D01*
X224912Y447847D01*
X223309Y448664D01*
X221853Y449721D01*
X220581Y450993D01*
X219524Y452449D01*
X218707Y454052D01*
X218151Y455763D01*
X217964Y456941D01*
X227801Y456941D01*
X227801Y447104D01*
X226623Y447291D01*
G37*
%LPD*%
%LPC*%
G36*
X227283Y253161D02*
X227283Y253161D01*
X225572Y253717D01*
X223969Y254534D01*
X222513Y255591D01*
X221241Y256863D01*
X220184Y258319D01*
X219367Y259922D01*
X218811Y261633D01*
X218624Y262811D01*
X228461Y262811D01*
X228461Y252974D01*
X227283Y253161D01*
G37*
%LPD*%
%LPC*%
G36*
X191003Y72551D02*
X191003Y72551D01*
X189292Y73107D01*
X187689Y73924D01*
X186233Y74981D01*
X184961Y76253D01*
X183904Y77709D01*
X183087Y79312D01*
X182531Y81023D01*
X182344Y82201D01*
X192181Y82201D01*
X192181Y72364D01*
X191003Y72551D01*
G37*
%LPD*%
%LPC*%
G36*
X846203Y154993D02*
X846203Y154993D01*
X846203Y163422D01*
X847055Y163287D01*
X848558Y162799D01*
X849967Y162082D01*
X851245Y161153D01*
X852363Y160035D01*
X853292Y158757D01*
X854009Y157348D01*
X854497Y155845D01*
X854632Y154993D01*
X846203Y154993D01*
G37*
%LPD*%
%LPC*%
G36*
X846203Y151995D02*
X846203Y151995D01*
X854632Y151995D01*
X854497Y151143D01*
X854009Y149640D01*
X853292Y148231D01*
X852363Y146953D01*
X851245Y145835D01*
X849967Y144906D01*
X848558Y144189D01*
X847055Y143701D01*
X846203Y143566D01*
X846203Y151995D01*
G37*
%LPD*%
%LPC*%
G36*
X834776Y154993D02*
X834776Y154993D01*
X834911Y155845D01*
X835399Y157348D01*
X836116Y158757D01*
X837045Y160035D01*
X838163Y161153D01*
X839441Y162082D01*
X840850Y162799D01*
X842353Y163287D01*
X843205Y163422D01*
X843205Y154993D01*
X834776Y154993D01*
G37*
%LPD*%
%LPC*%
G36*
X842353Y143701D02*
X842353Y143701D01*
X840850Y144189D01*
X839441Y144906D01*
X838163Y145835D01*
X837045Y146953D01*
X836116Y148231D01*
X835399Y149640D01*
X834911Y151143D01*
X834776Y151995D01*
X843205Y151995D01*
X843205Y143566D01*
X842353Y143701D01*
G37*
%LPD*%
%LPC*%
G36*
X1084541Y463013D02*
X1084541Y463013D01*
X1084541Y472031D01*
X1087630Y472031D01*
X1088277Y471858D01*
X1088856Y471523D01*
X1089329Y471050D01*
X1089664Y470471D01*
X1089837Y469824D01*
X1089837Y463013D01*
X1084541Y463013D01*
G37*
%LPD*%
%LPC*%
G36*
X1084541Y473809D02*
X1084541Y473809D01*
X1084541Y482827D01*
X1089837Y482827D01*
X1089837Y476016D01*
X1089664Y475369D01*
X1089329Y474790D01*
X1088856Y474317D01*
X1088277Y473982D01*
X1087630Y473809D01*
X1084541Y473809D01*
G37*
%LPD*%
%LPC*%
G36*
X1084541Y450949D02*
X1084541Y450949D01*
X1084541Y459967D01*
X1089837Y459967D01*
X1089837Y453156D01*
X1089664Y452509D01*
X1089329Y451930D01*
X1088856Y451457D01*
X1088277Y451122D01*
X1087630Y450949D01*
X1084541Y450949D01*
G37*
%LPD*%
%LPC*%
G36*
X1045643Y463013D02*
X1045643Y463013D01*
X1045643Y469824D01*
X1045816Y470471D01*
X1046151Y471050D01*
X1046624Y471523D01*
X1047203Y471858D01*
X1047850Y472031D01*
X1050939Y472031D01*
X1050939Y463013D01*
X1045643Y463013D01*
G37*
%LPD*%
%LPC*%
G36*
X1109903Y473683D02*
X1109903Y473683D01*
X1109903Y478979D01*
X1118921Y478979D01*
X1118921Y475890D01*
X1118748Y475243D01*
X1118413Y474664D01*
X1117940Y474191D01*
X1117361Y473856D01*
X1116714Y473683D01*
X1109903Y473683D01*
G37*
%LPD*%
%LPC*%
G36*
X1100046Y473683D02*
X1100046Y473683D01*
X1099399Y473856D01*
X1098820Y474191D01*
X1098347Y474664D01*
X1098012Y475243D01*
X1097839Y475890D01*
X1097839Y478979D01*
X1106857Y478979D01*
X1106857Y473683D01*
X1100046Y473683D01*
G37*
%LPD*%
%LPC*%
G36*
X1047850Y450949D02*
X1047850Y450949D01*
X1047203Y451122D01*
X1046624Y451457D01*
X1046151Y451930D01*
X1045816Y452509D01*
X1045643Y453156D01*
X1045643Y459967D01*
X1050939Y459967D01*
X1050939Y450949D01*
X1047850Y450949D01*
G37*
%LPD*%
%LPC*%
G36*
X1047850Y473809D02*
X1047850Y473809D01*
X1047203Y473982D01*
X1046624Y474317D01*
X1046151Y474790D01*
X1045816Y475369D01*
X1045643Y476016D01*
X1045643Y482827D01*
X1050939Y482827D01*
X1050939Y473809D01*
X1047850Y473809D01*
G37*
%LPD*%
%LPC*%
G36*
X1042596Y495559D02*
X1042596Y495559D01*
X1041949Y495732D01*
X1041370Y496067D01*
X1040897Y496540D01*
X1040562Y497119D01*
X1040389Y497766D01*
X1040389Y499879D01*
X1043439Y499879D01*
X1043439Y495559D01*
X1042596Y495559D01*
G37*
%LPD*%
G36*
X1095791Y517850D02*
X1095791Y517850D01*
X1095863Y517852D01*
X1095912Y517870D01*
X1095963Y517878D01*
X1096026Y517912D01*
X1096094Y517936D01*
X1096134Y517969D01*
X1096180Y517993D01*
X1096230Y518045D01*
X1096286Y518090D01*
X1096314Y518134D01*
X1096350Y518172D01*
X1096380Y518237D01*
X1096419Y518297D01*
X1096431Y518348D01*
X1096453Y518395D01*
X1096461Y518466D01*
X1096479Y518536D01*
X1096475Y518588D01*
X1096480Y518639D01*
X1096465Y518709D01*
X1096460Y518781D01*
X1096439Y518829D01*
X1096428Y518880D01*
X1096391Y518941D01*
X1096363Y519007D01*
X1096319Y519063D01*
X1096302Y519091D01*
X1096284Y519106D01*
X1096258Y519138D01*
X1096184Y519192D01*
X1096115Y519251D01*
X1096085Y519263D01*
X1096058Y519282D01*
X1095971Y519309D01*
X1095887Y519343D01*
X1095846Y519347D01*
X1095823Y519354D01*
X1095791Y519353D01*
X1095720Y519361D01*
X1091870Y519361D01*
X1091850Y519358D01*
X1091831Y519360D01*
X1091729Y519338D01*
X1091627Y519322D01*
X1091610Y519312D01*
X1091590Y519308D01*
X1091501Y519255D01*
X1091410Y519207D01*
X1091396Y519192D01*
X1091379Y519182D01*
X1091312Y519103D01*
X1091241Y519028D01*
X1091232Y519010D01*
X1091219Y518995D01*
X1091180Y518899D01*
X1091137Y518805D01*
X1091135Y518785D01*
X1091127Y518767D01*
X1091109Y518600D01*
X1091112Y518580D01*
X1091110Y518561D01*
X1091110Y518560D01*
X1091132Y518459D01*
X1091149Y518357D01*
X1091158Y518340D01*
X1091162Y518320D01*
X1091215Y518231D01*
X1091264Y518140D01*
X1091278Y518126D01*
X1091288Y518109D01*
X1091367Y518042D01*
X1091442Y517970D01*
X1091460Y517962D01*
X1091475Y517949D01*
X1091571Y517910D01*
X1091665Y517867D01*
X1091685Y517865D01*
X1091703Y517857D01*
X1091870Y517839D01*
X1095720Y517839D01*
X1095791Y517850D01*
G37*
%LPC*%
G36*
X229299Y458439D02*
X229299Y458439D01*
X229299Y458441D01*
X229301Y458441D01*
X229301Y458439D01*
X229299Y458439D01*
G37*
%LPD*%
%LPC*%
G36*
X571319Y411449D02*
X571319Y411449D01*
X571319Y411451D01*
X571321Y411451D01*
X571321Y411449D01*
X571319Y411449D01*
G37*
%LPD*%
%LPC*%
G36*
X193679Y83699D02*
X193679Y83699D01*
X193679Y83701D01*
X193681Y83701D01*
X193681Y83699D01*
X193679Y83699D01*
G37*
%LPD*%
%LPC*%
G36*
X229959Y264309D02*
X229959Y264309D01*
X229959Y264311D01*
X229961Y264311D01*
X229961Y264309D01*
X229959Y264309D01*
G37*
%LPD*%
%LPC*%
G36*
X844703Y153493D02*
X844703Y153493D01*
X844703Y153495D01*
X844705Y153495D01*
X844705Y153493D01*
X844703Y153493D01*
G37*
%LPD*%
D10*
X545920Y411450D03*
X571320Y411450D03*
X596720Y411450D03*
X622120Y411450D03*
D11*
X229300Y636240D03*
X254700Y636240D03*
X280100Y636240D03*
X305500Y636240D03*
X330900Y636240D03*
X356300Y636240D03*
X229300Y458440D03*
X254700Y458440D03*
X280100Y458440D03*
X305500Y458440D03*
X330900Y458440D03*
X356300Y458440D03*
D12*
X895504Y356186D03*
D13*
X870104Y356186D03*
X844704Y356186D03*
X819304Y356186D03*
X793904Y356186D03*
X768504Y356186D03*
X743104Y356186D03*
X717704Y356186D03*
X692304Y356186D03*
X666904Y356186D03*
X641504Y356186D03*
X616104Y356186D03*
X590704Y356186D03*
X565304Y356186D03*
D12*
X895504Y153494D03*
D13*
X870104Y153494D03*
X844704Y153494D03*
X819304Y153494D03*
X793904Y153494D03*
X768504Y153494D03*
X743104Y153494D03*
X717704Y153494D03*
X692304Y153494D03*
X666904Y153494D03*
X641504Y153494D03*
X616104Y153494D03*
X590704Y153494D03*
X565304Y153494D03*
D11*
X193680Y83700D03*
X219080Y83700D03*
X244480Y83700D03*
X269880Y83700D03*
X295280Y83700D03*
X320680Y83700D03*
X346080Y83700D03*
X371480Y83700D03*
X229960Y264310D03*
X255360Y264310D03*
X280760Y264310D03*
X306160Y264310D03*
X331560Y264310D03*
X356960Y264310D03*
X255360Y391310D03*
X280760Y391310D03*
X306160Y391310D03*
X331560Y391310D03*
D14*
X1180000Y420000D03*
X1180000Y399934D03*
X1180000Y380122D03*
D15*
X1197018Y364882D03*
D16*
X960000Y585000D03*
D17*
X910000Y585000D03*
D13*
X990000Y635000D03*
X880000Y635000D03*
D18*
X1080700Y530040D03*
D19*
X1074200Y528640D03*
X1067700Y528640D03*
D20*
X1061200Y531560D03*
X1052700Y531560D03*
X1044200Y531560D03*
X1044200Y500640D03*
X1052700Y500640D03*
X1061200Y500640D03*
D19*
X1067700Y503560D03*
X1074200Y503560D03*
D21*
X1080700Y501660D03*
D22*
X1089640Y503600D03*
X1089640Y508600D03*
D23*
X1087740Y513600D03*
X1087740Y518600D03*
D22*
X1089640Y523600D03*
X1089640Y528600D03*
D24*
X1070950Y518600D03*
X1070950Y513600D03*
D25*
X1083018Y461490D03*
X1052462Y461490D03*
X1083018Y484350D03*
X1052462Y484350D03*
D26*
X1108380Y511058D03*
X1108380Y480502D03*
D27*
X1085139Y554200D03*
X1096061Y554200D03*
D28*
X1100312Y531340D03*
X1111368Y531340D03*
D29*
X1101141Y522450D03*
X1110539Y522450D03*
D30*
X1063930Y546707D03*
X1063930Y561693D03*
D31*
X1082822Y541500D03*
X1098378Y541500D03*
D32*
X1115400Y635000D03*
D33*
X1064600Y635000D03*
D34*
X1177250Y225000D03*
X1162750Y225000D03*
D35*
X748000Y113032D03*
X756000Y113032D03*
D36*
X767500Y113032D03*
X777500Y113032D03*
X782500Y113032D03*
X792500Y113032D03*
D35*
X804000Y113032D03*
X812000Y113032D03*
D36*
X797501Y113032D03*
X787501Y113032D03*
D37*
X736800Y73378D02*
X736800Y61186D01*
X823200Y61186D02*
X823200Y73378D01*
X736800Y103218D02*
X736800Y111346D01*
X823200Y111346D02*
X823200Y103218D01*
D38*
X736820Y103368D03*
X823180Y111242D03*
X823180Y103368D03*
D36*
X772501Y113032D03*
X762501Y113032D03*
D38*
X736820Y73142D03*
X736820Y61204D03*
X823180Y73142D03*
X823180Y61204D03*
X736820Y111242D03*
D35*
X812000Y606968D03*
X804000Y606968D03*
D36*
X792500Y606968D03*
X782500Y606968D03*
X777500Y606968D03*
X767500Y606968D03*
D35*
X756000Y606968D03*
X748000Y606968D03*
D36*
X762499Y606968D03*
X772499Y606968D03*
D37*
X823200Y646622D02*
X823200Y658814D01*
X736800Y658814D02*
X736800Y646622D01*
X823200Y616782D02*
X823200Y608654D01*
X736800Y608654D02*
X736800Y616782D01*
D38*
X823180Y616632D03*
X736820Y608758D03*
X736820Y616632D03*
D36*
X787499Y606968D03*
X797499Y606968D03*
D38*
X823180Y646858D03*
X823180Y658796D03*
X736820Y646858D03*
X736820Y658796D03*
X823180Y608758D03*
D39*
X148032Y462000D03*
X148032Y454000D03*
D40*
X148032Y442500D03*
X148032Y432500D03*
X148032Y427500D03*
X148032Y417500D03*
D39*
X148032Y406000D03*
X148032Y398000D03*
D40*
X148032Y412499D03*
X148032Y422499D03*
D37*
X108378Y473200D02*
X96186Y473200D01*
X96186Y386800D02*
X108378Y386800D01*
X138218Y473200D02*
X146346Y473200D01*
X146346Y386800D02*
X138218Y386800D01*
D38*
X138368Y473180D03*
X146242Y386820D03*
X138368Y386820D03*
D40*
X148032Y437499D03*
X148032Y447499D03*
D38*
X108142Y473180D03*
X96204Y473180D03*
X108142Y386820D03*
X96204Y386820D03*
X146242Y473180D03*
D39*
X148032Y322000D03*
X148032Y314000D03*
D40*
X148032Y302500D03*
X148032Y292500D03*
X148032Y287500D03*
X148032Y277500D03*
D39*
X148032Y266000D03*
X148032Y258000D03*
D40*
X148032Y272499D03*
X148032Y282499D03*
D37*
X108378Y333200D02*
X96186Y333200D01*
X96186Y246800D02*
X108378Y246800D01*
X138218Y333200D02*
X146346Y333200D01*
X146346Y246800D02*
X138218Y246800D01*
D38*
X138368Y333180D03*
X146242Y246820D03*
X138368Y246820D03*
D40*
X148032Y297499D03*
X148032Y307499D03*
D38*
X108142Y333180D03*
X96204Y333180D03*
X108142Y246820D03*
X96204Y246820D03*
X146242Y333180D03*
D41*
X1117270Y470380D03*
X1117270Y462760D03*
X1117270Y455140D03*
X1109650Y455140D03*
X1109650Y462760D03*
X1109650Y470380D03*
X1095680Y470380D03*
X1095680Y462760D03*
X1095680Y455140D03*
X1093140Y479270D03*
X1093140Y486890D03*
X1093140Y494510D03*
D13*
X1195000Y255000D03*
D41*
X130000Y455000D03*
X130000Y405000D03*
X125000Y315000D03*
X125000Y265000D03*
X755000Y95000D03*
X805000Y95000D03*
X805000Y625000D03*
X755000Y625000D03*
D42*
X148032Y258000D02*
X132000Y258000D01*
X125000Y265000D01*
X132000Y322000D02*
X148032Y322000D01*
X132000Y322000D02*
X125000Y315000D01*
X137000Y398000D02*
X148032Y398000D01*
X137000Y398000D02*
X130000Y405000D01*
X137000Y462000D02*
X148032Y462000D01*
X137000Y462000D02*
X130000Y455000D01*
X748000Y606968D02*
X748000Y618000D01*
X755000Y625000D01*
X812000Y618000D02*
X812000Y606968D01*
X812000Y618000D02*
X805000Y625000D01*
X812000Y113032D02*
X812000Y102000D01*
X805000Y95000D01*
X748000Y102000D02*
X748000Y113032D01*
X748000Y102000D02*
X755000Y95000D01*
D43*
X717704Y153494D02*
X664210Y100000D01*
X430000Y100000D01*
X390000Y60000D01*
X290000Y60000D01*
X269880Y80120D01*
X269880Y83700D01*
X306160Y119980D01*
X305500Y445500D02*
X305500Y458440D01*
X305500Y470500D01*
X320000Y485000D01*
X565000Y485000D01*
X622120Y427880D02*
X622120Y411450D01*
X622120Y427880D02*
X565000Y485000D01*
X350000Y385000D02*
X306160Y341160D01*
X350000Y401000D02*
X305500Y445500D01*
X306160Y341160D02*
X306160Y264310D01*
X350000Y385000D02*
X350000Y401000D01*
X306160Y264310D02*
X306160Y119980D01*
X653810Y115000D02*
X692304Y153494D01*
X585000Y445000D02*
X435000Y445000D01*
X585000Y445000D02*
X596720Y433280D01*
X596720Y411450D01*
X385000Y395000D02*
X331560Y341560D01*
X385000Y395000D02*
X390000Y400000D01*
X394670Y404670D01*
X435000Y445000D01*
X331560Y341560D02*
X331560Y264310D01*
X389340Y400000D02*
X390000Y400000D01*
X384670Y404670D02*
X330900Y458440D01*
X384670Y404670D02*
X389340Y400000D01*
X384670Y404670D02*
X394670Y404670D01*
X384670Y404670D02*
X384670Y395330D01*
X385000Y395000D01*
X340000Y115000D02*
X653810Y115000D01*
X332500Y107500D02*
X320680Y95680D01*
X332500Y107500D02*
X340000Y115000D01*
X320680Y95680D02*
X320680Y83700D01*
X331560Y123440D02*
X331560Y264310D01*
X331560Y123440D02*
X340000Y115000D01*
X331560Y115000D02*
X331560Y264310D01*
X331560Y115000D02*
X331560Y108440D01*
X332500Y107500D01*
X331560Y115000D02*
X340000Y115000D01*
D44*
X1014600Y585000D02*
X1064600Y635000D01*
X1014600Y585000D02*
X960000Y585000D01*
D41*
X1104570Y554200D03*
X1042610Y461490D03*
D45*
X1096061Y554200D02*
X1104570Y554200D01*
D46*
X1098378Y551883D02*
X1096061Y554200D01*
X1098378Y551883D02*
X1098378Y541500D01*
D41*
X1065200Y438630D03*
X1065200Y431010D03*
X1057580Y431010D03*
X1056580Y447790D03*
X1042610Y472920D03*
X1042610Y484350D03*
D43*
X870104Y234896D02*
X870104Y153494D01*
D42*
X870104Y234896D02*
X870000Y235000D01*
D47*
X870000Y235000D03*
X870000Y265000D03*
D43*
X925000Y320000D01*
X925000Y370000D01*
X986010Y431010D01*
X1057580Y431010D01*
D42*
X804000Y595000D02*
X804000Y606968D01*
X804000Y595000D02*
X804000Y585000D01*
X804000Y501000D01*
X866370Y438630D02*
X1065200Y438630D01*
X866370Y438630D02*
X804000Y501000D01*
X804000Y585000D02*
X799000Y590000D01*
X760000Y590000D01*
X756000Y594000D01*
X756000Y596000D01*
X799000Y590000D02*
X804000Y595000D01*
X760000Y590000D02*
X750000Y590000D01*
X300000Y590000D01*
X164000Y454000D02*
X148032Y454000D01*
X170000Y460000D02*
X300000Y590000D01*
X170000Y460000D02*
X164000Y454000D01*
X170000Y448000D01*
X170000Y410000D01*
X166000Y406000D01*
X148032Y406000D01*
X166000Y406000D02*
X166000Y404000D01*
X170000Y400000D01*
X170000Y320000D01*
X164000Y314000D01*
X148032Y314000D01*
X164000Y314000D02*
X170000Y308000D01*
X170000Y270000D02*
X166000Y266000D01*
X148032Y266000D01*
X170000Y270000D02*
X170000Y308000D01*
X170000Y320000D01*
X170000Y400000D02*
X170000Y410000D01*
X170000Y448000D02*
X170000Y460000D01*
X750000Y590000D02*
X756000Y596000D01*
X756000Y606968D01*
X870104Y153494D02*
X851610Y135000D01*
X810000Y135000D01*
X804000Y129000D01*
X804000Y113032D01*
X800000Y135000D02*
X810000Y135000D01*
X800000Y135000D02*
X760000Y135000D01*
X756000Y131000D01*
X756000Y113032D01*
X800000Y133000D02*
X804000Y129000D01*
X800000Y133000D02*
X800000Y135000D01*
D45*
X1108380Y511058D02*
X1102830Y516608D01*
X1097339Y516608D01*
X1095347Y518600D02*
X1087740Y518600D01*
X1095347Y518600D02*
X1097339Y516608D01*
D44*
X1145000Y590400D02*
X1115400Y620000D01*
X1115400Y635000D01*
X1145000Y590400D02*
X1145000Y535000D01*
X1145000Y520000D01*
X1145000Y510000D01*
X1145000Y500000D01*
X1145000Y420000D01*
X1165066Y399934D01*
X1180000Y399934D01*
D42*
X1108380Y511058D02*
X1110539Y513217D01*
X1110539Y522450D01*
X1115000Y522450D01*
X1120000Y522450D01*
X1125000Y522450D01*
X1130000Y522450D01*
X1132450Y522450D01*
D43*
X1133942Y511058D02*
X1143942Y511058D01*
X1145000Y510000D01*
X1132450Y522450D02*
X1145000Y535000D01*
X1133942Y511058D02*
X1145000Y500000D01*
X1133942Y511058D02*
X1108380Y511058D01*
X1112322Y515000D01*
X1140000Y515000D02*
X1145000Y520000D01*
X1120000Y515000D02*
X1112322Y515000D01*
X1120000Y515000D02*
X1125000Y515000D01*
X1130000Y515000D01*
X1135000Y515000D02*
X1140000Y515000D01*
X1135000Y515000D02*
X1130000Y515000D01*
X1135000Y522450D02*
X1140000Y522450D01*
X1135000Y522450D02*
X1132450Y522450D01*
D42*
X1115000Y517678D02*
X1108380Y511058D01*
X1115000Y517678D02*
X1115000Y522450D01*
X1120000Y522450D02*
X1120000Y515000D01*
X1125000Y515000D02*
X1125000Y522450D01*
X1130000Y520000D02*
X1130000Y515000D01*
X1130000Y520000D02*
X1130000Y522450D01*
X1135000Y522450D02*
X1135000Y515000D01*
X1142550Y522450D02*
X1145000Y520000D01*
X1142550Y522450D02*
X1140000Y522450D01*
X1145000Y520000D02*
X1130000Y520000D01*
D48*
X1180000Y380122D02*
X1180000Y365122D01*
X1064878Y250000D01*
X641504Y166504D02*
X641504Y153494D01*
X725000Y250000D02*
X1064878Y250000D01*
X725000Y250000D02*
X641504Y166504D01*
D43*
X1080700Y530040D02*
X1080700Y549761D01*
X1085139Y554200D01*
X1080700Y558893D02*
X1080700Y530040D01*
X1080700Y558893D02*
X1077900Y561693D01*
X1063930Y561693D01*
D46*
X1082822Y541500D02*
X1080700Y539378D01*
X1080700Y530040D01*
D45*
X1097799Y525792D02*
X1101141Y522450D01*
X1090068Y524028D02*
X1089640Y523600D01*
X1094205Y524028D02*
X1095969Y525792D01*
X1094205Y524028D02*
X1090068Y524028D01*
X1095969Y525792D02*
X1097799Y525792D01*
X1100312Y531340D02*
X1092380Y531340D01*
X1089640Y528600D01*
D41*
X1072820Y538960D03*
D45*
X1074200Y537580D02*
X1074200Y528640D01*
X1074200Y537580D02*
X1072820Y538960D01*
D41*
X1110920Y538960D03*
D45*
X1111368Y538512D01*
X1111368Y531340D01*
X1067700Y534763D02*
X1066232Y536231D01*
X1067700Y534763D02*
X1067700Y528640D01*
D46*
X1066232Y544405D02*
X1063930Y546707D01*
D45*
X1066232Y544405D02*
X1066232Y536231D01*
D49*
X1145000Y227000D03*
D42*
X1162750Y225000D02*
X1164375Y227000D01*
X1145000Y227000D01*
D12*
X1195000Y225000D03*
D42*
X1195000Y225093D01*
X1194836Y225000D01*
X1177250Y225000D01*
M02*
