G04 EAGLE Gerber RS-274X export*
G75*
%MOMM*%
%FSLAX34Y34*%
%LPD*%
%INSoldermask Top*%
%IPPOS*%
%AMOC8*
5,1,8,0,0,1.08239X$1,22.5*%
G01*
%ADD10C,2.082800*%
%ADD11C,1.981200*%
%ADD12C,2.453200*%
%ADD13R,1.703200X1.703200*%
%ADD14C,1.703200*%
%ADD15C,3.003200*%
%ADD16C,3.505200*%
%ADD17C,1.524000*%
%ADD18C,1.993900*%
%ADD19R,2.753200X2.753200*%
%ADD20C,2.753200*%
%ADD21R,0.457200X1.016000*%
%ADD22R,0.508000X1.295400*%
%ADD23R,0.457200X0.711200*%
%ADD24R,0.457200X0.914400*%
%ADD25R,0.914400X0.457200*%
%ADD26R,1.295400X0.508000*%
%ADD27R,0.609600X0.457200*%
%ADD28R,1.058800X1.803200*%
%ADD29R,1.803200X1.058800*%
%ADD30R,0.863600X0.762000*%
%ADD31R,0.808800X0.703200*%
%ADD32R,0.711200X0.762000*%
%ADD33R,1.193800X0.914400*%
%ADD34R,0.958800X1.003197*%
%ADD35R,1.853200X1.853200*%
%ADD36C,1.853200*%
%ADD37R,0.853200X1.103200*%
%ADD38R,0.812800X1.346200*%
%ADD39R,0.508000X1.346200*%
%ADD40C,1.193800*%
%ADD41C,1.117600*%
%ADD42R,1.346200X0.812800*%
%ADD43R,1.346200X0.508000*%
%ADD44C,0.858800*%
%ADD45C,0.808800*%
%ADD46C,0.958800*%

G36*
X1062472Y523055D02*
X1062472Y523055D01*
X1062474Y523054D01*
X1062517Y523074D01*
X1062561Y523092D01*
X1062561Y523094D01*
X1062563Y523095D01*
X1062596Y523180D01*
X1062596Y529020D01*
X1062595Y529022D01*
X1062596Y529024D01*
X1062576Y529067D01*
X1062558Y529111D01*
X1062556Y529111D01*
X1062555Y529113D01*
X1062470Y529146D01*
X1042930Y529146D01*
X1042928Y529145D01*
X1042926Y529146D01*
X1042883Y529126D01*
X1042839Y529108D01*
X1042839Y529106D01*
X1042837Y529105D01*
X1042804Y529020D01*
X1042804Y523180D01*
X1042805Y523178D01*
X1042804Y523176D01*
X1042824Y523133D01*
X1042842Y523089D01*
X1042844Y523089D01*
X1042845Y523087D01*
X1042930Y523054D01*
X1062470Y523054D01*
X1062472Y523055D01*
G37*
G36*
X1062472Y503055D02*
X1062472Y503055D01*
X1062474Y503054D01*
X1062517Y503074D01*
X1062561Y503092D01*
X1062561Y503094D01*
X1062563Y503095D01*
X1062596Y503180D01*
X1062596Y509020D01*
X1062595Y509022D01*
X1062596Y509024D01*
X1062576Y509067D01*
X1062558Y509111D01*
X1062556Y509111D01*
X1062555Y509113D01*
X1062470Y509146D01*
X1042930Y509146D01*
X1042928Y509145D01*
X1042926Y509146D01*
X1042883Y509126D01*
X1042839Y509108D01*
X1042839Y509106D01*
X1042837Y509105D01*
X1042804Y509020D01*
X1042804Y503180D01*
X1042805Y503178D01*
X1042804Y503176D01*
X1042824Y503133D01*
X1042842Y503089D01*
X1042844Y503089D01*
X1042845Y503087D01*
X1042930Y503054D01*
X1062470Y503054D01*
X1062472Y503055D01*
G37*
D10*
X545920Y411450D03*
X571320Y411450D03*
X596720Y411450D03*
X622120Y411450D03*
D11*
X229300Y636240D03*
X254700Y636240D03*
X280100Y636240D03*
X305500Y636240D03*
X330900Y636240D03*
X356300Y636240D03*
X229300Y458440D03*
X254700Y458440D03*
X280100Y458440D03*
X305500Y458440D03*
X330900Y458440D03*
X356300Y458440D03*
D12*
X1095930Y361540D03*
X1095930Y148140D03*
X476130Y148140D03*
X476130Y361540D03*
D13*
X895504Y356186D03*
D14*
X870104Y356186D03*
X844704Y356186D03*
X819304Y356186D03*
X793904Y356186D03*
X768504Y356186D03*
X743104Y356186D03*
X717704Y356186D03*
X692304Y356186D03*
X666904Y356186D03*
X641504Y356186D03*
X616104Y356186D03*
X590704Y356186D03*
X565304Y356186D03*
D13*
X895504Y153494D03*
D14*
X870104Y153494D03*
X844704Y153494D03*
X819304Y153494D03*
X793904Y153494D03*
X768504Y153494D03*
X743104Y153494D03*
X717704Y153494D03*
X692304Y153494D03*
X666904Y153494D03*
X641504Y153494D03*
X616104Y153494D03*
X590704Y153494D03*
X565304Y153494D03*
D15*
X119960Y634760D03*
X1180000Y630000D03*
X115860Y80260D03*
D11*
X193680Y83700D03*
X219080Y83700D03*
X244480Y83700D03*
X269880Y83700D03*
X295280Y83700D03*
X320680Y83700D03*
X346080Y83700D03*
X371480Y83700D03*
X229960Y264310D03*
X255360Y264310D03*
X280760Y264310D03*
X306160Y264310D03*
X331560Y264310D03*
X356960Y264310D03*
X255360Y391310D03*
X280760Y391310D03*
X306160Y391310D03*
X331560Y391310D03*
D16*
X481900Y639920D03*
X685100Y639920D03*
D17*
X1180000Y420000D03*
X1180000Y399934D03*
X1180000Y380122D03*
D18*
X1197018Y364882D03*
D19*
X960000Y585000D03*
D20*
X910000Y585000D03*
D14*
X990000Y635000D03*
X880000Y635000D03*
D21*
X1080700Y530040D03*
D22*
X1074200Y528640D03*
X1067700Y528640D03*
D23*
X1061200Y531560D03*
X1052700Y531560D03*
X1044200Y531560D03*
X1044200Y500640D03*
X1052700Y500640D03*
X1061200Y500640D03*
D22*
X1067700Y503560D03*
X1074200Y503560D03*
D24*
X1080700Y501660D03*
D25*
X1089640Y503600D03*
X1089640Y508600D03*
D26*
X1087740Y513600D03*
X1087740Y518600D03*
D25*
X1089640Y523600D03*
X1089640Y528600D03*
D27*
X1070950Y518600D03*
X1070950Y513600D03*
D28*
X1083018Y461490D03*
X1052462Y461490D03*
X1083018Y484350D03*
X1052462Y484350D03*
D29*
X1108380Y511058D03*
X1108380Y480502D03*
D30*
X1085139Y554200D03*
X1096061Y554200D03*
D31*
X1100312Y531340D03*
X1111368Y531340D03*
D32*
X1101141Y522450D03*
X1110539Y522450D03*
D33*
X1063930Y546707D03*
X1063930Y561693D03*
D34*
X1082822Y541500D03*
X1098378Y541500D03*
D35*
X1115400Y635000D03*
D36*
X1064600Y635000D03*
D37*
X1177250Y225000D03*
X1162750Y225000D03*
D15*
X1180000Y90000D03*
D38*
X748000Y113032D03*
X756000Y113032D03*
D39*
X767500Y113032D03*
X777500Y113032D03*
X782500Y113032D03*
X792500Y113032D03*
D38*
X804000Y113032D03*
X812000Y113032D03*
D39*
X797501Y113032D03*
X787501Y113032D03*
D40*
X736800Y73378D02*
X736800Y61186D01*
X823200Y61186D02*
X823200Y73378D01*
X736800Y103218D02*
X736800Y111346D01*
X823200Y111346D02*
X823200Y103218D01*
D41*
X736820Y103368D03*
X823180Y111242D03*
X823180Y103368D03*
D39*
X772501Y113032D03*
X762501Y113032D03*
D41*
X736820Y73142D03*
X736820Y61204D03*
X823180Y73142D03*
X823180Y61204D03*
X736820Y111242D03*
D38*
X812000Y606968D03*
X804000Y606968D03*
D39*
X792500Y606968D03*
X782500Y606968D03*
X777500Y606968D03*
X767500Y606968D03*
D38*
X756000Y606968D03*
X748000Y606968D03*
D39*
X762499Y606968D03*
X772499Y606968D03*
D40*
X823200Y646622D02*
X823200Y658814D01*
X736800Y658814D02*
X736800Y646622D01*
X823200Y616782D02*
X823200Y608654D01*
X736800Y608654D02*
X736800Y616782D01*
D41*
X823180Y616632D03*
X736820Y608758D03*
X736820Y616632D03*
D39*
X787499Y606968D03*
X797499Y606968D03*
D41*
X823180Y646858D03*
X823180Y658796D03*
X736820Y646858D03*
X736820Y658796D03*
X823180Y608758D03*
D42*
X148032Y462000D03*
X148032Y454000D03*
D43*
X148032Y442500D03*
X148032Y432500D03*
X148032Y427500D03*
X148032Y417500D03*
D42*
X148032Y406000D03*
X148032Y398000D03*
D43*
X148032Y412499D03*
X148032Y422499D03*
D40*
X108378Y473200D02*
X96186Y473200D01*
X96186Y386800D02*
X108378Y386800D01*
X138218Y473200D02*
X146346Y473200D01*
X146346Y386800D02*
X138218Y386800D01*
D41*
X138368Y473180D03*
X146242Y386820D03*
X138368Y386820D03*
D43*
X148032Y437499D03*
X148032Y447499D03*
D41*
X108142Y473180D03*
X96204Y473180D03*
X108142Y386820D03*
X96204Y386820D03*
X146242Y473180D03*
D42*
X148032Y322000D03*
X148032Y314000D03*
D43*
X148032Y302500D03*
X148032Y292500D03*
X148032Y287500D03*
X148032Y277500D03*
D42*
X148032Y266000D03*
X148032Y258000D03*
D43*
X148032Y272499D03*
X148032Y282499D03*
D40*
X108378Y333200D02*
X96186Y333200D01*
X96186Y246800D02*
X108378Y246800D01*
X138218Y333200D02*
X146346Y333200D01*
X146346Y246800D02*
X138218Y246800D01*
D41*
X138368Y333180D03*
X146242Y246820D03*
X138368Y246820D03*
D43*
X148032Y297499D03*
X148032Y307499D03*
D41*
X108142Y333180D03*
X96204Y333180D03*
X108142Y246820D03*
X96204Y246820D03*
X146242Y333180D03*
D44*
X1117270Y470380D03*
X1117270Y462760D03*
X1117270Y455140D03*
X1109650Y455140D03*
X1109650Y462760D03*
X1109650Y470380D03*
X1095680Y470380D03*
X1095680Y462760D03*
X1095680Y455140D03*
X1093140Y479270D03*
X1093140Y486890D03*
X1093140Y494510D03*
D14*
X1195000Y255000D03*
D44*
X130000Y455000D03*
X130000Y405000D03*
X125000Y315000D03*
X125000Y265000D03*
X755000Y95000D03*
X805000Y95000D03*
X805000Y625000D03*
X755000Y625000D03*
X1104570Y554200D03*
X1042610Y461490D03*
X1065200Y438630D03*
X1065200Y431010D03*
X1057580Y431010D03*
X1056580Y447790D03*
X1042610Y472920D03*
X1042610Y484350D03*
D45*
X870000Y235000D03*
X870000Y265000D03*
D44*
X1072820Y538960D03*
X1110920Y538960D03*
D46*
X1145000Y227000D03*
D13*
X1195000Y225000D03*
M02*
