G04 EAGLE Gerber RS-274X export*
G75*
%MOMM*%
%FSLAX34Y34*%
%LPD*%
%INSoldermask Bottom*%
%IPPOS*%
%AMOC8*
5,1,8,0,0,1.08239X$1,22.5*%
G01*
%ADD10C,2.082800*%
%ADD11C,1.981200*%
%ADD12C,2.453200*%
%ADD13R,1.703200X1.703200*%
%ADD14C,1.703200*%
%ADD15C,3.003200*%
%ADD16C,3.505200*%
%ADD17C,1.524000*%
%ADD18C,1.993900*%
%ADD19R,2.753200X2.753200*%
%ADD20C,2.753200*%
%ADD21R,1.853200X1.853200*%
%ADD22C,1.853200*%
%ADD23C,1.117600*%
%ADD24C,0.858800*%
%ADD25C,0.808800*%
%ADD26C,0.958800*%


D10*
X545920Y411450D03*
X571320Y411450D03*
X596720Y411450D03*
X622120Y411450D03*
D11*
X229300Y636240D03*
X254700Y636240D03*
X280100Y636240D03*
X305500Y636240D03*
X330900Y636240D03*
X356300Y636240D03*
X229300Y458440D03*
X254700Y458440D03*
X280100Y458440D03*
X305500Y458440D03*
X330900Y458440D03*
X356300Y458440D03*
D12*
X1095930Y361540D03*
X1095930Y148140D03*
X476130Y148140D03*
X476130Y361540D03*
D13*
X895504Y356186D03*
D14*
X870104Y356186D03*
X844704Y356186D03*
X819304Y356186D03*
X793904Y356186D03*
X768504Y356186D03*
X743104Y356186D03*
X717704Y356186D03*
X692304Y356186D03*
X666904Y356186D03*
X641504Y356186D03*
X616104Y356186D03*
X590704Y356186D03*
X565304Y356186D03*
D13*
X895504Y153494D03*
D14*
X870104Y153494D03*
X844704Y153494D03*
X819304Y153494D03*
X793904Y153494D03*
X768504Y153494D03*
X743104Y153494D03*
X717704Y153494D03*
X692304Y153494D03*
X666904Y153494D03*
X641504Y153494D03*
X616104Y153494D03*
X590704Y153494D03*
X565304Y153494D03*
D15*
X119960Y634760D03*
X1180000Y630000D03*
X115860Y80260D03*
D11*
X193680Y83700D03*
X219080Y83700D03*
X244480Y83700D03*
X269880Y83700D03*
X295280Y83700D03*
X320680Y83700D03*
X346080Y83700D03*
X371480Y83700D03*
X229960Y264310D03*
X255360Y264310D03*
X280760Y264310D03*
X306160Y264310D03*
X331560Y264310D03*
X356960Y264310D03*
X255360Y391310D03*
X280760Y391310D03*
X306160Y391310D03*
X331560Y391310D03*
D16*
X481900Y639920D03*
X685100Y639920D03*
D17*
X1180000Y420000D03*
X1180000Y399934D03*
X1180000Y380122D03*
D18*
X1197018Y364882D03*
D19*
X960000Y585000D03*
D20*
X910000Y585000D03*
D14*
X990000Y635000D03*
X880000Y635000D03*
D21*
X1115400Y635000D03*
D22*
X1064600Y635000D03*
D15*
X1180000Y90000D03*
D23*
X736820Y103368D03*
X823180Y111242D03*
X823180Y103368D03*
X736820Y73142D03*
X736820Y61204D03*
X823180Y73142D03*
X823180Y61204D03*
X736820Y111242D03*
X823180Y616632D03*
X736820Y608758D03*
X736820Y616632D03*
X823180Y646858D03*
X823180Y658796D03*
X736820Y646858D03*
X736820Y658796D03*
X823180Y608758D03*
X138368Y473180D03*
X146242Y386820D03*
X138368Y386820D03*
X108142Y473180D03*
X96204Y473180D03*
X108142Y386820D03*
X96204Y386820D03*
X146242Y473180D03*
X138368Y333180D03*
X146242Y246820D03*
X138368Y246820D03*
X108142Y333180D03*
X96204Y333180D03*
X108142Y246820D03*
X96204Y246820D03*
X146242Y333180D03*
D24*
X1117270Y470380D03*
X1117270Y462760D03*
X1117270Y455140D03*
X1109650Y455140D03*
X1109650Y462760D03*
X1109650Y470380D03*
X1095680Y470380D03*
X1095680Y462760D03*
X1095680Y455140D03*
X1093140Y479270D03*
X1093140Y486890D03*
X1093140Y494510D03*
D14*
X1195000Y255000D03*
D24*
X130000Y455000D03*
X130000Y405000D03*
X125000Y315000D03*
X125000Y265000D03*
X755000Y95000D03*
X805000Y95000D03*
X805000Y625000D03*
X755000Y625000D03*
X1104570Y554200D03*
X1042610Y461490D03*
X1065200Y438630D03*
X1065200Y431010D03*
X1057580Y431010D03*
X1056580Y447790D03*
X1042610Y472920D03*
X1042610Y484350D03*
D25*
X870000Y235000D03*
X870000Y265000D03*
D24*
X1072820Y538960D03*
X1110920Y538960D03*
D26*
X1145000Y227000D03*
D13*
X1195000Y225000D03*
M02*
