G04 EAGLE Gerber RS-274X export*
G75*
%MOMM*%
%FSLAX34Y34*%
%LPD*%
%INSolderpaste Top*%
%IPPOS*%
%AMOC8*
5,1,8,0,0,1.08239X$1,22.5*%
G01*
%ADD10R,0.254000X0.812800*%
%ADD11R,0.304800X1.092200*%
%ADD12R,0.254000X0.508000*%
%ADD13R,0.254000X0.711200*%
%ADD14R,0.711200X0.254000*%
%ADD15R,1.092200X0.304800*%
%ADD16R,0.406400X0.254000*%
%ADD17R,0.855600X1.600000*%
%ADD18R,1.600000X0.855600*%
%ADD19R,0.660400X0.558800*%
%ADD20R,0.605600X0.500000*%
%ADD21R,0.508000X0.558800*%
%ADD22R,0.990600X0.711200*%
%ADD23R,0.755600X0.799997*%
%ADD24R,0.650000X0.900000*%
%ADD25R,0.609600X1.143000*%
%ADD26R,0.304800X1.143000*%
%ADD27C,0.990600*%
%ADD28R,1.143000X0.609600*%
%ADD29R,1.143000X0.304800*%

G36*
X1062472Y523055D02*
X1062472Y523055D01*
X1062474Y523054D01*
X1062517Y523074D01*
X1062561Y523092D01*
X1062561Y523094D01*
X1062563Y523095D01*
X1062596Y523180D01*
X1062596Y529020D01*
X1062595Y529022D01*
X1062596Y529024D01*
X1062576Y529067D01*
X1062558Y529111D01*
X1062556Y529111D01*
X1062555Y529113D01*
X1062470Y529146D01*
X1042930Y529146D01*
X1042928Y529145D01*
X1042926Y529146D01*
X1042883Y529126D01*
X1042839Y529108D01*
X1042839Y529106D01*
X1042837Y529105D01*
X1042804Y529020D01*
X1042804Y523180D01*
X1042805Y523178D01*
X1042804Y523176D01*
X1042824Y523133D01*
X1042842Y523089D01*
X1042844Y523089D01*
X1042845Y523087D01*
X1042930Y523054D01*
X1062470Y523054D01*
X1062472Y523055D01*
G37*
G36*
X1062472Y503055D02*
X1062472Y503055D01*
X1062474Y503054D01*
X1062517Y503074D01*
X1062561Y503092D01*
X1062561Y503094D01*
X1062563Y503095D01*
X1062596Y503180D01*
X1062596Y509020D01*
X1062595Y509022D01*
X1062596Y509024D01*
X1062576Y509067D01*
X1062558Y509111D01*
X1062556Y509111D01*
X1062555Y509113D01*
X1062470Y509146D01*
X1042930Y509146D01*
X1042928Y509145D01*
X1042926Y509146D01*
X1042883Y509126D01*
X1042839Y509108D01*
X1042839Y509106D01*
X1042837Y509105D01*
X1042804Y509020D01*
X1042804Y503180D01*
X1042805Y503178D01*
X1042804Y503176D01*
X1042824Y503133D01*
X1042842Y503089D01*
X1042844Y503089D01*
X1042845Y503087D01*
X1042930Y503054D01*
X1062470Y503054D01*
X1062472Y503055D01*
G37*
D10*
X1080700Y530040D03*
D11*
X1074200Y528640D03*
X1067700Y528640D03*
D12*
X1061200Y531560D03*
X1052700Y531560D03*
X1044200Y531560D03*
X1044200Y500640D03*
X1052700Y500640D03*
X1061200Y500640D03*
D11*
X1067700Y503560D03*
X1074200Y503560D03*
D13*
X1080700Y501660D03*
D14*
X1089640Y503600D03*
X1089640Y508600D03*
D15*
X1087740Y513600D03*
X1087740Y518600D03*
D14*
X1089640Y523600D03*
X1089640Y528600D03*
D16*
X1070950Y518600D03*
X1070950Y513600D03*
D17*
X1083018Y461490D03*
X1052462Y461490D03*
X1083018Y484350D03*
X1052462Y484350D03*
D18*
X1108380Y511058D03*
X1108380Y480502D03*
D19*
X1085139Y554200D03*
X1096061Y554200D03*
D20*
X1100312Y531340D03*
X1111368Y531340D03*
D21*
X1101141Y522450D03*
X1110539Y522450D03*
D22*
X1063930Y546707D03*
X1063930Y561693D03*
D23*
X1082822Y541500D03*
X1098378Y541500D03*
D24*
X1177250Y225000D03*
X1162750Y225000D03*
D25*
X748000Y113032D03*
X756000Y113032D03*
D26*
X767500Y113032D03*
X777500Y113032D03*
X782500Y113032D03*
X792500Y113032D03*
D25*
X804000Y113032D03*
X812000Y113032D03*
D26*
X797501Y113032D03*
X787501Y113032D03*
D27*
X736800Y73378D02*
X736800Y61186D01*
X823200Y61186D02*
X823200Y73378D01*
X736800Y103218D02*
X736800Y111346D01*
X823200Y111346D02*
X823200Y103218D01*
D26*
X772501Y113032D03*
X762501Y113032D03*
D25*
X812000Y606968D03*
X804000Y606968D03*
D26*
X792500Y606968D03*
X782500Y606968D03*
X777500Y606968D03*
X767500Y606968D03*
D25*
X756000Y606968D03*
X748000Y606968D03*
D26*
X762499Y606968D03*
X772499Y606968D03*
D27*
X823200Y646622D02*
X823200Y658814D01*
X736800Y658814D02*
X736800Y646622D01*
X823200Y616782D02*
X823200Y608654D01*
X736800Y608654D02*
X736800Y616782D01*
D26*
X787499Y606968D03*
X797499Y606968D03*
D28*
X148032Y462000D03*
X148032Y454000D03*
D29*
X148032Y442500D03*
X148032Y432500D03*
X148032Y427500D03*
X148032Y417500D03*
D28*
X148032Y406000D03*
X148032Y398000D03*
D29*
X148032Y412499D03*
X148032Y422499D03*
D27*
X108378Y473200D02*
X96186Y473200D01*
X96186Y386800D02*
X108378Y386800D01*
X138218Y473200D02*
X146346Y473200D01*
X146346Y386800D02*
X138218Y386800D01*
D29*
X148032Y437499D03*
X148032Y447499D03*
D28*
X148032Y322000D03*
X148032Y314000D03*
D29*
X148032Y302500D03*
X148032Y292500D03*
X148032Y287500D03*
X148032Y277500D03*
D28*
X148032Y266000D03*
X148032Y258000D03*
D29*
X148032Y272499D03*
X148032Y282499D03*
D27*
X108378Y333200D02*
X96186Y333200D01*
X96186Y246800D02*
X108378Y246800D01*
X138218Y333200D02*
X146346Y333200D01*
X146346Y246800D02*
X138218Y246800D01*
D29*
X148032Y297499D03*
X148032Y307499D03*
M02*
