G04 EAGLE Gerber RS-274X export*
G75*
%MOMM*%
%FSLAX34Y34*%
%LPD*%
%INTop Copper*%
%IPPOS*%
%AMOC8*
5,1,8,0,0,1.08239X$1,22.5*%
G01*
%ADD10C,1.879600*%
%ADD11C,1.778000*%
%ADD12R,1.508000X1.508000*%
%ADD13C,1.508000*%
%ADD14R,1.650000X1.650000*%
%ADD15C,1.650000*%
%ADD16C,1.790700*%
%ADD17C,3.216000*%
%ADD18C,0.406400*%
%ADD19C,0.508000*%
%ADD20C,1.016000*%

G36*
X1213364Y55915D02*
X1213364Y55915D01*
X1213389Y55912D01*
X1213484Y55934D01*
X1213581Y55950D01*
X1213602Y55962D01*
X1213626Y55968D01*
X1213710Y56019D01*
X1213796Y56065D01*
X1213813Y56083D01*
X1213834Y56096D01*
X1213896Y56172D01*
X1213963Y56243D01*
X1213973Y56266D01*
X1213989Y56285D01*
X1214023Y56376D01*
X1214064Y56466D01*
X1214066Y56490D01*
X1214075Y56513D01*
X1214089Y56660D01*
X1214089Y99211D01*
X1214077Y99284D01*
X1214075Y99357D01*
X1214058Y99403D01*
X1214050Y99452D01*
X1214015Y99517D01*
X1213989Y99585D01*
X1213958Y99624D01*
X1213935Y99667D01*
X1213881Y99717D01*
X1213834Y99774D01*
X1213793Y99800D01*
X1213757Y99834D01*
X1213690Y99864D01*
X1213627Y99903D01*
X1213579Y99914D01*
X1213534Y99935D01*
X1213461Y99942D01*
X1213390Y99959D01*
X1213341Y99954D01*
X1213291Y99959D01*
X1213220Y99942D01*
X1213147Y99935D01*
X1213102Y99915D01*
X1213054Y99904D01*
X1212991Y99865D01*
X1212924Y99835D01*
X1212868Y99788D01*
X1212846Y99775D01*
X1212836Y99762D01*
X1212810Y99741D01*
X1208058Y94989D01*
X1200189Y91729D01*
X1191671Y91729D01*
X1183802Y94989D01*
X1177779Y101012D01*
X1174519Y108881D01*
X1174519Y117399D01*
X1177779Y125268D01*
X1183802Y131291D01*
X1191671Y134551D01*
X1200189Y134551D01*
X1208058Y131291D01*
X1212810Y126539D01*
X1212870Y126496D01*
X1212924Y126446D01*
X1212968Y126426D01*
X1213009Y126397D01*
X1213079Y126376D01*
X1213146Y126345D01*
X1213195Y126340D01*
X1213242Y126326D01*
X1213315Y126328D01*
X1213389Y126321D01*
X1213437Y126332D01*
X1213486Y126334D01*
X1213555Y126360D01*
X1213626Y126376D01*
X1213668Y126403D01*
X1213714Y126420D01*
X1213771Y126466D01*
X1213834Y126505D01*
X1213865Y126543D01*
X1213903Y126575D01*
X1213942Y126637D01*
X1213989Y126694D01*
X1214006Y126740D01*
X1214032Y126782D01*
X1214049Y126853D01*
X1214075Y126922D01*
X1214082Y126995D01*
X1214088Y127019D01*
X1214086Y127036D01*
X1214089Y127069D01*
X1214089Y312611D01*
X1214077Y312684D01*
X1214075Y312757D01*
X1214058Y312803D01*
X1214050Y312852D01*
X1214015Y312917D01*
X1213989Y312985D01*
X1213958Y313024D01*
X1213935Y313067D01*
X1213881Y313117D01*
X1213834Y313174D01*
X1213793Y313200D01*
X1213757Y313234D01*
X1213690Y313264D01*
X1213627Y313303D01*
X1213579Y313314D01*
X1213534Y313335D01*
X1213461Y313342D01*
X1213390Y313359D01*
X1213341Y313354D01*
X1213291Y313359D01*
X1213220Y313342D01*
X1213147Y313335D01*
X1213102Y313315D01*
X1213054Y313304D01*
X1212991Y313265D01*
X1212924Y313235D01*
X1212868Y313188D01*
X1212846Y313175D01*
X1212836Y313162D01*
X1212810Y313141D01*
X1208058Y308389D01*
X1200189Y305129D01*
X1191671Y305129D01*
X1183802Y308389D01*
X1177779Y314412D01*
X1174519Y322281D01*
X1174519Y330799D01*
X1177779Y338668D01*
X1183802Y344691D01*
X1191671Y347951D01*
X1200189Y347951D01*
X1208058Y344691D01*
X1212810Y339939D01*
X1212870Y339896D01*
X1212924Y339846D01*
X1212968Y339826D01*
X1213009Y339797D01*
X1213079Y339776D01*
X1213146Y339745D01*
X1213195Y339740D01*
X1213242Y339726D01*
X1213315Y339728D01*
X1213389Y339721D01*
X1213437Y339732D01*
X1213486Y339734D01*
X1213555Y339760D01*
X1213626Y339776D01*
X1213668Y339803D01*
X1213714Y339820D01*
X1213771Y339866D01*
X1213834Y339905D01*
X1213865Y339943D01*
X1213903Y339975D01*
X1213942Y340037D01*
X1213989Y340094D01*
X1214006Y340140D01*
X1214032Y340182D01*
X1214049Y340253D01*
X1214075Y340322D01*
X1214082Y340395D01*
X1214088Y340419D01*
X1214086Y340436D01*
X1214089Y340469D01*
X1214089Y607572D01*
X1214077Y607645D01*
X1214075Y607718D01*
X1214058Y607764D01*
X1214050Y607813D01*
X1214015Y607878D01*
X1213989Y607946D01*
X1213958Y607985D01*
X1213935Y608028D01*
X1213881Y608078D01*
X1213834Y608135D01*
X1213793Y608161D01*
X1213757Y608195D01*
X1213690Y608225D01*
X1213627Y608264D01*
X1213579Y608275D01*
X1213534Y608296D01*
X1213461Y608303D01*
X1213390Y608320D01*
X1213341Y608315D01*
X1213291Y608320D01*
X1213220Y608303D01*
X1213147Y608296D01*
X1213102Y608276D01*
X1213054Y608265D01*
X1212991Y608226D01*
X1212924Y608196D01*
X1212868Y608149D01*
X1212846Y608136D01*
X1212836Y608123D01*
X1212810Y608102D01*
X1205787Y601078D01*
X1195876Y596029D01*
X1184890Y594289D01*
X1173904Y596029D01*
X1163993Y601078D01*
X1156128Y608943D01*
X1151079Y618854D01*
X1149339Y629840D01*
X1151079Y640826D01*
X1156128Y650737D01*
X1163993Y658602D01*
X1171983Y662672D01*
X1172038Y662713D01*
X1172099Y662745D01*
X1172136Y662785D01*
X1172179Y662817D01*
X1172218Y662873D01*
X1172265Y662924D01*
X1172288Y662973D01*
X1172319Y663017D01*
X1172338Y663083D01*
X1172366Y663146D01*
X1172372Y663200D01*
X1172387Y663252D01*
X1172383Y663320D01*
X1172390Y663389D01*
X1172378Y663441D01*
X1172376Y663495D01*
X1172351Y663559D01*
X1172335Y663626D01*
X1172306Y663672D01*
X1172287Y663723D01*
X1172243Y663775D01*
X1172206Y663834D01*
X1172164Y663868D01*
X1172130Y663909D01*
X1172071Y663945D01*
X1172018Y663989D01*
X1171967Y664008D01*
X1171921Y664036D01*
X1171854Y664051D01*
X1171790Y664075D01*
X1171706Y664083D01*
X1171682Y664088D01*
X1171669Y664087D01*
X1171643Y664089D01*
X278050Y664089D01*
X277983Y664078D01*
X277914Y664077D01*
X277863Y664058D01*
X277810Y664050D01*
X277749Y664017D01*
X277685Y663994D01*
X277642Y663960D01*
X277594Y663935D01*
X277548Y663884D01*
X277494Y663842D01*
X277465Y663796D01*
X277428Y663757D01*
X277399Y663694D01*
X277362Y663636D01*
X277349Y663584D01*
X277327Y663534D01*
X277320Y663466D01*
X277304Y663399D01*
X277308Y663345D01*
X277303Y663291D01*
X277318Y663225D01*
X277324Y663156D01*
X277346Y663107D01*
X277358Y663054D01*
X277394Y662995D01*
X277422Y662933D01*
X277458Y662892D01*
X277487Y662846D01*
X277540Y662803D01*
X277586Y662752D01*
X277656Y662707D01*
X277675Y662692D01*
X277688Y662687D01*
X277710Y662672D01*
X285857Y658522D01*
X293722Y650657D01*
X298771Y640746D01*
X300511Y629760D01*
X298771Y618774D01*
X293722Y608863D01*
X285857Y600998D01*
X275946Y595949D01*
X264960Y594209D01*
X253974Y595949D01*
X244063Y600998D01*
X237190Y607872D01*
X237130Y607915D01*
X237076Y607965D01*
X237032Y607985D01*
X236991Y608014D01*
X236921Y608035D01*
X236854Y608066D01*
X236805Y608071D01*
X236758Y608085D01*
X236685Y608083D01*
X236611Y608090D01*
X236563Y608079D01*
X236514Y608077D01*
X236445Y608051D01*
X236374Y608035D01*
X236332Y608009D01*
X236286Y607991D01*
X236229Y607945D01*
X236166Y607906D01*
X236135Y607868D01*
X236097Y607837D01*
X236058Y607774D01*
X236011Y607717D01*
X235994Y607671D01*
X235968Y607629D01*
X235951Y607558D01*
X235925Y607489D01*
X235918Y607416D01*
X235912Y607392D01*
X235914Y607375D01*
X235911Y607342D01*
X235911Y111778D01*
X235923Y111705D01*
X235925Y111632D01*
X235942Y111586D01*
X235950Y111537D01*
X235985Y111472D01*
X236011Y111404D01*
X236042Y111365D01*
X236065Y111322D01*
X236119Y111272D01*
X236166Y111215D01*
X236207Y111189D01*
X236243Y111155D01*
X236310Y111125D01*
X236373Y111086D01*
X236421Y111075D01*
X236466Y111054D01*
X236539Y111047D01*
X236610Y111030D01*
X236659Y111035D01*
X236709Y111030D01*
X236780Y111047D01*
X236853Y111054D01*
X236898Y111074D01*
X236946Y111085D01*
X237009Y111124D01*
X237076Y111154D01*
X237132Y111201D01*
X237154Y111214D01*
X237164Y111227D01*
X237190Y111248D01*
X244963Y119022D01*
X254874Y124071D01*
X265860Y125811D01*
X276846Y124071D01*
X286757Y119022D01*
X294622Y111157D01*
X299671Y101246D01*
X301411Y90260D01*
X299671Y79274D01*
X294622Y69363D01*
X286757Y61498D01*
X278571Y57328D01*
X278516Y57287D01*
X278455Y57255D01*
X278418Y57215D01*
X278375Y57183D01*
X278335Y57127D01*
X278288Y57076D01*
X278266Y57027D01*
X278235Y56983D01*
X278216Y56917D01*
X278188Y56854D01*
X278182Y56800D01*
X278167Y56748D01*
X278170Y56680D01*
X278163Y56611D01*
X278176Y56559D01*
X278178Y56505D01*
X278203Y56441D01*
X278219Y56374D01*
X278247Y56328D01*
X278267Y56277D01*
X278311Y56225D01*
X278347Y56166D01*
X278389Y56132D01*
X278424Y56091D01*
X278483Y56055D01*
X278536Y56011D01*
X278586Y55992D01*
X278633Y55964D01*
X278700Y55949D01*
X278764Y55925D01*
X278847Y55917D01*
X278871Y55912D01*
X278885Y55913D01*
X278911Y55911D01*
X1213340Y55911D01*
X1213364Y55915D01*
G37*
%LPC*%
G36*
X408997Y71443D02*
X408997Y71443D01*
X387603Y92837D01*
X387603Y184010D01*
X387583Y184133D01*
X387564Y184250D01*
X387564Y184251D01*
X387502Y184365D01*
X387449Y184465D01*
X387449Y184466D01*
X387365Y184544D01*
X387271Y184632D01*
X387271Y184633D01*
X387270Y184633D01*
X387141Y184702D01*
X385261Y185481D01*
X382331Y188411D01*
X380745Y192238D01*
X380745Y196382D01*
X382331Y200209D01*
X385261Y203139D01*
X387140Y203918D01*
X387141Y203918D01*
X387229Y203973D01*
X387348Y204046D01*
X387348Y204047D01*
X387423Y204138D01*
X387503Y204235D01*
X387545Y204348D01*
X387589Y204463D01*
X387589Y204464D01*
X387589Y204465D01*
X387603Y204610D01*
X387603Y287223D01*
X398577Y298197D01*
X431286Y298197D01*
X431383Y298213D01*
X431480Y298222D01*
X431502Y298232D01*
X431527Y298236D01*
X431613Y298282D01*
X431702Y298323D01*
X431728Y298344D01*
X431742Y298351D01*
X431759Y298370D01*
X431816Y298416D01*
X441724Y308324D01*
X441781Y308403D01*
X441843Y308478D01*
X441851Y308502D01*
X441866Y308522D01*
X441894Y308615D01*
X441929Y308707D01*
X441932Y308740D01*
X441937Y308756D01*
X441936Y308780D01*
X441943Y308854D01*
X441943Y438140D01*
X441923Y438262D01*
X441904Y438380D01*
X441904Y438381D01*
X441842Y438496D01*
X441789Y438595D01*
X441789Y438596D01*
X441705Y438674D01*
X441611Y438762D01*
X441611Y438763D01*
X441610Y438763D01*
X441481Y438832D01*
X439601Y439611D01*
X436671Y442541D01*
X435085Y446368D01*
X435085Y450512D01*
X436671Y454339D01*
X439601Y457269D01*
X441480Y458048D01*
X441481Y458048D01*
X441569Y458103D01*
X441688Y458176D01*
X441688Y458177D01*
X441763Y458268D01*
X441843Y458365D01*
X441885Y458477D01*
X441929Y458593D01*
X441929Y458594D01*
X441929Y458595D01*
X441943Y458740D01*
X441943Y482533D01*
X459537Y500127D01*
X923483Y500127D01*
X948437Y475173D01*
X948437Y424000D01*
X948464Y423836D01*
X948476Y423760D01*
X948476Y423759D01*
X948541Y423639D01*
X948591Y423545D01*
X948591Y423544D01*
X948682Y423460D01*
X948769Y423378D01*
X948769Y423377D01*
X948770Y423377D01*
X948899Y423308D01*
X950779Y422529D01*
X953709Y419599D01*
X955295Y415772D01*
X955295Y411628D01*
X953709Y407801D01*
X950779Y404871D01*
X946952Y403285D01*
X942808Y403285D01*
X938981Y404871D01*
X936051Y407801D01*
X934465Y411628D01*
X934465Y415772D01*
X936051Y419599D01*
X938981Y422529D01*
X940860Y423308D01*
X940861Y423308D01*
X940949Y423363D01*
X941068Y423436D01*
X941068Y423437D01*
X941143Y423528D01*
X941223Y423625D01*
X941265Y423738D01*
X941309Y423853D01*
X941309Y423854D01*
X941309Y423855D01*
X941323Y424000D01*
X941323Y471916D01*
X941307Y472013D01*
X941298Y472110D01*
X941288Y472132D01*
X941284Y472157D01*
X941238Y472243D01*
X941197Y472332D01*
X941176Y472358D01*
X941169Y472372D01*
X941150Y472389D01*
X941104Y472446D01*
X920756Y492794D01*
X920677Y492851D01*
X920602Y492913D01*
X920578Y492921D01*
X920558Y492936D01*
X920465Y492964D01*
X920373Y492999D01*
X920340Y493002D01*
X920324Y493007D01*
X920299Y493006D01*
X920226Y493013D01*
X746784Y493013D01*
X746687Y492997D01*
X746590Y492988D01*
X746568Y492978D01*
X746543Y492974D01*
X746457Y492928D01*
X746368Y492887D01*
X746342Y492866D01*
X746328Y492859D01*
X746311Y492840D01*
X746254Y492794D01*
X740896Y487436D01*
X740839Y487357D01*
X740777Y487282D01*
X740769Y487258D01*
X740754Y487238D01*
X740726Y487145D01*
X740691Y487053D01*
X740688Y487020D01*
X740683Y487004D01*
X740684Y486979D01*
X740677Y486906D01*
X740677Y412300D01*
X740701Y412152D01*
X740716Y412060D01*
X740716Y412059D01*
X740774Y411952D01*
X740831Y411845D01*
X740831Y411844D01*
X740925Y411756D01*
X741009Y411678D01*
X741009Y411677D01*
X741010Y411677D01*
X741139Y411608D01*
X743307Y410710D01*
X746380Y407637D01*
X748043Y403623D01*
X748043Y399277D01*
X746380Y395263D01*
X743307Y392190D01*
X739293Y390527D01*
X734947Y390527D01*
X730933Y392190D01*
X727860Y395263D01*
X726197Y399277D01*
X726197Y403623D01*
X727860Y407637D01*
X730933Y410710D01*
X733100Y411608D01*
X733101Y411608D01*
X733181Y411658D01*
X733308Y411736D01*
X733308Y411737D01*
X733383Y411828D01*
X733463Y411925D01*
X733505Y412037D01*
X733549Y412153D01*
X733549Y412154D01*
X733549Y412155D01*
X733563Y412300D01*
X733563Y487666D01*
X733547Y487763D01*
X733538Y487860D01*
X733528Y487882D01*
X733524Y487907D01*
X733478Y487993D01*
X733437Y488082D01*
X733416Y488108D01*
X733409Y488122D01*
X733390Y488139D01*
X733344Y488196D01*
X728746Y492794D01*
X728667Y492851D01*
X728592Y492913D01*
X728568Y492921D01*
X728548Y492936D01*
X728455Y492964D01*
X728363Y492999D01*
X728330Y493002D01*
X728314Y493007D01*
X728290Y493006D01*
X728216Y493013D01*
X462794Y493013D01*
X462697Y492997D01*
X462600Y492988D01*
X462578Y492978D01*
X462553Y492974D01*
X462467Y492928D01*
X462378Y492887D01*
X462352Y492866D01*
X462338Y492859D01*
X462321Y492840D01*
X462264Y492794D01*
X449276Y479806D01*
X449219Y479727D01*
X449157Y479652D01*
X449149Y479628D01*
X449134Y479608D01*
X449106Y479515D01*
X449071Y479423D01*
X449068Y479390D01*
X449063Y479374D01*
X449064Y479349D01*
X449057Y479276D01*
X449057Y458740D01*
X449084Y458576D01*
X449096Y458500D01*
X449096Y458499D01*
X449161Y458379D01*
X449211Y458285D01*
X449211Y458284D01*
X449299Y458203D01*
X449389Y458118D01*
X449389Y458117D01*
X449390Y458117D01*
X449519Y458048D01*
X451399Y457269D01*
X454329Y454339D01*
X455915Y450512D01*
X455915Y446368D01*
X454329Y442541D01*
X451399Y439611D01*
X449520Y438832D01*
X449519Y438832D01*
X449428Y438775D01*
X449312Y438704D01*
X449312Y438703D01*
X449224Y438596D01*
X449157Y438515D01*
X449096Y438352D01*
X449071Y438287D01*
X449071Y438286D01*
X449071Y438285D01*
X449057Y438140D01*
X449057Y305597D01*
X446754Y303294D01*
X436846Y293386D01*
X434543Y291083D01*
X401834Y291083D01*
X401737Y291067D01*
X401640Y291058D01*
X401618Y291048D01*
X401593Y291044D01*
X401507Y290998D01*
X401418Y290957D01*
X401392Y290936D01*
X401378Y290929D01*
X401361Y290910D01*
X401304Y290864D01*
X394936Y284496D01*
X394879Y284417D01*
X394817Y284342D01*
X394809Y284318D01*
X394794Y284298D01*
X394766Y284205D01*
X394731Y284113D01*
X394728Y284080D01*
X394723Y284064D01*
X394724Y284039D01*
X394717Y283966D01*
X394717Y204610D01*
X394745Y204440D01*
X394756Y204370D01*
X394756Y204369D01*
X394822Y204248D01*
X394871Y204155D01*
X394871Y204154D01*
X394965Y204066D01*
X395049Y203988D01*
X395049Y203987D01*
X395050Y203987D01*
X395179Y203918D01*
X397059Y203139D01*
X399989Y200209D01*
X401575Y196382D01*
X401575Y192238D01*
X399989Y188411D01*
X397059Y185481D01*
X395180Y184702D01*
X395179Y184702D01*
X395088Y184645D01*
X394972Y184574D01*
X394972Y184573D01*
X394884Y184466D01*
X394817Y184385D01*
X394756Y184222D01*
X394731Y184157D01*
X394731Y184156D01*
X394731Y184155D01*
X394717Y184010D01*
X394717Y96094D01*
X394733Y95997D01*
X394742Y95900D01*
X394752Y95878D01*
X394756Y95853D01*
X394802Y95767D01*
X394843Y95678D01*
X394864Y95652D01*
X394871Y95638D01*
X394890Y95621D01*
X394936Y95564D01*
X411724Y78776D01*
X411803Y78719D01*
X411878Y78657D01*
X411902Y78649D01*
X411922Y78634D01*
X412015Y78606D01*
X412107Y78571D01*
X412140Y78568D01*
X412156Y78563D01*
X412181Y78564D01*
X412254Y78557D01*
X998216Y78557D01*
X998313Y78573D01*
X998410Y78582D01*
X998432Y78592D01*
X998457Y78596D01*
X998543Y78642D01*
X998632Y78683D01*
X998658Y78704D01*
X998672Y78711D01*
X998689Y78730D01*
X998746Y78776D01*
X1016224Y96254D01*
X1016281Y96333D01*
X1016343Y96408D01*
X1016351Y96432D01*
X1016366Y96452D01*
X1016394Y96545D01*
X1016429Y96637D01*
X1016432Y96670D01*
X1016437Y96686D01*
X1016436Y96711D01*
X1016443Y96784D01*
X1016443Y138216D01*
X1016427Y138313D01*
X1016418Y138410D01*
X1016408Y138432D01*
X1016404Y138457D01*
X1016358Y138543D01*
X1016317Y138632D01*
X1016296Y138658D01*
X1016289Y138672D01*
X1016270Y138689D01*
X1016224Y138746D01*
X1003746Y151224D01*
X1003667Y151281D01*
X1003592Y151343D01*
X1003568Y151351D01*
X1003548Y151366D01*
X1003455Y151394D01*
X1003363Y151429D01*
X1003330Y151432D01*
X1003314Y151437D01*
X1003289Y151436D01*
X1003216Y151443D01*
X835994Y151443D01*
X835897Y151427D01*
X835800Y151418D01*
X835778Y151408D01*
X835753Y151404D01*
X835667Y151358D01*
X835578Y151317D01*
X835552Y151296D01*
X835538Y151289D01*
X835521Y151270D01*
X835464Y151224D01*
X821480Y137240D01*
X821423Y137161D01*
X821361Y137086D01*
X821353Y137062D01*
X821338Y137042D01*
X821310Y136949D01*
X821275Y136857D01*
X821272Y136824D01*
X821267Y136808D01*
X821268Y136783D01*
X821261Y136710D01*
X821261Y127333D01*
X821286Y127182D01*
X821300Y127093D01*
X821300Y127092D01*
X821371Y126960D01*
X821415Y126877D01*
X821499Y126799D01*
X821593Y126710D01*
X821594Y126710D01*
X821723Y126641D01*
X822839Y126179D01*
X825389Y123629D01*
X826769Y120297D01*
X826769Y116691D01*
X825389Y113359D01*
X822839Y110809D01*
X819507Y109429D01*
X815901Y109429D01*
X812569Y110809D01*
X810019Y113359D01*
X808639Y116691D01*
X808639Y120297D01*
X810019Y123629D01*
X812569Y126179D01*
X813684Y126641D01*
X813685Y126641D01*
X813770Y126694D01*
X813892Y126769D01*
X813892Y126770D01*
X813963Y126856D01*
X814047Y126958D01*
X814096Y127089D01*
X814133Y127186D01*
X814133Y127187D01*
X814133Y127188D01*
X814147Y127333D01*
X814147Y139967D01*
X832737Y158557D01*
X1006473Y158557D01*
X1023557Y141473D01*
X1023557Y93527D01*
X1001473Y71443D01*
X408997Y71443D01*
G37*
%LPD*%
%LPC*%
G36*
X648527Y96443D02*
X648527Y96443D01*
X646224Y98746D01*
X618746Y126224D01*
X616443Y128527D01*
X616443Y341473D01*
X638527Y363557D01*
X703216Y363557D01*
X703313Y363573D01*
X703410Y363582D01*
X703432Y363592D01*
X703457Y363596D01*
X703543Y363642D01*
X703632Y363683D01*
X703658Y363704D01*
X703672Y363711D01*
X703689Y363730D01*
X703746Y363776D01*
X707944Y367974D01*
X708001Y368053D01*
X708063Y368128D01*
X708071Y368152D01*
X708086Y368172D01*
X708114Y368265D01*
X708149Y368357D01*
X708152Y368390D01*
X708157Y368406D01*
X708156Y368430D01*
X708163Y368504D01*
X708163Y390600D01*
X708143Y390725D01*
X708124Y390840D01*
X708124Y390841D01*
X708066Y390948D01*
X708009Y391055D01*
X708009Y391056D01*
X707925Y391134D01*
X707831Y391222D01*
X707831Y391223D01*
X707830Y391223D01*
X707701Y391292D01*
X705533Y392190D01*
X702460Y395263D01*
X700797Y399277D01*
X700797Y403623D01*
X702460Y407637D01*
X705533Y410710D01*
X707700Y411608D01*
X707701Y411608D01*
X707781Y411658D01*
X707908Y411736D01*
X707908Y411737D01*
X707983Y411828D01*
X708063Y411925D01*
X708105Y412037D01*
X708149Y412153D01*
X708149Y412154D01*
X708149Y412155D01*
X708163Y412300D01*
X708163Y468866D01*
X708147Y468963D01*
X708138Y469060D01*
X708128Y469082D01*
X708124Y469107D01*
X708078Y469193D01*
X708037Y469282D01*
X708016Y469308D01*
X708009Y469322D01*
X707990Y469339D01*
X707944Y469396D01*
X698516Y478824D01*
X698437Y478881D01*
X698362Y478943D01*
X698338Y478951D01*
X698318Y478966D01*
X698225Y478994D01*
X698133Y479029D01*
X698100Y479032D01*
X698084Y479037D01*
X698059Y479036D01*
X697986Y479043D01*
X489464Y479043D01*
X489367Y479027D01*
X489270Y479018D01*
X489248Y479008D01*
X489223Y479004D01*
X489137Y478958D01*
X489048Y478917D01*
X489022Y478896D01*
X489008Y478889D01*
X488991Y478870D01*
X488934Y478824D01*
X484073Y473963D01*
X483114Y473963D01*
X483017Y473947D01*
X482920Y473938D01*
X482898Y473928D01*
X482873Y473924D01*
X482787Y473878D01*
X482698Y473837D01*
X482672Y473816D01*
X482658Y473809D01*
X482641Y473790D01*
X482584Y473744D01*
X474676Y465836D01*
X474619Y465757D01*
X474557Y465682D01*
X474549Y465658D01*
X474534Y465638D01*
X474506Y465545D01*
X474471Y465453D01*
X474468Y465420D01*
X474463Y465404D01*
X474464Y465379D01*
X474457Y465306D01*
X474457Y458740D01*
X474484Y458576D01*
X474496Y458500D01*
X474496Y458499D01*
X474561Y458379D01*
X474611Y458285D01*
X474611Y458284D01*
X474699Y458203D01*
X474789Y458118D01*
X474789Y458117D01*
X474790Y458117D01*
X474919Y458048D01*
X476799Y457269D01*
X479729Y454339D01*
X481315Y450512D01*
X481315Y446368D01*
X479729Y442541D01*
X476799Y439611D01*
X475190Y438944D01*
X475189Y438944D01*
X475099Y438887D01*
X474982Y438815D01*
X474903Y438718D01*
X474827Y438627D01*
X474827Y438626D01*
X474777Y438492D01*
X474741Y438399D01*
X474741Y438398D01*
X474741Y438397D01*
X474727Y438252D01*
X474727Y284277D01*
X458673Y268223D01*
X427234Y268223D01*
X427137Y268207D01*
X427040Y268198D01*
X427018Y268188D01*
X426993Y268184D01*
X426907Y268138D01*
X426818Y268097D01*
X426792Y268076D01*
X426778Y268069D01*
X426761Y268050D01*
X426704Y268004D01*
X420336Y261636D01*
X420279Y261557D01*
X420217Y261482D01*
X420209Y261458D01*
X420194Y261438D01*
X420166Y261345D01*
X420131Y261253D01*
X420128Y261220D01*
X420123Y261204D01*
X420124Y261179D01*
X420117Y261106D01*
X420117Y204610D01*
X420145Y204440D01*
X420156Y204370D01*
X420156Y204369D01*
X420222Y204248D01*
X420271Y204155D01*
X420271Y204154D01*
X420365Y204066D01*
X420449Y203988D01*
X420449Y203987D01*
X420450Y203987D01*
X420579Y203918D01*
X422459Y203139D01*
X425389Y200209D01*
X426975Y196382D01*
X426975Y192238D01*
X425389Y188411D01*
X422459Y185481D01*
X418632Y183895D01*
X414488Y183895D01*
X410661Y185481D01*
X407731Y188411D01*
X406145Y192238D01*
X406145Y196382D01*
X407731Y200209D01*
X410661Y203139D01*
X412540Y203918D01*
X412541Y203918D01*
X412629Y203973D01*
X412748Y204046D01*
X412748Y204047D01*
X412823Y204138D01*
X412903Y204235D01*
X412945Y204348D01*
X412989Y204463D01*
X412989Y204464D01*
X412989Y204465D01*
X413003Y204610D01*
X413003Y264363D01*
X423977Y275337D01*
X455416Y275337D01*
X455513Y275353D01*
X455610Y275362D01*
X455632Y275372D01*
X455657Y275376D01*
X455743Y275422D01*
X455832Y275463D01*
X455858Y275484D01*
X455872Y275491D01*
X455889Y275510D01*
X455946Y275556D01*
X467394Y287004D01*
X467451Y287083D01*
X467513Y287158D01*
X467521Y287182D01*
X467536Y287202D01*
X467564Y287295D01*
X467599Y287387D01*
X467602Y287420D01*
X467607Y287436D01*
X467606Y287461D01*
X467613Y287534D01*
X467613Y438028D01*
X467609Y438055D01*
X467611Y438077D01*
X467591Y438163D01*
X467574Y438268D01*
X467574Y438269D01*
X467561Y438292D01*
X467556Y438314D01*
X467508Y438391D01*
X467459Y438483D01*
X467459Y438484D01*
X467439Y438502D01*
X467427Y438522D01*
X467355Y438581D01*
X467281Y438650D01*
X467281Y438651D01*
X467280Y438651D01*
X467251Y438666D01*
X467239Y438677D01*
X467216Y438685D01*
X467151Y438720D01*
X465001Y439611D01*
X462071Y442541D01*
X460485Y446368D01*
X460485Y450512D01*
X462071Y454339D01*
X465001Y457269D01*
X466880Y458048D01*
X466881Y458048D01*
X466969Y458103D01*
X467088Y458176D01*
X467088Y458177D01*
X467163Y458268D01*
X467243Y458365D01*
X467285Y458477D01*
X467329Y458593D01*
X467329Y458594D01*
X467329Y458595D01*
X467343Y458740D01*
X467343Y468563D01*
X481127Y482347D01*
X482086Y482347D01*
X482183Y482363D01*
X482280Y482372D01*
X482302Y482382D01*
X482327Y482386D01*
X482413Y482432D01*
X482502Y482473D01*
X482528Y482494D01*
X482542Y482501D01*
X482559Y482520D01*
X482616Y482566D01*
X486207Y486157D01*
X701243Y486157D01*
X715277Y472123D01*
X715277Y412300D01*
X715301Y412152D01*
X715316Y412060D01*
X715316Y412059D01*
X715374Y411952D01*
X715431Y411845D01*
X715431Y411844D01*
X715525Y411756D01*
X715609Y411678D01*
X715609Y411677D01*
X715610Y411677D01*
X715739Y411608D01*
X717907Y410710D01*
X720980Y407637D01*
X722643Y403623D01*
X722643Y399277D01*
X720980Y395263D01*
X717907Y392190D01*
X715740Y391292D01*
X715739Y391292D01*
X715651Y391237D01*
X715532Y391164D01*
X715532Y391163D01*
X715444Y391056D01*
X715377Y390975D01*
X715326Y390840D01*
X715291Y390747D01*
X715291Y390746D01*
X715291Y390745D01*
X715277Y390600D01*
X715277Y370064D01*
X715293Y369967D01*
X715302Y369870D01*
X715312Y369848D01*
X715316Y369823D01*
X715362Y369737D01*
X715403Y369648D01*
X715424Y369622D01*
X715431Y369608D01*
X715450Y369591D01*
X715496Y369534D01*
X721254Y363776D01*
X721333Y363719D01*
X721408Y363657D01*
X721432Y363649D01*
X721452Y363634D01*
X721545Y363606D01*
X721637Y363571D01*
X721670Y363568D01*
X721686Y363563D01*
X721711Y363564D01*
X721784Y363557D01*
X940196Y363557D01*
X940293Y363573D01*
X940390Y363582D01*
X940412Y363592D01*
X940437Y363596D01*
X940523Y363642D01*
X940612Y363683D01*
X940638Y363704D01*
X940652Y363711D01*
X940669Y363730D01*
X940726Y363776D01*
X985882Y408932D01*
X985948Y409024D01*
X986024Y409130D01*
X986052Y409221D01*
X986095Y409363D01*
X986091Y409487D01*
X986087Y409607D01*
X986086Y409608D01*
X986044Y409748D01*
X985265Y411628D01*
X985265Y415772D01*
X986851Y419599D01*
X989781Y422529D01*
X993608Y424115D01*
X997752Y424115D01*
X1001579Y422529D01*
X1004509Y419599D01*
X1006095Y415772D01*
X1006095Y411628D01*
X1004509Y407801D01*
X1001579Y404871D01*
X997752Y403285D01*
X993608Y403285D01*
X991728Y404064D01*
X991609Y404092D01*
X991491Y404119D01*
X991491Y404120D01*
X991362Y404107D01*
X991248Y404096D01*
X991136Y404045D01*
X991026Y403995D01*
X991025Y403995D01*
X991025Y403994D01*
X990912Y403902D01*
X945756Y358746D01*
X943453Y356443D01*
X641784Y356443D01*
X641687Y356427D01*
X641590Y356418D01*
X641568Y356408D01*
X641543Y356404D01*
X641457Y356358D01*
X641368Y356317D01*
X641342Y356296D01*
X641328Y356289D01*
X641311Y356270D01*
X641254Y356224D01*
X623776Y338746D01*
X623719Y338667D01*
X623657Y338592D01*
X623649Y338568D01*
X623634Y338548D01*
X623606Y338455D01*
X623571Y338363D01*
X623568Y338330D01*
X623563Y338314D01*
X623564Y338289D01*
X623557Y338216D01*
X623557Y131784D01*
X623573Y131687D01*
X623582Y131590D01*
X623592Y131568D01*
X623596Y131543D01*
X623642Y131457D01*
X623683Y131368D01*
X623704Y131342D01*
X623711Y131328D01*
X623730Y131311D01*
X623776Y131254D01*
X651254Y103776D01*
X651333Y103719D01*
X651408Y103657D01*
X651432Y103649D01*
X651452Y103634D01*
X651545Y103606D01*
X651637Y103571D01*
X651670Y103568D01*
X651686Y103563D01*
X651710Y103564D01*
X651784Y103557D01*
X772026Y103557D01*
X772123Y103573D01*
X772220Y103582D01*
X772242Y103592D01*
X772267Y103596D01*
X772353Y103642D01*
X772442Y103683D01*
X772468Y103704D01*
X772482Y103711D01*
X772499Y103730D01*
X772556Y103776D01*
X783539Y114759D01*
X783626Y114881D01*
X783681Y114957D01*
X783713Y115062D01*
X783752Y115190D01*
X783752Y115191D01*
X783749Y115296D01*
X783744Y115434D01*
X783744Y115435D01*
X783744Y115436D01*
X783701Y115575D01*
X783239Y116691D01*
X783239Y120297D01*
X784619Y123629D01*
X787169Y126179D01*
X790501Y127559D01*
X794107Y127559D01*
X797439Y126179D01*
X799989Y123629D01*
X801369Y120297D01*
X801369Y116691D01*
X799989Y113359D01*
X797439Y110809D01*
X794107Y109429D01*
X790501Y109429D01*
X789385Y109891D01*
X789266Y109919D01*
X789148Y109947D01*
X789019Y109934D01*
X788905Y109923D01*
X788794Y109873D01*
X788683Y109823D01*
X788683Y109822D01*
X788682Y109822D01*
X788569Y109729D01*
X775283Y96443D01*
X648527Y96443D01*
G37*
%LPD*%
%LPC*%
G36*
X739701Y109429D02*
X739701Y109429D01*
X736369Y110809D01*
X733819Y113359D01*
X732439Y116691D01*
X732439Y120297D01*
X733819Y123629D01*
X735716Y125525D01*
X735773Y125605D01*
X735835Y125680D01*
X735843Y125703D01*
X735858Y125724D01*
X735886Y125817D01*
X735921Y125908D01*
X735924Y125941D01*
X735929Y125957D01*
X735928Y125982D01*
X735935Y126055D01*
X735935Y201684D01*
X758316Y224065D01*
X1113446Y224065D01*
X1113542Y224081D01*
X1113639Y224090D01*
X1113662Y224100D01*
X1113687Y224104D01*
X1113773Y224150D01*
X1113862Y224191D01*
X1113887Y224212D01*
X1113902Y224219D01*
X1113919Y224238D01*
X1113976Y224284D01*
X1128556Y238864D01*
X1128613Y238944D01*
X1128675Y239019D01*
X1128683Y239042D01*
X1128698Y239063D01*
X1128726Y239156D01*
X1128761Y239247D01*
X1128764Y239280D01*
X1128769Y239296D01*
X1128768Y239321D01*
X1128775Y239394D01*
X1128775Y437083D01*
X1128771Y437107D01*
X1128774Y437131D01*
X1128752Y437227D01*
X1128736Y437323D01*
X1128724Y437345D01*
X1128718Y437369D01*
X1128667Y437452D01*
X1128621Y437538D01*
X1128603Y437555D01*
X1128590Y437576D01*
X1128514Y437638D01*
X1128443Y437705D01*
X1128420Y437715D01*
X1128401Y437731D01*
X1128310Y437766D01*
X1128220Y437806D01*
X1128196Y437809D01*
X1128173Y437817D01*
X1128026Y437832D01*
X1121802Y437832D01*
X1117951Y439427D01*
X1115003Y442375D01*
X1113408Y446226D01*
X1113408Y450394D01*
X1115003Y454245D01*
X1117951Y457193D01*
X1121802Y458788D01*
X1143878Y458788D01*
X1147729Y457193D01*
X1150677Y454245D01*
X1152272Y450394D01*
X1152272Y446226D01*
X1150677Y442375D01*
X1147729Y439427D01*
X1143878Y437832D01*
X1137654Y437832D01*
X1137630Y437828D01*
X1137605Y437830D01*
X1137510Y437808D01*
X1137413Y437792D01*
X1137392Y437780D01*
X1137368Y437775D01*
X1137284Y437723D01*
X1137198Y437677D01*
X1137181Y437659D01*
X1137160Y437646D01*
X1137098Y437571D01*
X1137031Y437499D01*
X1137021Y437477D01*
X1137005Y437458D01*
X1136971Y437366D01*
X1136930Y437277D01*
X1136928Y437252D01*
X1136919Y437229D01*
X1136905Y437083D01*
X1136905Y235716D01*
X1117124Y215935D01*
X761994Y215935D01*
X761898Y215919D01*
X761801Y215910D01*
X761778Y215900D01*
X761753Y215896D01*
X761667Y215850D01*
X761578Y215809D01*
X761553Y215788D01*
X761538Y215781D01*
X761521Y215762D01*
X761464Y215716D01*
X744284Y198536D01*
X744227Y198456D01*
X744165Y198381D01*
X744157Y198358D01*
X744142Y198337D01*
X744114Y198244D01*
X744079Y198153D01*
X744076Y198120D01*
X744071Y198104D01*
X744072Y198079D01*
X744065Y198006D01*
X744065Y127746D01*
X744089Y127599D01*
X744104Y127505D01*
X744166Y127390D01*
X744219Y127290D01*
X744303Y127211D01*
X744397Y127123D01*
X744398Y127122D01*
X744527Y127053D01*
X746639Y126179D01*
X749189Y123629D01*
X750569Y120297D01*
X750569Y116691D01*
X749189Y113359D01*
X746639Y110809D01*
X743307Y109429D01*
X739701Y109429D01*
G37*
%LPD*%
%LPC*%
G36*
X1121802Y539432D02*
X1121802Y539432D01*
X1117951Y541027D01*
X1115892Y543086D01*
X1115813Y543143D01*
X1115738Y543205D01*
X1115714Y543213D01*
X1115694Y543228D01*
X1115601Y543256D01*
X1115509Y543291D01*
X1115476Y543294D01*
X1115460Y543299D01*
X1115436Y543298D01*
X1115362Y543305D01*
X1095966Y543305D01*
X1093539Y544311D01*
X1035704Y602146D01*
X1035624Y602203D01*
X1035549Y602265D01*
X1035526Y602273D01*
X1035505Y602288D01*
X1035412Y602316D01*
X1035321Y602351D01*
X1035288Y602354D01*
X1035272Y602359D01*
X1035247Y602358D01*
X1035174Y602365D01*
X1026168Y602365D01*
X1025275Y603258D01*
X1025275Y621022D01*
X1026168Y621915D01*
X1043932Y621915D01*
X1044825Y621022D01*
X1044825Y612016D01*
X1044841Y611920D01*
X1044850Y611823D01*
X1044860Y611800D01*
X1044864Y611775D01*
X1044910Y611689D01*
X1044951Y611601D01*
X1044972Y611575D01*
X1044979Y611560D01*
X1044998Y611543D01*
X1045044Y611486D01*
X1099796Y556734D01*
X1099876Y556677D01*
X1099951Y556615D01*
X1099974Y556607D01*
X1099995Y556592D01*
X1100088Y556564D01*
X1100179Y556529D01*
X1100212Y556526D01*
X1100228Y556521D01*
X1100253Y556522D01*
X1100326Y556515D01*
X1115362Y556515D01*
X1115459Y556531D01*
X1115556Y556540D01*
X1115578Y556550D01*
X1115603Y556554D01*
X1115689Y556600D01*
X1115778Y556641D01*
X1115804Y556662D01*
X1115818Y556669D01*
X1115835Y556688D01*
X1115892Y556734D01*
X1117951Y558793D01*
X1121802Y560388D01*
X1143878Y560388D01*
X1147729Y558793D01*
X1150677Y555845D01*
X1152272Y551994D01*
X1152272Y547826D01*
X1150677Y543975D01*
X1147729Y541027D01*
X1143878Y539432D01*
X1121802Y539432D01*
G37*
%LPD*%
%LPC*%
G36*
X796589Y603249D02*
X796589Y603249D01*
X789805Y605067D01*
X783724Y608578D01*
X778758Y613544D01*
X775247Y619625D01*
X773429Y626409D01*
X773429Y633431D01*
X773618Y634137D01*
X773619Y634137D01*
X773619Y634138D01*
X773819Y634887D01*
X774020Y635636D01*
X774221Y636385D01*
X774421Y637134D01*
X774422Y637134D01*
X774422Y637135D01*
X774823Y638633D01*
X775024Y639382D01*
X775247Y640215D01*
X778758Y646296D01*
X783724Y651262D01*
X789805Y654773D01*
X796589Y656591D01*
X803611Y656591D01*
X810395Y654773D01*
X816476Y651262D01*
X821442Y646296D01*
X824953Y640215D01*
X826771Y633431D01*
X826771Y626409D01*
X826737Y626284D01*
X826537Y625535D01*
X826135Y624037D01*
X826135Y624036D01*
X825934Y623287D01*
X825533Y621789D01*
X825332Y621040D01*
X825332Y621039D01*
X824953Y619625D01*
X821442Y613544D01*
X816476Y608578D01*
X810395Y605067D01*
X803611Y603249D01*
X796589Y603249D01*
G37*
%LPD*%
%LPC*%
G36*
X593389Y603249D02*
X593389Y603249D01*
X586605Y605067D01*
X580524Y608578D01*
X575558Y613544D01*
X572047Y619625D01*
X570229Y626409D01*
X570229Y633431D01*
X570418Y634137D01*
X570419Y634137D01*
X570419Y634138D01*
X570619Y634887D01*
X570820Y635636D01*
X571021Y636385D01*
X571221Y637134D01*
X571222Y637134D01*
X571222Y637135D01*
X571623Y638633D01*
X571824Y639382D01*
X572047Y640215D01*
X575558Y646296D01*
X580524Y651262D01*
X586605Y654773D01*
X593389Y656591D01*
X600411Y656591D01*
X607195Y654773D01*
X613276Y651262D01*
X618242Y646296D01*
X621753Y640215D01*
X623571Y633431D01*
X623571Y626409D01*
X623537Y626284D01*
X623337Y625535D01*
X622935Y624037D01*
X622935Y624036D01*
X622734Y623287D01*
X622333Y621789D01*
X622132Y621040D01*
X622132Y621039D01*
X621753Y619625D01*
X618242Y613544D01*
X613276Y608578D01*
X607195Y605067D01*
X600411Y603249D01*
X593389Y603249D01*
G37*
%LPD*%
%LPC*%
G36*
X571871Y305129D02*
X571871Y305129D01*
X564002Y308389D01*
X557979Y314412D01*
X554719Y322281D01*
X554719Y330799D01*
X557979Y338668D01*
X564002Y344691D01*
X571871Y347951D01*
X580389Y347951D01*
X588258Y344691D01*
X594281Y338668D01*
X597541Y330799D01*
X597541Y322281D01*
X594281Y314412D01*
X588258Y308389D01*
X580389Y305129D01*
X571871Y305129D01*
G37*
%LPD*%
%LPC*%
G36*
X571871Y91729D02*
X571871Y91729D01*
X564002Y94989D01*
X557979Y101012D01*
X554719Y108881D01*
X554719Y117399D01*
X557979Y125268D01*
X564002Y131291D01*
X571871Y134551D01*
X580389Y134551D01*
X588258Y131291D01*
X594281Y125268D01*
X597541Y117399D01*
X597541Y108881D01*
X594281Y101012D01*
X588258Y94989D01*
X580389Y91729D01*
X571871Y91729D01*
G37*
%LPD*%
%LPC*%
G36*
X913138Y602365D02*
X913138Y602365D01*
X912245Y603258D01*
X912245Y621022D01*
X913138Y621915D01*
X930902Y621915D01*
X931795Y621022D01*
X931795Y619494D01*
X931799Y619470D01*
X931796Y619445D01*
X931818Y619350D01*
X931834Y619253D01*
X931846Y619232D01*
X931852Y619208D01*
X931903Y619124D01*
X931949Y619038D01*
X931967Y619021D01*
X931980Y619000D01*
X932056Y618938D01*
X932127Y618871D01*
X932150Y618861D01*
X932169Y618845D01*
X932260Y618811D01*
X932350Y618770D01*
X932374Y618768D01*
X932397Y618759D01*
X932544Y618745D01*
X976721Y618745D01*
X976817Y618761D01*
X976914Y618770D01*
X976937Y618780D01*
X976962Y618784D01*
X977048Y618830D01*
X977136Y618871D01*
X977162Y618892D01*
X977177Y618899D01*
X977194Y618918D01*
X977251Y618964D01*
X978713Y620427D01*
X982306Y621915D01*
X986194Y621915D01*
X989787Y620427D01*
X992537Y617677D01*
X994025Y614084D01*
X994025Y610196D01*
X992537Y606603D01*
X989787Y603853D01*
X986194Y602365D01*
X982306Y602365D01*
X978713Y603853D01*
X977251Y605316D01*
X977171Y605373D01*
X977096Y605435D01*
X977073Y605443D01*
X977052Y605458D01*
X976959Y605486D01*
X976868Y605521D01*
X976835Y605524D01*
X976819Y605529D01*
X976794Y605528D01*
X976721Y605535D01*
X932544Y605535D01*
X932520Y605531D01*
X932495Y605534D01*
X932400Y605512D01*
X932303Y605496D01*
X932282Y605484D01*
X932258Y605478D01*
X932174Y605427D01*
X932088Y605381D01*
X932071Y605363D01*
X932050Y605350D01*
X931988Y605274D01*
X931921Y605203D01*
X931911Y605180D01*
X931895Y605161D01*
X931861Y605070D01*
X931820Y604980D01*
X931818Y604956D01*
X931809Y604933D01*
X931795Y604786D01*
X931795Y603258D01*
X930902Y602365D01*
X913138Y602365D01*
G37*
%LPD*%
%LPC*%
G36*
X868805Y508842D02*
X868805Y508842D01*
X861551Y513030D01*
X856628Y519807D01*
X854886Y528000D01*
X856628Y536193D01*
X861551Y542970D01*
X868805Y547158D01*
X877136Y548034D01*
X885102Y545445D01*
X891327Y539840D01*
X894734Y532188D01*
X894734Y523812D01*
X891327Y516160D01*
X885102Y510555D01*
X877136Y507966D01*
X868805Y508842D01*
G37*
%LPD*%
%LPC*%
G36*
X1033905Y508842D02*
X1033905Y508842D01*
X1026651Y513030D01*
X1021728Y519807D01*
X1019986Y528000D01*
X1021728Y536193D01*
X1026651Y542970D01*
X1033905Y547158D01*
X1042236Y548034D01*
X1050202Y545445D01*
X1056427Y539840D01*
X1059834Y532188D01*
X1059834Y523812D01*
X1056427Y516160D01*
X1050202Y510555D01*
X1042236Y507966D01*
X1033905Y508842D01*
G37*
%LPD*%
%LPC*%
G36*
X1121802Y488632D02*
X1121802Y488632D01*
X1117951Y490227D01*
X1115003Y493175D01*
X1113408Y497026D01*
X1113408Y501194D01*
X1115003Y505045D01*
X1117951Y507993D01*
X1121802Y509588D01*
X1143878Y509588D01*
X1147729Y507993D01*
X1150677Y505045D01*
X1152272Y501194D01*
X1152272Y497026D01*
X1150677Y493175D01*
X1147729Y490227D01*
X1143878Y488632D01*
X1121802Y488632D01*
G37*
%LPD*%
%LPC*%
G36*
X658747Y390527D02*
X658747Y390527D01*
X654733Y392190D01*
X651660Y395263D01*
X649997Y399277D01*
X649997Y403623D01*
X651660Y407637D01*
X654733Y410710D01*
X658747Y412373D01*
X663093Y412373D01*
X667107Y410710D01*
X670180Y407637D01*
X671843Y403623D01*
X671843Y399277D01*
X670180Y395263D01*
X667107Y392190D01*
X663093Y390527D01*
X658747Y390527D01*
G37*
%LPD*%
%LPC*%
G36*
X494228Y615825D02*
X494228Y615825D01*
X490401Y617411D01*
X487471Y620341D01*
X485885Y624168D01*
X485885Y628312D01*
X487471Y632139D01*
X490401Y635069D01*
X494228Y636655D01*
X498372Y636655D01*
X502199Y635069D01*
X505129Y632139D01*
X506715Y628312D01*
X506715Y624168D01*
X505129Y620341D01*
X502199Y617411D01*
X498372Y615825D01*
X494228Y615825D01*
G37*
%LPD*%
%LPC*%
G36*
X468828Y615825D02*
X468828Y615825D01*
X465001Y617411D01*
X462071Y620341D01*
X460485Y624168D01*
X460485Y628312D01*
X462071Y632139D01*
X465001Y635069D01*
X468828Y636655D01*
X472972Y636655D01*
X476799Y635069D01*
X479729Y632139D01*
X481315Y628312D01*
X481315Y624168D01*
X479729Y620341D01*
X476799Y617411D01*
X472972Y615825D01*
X468828Y615825D01*
G37*
%LPD*%
%LPC*%
G36*
X392628Y615825D02*
X392628Y615825D01*
X388801Y617411D01*
X385871Y620341D01*
X384285Y624168D01*
X384285Y628312D01*
X385871Y632139D01*
X388801Y635069D01*
X392628Y636655D01*
X396772Y636655D01*
X400599Y635069D01*
X403529Y632139D01*
X405115Y628312D01*
X405115Y624168D01*
X403529Y620341D01*
X400599Y617411D01*
X396772Y615825D01*
X392628Y615825D01*
G37*
%LPD*%
%LPC*%
G36*
X418028Y615825D02*
X418028Y615825D01*
X414201Y617411D01*
X411271Y620341D01*
X409685Y624168D01*
X409685Y628312D01*
X411271Y632139D01*
X414201Y635069D01*
X418028Y636655D01*
X422172Y636655D01*
X425999Y635069D01*
X428929Y632139D01*
X430515Y628312D01*
X430515Y624168D01*
X428929Y620341D01*
X425999Y617411D01*
X422172Y615825D01*
X418028Y615825D01*
G37*
%LPD*%
%LPC*%
G36*
X367228Y615825D02*
X367228Y615825D01*
X363401Y617411D01*
X360471Y620341D01*
X358885Y624168D01*
X358885Y628312D01*
X360471Y632139D01*
X363401Y635069D01*
X367228Y636655D01*
X371372Y636655D01*
X375199Y635069D01*
X378129Y632139D01*
X379715Y628312D01*
X379715Y624168D01*
X378129Y620341D01*
X375199Y617411D01*
X371372Y615825D01*
X367228Y615825D01*
G37*
%LPD*%
%LPC*%
G36*
X443428Y615825D02*
X443428Y615825D01*
X439601Y617411D01*
X436671Y620341D01*
X435085Y624168D01*
X435085Y628312D01*
X436671Y632139D01*
X439601Y635069D01*
X443428Y636655D01*
X447572Y636655D01*
X451399Y635069D01*
X454329Y632139D01*
X455915Y628312D01*
X455915Y624168D01*
X454329Y620341D01*
X451399Y617411D01*
X447572Y615825D01*
X443428Y615825D01*
G37*
%LPD*%
%LPC*%
G36*
X494228Y438025D02*
X494228Y438025D01*
X490401Y439611D01*
X487471Y442541D01*
X485885Y446368D01*
X485885Y450512D01*
X487471Y454339D01*
X490401Y457269D01*
X494228Y458855D01*
X498372Y458855D01*
X502199Y457269D01*
X505129Y454339D01*
X506715Y450512D01*
X506715Y446368D01*
X505129Y442541D01*
X502199Y439611D01*
X498372Y438025D01*
X494228Y438025D01*
G37*
%LPD*%
%LPC*%
G36*
X414488Y310895D02*
X414488Y310895D01*
X410661Y312481D01*
X407731Y315411D01*
X406145Y319238D01*
X406145Y323382D01*
X407731Y327209D01*
X410661Y330139D01*
X414488Y331725D01*
X418632Y331725D01*
X422459Y330139D01*
X425389Y327209D01*
X426975Y323382D01*
X426975Y319238D01*
X425389Y315411D01*
X422459Y312481D01*
X418632Y310895D01*
X414488Y310895D01*
G37*
%LPD*%
%LPC*%
G36*
X389088Y310895D02*
X389088Y310895D01*
X385261Y312481D01*
X382331Y315411D01*
X380745Y319238D01*
X380745Y323382D01*
X382331Y327209D01*
X385261Y330139D01*
X389088Y331725D01*
X393232Y331725D01*
X397059Y330139D01*
X399989Y327209D01*
X401575Y323382D01*
X401575Y319238D01*
X399989Y315411D01*
X397059Y312481D01*
X393232Y310895D01*
X389088Y310895D01*
G37*
%LPD*%
%LPC*%
G36*
X418028Y438025D02*
X418028Y438025D01*
X414201Y439611D01*
X411271Y442541D01*
X409685Y446368D01*
X409685Y450512D01*
X411271Y454339D01*
X414201Y457269D01*
X418028Y458855D01*
X422172Y458855D01*
X425999Y457269D01*
X428929Y454339D01*
X430515Y450512D01*
X430515Y446368D01*
X428929Y442541D01*
X425999Y439611D01*
X422172Y438025D01*
X418028Y438025D01*
G37*
%LPD*%
%LPC*%
G36*
X363688Y310895D02*
X363688Y310895D01*
X359861Y312481D01*
X356931Y315411D01*
X355345Y319238D01*
X355345Y323382D01*
X356931Y327209D01*
X359861Y330139D01*
X363688Y331725D01*
X367832Y331725D01*
X371659Y330139D01*
X374589Y327209D01*
X376175Y323382D01*
X376175Y319238D01*
X374589Y315411D01*
X371659Y312481D01*
X367832Y310895D01*
X363688Y310895D01*
G37*
%LPD*%
%LPC*%
G36*
X392628Y438025D02*
X392628Y438025D01*
X388801Y439611D01*
X385871Y442541D01*
X384285Y446368D01*
X384285Y450512D01*
X385871Y454339D01*
X388801Y457269D01*
X392628Y458855D01*
X396772Y458855D01*
X400599Y457269D01*
X403529Y454339D01*
X405115Y450512D01*
X405115Y446368D01*
X403529Y442541D01*
X400599Y439611D01*
X396772Y438025D01*
X392628Y438025D01*
G37*
%LPD*%
%LPC*%
G36*
X338288Y310895D02*
X338288Y310895D01*
X334461Y312481D01*
X331531Y315411D01*
X329945Y319238D01*
X329945Y323382D01*
X331531Y327209D01*
X334461Y330139D01*
X338288Y331725D01*
X342432Y331725D01*
X346259Y330139D01*
X349189Y327209D01*
X350775Y323382D01*
X350775Y319238D01*
X349189Y315411D01*
X346259Y312481D01*
X342432Y310895D01*
X338288Y310895D01*
G37*
%LPD*%
%LPC*%
G36*
X439888Y183895D02*
X439888Y183895D01*
X436061Y185481D01*
X433131Y188411D01*
X431545Y192238D01*
X431545Y196382D01*
X433131Y200209D01*
X436061Y203139D01*
X439888Y204725D01*
X444032Y204725D01*
X447859Y203139D01*
X450789Y200209D01*
X452375Y196382D01*
X452375Y192238D01*
X450789Y188411D01*
X447859Y185481D01*
X444032Y183895D01*
X439888Y183895D01*
G37*
%LPD*%
%LPC*%
G36*
X363688Y183895D02*
X363688Y183895D01*
X359861Y185481D01*
X356931Y188411D01*
X355345Y192238D01*
X355345Y196382D01*
X356931Y200209D01*
X359861Y203139D01*
X363688Y204725D01*
X367832Y204725D01*
X371659Y203139D01*
X374589Y200209D01*
X376175Y196382D01*
X376175Y192238D01*
X374589Y188411D01*
X371659Y185481D01*
X367832Y183895D01*
X363688Y183895D01*
G37*
%LPD*%
%LPC*%
G36*
X338288Y183895D02*
X338288Y183895D01*
X334461Y185481D01*
X331531Y188411D01*
X329945Y192238D01*
X329945Y196382D01*
X331531Y200209D01*
X334461Y203139D01*
X338288Y204725D01*
X342432Y204725D01*
X346259Y203139D01*
X349189Y200209D01*
X350775Y196382D01*
X350775Y192238D01*
X349189Y188411D01*
X346259Y185481D01*
X342432Y183895D01*
X338288Y183895D01*
G37*
%LPD*%
%LPC*%
G36*
X917408Y403285D02*
X917408Y403285D01*
X913581Y404871D01*
X910651Y407801D01*
X909065Y411628D01*
X909065Y415772D01*
X910651Y419599D01*
X913581Y422529D01*
X917408Y424115D01*
X921552Y424115D01*
X925379Y422529D01*
X928309Y419599D01*
X929895Y415772D01*
X929895Y411628D01*
X928309Y407801D01*
X925379Y404871D01*
X921552Y403285D01*
X917408Y403285D01*
G37*
%LPD*%
%LPC*%
G36*
X892008Y403285D02*
X892008Y403285D01*
X888181Y404871D01*
X885251Y407801D01*
X883665Y411628D01*
X883665Y415772D01*
X885251Y419599D01*
X888181Y422529D01*
X892008Y424115D01*
X896152Y424115D01*
X899979Y422529D01*
X902909Y419599D01*
X904495Y415772D01*
X904495Y411628D01*
X902909Y407801D01*
X899979Y404871D01*
X896152Y403285D01*
X892008Y403285D01*
G37*
%LPD*%
%LPC*%
G36*
X968208Y403285D02*
X968208Y403285D01*
X964381Y404871D01*
X961451Y407801D01*
X959865Y411628D01*
X959865Y415772D01*
X961451Y419599D01*
X964381Y422529D01*
X968208Y424115D01*
X972352Y424115D01*
X976179Y422529D01*
X979109Y419599D01*
X980695Y415772D01*
X980695Y411628D01*
X979109Y407801D01*
X976179Y404871D01*
X972352Y403285D01*
X968208Y403285D01*
G37*
%LPD*%
%LPC*%
G36*
X1044408Y403285D02*
X1044408Y403285D01*
X1040581Y404871D01*
X1037651Y407801D01*
X1036065Y411628D01*
X1036065Y415772D01*
X1037651Y419599D01*
X1040581Y422529D01*
X1044408Y424115D01*
X1048552Y424115D01*
X1052379Y422529D01*
X1055309Y419599D01*
X1056895Y415772D01*
X1056895Y411628D01*
X1055309Y407801D01*
X1052379Y404871D01*
X1048552Y403285D01*
X1044408Y403285D01*
G37*
%LPD*%
%LPC*%
G36*
X1019008Y403285D02*
X1019008Y403285D01*
X1015181Y404871D01*
X1012251Y407801D01*
X1010665Y411628D01*
X1010665Y415772D01*
X1012251Y419599D01*
X1015181Y422529D01*
X1019008Y424115D01*
X1023152Y424115D01*
X1026979Y422529D01*
X1029909Y419599D01*
X1031495Y415772D01*
X1031495Y411628D01*
X1029909Y407801D01*
X1026979Y404871D01*
X1023152Y403285D01*
X1019008Y403285D01*
G37*
%LPD*%
%LPC*%
G36*
X987332Y109429D02*
X987332Y109429D01*
X986439Y110322D01*
X986439Y126666D01*
X987332Y127559D01*
X1003676Y127559D01*
X1004569Y126666D01*
X1004569Y110322D01*
X1003676Y109429D01*
X987332Y109429D01*
G37*
%LPD*%
%LPC*%
G36*
X987332Y312121D02*
X987332Y312121D01*
X986439Y313014D01*
X986439Y329358D01*
X987332Y330251D01*
X1003676Y330251D01*
X1004569Y329358D01*
X1004569Y313014D01*
X1003676Y312121D01*
X987332Y312121D01*
G37*
%LPD*%
%LPC*%
G36*
X869276Y602365D02*
X869276Y602365D01*
X865683Y603853D01*
X862933Y606603D01*
X861445Y610196D01*
X861445Y614084D01*
X862933Y617677D01*
X865683Y620427D01*
X869276Y621915D01*
X873164Y621915D01*
X876757Y620427D01*
X879507Y617677D01*
X880995Y614084D01*
X880995Y610196D01*
X879507Y606603D01*
X876757Y603853D01*
X873164Y602365D01*
X869276Y602365D01*
G37*
%LPD*%
%LPC*%
G36*
X765101Y109429D02*
X765101Y109429D01*
X761769Y110809D01*
X759219Y113359D01*
X757839Y116691D01*
X757839Y120297D01*
X759219Y123629D01*
X761769Y126179D01*
X765101Y127559D01*
X768707Y127559D01*
X772039Y126179D01*
X774589Y123629D01*
X775969Y120297D01*
X775969Y116691D01*
X774589Y113359D01*
X772039Y110809D01*
X768707Y109429D01*
X765101Y109429D01*
G37*
%LPD*%
%LPC*%
G36*
X968301Y312121D02*
X968301Y312121D01*
X964969Y313501D01*
X962419Y316051D01*
X961039Y319383D01*
X961039Y322989D01*
X962419Y326321D01*
X964969Y328871D01*
X968301Y330251D01*
X971907Y330251D01*
X975239Y328871D01*
X977789Y326321D01*
X979169Y322989D01*
X979169Y319383D01*
X977789Y316051D01*
X975239Y313501D01*
X971907Y312121D01*
X968301Y312121D01*
G37*
%LPD*%
%LPC*%
G36*
X942901Y312121D02*
X942901Y312121D01*
X939569Y313501D01*
X937019Y316051D01*
X935639Y319383D01*
X935639Y322989D01*
X937019Y326321D01*
X939569Y328871D01*
X942901Y330251D01*
X946507Y330251D01*
X949839Y328871D01*
X952389Y326321D01*
X953769Y322989D01*
X953769Y319383D01*
X952389Y316051D01*
X949839Y313501D01*
X946507Y312121D01*
X942901Y312121D01*
G37*
%LPD*%
%LPC*%
G36*
X968301Y109429D02*
X968301Y109429D01*
X964969Y110809D01*
X962419Y113359D01*
X961039Y116691D01*
X961039Y120297D01*
X962419Y123629D01*
X964969Y126179D01*
X968301Y127559D01*
X971907Y127559D01*
X975239Y126179D01*
X977789Y123629D01*
X979169Y120297D01*
X979169Y116691D01*
X977789Y113359D01*
X975239Y110809D01*
X971907Y109429D01*
X968301Y109429D01*
G37*
%LPD*%
%LPC*%
G36*
X917501Y109429D02*
X917501Y109429D01*
X914169Y110809D01*
X911619Y113359D01*
X910239Y116691D01*
X910239Y120297D01*
X911619Y123629D01*
X914169Y126179D01*
X917501Y127559D01*
X921107Y127559D01*
X924439Y126179D01*
X926989Y123629D01*
X928369Y120297D01*
X928369Y116691D01*
X926989Y113359D01*
X924439Y110809D01*
X921107Y109429D01*
X917501Y109429D01*
G37*
%LPD*%
%LPC*%
G36*
X663501Y312121D02*
X663501Y312121D01*
X660169Y313501D01*
X657619Y316051D01*
X656239Y319383D01*
X656239Y322989D01*
X657619Y326321D01*
X660169Y328871D01*
X663501Y330251D01*
X667107Y330251D01*
X670439Y328871D01*
X672989Y326321D01*
X674369Y322989D01*
X674369Y319383D01*
X672989Y316051D01*
X670439Y313501D01*
X667107Y312121D01*
X663501Y312121D01*
G37*
%LPD*%
%LPC*%
G36*
X892101Y109429D02*
X892101Y109429D01*
X888769Y110809D01*
X886219Y113359D01*
X884839Y116691D01*
X884839Y120297D01*
X886219Y123629D01*
X888769Y126179D01*
X892101Y127559D01*
X895707Y127559D01*
X899039Y126179D01*
X901589Y123629D01*
X902969Y120297D01*
X902969Y116691D01*
X901589Y113359D01*
X899039Y110809D01*
X895707Y109429D01*
X892101Y109429D01*
G37*
%LPD*%
%LPC*%
G36*
X866701Y109429D02*
X866701Y109429D01*
X863369Y110809D01*
X860819Y113359D01*
X859439Y116691D01*
X859439Y120297D01*
X860819Y123629D01*
X863369Y126179D01*
X866701Y127559D01*
X870307Y127559D01*
X873639Y126179D01*
X876189Y123629D01*
X877569Y120297D01*
X877569Y116691D01*
X876189Y113359D01*
X873639Y110809D01*
X870307Y109429D01*
X866701Y109429D01*
G37*
%LPD*%
%LPC*%
G36*
X841301Y109429D02*
X841301Y109429D01*
X837969Y110809D01*
X835419Y113359D01*
X834039Y116691D01*
X834039Y120297D01*
X835419Y123629D01*
X837969Y126179D01*
X841301Y127559D01*
X844907Y127559D01*
X848239Y126179D01*
X850789Y123629D01*
X852169Y120297D01*
X852169Y116691D01*
X850789Y113359D01*
X848239Y110809D01*
X844907Y109429D01*
X841301Y109429D01*
G37*
%LPD*%
%LPC*%
G36*
X714301Y109429D02*
X714301Y109429D01*
X710969Y110809D01*
X708419Y113359D01*
X707039Y116691D01*
X707039Y120297D01*
X708419Y123629D01*
X710969Y126179D01*
X714301Y127559D01*
X717907Y127559D01*
X721239Y126179D01*
X723789Y123629D01*
X725169Y120297D01*
X725169Y116691D01*
X723789Y113359D01*
X721239Y110809D01*
X717907Y109429D01*
X714301Y109429D01*
G37*
%LPD*%
%LPC*%
G36*
X688901Y109429D02*
X688901Y109429D01*
X685569Y110809D01*
X683019Y113359D01*
X681639Y116691D01*
X681639Y120297D01*
X683019Y123629D01*
X685569Y126179D01*
X688901Y127559D01*
X692507Y127559D01*
X695839Y126179D01*
X698389Y123629D01*
X699769Y120297D01*
X699769Y116691D01*
X698389Y113359D01*
X695839Y110809D01*
X692507Y109429D01*
X688901Y109429D01*
G37*
%LPD*%
%LPC*%
G36*
X663501Y109429D02*
X663501Y109429D01*
X660169Y110809D01*
X657619Y113359D01*
X656239Y116691D01*
X656239Y120297D01*
X657619Y123629D01*
X660169Y126179D01*
X663501Y127559D01*
X667107Y127559D01*
X670439Y126179D01*
X672989Y123629D01*
X674369Y120297D01*
X674369Y116691D01*
X672989Y113359D01*
X670439Y110809D01*
X667107Y109429D01*
X663501Y109429D01*
G37*
%LPD*%
%LPC*%
G36*
X917501Y312121D02*
X917501Y312121D01*
X914169Y313501D01*
X911619Y316051D01*
X910239Y319383D01*
X910239Y322989D01*
X911619Y326321D01*
X914169Y328871D01*
X917501Y330251D01*
X921107Y330251D01*
X924439Y328871D01*
X926989Y326321D01*
X928369Y322989D01*
X928369Y319383D01*
X926989Y316051D01*
X924439Y313501D01*
X921107Y312121D01*
X917501Y312121D01*
G37*
%LPD*%
%LPC*%
G36*
X892101Y312121D02*
X892101Y312121D01*
X888769Y313501D01*
X886219Y316051D01*
X884839Y319383D01*
X884839Y322989D01*
X886219Y326321D01*
X888769Y328871D01*
X892101Y330251D01*
X895707Y330251D01*
X899039Y328871D01*
X901589Y326321D01*
X902969Y322989D01*
X902969Y319383D01*
X901589Y316051D01*
X899039Y313501D01*
X895707Y312121D01*
X892101Y312121D01*
G37*
%LPD*%
%LPC*%
G36*
X866701Y312121D02*
X866701Y312121D01*
X863369Y313501D01*
X860819Y316051D01*
X859439Y319383D01*
X859439Y322989D01*
X860819Y326321D01*
X863369Y328871D01*
X866701Y330251D01*
X870307Y330251D01*
X873639Y328871D01*
X876189Y326321D01*
X877569Y322989D01*
X877569Y319383D01*
X876189Y316051D01*
X873639Y313501D01*
X870307Y312121D01*
X866701Y312121D01*
G37*
%LPD*%
%LPC*%
G36*
X841301Y312121D02*
X841301Y312121D01*
X837969Y313501D01*
X835419Y316051D01*
X834039Y319383D01*
X834039Y322989D01*
X835419Y326321D01*
X837969Y328871D01*
X841301Y330251D01*
X844907Y330251D01*
X848239Y328871D01*
X850789Y326321D01*
X852169Y322989D01*
X852169Y319383D01*
X850789Y316051D01*
X848239Y313501D01*
X844907Y312121D01*
X841301Y312121D01*
G37*
%LPD*%
%LPC*%
G36*
X815901Y312121D02*
X815901Y312121D01*
X812569Y313501D01*
X810019Y316051D01*
X808639Y319383D01*
X808639Y322989D01*
X810019Y326321D01*
X812569Y328871D01*
X815901Y330251D01*
X819507Y330251D01*
X822839Y328871D01*
X825389Y326321D01*
X826769Y322989D01*
X826769Y319383D01*
X825389Y316051D01*
X822839Y313501D01*
X819507Y312121D01*
X815901Y312121D01*
G37*
%LPD*%
%LPC*%
G36*
X790501Y312121D02*
X790501Y312121D01*
X787169Y313501D01*
X784619Y316051D01*
X783239Y319383D01*
X783239Y322989D01*
X784619Y326321D01*
X787169Y328871D01*
X790501Y330251D01*
X794107Y330251D01*
X797439Y328871D01*
X799989Y326321D01*
X801369Y322989D01*
X801369Y319383D01*
X799989Y316051D01*
X797439Y313501D01*
X794107Y312121D01*
X790501Y312121D01*
G37*
%LPD*%
%LPC*%
G36*
X765101Y312121D02*
X765101Y312121D01*
X761769Y313501D01*
X759219Y316051D01*
X757839Y319383D01*
X757839Y322989D01*
X759219Y326321D01*
X761769Y328871D01*
X765101Y330251D01*
X768707Y330251D01*
X772039Y328871D01*
X774589Y326321D01*
X775969Y322989D01*
X775969Y319383D01*
X774589Y316051D01*
X772039Y313501D01*
X768707Y312121D01*
X765101Y312121D01*
G37*
%LPD*%
%LPC*%
G36*
X739701Y312121D02*
X739701Y312121D01*
X736369Y313501D01*
X733819Y316051D01*
X732439Y319383D01*
X732439Y322989D01*
X733819Y326321D01*
X736369Y328871D01*
X739701Y330251D01*
X743307Y330251D01*
X746639Y328871D01*
X749189Y326321D01*
X750569Y322989D01*
X750569Y319383D01*
X749189Y316051D01*
X746639Y313501D01*
X743307Y312121D01*
X739701Y312121D01*
G37*
%LPD*%
%LPC*%
G36*
X714301Y312121D02*
X714301Y312121D01*
X710969Y313501D01*
X708419Y316051D01*
X707039Y319383D01*
X707039Y322989D01*
X708419Y326321D01*
X710969Y328871D01*
X714301Y330251D01*
X717907Y330251D01*
X721239Y328871D01*
X723789Y326321D01*
X725169Y322989D01*
X725169Y319383D01*
X723789Y316051D01*
X721239Y313501D01*
X717907Y312121D01*
X714301Y312121D01*
G37*
%LPD*%
%LPC*%
G36*
X688901Y312121D02*
X688901Y312121D01*
X685569Y313501D01*
X683019Y316051D01*
X681639Y319383D01*
X681639Y322989D01*
X683019Y326321D01*
X685569Y328871D01*
X688901Y330251D01*
X692507Y330251D01*
X695839Y328871D01*
X698389Y326321D01*
X699769Y322989D01*
X699769Y319383D01*
X698389Y316051D01*
X695839Y313501D01*
X692507Y312121D01*
X688901Y312121D01*
G37*
%LPD*%
%LPC*%
G36*
X687819Y402949D02*
X687819Y402949D01*
X687819Y413300D01*
X689116Y413095D01*
X690903Y412514D01*
X692577Y411661D01*
X694097Y410556D01*
X695426Y409227D01*
X696531Y407707D01*
X697384Y406033D01*
X697965Y404246D01*
X698170Y402949D01*
X687819Y402949D01*
G37*
%LPD*%
%LPC*%
G36*
X674470Y402949D02*
X674470Y402949D01*
X674675Y404246D01*
X675256Y406033D01*
X676109Y407707D01*
X677214Y409227D01*
X678543Y410556D01*
X680063Y411661D01*
X681737Y412514D01*
X683524Y413095D01*
X684821Y413300D01*
X684821Y402949D01*
X674470Y402949D01*
G37*
%LPD*%
%LPC*%
G36*
X687819Y399951D02*
X687819Y399951D01*
X698170Y399951D01*
X697965Y398654D01*
X697384Y396867D01*
X696531Y395193D01*
X695426Y393673D01*
X694097Y392344D01*
X692577Y391239D01*
X690903Y390386D01*
X689116Y389805D01*
X687819Y389600D01*
X687819Y399951D01*
G37*
%LPD*%
%LPC*%
G36*
X683524Y389805D02*
X683524Y389805D01*
X681737Y390386D01*
X680063Y391239D01*
X678543Y392344D01*
X677214Y393673D01*
X676109Y395193D01*
X675256Y396867D01*
X674675Y398654D01*
X674470Y399951D01*
X684821Y399951D01*
X684821Y389600D01*
X683524Y389805D01*
G37*
%LPD*%
%LPC*%
G36*
X370799Y449939D02*
X370799Y449939D01*
X370799Y459776D01*
X371977Y459589D01*
X373688Y459033D01*
X375291Y458216D01*
X376747Y457159D01*
X378019Y455887D01*
X379076Y454431D01*
X379893Y452828D01*
X380449Y451117D01*
X380636Y449939D01*
X370799Y449939D01*
G37*
%LPD*%
%LPC*%
G36*
X316459Y195809D02*
X316459Y195809D01*
X316459Y205646D01*
X317637Y205459D01*
X319348Y204903D01*
X320951Y204086D01*
X322407Y203029D01*
X323679Y201757D01*
X324736Y200301D01*
X325553Y198698D01*
X326109Y196987D01*
X326296Y195809D01*
X316459Y195809D01*
G37*
%LPD*%
%LPC*%
G36*
X870179Y415199D02*
X870179Y415199D01*
X870179Y425036D01*
X871357Y424849D01*
X873068Y424293D01*
X874671Y423476D01*
X876127Y422419D01*
X877399Y421147D01*
X878456Y419691D01*
X879273Y418088D01*
X879829Y416377D01*
X880016Y415199D01*
X870179Y415199D01*
G37*
%LPD*%
%LPC*%
G36*
X357964Y449939D02*
X357964Y449939D01*
X358151Y451117D01*
X358707Y452828D01*
X359524Y454431D01*
X360581Y455887D01*
X361853Y457159D01*
X363309Y458216D01*
X364912Y459033D01*
X366623Y459589D01*
X367801Y459776D01*
X367801Y449939D01*
X357964Y449939D01*
G37*
%LPD*%
%LPC*%
G36*
X857344Y415199D02*
X857344Y415199D01*
X857531Y416377D01*
X858087Y418088D01*
X858904Y419691D01*
X859961Y421147D01*
X861233Y422419D01*
X862689Y423476D01*
X864292Y424293D01*
X866003Y424849D01*
X867181Y425036D01*
X867181Y415199D01*
X857344Y415199D01*
G37*
%LPD*%
%LPC*%
G36*
X303624Y195809D02*
X303624Y195809D01*
X303811Y196987D01*
X304367Y198698D01*
X305184Y200301D01*
X306241Y201757D01*
X307513Y203029D01*
X308969Y204086D01*
X310572Y204903D01*
X312283Y205459D01*
X313461Y205646D01*
X313461Y195809D01*
X303624Y195809D01*
G37*
%LPD*%
%LPC*%
G36*
X370799Y446941D02*
X370799Y446941D01*
X380636Y446941D01*
X380449Y445763D01*
X379893Y444052D01*
X379076Y442449D01*
X378019Y440993D01*
X376747Y439721D01*
X375291Y438664D01*
X373688Y437847D01*
X371977Y437291D01*
X370799Y437104D01*
X370799Y446941D01*
G37*
%LPD*%
%LPC*%
G36*
X870179Y412201D02*
X870179Y412201D01*
X880016Y412201D01*
X879829Y411023D01*
X879273Y409312D01*
X878456Y407709D01*
X877399Y406253D01*
X876127Y404981D01*
X874671Y403924D01*
X873068Y403107D01*
X871357Y402551D01*
X870179Y402364D01*
X870179Y412201D01*
G37*
%LPD*%
%LPC*%
G36*
X316459Y192811D02*
X316459Y192811D01*
X326296Y192811D01*
X326109Y191633D01*
X325553Y189922D01*
X324736Y188319D01*
X323679Y186863D01*
X322407Y185591D01*
X320951Y184534D01*
X319348Y183717D01*
X317637Y183161D01*
X316459Y182974D01*
X316459Y192811D01*
G37*
%LPD*%
%LPC*%
G36*
X366623Y437291D02*
X366623Y437291D01*
X364912Y437847D01*
X363309Y438664D01*
X361853Y439721D01*
X360581Y440993D01*
X359524Y442449D01*
X358707Y444052D01*
X358151Y445763D01*
X357964Y446941D01*
X367801Y446941D01*
X367801Y437104D01*
X366623Y437291D01*
G37*
%LPD*%
%LPC*%
G36*
X866003Y402551D02*
X866003Y402551D01*
X864292Y403107D01*
X862689Y403924D01*
X861233Y404981D01*
X859961Y406253D01*
X858904Y407709D01*
X858087Y409312D01*
X857531Y411023D01*
X857344Y412201D01*
X867181Y412201D01*
X867181Y402364D01*
X866003Y402551D01*
G37*
%LPD*%
%LPC*%
G36*
X312283Y183161D02*
X312283Y183161D01*
X310572Y183717D01*
X308969Y184534D01*
X307513Y185591D01*
X306241Y186863D01*
X305184Y188319D01*
X304367Y189922D01*
X303811Y191633D01*
X303624Y192811D01*
X313461Y192811D01*
X313461Y182974D01*
X312283Y183161D01*
G37*
%LPD*%
%LPC*%
G36*
X946203Y119993D02*
X946203Y119993D01*
X946203Y128463D01*
X947065Y128327D01*
X948574Y127836D01*
X949987Y127116D01*
X951271Y126183D01*
X952393Y125061D01*
X953326Y123777D01*
X954046Y122364D01*
X954537Y120855D01*
X954673Y119993D01*
X946203Y119993D01*
G37*
%LPD*%
%LPC*%
G36*
X934735Y119993D02*
X934735Y119993D01*
X934871Y120855D01*
X935362Y122364D01*
X936082Y123777D01*
X937015Y125061D01*
X938137Y126183D01*
X939421Y127116D01*
X940834Y127836D01*
X942343Y128327D01*
X943205Y128463D01*
X943205Y119993D01*
X934735Y119993D01*
G37*
%LPD*%
%LPC*%
G36*
X946203Y116995D02*
X946203Y116995D01*
X954673Y116995D01*
X954537Y116133D01*
X954046Y114624D01*
X953326Y113211D01*
X952393Y111927D01*
X951271Y110805D01*
X949987Y109872D01*
X948574Y109152D01*
X947065Y108661D01*
X946203Y108525D01*
X946203Y116995D01*
G37*
%LPD*%
%LPC*%
G36*
X942343Y108661D02*
X942343Y108661D01*
X940834Y109152D01*
X939421Y109872D01*
X938137Y110805D01*
X937015Y111927D01*
X936082Y113211D01*
X935362Y114624D01*
X934871Y116133D01*
X934735Y116995D01*
X943205Y116995D01*
X943205Y108525D01*
X942343Y108661D01*
G37*
%LPD*%
%LPC*%
G36*
X369299Y448439D02*
X369299Y448439D01*
X369299Y448441D01*
X369301Y448441D01*
X369301Y448439D01*
X369299Y448439D01*
G37*
%LPD*%
%LPC*%
G36*
X868679Y413699D02*
X868679Y413699D01*
X868679Y413701D01*
X868681Y413701D01*
X868681Y413699D01*
X868679Y413699D01*
G37*
%LPD*%
%LPC*%
G36*
X686319Y401449D02*
X686319Y401449D01*
X686319Y401451D01*
X686321Y401451D01*
X686321Y401449D01*
X686319Y401449D01*
G37*
%LPD*%
%LPC*%
G36*
X314959Y194309D02*
X314959Y194309D01*
X314959Y194311D01*
X314961Y194311D01*
X314961Y194309D01*
X314959Y194309D01*
G37*
%LPD*%
%LPC*%
G36*
X944703Y118493D02*
X944703Y118493D01*
X944703Y118495D01*
X944705Y118495D01*
X944705Y118493D01*
X944703Y118493D01*
G37*
%LPD*%
D10*
X660920Y401450D03*
X686320Y401450D03*
X711720Y401450D03*
X737120Y401450D03*
D11*
X369300Y626240D03*
X394700Y626240D03*
X420100Y626240D03*
X445500Y626240D03*
X470900Y626240D03*
X496300Y626240D03*
X369300Y448440D03*
X394700Y448440D03*
X420100Y448440D03*
X445500Y448440D03*
X470900Y448440D03*
X496300Y448440D03*
D12*
X995504Y321186D03*
D13*
X970104Y321186D03*
X944704Y321186D03*
X919304Y321186D03*
X893904Y321186D03*
X868504Y321186D03*
X843104Y321186D03*
X817704Y321186D03*
X792304Y321186D03*
X766904Y321186D03*
X741504Y321186D03*
X716104Y321186D03*
X690704Y321186D03*
X665304Y321186D03*
D12*
X995504Y118494D03*
D13*
X970104Y118494D03*
X944704Y118494D03*
X919304Y118494D03*
X893904Y118494D03*
X868504Y118494D03*
X843104Y118494D03*
X817704Y118494D03*
X792304Y118494D03*
X766904Y118494D03*
X741504Y118494D03*
X716104Y118494D03*
X690704Y118494D03*
X665304Y118494D03*
D14*
X922020Y612140D03*
D15*
X871220Y612140D03*
D16*
X1123887Y448310D02*
X1141794Y448310D01*
X1141794Y499110D02*
X1123887Y499110D01*
X1123887Y549910D02*
X1141794Y549910D01*
D14*
X1035050Y612140D03*
D15*
X984250Y612140D03*
D17*
X875030Y528000D03*
X1040130Y528000D03*
D11*
X868680Y413700D03*
X894080Y413700D03*
X919480Y413700D03*
X944880Y413700D03*
X970280Y413700D03*
X995680Y413700D03*
X1021080Y413700D03*
X1046480Y413700D03*
X314960Y194310D03*
X340360Y194310D03*
X365760Y194310D03*
X391160Y194310D03*
X416560Y194310D03*
X441960Y194310D03*
X340360Y321310D03*
X365760Y321310D03*
X391160Y321310D03*
X416560Y321310D03*
D18*
X445500Y448440D02*
X445500Y481060D01*
X461010Y496570D01*
X730000Y496570D01*
X735000Y496570D01*
X740000Y496570D01*
X745000Y496570D01*
X400050Y294640D02*
X391160Y285750D01*
X391160Y194310D01*
X400050Y294640D02*
X433070Y294640D01*
X445500Y307070D01*
X445500Y448440D01*
X944880Y473700D02*
X944880Y413700D01*
X944880Y473700D02*
X922010Y496570D01*
X745000Y496570D01*
X737120Y488690D01*
X737120Y401450D01*
X737120Y488690D02*
X737120Y489450D01*
X730000Y496570D01*
X737120Y493690D02*
X737120Y489450D01*
X737120Y493690D02*
X740000Y496570D01*
X737120Y494450D02*
X737120Y493690D01*
X737120Y494450D02*
X735000Y496570D01*
X391160Y94310D02*
X410470Y75000D01*
X391160Y94310D02*
X391160Y194310D01*
X410470Y75000D02*
X1000000Y75000D01*
X1020000Y95000D01*
X1020000Y140000D01*
X1005000Y155000D01*
X834210Y155000D01*
X817704Y138494D01*
X817704Y118494D01*
X470900Y448440D02*
X470900Y467090D01*
X482600Y477520D02*
X482600Y478790D01*
X470900Y467090D01*
X711720Y470650D02*
X711720Y401450D01*
X699770Y482600D02*
X487680Y482600D01*
X482600Y477520D01*
X699770Y482600D02*
X711720Y470650D01*
X471170Y448170D02*
X470900Y448440D01*
X471170Y285750D02*
X457200Y271780D01*
X471170Y285750D02*
X471170Y448170D01*
X416560Y262890D02*
X416560Y194310D01*
X416560Y262890D02*
X425450Y271780D01*
X457200Y271780D01*
X773810Y100000D02*
X792304Y118494D01*
X650000Y100000D02*
X620000Y130000D01*
X620000Y340000D01*
X640000Y360000D01*
X705000Y360000D01*
X941980Y360000D02*
X995680Y413700D01*
X941980Y360000D02*
X720000Y360000D01*
X715000Y360000D01*
X710000Y360000D01*
X705000Y360000D01*
X711720Y366720D02*
X711720Y401450D01*
X711720Y366720D02*
X705000Y360000D01*
X711720Y368280D02*
X711720Y401450D01*
X711720Y368280D02*
X720000Y360000D01*
X711720Y361720D02*
X711720Y401450D01*
X711720Y361720D02*
X710000Y360000D01*
X711720Y363280D02*
X711720Y401450D01*
X711720Y363280D02*
X715000Y360000D01*
X773810Y100000D02*
X650000Y100000D01*
D19*
X1132840Y237400D02*
X1132840Y448310D01*
X1132840Y237400D02*
X1115440Y220000D01*
X760000Y220000D02*
X740000Y200000D01*
X740000Y119998D01*
X741504Y118494D01*
X760000Y220000D02*
X1115440Y220000D01*
D20*
X1132840Y549910D02*
X1097280Y549910D01*
X1035050Y612140D01*
X984250Y612140D02*
X922020Y612140D01*
M02*
