G04 EAGLE Gerber RS-274X export*
G75*
%MOMM*%
%FSLAX34Y34*%
%LPD*%
%INBottom Copper*%
%IPPOS*%
%AMOC8*
5,1,8,0,0,1.08239X$1,22.5*%
G01*
%ADD10C,1.879600*%
%ADD11C,1.778000*%
%ADD12R,1.508000X1.508000*%
%ADD13C,1.508000*%
%ADD14R,1.650000X1.650000*%
%ADD15C,1.650000*%
%ADD16C,1.790700*%
%ADD17C,3.216000*%

G36*
X1213364Y55915D02*
X1213364Y55915D01*
X1213389Y55912D01*
X1213484Y55934D01*
X1213581Y55950D01*
X1213602Y55962D01*
X1213626Y55968D01*
X1213710Y56019D01*
X1213796Y56065D01*
X1213813Y56083D01*
X1213834Y56096D01*
X1213896Y56172D01*
X1213963Y56243D01*
X1213973Y56266D01*
X1213989Y56285D01*
X1214023Y56376D01*
X1214064Y56466D01*
X1214066Y56490D01*
X1214075Y56513D01*
X1214089Y56660D01*
X1214089Y99211D01*
X1214077Y99284D01*
X1214075Y99357D01*
X1214058Y99403D01*
X1214050Y99452D01*
X1214015Y99517D01*
X1213989Y99585D01*
X1213958Y99624D01*
X1213935Y99667D01*
X1213881Y99717D01*
X1213834Y99774D01*
X1213793Y99800D01*
X1213757Y99834D01*
X1213690Y99864D01*
X1213627Y99903D01*
X1213579Y99914D01*
X1213534Y99935D01*
X1213461Y99942D01*
X1213390Y99959D01*
X1213341Y99954D01*
X1213291Y99959D01*
X1213220Y99942D01*
X1213147Y99935D01*
X1213102Y99915D01*
X1213054Y99904D01*
X1212991Y99865D01*
X1212924Y99835D01*
X1212868Y99788D01*
X1212846Y99775D01*
X1212836Y99762D01*
X1212810Y99741D01*
X1208058Y94989D01*
X1200189Y91729D01*
X1191671Y91729D01*
X1183802Y94989D01*
X1177779Y101012D01*
X1174519Y108881D01*
X1174519Y117399D01*
X1177779Y125268D01*
X1183802Y131291D01*
X1191671Y134551D01*
X1200189Y134551D01*
X1208058Y131291D01*
X1212810Y126539D01*
X1212870Y126496D01*
X1212924Y126446D01*
X1212968Y126426D01*
X1213009Y126397D01*
X1213079Y126376D01*
X1213146Y126345D01*
X1213195Y126340D01*
X1213242Y126326D01*
X1213315Y126328D01*
X1213389Y126321D01*
X1213437Y126332D01*
X1213486Y126334D01*
X1213555Y126360D01*
X1213626Y126376D01*
X1213668Y126403D01*
X1213714Y126420D01*
X1213771Y126466D01*
X1213834Y126505D01*
X1213865Y126543D01*
X1213903Y126575D01*
X1213942Y126637D01*
X1213989Y126694D01*
X1214006Y126740D01*
X1214032Y126782D01*
X1214049Y126853D01*
X1214075Y126922D01*
X1214082Y126995D01*
X1214088Y127019D01*
X1214086Y127036D01*
X1214089Y127069D01*
X1214089Y312611D01*
X1214077Y312684D01*
X1214075Y312757D01*
X1214058Y312803D01*
X1214050Y312852D01*
X1214015Y312917D01*
X1213989Y312985D01*
X1213958Y313024D01*
X1213935Y313067D01*
X1213881Y313117D01*
X1213834Y313174D01*
X1213793Y313200D01*
X1213757Y313234D01*
X1213690Y313264D01*
X1213627Y313303D01*
X1213579Y313314D01*
X1213534Y313335D01*
X1213461Y313342D01*
X1213390Y313359D01*
X1213341Y313354D01*
X1213291Y313359D01*
X1213220Y313342D01*
X1213147Y313335D01*
X1213102Y313315D01*
X1213054Y313304D01*
X1212991Y313265D01*
X1212924Y313235D01*
X1212868Y313188D01*
X1212846Y313175D01*
X1212836Y313162D01*
X1212810Y313141D01*
X1208058Y308389D01*
X1200189Y305129D01*
X1191671Y305129D01*
X1183802Y308389D01*
X1177779Y314412D01*
X1174519Y322281D01*
X1174519Y330799D01*
X1177779Y338668D01*
X1183802Y344691D01*
X1191671Y347951D01*
X1200189Y347951D01*
X1208058Y344691D01*
X1212810Y339939D01*
X1212870Y339896D01*
X1212924Y339846D01*
X1212968Y339826D01*
X1213009Y339797D01*
X1213079Y339776D01*
X1213146Y339745D01*
X1213195Y339740D01*
X1213242Y339726D01*
X1213315Y339728D01*
X1213389Y339721D01*
X1213437Y339732D01*
X1213486Y339734D01*
X1213555Y339760D01*
X1213626Y339776D01*
X1213668Y339803D01*
X1213714Y339820D01*
X1213771Y339866D01*
X1213834Y339905D01*
X1213865Y339943D01*
X1213903Y339975D01*
X1213942Y340037D01*
X1213989Y340094D01*
X1214006Y340140D01*
X1214032Y340182D01*
X1214049Y340253D01*
X1214075Y340322D01*
X1214082Y340395D01*
X1214088Y340419D01*
X1214086Y340436D01*
X1214089Y340469D01*
X1214089Y607572D01*
X1214077Y607645D01*
X1214075Y607718D01*
X1214058Y607764D01*
X1214050Y607813D01*
X1214015Y607878D01*
X1213989Y607946D01*
X1213958Y607985D01*
X1213935Y608028D01*
X1213881Y608078D01*
X1213834Y608135D01*
X1213793Y608161D01*
X1213757Y608195D01*
X1213690Y608225D01*
X1213627Y608264D01*
X1213579Y608275D01*
X1213534Y608296D01*
X1213461Y608303D01*
X1213390Y608320D01*
X1213341Y608315D01*
X1213291Y608320D01*
X1213220Y608303D01*
X1213147Y608296D01*
X1213102Y608276D01*
X1213054Y608265D01*
X1212991Y608226D01*
X1212924Y608196D01*
X1212868Y608149D01*
X1212846Y608136D01*
X1212836Y608123D01*
X1212810Y608102D01*
X1205787Y601078D01*
X1195876Y596029D01*
X1184890Y594289D01*
X1173904Y596029D01*
X1163993Y601078D01*
X1156128Y608943D01*
X1151079Y618854D01*
X1149339Y629840D01*
X1151079Y640826D01*
X1156128Y650737D01*
X1163994Y658602D01*
X1171983Y662672D01*
X1172038Y662713D01*
X1172099Y662745D01*
X1172136Y662785D01*
X1172179Y662817D01*
X1172218Y662873D01*
X1172265Y662924D01*
X1172288Y662973D01*
X1172319Y663017D01*
X1172338Y663083D01*
X1172366Y663146D01*
X1172372Y663200D01*
X1172387Y663252D01*
X1172383Y663320D01*
X1172390Y663389D01*
X1172378Y663441D01*
X1172376Y663495D01*
X1172351Y663559D01*
X1172335Y663626D01*
X1172306Y663672D01*
X1172287Y663723D01*
X1172243Y663775D01*
X1172206Y663834D01*
X1172165Y663868D01*
X1172130Y663909D01*
X1172071Y663945D01*
X1172018Y663989D01*
X1171967Y664008D01*
X1171921Y664036D01*
X1171854Y664050D01*
X1171790Y664075D01*
X1171706Y664083D01*
X1171683Y664088D01*
X1171669Y664087D01*
X1171643Y664089D01*
X278050Y664089D01*
X277983Y664078D01*
X277914Y664077D01*
X277863Y664058D01*
X277810Y664050D01*
X277749Y664017D01*
X277685Y663994D01*
X277642Y663960D01*
X277594Y663935D01*
X277548Y663884D01*
X277494Y663842D01*
X277465Y663796D01*
X277428Y663757D01*
X277399Y663694D01*
X277362Y663636D01*
X277349Y663584D01*
X277327Y663534D01*
X277320Y663466D01*
X277304Y663399D01*
X277308Y663345D01*
X277303Y663291D01*
X277318Y663225D01*
X277324Y663156D01*
X277346Y663107D01*
X277358Y663054D01*
X277394Y662995D01*
X277422Y662933D01*
X277458Y662892D01*
X277487Y662846D01*
X277540Y662803D01*
X277586Y662752D01*
X277656Y662707D01*
X277675Y662692D01*
X277688Y662687D01*
X277710Y662672D01*
X285857Y658522D01*
X293722Y650657D01*
X298771Y640746D01*
X300511Y629760D01*
X298771Y618774D01*
X293722Y608863D01*
X285857Y600998D01*
X275946Y595949D01*
X264960Y594209D01*
X253974Y595949D01*
X244063Y600998D01*
X237190Y607872D01*
X237130Y607915D01*
X237076Y607965D01*
X237032Y607985D01*
X236991Y608014D01*
X236921Y608035D01*
X236854Y608066D01*
X236805Y608071D01*
X236758Y608085D01*
X236685Y608083D01*
X236611Y608090D01*
X236563Y608079D01*
X236514Y608077D01*
X236445Y608051D01*
X236374Y608035D01*
X236332Y608009D01*
X236286Y607991D01*
X236229Y607945D01*
X236166Y607906D01*
X236135Y607868D01*
X236097Y607837D01*
X236058Y607774D01*
X236011Y607717D01*
X235994Y607671D01*
X235968Y607629D01*
X235951Y607558D01*
X235925Y607489D01*
X235918Y607416D01*
X235912Y607392D01*
X235914Y607375D01*
X235911Y607342D01*
X235911Y111778D01*
X235923Y111705D01*
X235925Y111632D01*
X235942Y111586D01*
X235950Y111537D01*
X235985Y111472D01*
X236011Y111404D01*
X236042Y111365D01*
X236065Y111322D01*
X236119Y111272D01*
X236166Y111215D01*
X236207Y111189D01*
X236243Y111155D01*
X236310Y111125D01*
X236373Y111086D01*
X236421Y111075D01*
X236466Y111054D01*
X236539Y111047D01*
X236610Y111030D01*
X236659Y111035D01*
X236709Y111030D01*
X236780Y111047D01*
X236853Y111054D01*
X236898Y111074D01*
X236946Y111085D01*
X237009Y111124D01*
X237076Y111154D01*
X237132Y111201D01*
X237154Y111214D01*
X237164Y111227D01*
X237190Y111248D01*
X244963Y119022D01*
X254874Y124071D01*
X265860Y125811D01*
X276846Y124071D01*
X286757Y119022D01*
X294622Y111157D01*
X299671Y101246D01*
X301411Y90260D01*
X299671Y79274D01*
X294622Y69363D01*
X286757Y61498D01*
X278571Y57328D01*
X278516Y57287D01*
X278455Y57255D01*
X278418Y57215D01*
X278375Y57183D01*
X278335Y57127D01*
X278288Y57076D01*
X278266Y57027D01*
X278235Y56983D01*
X278216Y56917D01*
X278188Y56854D01*
X278182Y56800D01*
X278167Y56748D01*
X278170Y56680D01*
X278163Y56611D01*
X278176Y56559D01*
X278178Y56505D01*
X278203Y56441D01*
X278219Y56374D01*
X278247Y56328D01*
X278267Y56277D01*
X278311Y56225D01*
X278347Y56166D01*
X278389Y56132D01*
X278424Y56091D01*
X278483Y56055D01*
X278536Y56011D01*
X278586Y55992D01*
X278633Y55964D01*
X278700Y55949D01*
X278764Y55925D01*
X278847Y55917D01*
X278871Y55912D01*
X278885Y55913D01*
X278911Y55911D01*
X1213340Y55911D01*
X1213364Y55915D01*
G37*
%LPC*%
G36*
X796589Y603249D02*
X796589Y603249D01*
X789805Y605067D01*
X783724Y608578D01*
X778758Y613544D01*
X775247Y619625D01*
X773429Y626409D01*
X773429Y633431D01*
X773618Y634137D01*
X773619Y634137D01*
X773619Y634138D01*
X773819Y634887D01*
X774020Y635636D01*
X774221Y636385D01*
X774421Y637134D01*
X774422Y637134D01*
X774422Y637135D01*
X774823Y638633D01*
X775024Y639382D01*
X775247Y640215D01*
X778758Y646296D01*
X783724Y651262D01*
X789805Y654773D01*
X796589Y656591D01*
X803611Y656591D01*
X810395Y654773D01*
X816476Y651262D01*
X821442Y646296D01*
X824953Y640215D01*
X826771Y633431D01*
X826771Y626409D01*
X826737Y626284D01*
X826537Y625535D01*
X826135Y624037D01*
X826135Y624036D01*
X825934Y623287D01*
X825533Y621789D01*
X825332Y621040D01*
X825332Y621039D01*
X824953Y619625D01*
X821442Y613544D01*
X816476Y608578D01*
X810395Y605067D01*
X803611Y603249D01*
X796589Y603249D01*
G37*
%LPD*%
%LPC*%
G36*
X593389Y603249D02*
X593389Y603249D01*
X586605Y605067D01*
X580524Y608578D01*
X575558Y613544D01*
X572047Y619625D01*
X570229Y626409D01*
X570229Y633431D01*
X570418Y634137D01*
X570419Y634137D01*
X570419Y634138D01*
X570619Y634887D01*
X570820Y635636D01*
X571021Y636385D01*
X571221Y637134D01*
X571222Y637134D01*
X571222Y637135D01*
X571623Y638633D01*
X571824Y639382D01*
X572047Y640215D01*
X575558Y646296D01*
X580524Y651262D01*
X586605Y654773D01*
X593389Y656591D01*
X600411Y656591D01*
X607195Y654773D01*
X613276Y651262D01*
X618242Y646296D01*
X621753Y640215D01*
X623571Y633431D01*
X623571Y626409D01*
X623537Y626284D01*
X623337Y625535D01*
X622935Y624037D01*
X622935Y624036D01*
X622734Y623287D01*
X622333Y621789D01*
X622132Y621040D01*
X622132Y621039D01*
X621753Y619625D01*
X618242Y613544D01*
X613276Y608578D01*
X607195Y605067D01*
X600411Y603249D01*
X593389Y603249D01*
G37*
%LPD*%
%LPC*%
G36*
X571871Y305129D02*
X571871Y305129D01*
X564002Y308389D01*
X557979Y314412D01*
X554719Y322281D01*
X554719Y330799D01*
X557979Y338668D01*
X564002Y344691D01*
X571871Y347951D01*
X580389Y347951D01*
X588258Y344691D01*
X594281Y338668D01*
X597541Y330799D01*
X597541Y322281D01*
X594281Y314412D01*
X588258Y308389D01*
X580389Y305129D01*
X571871Y305129D01*
G37*
%LPD*%
%LPC*%
G36*
X571871Y91729D02*
X571871Y91729D01*
X564002Y94989D01*
X557979Y101012D01*
X554719Y108881D01*
X554719Y117399D01*
X557979Y125268D01*
X564002Y131291D01*
X571871Y134551D01*
X580389Y134551D01*
X588258Y131291D01*
X594281Y125268D01*
X597541Y117399D01*
X597541Y108881D01*
X594281Y101012D01*
X588258Y94989D01*
X580389Y91729D01*
X571871Y91729D01*
G37*
%LPD*%
%LPC*%
G36*
X868805Y508842D02*
X868805Y508842D01*
X861551Y513030D01*
X856628Y519807D01*
X854886Y528000D01*
X856628Y536193D01*
X861551Y542970D01*
X868805Y547158D01*
X877136Y548034D01*
X885102Y545445D01*
X891327Y539840D01*
X894734Y532188D01*
X894734Y523812D01*
X891327Y516160D01*
X885102Y510555D01*
X877136Y507966D01*
X868805Y508842D01*
G37*
%LPD*%
%LPC*%
G36*
X1033905Y508842D02*
X1033905Y508842D01*
X1026651Y513030D01*
X1021728Y519807D01*
X1019986Y528000D01*
X1021728Y536193D01*
X1026651Y542970D01*
X1033905Y547158D01*
X1042236Y548034D01*
X1050202Y545445D01*
X1056427Y539840D01*
X1059834Y532188D01*
X1059834Y523812D01*
X1056427Y516160D01*
X1050202Y510555D01*
X1042236Y507966D01*
X1033905Y508842D01*
G37*
%LPD*%
%LPC*%
G36*
X1121802Y539432D02*
X1121802Y539432D01*
X1117951Y541027D01*
X1115003Y543975D01*
X1113408Y547826D01*
X1113408Y551994D01*
X1115003Y555845D01*
X1117951Y558793D01*
X1121802Y560388D01*
X1143878Y560388D01*
X1147729Y558793D01*
X1150677Y555845D01*
X1152272Y551994D01*
X1152272Y547826D01*
X1150677Y543975D01*
X1147729Y541027D01*
X1143878Y539432D01*
X1121802Y539432D01*
G37*
%LPD*%
%LPC*%
G36*
X1121802Y437832D02*
X1121802Y437832D01*
X1117951Y439427D01*
X1115003Y442375D01*
X1113408Y446226D01*
X1113408Y450394D01*
X1115003Y454245D01*
X1117951Y457193D01*
X1121802Y458788D01*
X1143878Y458788D01*
X1147729Y457193D01*
X1150677Y454245D01*
X1152272Y450394D01*
X1152272Y446226D01*
X1150677Y442375D01*
X1147729Y439427D01*
X1143878Y437832D01*
X1121802Y437832D01*
G37*
%LPD*%
%LPC*%
G36*
X913138Y602365D02*
X913138Y602365D01*
X912245Y603258D01*
X912245Y621022D01*
X913138Y621915D01*
X930902Y621915D01*
X931795Y621022D01*
X931795Y603258D01*
X930902Y602365D01*
X913138Y602365D01*
G37*
%LPD*%
%LPC*%
G36*
X1026168Y602365D02*
X1026168Y602365D01*
X1025275Y603258D01*
X1025275Y621022D01*
X1026168Y621915D01*
X1043932Y621915D01*
X1044825Y621022D01*
X1044825Y603258D01*
X1043932Y602365D01*
X1026168Y602365D01*
G37*
%LPD*%
%LPC*%
G36*
X734947Y390527D02*
X734947Y390527D01*
X730933Y392190D01*
X727860Y395263D01*
X726197Y399277D01*
X726197Y403623D01*
X727860Y407637D01*
X730933Y410710D01*
X734947Y412373D01*
X739293Y412373D01*
X743307Y410710D01*
X746380Y407637D01*
X748043Y403623D01*
X748043Y399277D01*
X746380Y395263D01*
X743307Y392190D01*
X739293Y390527D01*
X734947Y390527D01*
G37*
%LPD*%
%LPC*%
G36*
X684147Y390527D02*
X684147Y390527D01*
X680133Y392190D01*
X677060Y395263D01*
X675397Y399277D01*
X675397Y403623D01*
X677060Y407637D01*
X680133Y410710D01*
X684147Y412373D01*
X688493Y412373D01*
X692507Y410710D01*
X695580Y407637D01*
X697243Y403623D01*
X697243Y399277D01*
X695580Y395263D01*
X692507Y392190D01*
X688493Y390527D01*
X684147Y390527D01*
G37*
%LPD*%
%LPC*%
G36*
X709547Y390527D02*
X709547Y390527D01*
X705533Y392190D01*
X702460Y395263D01*
X700797Y399277D01*
X700797Y403623D01*
X702460Y407637D01*
X705533Y410710D01*
X709547Y412373D01*
X713893Y412373D01*
X717907Y410710D01*
X720980Y407637D01*
X722643Y403623D01*
X722643Y399277D01*
X720980Y395263D01*
X717907Y392190D01*
X713893Y390527D01*
X709547Y390527D01*
G37*
%LPD*%
%LPC*%
G36*
X443428Y615825D02*
X443428Y615825D01*
X439601Y617411D01*
X436671Y620341D01*
X435085Y624168D01*
X435085Y628312D01*
X436671Y632139D01*
X439601Y635069D01*
X443428Y636655D01*
X447572Y636655D01*
X451399Y635069D01*
X454329Y632139D01*
X455915Y628312D01*
X455915Y624168D01*
X454329Y620341D01*
X451399Y617411D01*
X447572Y615825D01*
X443428Y615825D01*
G37*
%LPD*%
%LPC*%
G36*
X418028Y615825D02*
X418028Y615825D01*
X414201Y617411D01*
X411271Y620341D01*
X409685Y624168D01*
X409685Y628312D01*
X411271Y632139D01*
X414201Y635069D01*
X418028Y636655D01*
X422172Y636655D01*
X425999Y635069D01*
X428929Y632139D01*
X430515Y628312D01*
X430515Y624168D01*
X428929Y620341D01*
X425999Y617411D01*
X422172Y615825D01*
X418028Y615825D01*
G37*
%LPD*%
%LPC*%
G36*
X392628Y615825D02*
X392628Y615825D01*
X388801Y617411D01*
X385871Y620341D01*
X384285Y624168D01*
X384285Y628312D01*
X385871Y632139D01*
X388801Y635069D01*
X392628Y636655D01*
X396772Y636655D01*
X400599Y635069D01*
X403529Y632139D01*
X405115Y628312D01*
X405115Y624168D01*
X403529Y620341D01*
X400599Y617411D01*
X396772Y615825D01*
X392628Y615825D01*
G37*
%LPD*%
%LPC*%
G36*
X468828Y615825D02*
X468828Y615825D01*
X465001Y617411D01*
X462071Y620341D01*
X460485Y624168D01*
X460485Y628312D01*
X462071Y632139D01*
X465001Y635069D01*
X468828Y636655D01*
X472972Y636655D01*
X476799Y635069D01*
X479729Y632139D01*
X481315Y628312D01*
X481315Y624168D01*
X479729Y620341D01*
X476799Y617411D01*
X472972Y615825D01*
X468828Y615825D01*
G37*
%LPD*%
%LPC*%
G36*
X892008Y403285D02*
X892008Y403285D01*
X888181Y404871D01*
X885251Y407801D01*
X883665Y411628D01*
X883665Y415772D01*
X885251Y419599D01*
X888181Y422529D01*
X892008Y424115D01*
X896152Y424115D01*
X899979Y422529D01*
X902909Y419599D01*
X904495Y415772D01*
X904495Y411628D01*
X902909Y407801D01*
X899979Y404871D01*
X896152Y403285D01*
X892008Y403285D01*
G37*
%LPD*%
%LPC*%
G36*
X866608Y403285D02*
X866608Y403285D01*
X862781Y404871D01*
X859851Y407801D01*
X858265Y411628D01*
X858265Y415772D01*
X859851Y419599D01*
X862781Y422529D01*
X866608Y424115D01*
X870752Y424115D01*
X874579Y422529D01*
X877509Y419599D01*
X879095Y415772D01*
X879095Y411628D01*
X877509Y407801D01*
X874579Y404871D01*
X870752Y403285D01*
X866608Y403285D01*
G37*
%LPD*%
%LPC*%
G36*
X439888Y183895D02*
X439888Y183895D01*
X436061Y185481D01*
X433131Y188411D01*
X431545Y192238D01*
X431545Y196382D01*
X433131Y200209D01*
X436061Y203139D01*
X439888Y204725D01*
X444032Y204725D01*
X447859Y203139D01*
X450789Y200209D01*
X452375Y196382D01*
X452375Y192238D01*
X450789Y188411D01*
X447859Y185481D01*
X444032Y183895D01*
X439888Y183895D01*
G37*
%LPD*%
%LPC*%
G36*
X363688Y310895D02*
X363688Y310895D01*
X359861Y312481D01*
X356931Y315411D01*
X355345Y319238D01*
X355345Y323382D01*
X356931Y327209D01*
X359861Y330139D01*
X363688Y331725D01*
X367832Y331725D01*
X371659Y330139D01*
X374589Y327209D01*
X376175Y323382D01*
X376175Y319238D01*
X374589Y315411D01*
X371659Y312481D01*
X367832Y310895D01*
X363688Y310895D01*
G37*
%LPD*%
%LPC*%
G36*
X389088Y310895D02*
X389088Y310895D01*
X385261Y312481D01*
X382331Y315411D01*
X380745Y319238D01*
X380745Y323382D01*
X382331Y327209D01*
X385261Y330139D01*
X389088Y331725D01*
X393232Y331725D01*
X397059Y330139D01*
X399989Y327209D01*
X401575Y323382D01*
X401575Y319238D01*
X399989Y315411D01*
X397059Y312481D01*
X393232Y310895D01*
X389088Y310895D01*
G37*
%LPD*%
%LPC*%
G36*
X414488Y310895D02*
X414488Y310895D01*
X410661Y312481D01*
X407731Y315411D01*
X406145Y319238D01*
X406145Y323382D01*
X407731Y327209D01*
X410661Y330139D01*
X414488Y331725D01*
X418632Y331725D01*
X422459Y330139D01*
X425389Y327209D01*
X426975Y323382D01*
X426975Y319238D01*
X425389Y315411D01*
X422459Y312481D01*
X418632Y310895D01*
X414488Y310895D01*
G37*
%LPD*%
%LPC*%
G36*
X494228Y438025D02*
X494228Y438025D01*
X490401Y439611D01*
X487471Y442541D01*
X485885Y446368D01*
X485885Y450512D01*
X487471Y454339D01*
X490401Y457269D01*
X494228Y458855D01*
X498372Y458855D01*
X502199Y457269D01*
X505129Y454339D01*
X506715Y450512D01*
X506715Y446368D01*
X505129Y442541D01*
X502199Y439611D01*
X498372Y438025D01*
X494228Y438025D01*
G37*
%LPD*%
%LPC*%
G36*
X468828Y438025D02*
X468828Y438025D01*
X465001Y439611D01*
X462071Y442541D01*
X460485Y446368D01*
X460485Y450512D01*
X462071Y454339D01*
X465001Y457269D01*
X468828Y458855D01*
X472972Y458855D01*
X476799Y457269D01*
X479729Y454339D01*
X481315Y450512D01*
X481315Y446368D01*
X479729Y442541D01*
X476799Y439611D01*
X472972Y438025D01*
X468828Y438025D01*
G37*
%LPD*%
%LPC*%
G36*
X443428Y438025D02*
X443428Y438025D01*
X439601Y439611D01*
X436671Y442541D01*
X435085Y446368D01*
X435085Y450512D01*
X436671Y454339D01*
X439601Y457269D01*
X443428Y458855D01*
X447572Y458855D01*
X451399Y457269D01*
X454329Y454339D01*
X455915Y450512D01*
X455915Y446368D01*
X454329Y442541D01*
X451399Y439611D01*
X447572Y438025D01*
X443428Y438025D01*
G37*
%LPD*%
%LPC*%
G36*
X392628Y438025D02*
X392628Y438025D01*
X388801Y439611D01*
X385871Y442541D01*
X384285Y446368D01*
X384285Y450512D01*
X385871Y454339D01*
X388801Y457269D01*
X392628Y458855D01*
X396772Y458855D01*
X400599Y457269D01*
X403529Y454339D01*
X405115Y450512D01*
X405115Y446368D01*
X403529Y442541D01*
X400599Y439611D01*
X396772Y438025D01*
X392628Y438025D01*
G37*
%LPD*%
%LPC*%
G36*
X367228Y438025D02*
X367228Y438025D01*
X363401Y439611D01*
X360471Y442541D01*
X358885Y446368D01*
X358885Y450512D01*
X360471Y454339D01*
X363401Y457269D01*
X367228Y458855D01*
X371372Y458855D01*
X375199Y457269D01*
X378129Y454339D01*
X379715Y450512D01*
X379715Y446368D01*
X378129Y442541D01*
X375199Y439611D01*
X371372Y438025D01*
X367228Y438025D01*
G37*
%LPD*%
%LPC*%
G36*
X367228Y615825D02*
X367228Y615825D01*
X363401Y617411D01*
X360471Y620341D01*
X358885Y624168D01*
X358885Y628312D01*
X360471Y632139D01*
X363401Y635069D01*
X367228Y636655D01*
X371372Y636655D01*
X375199Y635069D01*
X378129Y632139D01*
X379715Y628312D01*
X379715Y624168D01*
X378129Y620341D01*
X375199Y617411D01*
X371372Y615825D01*
X367228Y615825D01*
G37*
%LPD*%
%LPC*%
G36*
X494228Y615825D02*
X494228Y615825D01*
X490401Y617411D01*
X487471Y620341D01*
X485885Y624168D01*
X485885Y628312D01*
X487471Y632139D01*
X490401Y635069D01*
X494228Y636655D01*
X498372Y636655D01*
X502199Y635069D01*
X505129Y632139D01*
X506715Y628312D01*
X506715Y624168D01*
X505129Y620341D01*
X502199Y617411D01*
X498372Y615825D01*
X494228Y615825D01*
G37*
%LPD*%
%LPC*%
G36*
X312888Y183895D02*
X312888Y183895D01*
X309061Y185481D01*
X306131Y188411D01*
X304545Y192238D01*
X304545Y196382D01*
X306131Y200209D01*
X309061Y203139D01*
X312888Y204725D01*
X317032Y204725D01*
X320859Y203139D01*
X323789Y200209D01*
X325375Y196382D01*
X325375Y192238D01*
X323789Y188411D01*
X320859Y185481D01*
X317032Y183895D01*
X312888Y183895D01*
G37*
%LPD*%
%LPC*%
G36*
X338288Y183895D02*
X338288Y183895D01*
X334461Y185481D01*
X331531Y188411D01*
X329945Y192238D01*
X329945Y196382D01*
X331531Y200209D01*
X334461Y203139D01*
X338288Y204725D01*
X342432Y204725D01*
X346259Y203139D01*
X349189Y200209D01*
X350775Y196382D01*
X350775Y192238D01*
X349189Y188411D01*
X346259Y185481D01*
X342432Y183895D01*
X338288Y183895D01*
G37*
%LPD*%
%LPC*%
G36*
X389088Y183895D02*
X389088Y183895D01*
X385261Y185481D01*
X382331Y188411D01*
X380745Y192238D01*
X380745Y196382D01*
X382331Y200209D01*
X385261Y203139D01*
X389088Y204725D01*
X393232Y204725D01*
X397059Y203139D01*
X399989Y200209D01*
X401575Y196382D01*
X401575Y192238D01*
X399989Y188411D01*
X397059Y185481D01*
X393232Y183895D01*
X389088Y183895D01*
G37*
%LPD*%
%LPC*%
G36*
X414488Y183895D02*
X414488Y183895D01*
X410661Y185481D01*
X407731Y188411D01*
X406145Y192238D01*
X406145Y196382D01*
X407731Y200209D01*
X410661Y203139D01*
X414488Y204725D01*
X418632Y204725D01*
X422459Y203139D01*
X425389Y200209D01*
X426975Y196382D01*
X426975Y192238D01*
X425389Y188411D01*
X422459Y185481D01*
X418632Y183895D01*
X414488Y183895D01*
G37*
%LPD*%
%LPC*%
G36*
X1044408Y403285D02*
X1044408Y403285D01*
X1040581Y404871D01*
X1037651Y407801D01*
X1036065Y411628D01*
X1036065Y415772D01*
X1037651Y419599D01*
X1040581Y422529D01*
X1044408Y424115D01*
X1048552Y424115D01*
X1052379Y422529D01*
X1055309Y419599D01*
X1056895Y415772D01*
X1056895Y411628D01*
X1055309Y407801D01*
X1052379Y404871D01*
X1048552Y403285D01*
X1044408Y403285D01*
G37*
%LPD*%
%LPC*%
G36*
X1019008Y403285D02*
X1019008Y403285D01*
X1015181Y404871D01*
X1012251Y407801D01*
X1010665Y411628D01*
X1010665Y415772D01*
X1012251Y419599D01*
X1015181Y422529D01*
X1019008Y424115D01*
X1023152Y424115D01*
X1026979Y422529D01*
X1029909Y419599D01*
X1031495Y415772D01*
X1031495Y411628D01*
X1029909Y407801D01*
X1026979Y404871D01*
X1023152Y403285D01*
X1019008Y403285D01*
G37*
%LPD*%
%LPC*%
G36*
X993608Y403285D02*
X993608Y403285D01*
X989781Y404871D01*
X986851Y407801D01*
X985265Y411628D01*
X985265Y415772D01*
X986851Y419599D01*
X989781Y422529D01*
X993608Y424115D01*
X997752Y424115D01*
X1001579Y422529D01*
X1004509Y419599D01*
X1006095Y415772D01*
X1006095Y411628D01*
X1004509Y407801D01*
X1001579Y404871D01*
X997752Y403285D01*
X993608Y403285D01*
G37*
%LPD*%
%LPC*%
G36*
X968208Y403285D02*
X968208Y403285D01*
X964381Y404871D01*
X961451Y407801D01*
X959865Y411628D01*
X959865Y415772D01*
X961451Y419599D01*
X964381Y422529D01*
X968208Y424115D01*
X972352Y424115D01*
X976179Y422529D01*
X979109Y419599D01*
X980695Y415772D01*
X980695Y411628D01*
X979109Y407801D01*
X976179Y404871D01*
X972352Y403285D01*
X968208Y403285D01*
G37*
%LPD*%
%LPC*%
G36*
X942808Y403285D02*
X942808Y403285D01*
X938981Y404871D01*
X936051Y407801D01*
X934465Y411628D01*
X934465Y415772D01*
X936051Y419599D01*
X938981Y422529D01*
X942808Y424115D01*
X946952Y424115D01*
X950779Y422529D01*
X953709Y419599D01*
X955295Y415772D01*
X955295Y411628D01*
X953709Y407801D01*
X950779Y404871D01*
X946952Y403285D01*
X942808Y403285D01*
G37*
%LPD*%
%LPC*%
G36*
X987332Y109429D02*
X987332Y109429D01*
X986439Y110322D01*
X986439Y126666D01*
X987332Y127559D01*
X1003676Y127559D01*
X1004569Y126666D01*
X1004569Y110322D01*
X1003676Y109429D01*
X987332Y109429D01*
G37*
%LPD*%
%LPC*%
G36*
X987332Y312121D02*
X987332Y312121D01*
X986439Y313014D01*
X986439Y329358D01*
X987332Y330251D01*
X1003676Y330251D01*
X1004569Y329358D01*
X1004569Y313014D01*
X1003676Y312121D01*
X987332Y312121D01*
G37*
%LPD*%
%LPC*%
G36*
X982306Y602365D02*
X982306Y602365D01*
X978713Y603853D01*
X975963Y606603D01*
X974475Y610196D01*
X974475Y614084D01*
X975963Y617677D01*
X978713Y620427D01*
X982306Y621915D01*
X986194Y621915D01*
X989787Y620427D01*
X992537Y617677D01*
X994025Y614084D01*
X994025Y610196D01*
X992537Y606603D01*
X989787Y603853D01*
X986194Y602365D01*
X982306Y602365D01*
G37*
%LPD*%
%LPC*%
G36*
X942901Y109429D02*
X942901Y109429D01*
X939569Y110809D01*
X937019Y113359D01*
X935639Y116691D01*
X935639Y120297D01*
X937019Y123629D01*
X939569Y126179D01*
X942901Y127559D01*
X946507Y127559D01*
X949839Y126179D01*
X952389Y123629D01*
X953769Y120297D01*
X953769Y116691D01*
X952389Y113359D01*
X949839Y110809D01*
X946507Y109429D01*
X942901Y109429D01*
G37*
%LPD*%
%LPC*%
G36*
X892101Y109429D02*
X892101Y109429D01*
X888769Y110809D01*
X886219Y113359D01*
X884839Y116691D01*
X884839Y120297D01*
X886219Y123629D01*
X888769Y126179D01*
X892101Y127559D01*
X895707Y127559D01*
X899039Y126179D01*
X901589Y123629D01*
X902969Y120297D01*
X902969Y116691D01*
X901589Y113359D01*
X899039Y110809D01*
X895707Y109429D01*
X892101Y109429D01*
G37*
%LPD*%
%LPC*%
G36*
X866701Y109429D02*
X866701Y109429D01*
X863369Y110809D01*
X860819Y113359D01*
X859439Y116691D01*
X859439Y120297D01*
X860819Y123629D01*
X863369Y126179D01*
X866701Y127559D01*
X870307Y127559D01*
X873639Y126179D01*
X876189Y123629D01*
X877569Y120297D01*
X877569Y116691D01*
X876189Y113359D01*
X873639Y110809D01*
X870307Y109429D01*
X866701Y109429D01*
G37*
%LPD*%
%LPC*%
G36*
X841301Y109429D02*
X841301Y109429D01*
X837969Y110809D01*
X835419Y113359D01*
X834039Y116691D01*
X834039Y120297D01*
X835419Y123629D01*
X837969Y126179D01*
X841301Y127559D01*
X844907Y127559D01*
X848239Y126179D01*
X850789Y123629D01*
X852169Y120297D01*
X852169Y116691D01*
X850789Y113359D01*
X848239Y110809D01*
X844907Y109429D01*
X841301Y109429D01*
G37*
%LPD*%
%LPC*%
G36*
X815901Y109429D02*
X815901Y109429D01*
X812569Y110809D01*
X810019Y113359D01*
X808639Y116691D01*
X808639Y120297D01*
X810019Y123629D01*
X812569Y126179D01*
X815901Y127559D01*
X819507Y127559D01*
X822839Y126179D01*
X825389Y123629D01*
X826769Y120297D01*
X826769Y116691D01*
X825389Y113359D01*
X822839Y110809D01*
X819507Y109429D01*
X815901Y109429D01*
G37*
%LPD*%
%LPC*%
G36*
X790501Y109429D02*
X790501Y109429D01*
X787169Y110809D01*
X784619Y113359D01*
X783239Y116691D01*
X783239Y120297D01*
X784619Y123629D01*
X787169Y126179D01*
X790501Y127559D01*
X794107Y127559D01*
X797439Y126179D01*
X799989Y123629D01*
X801369Y120297D01*
X801369Y116691D01*
X799989Y113359D01*
X797439Y110809D01*
X794107Y109429D01*
X790501Y109429D01*
G37*
%LPD*%
%LPC*%
G36*
X765101Y109429D02*
X765101Y109429D01*
X761769Y110809D01*
X759219Y113359D01*
X757839Y116691D01*
X757839Y120297D01*
X759219Y123629D01*
X761769Y126179D01*
X765101Y127559D01*
X768707Y127559D01*
X772039Y126179D01*
X774589Y123629D01*
X775969Y120297D01*
X775969Y116691D01*
X774589Y113359D01*
X772039Y110809D01*
X768707Y109429D01*
X765101Y109429D01*
G37*
%LPD*%
%LPC*%
G36*
X739701Y109429D02*
X739701Y109429D01*
X736369Y110809D01*
X733819Y113359D01*
X732439Y116691D01*
X732439Y120297D01*
X733819Y123629D01*
X736369Y126179D01*
X739701Y127559D01*
X743307Y127559D01*
X746639Y126179D01*
X749189Y123629D01*
X750569Y120297D01*
X750569Y116691D01*
X749189Y113359D01*
X746639Y110809D01*
X743307Y109429D01*
X739701Y109429D01*
G37*
%LPD*%
%LPC*%
G36*
X714301Y109429D02*
X714301Y109429D01*
X710969Y110809D01*
X708419Y113359D01*
X707039Y116691D01*
X707039Y120297D01*
X708419Y123629D01*
X710969Y126179D01*
X714301Y127559D01*
X717907Y127559D01*
X721239Y126179D01*
X723789Y123629D01*
X725169Y120297D01*
X725169Y116691D01*
X723789Y113359D01*
X721239Y110809D01*
X717907Y109429D01*
X714301Y109429D01*
G37*
%LPD*%
%LPC*%
G36*
X688901Y109429D02*
X688901Y109429D01*
X685569Y110809D01*
X683019Y113359D01*
X681639Y116691D01*
X681639Y120297D01*
X683019Y123629D01*
X685569Y126179D01*
X688901Y127559D01*
X692507Y127559D01*
X695839Y126179D01*
X698389Y123629D01*
X699769Y120297D01*
X699769Y116691D01*
X698389Y113359D01*
X695839Y110809D01*
X692507Y109429D01*
X688901Y109429D01*
G37*
%LPD*%
%LPC*%
G36*
X663501Y109429D02*
X663501Y109429D01*
X660169Y110809D01*
X657619Y113359D01*
X656239Y116691D01*
X656239Y120297D01*
X657619Y123629D01*
X660169Y126179D01*
X663501Y127559D01*
X667107Y127559D01*
X670439Y126179D01*
X672989Y123629D01*
X674369Y120297D01*
X674369Y116691D01*
X672989Y113359D01*
X670439Y110809D01*
X667107Y109429D01*
X663501Y109429D01*
G37*
%LPD*%
%LPC*%
G36*
X917501Y312121D02*
X917501Y312121D01*
X914169Y313501D01*
X911619Y316051D01*
X910239Y319383D01*
X910239Y322989D01*
X911619Y326321D01*
X914169Y328871D01*
X917501Y330251D01*
X921107Y330251D01*
X924439Y328871D01*
X926989Y326321D01*
X928369Y322989D01*
X928369Y319383D01*
X926989Y316051D01*
X924439Y313501D01*
X921107Y312121D01*
X917501Y312121D01*
G37*
%LPD*%
%LPC*%
G36*
X688901Y312121D02*
X688901Y312121D01*
X685569Y313501D01*
X683019Y316051D01*
X681639Y319383D01*
X681639Y322989D01*
X683019Y326321D01*
X685569Y328871D01*
X688901Y330251D01*
X692507Y330251D01*
X695839Y328871D01*
X698389Y326321D01*
X699769Y322989D01*
X699769Y319383D01*
X698389Y316051D01*
X695839Y313501D01*
X692507Y312121D01*
X688901Y312121D01*
G37*
%LPD*%
%LPC*%
G36*
X663501Y312121D02*
X663501Y312121D01*
X660169Y313501D01*
X657619Y316051D01*
X656239Y319383D01*
X656239Y322989D01*
X657619Y326321D01*
X660169Y328871D01*
X663501Y330251D01*
X667107Y330251D01*
X670439Y328871D01*
X672989Y326321D01*
X674369Y322989D01*
X674369Y319383D01*
X672989Y316051D01*
X670439Y313501D01*
X667107Y312121D01*
X663501Y312121D01*
G37*
%LPD*%
%LPC*%
G36*
X968301Y312121D02*
X968301Y312121D01*
X964969Y313501D01*
X962419Y316051D01*
X961039Y319383D01*
X961039Y322989D01*
X962419Y326321D01*
X964969Y328871D01*
X968301Y330251D01*
X971907Y330251D01*
X975239Y328871D01*
X977789Y326321D01*
X979169Y322989D01*
X979169Y319383D01*
X977789Y316051D01*
X975239Y313501D01*
X971907Y312121D01*
X968301Y312121D01*
G37*
%LPD*%
%LPC*%
G36*
X942901Y312121D02*
X942901Y312121D01*
X939569Y313501D01*
X937019Y316051D01*
X935639Y319383D01*
X935639Y322989D01*
X937019Y326321D01*
X939569Y328871D01*
X942901Y330251D01*
X946507Y330251D01*
X949839Y328871D01*
X952389Y326321D01*
X953769Y322989D01*
X953769Y319383D01*
X952389Y316051D01*
X949839Y313501D01*
X946507Y312121D01*
X942901Y312121D01*
G37*
%LPD*%
%LPC*%
G36*
X892101Y312121D02*
X892101Y312121D01*
X888769Y313501D01*
X886219Y316051D01*
X884839Y319383D01*
X884839Y322989D01*
X886219Y326321D01*
X888769Y328871D01*
X892101Y330251D01*
X895707Y330251D01*
X899039Y328871D01*
X901589Y326321D01*
X902969Y322989D01*
X902969Y319383D01*
X901589Y316051D01*
X899039Y313501D01*
X895707Y312121D01*
X892101Y312121D01*
G37*
%LPD*%
%LPC*%
G36*
X866701Y312121D02*
X866701Y312121D01*
X863369Y313501D01*
X860819Y316051D01*
X859439Y319383D01*
X859439Y322989D01*
X860819Y326321D01*
X863369Y328871D01*
X866701Y330251D01*
X870307Y330251D01*
X873639Y328871D01*
X876189Y326321D01*
X877569Y322989D01*
X877569Y319383D01*
X876189Y316051D01*
X873639Y313501D01*
X870307Y312121D01*
X866701Y312121D01*
G37*
%LPD*%
%LPC*%
G36*
X841301Y312121D02*
X841301Y312121D01*
X837969Y313501D01*
X835419Y316051D01*
X834039Y319383D01*
X834039Y322989D01*
X835419Y326321D01*
X837969Y328871D01*
X841301Y330251D01*
X844907Y330251D01*
X848239Y328871D01*
X850789Y326321D01*
X852169Y322989D01*
X852169Y319383D01*
X850789Y316051D01*
X848239Y313501D01*
X844907Y312121D01*
X841301Y312121D01*
G37*
%LPD*%
%LPC*%
G36*
X815901Y312121D02*
X815901Y312121D01*
X812569Y313501D01*
X810019Y316051D01*
X808639Y319383D01*
X808639Y322989D01*
X810019Y326321D01*
X812569Y328871D01*
X815901Y330251D01*
X819507Y330251D01*
X822839Y328871D01*
X825389Y326321D01*
X826769Y322989D01*
X826769Y319383D01*
X825389Y316051D01*
X822839Y313501D01*
X819507Y312121D01*
X815901Y312121D01*
G37*
%LPD*%
%LPC*%
G36*
X790501Y312121D02*
X790501Y312121D01*
X787169Y313501D01*
X784619Y316051D01*
X783239Y319383D01*
X783239Y322989D01*
X784619Y326321D01*
X787169Y328871D01*
X790501Y330251D01*
X794107Y330251D01*
X797439Y328871D01*
X799989Y326321D01*
X801369Y322989D01*
X801369Y319383D01*
X799989Y316051D01*
X797439Y313501D01*
X794107Y312121D01*
X790501Y312121D01*
G37*
%LPD*%
%LPC*%
G36*
X765101Y312121D02*
X765101Y312121D01*
X761769Y313501D01*
X759219Y316051D01*
X757839Y319383D01*
X757839Y322989D01*
X759219Y326321D01*
X761769Y328871D01*
X765101Y330251D01*
X768707Y330251D01*
X772039Y328871D01*
X774589Y326321D01*
X775969Y322989D01*
X775969Y319383D01*
X774589Y316051D01*
X772039Y313501D01*
X768707Y312121D01*
X765101Y312121D01*
G37*
%LPD*%
%LPC*%
G36*
X739701Y312121D02*
X739701Y312121D01*
X736369Y313501D01*
X733819Y316051D01*
X732439Y319383D01*
X732439Y322989D01*
X733819Y326321D01*
X736369Y328871D01*
X739701Y330251D01*
X743307Y330251D01*
X746639Y328871D01*
X749189Y326321D01*
X750569Y322989D01*
X750569Y319383D01*
X749189Y316051D01*
X746639Y313501D01*
X743307Y312121D01*
X739701Y312121D01*
G37*
%LPD*%
%LPC*%
G36*
X714301Y312121D02*
X714301Y312121D01*
X710969Y313501D01*
X708419Y316051D01*
X707039Y319383D01*
X707039Y322989D01*
X708419Y326321D01*
X710969Y328871D01*
X714301Y330251D01*
X717907Y330251D01*
X721239Y328871D01*
X723789Y326321D01*
X725169Y322989D01*
X725169Y319383D01*
X723789Y316051D01*
X721239Y313501D01*
X717907Y312121D01*
X714301Y312121D01*
G37*
%LPD*%
%LPC*%
G36*
X968301Y109429D02*
X968301Y109429D01*
X964969Y110809D01*
X962419Y113359D01*
X961039Y116691D01*
X961039Y120297D01*
X962419Y123629D01*
X964969Y126179D01*
X968301Y127559D01*
X971907Y127559D01*
X975239Y126179D01*
X977789Y123629D01*
X979169Y120297D01*
X979169Y116691D01*
X977789Y113359D01*
X975239Y110809D01*
X971907Y109429D01*
X968301Y109429D01*
G37*
%LPD*%
%LPC*%
G36*
X1134339Y500609D02*
X1134339Y500609D01*
X1134339Y510604D01*
X1142698Y510604D01*
X1144485Y510321D01*
X1146206Y509762D01*
X1147818Y508941D01*
X1149281Y507877D01*
X1150561Y506598D01*
X1151624Y505134D01*
X1152446Y503522D01*
X1153005Y501802D01*
X1153194Y500609D01*
X1134339Y500609D01*
G37*
%LPD*%
%LPC*%
G36*
X1112486Y500609D02*
X1112486Y500609D01*
X1112675Y501802D01*
X1113234Y503522D01*
X1114056Y505134D01*
X1115119Y506598D01*
X1116399Y507877D01*
X1117862Y508941D01*
X1119474Y509762D01*
X1121195Y510321D01*
X1122982Y510604D01*
X1131341Y510604D01*
X1131341Y500609D01*
X1112486Y500609D01*
G37*
%LPD*%
%LPC*%
G36*
X1134339Y487616D02*
X1134339Y487616D01*
X1134339Y497611D01*
X1153194Y497611D01*
X1153005Y496418D01*
X1152446Y494698D01*
X1151624Y493086D01*
X1150561Y491622D01*
X1149281Y490343D01*
X1147818Y489279D01*
X1146206Y488458D01*
X1144485Y487899D01*
X1142698Y487616D01*
X1134339Y487616D01*
G37*
%LPD*%
%LPC*%
G36*
X1122982Y487616D02*
X1122982Y487616D01*
X1121195Y487899D01*
X1119474Y488458D01*
X1117862Y489279D01*
X1116399Y490343D01*
X1115119Y491622D01*
X1114056Y493086D01*
X1113234Y494698D01*
X1112675Y496418D01*
X1112486Y497611D01*
X1131341Y497611D01*
X1131341Y487616D01*
X1122982Y487616D01*
G37*
%LPD*%
%LPC*%
G36*
X662419Y402949D02*
X662419Y402949D01*
X662419Y413300D01*
X663716Y413095D01*
X665503Y412514D01*
X667177Y411661D01*
X668697Y410556D01*
X670026Y409227D01*
X671131Y407707D01*
X671984Y406033D01*
X672565Y404246D01*
X672770Y402949D01*
X662419Y402949D01*
G37*
%LPD*%
%LPC*%
G36*
X649070Y402949D02*
X649070Y402949D01*
X649275Y404246D01*
X649856Y406033D01*
X650709Y407707D01*
X651814Y409227D01*
X653143Y410556D01*
X654663Y411661D01*
X656337Y412514D01*
X658124Y413095D01*
X659421Y413300D01*
X659421Y402949D01*
X649070Y402949D01*
G37*
%LPD*%
%LPC*%
G36*
X662419Y399951D02*
X662419Y399951D01*
X672770Y399951D01*
X672565Y398654D01*
X671984Y396867D01*
X671131Y395193D01*
X670026Y393673D01*
X668697Y392344D01*
X667177Y391239D01*
X665503Y390386D01*
X663716Y389805D01*
X662419Y389600D01*
X662419Y399951D01*
G37*
%LPD*%
%LPC*%
G36*
X658124Y389805D02*
X658124Y389805D01*
X656337Y390386D01*
X654663Y391239D01*
X653143Y392344D01*
X651814Y393673D01*
X650709Y395193D01*
X649856Y396867D01*
X649275Y398654D01*
X649070Y399951D01*
X659421Y399951D01*
X659421Y389600D01*
X658124Y389805D01*
G37*
%LPD*%
%LPC*%
G36*
X421599Y449939D02*
X421599Y449939D01*
X421599Y459776D01*
X422777Y459589D01*
X424488Y459033D01*
X426091Y458216D01*
X427547Y457159D01*
X428819Y455887D01*
X429876Y454431D01*
X430693Y452828D01*
X431249Y451117D01*
X431436Y449939D01*
X421599Y449939D01*
G37*
%LPD*%
%LPC*%
G36*
X367259Y195809D02*
X367259Y195809D01*
X367259Y205646D01*
X368437Y205459D01*
X370148Y204903D01*
X371751Y204086D01*
X373207Y203029D01*
X374479Y201757D01*
X375536Y200301D01*
X376353Y198698D01*
X376909Y196987D01*
X377096Y195809D01*
X367259Y195809D01*
G37*
%LPD*%
%LPC*%
G36*
X920979Y415199D02*
X920979Y415199D01*
X920979Y425036D01*
X922157Y424849D01*
X923868Y424293D01*
X925471Y423476D01*
X926927Y422419D01*
X928199Y421147D01*
X929256Y419691D01*
X930073Y418088D01*
X930629Y416377D01*
X930816Y415199D01*
X920979Y415199D01*
G37*
%LPD*%
%LPC*%
G36*
X341859Y322809D02*
X341859Y322809D01*
X341859Y332646D01*
X343037Y332459D01*
X344748Y331903D01*
X346351Y331086D01*
X347807Y330029D01*
X349079Y328757D01*
X350136Y327301D01*
X350953Y325698D01*
X351509Y323987D01*
X351696Y322809D01*
X341859Y322809D01*
G37*
%LPD*%
%LPC*%
G36*
X354424Y195809D02*
X354424Y195809D01*
X354611Y196987D01*
X355167Y198698D01*
X355984Y200301D01*
X357041Y201757D01*
X358313Y203029D01*
X359769Y204086D01*
X361372Y204903D01*
X363083Y205459D01*
X364261Y205646D01*
X364261Y195809D01*
X354424Y195809D01*
G37*
%LPD*%
%LPC*%
G36*
X908144Y415199D02*
X908144Y415199D01*
X908331Y416377D01*
X908887Y418088D01*
X909704Y419691D01*
X910761Y421147D01*
X912033Y422419D01*
X913489Y423476D01*
X915092Y424293D01*
X916803Y424849D01*
X917981Y425036D01*
X917981Y415199D01*
X908144Y415199D01*
G37*
%LPD*%
%LPC*%
G36*
X408764Y449939D02*
X408764Y449939D01*
X408951Y451117D01*
X409507Y452828D01*
X410324Y454431D01*
X411381Y455887D01*
X412653Y457159D01*
X414109Y458216D01*
X415712Y459033D01*
X417423Y459589D01*
X418601Y459776D01*
X418601Y449939D01*
X408764Y449939D01*
G37*
%LPD*%
%LPC*%
G36*
X329024Y322809D02*
X329024Y322809D01*
X329211Y323987D01*
X329767Y325698D01*
X330584Y327301D01*
X331641Y328757D01*
X332913Y330029D01*
X334369Y331086D01*
X335972Y331903D01*
X337683Y332459D01*
X338861Y332646D01*
X338861Y322809D01*
X329024Y322809D01*
G37*
%LPD*%
%LPC*%
G36*
X920979Y412201D02*
X920979Y412201D01*
X930816Y412201D01*
X930629Y411023D01*
X930073Y409312D01*
X929256Y407709D01*
X928199Y406253D01*
X926927Y404981D01*
X925471Y403924D01*
X923868Y403107D01*
X922157Y402551D01*
X920979Y402364D01*
X920979Y412201D01*
G37*
%LPD*%
%LPC*%
G36*
X421599Y446941D02*
X421599Y446941D01*
X431436Y446941D01*
X431249Y445763D01*
X430693Y444052D01*
X429876Y442449D01*
X428819Y440993D01*
X427547Y439721D01*
X426091Y438664D01*
X424488Y437847D01*
X422777Y437291D01*
X421599Y437104D01*
X421599Y446941D01*
G37*
%LPD*%
%LPC*%
G36*
X367259Y192811D02*
X367259Y192811D01*
X377096Y192811D01*
X376909Y191633D01*
X376353Y189922D01*
X375536Y188319D01*
X374479Y186863D01*
X373207Y185591D01*
X371751Y184534D01*
X370148Y183717D01*
X368437Y183161D01*
X367259Y182974D01*
X367259Y192811D01*
G37*
%LPD*%
%LPC*%
G36*
X341859Y319811D02*
X341859Y319811D01*
X351696Y319811D01*
X351509Y318633D01*
X350953Y316922D01*
X350136Y315319D01*
X349079Y313863D01*
X347807Y312591D01*
X346351Y311534D01*
X344748Y310717D01*
X343037Y310161D01*
X341859Y309974D01*
X341859Y319811D01*
G37*
%LPD*%
%LPC*%
G36*
X363083Y183161D02*
X363083Y183161D01*
X361372Y183717D01*
X359769Y184534D01*
X358313Y185591D01*
X357041Y186863D01*
X355984Y188319D01*
X355167Y189922D01*
X354611Y191633D01*
X354424Y192811D01*
X364261Y192811D01*
X364261Y182974D01*
X363083Y183161D01*
G37*
%LPD*%
%LPC*%
G36*
X916803Y402551D02*
X916803Y402551D01*
X915092Y403107D01*
X913489Y403924D01*
X912033Y404981D01*
X910761Y406253D01*
X909704Y407709D01*
X908887Y409312D01*
X908331Y411023D01*
X908144Y412201D01*
X917981Y412201D01*
X917981Y402364D01*
X916803Y402551D01*
G37*
%LPD*%
%LPC*%
G36*
X417423Y437291D02*
X417423Y437291D01*
X415712Y437847D01*
X414109Y438664D01*
X412653Y439721D01*
X411381Y440993D01*
X410324Y442449D01*
X409507Y444052D01*
X408951Y445763D01*
X408764Y446941D01*
X418601Y446941D01*
X418601Y437104D01*
X417423Y437291D01*
G37*
%LPD*%
%LPC*%
G36*
X337683Y310161D02*
X337683Y310161D01*
X335972Y310717D01*
X334369Y311534D01*
X332913Y312591D01*
X331641Y313863D01*
X330584Y315319D01*
X329767Y316922D01*
X329211Y318633D01*
X329024Y319811D01*
X338861Y319811D01*
X338861Y309974D01*
X337683Y310161D01*
G37*
%LPD*%
%LPC*%
G36*
X872719Y613639D02*
X872719Y613639D01*
X872719Y622828D01*
X873747Y622665D01*
X875362Y622140D01*
X876876Y621369D01*
X878250Y620371D01*
X879451Y619170D01*
X880449Y617796D01*
X881220Y616282D01*
X881745Y614667D01*
X881908Y613639D01*
X872719Y613639D01*
G37*
%LPD*%
%LPC*%
G36*
X872719Y610641D02*
X872719Y610641D01*
X881908Y610641D01*
X881745Y609613D01*
X881220Y607998D01*
X880449Y606484D01*
X879451Y605110D01*
X878250Y603909D01*
X876876Y602911D01*
X875362Y602140D01*
X873747Y601615D01*
X872719Y601452D01*
X872719Y610641D01*
G37*
%LPD*%
%LPC*%
G36*
X860532Y613639D02*
X860532Y613639D01*
X860695Y614667D01*
X861220Y616282D01*
X861991Y617796D01*
X862989Y619170D01*
X864190Y620371D01*
X865564Y621369D01*
X867078Y622140D01*
X868693Y622665D01*
X869721Y622828D01*
X869721Y613639D01*
X860532Y613639D01*
G37*
%LPD*%
%LPC*%
G36*
X868693Y601615D02*
X868693Y601615D01*
X867078Y602140D01*
X865564Y602911D01*
X864190Y603909D01*
X862989Y605110D01*
X861991Y606484D01*
X861220Y607998D01*
X860695Y609613D01*
X860532Y610641D01*
X869721Y610641D01*
X869721Y601452D01*
X868693Y601615D01*
G37*
%LPD*%
%LPC*%
G36*
X920803Y119993D02*
X920803Y119993D01*
X920803Y128463D01*
X921665Y128327D01*
X923174Y127836D01*
X924587Y127116D01*
X925871Y126183D01*
X926993Y125061D01*
X927926Y123777D01*
X928646Y122364D01*
X929137Y120855D01*
X929273Y119993D01*
X920803Y119993D01*
G37*
%LPD*%
%LPC*%
G36*
X909335Y119993D02*
X909335Y119993D01*
X909471Y120855D01*
X909962Y122364D01*
X910682Y123777D01*
X911615Y125061D01*
X912737Y126183D01*
X914021Y127116D01*
X915434Y127836D01*
X916943Y128327D01*
X917805Y128463D01*
X917805Y119993D01*
X909335Y119993D01*
G37*
%LPD*%
%LPC*%
G36*
X920803Y116995D02*
X920803Y116995D01*
X929273Y116995D01*
X929137Y116133D01*
X928646Y114624D01*
X927926Y113211D01*
X926993Y111927D01*
X925871Y110805D01*
X924587Y109872D01*
X923174Y109152D01*
X921665Y108661D01*
X920803Y108525D01*
X920803Y116995D01*
G37*
%LPD*%
%LPC*%
G36*
X916943Y108661D02*
X916943Y108661D01*
X915434Y109152D01*
X914021Y109872D01*
X912737Y110805D01*
X911615Y111927D01*
X910682Y113211D01*
X909962Y114624D01*
X909471Y116133D01*
X909335Y116995D01*
X917805Y116995D01*
X917805Y108525D01*
X916943Y108661D01*
G37*
%LPD*%
%LPC*%
G36*
X919479Y413699D02*
X919479Y413699D01*
X919479Y413701D01*
X919481Y413701D01*
X919481Y413699D01*
X919479Y413699D01*
G37*
%LPD*%
%LPC*%
G36*
X1132839Y499109D02*
X1132839Y499109D01*
X1132839Y499111D01*
X1132841Y499111D01*
X1132841Y499109D01*
X1132839Y499109D01*
G37*
%LPD*%
%LPC*%
G36*
X871219Y612139D02*
X871219Y612139D01*
X871219Y612141D01*
X871221Y612141D01*
X871221Y612139D01*
X871219Y612139D01*
G37*
%LPD*%
%LPC*%
G36*
X660919Y401449D02*
X660919Y401449D01*
X660919Y401451D01*
X660921Y401451D01*
X660921Y401449D01*
X660919Y401449D01*
G37*
%LPD*%
%LPC*%
G36*
X420099Y448439D02*
X420099Y448439D01*
X420099Y448441D01*
X420101Y448441D01*
X420101Y448439D01*
X420099Y448439D01*
G37*
%LPD*%
%LPC*%
G36*
X340359Y321309D02*
X340359Y321309D01*
X340359Y321311D01*
X340361Y321311D01*
X340361Y321309D01*
X340359Y321309D01*
G37*
%LPD*%
%LPC*%
G36*
X365759Y194309D02*
X365759Y194309D01*
X365759Y194311D01*
X365761Y194311D01*
X365761Y194309D01*
X365759Y194309D01*
G37*
%LPD*%
%LPC*%
G36*
X919303Y118493D02*
X919303Y118493D01*
X919303Y118495D01*
X919305Y118495D01*
X919305Y118493D01*
X919303Y118493D01*
G37*
%LPD*%
D10*
X660920Y401450D03*
X686320Y401450D03*
X711720Y401450D03*
X737120Y401450D03*
D11*
X369300Y626240D03*
X394700Y626240D03*
X420100Y626240D03*
X445500Y626240D03*
X470900Y626240D03*
X496300Y626240D03*
X369300Y448440D03*
X394700Y448440D03*
X420100Y448440D03*
X445500Y448440D03*
X470900Y448440D03*
X496300Y448440D03*
D12*
X995504Y321186D03*
D13*
X970104Y321186D03*
X944704Y321186D03*
X919304Y321186D03*
X893904Y321186D03*
X868504Y321186D03*
X843104Y321186D03*
X817704Y321186D03*
X792304Y321186D03*
X766904Y321186D03*
X741504Y321186D03*
X716104Y321186D03*
X690704Y321186D03*
X665304Y321186D03*
D12*
X995504Y118494D03*
D13*
X970104Y118494D03*
X944704Y118494D03*
X919304Y118494D03*
X893904Y118494D03*
X868504Y118494D03*
X843104Y118494D03*
X817704Y118494D03*
X792304Y118494D03*
X766904Y118494D03*
X741504Y118494D03*
X716104Y118494D03*
X690704Y118494D03*
X665304Y118494D03*
D14*
X922020Y612140D03*
D15*
X871220Y612140D03*
D16*
X1123887Y448310D02*
X1141794Y448310D01*
X1141794Y499110D02*
X1123887Y499110D01*
X1123887Y549910D02*
X1141794Y549910D01*
D14*
X1035050Y612140D03*
D15*
X984250Y612140D03*
D17*
X875030Y528000D03*
X1040130Y528000D03*
D11*
X868680Y413700D03*
X894080Y413700D03*
X919480Y413700D03*
X944880Y413700D03*
X970280Y413700D03*
X995680Y413700D03*
X1021080Y413700D03*
X1046480Y413700D03*
X314960Y194310D03*
X340360Y194310D03*
X365760Y194310D03*
X391160Y194310D03*
X416560Y194310D03*
X441960Y194310D03*
X340360Y321310D03*
X365760Y321310D03*
X391160Y321310D03*
X416560Y321310D03*
M02*
