G04 EAGLE Gerber RS-274X export*
G75*
%MOMM*%
%FSLAX34Y34*%
%LPD*%
%IN*%
%IPPOS*%
%AMOC8*
5,1,8,0,0,1.08239X$1,22.5*%
G01*
%ADD10C,0.254000*%


D10*
X225000Y45000D02*
X1225000Y45000D01*
X1225000Y675000D01*
X225000Y675000D01*
X225000Y45000D01*
X1195488Y315290D02*
X1194607Y315359D01*
X1193734Y315498D01*
X1192874Y315704D01*
X1192033Y315977D01*
X1191216Y316316D01*
X1190429Y316717D01*
X1189675Y317179D01*
X1188960Y317698D01*
X1188288Y318273D01*
X1187663Y318898D01*
X1187088Y319570D01*
X1186569Y320285D01*
X1186107Y321039D01*
X1185706Y321826D01*
X1185367Y322643D01*
X1185094Y323484D01*
X1184888Y324344D01*
X1184749Y325217D01*
X1184680Y326098D01*
X1184680Y326982D01*
X1184749Y327863D01*
X1184888Y328736D01*
X1185094Y329596D01*
X1185367Y330437D01*
X1185706Y331254D01*
X1186107Y332041D01*
X1186569Y332795D01*
X1187088Y333510D01*
X1187663Y334182D01*
X1188288Y334808D01*
X1188960Y335382D01*
X1189675Y335901D01*
X1190429Y336363D01*
X1191216Y336765D01*
X1192033Y337103D01*
X1192874Y337376D01*
X1193734Y337582D01*
X1194607Y337721D01*
X1195488Y337790D01*
X1196372Y337790D01*
X1197253Y337721D01*
X1198126Y337582D01*
X1198986Y337376D01*
X1199827Y337103D01*
X1200644Y336765D01*
X1201431Y336363D01*
X1202185Y335901D01*
X1202900Y335382D01*
X1203572Y334808D01*
X1204198Y334182D01*
X1204772Y333510D01*
X1205291Y332795D01*
X1205753Y332041D01*
X1206155Y331254D01*
X1206493Y330437D01*
X1206766Y329596D01*
X1206972Y328736D01*
X1207111Y327863D01*
X1207180Y326982D01*
X1207180Y326098D01*
X1207111Y325217D01*
X1206972Y324344D01*
X1206766Y323484D01*
X1206493Y322643D01*
X1206155Y321826D01*
X1205753Y321039D01*
X1205291Y320285D01*
X1204772Y319570D01*
X1204198Y318898D01*
X1203572Y318273D01*
X1202900Y317698D01*
X1202185Y317179D01*
X1201431Y316717D01*
X1200644Y316316D01*
X1199827Y315977D01*
X1198986Y315704D01*
X1198126Y315498D01*
X1197253Y315359D01*
X1196372Y315290D01*
X1195488Y315290D01*
X1195488Y101890D02*
X1194607Y101959D01*
X1193734Y102098D01*
X1192874Y102304D01*
X1192033Y102577D01*
X1191216Y102916D01*
X1190429Y103317D01*
X1189675Y103779D01*
X1188960Y104298D01*
X1188288Y104873D01*
X1187663Y105498D01*
X1187088Y106170D01*
X1186569Y106885D01*
X1186107Y107639D01*
X1185706Y108426D01*
X1185367Y109243D01*
X1185094Y110084D01*
X1184888Y110944D01*
X1184749Y111817D01*
X1184680Y112698D01*
X1184680Y113582D01*
X1184749Y114463D01*
X1184888Y115336D01*
X1185094Y116196D01*
X1185367Y117037D01*
X1185706Y117854D01*
X1186107Y118641D01*
X1186569Y119395D01*
X1187088Y120110D01*
X1187663Y120782D01*
X1188288Y121408D01*
X1188960Y121982D01*
X1189675Y122501D01*
X1190429Y122963D01*
X1191216Y123365D01*
X1192033Y123703D01*
X1192874Y123976D01*
X1193734Y124182D01*
X1194607Y124321D01*
X1195488Y124390D01*
X1196372Y124390D01*
X1197253Y124321D01*
X1198126Y124182D01*
X1198986Y123976D01*
X1199827Y123703D01*
X1200644Y123365D01*
X1201431Y122963D01*
X1202185Y122501D01*
X1202900Y121982D01*
X1203572Y121408D01*
X1204198Y120782D01*
X1204772Y120110D01*
X1205291Y119395D01*
X1205753Y118641D01*
X1206155Y117854D01*
X1206493Y117037D01*
X1206766Y116196D01*
X1206972Y115336D01*
X1207111Y114463D01*
X1207180Y113582D01*
X1207180Y112698D01*
X1207111Y111817D01*
X1206972Y110944D01*
X1206766Y110084D01*
X1206493Y109243D01*
X1206155Y108426D01*
X1205753Y107639D01*
X1205291Y106885D01*
X1204772Y106170D01*
X1204198Y105498D01*
X1203572Y104873D01*
X1202900Y104298D01*
X1202185Y103779D01*
X1201431Y103317D01*
X1200644Y102916D01*
X1199827Y102577D01*
X1198986Y102304D01*
X1198126Y102098D01*
X1197253Y101959D01*
X1196372Y101890D01*
X1195488Y101890D01*
X575688Y101890D02*
X574807Y101959D01*
X573934Y102098D01*
X573074Y102304D01*
X572233Y102577D01*
X571416Y102916D01*
X570629Y103317D01*
X569875Y103779D01*
X569160Y104298D01*
X568488Y104873D01*
X567863Y105498D01*
X567288Y106170D01*
X566769Y106885D01*
X566307Y107639D01*
X565906Y108426D01*
X565567Y109243D01*
X565294Y110084D01*
X565088Y110944D01*
X564949Y111817D01*
X564880Y112698D01*
X564880Y113582D01*
X564949Y114463D01*
X565088Y115336D01*
X565294Y116196D01*
X565567Y117037D01*
X565906Y117854D01*
X566307Y118641D01*
X566769Y119395D01*
X567288Y120110D01*
X567863Y120782D01*
X568488Y121408D01*
X569160Y121982D01*
X569875Y122501D01*
X570629Y122963D01*
X571416Y123365D01*
X572233Y123703D01*
X573074Y123976D01*
X573934Y124182D01*
X574807Y124321D01*
X575688Y124390D01*
X576572Y124390D01*
X577453Y124321D01*
X578326Y124182D01*
X579186Y123976D01*
X580027Y123703D01*
X580844Y123365D01*
X581631Y122963D01*
X582385Y122501D01*
X583100Y121982D01*
X583772Y121408D01*
X584398Y120782D01*
X584972Y120110D01*
X585491Y119395D01*
X585953Y118641D01*
X586355Y117854D01*
X586693Y117037D01*
X586966Y116196D01*
X587172Y115336D01*
X587311Y114463D01*
X587380Y113582D01*
X587380Y112698D01*
X587311Y111817D01*
X587172Y110944D01*
X586966Y110084D01*
X586693Y109243D01*
X586355Y108426D01*
X585953Y107639D01*
X585491Y106885D01*
X584972Y106170D01*
X584398Y105498D01*
X583772Y104873D01*
X583100Y104298D01*
X582385Y103779D01*
X581631Y103317D01*
X580844Y102916D01*
X580027Y102577D01*
X579186Y102304D01*
X578326Y102098D01*
X577453Y101959D01*
X576572Y101890D01*
X575688Y101890D01*
X575688Y315290D02*
X574807Y315359D01*
X573934Y315498D01*
X573074Y315704D01*
X572233Y315977D01*
X571416Y316316D01*
X570629Y316717D01*
X569875Y317179D01*
X569160Y317698D01*
X568488Y318273D01*
X567863Y318898D01*
X567288Y319570D01*
X566769Y320285D01*
X566307Y321039D01*
X565906Y321826D01*
X565567Y322643D01*
X565294Y323484D01*
X565088Y324344D01*
X564949Y325217D01*
X564880Y326098D01*
X564880Y326982D01*
X564949Y327863D01*
X565088Y328736D01*
X565294Y329596D01*
X565567Y330437D01*
X565906Y331254D01*
X566307Y332041D01*
X566769Y332795D01*
X567288Y333510D01*
X567863Y334182D01*
X568488Y334808D01*
X569160Y335382D01*
X569875Y335901D01*
X570629Y336363D01*
X571416Y336765D01*
X572233Y337103D01*
X573074Y337376D01*
X573934Y337582D01*
X574807Y337721D01*
X575688Y337790D01*
X576572Y337790D01*
X577453Y337721D01*
X578326Y337582D01*
X579186Y337376D01*
X580027Y337103D01*
X580844Y336765D01*
X581631Y336363D01*
X582385Y335901D01*
X583100Y335382D01*
X583772Y334808D01*
X584398Y334182D01*
X584972Y333510D01*
X585491Y332795D01*
X585953Y332041D01*
X586355Y331254D01*
X586693Y330437D01*
X586966Y329596D01*
X587172Y328736D01*
X587311Y327863D01*
X587380Y326982D01*
X587380Y326098D01*
X587311Y325217D01*
X587172Y324344D01*
X586966Y323484D01*
X586693Y322643D01*
X586355Y321826D01*
X585953Y321039D01*
X585491Y320285D01*
X584972Y319570D01*
X584398Y318898D01*
X583772Y318273D01*
X583100Y317698D01*
X582385Y317179D01*
X581631Y316717D01*
X580844Y316316D01*
X580027Y315977D01*
X579186Y315704D01*
X578326Y315498D01*
X577453Y315359D01*
X576572Y315290D01*
X575688Y315290D01*
X278960Y629260D02*
X278889Y628263D01*
X278746Y627273D01*
X278534Y626296D01*
X278252Y625336D01*
X277903Y624399D01*
X277487Y623489D01*
X277008Y622612D01*
X276467Y621770D01*
X275868Y620970D01*
X275213Y620214D01*
X274506Y619507D01*
X273750Y618852D01*
X272950Y618253D01*
X272108Y617712D01*
X271231Y617233D01*
X270321Y616817D01*
X269384Y616468D01*
X268425Y616186D01*
X267447Y615974D01*
X266458Y615831D01*
X265460Y615760D01*
X264460Y615760D01*
X263463Y615831D01*
X262473Y615974D01*
X261496Y616186D01*
X260536Y616468D01*
X259599Y616817D01*
X258689Y617233D01*
X257812Y617712D01*
X256970Y618253D01*
X256170Y618852D01*
X255414Y619507D01*
X254707Y620214D01*
X254052Y620970D01*
X253453Y621770D01*
X252912Y622612D01*
X252433Y623489D01*
X252017Y624399D01*
X251668Y625336D01*
X251386Y626296D01*
X251174Y627273D01*
X251031Y628263D01*
X250960Y629260D01*
X250960Y630260D01*
X251031Y631258D01*
X251174Y632247D01*
X251386Y633225D01*
X251668Y634184D01*
X252017Y635121D01*
X252433Y636031D01*
X252912Y636908D01*
X253453Y637750D01*
X254052Y638550D01*
X254707Y639306D01*
X255414Y640013D01*
X256170Y640668D01*
X256970Y641267D01*
X257812Y641808D01*
X258689Y642287D01*
X259599Y642703D01*
X260536Y643052D01*
X261496Y643334D01*
X262473Y643546D01*
X263463Y643689D01*
X264460Y643760D01*
X265460Y643760D01*
X266458Y643689D01*
X267447Y643546D01*
X268425Y643334D01*
X269384Y643052D01*
X270321Y642703D01*
X271231Y642287D01*
X272108Y641808D01*
X272950Y641267D01*
X273750Y640668D01*
X274506Y640013D01*
X275213Y639306D01*
X275868Y638550D01*
X276467Y637750D01*
X277008Y636908D01*
X277487Y636031D01*
X277903Y635121D01*
X278252Y634184D01*
X278534Y633225D01*
X278746Y632247D01*
X278889Y631258D01*
X278960Y630260D01*
X278960Y629260D01*
X1198890Y629340D02*
X1198819Y628343D01*
X1198676Y627353D01*
X1198464Y626376D01*
X1198182Y625416D01*
X1197833Y624479D01*
X1197417Y623569D01*
X1196938Y622692D01*
X1196397Y621850D01*
X1195798Y621050D01*
X1195143Y620294D01*
X1194436Y619587D01*
X1193680Y618932D01*
X1192880Y618333D01*
X1192038Y617792D01*
X1191161Y617313D01*
X1190251Y616897D01*
X1189314Y616548D01*
X1188355Y616266D01*
X1187377Y616054D01*
X1186388Y615911D01*
X1185390Y615840D01*
X1184390Y615840D01*
X1183393Y615911D01*
X1182403Y616054D01*
X1181426Y616266D01*
X1180466Y616548D01*
X1179529Y616897D01*
X1178619Y617313D01*
X1177742Y617792D01*
X1176900Y618333D01*
X1176100Y618932D01*
X1175344Y619587D01*
X1174637Y620294D01*
X1173982Y621050D01*
X1173383Y621850D01*
X1172842Y622692D01*
X1172363Y623569D01*
X1171947Y624479D01*
X1171598Y625416D01*
X1171316Y626376D01*
X1171104Y627353D01*
X1170961Y628343D01*
X1170890Y629340D01*
X1170890Y630340D01*
X1170961Y631338D01*
X1171104Y632327D01*
X1171316Y633305D01*
X1171598Y634264D01*
X1171947Y635201D01*
X1172363Y636111D01*
X1172842Y636988D01*
X1173383Y637830D01*
X1173982Y638630D01*
X1174637Y639386D01*
X1175344Y640093D01*
X1176100Y640748D01*
X1176900Y641347D01*
X1177742Y641888D01*
X1178619Y642367D01*
X1179529Y642783D01*
X1180466Y643132D01*
X1181426Y643414D01*
X1182403Y643626D01*
X1183393Y643769D01*
X1184390Y643840D01*
X1185390Y643840D01*
X1186388Y643769D01*
X1187377Y643626D01*
X1188355Y643414D01*
X1189314Y643132D01*
X1190251Y642783D01*
X1191161Y642367D01*
X1192038Y641888D01*
X1192880Y641347D01*
X1193680Y640748D01*
X1194436Y640093D01*
X1195143Y639386D01*
X1195798Y638630D01*
X1196397Y637830D01*
X1196938Y636988D01*
X1197417Y636111D01*
X1197833Y635201D01*
X1198182Y634264D01*
X1198464Y633305D01*
X1198676Y632327D01*
X1198819Y631338D01*
X1198890Y630340D01*
X1198890Y629340D01*
X279860Y89760D02*
X279789Y88763D01*
X279646Y87773D01*
X279434Y86796D01*
X279152Y85836D01*
X278803Y84899D01*
X278387Y83989D01*
X277908Y83112D01*
X277367Y82270D01*
X276768Y81470D01*
X276113Y80714D01*
X275406Y80007D01*
X274650Y79352D01*
X273850Y78753D01*
X273008Y78212D01*
X272131Y77733D01*
X271221Y77317D01*
X270284Y76968D01*
X269325Y76686D01*
X268347Y76474D01*
X267358Y76331D01*
X266360Y76260D01*
X265360Y76260D01*
X264363Y76331D01*
X263373Y76474D01*
X262396Y76686D01*
X261436Y76968D01*
X260499Y77317D01*
X259589Y77733D01*
X258712Y78212D01*
X257870Y78753D01*
X257070Y79352D01*
X256314Y80007D01*
X255607Y80714D01*
X254952Y81470D01*
X254353Y82270D01*
X253812Y83112D01*
X253333Y83989D01*
X252917Y84899D01*
X252568Y85836D01*
X252286Y86796D01*
X252074Y87773D01*
X251931Y88763D01*
X251860Y89760D01*
X251860Y90760D01*
X251931Y91758D01*
X252074Y92747D01*
X252286Y93725D01*
X252568Y94684D01*
X252917Y95621D01*
X253333Y96531D01*
X253812Y97408D01*
X254353Y98250D01*
X254952Y99050D01*
X255607Y99806D01*
X256314Y100513D01*
X257070Y101168D01*
X257870Y101767D01*
X258712Y102308D01*
X259589Y102787D01*
X260499Y103203D01*
X261436Y103552D01*
X262396Y103834D01*
X263373Y104046D01*
X264363Y104189D01*
X265360Y104260D01*
X266360Y104260D01*
X267358Y104189D01*
X268347Y104046D01*
X269325Y103834D01*
X270284Y103552D01*
X271221Y103203D01*
X272131Y102787D01*
X273008Y102308D01*
X273850Y101767D01*
X274650Y101168D01*
X275406Y100513D01*
X276113Y99806D01*
X276768Y99050D01*
X277367Y98250D01*
X277908Y97408D01*
X278387Y96531D01*
X278803Y95621D01*
X279152Y94684D01*
X279434Y93725D01*
X279646Y92747D01*
X279789Y91758D01*
X279860Y90760D01*
X279860Y89760D01*
X613410Y629380D02*
X613339Y628301D01*
X613198Y627229D01*
X612987Y626169D01*
X612708Y625125D01*
X612360Y624101D01*
X611946Y623103D01*
X611468Y622133D01*
X610928Y621197D01*
X610327Y620298D01*
X609669Y619441D01*
X608957Y618628D01*
X608192Y617864D01*
X607379Y617151D01*
X606522Y616493D01*
X605623Y615892D01*
X604687Y615352D01*
X603717Y614874D01*
X602719Y614460D01*
X601695Y614112D01*
X600651Y613833D01*
X599591Y613622D01*
X598519Y613481D01*
X597440Y613410D01*
X596360Y613410D01*
X595281Y613481D01*
X594209Y613622D01*
X593149Y613833D01*
X592105Y614112D01*
X591081Y614460D01*
X590083Y614874D01*
X589113Y615352D01*
X588177Y615892D01*
X587278Y616493D01*
X586421Y617151D01*
X585608Y617864D01*
X584844Y618628D01*
X584131Y619441D01*
X583473Y620298D01*
X582872Y621197D01*
X582332Y622133D01*
X581854Y623103D01*
X581440Y624101D01*
X581092Y625125D01*
X580813Y626169D01*
X580602Y627229D01*
X580461Y628301D01*
X580390Y629380D01*
X580390Y630460D01*
X580461Y631539D01*
X580602Y632611D01*
X580813Y633671D01*
X581092Y634715D01*
X581440Y635739D01*
X581854Y636737D01*
X582332Y637707D01*
X582872Y638643D01*
X583473Y639542D01*
X584131Y640399D01*
X584844Y641212D01*
X585608Y641977D01*
X586421Y642689D01*
X587278Y643347D01*
X588177Y643948D01*
X589113Y644488D01*
X590083Y644966D01*
X591081Y645380D01*
X592105Y645728D01*
X593149Y646007D01*
X594209Y646218D01*
X595281Y646359D01*
X596360Y646430D01*
X597440Y646430D01*
X598519Y646359D01*
X599591Y646218D01*
X600651Y646007D01*
X601695Y645728D01*
X602719Y645380D01*
X603717Y644966D01*
X604687Y644488D01*
X605623Y643948D01*
X606522Y643347D01*
X607379Y642689D01*
X608192Y641977D01*
X608957Y641212D01*
X609669Y640399D01*
X610327Y639542D01*
X610928Y638643D01*
X611468Y637707D01*
X611946Y636737D01*
X612360Y635739D01*
X612708Y634715D01*
X612987Y633671D01*
X613198Y632611D01*
X613339Y631539D01*
X613410Y630460D01*
X613410Y629380D01*
X816610Y629380D02*
X816539Y628301D01*
X816398Y627229D01*
X816187Y626169D01*
X815908Y625125D01*
X815560Y624101D01*
X815146Y623103D01*
X814668Y622133D01*
X814128Y621197D01*
X813527Y620298D01*
X812869Y619441D01*
X812157Y618628D01*
X811392Y617864D01*
X810579Y617151D01*
X809722Y616493D01*
X808823Y615892D01*
X807887Y615352D01*
X806917Y614874D01*
X805919Y614460D01*
X804895Y614112D01*
X803851Y613833D01*
X802791Y613622D01*
X801719Y613481D01*
X800640Y613410D01*
X799560Y613410D01*
X798481Y613481D01*
X797409Y613622D01*
X796349Y613833D01*
X795305Y614112D01*
X794281Y614460D01*
X793283Y614874D01*
X792313Y615352D01*
X791377Y615892D01*
X790478Y616493D01*
X789621Y617151D01*
X788808Y617864D01*
X788044Y618628D01*
X787331Y619441D01*
X786673Y620298D01*
X786072Y621197D01*
X785532Y622133D01*
X785054Y623103D01*
X784640Y624101D01*
X784292Y625125D01*
X784013Y626169D01*
X783802Y627229D01*
X783661Y628301D01*
X783590Y629380D01*
X783590Y630460D01*
X783661Y631539D01*
X783802Y632611D01*
X784013Y633671D01*
X784292Y634715D01*
X784640Y635739D01*
X785054Y636737D01*
X785532Y637707D01*
X786072Y638643D01*
X786673Y639542D01*
X787331Y640399D01*
X788044Y641212D01*
X788808Y641977D01*
X789621Y642689D01*
X790478Y643347D01*
X791377Y643948D01*
X792313Y644488D01*
X793283Y644966D01*
X794281Y645380D01*
X795305Y645728D01*
X796349Y646007D01*
X797409Y646218D01*
X798481Y646359D01*
X799560Y646430D01*
X800640Y646430D01*
X801719Y646359D01*
X802791Y646218D01*
X803851Y646007D01*
X804895Y645728D01*
X805919Y645380D01*
X806917Y644966D01*
X807887Y644488D01*
X808823Y643948D01*
X809722Y643347D01*
X810579Y642689D01*
X811392Y641977D01*
X812157Y641212D01*
X812869Y640399D01*
X813527Y639542D01*
X814128Y638643D01*
X814668Y637707D01*
X815146Y636737D01*
X815560Y635739D01*
X815908Y634715D01*
X816187Y633671D01*
X816398Y632611D01*
X816539Y631539D01*
X816610Y630460D01*
X816610Y629380D01*
M02*
