M48
;GenerationSoftware,Autodesk,EAGLE,9.6.2*%
;CreationDate,2023-10-22T23:23:45Z*%
FMAT,2
ICI,OFF
METRIC,TZ,000.000
T7C0.900
T6C1.000
T5C1.016
T4C1.100
T3C1.194
T2C2.250
T1C2.800
%
G90
M71
T1
X26670Y65405
X119380Y65405
X26670Y10795
T2
X119974Y34686
X119974Y13346
X57994Y13346
X57994Y34686
T3
X112776Y53086
X112776Y58166
X112776Y63246
T4
X98806Y63246
X92583Y63246
X87503Y63246
X103886Y63246
T5
X66854Y41796
X69394Y41796
X71934Y41796
X74474Y41796
T6
X36549Y43066
X39089Y43066
X41629Y43066
X44169Y43066
X46709Y43066
X99931Y34151
X97391Y34151
X94851Y34151
X92311Y34151
X89771Y34151
X87231Y34151
X84691Y34151
X82151Y34151
X79611Y34151
X77071Y34151
X74531Y34151
X71991Y34151
X69451Y34151
X66911Y34151
X99931Y13881
X97391Y13881
X94851Y13881
X92311Y13881
X89771Y13881
X87231Y13881
X84691Y13881
X82151Y13881
X79611Y13881
X77071Y13881
X74531Y13881
X71991Y13881
X69451Y13881
X66911Y13881
X34009Y60846
X36549Y60846
X39089Y60846
X41629Y60846
X44169Y60846
X46709Y60846
X34009Y43066
T7
X27754Y15888
X50614Y33668
X50614Y31128
X50614Y28588
X50614Y26048
X50614Y23508
X27754Y23508
X50614Y18428
X50614Y15888
X27754Y31128
X27754Y28588
X27754Y26048
X27754Y33668
X27754Y20968
X27754Y18428
X50614Y20968
M30