M48
;GenerationSoftware,Autodesk,EAGLE,9.6.2*%
;CreationDate,2024-02-27T09:39:46Z*%
FMAT,2
ICI,OFF
METRIC,TZ,000.000
T13C0.250
T12C0.300
T11C0.400
T10C0.610
T9C0.813
T8C1.000
T7C1.016
T6C1.100
T5C1.194
T4C1.700
T3C2.250
T2C2.800
T1C3.302
%
G90
M71
T1
X48190Y63992
X68510Y63992
T2
X11586Y8026
X11996Y63476
X118000Y63000
X118000Y9000
T3
X109593Y14814
X47613Y14814
X47613Y36154
X109593Y36154
T4
X96000Y58500
X91000Y58500
T5
X119702Y36488
T6
X106460Y63500
X111540Y63500
T7
X54592Y41145
X57132Y41145
X59672Y41145
X62212Y41145
T8
X119500Y25500
X34608Y8370
X32068Y8370
X29528Y8370
X26988Y8370
X24448Y8370
X56530Y35619
X21908Y8370
X19368Y8370
X56530Y15349
X59070Y15349
X61610Y15349
X64150Y15349
X66690Y15349
X69230Y15349
X71770Y15349
X74310Y15349
X76850Y15349
X79390Y15349
X81930Y15349
X87010Y15349
X119500Y22500
X89550Y15349
X84470Y15349
X33156Y39131
X30616Y39131
X28076Y39131
X25536Y39131
X35696Y26431
X33156Y26431
X22930Y63624
X25470Y63624
X28010Y63624
X30550Y63624
X33090Y63624
X35630Y63624
X22930Y45844
X25470Y45844
X28010Y45844
X30550Y45844
X33090Y45844
X35630Y45844
X89550Y35619
X87010Y35619
X30616Y26431
X81930Y35619
X79390Y35619
X76850Y35619
X74310Y35619
X71770Y35619
X69230Y35619
X66690Y35619
X64150Y35619
X61610Y35619
X84470Y35619
X28076Y26431
X25536Y26431
X22996Y26431
X99000Y63500
X88000Y63500
X37148Y8370
X59070Y35619
T9
X118000Y39993
X118000Y38012
X118000Y42000
T10
X73682Y64686
X73682Y10337
X82318Y11124
X82318Y10337
X73682Y7314
X73682Y6120
X82318Y7314
X82318Y6120
X73682Y11124
X82318Y61663
X73682Y60876
X73682Y61663
X82318Y64686
X82318Y65880
X73682Y65880
X82318Y60876
X13837Y47318
X14624Y38682
X13837Y38682
X10814Y47318
X9620Y47318
X10814Y38682
X9620Y38682
X14624Y47318
X13837Y33318
X14624Y24682
X13837Y24682
X10814Y33318
X9620Y33318
X10814Y24682
X9620Y24682
X14624Y33318
T11
X114500Y22700
T12
X106520Y43101
X106520Y43863
X104261Y46149
X110457Y55420
X75500Y62500
X80500Y62500
X75500Y9500
X12500Y26500
X12500Y31500
X13000Y40500
X13000Y45500
X109314Y49451
X109314Y48689
X111727Y47038
X109314Y47927
X109568Y45514
X109568Y46276
X109568Y47038
X110965Y47038
X110965Y46276
X110965Y45514
X111727Y45514
X111727Y46276
X80500Y9500
X105758Y43101
X111092Y53896
X107282Y53896
X104261Y48435
X104261Y47292
X105658Y44779
T13
X87000Y23500
X87000Y26500
M30