G04 EAGLE Gerber RS-274X export*
G75*
%MOMM*%
%FSLAX34Y34*%
%LPD*%
%IN*%
%IPPOS*%
%AMOC8*
5,1,8,0,0,1.08239X$1,22.5*%
G01*
%ADD10C,0.254000*%


D10*
X230000Y90000D02*
X250000Y70000D01*
X1210000Y70000D01*
X1230000Y90000D01*
X1230000Y672540D01*
X1210000Y690000D01*
X250000Y690000D01*
X230000Y670000D01*
X230000Y90000D01*
X1199298Y335610D02*
X1198417Y335679D01*
X1197544Y335818D01*
X1196684Y336024D01*
X1195843Y336297D01*
X1195026Y336636D01*
X1194239Y337037D01*
X1193485Y337499D01*
X1192770Y338018D01*
X1192098Y338593D01*
X1191473Y339218D01*
X1190898Y339890D01*
X1190379Y340605D01*
X1189917Y341359D01*
X1189516Y342146D01*
X1189177Y342963D01*
X1188904Y343804D01*
X1188698Y344664D01*
X1188559Y345537D01*
X1188490Y346418D01*
X1188490Y347302D01*
X1188559Y348183D01*
X1188698Y349056D01*
X1188904Y349916D01*
X1189177Y350757D01*
X1189516Y351574D01*
X1189917Y352361D01*
X1190379Y353115D01*
X1190898Y353830D01*
X1191473Y354502D01*
X1192098Y355128D01*
X1192770Y355702D01*
X1193485Y356221D01*
X1194239Y356683D01*
X1195026Y357085D01*
X1195843Y357423D01*
X1196684Y357696D01*
X1197544Y357902D01*
X1198417Y358041D01*
X1199298Y358110D01*
X1200182Y358110D01*
X1201063Y358041D01*
X1201936Y357902D01*
X1202796Y357696D01*
X1203637Y357423D01*
X1204454Y357085D01*
X1205241Y356683D01*
X1205995Y356221D01*
X1206710Y355702D01*
X1207382Y355128D01*
X1208008Y354502D01*
X1208582Y353830D01*
X1209101Y353115D01*
X1209563Y352361D01*
X1209965Y351574D01*
X1210303Y350757D01*
X1210576Y349916D01*
X1210782Y349056D01*
X1210921Y348183D01*
X1210990Y347302D01*
X1210990Y346418D01*
X1210921Y345537D01*
X1210782Y344664D01*
X1210576Y343804D01*
X1210303Y342963D01*
X1209965Y342146D01*
X1209563Y341359D01*
X1209101Y340605D01*
X1208582Y339890D01*
X1208008Y339218D01*
X1207382Y338593D01*
X1206710Y338018D01*
X1205995Y337499D01*
X1205241Y337037D01*
X1204454Y336636D01*
X1203637Y336297D01*
X1202796Y336024D01*
X1201936Y335818D01*
X1201063Y335679D01*
X1200182Y335610D01*
X1199298Y335610D01*
X1199298Y122210D02*
X1198417Y122279D01*
X1197544Y122418D01*
X1196684Y122624D01*
X1195843Y122897D01*
X1195026Y123236D01*
X1194239Y123637D01*
X1193485Y124099D01*
X1192770Y124618D01*
X1192098Y125193D01*
X1191473Y125818D01*
X1190898Y126490D01*
X1190379Y127205D01*
X1189917Y127959D01*
X1189516Y128746D01*
X1189177Y129563D01*
X1188904Y130404D01*
X1188698Y131264D01*
X1188559Y132137D01*
X1188490Y133018D01*
X1188490Y133902D01*
X1188559Y134783D01*
X1188698Y135656D01*
X1188904Y136516D01*
X1189177Y137357D01*
X1189516Y138174D01*
X1189917Y138961D01*
X1190379Y139715D01*
X1190898Y140430D01*
X1191473Y141102D01*
X1192098Y141728D01*
X1192770Y142302D01*
X1193485Y142821D01*
X1194239Y143283D01*
X1195026Y143685D01*
X1195843Y144023D01*
X1196684Y144296D01*
X1197544Y144502D01*
X1198417Y144641D01*
X1199298Y144710D01*
X1200182Y144710D01*
X1201063Y144641D01*
X1201936Y144502D01*
X1202796Y144296D01*
X1203637Y144023D01*
X1204454Y143685D01*
X1205241Y143283D01*
X1205995Y142821D01*
X1206710Y142302D01*
X1207382Y141728D01*
X1208008Y141102D01*
X1208582Y140430D01*
X1209101Y139715D01*
X1209563Y138961D01*
X1209965Y138174D01*
X1210303Y137357D01*
X1210576Y136516D01*
X1210782Y135656D01*
X1210921Y134783D01*
X1210990Y133902D01*
X1210990Y133018D01*
X1210921Y132137D01*
X1210782Y131264D01*
X1210576Y130404D01*
X1210303Y129563D01*
X1209965Y128746D01*
X1209563Y127959D01*
X1209101Y127205D01*
X1208582Y126490D01*
X1208008Y125818D01*
X1207382Y125193D01*
X1206710Y124618D01*
X1205995Y124099D01*
X1205241Y123637D01*
X1204454Y123236D01*
X1203637Y122897D01*
X1202796Y122624D01*
X1201936Y122418D01*
X1201063Y122279D01*
X1200182Y122210D01*
X1199298Y122210D01*
X579498Y122210D02*
X578617Y122279D01*
X577744Y122418D01*
X576884Y122624D01*
X576043Y122897D01*
X575226Y123236D01*
X574439Y123637D01*
X573685Y124099D01*
X572970Y124618D01*
X572298Y125193D01*
X571673Y125818D01*
X571098Y126490D01*
X570579Y127205D01*
X570117Y127959D01*
X569716Y128746D01*
X569377Y129563D01*
X569104Y130404D01*
X568898Y131264D01*
X568759Y132137D01*
X568690Y133018D01*
X568690Y133902D01*
X568759Y134783D01*
X568898Y135656D01*
X569104Y136516D01*
X569377Y137357D01*
X569716Y138174D01*
X570117Y138961D01*
X570579Y139715D01*
X571098Y140430D01*
X571673Y141102D01*
X572298Y141728D01*
X572970Y142302D01*
X573685Y142821D01*
X574439Y143283D01*
X575226Y143685D01*
X576043Y144023D01*
X576884Y144296D01*
X577744Y144502D01*
X578617Y144641D01*
X579498Y144710D01*
X580382Y144710D01*
X581263Y144641D01*
X582136Y144502D01*
X582996Y144296D01*
X583837Y144023D01*
X584654Y143685D01*
X585441Y143283D01*
X586195Y142821D01*
X586910Y142302D01*
X587582Y141728D01*
X588208Y141102D01*
X588782Y140430D01*
X589301Y139715D01*
X589763Y138961D01*
X590165Y138174D01*
X590503Y137357D01*
X590776Y136516D01*
X590982Y135656D01*
X591121Y134783D01*
X591190Y133902D01*
X591190Y133018D01*
X591121Y132137D01*
X590982Y131264D01*
X590776Y130404D01*
X590503Y129563D01*
X590165Y128746D01*
X589763Y127959D01*
X589301Y127205D01*
X588782Y126490D01*
X588208Y125818D01*
X587582Y125193D01*
X586910Y124618D01*
X586195Y124099D01*
X585441Y123637D01*
X584654Y123236D01*
X583837Y122897D01*
X582996Y122624D01*
X582136Y122418D01*
X581263Y122279D01*
X580382Y122210D01*
X579498Y122210D01*
X579498Y335610D02*
X578617Y335679D01*
X577744Y335818D01*
X576884Y336024D01*
X576043Y336297D01*
X575226Y336636D01*
X574439Y337037D01*
X573685Y337499D01*
X572970Y338018D01*
X572298Y338593D01*
X571673Y339218D01*
X571098Y339890D01*
X570579Y340605D01*
X570117Y341359D01*
X569716Y342146D01*
X569377Y342963D01*
X569104Y343804D01*
X568898Y344664D01*
X568759Y345537D01*
X568690Y346418D01*
X568690Y347302D01*
X568759Y348183D01*
X568898Y349056D01*
X569104Y349916D01*
X569377Y350757D01*
X569716Y351574D01*
X570117Y352361D01*
X570579Y353115D01*
X571098Y353830D01*
X571673Y354502D01*
X572298Y355128D01*
X572970Y355702D01*
X573685Y356221D01*
X574439Y356683D01*
X575226Y357085D01*
X576043Y357423D01*
X576884Y357696D01*
X577744Y357902D01*
X578617Y358041D01*
X579498Y358110D01*
X580382Y358110D01*
X581263Y358041D01*
X582136Y357902D01*
X582996Y357696D01*
X583837Y357423D01*
X584654Y357085D01*
X585441Y356683D01*
X586195Y356221D01*
X586910Y355702D01*
X587582Y355128D01*
X588208Y354502D01*
X588782Y353830D01*
X589301Y353115D01*
X589763Y352361D01*
X590165Y351574D01*
X590503Y350757D01*
X590776Y349916D01*
X590982Y349056D01*
X591121Y348183D01*
X591190Y347302D01*
X591190Y346418D01*
X591121Y345537D01*
X590982Y344664D01*
X590776Y343804D01*
X590503Y342963D01*
X590165Y342146D01*
X589763Y341359D01*
X589301Y340605D01*
X588782Y339890D01*
X588208Y339218D01*
X587582Y338593D01*
X586910Y338018D01*
X586195Y337499D01*
X585441Y337037D01*
X584654Y336636D01*
X583837Y336297D01*
X582996Y336024D01*
X582136Y335818D01*
X581263Y335679D01*
X580382Y335610D01*
X579498Y335610D01*
M02*
