G04 EAGLE Gerber RS-274X export*
G75*
%MOMM*%
%FSLAX34Y34*%
%LPD*%
%INSilkscreen Bottom*%
%IPPOS*%
%AMOC8*
5,1,8,0,0,1.08239X$1,22.5*%
G01*
%ADD10C,1.117600*%
%ADD11C,0.127000*%


D10*
X1035848Y447433D02*
X1054527Y484791D01*
X1017170Y466112D01*
X1026509Y470782D02*
X1040518Y456773D01*
X986804Y496477D02*
X980578Y502704D01*
X986805Y496478D02*
X986957Y496329D01*
X987113Y496184D01*
X987272Y496043D01*
X987435Y495906D01*
X987601Y495773D01*
X987770Y495644D01*
X987942Y495519D01*
X988117Y495398D01*
X988295Y495281D01*
X988476Y495169D01*
X988659Y495061D01*
X988845Y494958D01*
X989034Y494859D01*
X989224Y494764D01*
X989417Y494675D01*
X989612Y494590D01*
X989809Y494510D01*
X990008Y494434D01*
X990209Y494363D01*
X990411Y494298D01*
X990615Y494237D01*
X990821Y494181D01*
X991027Y494130D01*
X991235Y494084D01*
X991444Y494043D01*
X991654Y494007D01*
X991864Y493977D01*
X992075Y493951D01*
X992287Y493930D01*
X992499Y493915D01*
X992712Y493905D01*
X992925Y493900D01*
X993137Y493900D01*
X993350Y493905D01*
X993563Y493915D01*
X993775Y493930D01*
X993987Y493951D01*
X994198Y493977D01*
X994408Y494007D01*
X994618Y494043D01*
X994827Y494084D01*
X995035Y494130D01*
X995241Y494181D01*
X995447Y494237D01*
X995651Y494298D01*
X995853Y494363D01*
X996054Y494434D01*
X996253Y494510D01*
X996450Y494590D01*
X996645Y494675D01*
X996838Y494764D01*
X997028Y494859D01*
X997217Y494958D01*
X997403Y495061D01*
X997586Y495169D01*
X997767Y495281D01*
X997945Y495398D01*
X998120Y495519D01*
X998292Y495644D01*
X998461Y495773D01*
X998627Y495906D01*
X998790Y496043D01*
X998949Y496184D01*
X999105Y496329D01*
X999257Y496478D01*
X999257Y496477D02*
X1014823Y512043D01*
X1014822Y512043D02*
X1014973Y512198D01*
X1015120Y512356D01*
X1015263Y512518D01*
X1015402Y512683D01*
X1015537Y512852D01*
X1015668Y513024D01*
X1015795Y513199D01*
X1015917Y513377D01*
X1016035Y513558D01*
X1016148Y513742D01*
X1016257Y513929D01*
X1016361Y514118D01*
X1016461Y514310D01*
X1016556Y514504D01*
X1016646Y514701D01*
X1016731Y514899D01*
X1016811Y515100D01*
X1016886Y515303D01*
X1016957Y515507D01*
X1017022Y515713D01*
X1017082Y515921D01*
X1017137Y516130D01*
X1017187Y516340D01*
X1017232Y516551D01*
X1017271Y516764D01*
X1017306Y516977D01*
X1017335Y517191D01*
X1017359Y517406D01*
X1017377Y517621D01*
X1017390Y517837D01*
X1017398Y518053D01*
X1017401Y518269D01*
X1017398Y518485D01*
X1017390Y518701D01*
X1017377Y518917D01*
X1017359Y519132D01*
X1017335Y519347D01*
X1017306Y519561D01*
X1017271Y519774D01*
X1017232Y519987D01*
X1017187Y520198D01*
X1017137Y520408D01*
X1017082Y520617D01*
X1017022Y520825D01*
X1016957Y521031D01*
X1016886Y521235D01*
X1016811Y521438D01*
X1016731Y521638D01*
X1016646Y521837D01*
X1016556Y522034D01*
X1016461Y522228D01*
X1016361Y522420D01*
X1016257Y522609D01*
X1016148Y522796D01*
X1016035Y522980D01*
X1015917Y523161D01*
X1015795Y523339D01*
X1015668Y523514D01*
X1015537Y523686D01*
X1015402Y523855D01*
X1015263Y524020D01*
X1015120Y524182D01*
X1014973Y524340D01*
X1014822Y524495D01*
X1014823Y524496D02*
X1008596Y530722D01*
X955186Y528096D02*
X942733Y540548D01*
X955186Y528096D02*
X983204Y556114D01*
X970752Y568567D01*
X961412Y553001D02*
X970752Y543661D01*
D11*
X1017800Y429102D02*
X1010496Y414494D01*
X1003192Y421798D02*
X1017800Y429102D01*
X1006844Y423624D02*
X1012322Y418146D01*
X998435Y426555D02*
X1009391Y437511D01*
X997218Y427773D02*
X999652Y425338D01*
X1010608Y436294D02*
X1008173Y438729D01*
X1003614Y443288D02*
X992658Y432332D01*
X1003614Y443288D02*
X1000571Y446331D01*
X1000570Y446331D02*
X1000477Y446422D01*
X1000381Y446510D01*
X1000282Y446594D01*
X1000181Y446676D01*
X1000078Y446755D01*
X999972Y446830D01*
X999864Y446902D01*
X999754Y446971D01*
X999641Y447037D01*
X999527Y447099D01*
X999411Y447158D01*
X999293Y447213D01*
X999174Y447264D01*
X999053Y447312D01*
X998931Y447357D01*
X998807Y447397D01*
X998683Y447434D01*
X998557Y447467D01*
X998430Y447496D01*
X998303Y447522D01*
X998175Y447543D01*
X998046Y447561D01*
X997916Y447574D01*
X997787Y447584D01*
X997657Y447590D01*
X997527Y447592D01*
X997397Y447590D01*
X997267Y447584D01*
X997137Y447574D01*
X997008Y447561D01*
X996879Y447543D01*
X996751Y447521D01*
X996624Y447496D01*
X996497Y447467D01*
X996371Y447434D01*
X996247Y447397D01*
X996123Y447357D01*
X996001Y447312D01*
X995880Y447264D01*
X995761Y447213D01*
X995643Y447158D01*
X995527Y447099D01*
X995413Y447037D01*
X995300Y446971D01*
X995190Y446902D01*
X995082Y446830D01*
X994976Y446755D01*
X994873Y446676D01*
X994772Y446594D01*
X994673Y446510D01*
X994577Y446422D01*
X994484Y446331D01*
X994393Y446238D01*
X994305Y446142D01*
X994221Y446043D01*
X994139Y445942D01*
X994060Y445839D01*
X993985Y445733D01*
X993913Y445625D01*
X993844Y445515D01*
X993778Y445402D01*
X993716Y445288D01*
X993657Y445172D01*
X993602Y445054D01*
X993551Y444935D01*
X993503Y444814D01*
X993458Y444692D01*
X993418Y444568D01*
X993381Y444444D01*
X993348Y444318D01*
X993319Y444191D01*
X993294Y444064D01*
X993272Y443936D01*
X993254Y443807D01*
X993241Y443678D01*
X993231Y443548D01*
X993225Y443418D01*
X993223Y443288D01*
X993225Y443158D01*
X993231Y443028D01*
X993241Y442899D01*
X993254Y442769D01*
X993272Y442640D01*
X993293Y442512D01*
X993319Y442385D01*
X993348Y442258D01*
X993381Y442132D01*
X993418Y442008D01*
X993458Y441884D01*
X993503Y441762D01*
X993551Y441641D01*
X993602Y441522D01*
X993657Y441404D01*
X993716Y441288D01*
X993778Y441174D01*
X993844Y441061D01*
X993913Y440951D01*
X993985Y440843D01*
X994060Y440737D01*
X994139Y440634D01*
X994221Y440533D01*
X994305Y440434D01*
X994393Y440338D01*
X994484Y440245D01*
X997527Y437202D01*
X993875Y440854D02*
X986571Y438419D01*
X987804Y449360D02*
X984760Y452403D01*
X984667Y452494D01*
X984571Y452582D01*
X984472Y452666D01*
X984371Y452748D01*
X984268Y452827D01*
X984162Y452902D01*
X984054Y452974D01*
X983944Y453043D01*
X983831Y453109D01*
X983717Y453171D01*
X983601Y453230D01*
X983483Y453285D01*
X983364Y453336D01*
X983243Y453384D01*
X983121Y453429D01*
X982997Y453469D01*
X982873Y453506D01*
X982747Y453539D01*
X982620Y453568D01*
X982493Y453594D01*
X982365Y453615D01*
X982236Y453633D01*
X982106Y453646D01*
X981977Y453656D01*
X981847Y453662D01*
X981717Y453664D01*
X981587Y453662D01*
X981457Y453656D01*
X981327Y453646D01*
X981198Y453633D01*
X981069Y453615D01*
X980941Y453593D01*
X980814Y453568D01*
X980687Y453539D01*
X980561Y453506D01*
X980437Y453469D01*
X980313Y453429D01*
X980191Y453384D01*
X980070Y453336D01*
X979951Y453285D01*
X979833Y453230D01*
X979717Y453171D01*
X979603Y453109D01*
X979490Y453043D01*
X979380Y452974D01*
X979272Y452902D01*
X979166Y452827D01*
X979063Y452748D01*
X978962Y452666D01*
X978863Y452582D01*
X978767Y452494D01*
X978674Y452403D01*
X978583Y452310D01*
X978495Y452214D01*
X978411Y452115D01*
X978329Y452014D01*
X978250Y451911D01*
X978175Y451805D01*
X978103Y451697D01*
X978034Y451587D01*
X977968Y451474D01*
X977906Y451360D01*
X977847Y451244D01*
X977792Y451126D01*
X977741Y451007D01*
X977693Y450886D01*
X977648Y450764D01*
X977608Y450640D01*
X977571Y450516D01*
X977538Y450390D01*
X977509Y450263D01*
X977484Y450136D01*
X977462Y450008D01*
X977444Y449879D01*
X977431Y449750D01*
X977421Y449620D01*
X977415Y449490D01*
X977413Y449360D01*
X977415Y449230D01*
X977421Y449100D01*
X977431Y448971D01*
X977444Y448841D01*
X977462Y448712D01*
X977483Y448584D01*
X977509Y448457D01*
X977538Y448330D01*
X977571Y448204D01*
X977608Y448080D01*
X977648Y447956D01*
X977693Y447834D01*
X977741Y447713D01*
X977792Y447594D01*
X977847Y447476D01*
X977906Y447360D01*
X977968Y447246D01*
X978034Y447133D01*
X978103Y447023D01*
X978175Y446915D01*
X978250Y446809D01*
X978329Y446706D01*
X978411Y446605D01*
X978495Y446506D01*
X978583Y446410D01*
X978674Y446317D01*
X978674Y446316D02*
X981717Y443273D01*
X992673Y454229D01*
X989630Y457272D01*
X989630Y457273D02*
X989546Y457353D01*
X989460Y457431D01*
X989371Y457506D01*
X989279Y457578D01*
X989186Y457647D01*
X989090Y457713D01*
X988991Y457775D01*
X988891Y457834D01*
X988789Y457890D01*
X988685Y457942D01*
X988579Y457990D01*
X988472Y458035D01*
X988363Y458077D01*
X988253Y458114D01*
X988142Y458148D01*
X988030Y458178D01*
X987917Y458205D01*
X987802Y458227D01*
X987688Y458246D01*
X987572Y458260D01*
X987456Y458271D01*
X987340Y458278D01*
X987224Y458281D01*
X987108Y458280D01*
X986992Y458275D01*
X986876Y458266D01*
X986760Y458253D01*
X986645Y458237D01*
X986530Y458216D01*
X986417Y458192D01*
X986304Y458164D01*
X986192Y458132D01*
X986081Y458096D01*
X985972Y458056D01*
X985864Y458013D01*
X985758Y457967D01*
X985653Y457916D01*
X985550Y457862D01*
X985448Y457805D01*
X985349Y457744D01*
X985252Y457680D01*
X985157Y457613D01*
X985065Y457543D01*
X984974Y457469D01*
X984887Y457393D01*
X984802Y457313D01*
X984720Y457231D01*
X984640Y457146D01*
X984564Y457059D01*
X984490Y456968D01*
X984420Y456876D01*
X984353Y456781D01*
X984289Y456684D01*
X984228Y456585D01*
X984171Y456483D01*
X984117Y456380D01*
X984066Y456275D01*
X984020Y456169D01*
X983977Y456061D01*
X983937Y455952D01*
X983901Y455841D01*
X983869Y455729D01*
X983841Y455616D01*
X983817Y455503D01*
X983796Y455388D01*
X983780Y455273D01*
X983767Y455157D01*
X983758Y455041D01*
X983753Y454925D01*
X983752Y454809D01*
X983755Y454693D01*
X983762Y454577D01*
X983773Y454461D01*
X983787Y454345D01*
X983806Y454231D01*
X983828Y454116D01*
X983855Y454003D01*
X983885Y453891D01*
X983919Y453780D01*
X983956Y453670D01*
X983998Y453561D01*
X984043Y453454D01*
X984091Y453348D01*
X984143Y453244D01*
X984199Y453142D01*
X984258Y453042D01*
X984320Y452943D01*
X984386Y452847D01*
X984455Y452754D01*
X984527Y452662D01*
X984602Y452573D01*
X984680Y452487D01*
X984760Y452403D01*
X982240Y464662D02*
X971284Y453706D01*
X982240Y464662D02*
X979197Y467705D01*
X979104Y467796D01*
X979008Y467884D01*
X978909Y467968D01*
X978808Y468050D01*
X978705Y468129D01*
X978599Y468204D01*
X978491Y468276D01*
X978381Y468345D01*
X978268Y468411D01*
X978154Y468473D01*
X978038Y468532D01*
X977920Y468587D01*
X977801Y468638D01*
X977680Y468686D01*
X977558Y468731D01*
X977434Y468771D01*
X977310Y468808D01*
X977184Y468841D01*
X977057Y468870D01*
X976930Y468896D01*
X976802Y468917D01*
X976673Y468935D01*
X976543Y468948D01*
X976414Y468958D01*
X976284Y468964D01*
X976154Y468966D01*
X976024Y468964D01*
X975894Y468958D01*
X975764Y468948D01*
X975635Y468935D01*
X975506Y468917D01*
X975378Y468895D01*
X975251Y468870D01*
X975124Y468841D01*
X974998Y468808D01*
X974874Y468771D01*
X974750Y468731D01*
X974628Y468686D01*
X974507Y468638D01*
X974388Y468587D01*
X974270Y468532D01*
X974154Y468473D01*
X974040Y468411D01*
X973927Y468345D01*
X973817Y468276D01*
X973709Y468204D01*
X973603Y468129D01*
X973500Y468050D01*
X973399Y467968D01*
X973300Y467884D01*
X973204Y467796D01*
X973111Y467705D01*
X973020Y467612D01*
X972932Y467516D01*
X972848Y467417D01*
X972766Y467316D01*
X972687Y467213D01*
X972612Y467107D01*
X972540Y466999D01*
X972471Y466889D01*
X972405Y466776D01*
X972343Y466662D01*
X972284Y466546D01*
X972229Y466428D01*
X972178Y466309D01*
X972130Y466188D01*
X972085Y466066D01*
X972045Y465942D01*
X972008Y465818D01*
X971975Y465692D01*
X971946Y465565D01*
X971921Y465438D01*
X971899Y465310D01*
X971881Y465181D01*
X971868Y465052D01*
X971858Y464922D01*
X971852Y464792D01*
X971850Y464662D01*
X971852Y464532D01*
X971858Y464402D01*
X971868Y464273D01*
X971881Y464143D01*
X971899Y464014D01*
X971920Y463886D01*
X971946Y463759D01*
X971975Y463632D01*
X972008Y463506D01*
X972045Y463382D01*
X972085Y463258D01*
X972130Y463136D01*
X972178Y463015D01*
X972229Y462896D01*
X972284Y462778D01*
X972343Y462662D01*
X972405Y462548D01*
X972471Y462435D01*
X972540Y462325D01*
X972612Y462217D01*
X972687Y462111D01*
X972766Y462008D01*
X972848Y461907D01*
X972932Y461808D01*
X973020Y461712D01*
X973111Y461619D01*
X973110Y461619D02*
X976154Y458575D01*
X972502Y462227D02*
X965198Y459793D01*
X961442Y463549D02*
X968746Y478156D01*
X954138Y470852D01*
X957790Y472678D02*
X963268Y467200D01*
X949832Y475158D02*
X960788Y486114D01*
X954701Y492201D02*
X954092Y479419D01*
X954092Y484288D02*
X943745Y481245D01*
X939440Y485550D02*
X934571Y490419D01*
X939440Y485550D02*
X950396Y496506D01*
X945527Y501375D01*
X941875Y495289D02*
X945527Y491637D01*
X927398Y497592D02*
X927318Y497675D01*
X927241Y497760D01*
X927167Y497848D01*
X927096Y497939D01*
X927027Y498031D01*
X926962Y498126D01*
X926900Y498223D01*
X926842Y498322D01*
X926786Y498423D01*
X926735Y498526D01*
X926686Y498630D01*
X926641Y498736D01*
X926600Y498843D01*
X926562Y498952D01*
X926528Y499062D01*
X926498Y499173D01*
X926471Y499285D01*
X926448Y499398D01*
X926429Y499511D01*
X926414Y499625D01*
X926402Y499740D01*
X926394Y499854D01*
X926390Y499969D01*
X926390Y500085D01*
X926394Y500200D01*
X926402Y500314D01*
X926414Y500429D01*
X926429Y500543D01*
X926448Y500656D01*
X926471Y500769D01*
X926498Y500881D01*
X926528Y500992D01*
X926562Y501102D01*
X926600Y501211D01*
X926641Y501318D01*
X926686Y501424D01*
X926735Y501528D01*
X926786Y501631D01*
X926842Y501732D01*
X926900Y501831D01*
X926962Y501928D01*
X927027Y502023D01*
X927096Y502115D01*
X927167Y502206D01*
X927241Y502294D01*
X927318Y502379D01*
X927398Y502462D01*
X927398Y497592D02*
X927523Y497471D01*
X927650Y497352D01*
X927780Y497237D01*
X927913Y497124D01*
X928049Y497015D01*
X928187Y496909D01*
X928327Y496807D01*
X928471Y496708D01*
X928616Y496612D01*
X928763Y496520D01*
X928913Y496431D01*
X929065Y496346D01*
X929219Y496265D01*
X929375Y496187D01*
X929532Y496114D01*
X929692Y496043D01*
X929852Y495977D01*
X930015Y495915D01*
X930179Y495856D01*
X930344Y495802D01*
X930511Y495751D01*
X930678Y495705D01*
X930847Y495662D01*
X931017Y495624D01*
X931187Y495589D01*
X931359Y495559D01*
X931531Y495533D01*
X931703Y495510D01*
X931876Y495492D01*
X932050Y495479D01*
X932224Y495469D01*
X932397Y495463D01*
X932571Y495462D01*
X939267Y502765D02*
X939347Y502848D01*
X939424Y502933D01*
X939498Y503021D01*
X939569Y503112D01*
X939638Y503204D01*
X939703Y503299D01*
X939765Y503396D01*
X939823Y503495D01*
X939879Y503596D01*
X939930Y503699D01*
X939979Y503803D01*
X940024Y503909D01*
X940065Y504016D01*
X940103Y504125D01*
X940137Y504235D01*
X940167Y504346D01*
X940194Y504458D01*
X940217Y504571D01*
X940236Y504684D01*
X940251Y504798D01*
X940263Y504913D01*
X940271Y505027D01*
X940275Y505142D01*
X940275Y505258D01*
X940271Y505373D01*
X940263Y505487D01*
X940251Y505602D01*
X940236Y505716D01*
X940217Y505829D01*
X940194Y505942D01*
X940167Y506054D01*
X940137Y506165D01*
X940103Y506275D01*
X940065Y506384D01*
X940024Y506491D01*
X939979Y506597D01*
X939930Y506701D01*
X939879Y506804D01*
X939823Y506905D01*
X939765Y507004D01*
X939703Y507101D01*
X939638Y507196D01*
X939569Y507288D01*
X939498Y507379D01*
X939424Y507467D01*
X939347Y507552D01*
X939267Y507635D01*
X939153Y507747D01*
X939036Y507855D01*
X938916Y507961D01*
X938794Y508064D01*
X938669Y508164D01*
X938541Y508260D01*
X938412Y508354D01*
X938280Y508444D01*
X938146Y508531D01*
X938010Y508614D01*
X937871Y508694D01*
X937731Y508771D01*
X937589Y508844D01*
X937445Y508914D01*
X937300Y508980D01*
X937153Y509043D01*
X937004Y509102D01*
X936854Y509157D01*
X936703Y509208D01*
X936551Y509256D01*
X936397Y509300D01*
X936242Y509340D01*
X936087Y509376D01*
X935930Y509408D01*
X935773Y509437D01*
X935615Y509461D01*
X935919Y501853D02*
X936033Y501826D01*
X936148Y501802D01*
X936263Y501783D01*
X936379Y501767D01*
X936496Y501755D01*
X936613Y501747D01*
X936730Y501743D01*
X936847Y501742D01*
X936964Y501746D01*
X937081Y501754D01*
X937197Y501765D01*
X937313Y501781D01*
X937429Y501800D01*
X937544Y501823D01*
X937658Y501850D01*
X937771Y501881D01*
X937882Y501916D01*
X937993Y501954D01*
X938102Y501996D01*
X938210Y502042D01*
X938317Y502091D01*
X938421Y502144D01*
X938524Y502200D01*
X938625Y502259D01*
X938723Y502322D01*
X938820Y502389D01*
X938914Y502458D01*
X939006Y502531D01*
X939096Y502606D01*
X939183Y502685D01*
X939267Y502766D01*
X930746Y503375D02*
X930632Y503402D01*
X930517Y503426D01*
X930402Y503445D01*
X930286Y503461D01*
X930169Y503473D01*
X930052Y503481D01*
X929935Y503485D01*
X929818Y503486D01*
X929701Y503482D01*
X929584Y503474D01*
X929468Y503463D01*
X929352Y503447D01*
X929236Y503428D01*
X929121Y503405D01*
X929007Y503378D01*
X928894Y503347D01*
X928783Y503312D01*
X928672Y503274D01*
X928563Y503232D01*
X928455Y503186D01*
X928348Y503137D01*
X928244Y503084D01*
X928141Y503028D01*
X928040Y502969D01*
X927942Y502906D01*
X927845Y502839D01*
X927751Y502770D01*
X927659Y502697D01*
X927569Y502622D01*
X927482Y502543D01*
X927398Y502462D01*
X930746Y503374D02*
X935919Y501853D01*
X987846Y401582D02*
X990281Y399148D01*
X990280Y399147D02*
X990363Y399067D01*
X990448Y398990D01*
X990536Y398916D01*
X990627Y398845D01*
X990719Y398776D01*
X990814Y398711D01*
X990911Y398649D01*
X991010Y398591D01*
X991111Y398535D01*
X991214Y398484D01*
X991318Y398435D01*
X991424Y398390D01*
X991531Y398349D01*
X991640Y398311D01*
X991750Y398277D01*
X991861Y398247D01*
X991973Y398220D01*
X992086Y398197D01*
X992199Y398178D01*
X992313Y398163D01*
X992428Y398151D01*
X992542Y398143D01*
X992657Y398139D01*
X992773Y398139D01*
X992888Y398143D01*
X993002Y398151D01*
X993117Y398163D01*
X993231Y398178D01*
X993344Y398197D01*
X993457Y398220D01*
X993569Y398247D01*
X993680Y398277D01*
X993790Y398311D01*
X993899Y398349D01*
X994006Y398390D01*
X994112Y398435D01*
X994216Y398484D01*
X994319Y398535D01*
X994420Y398591D01*
X994519Y398649D01*
X994616Y398711D01*
X994711Y398776D01*
X994803Y398845D01*
X994894Y398916D01*
X994982Y398990D01*
X995067Y399067D01*
X995150Y399147D01*
X995150Y399148D02*
X1001237Y405234D01*
X1001317Y405317D01*
X1001394Y405402D01*
X1001468Y405490D01*
X1001539Y405581D01*
X1001608Y405673D01*
X1001673Y405768D01*
X1001735Y405865D01*
X1001793Y405964D01*
X1001849Y406065D01*
X1001900Y406168D01*
X1001949Y406272D01*
X1001994Y406378D01*
X1002035Y406485D01*
X1002073Y406594D01*
X1002107Y406704D01*
X1002137Y406815D01*
X1002164Y406927D01*
X1002187Y407040D01*
X1002206Y407153D01*
X1002221Y407267D01*
X1002233Y407382D01*
X1002241Y407496D01*
X1002245Y407611D01*
X1002245Y407727D01*
X1002241Y407842D01*
X1002233Y407956D01*
X1002221Y408071D01*
X1002206Y408185D01*
X1002187Y408298D01*
X1002164Y408411D01*
X1002137Y408523D01*
X1002107Y408634D01*
X1002073Y408744D01*
X1002035Y408853D01*
X1001994Y408960D01*
X1001949Y409066D01*
X1001900Y409170D01*
X1001849Y409273D01*
X1001793Y409374D01*
X1001735Y409473D01*
X1001673Y409570D01*
X1001608Y409665D01*
X1001539Y409757D01*
X1001468Y409848D01*
X1001394Y409936D01*
X1001317Y410021D01*
X1001237Y410104D01*
X998802Y412538D01*
X991842Y413412D02*
X986972Y408543D01*
X991841Y413412D02*
X991932Y413505D01*
X992020Y413601D01*
X992104Y413700D01*
X992186Y413801D01*
X992265Y413904D01*
X992340Y414010D01*
X992412Y414118D01*
X992481Y414228D01*
X992547Y414341D01*
X992609Y414455D01*
X992668Y414571D01*
X992723Y414689D01*
X992774Y414808D01*
X992822Y414929D01*
X992867Y415051D01*
X992907Y415175D01*
X992944Y415299D01*
X992977Y415425D01*
X993006Y415552D01*
X993031Y415679D01*
X993053Y415807D01*
X993071Y415936D01*
X993084Y416065D01*
X993094Y416195D01*
X993100Y416325D01*
X993102Y416455D01*
X993100Y416585D01*
X993094Y416715D01*
X993084Y416845D01*
X993071Y416974D01*
X993053Y417103D01*
X993032Y417231D01*
X993006Y417358D01*
X992977Y417485D01*
X992944Y417611D01*
X992907Y417735D01*
X992867Y417859D01*
X992822Y417981D01*
X992774Y418102D01*
X992723Y418221D01*
X992668Y418339D01*
X992609Y418455D01*
X992547Y418569D01*
X992481Y418682D01*
X992412Y418792D01*
X992340Y418900D01*
X992265Y419006D01*
X992186Y419109D01*
X992104Y419210D01*
X992020Y419309D01*
X991932Y419405D01*
X991841Y419498D01*
X991748Y419589D01*
X991652Y419677D01*
X991553Y419761D01*
X991452Y419843D01*
X991349Y419922D01*
X991243Y419997D01*
X991135Y420069D01*
X991025Y420138D01*
X990912Y420204D01*
X990798Y420266D01*
X990682Y420325D01*
X990564Y420380D01*
X990445Y420431D01*
X990324Y420479D01*
X990202Y420524D01*
X990078Y420564D01*
X989954Y420601D01*
X989828Y420634D01*
X989701Y420663D01*
X989574Y420688D01*
X989446Y420710D01*
X989317Y420728D01*
X989188Y420741D01*
X989058Y420751D01*
X988928Y420757D01*
X988798Y420759D01*
X988668Y420757D01*
X988538Y420751D01*
X988409Y420741D01*
X988279Y420728D01*
X988150Y420710D01*
X988022Y420689D01*
X987895Y420663D01*
X987768Y420634D01*
X987642Y420601D01*
X987518Y420564D01*
X987394Y420524D01*
X987272Y420479D01*
X987151Y420431D01*
X987032Y420380D01*
X986914Y420325D01*
X986798Y420266D01*
X986684Y420204D01*
X986571Y420138D01*
X986461Y420069D01*
X986353Y419997D01*
X986247Y419922D01*
X986144Y419843D01*
X986043Y419761D01*
X985944Y419677D01*
X985848Y419589D01*
X985755Y419498D01*
X985755Y419499D02*
X980886Y414629D01*
X980795Y414536D01*
X980707Y414440D01*
X980623Y414341D01*
X980541Y414240D01*
X980462Y414137D01*
X980387Y414031D01*
X980315Y413923D01*
X980246Y413813D01*
X980180Y413700D01*
X980118Y413586D01*
X980059Y413470D01*
X980004Y413352D01*
X979953Y413233D01*
X979905Y413112D01*
X979860Y412990D01*
X979820Y412866D01*
X979783Y412742D01*
X979750Y412616D01*
X979721Y412489D01*
X979695Y412362D01*
X979674Y412234D01*
X979656Y412105D01*
X979643Y411975D01*
X979633Y411846D01*
X979627Y411716D01*
X979625Y411586D01*
X979627Y411456D01*
X979633Y411326D01*
X979643Y411196D01*
X979656Y411067D01*
X979674Y410938D01*
X979696Y410810D01*
X979721Y410683D01*
X979750Y410556D01*
X979783Y410430D01*
X979820Y410306D01*
X979860Y410182D01*
X979905Y410060D01*
X979953Y409939D01*
X980004Y409820D01*
X980059Y409702D01*
X980118Y409586D01*
X980180Y409472D01*
X980246Y409359D01*
X980315Y409249D01*
X980387Y409141D01*
X980462Y409035D01*
X980541Y408932D01*
X980623Y408831D01*
X980707Y408732D01*
X980795Y408636D01*
X980886Y408543D01*
X980979Y408452D01*
X981075Y408364D01*
X981174Y408280D01*
X981275Y408198D01*
X981378Y408119D01*
X981484Y408044D01*
X981592Y407972D01*
X981702Y407903D01*
X981815Y407837D01*
X981929Y407775D01*
X982045Y407716D01*
X982163Y407661D01*
X982282Y407610D01*
X982403Y407562D01*
X982525Y407517D01*
X982649Y407477D01*
X982773Y407440D01*
X982899Y407407D01*
X983026Y407378D01*
X983153Y407353D01*
X983281Y407331D01*
X983410Y407313D01*
X983539Y407300D01*
X983669Y407290D01*
X983799Y407284D01*
X983929Y407282D01*
X984059Y407284D01*
X984189Y407290D01*
X984318Y407300D01*
X984448Y407313D01*
X984577Y407331D01*
X984705Y407352D01*
X984832Y407378D01*
X984959Y407407D01*
X985085Y407440D01*
X985209Y407477D01*
X985333Y407517D01*
X985455Y407562D01*
X985576Y407610D01*
X985695Y407661D01*
X985813Y407716D01*
X985929Y407775D01*
X986043Y407837D01*
X986156Y407903D01*
X986266Y407972D01*
X986374Y408044D01*
X986480Y408119D01*
X986583Y408198D01*
X986684Y408280D01*
X986783Y408364D01*
X986879Y408452D01*
X986972Y408543D01*
X972975Y416454D02*
X983931Y427409D01*
X974192Y424975D01*
X976627Y434713D01*
X965671Y423757D01*
X960314Y429115D02*
X971270Y440071D01*
X968226Y443114D01*
X968226Y443113D02*
X968133Y443204D01*
X968037Y443292D01*
X967938Y443376D01*
X967837Y443458D01*
X967734Y443537D01*
X967628Y443612D01*
X967520Y443684D01*
X967410Y443753D01*
X967297Y443819D01*
X967183Y443881D01*
X967067Y443940D01*
X966949Y443995D01*
X966830Y444046D01*
X966709Y444094D01*
X966587Y444139D01*
X966463Y444179D01*
X966339Y444216D01*
X966213Y444249D01*
X966086Y444278D01*
X965959Y444304D01*
X965831Y444325D01*
X965702Y444343D01*
X965572Y444356D01*
X965443Y444366D01*
X965313Y444372D01*
X965183Y444374D01*
X965053Y444372D01*
X964923Y444366D01*
X964793Y444356D01*
X964664Y444343D01*
X964535Y444325D01*
X964407Y444303D01*
X964280Y444278D01*
X964153Y444249D01*
X964027Y444216D01*
X963903Y444179D01*
X963779Y444139D01*
X963657Y444094D01*
X963536Y444046D01*
X963417Y443995D01*
X963299Y443940D01*
X963183Y443881D01*
X963069Y443819D01*
X962956Y443753D01*
X962846Y443684D01*
X962738Y443612D01*
X962632Y443537D01*
X962529Y443458D01*
X962428Y443376D01*
X962329Y443292D01*
X962233Y443204D01*
X962140Y443113D01*
X962049Y443020D01*
X961961Y442924D01*
X961877Y442825D01*
X961795Y442724D01*
X961716Y442621D01*
X961641Y442515D01*
X961569Y442407D01*
X961500Y442297D01*
X961434Y442184D01*
X961372Y442070D01*
X961313Y441954D01*
X961258Y441836D01*
X961207Y441717D01*
X961159Y441596D01*
X961114Y441474D01*
X961074Y441350D01*
X961037Y441226D01*
X961004Y441100D01*
X960975Y440973D01*
X960950Y440846D01*
X960928Y440718D01*
X960910Y440589D01*
X960897Y440460D01*
X960887Y440330D01*
X960881Y440200D01*
X960879Y440070D01*
X960881Y439940D01*
X960887Y439810D01*
X960897Y439681D01*
X960910Y439551D01*
X960928Y439422D01*
X960949Y439294D01*
X960975Y439167D01*
X961004Y439040D01*
X961037Y438914D01*
X961074Y438790D01*
X961114Y438666D01*
X961159Y438544D01*
X961207Y438423D01*
X961258Y438304D01*
X961313Y438186D01*
X961372Y438070D01*
X961434Y437956D01*
X961500Y437843D01*
X961569Y437733D01*
X961641Y437625D01*
X961716Y437519D01*
X961795Y437416D01*
X961877Y437315D01*
X961961Y437216D01*
X962049Y437120D01*
X962140Y437027D01*
X965183Y433984D01*
X952985Y442530D02*
X960897Y450443D01*
X952984Y442531D02*
X952891Y442440D01*
X952795Y442352D01*
X952696Y442268D01*
X952595Y442186D01*
X952492Y442107D01*
X952386Y442032D01*
X952278Y441960D01*
X952168Y441891D01*
X952055Y441825D01*
X951941Y441763D01*
X951825Y441704D01*
X951707Y441649D01*
X951588Y441598D01*
X951467Y441550D01*
X951345Y441505D01*
X951221Y441465D01*
X951097Y441428D01*
X950971Y441395D01*
X950844Y441366D01*
X950717Y441340D01*
X950589Y441319D01*
X950460Y441301D01*
X950330Y441288D01*
X950201Y441278D01*
X950071Y441272D01*
X949941Y441270D01*
X949811Y441272D01*
X949681Y441278D01*
X949551Y441288D01*
X949422Y441301D01*
X949293Y441319D01*
X949165Y441341D01*
X949038Y441366D01*
X948911Y441395D01*
X948785Y441428D01*
X948661Y441465D01*
X948537Y441505D01*
X948415Y441550D01*
X948294Y441598D01*
X948175Y441649D01*
X948057Y441704D01*
X947941Y441763D01*
X947827Y441825D01*
X947714Y441891D01*
X947604Y441960D01*
X947496Y442032D01*
X947390Y442107D01*
X947287Y442186D01*
X947186Y442268D01*
X947087Y442352D01*
X946991Y442440D01*
X946898Y442531D01*
X946807Y442624D01*
X946719Y442720D01*
X946635Y442819D01*
X946553Y442920D01*
X946474Y443023D01*
X946399Y443129D01*
X946327Y443237D01*
X946258Y443347D01*
X946192Y443460D01*
X946130Y443574D01*
X946071Y443690D01*
X946016Y443808D01*
X945965Y443927D01*
X945917Y444048D01*
X945872Y444170D01*
X945832Y444294D01*
X945795Y444418D01*
X945762Y444544D01*
X945733Y444671D01*
X945708Y444798D01*
X945686Y444926D01*
X945668Y445055D01*
X945655Y445184D01*
X945645Y445314D01*
X945639Y445444D01*
X945637Y445574D01*
X945639Y445704D01*
X945645Y445834D01*
X945655Y445963D01*
X945668Y446093D01*
X945686Y446222D01*
X945707Y446350D01*
X945733Y446477D01*
X945762Y446604D01*
X945795Y446730D01*
X945832Y446854D01*
X945872Y446978D01*
X945917Y447100D01*
X945965Y447221D01*
X946016Y447340D01*
X946071Y447458D01*
X946130Y447574D01*
X946192Y447688D01*
X946258Y447801D01*
X946327Y447911D01*
X946399Y448019D01*
X946474Y448125D01*
X946553Y448228D01*
X946635Y448329D01*
X946719Y448428D01*
X946807Y448524D01*
X946898Y448617D01*
X954811Y456530D01*
X947693Y463647D02*
X936737Y452692D01*
X950736Y460604D02*
X944649Y466691D01*
X929600Y459829D02*
X924730Y464698D01*
X929600Y459829D02*
X940555Y470785D01*
X935686Y475654D01*
X932034Y469567D02*
X935686Y465915D01*
X970065Y383801D02*
X974934Y378932D01*
X985890Y389888D01*
X981021Y394757D01*
X977369Y388671D02*
X981021Y385019D01*
X976780Y398998D02*
X965824Y388042D01*
X960955Y392912D01*
X956714Y397152D02*
X951845Y402022D01*
X956714Y397152D02*
X967670Y408108D01*
X962801Y412978D01*
X959149Y406891D02*
X962801Y403239D01*
X958487Y417291D02*
X947531Y406335D01*
X948748Y414857D02*
X958487Y417291D01*
X948748Y414857D02*
X951183Y424595D01*
X940227Y413639D01*
X934990Y418877D02*
X930121Y423746D01*
X934990Y418877D02*
X945946Y429832D01*
X941077Y434702D01*
X937425Y428615D02*
X941077Y424963D01*
X936855Y438923D02*
X925899Y427967D01*
X919813Y434054D02*
X936855Y438923D01*
X930768Y445010D02*
X919813Y434054D01*
X912695Y441172D02*
X923650Y452128D01*
X920607Y455171D02*
X926694Y449085D01*
M02*
